<svg width="42" height="42" viewBox="0 0 42 42" fill="none" xmlns="http://www.w3.org/2000/svg">
<path d="M21 41.5C20.3214 41.5 19.6507 41.467 18.9893 41.4027L18.9408 41.9003C17.5504 41.765 16.1996 41.4941 14.902 41.1009L15.0469 40.6224C13.7507 40.2297 12.5087 39.712 11.335 39.0833L11.0989 39.5241C9.88177 38.8722 8.73634 38.1038 7.67753 37.2338L7.99495 36.8475C6.95737 35.995 6.00498 35.0426 5.15249 34.0051L4.76616 34.3225C3.89622 33.2637 3.12784 32.1182 2.47592 30.9011L2.91668 30.665C2.288 29.4913 1.77031 28.2493 1.3776 26.9531L0.899078 27.098C0.505929 25.8004 0.234996 24.4496 0.0996727 23.0592L0.597322 23.0107C0.532954 22.3493 0.5 21.6786 0.5 21C0.5 20.3214 0.532954 19.6507 0.597322 18.9893L0.099673 18.9408C0.234996 17.5504 0.505929 16.1996 0.899078 14.902L1.3776 15.0469C1.77031 13.7507 2.288 12.5087 2.91668 11.335L2.47592 11.0989C3.12785 9.88176 3.89622 8.73634 4.76616 7.67753L5.15249 7.99495C6.00498 6.95737 6.95738 6.00498 7.99495 5.15249L7.67754 4.76616C8.73635 3.89622 9.88177 3.12784 11.0989 2.47592L11.335 2.91668C12.5087 2.288 13.7507 1.77031 15.0469 1.3776L14.902 0.899078C16.1996 0.505929 17.5504 0.234996 18.9408 0.0996728L18.9893 0.597322C19.6507 0.532954 20.3214 0.5 21 0.5C21.6786 0.5 22.3493 0.532954 23.0107 0.597322L23.0592 0.0996729C24.4496 0.234996 25.8004 0.505929 27.098 0.899078L26.9531 1.3776C28.2493 1.77031 29.4913 2.288 30.665 2.91668L30.9011 2.47592C32.1182 3.12785 33.2637 3.89622 34.3225 4.76616L34.0051 5.15249C35.0426 6.00498 35.995 6.95738 36.8475 7.99495L37.2338 7.67754C38.1038 8.73635 38.8722 9.88177 39.5241 11.0989L39.0833 11.335C39.712 12.5087 40.2297 13.7507 40.6224 15.0469L41.1009 14.902C41.4941 16.1996 41.765 17.5504 41.9003 18.9408L41.4027 18.9893C41.467 19.6507 41.5 20.3214 41.5 21C41.5 21.6786 41.467 22.3493 41.4027 23.0107L41.9003 23.0592C41.765 24.4496 41.4941 25.8004 41.1009 27.098L40.6224 26.9531C40.2297 28.2493 39.712 29.4913 39.0833 30.665L39.5241 30.9011C38.8722 32.1182 38.1038 33.2637 37.2338 34.3225L36.8475 34.0051C35.995 35.0426 35.0426 35.995 34.0051 36.8475L34.3225 37.2338C33.2637 38.1038 32.1182 38.8722 30.9011 39.5241L30.665 39.0833C29.4913 39.712 28.2493 40.2297 26.9531 40.6224L27.098 41.1009C25.8004 41.4941 24.4496 41.765 23.0592 41.9003L23.0107 41.4027C22.3493 41.467 21.6786 41.5 21 41.5Z" stroke="#D7DBDB" stroke-dasharray="4"/>
<mask id="mask0" mask-type="alpha" maskUnits="userSpaceOnUse" x="15" y="15" width="12" height="12">
<path fill-rule="evenodd" clip-rule="evenodd" d="M26.25 21.75H21.75V26.25H20.25V21.75H15.75V20.25H20.25V15.75H21.75V20.25H26.25V21.75Z" fill="white"/>
</mask>
<g mask="url(#mask0)">
<rect opacity="0.4" x="2.25" y="2.25" width="37.5" height="37.5" fill="#344442"/>
</g>
</svg>
