<svg width="330" height="140" viewBox="0 0 330 140" fill="none" xmlns="http://www.w3.org/2000/svg">
<mask id="mask0" mask-type="alpha" maskUnits="userSpaceOnUse" x="0" y="0" width="330" height="140">
<rect width="330" height="140" fill="white"/>
</mask>
<g mask="url(#mask0)">
<g opacity="0.2">
<path fill-rule="evenodd" clip-rule="evenodd" d="M151.999 40.1088C150.187 40.5528 146.419 39.1608 146 40.9128C146.956 42.1758 152.095 42.2988 151.999 40.1088Z" fill="white"/>
<path fill-rule="evenodd" clip-rule="evenodd" d="M131.54 44.8673C133.853 45.9408 139.527 47.1243 140 43.9271C136.743 43.8616 131.138 45.3818 132.311 42.0443C131.634 42.2244 130.049 41.6654 130 42.3577C131.012 42.7904 131.666 43.5084 131.54 44.8673Z" fill="white"/>
<path fill-rule="evenodd" clip-rule="evenodd" d="M175.374 48.7855C185.033 60.7656 196.636 70.854 205.25 83.8488C211.745 90.1059 215.742 98.7916 223.102 104.211C222.977 105.099 221.748 104.911 221.936 106.094C224.973 106.789 226.382 109.06 227.366 111.75C228.372 112.155 229.966 111.989 230.472 112.88C240.094 131.176 255.428 143.926 265.004 162.27C268.281 163.381 274.558 164.235 271.99 168.679C273.529 169.697 276.013 169.792 277.807 170.565C293.037 183.793 297.764 207.228 316.998 216.563C321.193 222.789 326.385 228.048 332.515 232.397C332.483 232.993 331.529 232.692 331.743 233.53C334.734 241.302 345.064 241.945 347.263 250.496C348.226 251.064 349.826 251.022 350.367 252C354.859 246.775 348.828 244.073 347.263 239.562C340.285 238.55 337.184 233.771 335.619 227.497C330.38 222.783 324.846 218.362 321.653 211.661C318.699 211.894 317.912 210.019 315.833 209.401C313.75 202.247 306.634 199.99 303.417 193.941C303.425 193.32 304.496 193.727 304.583 193.187C298.78 190.778 296.966 184.499 294.102 179.237C292.728 178.689 290.396 179.068 289.448 178.107C289.494 177.022 291.102 177.452 290.998 176.221C289.462 174.697 287.29 173.795 286.731 171.319C283.873 171.583 282.542 170.363 282.077 168.302C282.045 166.891 284.825 168.207 284.79 166.796C282.273 164.969 278.093 164.761 275.866 162.647C276.595 160.648 276.766 159.313 275.478 157.745C274.472 156.733 274.31 158.206 273.152 158.124C265.84 148.137 255.159 141.422 250.647 128.716C248.087 124.545 241.621 124.163 240.944 118.159C234.083 115.027 231.977 107.269 226.203 103.075C224.733 95.0812 219.095 91.1346 213.787 86.8649C213.46 84.2957 211.557 83.2529 211.071 80.8327C207.868 79.8292 204.964 76.8384 205.641 73.291C204.513 72.8806 202.887 72.9537 201.762 72.5405C201.302 71.0985 200.263 70.2215 200.596 68.0149C193.08 63.1268 189.204 54.7025 181.197 50.295C181.642 49.8481 181.634 48.9598 181.582 48.0322C177.48 44.9908 173.062 43.3745 168 42C169.146 45.5417 172.77 46.6661 175.374 48.7855Z" fill="white"/>
<path fill-rule="evenodd" clip-rule="evenodd" d="M152.048 42.8574C152.36 43.6554 154.64 43.0764 154.463 42.0504C153.632 42.2964 151.667 41.4024 152.048 42.8574Z" fill="white"/>
<path fill-rule="evenodd" clip-rule="evenodd" d="M336.119 251.092C332.362 241.912 322.979 238.22 318.301 229.941C310.538 228.069 310.278 218.88 302.03 217.475V215.208C295.946 211.198 295.105 202.072 290.412 196.702C291.215 192.213 287.207 189.634 284.212 187.637C280.804 181.397 275.898 176.61 269.882 172.907C270.988 187.82 287.233 193.252 289.635 206.901C285.945 205.462 285.994 200.382 280.726 200.478C279.883 199.289 279.034 198.101 279.178 195.947C270.107 192.579 270.526 179.955 263.685 174.419C263.026 169.989 260.245 166.286 257.874 161.953C257.536 160.838 257.294 162.828 256.323 162.333C255.466 159.39 252.381 158.621 252.067 155.155C251.347 154.471 249.291 155.09 248.965 154.02C249.309 153.35 250.042 153.063 249.739 151.756C248.457 150.362 245.982 150.131 245.092 148.357C244.801 147.194 246.158 147.631 245.866 146.468C243.316 145.386 242.71 142.249 241.991 138.535C240.685 138.665 238.089 139.49 236.957 138.535C237.119 137.688 239.01 138.527 239.282 137.781C237.511 132.83 234.624 128.981 229.986 126.829C228.215 120.623 223.404 117.382 220.686 112.099C220.597 113.544 219.537 113.769 218.365 113.231C217.862 111.356 219.303 111.375 219.139 109.829C213.929 104.189 207.171 98.1009 204.806 90.9455C195.434 85.0996 190.762 74.6777 182.728 67.528C182.953 66.3002 182.465 65.7708 182.341 64.8838C176.389 62.2509 172.337 57.7679 167.621 53.9297C166.83 48.5175 160.947 46.107 156 46C157.692 49.2609 160.687 51.2489 163.748 53.1751C163.835 53.8903 163.309 54.0086 163.361 54.6844C173.769 62.1608 179.993 73.7203 188.925 82.6356C189.402 83.8577 187.675 82.9257 188.151 84.1478C191.856 88.2112 195.241 92.5928 198.221 97.3659C213.316 108.711 222.662 125.658 235.022 139.67C237.832 148.507 242.871 155.18 246.64 163.088C258.148 171.885 262.22 187.933 272.207 198.214C273.18 198.774 274.341 199.154 274.919 200.1C279.308 206.017 283.802 211.835 292.35 213.699C294.504 218.013 297.511 221.507 302.03 223.521C305.395 229.431 310.844 233.309 315.589 237.871C316.086 238.367 316.086 239.265 315.589 239.76C318.096 241.85 321.018 243.531 323.335 245.803C323.97 247.578 324.851 249.112 325.662 250.715C332.405 252.573 333.064 260.365 340.379 261.666C341.887 267.754 347.544 269.79 352 273C350.524 261.973 342.172 257.653 336.119 251.092Z" fill="white"/>
<path fill-rule="evenodd" clip-rule="evenodd" d="M212.834 46.01C213.026 44.21 211.628 43.997 210.017 44C209.84 45.785 211.043 46.19 212.834 46.01Z" fill="white"/>
<path fill-rule="evenodd" clip-rule="evenodd" d="M215.354 68.7177C213.05 72.6122 217.579 78.9526 222.338 79.6797C222.627 80.8407 221.275 80.4039 221.565 81.5677C222.144 82.0101 223.151 82.0383 223.504 82.7005C233.909 102.683 248.976 118.123 263.879 133.729V135.239C269.288 139.294 271.997 145.981 276.298 151.115C277.213 151.107 277.441 151.766 278.628 151.493C282.066 156.588 287.021 160.203 289.887 165.856C290.856 167.051 292.674 167.426 293.768 168.502C293.808 171.36 295.817 172.304 298.04 173.037C298.708 178.94 301.944 182.336 305.805 185.131C305.122 185.478 304.453 185.836 304.638 187.022C311.596 190.074 315.871 195.735 319 202.521C319.969 202.837 321.081 203.014 322.496 202.899C329.202 215.644 342.738 221.74 352 232C350.816 228.365 350 224.369 346.565 222.932V220.663C343.977 217.38 340.649 214.83 338.411 211.215C330.322 207.875 328.696 198.246 321.33 194.205C320.939 192.444 320.001 191.215 319 190.049C317.969 190.043 316.783 190.19 316.282 189.668C316.175 184.339 309.397 182.274 307.744 177.196C307.782 176.221 309.402 176.799 308.908 175.305C304.144 172.135 299.684 168.666 298.425 162.077C295.18 159.44 290.613 158.096 288.723 154.139C287.192 154.241 286.023 153.993 285.615 153.006C285.516 145.728 276.075 144.451 275.91 135.997C274.654 134.675 274.697 137.815 273.195 137.507C270.923 137.192 269.233 134.315 270.09 132.215C271.204 132.52 270.333 134.751 272.029 134.484C273.126 134.797 273.036 133.951 273.968 134.106C274.368 132.336 273.331 131.956 272.808 131.082C266.096 131.443 265.077 126.261 260.385 124.657C251.897 114.879 242.904 102.387 234.372 91.394V88.7507C225.753 79.7557 218.196 69.7266 211.079 59.2662C209.244 58.6632 206.06 59.3677 206.031 57.0006C207.675 56.1918 208.552 58.9675 211.079 58.511C211.253 56.8315 210.028 56.5102 209.528 55.4873C201.415 58.3391 200.037 41.8201 194 48.6847C201.846 54.6532 204.471 65.7025 215.354 68.7177Z" fill="white"/>
<path fill-rule="evenodd" clip-rule="evenodd" d="M120 48.5748V47.5139C118.597 46.2049 114.938 47.6617 113.884 48.9311C113.017 49.0683 114.082 47.316 112.803 47.8675C111.765 48.0259 111.161 48.6144 111 49.6383C114.098 50.7283 117.32 49.0525 120 48.5748Z" fill="white"/>
<path fill-rule="evenodd" clip-rule="evenodd" d="M350.053 283.342C349.156 282.706 347.083 283.219 346.567 282.215C344.532 277.174 341.369 273.227 336.505 270.933C337.132 269.699 336.413 269.498 336.505 267.925C320.221 253.906 305.25 238.618 290.435 223.175C290.124 221.868 291.01 221.728 290.825 220.542C289.235 220.077 288.124 219.152 286.175 219.037C275.543 205.178 260.935 195.169 253.27 178.425C247.664 173.538 242.426 167.513 239.722 158.869C238.296 157.49 236.01 156.957 234.688 155.483C234.368 150.615 229.213 145.79 228.884 139.689C227.637 138.391 225.224 138.229 224.234 136.681C224.681 135.627 224.681 134.724 224.234 133.673C219.151 133.97 220.69 127.844 216.493 127.28C216.222 125.884 217.154 125.665 216.88 124.272C215.714 123.896 214.072 123.994 213.78 122.766C214.098 121.46 213.206 121.32 213.393 120.134C202.579 112.21 195.75 100.421 185.137 92.3042C182.889 83.5679 174.868 78.4848 172.747 70.87C170.969 69.4653 168.677 68.5569 167.329 66.7345C162.913 57.8609 152.425 54.8861 145.261 48.6816C144.156 47.8096 142.026 47.7367 141.004 48.6816C140.871 53.1983 144.164 54.3871 147.968 55.0768C148.165 56.26 147.126 56.5459 147.968 57.331C163.052 62.2402 167.315 77.6521 178.167 86.666C178.228 87.5996 177.558 87.8295 177.396 88.5445C180.482 90.1818 181.356 93.9752 182.427 97.5696C184.419 99.6443 187.559 100.606 189.784 102.456C187.446 110.015 199.88 109.337 199.456 117.504C202.434 116.464 205.984 119.433 206.042 123.518C206.972 123.994 208.38 124.003 209.139 124.645C214.672 135.568 224.586 142.23 229.654 153.604C229.533 154.485 229.045 155.014 229.268 156.237C238.758 171.332 248.207 186.477 259.853 199.484C270.977 210.612 279.941 223.837 293.143 232.951C293.986 236.142 295.862 238.335 298.563 239.72C302.468 246.835 308.798 251.588 314.048 257.394C314.625 259.971 316.567 261.215 319.468 261.532C324.917 267.269 330.753 272.632 337.663 276.95C338.229 282.294 342.31 284.22 345.793 286.729C346.278 290.895 349.011 292.875 351.6 295C353.171 291.103 349.574 288.622 350.053 283.342Z" fill="white"/>
<path fill-rule="evenodd" clip-rule="evenodd" d="M221 52.3835C220.197 50.6476 218.479 49.6608 215 50.1069C215.2 52.1532 218.822 54.0006 221 52.3835Z" fill="white"/>
<path fill-rule="evenodd" clip-rule="evenodd" d="M135.239 67.3789C142.498 67.5394 149.286 71.8334 149.303 76.6062C155.269 81.3732 161.565 85.8134 167.671 90.4486C169.558 94.5018 172.888 99.1284 179 97.7525C174.144 87.5333 163.185 83.3224 157.51 73.9145C154.352 73.6909 153.175 71.5152 152.429 68.9182C150.981 68.4165 149.175 68.2732 148.132 67.3789C144.695 59.4816 133.794 58.9284 128.987 52.3812C125.78 52.4615 122.727 52.3898 120 52C120.463 59.0488 133.779 58.8796 135.239 67.3789Z" fill="white"/>
<path fill-rule="evenodd" clip-rule="evenodd" d="M220.178 59.7997C220.875 60.7594 223.037 60.2992 223.293 61.6826C223.322 65.7936 226.904 69.0515 230.303 71.0916C231.917 75.8059 234.172 79.8972 238.091 82.3834C237.528 82.8464 237.354 83.6771 237.31 84.6396C243.812 89.7916 245.719 97.0735 251.717 102.705C251.928 104.041 250.338 103.631 250.55 104.967C257.476 108.183 257.656 117.917 267.287 118.518C268.036 121.434 271.017 122.188 271.183 125.668C273.212 126.847 274.84 128.407 277.415 129.055C286.535 142.566 299.516 152.351 308.17 166.318C308.123 167.246 308.115 168.13 308.562 168.576C310.094 168.75 310.585 167.785 311.287 168.95C311.11 170.038 309.908 170.128 310.117 171.585C324.35 178.154 329.174 193.815 339.319 204.329C338.837 205.497 338.08 206.406 339.319 207.343C341.319 207.927 340.907 204.924 342.434 206.215C343.305 211.392 347.775 213.096 351 216C349.055 210.837 347.592 201.986 340.489 200.569C340.75 199.691 341.781 199.559 342.045 198.686C336.762 193.004 332.53 186.303 329.197 178.737C319.9 172.165 311.543 164.687 307.003 153.519C300.242 146.097 290.936 139.236 286.37 130.938C283.171 129.759 280.715 127.871 277.804 126.42C271.859 114.979 259.232 109.996 253.272 98.5664C252.312 97.4916 250.463 97.2727 249.769 95.9314C249.267 85.5993 239.966 78.3398 233.029 71.8436C233.923 66.1921 227.011 65.4176 228.744 61.3066C226.19 60.5125 224.521 58.8653 223.685 56.4127C222.712 56.0956 221.597 55.9188 220.178 56.0367C219.65 56.6597 220.497 58.2311 220.178 59.7997Z" fill="white"/>
<path fill-rule="evenodd" clip-rule="evenodd" d="M61.4256 79.9802C61.9049 80.5195 62.7565 80.6936 63.7497 80.7329C71.6226 74.9303 83.9386 72.3098 96.2748 73.9529C101.393 77.4384 109.639 78.4214 115.248 80.3566C130.743 79.9886 140.146 88.7825 149.713 95.4249C151.35 95.3406 152.217 96.0063 153.588 96.1804C156.501 104.146 168.511 103.261 171.401 111.249C172.824 111.369 173.543 112.176 174.885 112.378C174.657 113.729 175.333 114.203 175.656 115.015C194.162 129.412 210.413 145.997 222.129 167C223.604 166.68 224.455 165.75 226 165.495C225.434 163.368 225.327 161.869 224.453 159.467C219.143 155.844 216.663 149.46 214.383 142.891C209.218 140.003 206.593 134.647 202.765 130.463C201.977 129.151 200.741 131.555 200.054 130.463C197.361 119.77 185.403 118.093 182.244 107.856C177.85 108.328 176.234 104.949 171.785 104.466C164.983 97.5257 155.617 93.074 150.49 84.4993C149.009 83.7325 147.528 84.4235 145.845 84.4993C144.312 82.7271 142.736 80.9941 141.197 79.2247H138.099C134.99 74.0849 125.084 75.5622 125.708 66.7965C123.326 65.8444 120.035 65.7826 119.899 62.651C114.841 61.0416 109.933 59.2862 105.571 57C98.7634 59.1374 95.4231 55.9833 87.7552 57.7555C91.5343 58.6711 94.3953 63.8306 98.9886 61.5219C98.4083 61.4573 97.5595 61.6567 97.4411 61.1455C99.0463 60.8282 100.314 60.1709 102.473 60.39C107.632 66.4201 118.776 66.6308 123.384 73.2002C109.621 75.4387 98.5065 65.277 83.8837 68.3019C82.4835 67.9087 82.0909 66.5325 80.0122 66.7965C78.4908 68.33 77.8325 70.7033 73.8167 69.8074C72.5897 75.2055 65.1354 72.5261 62.1964 75.8375C62.9413 75.9948 63.868 75.9723 63.7497 76.9666C63.1492 77.7726 59.8406 79.5056 61.4256 79.9802Z" fill="white"/>
<path fill-rule="evenodd" clip-rule="evenodd" d="M240 61.1816C239.105 61.0376 237.842 59.2376 237 60.3746C237.797 60.6206 239.385 62.0696 240 61.1816Z" fill="white"/>
<path fill-rule="evenodd" clip-rule="evenodd" d="M260.648 85C261.948 83.4939 259.275 82.5125 258.644 81.5765C260.423 78.1587 256.465 77.1121 254.632 75.8698V72.4463C251.776 69.9645 247.805 67.7918 245.01 66.3594C244.711 65.1852 246.391 65.8943 245.811 64.4563C244.773 64.1528 241.924 63.6025 241 64.4563C246.11 72.1683 251.489 83.6669 260.648 85Z" fill="white"/>
<path fill-rule="evenodd" clip-rule="evenodd" d="M271.979 81C272.336 79.0969 267.985 78.1677 266 77C267.666 78.5876 268.886 80.523 271.979 81Z" fill="white"/>
<path fill-rule="evenodd" clip-rule="evenodd" d="M341.047 323.144C340.066 318.561 336.562 316.424 333.258 314.093C333.459 312.515 333.041 311.536 332.477 310.698C331.708 309.807 329.644 310.175 328.584 309.565C327.876 305.727 324.218 304.743 323.524 300.89C313.762 298.531 314.032 286.448 305.61 282.787C305.285 281.844 305.102 280.765 305.221 279.392C296.701 276.957 296.492 266.474 288.865 263.17C289.127 257.515 286.224 254.925 281.857 253.744C281.329 253.002 281.486 251.593 281.082 250.727C279.439 249.928 277.695 249.228 276.406 248.086C270.646 234.428 258.944 226.532 251.1 214.896C247.071 212.385 243.308 209.613 242.144 204.334C237.282 200.493 233.133 195.963 231.241 189.248C226.811 188.883 228.123 182.966 226.567 179.817C225.417 179.549 224.157 179.386 223.452 178.686C221.443 172.084 217.178 167.666 215.277 160.959C214.818 160.523 213.901 160.532 212.94 160.58C213.033 157.295 207.572 151.789 204.373 150.4C201.072 143.663 196.75 137.918 190.357 134.181C190.183 130.826 186.827 130.556 186.461 127.392C175.015 121.127 166.602 111.926 156.09 104.761C154.444 104.846 153.576 104.179 152.194 104.008C150.74 98.2516 143.575 98.0267 140.513 93.8227H137.009C124.012 86.7955 107.494 82.0404 87.9476 82.5072C87.4221 82.1389 87.4425 81.2362 86.7806 81C71.4672 82.1304 56.7082 88.6374 44.3385 94.956C44.0569 97.0706 41.9348 97.4024 42.0015 99.8573C50.13 98.1054 56.3889 96.002 61.8582 92.3155C68.9038 92.0202 73.4557 88.2522 80.5507 90.8055C81.7555 90.0884 83.1054 89.5119 84.4436 88.9186C98.5291 88.7696 112.406 92.2058 126.105 94.5764C127.823 96.3114 129.194 98.3726 131.56 99.4805C136.509 100.847 141.006 102.652 143.238 106.645H146.742C165.74 120.81 186.819 132.955 198.921 153.794C209.839 162.452 216.731 175.011 225.008 186.231C225.217 187.69 224.317 188.07 224.625 189.625C231.693 205.029 244.426 214.944 253.045 228.852C267.978 238.396 274.292 256.297 285.753 269.207C286.665 270.085 288.273 270.284 289.257 271.094C290.134 275.146 292.935 277.337 294.317 280.9C304.063 286.676 307.375 298.677 317.681 303.907C322.006 312.164 327.859 318.946 335.592 323.898C335.677 325.11 334.904 325.492 335.203 326.915C337.9 328.122 338.899 331.76 342.603 329.933C341.921 332.604 345.637 331.018 347.274 331.44C347.323 332.953 348.586 334.71 350 333.703C349.17 329.899 347.01 324.055 341.047 323.144Z" fill="white"/>
<path fill-rule="evenodd" clip-rule="evenodd" d="M282.007 101.456C282.72 105.575 285.19 110.164 287.098 114.273H289.843C291.458 120.376 295.591 124.066 296.502 130.855C301.216 134.736 305.506 139.027 309.037 144.049C308.438 145.246 308.9 145.704 309.037 147.061C317.539 158.731 328.441 168.092 337.241 179.479C337.156 182.446 339.043 183.522 341.549 184C342.778 179.911 341.193 178.981 340.375 175.331C339.855 174.704 338.155 175.204 337.635 174.578C335.606 165.226 328.617 160.637 322.355 155.354C314.858 143.076 305.129 133.356 298.07 119.924C298.646 119.488 299.054 119.488 299.636 119.924C289.811 109.776 283.867 95.8944 273.78 86H273C274.992 92.1261 276.052 99.1429 282.007 101.456Z" fill="white"/>
<path fill-rule="evenodd" clip-rule="evenodd" d="M270.995 100.501C266.849 99.8416 265.86 96.0699 264.151 93C264.259 91.1044 267.042 91.8537 267.574 90.3746C263.607 89.7903 261.703 87.1706 257.311 87C256.43 88.0569 257.747 89.343 257.311 91.124C260.658 92.3458 262.627 96.713 261.87 99.7521C263.075 100.692 265.548 100.376 266.056 102C266.373 103.566 265.313 103.773 265.293 105C275.591 110.718 280.609 123.637 290 129C285.92 117.651 277.195 110.885 269.856 102.749C270.402 102.168 271.386 102.014 270.995 100.501Z" fill="white"/>
<path fill-rule="evenodd" clip-rule="evenodd" d="M306 116C302.481 108.15 297.891 101.422 291 96C295.731 103.243 298.044 111.366 306 116Z" fill="white"/>
<path fill-rule="evenodd" clip-rule="evenodd" d="M36.5807 117.333C37.3054 116.66 37.0427 115.026 38.1313 114.704C47.8882 111.773 58.5461 109.711 68.7275 107.186C72.1463 109.4 74.1907 106.071 78.7963 106.436C80.1881 106.747 78.3343 107.853 79.9571 107.937C84.528 105.491 92.6188 108.12 97.0021 106.06C101.691 106.04 104.377 109.476 109.006 108.316C110.27 109.593 112.381 110.053 115.205 109.815C124.468 117.237 142.143 116.495 148.126 127.106C151.34 127.493 151.92 130.435 155.867 130.112C168.133 143.767 183.691 154.232 195.374 168.447C195.712 169.943 195.712 170.335 195.374 171.831C200.269 171.714 201.799 174.869 203.122 178.217C209.806 181.126 211.683 188.7 219 191C215.405 178.573 203.113 171.338 194.984 162.058C193.206 157.269 191.245 152.657 185.305 151.912C185.424 151.027 186.648 151.212 186.466 150.029C178.358 146.003 177.29 135.134 167.1 133.116C147.932 111.642 113.071 96.3343 72.9866 102.3C71.9326 101.445 70.5322 100.927 68.3405 101.173C65.9757 102.387 63.579 103.566 61.3672 104.931C60.1688 104.718 60.3479 103.163 59.0427 103.051C53.0193 104.009 47.3511 107.189 41.6165 107.186C40.4442 110.434 34.9117 109.45 35.033 113.953C32.928 113.034 31.0251 115.239 30 116.584C32.6738 117.265 33.5372 118.582 36.5807 117.333Z" fill="white"/>
<path fill-rule="evenodd" clip-rule="evenodd" d="M304.638 109.412C304.815 107.897 303.792 107.579 303.03 107C302.868 108.5 303.351 109.361 304.638 109.412Z" fill="white"/>
<path fill-rule="evenodd" clip-rule="evenodd" d="M24.9091 133.545C27.7474 132.154 31.3155 131.467 33.8409 129.772C34.7272 130.425 36.016 130.681 37.7276 130.526C41.7388 129.138 45.9267 127.922 50.1609 126.748C58.4265 126.891 67.0514 126.036 73.8545 124.104C83.1367 123.642 90.1599 126.962 99.8853 124.861C100.925 125.36 100.656 127.128 102.211 127.128C105.872 126.652 109.457 126.112 113.089 125.616C120.471 131.028 131.833 132.571 138.729 138.458H142.613C142.589 139.866 143.003 140.846 143.389 141.857C151.55 141.854 151.495 149.836 159.318 150.163C164.302 154.51 168.296 159.818 174.079 163.382V165.649C183.692 171.914 189.649 181.732 199.716 187.552C199.389 189.129 200.469 189.337 200.495 190.573C207.003 193.186 209.314 199.873 216.81 201.529C222.017 216.733 235.574 223.82 242.447 237.403C257.521 244.651 261.301 262.882 271.973 274.415C282.043 292.567 295.189 307.735 309.649 321.622C309.328 325.209 312.74 325.167 312.369 328.799C320.429 335.731 331.811 337.778 335.289 349.568C339.381 349.309 341.026 355.506 345 351.834C343.616 350.074 340.992 349.117 342.283 345.795C340.931 343.75 339.268 343.52 337.621 342.393C337.235 341.008 336.326 340.129 336.068 338.617C330.035 333.527 323.893 328.546 317.032 324.266C314.147 318.01 310.42 312.57 304.601 309.16C303.996 304.585 300.599 302.729 297.607 300.474C296.341 294.913 293.289 291.078 288.287 289.144C285.571 275.671 273.821 270.98 269.642 258.932C268.695 257.839 266.702 257.755 265.758 256.665C252.354 234.694 234.656 216.908 218.365 197.75C218.646 196.596 217.965 196.373 217.974 195.484C214.759 191.939 208.77 191.086 207.487 185.665C206.352 185.046 206.024 186.369 204.379 185.665C198.607 178.939 190.22 174.755 187.283 165.269C186.368 164.776 184.604 165.111 183.79 164.514C183.255 164.03 183.405 162.876 183.402 161.873C174.424 158.01 169.289 150.416 163.201 143.746C156.141 143.701 153.705 136.89 149.607 134.68C147.611 133.604 144.741 133.801 142.613 132.413C140.406 130.977 140.333 130.194 137.562 129.014C129.945 125.774 123.961 120.818 113.089 121.84C109.605 119.562 102.996 120.325 100.27 117.307C99.6217 117.808 98.9701 118.307 97.5509 118.064C80.116 115.73 59.5705 117.07 43.9428 123.727C31.9063 121.97 29.6241 129.693 21.8015 132.036C21.6741 133.925 20.8458 135.136 21.0254 137.323C23.1569 136.879 25.4797 136.617 26.8525 135.434C26.14 134.868 24.2488 135.448 24.9091 133.545Z" fill="white"/>
<path fill-rule="evenodd" clip-rule="evenodd" d="M317 135V130.091C312.679 126.79 310.033 121.751 306.146 118C305.075 123.053 310.257 124.765 310.124 130.091C312.881 131.243 314.675 133.397 317 135Z" fill="white"/>
<path fill-rule="evenodd" clip-rule="evenodd" d="M27.5037 150.265C28.4433 150.052 27.321 147.839 28.6666 148.015C32.0711 148.611 34.7304 148.054 37.613 147.263V143.888C44.628 144.504 49.7406 140.629 58.2317 140.508C59.7484 139.823 57.6256 137.945 59.7861 137.881C61.761 137.229 60.688 139.509 62.1206 139.381C78.8911 130.469 92.2745 144.728 110.35 142.008C116.533 145.427 122.338 149.21 130.577 150.64C138.894 155.626 145.979 161.804 155.473 165.654C160.424 171.633 168.561 174.543 172.2 181.79C173.932 182.083 174.532 181.292 176.086 181.415C193.724 199.422 211.631 217.173 228.599 235.832C228.3 237.245 229.075 237.629 228.991 238.835C240.733 250.522 251.523 263.127 260.107 277.864C266.954 281.389 269.613 288.955 278 291C274.282 278.949 261.943 275.214 258.941 262.477C242.217 247.321 232.123 223.91 212.652 210.315C213.618 209.867 214.943 209.772 216.152 209.562C212.893 205.06 206.759 205.637 205.26 199.428C201.345 199.579 200.493 196.773 199.422 194.173C192.471 191.633 190.978 183.815 184.259 181.04C183.824 180.332 183.763 179.269 183.478 178.412C179.056 176.927 174.335 175.724 173.366 170.905C169.483 170.654 168.544 167.553 166.754 165.279C165.792 164.708 163.738 165.186 162.863 164.526C162.329 164.042 162.477 162.898 162.471 161.902H159.362C155.761 158.496 153.443 153.852 146.527 153.645C142.342 150.928 139.817 146.605 133.689 145.763C132.662 144.756 131.987 143.404 130.969 142.386C129.603 142.201 128.434 141.826 126.688 142.008C123.394 136.935 113.769 137.959 109.184 134.129C104.396 136.18 99.4461 132.391 93.6229 134.129C90.6128 131.04 82.2174 129.907 78.0704 132.251C65.6818 129.495 53.0234 135.382 41.1132 136.753C40.5564 138.469 39.7937 139.985 38.0016 140.508C32.4162 139.148 25.1083 141.879 23.609 146.888C23.0464 147.593 21.0629 146.932 20.5003 147.64C20.3031 150.575 17.5974 151.096 17 153.645C18.8502 153.301 20.5293 152.794 22.4461 152.517C22.0981 149.196 24.5225 148.927 27.5037 150.265Z" fill="white"/>
<path fill-rule="evenodd" clip-rule="evenodd" d="M321.495 136C321.119 136.349 320.9 136.803 321.045 137.499C322.493 138.136 324.461 138.427 326 139C325.671 137.219 324.475 136.018 321.495 136Z" fill="white"/>
<path fill-rule="evenodd" clip-rule="evenodd" d="M322 139.336C322.684 140.128 323.233 141.055 324.415 141.349C324.637 139.897 322.942 138.289 322 139.336Z" fill="white"/>
<path fill-rule="evenodd" clip-rule="evenodd" d="M29.8775 162.604C35.3546 157.077 46.6227 157.044 53.2621 152.62C57.6642 154.199 60.0817 149.97 63.7864 152.62C70.1439 148.609 79.7877 146.971 86 141.899C79.041 136.571 66.9535 144.107 59.887 144.488C57.6293 148.135 50.2867 146.963 47.0237 149.662C45.4721 150.028 45.8556 148.556 44.2982 148.923C34.5004 153.43 24.5776 157.821 15.0674 162.604C14.6403 164.247 16.0118 165.297 15.0674 166.301C12.4117 166.248 10.1656 166.579 10 168.889C10.7235 170.052 12.7516 169.972 14.6781 170C19.3242 167.133 23.2585 163.594 29.8775 162.604Z" fill="white"/>
<path fill-rule="evenodd" clip-rule="evenodd" d="M325.777 350.134C325.537 343.836 318.198 344.414 316.83 339.203C313.333 338.701 310.881 337.184 309.051 335.06C303.429 323.057 290.927 317.708 286.109 304.918C285.01 304.606 285.106 305.449 284.163 305.297V303.033C280.014 302.407 278.353 299.373 276.779 296.252C268.301 292.156 261.696 286.246 254.611 280.805C252.007 273.282 245.06 269.962 242.164 262.72C234.44 256.388 227.887 248.921 221.944 240.865C221.663 239.713 222.614 239.758 222.332 238.603C214.055 231.805 208.778 222.1 199.779 215.996C190.747 201.512 177.39 191.219 163.612 181.331H160.89C148.756 171.724 135.596 161.151 120.056 156.089C119.781 154.69 120.72 154.47 120.447 153.074C106.563 149.914 84.0928 140.947 73 153.451C79.2538 157.002 89.645 153.459 97.5022 154.956C106.406 156.378 112.132 160.875 120.833 162.493C121.706 163.406 122.332 164.558 123.167 165.507C134.065 169.522 139.85 178.483 151.946 181.331C152.41 182.961 150.673 183.444 151.557 184.345C153.294 185.008 154.526 185.168 156.611 184.725C160 187.969 163.792 190.829 167.112 194.141C178.39 198.537 183.415 208.99 192.385 215.619C192.478 217.67 193.183 219.125 194.334 220.142C195.548 220.218 197.187 219.886 197.833 220.518C200.918 230.092 209.616 234.221 216.11 240.488C216.641 242.486 217.983 243.699 218.056 246.14C233.97 265.136 249.661 284.344 268.22 300.775C281.307 307.562 286.886 321.627 298.164 330.164V332.046C304.406 336.633 306.033 345.119 315.664 347.12C315.983 349.319 318.436 349.454 318.387 352.016C319.802 352.404 320.999 353.005 322.278 353.524C321.968 354.831 322.855 354.971 322.666 356.159C330.529 361.727 334.812 370.769 344.055 375C345.003 374.16 345.785 373.163 346 371.612C338.36 365.32 334.98 354.906 325.777 350.134Z" fill="white"/>
<path fill-rule="evenodd" clip-rule="evenodd" d="M331.823 153.817C331.748 152.281 331.25 151.168 329.807 151C329.726 151.453 329.363 151.627 329 151.804C329.273 153.142 330.038 153.988 331.823 153.817Z" fill="white"/>
<path fill-rule="evenodd" clip-rule="evenodd" d="M15.415 154C13.825 154.021 13.021 154.825 13 156.415C14.077 155.881 14.443 154.642 15.415 154Z" fill="white"/>
<path fill-rule="evenodd" clip-rule="evenodd" d="M318.487 387.059C315.211 381.686 310.312 377.893 304.877 374.614C303.784 361.697 289.379 358.483 285.437 347.081C283.405 346.535 282.242 345.149 281.55 343.31C279.428 342.351 277.277 341.417 275.714 339.913C273.676 335.988 270.795 332.872 267.551 330.108C267.165 325.705 264 323.998 262.495 320.68C261.133 320.495 259.967 320.121 258.219 320.303C257.289 316.682 252.984 316.327 253.164 311.629C241.003 304.821 234.808 292.224 225.169 282.968C218.07 272.249 208.297 264.131 202.227 252.417C201.424 251.689 200.062 251.5 199.114 250.91C198.662 248.958 196.554 248.618 196.783 246.006C194.594 245.238 193.133 243.762 191.727 242.235C191.493 241.33 191.168 240.514 191.342 239.215C183.921 230.569 175.685 222.721 165.678 216.588C161.289 207.894 153.506 202.501 147.789 195.089V191.695C138.773 182.202 128.39 172.066 114.353 168.689C113.472 164.637 106.764 166.242 102.299 165.674C102.337 164.505 101.827 163.869 101.523 163.034C83.7785 159.151 65.6604 155.585 51.7486 164.915C50.8413 164.8 50.2934 164.322 49.0324 164.541C47.6264 165.694 46.377 166.996 44.3623 167.558C28.8068 169.816 19.8579 178.485 6.25924 182.644C6.28823 188.076 -0.219782 187.174 1.20357 193.959C9.83067 189.626 16.388 183.291 24.9223 178.873C35.1438 175.575 48.4265 172.009 58.7495 167.558C65.185 166.976 70.9973 163.855 78.1923 164.164C86.1962 164.507 93.0259 169.333 100.357 169.822C105.111 174.009 114.802 173.407 118.243 178.873C119.606 179.059 120.771 179.435 122.516 179.25C124.485 185.259 134.956 183.026 134.958 190.942C136.741 192.986 139.982 193.61 141.571 195.845C141.985 196.824 142.516 197.696 142.348 199.237C152.601 206.39 156.602 219.606 168.4 225.26C172.49 232.607 178.584 238.015 185.121 242.989C186.118 247.299 189.385 249.408 192.119 252.037C196.25 258.842 202.1 263.982 206.891 270.143C214.907 283.744 228.848 291.592 236.054 305.974C238.724 307.656 240.661 310.054 243.055 312.008C243.046 312.894 243.725 313.119 243.441 314.272C256.152 325.322 265.585 339.559 277.271 351.608C278.874 351.56 279.709 352.263 281.55 351.984C284.002 364.064 297.296 365.622 298.653 378.762C303.483 380.617 306.648 384.084 308.764 388.566C319.699 391.167 320.441 403.644 330.538 407.049C331.651 409.996 333.698 412.031 334.817 414.967C336.872 415.074 338.684 414.947 339.872 414.213C340.748 408.966 336.866 408.328 335.982 404.785C327.798 401.158 326.833 390.529 318.487 387.059Z" fill="white"/>
<path fill-rule="evenodd" clip-rule="evenodd" d="M339.509 301.096C340.816 298.992 342.828 301.862 343.768 299.211C340.291 297.495 339.304 296.712 335.636 297.33C335.881 294.83 335.082 293.35 334.865 291.303C334.597 290.559 332.707 291.393 332.542 290.548C332.701 288.762 331.079 288.705 330.992 287.158C320.075 283.721 318.846 270.856 308.927 266.441C300.616 255.197 289.161 247.002 283.77 232.918C274.045 228.315 271.503 216.726 260.929 212.951C261.587 209.8 259.061 209.747 259.379 206.925C258.274 206.251 256.787 205.933 255.896 205.043C248.283 191.864 237.368 181.891 230.352 168.13C229.27 167.729 227.824 166.342 226.48 167.375C225.034 170.798 227.126 174.025 229.189 175.286C238.488 192.352 247.414 209.783 263.255 220.486C274.463 234.94 286.913 248.187 295.767 264.933C306.457 269.603 312.855 278.441 319.766 286.782C321.178 287.164 322.418 287.717 323.636 288.287C324.176 293.589 330.606 294.14 330.216 299.211C332.386 301.495 336.652 301.742 337.959 304.864C337.264 306.21 337.696 307.923 338.346 309.004C340.04 309.299 340.735 307.375 341.832 308.251C342.718 309.523 341.763 312.585 342.605 313.902C346.063 312.405 347.142 315.008 349.959 313.525C350.478 307.999 345.95 307.384 344.929 303.356C343.843 301.896 340.219 302.915 339.509 301.096Z" fill="white"/>
<path fill-rule="evenodd" clip-rule="evenodd" d="M86 172.717C83.0637 168.094 67.1446 164.954 65 172.717C69.7205 176.98 79.8291 174.249 86 172.717Z" fill="white"/>
<path fill-rule="evenodd" clip-rule="evenodd" d="M49 177C45.1222 176.993 41.6706 177.334 41 179.963C43.6587 180.23 47.8316 179.045 49 177Z" fill="white"/>
<path fill-rule="evenodd" clip-rule="evenodd" d="M322.348 412.777C316.763 400.113 300.614 397.695 296.329 383.773C290.141 381.114 289.962 372.619 282.343 371.345C278.18 362.328 271.859 355.4 265.257 348.745C261.788 340.187 255.794 334.071 248.558 329.159C248.138 328.188 247.611 327.317 247.782 325.77C237.164 316.105 228.515 304.53 219.817 293.003C214.895 290.874 210.583 288.145 209.332 282.459C206.677 281.015 204.919 278.702 203.115 276.43V274.172C195.497 267.874 192.587 257.015 182.922 252.705C175.929 243.292 166.345 236.39 158.84 227.466C158.515 226.531 158.333 225.453 158.452 224.08C154.557 221.707 150.613 219.376 147.964 215.793C147.483 214.659 147.944 214.111 147.579 212.404C141.898 204.305 135.024 198.526 126.218 192.818C116.061 186.23 108.709 179.339 95.1463 177C87.1227 177.124 80.7843 178.89 73.7858 180.013C71.4057 178.912 69.4772 179.583 66.796 180.013C63.5761 177.958 58.3352 179.721 54.3683 178.881C46.9557 182.74 38.7236 185.806 32.6169 190.936C23.8029 193.43 13.9522 194.927 7.37642 199.596C6.00393 201.534 3.80621 202.665 1.93859 204.117C1.02359 208.029 -4.87174 209.029 -3.89015 213.533C-2.02542 214.212 -0.285194 211.842 1.93859 211.648C5.01945 206.355 7.29824 200.276 17.4732 201.857C18.9326 201.261 19.7781 200.074 21.3561 199.596C21.4111 200.925 23.0964 200.669 24.0722 201.101C31.033 198.184 34.9276 192.298 45.4355 192.818C47.1439 191.464 48.3166 189.588 51.6494 189.805C55.7495 181.602 73.2907 186.438 82.3306 183.023C83.7031 183.077 84.0679 184.104 85.4404 184.155C99.2058 181.507 112.192 188.976 118.453 197.339C132.916 205.53 144.695 216.329 151.85 231.611C153.35 231.667 153.645 232.886 155.345 232.74C164.874 243.966 177.878 251.82 184.862 265.509C187.132 266.703 188.447 268.815 191.079 269.654C199.479 281.091 206.819 293.562 218.65 301.666C229.112 320.019 246.242 331.908 256.712 350.253C264.148 355.973 266.346 366.776 274.968 371.345C274.864 372.701 275.687 373.161 275.742 374.358C278.125 375.565 279.992 377.27 281.958 378.879C281.909 380.558 282.917 381.215 283.122 382.647C284.072 383.658 285.002 382.737 286.229 383.773C287.799 387.648 292.478 388.51 292.834 393.565C302.349 403.926 315.639 410.621 321.96 424.074C322.288 424.885 324.439 423.934 324.679 424.826C323.211 426.413 321.888 428.822 323.9 430.855C330.1 429.244 330.905 434.86 334 435C332.72 427.528 329.906 419.766 325.846 413.906C324.836 413.375 323.275 413.384 322.348 412.777Z" fill="white"/>
<path fill-rule="evenodd" clip-rule="evenodd" d="M34 182.847C27.9023 179.826 22.6374 185.627 19 188.686C25.7834 190.032 31.3455 186.86 34 182.847Z" fill="white"/>
<path fill-rule="evenodd" clip-rule="evenodd" d="M343.816 188C343.942 186.511 343.174 185.682 342.211 185C342.106 185.423 341.326 185.342 341.002 185.601C340.951 187.139 342.001 187.857 343.816 188Z" fill="white"/>
<path fill-rule="evenodd" clip-rule="evenodd" d="M74.2096 192.935C92.1148 195.74 109.576 199.04 124 207C118.312 195.606 100.416 192.999 85.5823 189.419C78.8803 189.678 55.1498 187.01 55.0007 192.545C54.8721 197.403 71.6404 194.659 74.2096 192.935Z" fill="white"/>
<path fill-rule="evenodd" clip-rule="evenodd" d="M321.626 368.064C320.021 363.963 318.079 360.183 313.464 359.01C310.827 354.021 307.527 349.681 301.414 348.069C300.133 344.534 296.85 342.947 295.972 339.015C282.311 326.499 273.822 308.96 257.113 299.402C256.991 293.732 251.063 293.71 250.506 288.464C236.547 279.256 226.139 266.593 217.862 251.869C214.185 249.799 209.207 247.774 210.091 242.441C206.029 238.712 202.378 234.583 197.652 231.497C194.367 222.112 183.371 220.21 180.94 209.995C177.315 207.981 173.937 205.731 172.002 202.072C162.695 200.663 160.377 190.481 151.404 190C151.384 190.481 150.909 190.523 151.016 191.133C153.757 199.917 164.219 201.203 166.951 209.995C178.848 216.425 186.361 227.121 194.546 237.159C195.433 237.55 196.887 237.398 197.652 237.91C197.377 239.311 198.316 239.53 198.043 240.928C213.657 258.465 226.864 278.344 245.065 293.367C244.961 294.725 245.784 295.183 245.845 296.384C250.312 298.966 253.355 302.927 255.945 307.326C263.075 310.47 264.999 318.658 271.881 322.038C278.855 334.13 288.917 343.229 297.919 353.351C303.442 354.907 307.101 358.27 308.799 363.536C315.718 366.883 317.445 375.267 324.732 378.249C325.181 378.693 325.175 379.585 325.12 380.513C332.94 384.116 334.667 393.634 340.668 399C341.461 398.637 342.206 398.227 343 397.864C340.505 393.949 340.755 390.526 340.282 386.174C334.731 379.483 329.487 372.502 321.626 368.064Z" fill="white"/>
<path fill-rule="evenodd" clip-rule="evenodd" d="M52.611 192H51V193.608C52.26 193.797 52.794 193.26 52.611 192Z" fill="white"/>
<path fill-rule="evenodd" clip-rule="evenodd" d="M305.044 418.804C304.998 411.541 297.807 411.237 294.56 407.091C292.517 402.909 289.704 399.482 286.411 396.517C286.293 392.101 282.007 391.738 281.365 387.829C273.969 384.072 270.372 376.617 266.231 369.698C258.21 360.88 249.899 352.347 243.718 341.747C238.434 339.207 238.197 331.755 234.012 328.148C232.76 327.607 231.368 327.196 229.747 327.016C225.783 318.528 218.511 313.267 214.61 304.728C207.211 300.971 205.596 291.588 198.307 287.73C196.337 282.092 193.562 277.237 187.051 276.02C184.047 271.514 180.96 267.087 175.794 264.688C175.447 260.748 171.584 260.221 171.138 256.377C170.23 255.498 168.051 255.853 167.258 254.867C165.684 247.475 153.637 247.047 155.226 239.001C152.318 235.267 144.693 235.467 145.133 229.558C135.624 226.852 133.541 216.914 124.174 214.072C120.794 206.575 110.31 202.889 101.276 204.249C85.7947 197.561 62.1677 198.836 45.3843 199.715C40.3088 201.323 36.11 203.787 29.8568 204.249C23.8495 210.777 7.0979 213.281 2.69081 219.738C-1.09124 220.211 -2.37604 223.118 -5.84847 223.892C-7.24323 229.817 -10.9327 233.338 -14 238.624C-7.19693 236.934 -4.88487 230.879 -0.801876 226.537C11.5137 220.772 26.2455 217.353 36.0695 209.161C40.1004 209.265 43.8478 206.28 49.6525 206.894C56.7855 203.193 67.5066 204.57 76.0459 205.761C80.0305 203.542 88.7868 204.401 91.5734 206.894C105.946 210.405 117.848 216.328 128.057 223.892C137.977 235.01 146.828 247.171 160.27 254.867C163.163 260.486 169.33 262.919 171.523 269.222C191.487 284.547 204.15 306.973 221.593 324.749C221.827 325.653 222.154 326.469 221.983 327.77C225.288 329.716 227.939 332.299 230.91 334.566C235.572 347.658 247.306 353.868 251.482 367.434C260.831 376.46 268.06 387.561 277.487 396.517C283.48 404.151 287.337 413.873 297.665 417.294C297.694 420.415 300.582 420.756 299.997 424.467C311.815 428.582 313.974 442.094 326 446C324.579 435.676 314.527 433.744 313.19 423.335C309.888 421.584 307.324 421.446 305.044 418.804Z" fill="white"/>
<path fill-rule="evenodd" clip-rule="evenodd" d="M16 207.884C14.1299 203.739 9 207.152 9 211.211C11.6885 213.233 15.6485 211.096 16 207.884Z" fill="white"/>
<path fill-rule="evenodd" clip-rule="evenodd" d="M125 207.086C125.262 208.508 127.577 211.071 131 210.998C130.577 208.581 127.726 206.553 125 207.086Z" fill="white"/>
<path fill-rule="evenodd" clip-rule="evenodd" d="M126.22 226.821C123.501 227.319 123.098 225.582 121.168 225.316C114.773 216.838 101.582 214.929 89.6775 211.785C88.405 211.384 88.4282 209.731 87.3442 209.153C68.5237 208.265 53.0657 211.418 39.9149 214.041C28.0771 222.645 9.97553 225.189 -1.29991 234.34C-3.57818 240.542 -13.6797 241.153 -12.9638 249C-1.58397 241.458 10.2596 234.362 22.8017 227.947C27.1148 228.732 27.2278 225.456 31.7467 226.442C35.3699 222.897 42.083 220.445 48.4627 220.806C56.7208 216.359 70.0513 214.896 82.292 215.543C83.9528 216.064 84.1818 217.973 85.7905 218.553C93.2949 218.923 105.999 220.478 109.892 226.821C119.573 228.233 123.649 235.066 134 235.842C134.063 230.262 127.31 231.279 126.22 226.821Z" fill="white"/>
<path fill-rule="evenodd" clip-rule="evenodd" d="M133.111 214C132.523 215.234 134.388 216.719 136 217C135.79 215.306 134.954 214.189 133.111 214Z" fill="white"/>
<path fill-rule="evenodd" clip-rule="evenodd" d="M197.649 304.296C195.385 299.968 192.877 295.87 188.328 293.757C185.887 288.966 180.981 286.567 177.451 282.84C175.204 274.709 164.434 272.891 164.634 263.637C159.706 263.02 158.353 258.936 152.981 258.746C148.788 251.269 140.721 247.539 135.114 241.432C124.93 237.879 115.698 233.394 107.54 227.879C96.9505 226.81 86.2737 220.784 75.6895 223.364C66.5735 216.569 58.4537 226.779 46.1668 224.868C34.1521 233.551 12.6449 233.032 5 245.948C16.3255 241.617 28.6269 238.233 39.9524 233.902C51.2866 230.919 63.643 229.255 75.6895 227.879C106.009 229.67 126.98 248.112 148.71 261.757C149.698 266.444 152.515 269.363 157.641 270.039C168.364 285.624 185.713 294.784 193.766 312.954C197.2 315.395 201.136 317.354 202.309 321.988C203.412 322.552 204.866 322.774 206.192 323.119C211.456 335.911 222.287 344.884 229.888 355.492C233.404 360.401 234.881 366.46 240.377 369.795C245.656 383.249 257.85 389.999 263.291 403.299C265.371 404.924 267.05 406.933 269.506 408.194C270.369 411.059 269.572 412.35 269.894 414.59C271.301 415.434 271.695 415.799 273.78 415.345C278.486 425.215 289.791 428.684 294.361 438.684C295.829 440.025 297.404 441.254 299.802 441.695C298.331 445.344 303.259 446.997 305.237 447.342C306.291 454.021 314.559 455.834 320 456C319.997 452.363 316.716 451.902 316.114 448.849C314.779 449.012 313.936 448.697 313.007 448.473C301.82 436.604 292.887 422.549 279.606 412.709C275.862 402.754 266.986 395.87 262.903 387.49C261.293 387.54 259.9 387.386 259.017 386.735C257.839 385.317 259.463 384.102 259.408 382.595C253.098 379.8 253.443 370.558 246.2 368.666C245.523 364.586 240.898 358.063 236.491 355.116C237.855 350.413 230.273 348.521 230.276 342.692C229.442 341.872 227.884 341.749 226.778 341.188C224.294 337.197 220.868 334.115 217.848 330.646C216.883 323.989 207.999 323.203 208.914 315.965C202.343 314.803 205.416 304.301 197.649 304.296Z" fill="white"/>
<path fill-rule="evenodd" clip-rule="evenodd" d="M300.779 457.274C294.546 444.212 278.704 440.475 274.73 425.22C265.3 421.922 264.584 410.173 256.456 405.613C250.705 393.217 241.779 383.894 233.515 373.936C229.219 359.876 215.824 354.641 211.742 340.373C210.064 340.241 208.919 339.597 208.243 338.489C200.605 322.641 186.749 312.826 176.356 299.648C176.168 298.465 177.701 298.653 176.751 297.762C172.504 293.581 166.79 290.823 163.529 285.695C162.112 285.81 160.999 285.633 160.027 285.316C156.616 273.932 143.414 269.085 137.089 259.298C129.474 259.855 129.921 249.436 120.372 250.625C118.694 249.613 117.763 247.872 116.482 246.475C102.759 243.641 89.1461 230.967 74.4869 236.292C71.475 233.157 65.2803 237.313 60.8799 235.162C56.8245 237.015 51.4675 237.596 45.3279 237.425C40.8811 242.286 30.1497 241.055 23.555 243.835C20.862 247.889 13.3802 247.293 8.39137 249.115C7.1101 249.101 6.45498 248.477 4.89542 248.738C-5.13731 251.831 -12.2133 257.791 -16.8832 266.085C-15.1237 267.795 -17.5413 268.542 -16.8832 269.858C-9.92033 266.043 -3.87054 258.095 3.72431 253.642C4.99978 253.661 5.2114 254.713 6.83762 254.395C17.8849 248.558 32.3992 249.936 43.7741 245.345C44.8641 245.798 46.4584 245.758 48.0469 245.722C48.8992 244.158 50.4239 243.248 52.3284 242.705C53.1198 243.068 53.8677 243.475 54.6591 243.835C66.6514 238.133 83.1977 242.592 94.7089 244.591C100.938 249.233 109.507 251.606 117.65 254.395C123.772 260.395 130.21 266.094 138.643 269.858C142.997 276.696 149.206 281.734 155.755 286.449C155.792 292.285 161.726 294.101 162.361 298.139C163.944 298.991 165.816 299.564 167.028 300.779C167.97 302.381 168.483 304.397 169.75 305.682C171.724 306.404 173.4 307.422 174.806 308.699C199.396 337.01 221.349 367.889 244.403 397.693C248.502 410.094 262.43 414.854 264.231 428.24C269.13 431.158 271.399 436.621 275.895 439.93C278.066 447.116 285.235 452.064 291.836 456.143C294.897 462.601 301.651 465.483 306.999 469.72C306.962 470.89 307.478 471.519 307.779 472.36C309.832 473.257 311.287 474.739 314 475C309.8 468.891 308.127 460.33 300.779 457.274Z" fill="white"/>
<path fill-rule="evenodd" clip-rule="evenodd" d="M279.759 457.341C276.244 449.564 270.376 444.076 264.224 438.86C258.31 422.103 244.776 412.746 235.491 399.264C232.454 392.657 229.635 385.847 223.066 382.67C222.418 377.766 217.736 376.782 218.017 370.979C208.412 361.701 201.183 350.117 193.942 338.544C189.997 336.092 187.553 332.178 185.399 327.986C177.149 321.545 171.304 312.767 162.879 306.491C163.163 303.725 159.081 302.221 159.773 298.948C158.236 298.175 156.392 297.708 155.5 296.311C155.506 295.684 156.577 296.097 156.664 295.554C147.015 283.183 132.913 275.128 122.882 263.122C115.7 257.904 105.309 255.801 97.2556 251.434C95.646 251.001 95.7415 252.224 94.5372 252.185C93.0347 249.449 89.4333 247.323 85.2182 248.414C82.4506 245.144 72.3384 245.504 68.52 247.661C56.6679 246.831 43.4986 252.893 30.8561 255.581C29.5216 255.241 29.1684 253.95 27.3619 254.071C12.2935 258.424 -0.0333824 264.505 -10.3048 274.059C-12.5253 281.642 -22.7417 285.275 -21.9571 293.291C-6.79897 284.249 2.84713 266.594 23.8647 261.989C25.0922 261.294 25.9086 260.206 26.5831 258.972C33.7396 259.973 41.7095 260.856 46.3878 257.088C54.5922 257.878 60.8338 253.529 68.9079 252.938C71.2702 254.901 74.3562 253.554 77.451 253.695C88.6141 254.189 106.41 261.432 112.399 266.892C116.276 270.427 122.234 272.294 126.767 275.566C130.814 278.49 132.881 283.81 136.474 286.504C145.281 293.111 152.674 301.146 158.218 311.015C159.845 310.816 160.39 311.673 161.713 311.769C163.053 314.488 165.288 316.346 167.925 317.805C169.292 323.142 173.811 325.414 177.247 328.74C182.111 335.451 186.557 342.579 193.555 347.218C201.29 364.976 215.261 376.673 223.066 394.361C225.249 394.881 227.458 395.373 228.503 397.001C230.138 407.1 236.89 412.234 240.54 420.379C244.833 420.23 246.426 422.71 246.753 426.416C250.696 427.268 250.907 432.585 255.293 433.957C254.068 440.778 259.812 443.828 263.836 446.781C265.179 452.013 268.497 455.331 273.934 456.585C274.385 461.215 276.959 462.45 277.816 466.015C279.35 466.501 278.609 464.772 280.144 465.259C282.089 466.895 284.408 468.157 287.523 468.652C289.35 474.039 294.158 476.542 296.842 481.099C300.507 481.31 300.796 484.802 303.445 486C303.839 484.341 304.103 481.709 305 480.346C295.493 473.736 292.363 460.932 279.759 457.341Z" fill="white"/>
<path fill-rule="evenodd" clip-rule="evenodd" d="M300 497.733C298.228 493.03 292.816 491.865 292.219 486.024C288.457 480.992 279.653 480.849 278.214 473.558C272.53 468.881 269.667 461.463 263.435 457.318C263.673 456.414 263.992 455.598 263.821 454.297C250.129 445.939 246.919 427.398 233.094 419.17C232.818 417.771 233.758 417.545 233.482 416.146C226.171 409.647 221.998 400.109 217.532 390.844C209.342 386.832 208.707 375.489 201.581 370.445C201.755 369.147 201.433 368.328 201.195 367.427C199.986 367.215 198.661 367.117 197.695 366.672C195.108 357.779 187.846 351.646 184.856 344.386C177.374 334.654 168.377 326.392 159.573 317.944C159.036 317.46 159.187 316.303 159.184 315.3C147.435 304.678 138.172 291.637 126.511 280.931H122.619C116.529 275.257 111.807 268.259 102.002 266.198C96.9905 262.126 90.9785 259.023 81.3849 259.4C75.6687 255.796 67.7281 260.256 61.1593 260.535C48.8889 261.228 36.3371 264.877 24.5915 267.333C22.9645 268.521 21.8074 270.171 19.9252 271.109C18.3765 271.483 18.7535 269.98 17.1991 270.354C11.5235 275.293 5.07071 279.472 -1.4691 283.572C-8.05531 291.409 -15.2882 298.613 -23.2549 305.103V307.748C-24.0467 307.536 -24.0177 306.61 -24.8094 307.367C-24.5339 309.933 -25.6243 311.476 -24.4208 313.036C-20.9812 313.481 -19.4528 309.136 -15.8625 308.502C-14.9837 305.072 -11.8922 303.797 -9.25016 302.082C-2.55955 290.573 10.6767 285.42 20.7024 277.155C28.0659 272.846 36.7344 269.805 48.7119 269.977C56.8642 265.516 70.2164 265.975 81.3849 265.443C92.0255 267.448 100.413 271.647 108.614 276.02C116.906 285.47 128.625 291.59 137.79 300.192C150.774 319.563 168.366 334.46 182.133 353.071C191.718 372.343 204.806 388.217 216.755 405.194V407.839C227.337 419.469 235.063 433.872 247.099 444.097C247.612 453.167 256.907 453.711 257.6 462.607C259.734 464.69 261.153 467.467 264.99 467.895C265.703 472.739 269.781 474.324 272.768 476.957C272.298 480.314 274.215 481.341 275.491 483.003C283.893 483.36 284.853 492.693 292.219 492.822C293.04 495.399 296.836 498.085 299.611 500C299.832 499.333 299.142 497.781 300 497.733Z" fill="white"/>
<path fill-rule="evenodd" clip-rule="evenodd" d="M69.8112 271.706C68.609 271.742 67.9543 271.249 67.091 270.956C58.8434 273.843 47.7162 273.336 39.5063 276.938C36.5659 275.261 34.0137 278.331 30.5692 278.434C28.3733 284.048 21.7451 285.393 15.8006 287.399C7.06339 293.32 -2.23291 298.702 -7.90223 307.578C-9.29566 307.358 -9.78234 308.013 -10.6225 308.328C-15.1185 315.755 -23.763 320.611 -25 330C-14.4464 325.423 -10.8368 312.267 0.258467 309.448C1.05802 306.974 1.70404 304.36 4.14617 303.469C5.50773 303.653 6.67231 304.023 8.41916 303.845C20.5545 293.955 32.6376 282.053 51.9371 280.301C62.6326 277.094 73.6468 277.626 86.5208 276.562C95.7099 277.275 102.103 286.377 111 283.663C102.784 275.695 85.4403 266.025 69.8112 271.706Z" fill="white"/>
<path fill-rule="evenodd" clip-rule="evenodd" d="M-18.3306 270.982C-17.5752 270.984 -17.8479 271.87 -16.8113 271.634C-16.8057 270.984 -15.7692 271.22 -16.0474 270.326C-17.7116 269.81 -18.731 270.3 -20.9972 270C-21.0511 271.371 -20.3043 271.827 -20.9972 272.94C-18.1972 273.371 -19.4637 271.364 -18.3306 270.982Z" fill="white"/>
<path fill-rule="evenodd" clip-rule="evenodd" d="M45.2435 296.461C51.3097 290.095 66.5466 293.919 75.2954 289.625C79.2494 289.656 82.4702 290.831 86.2205 290.007C92.0307 291.442 95.7258 294.932 101.44 296.461C111.009 296.39 117.646 299.172 121.736 304.435C134.919 307.945 136.371 324.846 151 325.696C149.292 315.205 138.641 313.422 135.391 304.435C127.023 298.148 119.22 291.315 105.342 290.386C90.6342 279.604 68.9819 285.492 48.7581 286.587C46.963 288.382 44.7023 289.732 42.1245 290.765C40.7687 291.071 40.6232 290.199 39.3925 290.386C33.1081 292.501 28.674 296.41 22.6107 298.739C19.3433 303.532 14.4147 306.713 8.5608 308.989C6.00337 311.183 5.04325 314.928 0.364809 315.067C-1.09866 317.184 -0.769888 321.048 -4.31363 321.138C-5.86147 321.121 -4.25253 318.036 -6.26589 318.483C-9.07644 319.986 -7.42095 321.348 -6.65576 323.799C-8.43636 329.024 -14.8663 329.729 -16.4141 335.187C-17.7612 335.495 -18.0609 334.476 -18.7534 335.187C-19.4313 341.25 -24.5432 344.978 -25 349.994C-21.1857 350.161 -20.8976 346.897 -19.1461 345.057C-8.47709 341.137 -6.30953 328.948 4.26933 324.934C5.22072 323.335 3.46922 322.89 3.87946 320.759C20.8039 315.712 28.4965 301.68 45.2435 296.461Z" fill="white"/>
<path fill-rule="evenodd" clip-rule="evenodd" d="M290.582 512.367C287.339 511.243 283.205 510.988 282.041 507.853C271.441 506.709 268.421 498.225 259.903 495.068C259.518 494.188 259.223 493.218 259.13 492.057C243.805 489.724 234.914 481.159 227.67 471.001C227.568 469.523 229.08 469.599 228.836 467.989C227.927 466.988 226.129 466.848 224.563 466.489C221.778 460.784 216.856 457.153 214.467 451.066C211.65 450.031 210.196 447.682 209.42 444.673C205.39 440.678 202.451 435.628 199.707 430.385C198.612 420.665 190.363 417.875 191.168 406.312C191.678 404.554 193.059 403.635 193.105 401.425C191.988 398.874 190.097 397.071 186.507 396.911C185.812 395.952 185.407 394.719 184.567 393.906V390.897C182.158 386.582 179.79 382.231 174.08 381.118C163.272 366.51 152.858 351.529 141.847 337.118C133.583 331.457 126.936 324.232 117.766 319.446C113.779 313.407 105.922 311.113 103.012 304.023C95.1394 301.241 88.3499 297.414 80.0983 295C75.2225 296.921 68.2101 296.772 61.8462 297.257C60.4738 297.93 59.197 298.698 57.5756 299.136C45.0997 301.219 36.8422 307.39 28.0636 313.051C18.6278 314.321 17.4986 323.632 8.64475 325.46C2.26348 333.322 -5.36279 339.975 -10.7741 348.776C-12.1639 348.555 -12.6503 349.214 -13.4899 349.53C-13.5478 354.238 -17.416 355.258 -19.3153 358.18C-16.7414 360.451 -21.1423 360.942 -19.7033 363.818C-13.9127 363.033 -13.377 357.165 -10.3862 353.666H-7.66746C-2.51959 347.492 4.73318 343.365 7.48083 334.861C12.0381 331.502 16.381 327.941 20.6835 324.333C22.6957 324.277 23.8104 323.349 25.3449 322.83C29.0654 314.646 41.0984 314.52 46.3128 307.785C56.5796 303.689 68.6154 305.935 78.1584 301.393C83.0457 302.175 85.5212 305.293 90.976 305.531C92.0414 306.753 93.961 307.151 94.8557 308.537C97.6207 308.747 99.4129 309.894 101.46 310.794C112.804 325.508 132.266 332.357 141.456 349.155C142.906 350.383 144.583 351.389 146.117 352.539C154.525 366.961 166.257 378.165 174.08 393.151C175.044 394.222 176.996 394.343 177.578 395.784C184.338 415.057 194.701 430.848 203.204 448.436C209.944 456.951 213.708 468.348 222.623 474.76C225.261 479.098 228.231 483.116 233.107 485.289C235.915 492.096 243.423 494.359 250.971 496.571C258.12 502.209 265.844 505.675 273.882 510.862C275.135 510.943 275.529 510.197 276.991 510.486C279.157 510.895 279.27 513.293 280.871 514.246C283.028 512.959 288.428 514.826 290.973 515C291.164 513.814 290.275 513.671 290.582 512.367Z" fill="white"/>
<path fill-rule="evenodd" clip-rule="evenodd" d="M282.644 497.696C280.768 495.115 278.524 492.895 276.822 490.149C270.98 489.532 268.655 485.503 264.781 482.978C264.231 482.475 264.231 480.84 264.781 480.336C260.629 477.258 255.201 473.633 255.073 467.878C253.886 466.77 251.356 466.961 250.803 465.236C249.474 455.204 239.5 453.58 238.765 442.969C229.089 435.891 224.245 424.115 215.852 415.793C211.961 402.714 199.691 397.787 196.046 384.465C183.907 375.755 183.417 355.728 171.194 347.097C171.492 345.674 170.722 345.294 170.806 344.078C163.976 339.77 158.739 333.914 152.554 328.978C131.422 327.123 128.849 307.231 110.612 302.56C109.512 300.677 106.99 298.361 104.404 299.163C104.1 299.248 103.947 299.478 104.017 299.917C110.985 310.124 121.327 317.058 132.363 323.322C133.521 328.733 139.384 329.574 142.456 333.131C159.248 333.168 162.589 346.279 170.033 355.402C172.931 363.278 180.062 367.038 180.516 377.295C184.15 384.451 189.468 389.978 194.106 396.166V399.562C202.117 407.878 210.114 416.216 215.076 427.494C227.662 440.169 236.538 456.456 249.248 469.01C248.64 469.049 247.902 468.962 248.081 469.767C251.599 476.289 258.05 479.962 260.508 487.506C273.206 491.274 278.64 504.103 291.967 506C292.54 501.092 285.542 500.473 282.644 497.696Z" fill="white"/>
<path fill-rule="evenodd" clip-rule="evenodd" d="M243.799 500.701C237.603 500.326 235.512 495.943 229.858 495.037C230.655 493.08 229.72 492.01 228.697 490.884C226.587 490.285 225.674 492.196 224.435 491.259C225.385 489.223 225.836 487.759 224.435 485.977C223.058 486.521 222.61 487.973 220.56 487.861C218.678 479.379 211.981 475.581 210.491 466.719C204.82 465.326 204.592 458.626 200.807 455.388C201.075 454.544 201.973 453.497 201.199 452.748C192.851 444.269 188.266 432.127 181.056 422.542C180.496 421.323 180.692 419.372 180.672 417.632C174.227 406.039 167.447 394.779 161.689 382.513C148.386 372.328 144.424 353.034 130.706 343.245C131.032 342.806 131.22 342.232 131.095 341.359C129.224 341.168 127.677 340.661 126.06 340.228C115.303 329.944 105.246 318.985 88.4925 314.548C86.939 313.295 85.3105 312.116 83.8436 310.773C59.1839 307.401 35.9449 315.288 24.1984 330.031C2.86808 342.967 -9.65522 364.491 -24.6012 383.648V386.669C-26.8101 387.108 -27.5869 390.703 -26.5387 393.087C-22.1092 391.744 -22.4961 385.7 -18.0176 384.405C-17.4169 381.086 -15.4621 379.09 -14.5323 376.098C-8.45977 373.457 -5.4163 367.869 -2.13893 362.504C6.72007 357.932 11.5423 349.408 17.225 341.737C32.4481 329.764 46.984 317.13 72.2241 314.928C74.7882 315.517 77.1358 315.88 79.9714 315.305C81.3661 315.832 82.1428 316.966 83.0697 317.949C87.3895 318.137 89.0527 320.922 93.1386 321.347C111.168 336.115 134.664 345.557 142.325 370.431C149.495 379.555 156.899 388.445 161.689 399.886C162.714 400.775 163.834 401.575 165.174 402.149C171.937 415.822 177.591 430.576 186.866 441.797C194.904 455.985 202.034 471.06 211.265 484.089C210.584 489.933 217.012 492.061 218.623 496.923C226.665 496.641 226.578 504.276 234.891 503.721C237.135 508.586 242.165 510.731 248.835 511.274C253.164 521.023 267.059 521.451 276.72 526C276.98 524.348 278.412 523.872 277.884 522.222C265.701 515.846 252.664 510.311 243.799 500.701Z" fill="white"/>
<path fill-rule="evenodd" clip-rule="evenodd" d="M-14.3272 420.791C-12.0285 412.836 -8.07831 406.475 -6.15112 398.153C-2.87432 395.754 -0.43922 391.089 -0.703339 386.456C2.04813 383.46 5.18851 380.844 5.91701 375.89C19.0242 365.886 22.4229 347.352 40.171 341.931C43.3723 336.614 50.37 333.357 58.4706 334.006C61.6516 333.061 63.2798 330.616 66.2577 329.477C75.6817 328.912 79.9744 334.819 90.005 334.006C96.0942 338.668 102.909 342.629 111.021 345.327C116.968 351.384 122.982 357.381 129.321 363.061C130.833 365.751 131.895 368.868 133.605 371.363C135.77 372.424 138.327 373.982 141 372.497C138.063 358.864 125.736 354.335 118.422 344.947C114.995 344.623 113.149 342.767 110.246 341.931C102.07 333.849 94.0713 331.562 81.4401 327.592C75.6324 325.766 71.4762 323.28 65.8659 324.197C53.4436 326.219 41.5148 328.898 35.8929 337.025C26.8868 341.881 19.7237 348.523 13.7012 356.267C13.1411 357.232 13.3326 358.929 12.5345 359.666C11.5709 360.74 9.48695 360.738 8.25053 361.551C-4.07011 378.011 -12.6409 400.927 -19 420.791C-17.7636 421.188 -15.462 420.921 -14.3272 420.791Z" fill="white"/>
<path fill-rule="evenodd" clip-rule="evenodd" d="M245.955 526.202C246.178 520.925 242.76 516.98 238.588 518.274C235.699 515.928 233.687 512.728 230.443 510.724H227.34C222.65 505.729 217.46 501.218 210.275 498.649C208.179 496.159 208.257 491.552 205.62 489.588C206.247 479.671 197.903 478.478 197.09 469.963C194.765 467.697 193.531 464.363 191.657 461.655C188.393 453.768 186.134 444.892 179.25 440.522C177.399 443.536 179.652 447.852 180.025 451.091C183.414 456.472 185.981 462.657 188.557 468.829C192.334 473.916 200.152 480.836 198.64 487.323C192.322 480.636 183.243 476.643 182.352 464.678C181.39 464.104 180.045 463.901 179.635 462.79C178.521 456.39 176.35 450.762 174.982 444.673C179.996 435.032 169.601 428.278 165.287 422.782C164.874 411.861 159.516 405.748 154.04 399.754C149.043 387.254 141.13 377.594 129.998 371.071C127.08 365.603 123.83 360.467 116.81 358.993C112.311 354.186 107.179 349.996 99.7476 348.046C98.0995 347.255 97.8103 345.148 95.0895 345.404C95.1416 344.472 95.1502 343.586 94.7021 343.138C89.9457 341.982 85.3715 340.645 82.2921 337.856C67.9044 332.991 51.3829 338.366 43.1221 346.158C27.6183 351.828 22.2287 367.342 12.0972 378.241C12.3025 379.701 11.4061 380.084 11.7097 381.638C-1.39416 393.113 -7.56734 412.421 -11.5633 430.709C-15.6575 438.124 -17.1119 446.606 -16.9934 457.508C-16.0189 458.006 -15.779 456.013 -15.4378 457.128C-13.5005 456.962 -16.2936 456.331 -15.8252 455.242C-14.8392 454.944 -13.9458 454.558 -13.4976 453.734C-11.4881 430.523 0.910297 415.42 5.89221 396.358C11.5825 390.201 16.6888 383.467 20.2423 375.221C30.1714 364.756 42.0783 356.215 52.4296 346.158C58.5565 342.477 66.7392 338.976 75.7026 341.253C115.549 358.582 145.247 385.794 161.02 426.556C169.205 447.022 176.471 468.389 182.74 490.722C186.247 494.701 188.101 501.618 192.822 505.442C197.946 516.811 212.206 522.563 220.357 532.241C222.046 532.235 223.847 532.117 225.012 532.618C224.68 533.802 223.544 534.211 223.46 535.637C224.625 536.391 226.559 536.397 226.175 538.657C229.144 538.159 229.821 539.889 231.605 540.545C232.698 539.844 234.025 539.377 235.482 539.037C234.846 548.101 250.865 552.994 257.203 553C258.145 552.288 258.975 551.452 258.755 549.603C252.504 548.7 250.061 547.088 244.015 545.453C240.354 542.408 243.948 536.69 240.522 533.749C237.648 534.965 235.315 531.607 231.995 532.995C231.726 531.475 232.365 530.842 232.383 529.601C225.912 527.339 221.904 522.684 215.315 520.54C209.688 512.238 198.391 507.665 196.312 497.135C195.19 495.714 193.704 494.645 192.822 492.984C188.589 494.369 182.379 484.568 185.455 481.286C193.889 488.927 202.653 496.249 208.335 506.574C213.45 510.654 219.88 513.454 224.235 518.274C226.25 518.775 226.64 516.361 228.115 517.523C227.944 518.885 227.12 519.344 227.727 520.54C229.289 521.944 232.417 521.975 233.935 520.54C239.253 525.594 247.138 530.741 254.875 529.221C254.476 530.091 252.279 529.21 252.547 530.732C261.149 531.056 262.841 538.381 270 538.277C268.259 536.451 267.788 533.389 266.898 530.732C259.487 529.683 253.843 521.041 245.955 526.202Z" fill="white"/>
<path fill-rule="evenodd" clip-rule="evenodd" d="M179.568 380C182.051 372.801 173.148 367.62 170.329 361.91C168.392 357.65 166.721 353.127 164.17 349.474C163.094 348.766 161.662 348.414 160.321 347.965C158.263 343.194 155.063 339.544 150.695 337.035C149.134 336.888 148.014 337.172 148 338.543C149.731 345.641 156.317 347.987 158.395 354.751C166.721 361.921 169.629 374.4 179.568 380Z" fill="white"/>
<path fill-rule="evenodd" clip-rule="evenodd" d="M31.5038 382.094C39.4745 375.764 42.8195 364.985 52.9244 360.709C57.5471 351.907 71.5314 352.122 82.9139 349.834C83.4656 348.408 81.2414 346.797 79.7982 346.078C71.7172 345.675 65.3232 346.895 59.1529 348.329C52.001 354.941 42.4217 359.223 36.954 367.463C33.336 368.381 30.8998 371.924 30.7256 374.967C26.0245 378.693 22.3949 383.456 20.9895 390.348C20.0545 390.577 19.2095 390.887 17.8709 390.722C6.28801 403.983 -0.428261 423.396 -6.66542 440.616C-6.66542 447.665 -8.84901 455.057 -9 463.126C-7.92563 463.216 -7.81238 464.234 -7.44361 465C-2.43472 464.284 -1.97884 456.833 -3.93594 452.624C0.00439072 442.53 4.15379 430.668 6.57838 420.358C13.1059 411.766 14.3371 398.07 25.2724 393.723C25.435 392.384 26.3091 391.721 26.0535 389.976C27.5199 389.136 28.3358 387.674 30.3365 387.346C30.624 385.498 31.1495 383.878 31.5038 382.094Z" fill="white"/>
<path fill-rule="evenodd" clip-rule="evenodd" d="M-25.4292 353.999C-24.2172 353.247 -24.4722 350.725 -26.6352 351.025C-27.2442 352.207 -27.2442 354.049 -25.4292 353.999Z" fill="white"/>
<path fill-rule="evenodd" clip-rule="evenodd" d="M345 353.611C345.738 356.347 348.722 354.391 347.838 352C346.481 352.009 345.411 352.39 345 353.611Z" fill="white"/>
<path fill-rule="evenodd" clip-rule="evenodd" d="M16.4295 476.515C15.6417 474.769 15.0732 472.809 15.2665 470.105C17.9675 464.186 17.8637 455.541 23.0089 452.001C28.9159 430.164 35.1778 404.666 44.6833 384.123C52.0015 379.312 55.6375 370.911 62.1014 365.269C70.4728 361.701 81.3865 360.011 91.9049 359.615C97.0674 360.61 100.141 363.652 107 363.008C106.377 360.596 103.982 359.913 102.354 358.479C93.9826 354.919 82.1224 351.262 73.3268 356.969C67.6766 355.395 64.4619 359.378 61.328 361.496C60.8115 362.125 59.1349 361.625 58.6184 362.249C47.3324 369.986 39.5641 381.148 34.2342 394.683C31.3197 397.247 28.8841 400.283 29.5883 406.37C27.0806 412.603 26.2149 420.433 22.6193 425.604C22.7636 428.008 21.9325 429.461 22.2355 432.017C16.4872 441.376 15.1309 455.012 11.0101 465.955C10.6696 498.729 18.9285 522.728 34.2342 541C23.6668 524.145 19.1738 501.366 14.8798 478.401C14.5624 476.962 16.7469 477.954 16.4295 476.515Z" fill="white"/>
<path fill-rule="evenodd" clip-rule="evenodd" d="M-21.4536 365.411C-25.2115 363.604 -25.6858 368.17 -26 370.983C-24.2011 370.989 -22.2822 371.114 -21.0377 370.586C-21.2072 368.888 -20.6373 366.485 -21.4536 365.411Z" fill="white"/>
<path fill-rule="evenodd" clip-rule="evenodd" d="M230.829 545.602C229.826 544.2 228.959 546.975 228.495 545.982C226.27 539.949 217.793 539.997 214.885 534.632C213.948 533.351 212.817 536.112 211.77 534.632C211.483 533.342 213.202 534.008 213.324 533.117H210.212C209.551 531.619 208.49 530.505 208.658 528.2C207.44 528.121 205.801 528.454 205.155 527.819C202.687 523.492 200.001 517.941 194.653 517.605C187.705 506.836 179.248 497.53 176.757 482.419C176.008 481.008 174.413 480.416 174.036 478.633C176.069 473.071 172.792 467.974 171.316 463.503C165.78 460.939 165.005 453.748 161.589 449.125C159.289 434.976 152.625 420.536 145.641 408.638C144.76 407.423 145.983 406.133 145.253 405.234C144.562 403.383 141.909 403.442 141.361 401.451C140.885 400.024 140.578 398.433 140.586 396.531C130.943 383.968 123.406 369.35 104.019 366.264C100.306 368.095 94.889 366.428 91.9599 365.131C75.8381 364.417 61.0591 366.366 56.1724 377.615C54.8006 377.793 54.0437 378.572 53.0605 379.13C40.5378 397.437 34.5432 423.766 27 447.991C27.7714 484.261 33.1947 518.406 49.9516 540.307C51.1 546.882 54.9485 550.834 60.4529 553.17C48.8466 537.351 42.2779 518.184 35.9469 496.794C35.9701 489.753 34.8651 483.556 32.8351 477.877C31.7968 460.053 32.8467 441.469 39.8389 427.935C41.5557 419.518 43.6322 411.448 49.5601 407.126C47.7707 399.88 51.5554 395.685 53.0605 390.478C53.7072 389.846 55.3458 390.176 56.561 390.103C60.0643 377.869 67.5147 369.48 83.7931 369.669C85.2606 370.259 86.702 370.876 88.4565 371.187C108.665 368.185 116.666 380.32 126.97 388.207C134.508 400.424 142.1 412.587 147.584 426.801C158.88 460.211 173.247 493.905 190.767 522.525C195.178 525.168 199.067 528.319 200.88 533.495C207.976 538.823 216.39 542.874 221.494 550.143C230.626 550.473 235.078 562.295 246 559.601C242.21 553.706 233.332 552.755 230.829 545.602Z" fill="white"/>
<path fill-rule="evenodd" clip-rule="evenodd" d="M61.1519 515.495C60.6679 509.445 58.2711 505.233 56.8482 500.079C56.8802 496.857 56.6615 493.385 57.2418 490.683C53.1334 481.051 55.7576 467.121 52.5473 456.477C56.4953 444.626 52.7018 431.651 57.2418 421.902C56.4837 418.256 55.4661 416.49 56.0667 412.127C61.1519 402.352 65.9426 392.297 72.1038 383.56C76.3347 381.116 82.6329 380.648 85.7907 377.17C79.9183 368.603 70.3514 379.827 65.065 382.433C60.1722 391.261 52.3607 397.289 52.9409 411.373C48.573 415.072 45.0886 419.618 43.5519 426.035C42.9309 434.801 37.9011 445.136 43.9456 451.968C48.6342 443.278 44.1584 425.943 51.3722 420.772C51.623 435.83 49.095 448.819 46.2899 462.494C46.2199 464.19 48.713 463.424 48.2435 465.501C45.8584 471.963 48.3398 482.069 50.5937 487.676C49.8356 494.615 53.0342 503.056 53.3288 511.359C53.9965 513.099 55.813 513.735 56.4604 515.495C57.1485 533.924 69.2171 544.203 76.0169 557.968C75.0838 559.224 73.7629 556.659 72.8853 557.968C76.2268 560.518 80.2215 562.443 83.8342 564.736C82.7466 560.359 77.0899 560.23 78.7519 554.207C77.988 552.436 75.3287 552.487 74.4511 550.825C71.7802 540.988 64.4556 533.615 61.5427 525.267C70.5672 532.382 74.279 544.604 82.665 552.33C85.2601 555.976 87.549 559.91 90.4882 563.231C92.0452 563.604 91.6632 562.107 93.2232 562.48C93.0045 563.396 91.707 563.279 92.051 564.736C96.2732 566.938 97.5765 571.949 103 573C93.2349 562.841 86.473 549.796 77.1861 539.175C73.6988 529.499 65.0154 524.81 61.1519 515.495Z" fill="white"/>
<path fill-rule="evenodd" clip-rule="evenodd" d="M65.0748 492C69.5657 501.929 73.3391 514.554 77 524C68.0391 518.558 64.4197 504.145 65.0748 492Z" fill="white"/>
<path fill-rule="evenodd" clip-rule="evenodd" d="M222.21 555.526C216.44 553.84 211.075 551.752 209.372 546.132C203.196 544.703 200.353 538.912 198.473 534.483C194.992 534.343 193.718 532.059 190.692 531.476C191.174 529.008 188.772 529.322 189.137 526.969C181.04 523.514 180.898 512.377 173.57 508.178C172.676 497.893 169.032 490.264 163.453 484.506C158.669 472.338 154.123 459.944 147.889 449.18C139.351 426.861 135.46 400.052 117.148 387.175C112.811 378.885 103.145 374.862 89.9096 376.28C79.9674 385.968 64.748 390.56 63.8371 408.97C56.0824 426.55 59.056 453.814 58 470.601C59.4622 473.574 59.9089 477.524 61.1129 480.746C61.0549 481.441 59.7958 480.979 59.555 481.497C59.996 482.825 59.9844 484.59 60.3354 486.008C57.4198 512.254 72.2707 524.579 81.7371 540.12C85.8219 543.19 88.7839 547.342 91.8533 551.394C97.8181 561.539 111.256 564.472 119.87 572.062C112.602 563.052 102.721 556.56 92.6308 550.265C93.0022 549.124 94.183 548.757 93.8 546.886C93.3764 545.664 91.894 545.465 91.0758 544.628C90.6755 542.888 89.2974 542.089 89.5208 539.744C85.3055 536.298 82.8975 531.112 80.1792 526.218C79.0593 510.433 72.9728 495.315 67.7275 483.377C69.4769 476.947 63.1147 471.422 65.7808 466.469C64.838 464.998 63.8835 463.541 62.6679 462.334C64.9221 461.628 64.5856 458.422 66.1696 457.072C64.6581 456.655 63.0886 456.293 63.0596 454.441C65.073 450.679 65.0991 448.925 63.8371 444.672C64.6784 442.977 66.5583 442.288 66.95 440.161C64.4753 416.876 70.8781 395.928 86.4079 387.551C87.7511 387.881 88.9609 388.341 89.5208 389.431C91.8678 400.615 87.2899 410.923 87.1825 421.373C87.0433 435.891 91.6735 451.763 95.355 464.962C99.7154 480.595 105.428 496.086 113.258 507.427C112.907 508.091 112.318 508.522 112.089 509.307C121.636 525.388 129.116 543.468 144.384 554.024C145.829 554.246 146.644 552.867 147.497 553.649C151.901 561.298 162.368 563.088 166.178 571.308C173.877 574.39 179.236 579.744 186.413 583.336C187.988 583.949 188.203 581.347 189.137 582.588C189.477 583.79 188.125 583.364 187.971 584.087C190.065 585 194.791 585.182 196.918 584.837C194.832 580.576 185.049 580.529 183.689 574.317C176.276 573.084 173.848 567.036 165.786 566.425C165.217 564.996 167.527 566.349 166.958 564.923C160.657 558.602 153.001 553.596 149.833 544.255C145.87 541.778 144.756 534.684 138.936 535.234C136.783 542.213 146 544.35 147.108 550.643C140.648 548.354 134.66 542.381 134.66 532.603C130.671 529.695 129.539 524.018 124.152 522.458C125.686 520.037 122.971 519.648 121.816 518.701C121.88 512.375 118.376 509.494 114.421 507.051C115.19 506.037 114.653 503.768 114.813 502.165C106.771 476.109 92.6802 453.895 91.8533 422.124C95.4391 433.443 98.7609 445.016 101.195 457.447C105.805 461.885 107.348 469.29 110.92 474.734C111.195 484.739 116.467 489.925 118.317 498.408C124.099 508.895 130.818 520.278 138.161 530.35C147.454 532.897 149.067 542.863 157.228 546.51C156.54 547.3 156.348 547.62 156.836 548.763C164.492 555.652 169.479 565.119 182.131 567.176C175.09 558.566 164.451 553.439 158.783 543.504C154.352 541.641 150.961 538.783 149.833 533.732C137.932 525.058 132.887 509.761 124.538 497.657C125.013 493.766 122.043 492.824 121.036 490.516C119.643 487.316 119.046 484.254 117.926 481.873C113.055 471.546 113.403 458.442 105.083 452.186C101.595 436.138 94.7922 423.295 93.4112 405.213C95.9788 402.68 95.9178 397.612 95.7467 392.437C103.481 392.79 107.595 399.738 111.697 404.837C115.196 420.017 124.717 434.586 125.707 452.186C128.109 453.632 128.959 456.358 128.039 460.078C132.417 463.244 132.727 470.332 133.879 476.611C137.262 485.246 141.245 493.298 145.553 501.036C146.937 508.973 152.345 513.016 156.061 518.701C157.703 519.494 159.499 520.138 160.34 521.707C160.021 522.494 158.739 523.172 159.563 523.962C170.196 538.747 182.433 551.974 199.25 560.788C199.132 561.668 198.49 562.343 199.25 563.043C203.849 564.87 206.79 568.291 213.257 568.302C213.768 569.568 213.794 571.297 214.818 572.062C217.644 572.636 220.551 574.976 224.154 573.566C224.514 570.854 218.7 570.933 219.878 567.176C217.925 566.1 214.275 567.408 213.257 567.176C214.139 566.498 214.177 565.279 213.649 564.172C204.829 560.037 195.375 556.515 191.858 547.261C182.83 545.454 181.211 536.5 173.57 533.356C174.536 530.168 170.703 529.781 172.015 526.969C170.445 525.98 168.641 525.218 168.513 522.833C168.171 521.133 170.457 521.956 170.46 520.578C166.679 519.956 165.632 515.585 161.507 516.448C152.429 502.042 139.351 486.053 140.883 466.091C135.582 463.065 137.346 453.22 132.716 449.558V440.915C122.063 423.264 121.726 395.656 101.97 386.797C97.1218 387.912 92.0883 386.453 91.4646 382.292C106.73 380.11 117.891 391.563 121.816 404.086C131.941 417.857 137.056 436.466 141.663 455.568C144.23 457.977 146.157 461 146.72 465.34C147.703 466.267 149.081 466.816 149.833 467.968C150.424 469.153 151.129 470.223 151.39 471.728C156.16 475.891 157.985 482.898 160.729 489.014C163.59 493.724 170.689 501.655 167.733 507.051C163.326 505.045 161.428 500.613 160.34 495.402C151.997 490.429 155.014 472.493 144.776 470.601C143.697 473.232 145.817 475.793 145.165 479.245C153.563 491.802 158.249 507.945 172.4 514.944C172.56 516.723 171.707 517.53 172.015 519.454C186.636 539.405 205.929 554.843 229.994 565.677C231.961 565.699 232.222 565.198 233.884 565.677C234.099 566.344 234.081 567.234 234.665 567.554C234.102 564.592 236.533 566.402 237 564.923C230.162 564.758 229.738 558.406 222.99 558.157C222.471 557.529 221.958 556.899 222.21 555.526Z" fill="white"/>
<path fill-rule="evenodd" clip-rule="evenodd" d="M-8.38318 386.106C-8.4175 383.913 -8.46611 381.701 -8 380C-14.5026 381.672 -13.9679 390.34 -19.1237 393.351C-20.2647 400.637 -26.4127 410.118 -22.9584 417C-22.8526 409.987 -19.5498 406.151 -16.0554 402.505C-15.4806 395.066 -11.1798 391.332 -8.38318 386.106Z" fill="white"/>
<path fill-rule="evenodd" clip-rule="evenodd" d="M166.421 576.144C163.598 575.22 162.349 572.781 159.374 571.998C157.065 567.186 151.694 565.324 148.801 561.074C137.967 557.183 132.059 548.551 126.48 539.597C125.485 538.804 123.798 538.664 122.569 538.088C122.872 535.67 120.327 529.785 116.304 529.046C110.034 514.58 102.876 500.474 99.4662 484.965C97.1074 481.713 95.7763 477.468 92.8104 474.794C95.3326 472.853 91.9317 469.23 92.4192 465.749C91.6865 464.32 89.8036 464 89.284 462.362C89.7948 455.112 88.6388 450.348 86.9399 443.522C85.019 435.826 85.7167 426.492 83.4135 421.292C85.3401 417.278 85.1475 410.978 83.8046 406.602C84.6366 402.978 87.693 399.582 86.5487 395.298C83.0749 393.911 81.805 397.717 80.2783 399.442C79.1281 413.453 81.9743 427.742 81.0635 442.39C83.4981 456.134 88.1251 467.525 87.3281 481.951C89.9875 481.527 90.9246 482.76 92.4192 483.46C100.949 506.145 108.381 529.889 124.525 545.248C125.062 545.993 124.898 547.403 125.31 548.265C140.16 563.61 157.78 576.293 176.212 588.2C179.108 588.804 182.298 589.124 186 588.955C179.052 586.469 174.904 581.293 167.206 579.534C166.742 578.596 166.637 577.315 166.421 576.144Z" fill="white"/>
<path fill-rule="evenodd" clip-rule="evenodd" d="M-26.1651 396.636C-26.0781 396.321 -25.8291 396.165 -25.3611 396.231C-25.2381 395.172 -25.9161 394.911 -26.9721 395.025C-27.0831 395.94 -26.8731 396.537 -26.1651 396.636Z" fill="white"/>
<path fill-rule="evenodd" clip-rule="evenodd" d="M6.35402 460.526C7.0639 455.777 10.2997 451.437 11.3232 446.907C12.7885 440.455 14.1855 435.091 16.2952 429.507C17.1305 427.404 14.405 426.865 15.1491 426.103H17.4441C18.6158 421.543 19.377 417.965 22.7953 415.136C21.0676 410.136 28.5085 406.568 25.0903 400.003C18.4733 399.806 17.9744 408.816 16.2952 414.755C13.2504 417.04 12.1585 421.256 12.4749 426.859C6.04327 431.371 8.04177 443.171 2.91297 449.556C3.3349 457.035 1.90089 462.675 1 468.848C2.30572 483.572 3.26648 500.851 9.79508 510.456C9.67819 511.835 9.8578 512.918 10.1771 513.863C11.2547 514.181 11.748 515.084 13.239 514.994C6.26849 498.702 3.70267 478.231 6.35402 460.526Z" fill="white"/>
<path fill-rule="evenodd" clip-rule="evenodd" d="M109.001 428C112.746 432.399 114.112 438.983 115 446C110.089 442.796 108.957 434.582 109.001 428Z" fill="white"/>
<path fill-rule="evenodd" clip-rule="evenodd" d="M122.888 476.93C132.517 510.13 152.914 532.911 173.835 555.181C176.691 556.685 179.66 558.07 180.834 561.203C181.73 562.073 182.087 560.505 183.557 560.822C185.63 568.852 192.351 572.38 197.946 577C199.701 576.571 200.852 575.547 203 575.499C196.311 569.932 190.55 563.464 182.391 559.321C179.057 553.389 173.751 549.37 168.39 545.401C167.544 543.337 166.32 541.634 166.056 539.009C153.789 528.931 145.99 514.526 138.449 499.879C135.622 484.298 123.407 474.557 122.117 456.239C116.849 450.929 119.594 438.737 116.669 430.28C115.15 425.888 112.053 424.022 112.001 419.748C110.647 418.048 108.733 416.89 107.722 414.856C108.412 411.179 105.57 410.921 105.002 408.461C105.344 404.619 104.695 401.733 102.668 400.184C98.7886 399.318 98.2117 401.643 98 404.324C104.086 421.26 102.969 445.162 115.5 455.863V460.379C117.916 465.946 119.551 472.263 122.888 476.93Z" fill="white"/>
<path fill-rule="evenodd" clip-rule="evenodd" d="M247.465 483.891C249.536 485.072 253.159 486.578 256 485.773C254.658 478.55 245.986 478.423 244.36 471.475C243.206 471.337 242.39 470.874 241.644 470.344C237.211 459.592 229.877 451.653 222.629 443.63C221.897 443.083 222.58 441.167 221.851 440.622C219.059 437.436 215.048 435.43 214.866 429.71C211.331 428.874 211.669 424.282 208.27 423.311C205.275 416.433 201.352 410.449 195.852 406C195.108 406.16 194.179 406.14 194.298 407.133C192.785 410.988 197.495 412.057 198.181 415.033C204.123 430.344 215.584 440.297 221.851 455.294C232.203 463.07 239.369 473.935 247.465 483.891Z" fill="white"/>
<path fill-rule="evenodd" clip-rule="evenodd" d="M129.555 571.565C122.74 570.027 122.081 562.509 116.763 559.517C112.156 552.198 105.174 547.176 100.098 540.312C99.3268 539.574 99.8499 538.161 100.098 537.3C94.3557 533.232 90.4164 523.746 90.4049 516.59C83.7893 508.876 86.0639 494.531 80.324 485.713C83.7286 481.858 80.0726 476.881 79.5465 472.535C78.5928 464.599 75.2402 456.219 75.6737 447.306C75.772 445.302 77.0437 443.368 77.2229 441.285C77.9396 433 74.8067 424.441 77.2229 415.3C76.4078 413.582 76.5205 410.963 74.8963 410.028C73.4512 409.877 72.6217 410.331 72.5726 411.536C72.1188 419.18 70.9454 429.115 72.5726 436.389C68.5206 456.076 73.3038 473.647 75.6737 491.364C77.3038 503.545 86.8789 514.518 86.5263 527.887C92.8904 537.642 100.263 546.423 106.685 556.125C110.925 558.287 114.26 561.322 117.541 564.41C119.02 565.496 119.624 563.247 121.029 564.41C121.517 571.796 130.754 577 135.373 582.859C139.309 583.957 143.468 586.761 147 587C143.512 583.603 136.532 580.361 131.494 577.211C131.72 574.485 130.188 573.466 129.555 571.565Z" fill="white"/>
<path fill-rule="evenodd" clip-rule="evenodd" d="M-27 418.901C-26.2361 419.271 -25.9306 420.139 -24.6862 419.981C-23.8287 419.357 -24.0135 417.596 -24.0233 416.028C-26.1302 415.774 -26.6328 417.266 -27 418.901Z" fill="white"/>
<path fill-rule="evenodd" clip-rule="evenodd" d="M-21.8967 440C-18.1899 436.323 -17.4502 429.368 -15 422.979C-21.9424 417.98 -22.2765 433.423 -21.8967 440Z" fill="white"/>
<path fill-rule="evenodd" clip-rule="evenodd" d="M-26.9385 421.003C-27.3735 422.533 -25.3875 423.709 -24.5235 422.611C-25.6155 422.362 -25.5225 420.931 -26.9385 421.003Z" fill="white"/>
<path fill-rule="evenodd" clip-rule="evenodd" d="M65.9122 550.57C58.365 537.197 52.8658 521.84 46.7394 507.091C47.7546 506.434 47.53 504.58 47.5241 502.931C42.5413 486.477 44.3559 466.361 37.7394 450H36.5637C35.4755 453.484 36.2428 458.758 35 462.099C36.0415 463.751 35.8402 466.367 35.3938 468.526C37.4768 476.853 38.9413 484.737 39.6998 493.101C41.2723 510.564 49.9368 528.047 57.6969 540.741C61.294 546.626 63.7592 554.232 71 557C70.7316 553.476 68.3277 552.019 65.9122 550.57Z" fill="white"/>
<path fill-rule="evenodd" clip-rule="evenodd" d="M319 457.025C319.541 458.266 320.004 459.568 321.606 460C323.031 459.184 324.585 457.548 323.779 456.031C321.538 455.871 320.14 456.347 319 457.025Z" fill="white"/>
<path fill-rule="evenodd" clip-rule="evenodd" d="M28.2305 502.436C29.3288 493.228 25.4462 488.88 24.7695 481.408C23.9235 473.605 26.6219 463.655 23.2296 457C16.4794 461.681 21.9708 474.901 19 482.905C20.8295 489.448 20.4252 498.544 26.6907 502.436C25.9652 502.979 24.9874 503.273 25.1537 504.69C29.7704 522.213 36.8847 541.301 49 549C47.1906 543.63 43.3739 540.223 40.5351 535.858C35.8926 525.248 33.3777 512.557 28.2305 502.436Z" fill="white"/>
<path fill-rule="evenodd" clip-rule="evenodd" d="M-16.5875 459C-17.5505 462.619 -16.5785 465.292 -16.1825 469C-14.3675 467.773 -12.4565 460.121 -16.5875 459Z" fill="white"/>
<path fill-rule="evenodd" clip-rule="evenodd" d="M-5.93053 475.98C-3.29583 473.081 -4.63933 469.369 -6.36856 466.436C-7.7088 466.709 -7.65977 465.775 -9 466.052C-8.33969 471.131 -10.2814 480.33 -5.05448 484C-3.16507 480.993 -4.03459 478.283 -5.93053 475.98Z" fill="white"/>
<path fill-rule="evenodd" clip-rule="evenodd" d="M120.906 547.899C120.125 547.265 118.028 547.93 117.415 547.143C117.459 546.427 118.696 546.878 118.578 546.007C107.954 533.821 99.5186 520.099 96.0833 501.768C91.4161 497.751 93.9724 486.686 87.9403 484C86.0983 484.347 86.3817 486.765 86 488.538C88.7818 492.787 89.1606 497.147 90.2652 501.768C94.9122 521.277 104.42 537.345 114.312 549.788C126.614 559.724 135.315 573.173 149.996 580.79C149.999 582.174 151.098 582.49 151.546 583.44C157.338 585.23 160.545 589.537 166.672 591C167.43 590.225 168.826 590.078 169 588.734C148.119 579.848 134.621 563.767 120.906 547.899Z" fill="white"/>
<path fill-rule="evenodd" clip-rule="evenodd" d="M-4.81485 487C-5.30541 489.346 -4.967 495.431 -2 497C-2.19413 493.243 -2.8657 490 -3.76026 487H-4.81485Z" fill="white"/>
<path fill-rule="evenodd" clip-rule="evenodd" d="M16.4437 519.723C15.2656 518.273 14.2558 516.667 12.1854 516C10.8771 519.648 16.9836 519.643 15.1672 524.941C16.3231 524.71 18.5459 525.416 19 524.571C17.8664 523.324 16.4787 522.304 15.5895 520.843C15.6308 520.254 16.6787 520.551 16.4437 519.723Z" fill="white"/>
<path fill-rule="evenodd" clip-rule="evenodd" d="M238.03 530.885C238.689 531.503 240.055 532.56 241 531.637C240.741 529.96 239.541 529.474 238.329 529C238.076 529.44 237.935 530.01 238.03 530.885Z" fill="white"/>
<path fill-rule="evenodd" clip-rule="evenodd" d="M247 535.317V538.15C250.169 540.106 253.069 542.352 257.5 543C258.242 541.481 260.809 541.858 261 539.766C255.157 539.275 253.098 530.811 247 535.317Z" fill="white"/>
<path fill-rule="evenodd" clip-rule="evenodd" d="M268.666 546C269.865 545.299 271.337 544.799 270.931 542.856C267.137 539.835 263.262 545.763 268.666 546Z" fill="white"/>
<path fill-rule="evenodd" clip-rule="evenodd" d="M61.0007 554.025C60.9527 555.201 63.3527 555.685 63.4157 554.427C62.9387 553.962 61.9937 553.971 61.0007 554.025Z" fill="white"/>
<path fill-rule="evenodd" clip-rule="evenodd" d="M245.037 561.912C246.306 561.843 247.437 561.627 247.449 560.301C246.585 559.554 244.716 560.238 245.037 561.912Z" fill="white"/>
<path fill-rule="evenodd" clip-rule="evenodd" d="M100 563C102.086 569.693 109.828 571.161 115 575C110.441 570.591 107.279 564.89 100 563Z" fill="white"/>
<path fill-rule="evenodd" clip-rule="evenodd" d="M205.742 577.059C205.587 576.109 206.432 576.201 206.119 575.09C202.99 574.687 201.215 575.601 202.339 578.637C205.398 579.913 208.639 581 212.926 581C213.609 576.477 209.414 577.041 205.742 577.059Z" fill="white"/>
<path fill-rule="evenodd" clip-rule="evenodd" d="M115 577.246C116.678 577.975 118.802 581.26 121 579.476C118.8 579.108 117.684 576.139 115 577.246Z" fill="white"/>
</g>
</g>
</svg>
