<svg width="15" height="15" viewBox="0 0 15 15" fill="none" xmlns="http://www.w3.org/2000/svg">
<g clip-path="url(#clip0)">
<path d="M14.502 11.9885H12.8838C13.8174 10.8059 14.3153 9.37439 14.3153 7.81837C14.3153 5.95115 13.6307 4.27066 12.3236 2.9636C10.2697 0.847419 7.09539 0.349494 4.41905 1.65655C4.23232 1.71879 4.17008 1.96775 4.23232 2.21671C4.35681 2.40344 4.60577 2.46568 4.79249 2.40344C7.09539 1.2831 9.89622 1.71879 11.7634 3.52377C12.8838 4.6441 13.5684 6.20012 13.5684 7.81837C13.5684 9.06319 13.195 10.2458 12.5103 11.3039V9.93456C12.5103 9.68559 12.3236 9.56111 12.0746 9.56111C11.8257 9.56111 11.639 9.74783 11.639 9.93456V12.3619C11.639 12.4864 11.639 12.6109 11.7634 12.7354C11.8257 12.7976 11.9502 12.8599 12.0746 12.8599H14.5643C14.8132 12.8599 15 12.6731 15 12.4864C14.9377 12.1752 14.751 11.9885 14.502 11.9885Z" fill="white"/>
<path d="M10.1452 13.2333C7.84232 14.3536 5.04149 13.9179 3.17427 12.113C2.05394 10.9926 1.36929 9.43662 1.36929 7.81836C1.36929 6.57355 1.74274 5.39098 2.42739 4.33289V5.70218C2.48963 5.95114 2.67635 6.13787 2.86307 6.13787C3.04979 6.13787 3.29876 5.95114 3.29876 5.70218V3.21256C3.29876 3.02583 3.11203 2.83911 2.86307 2.83911H0.373444C0.186722 2.83911 0 3.02583 0 3.21256C0 3.39928 0.186722 3.64824 0.435685 3.64824H2.05394C1.12033 4.83081 0.622407 6.26235 0.622407 7.81836C0.622407 9.68558 1.30705 11.3661 2.61411 12.6731C3.92116 13.9802 5.6639 14.6648 7.46888 14.6648C8.52697 14.6648 9.52282 14.4159 10.5187 13.9802C10.7054 13.8557 10.8299 13.669 10.7054 13.42C10.5809 13.2333 10.332 13.1711 10.1452 13.2333Z" fill="white"/>
</g>
<defs>
<clipPath id="clip0">
<path d="M0 6.10352e-05H15V15.0001H0V6.10352e-05Z" fill="white"/>
</clipPath>
</defs>
</svg>
