<svg width="9" height="11" viewBox="0 0 9 11" fill="none" xmlns="http://www.w3.org/2000/svg">
<path d="M2.17256 9.69837L1.99982 10.0953C1.96001 10.1868 2.00195 10.2934 2.09343 10.3332C2.18492 10.373 2.29148 10.3311 2.33129 10.2396L2.50404 9.84263C4.71474 9.72268 6.68429 8.39034 7.54251 6.41825C8.40745 4.43074 8.01228 2.19429 6.48542 0.436178C6.44972 0.395014 6.39718 0.37215 6.34273 0.374078C4.01532 0.455066 2.10941 1.69012 1.24447 3.67763C0.386246 5.64972 0.753582 7.99904 2.17256 9.69837ZM6.26873 0.738884C7.65534 2.37899 8.00832 4.44195 7.21097 6.27416C6.43071 8.06709 4.66719 9.29473 2.66682 9.46856L3.13088 8.40222L5.67767 7.39993C5.77067 7.36333 5.81626 7.25859 5.77966 7.16558C5.74305 7.07258 5.63831 7.02699 5.54531 7.0636L3.33485 7.93351L4.06852 6.24765L7.09103 5.05815C7.18403 5.02154 7.22962 4.9168 7.19302 4.82379C7.15642 4.73079 7.05167 4.68521 6.95867 4.72181L4.27249 5.77895L5.07828 3.92734L6.91148 3.20589C7.00449 3.16929 7.05007 3.06454 7.01347 2.97154C6.97687 2.87854 6.87212 2.83295 6.77912 2.86955L5.28225 3.45864L6.11791 1.53843C6.15772 1.44694 6.11578 1.34038 6.0243 1.30056C5.93281 1.26075 5.82625 1.30269 5.78643 1.39417L4.95078 3.31439L4.36169 1.81753C4.32509 1.72452 4.22035 1.67894 4.12734 1.71554C4.03434 1.75214 3.98876 1.85689 4.02536 1.94989L4.74681 3.78309L3.94102 5.63469L2.88388 2.94852C2.84728 2.85552 2.74253 2.80993 2.64953 2.84653C2.55653 2.88314 2.51094 2.98788 2.54754 3.08088L3.73705 6.1034L3.00338 7.78926L2.13346 5.57881C2.09686 5.48581 1.99212 5.44022 1.89911 5.47683C1.80611 5.51343 1.76053 5.61817 1.79713 5.71118L2.79941 8.25796L2.33535 9.32431C1.09916 7.74217 0.795686 5.61481 1.57594 3.82188C2.37322 1.98983 4.12343 0.842154 6.26873 0.738884Z" fill="white"/>
<path fill-rule="evenodd" clip-rule="evenodd" d="M2.06497 9.71357C0.654798 7.99215 0.294159 5.62928 1.15957 3.64068C2.04004 1.61748 3.97979 0.363654 6.33951 0.281541C6.4219 0.278641 6.5013 0.313187 6.55533 0.375465C8.10339 2.15799 8.50788 4.432 7.62741 6.45519C6.762 8.4438 4.7871 9.79028 2.56625 9.93171L2.41619 10.2765C2.35598 10.4149 2.19486 10.4783 2.05648 10.4181C1.91811 10.3579 1.8547 10.1967 1.91492 10.0584L2.06497 9.71357ZM2.50404 9.84263L2.33129 10.2396C2.29148 10.3311 2.18492 10.373 2.09343 10.3332C2.00195 10.2934 1.96001 10.1868 1.99982 10.0953L2.17256 9.69837C0.753582 7.99904 0.386246 5.64972 1.24447 3.67763C2.10941 1.69012 4.01532 0.455066 6.34273 0.374078C6.39718 0.37215 6.44972 0.395014 6.48542 0.436178C8.01228 2.19429 8.40745 4.43074 7.54251 6.41825C6.68429 8.39034 4.71474 9.72268 2.50404 9.84263ZM6.22746 0.833734C4.13491 0.949451 2.4371 2.0751 1.66085 3.85883C0.915124 5.5724 1.17695 7.59991 2.31353 9.1424L2.6992 8.25618L1.71097 5.74508C1.65564 5.6045 1.72462 5.44599 1.86521 5.39066C2.00579 5.33534 2.1643 5.40431 2.21962 5.5449L3.00768 7.54735L3.63684 6.10162L2.46138 3.11479C2.40606 2.9742 2.47503 2.8157 2.61562 2.76037C2.75621 2.70504 2.91471 2.77402 2.97004 2.91461L3.94532 5.39278L4.6466 3.78131L3.9392 1.9838C3.88387 1.84321 3.95285 1.68471 4.09344 1.62938C4.23402 1.57405 4.39253 1.64303 4.44786 1.78362L4.95508 3.07247L5.70153 1.35723C5.76175 1.21885 5.92287 1.15544 6.06124 1.21566C6.19962 1.27588 6.26303 1.437 6.20281 1.57537L5.45636 3.29062L6.74521 2.78339C6.8858 2.72807 7.0443 2.79704 7.09963 2.93763C7.15496 3.07822 7.08598 3.23672 6.94539 3.29205L5.14788 3.99946L4.44659 5.61092L6.92476 4.63565C7.06535 4.58032 7.22385 4.6493 7.27918 4.78989C7.33451 4.93047 7.26553 5.08898 7.12494 5.14431L4.13812 6.31976L3.50896 7.76549L5.5114 6.97744C5.65199 6.92211 5.81049 6.99108 5.86582 7.13167C5.92114 7.27226 5.85217 7.43076 5.71158 7.48609L3.20048 8.47433L2.81481 9.36054C4.71828 9.14085 6.38035 7.95078 7.12607 6.23721C7.90239 4.45332 7.569 2.44372 6.22746 0.833734ZM2.77222 9.45841C4.72897 9.25134 6.44444 8.03554 7.21097 6.27416C8.00832 4.44195 7.65534 2.37899 6.26873 0.738884C4.12343 0.842154 2.37322 1.98983 1.57594 3.82188C0.809419 5.58325 1.08881 7.66738 2.27095 9.24027C2.29212 9.26845 2.31359 9.29646 2.33535 9.32431L2.79941 8.25796L1.79713 5.71118C1.76053 5.61817 1.80611 5.51343 1.89911 5.47683C1.99212 5.44022 2.09686 5.48581 2.13346 5.57881L3.00338 7.78926L3.73705 6.1034L2.54754 3.08088C2.51094 2.98788 2.55653 2.88314 2.64953 2.84653C2.74253 2.80993 2.84728 2.85552 2.88388 2.94852L3.94102 5.63469L4.74681 3.78309L4.02536 1.94989C3.98876 1.85689 4.03434 1.75214 4.12734 1.71554C4.22035 1.67894 4.32509 1.72452 4.36169 1.81753L4.95078 3.31439L5.78643 1.39417C5.82625 1.30269 5.93281 1.26075 6.0243 1.30056C6.11578 1.34038 6.15772 1.44694 6.11791 1.53843L5.28225 3.45864L6.77912 2.86955C6.87212 2.83295 6.97687 2.87854 7.01347 2.97154C7.05007 3.06454 7.00449 3.16929 6.91148 3.20589L5.07828 3.92734L4.27249 5.77895L6.95867 4.72181C7.05167 4.68521 7.15642 4.73079 7.19302 4.82379C7.22962 4.9168 7.18403 5.02154 7.09103 5.05815L4.06852 6.24765L3.33485 7.93351L5.54531 7.0636C5.63831 7.02699 5.74305 7.07258 5.77966 7.16558C5.81626 7.25859 5.77067 7.36333 5.67767 7.39993L3.13088 8.40222L2.66682 9.46856C2.70203 9.4655 2.73717 9.46212 2.77222 9.45841Z" fill="white"/>
</svg>
