<svg width="11" height="15" viewBox="0 0 11 15" fill="none" xmlns="http://www.w3.org/2000/svg">
<path d="M5.31246 14.1513V14.75C5.31246 14.888 5.42446 15 5.56246 15C5.70046 15 5.81246 14.888 5.81246 14.75V14.1513C8.54994 12.779 10.3124 10.0023 10.3124 7.02757C10.3124 4.02959 8.57694 1.41136 5.67021 0.0243748C5.60221 -0.00812493 5.52296 -0.00812493 5.45496 0.0243748C2.54799 1.41161 0.8125 4.02984 0.8125 7.02782C0.8125 10.0025 2.57499 12.7793 5.31246 14.1513ZM5.56246 0.527871C8.22619 1.84261 9.81242 4.26409 9.81242 7.02782C9.81242 9.73229 8.25344 12.2625 5.81246 13.587V11.9785L8.48919 9.3018C8.58694 9.20405 8.58694 9.04605 8.48919 8.9483C8.39144 8.85055 8.23344 8.85055 8.13569 8.9483L5.81246 11.2715V8.72855L8.98918 5.55183C9.08693 5.45408 9.08693 5.29608 8.98918 5.19833C8.89143 5.10058 8.73343 5.10058 8.63568 5.19833L5.81246 8.02156V5.22858L7.73919 3.30185C7.83694 3.2041 7.83694 3.0461 7.73919 2.94835C7.64144 2.8506 7.48344 2.8506 7.38569 2.94835L5.81246 4.52159V1.62511C5.81246 1.48711 5.70046 1.37511 5.56246 1.37511C5.42446 1.37511 5.31246 1.48711 5.31246 1.62511V4.52159L3.73923 2.94835C3.64148 2.8506 3.48348 2.8506 3.38573 2.94835C3.28798 3.0461 3.28798 3.2041 3.38573 3.30185L5.31246 5.22858V8.02156L2.48924 5.19833C2.39149 5.10058 2.23349 5.10058 2.13574 5.19833C2.03799 5.29608 2.03799 5.45408 2.13574 5.55183L5.31246 8.72855V11.2715L2.98923 8.9483C2.89148 8.85055 2.73348 8.85055 2.63573 8.9483C2.53799 9.04605 2.53799 9.20405 2.63573 9.3018L5.31246 11.9785V13.587C2.87148 12.2628 1.3125 9.73229 1.3125 7.02782C1.3125 4.26434 2.89873 1.84286 5.56246 0.527871Z" fill="white"/>
</svg>
