<svg width="15" height="15" viewBox="0 0 15 15" fill="none" xmlns="http://www.w3.org/2000/svg">
<mask id="path-1-outside-1" maskUnits="userSpaceOnUse" x="5.23242" y="-1" width="10" height="17" fill="black">
<rect fill="white" x="5.23242" y="-1" width="10" height="17"/>
<path d="M7.44386 0C7.10515 0 6.78257 0.016129 6.44386 0.0645161C6.31483 0.0806452 6.21805 0.209677 6.23418 0.33871C6.25031 0.467742 6.34708 0.548387 6.47612 0.548387C6.49225 0.548387 6.49225 0.548387 6.50837 0.548387C6.81483 0.5 7.13741 0.483871 7.44386 0.483871C11.3148 0.483871 14.46 3.62903 14.46 7.5C14.46 11.371 11.3148 14.5161 7.44386 14.5161C7.13741 14.5161 6.81483 14.5 6.50837 14.4516C6.37934 14.4355 6.25031 14.5323 6.23418 14.6613C6.21805 14.7903 6.31483 14.9194 6.44386 14.9355C6.76644 14.9839 7.10515 15 7.44386 15C11.5729 15 14.9439 11.629 14.9439 7.5C14.9439 3.37097 11.5729 0 7.44386 0Z"/>
</mask>
<path d="M7.44386 0C7.10515 0 6.78257 0.016129 6.44386 0.0645161C6.31483 0.0806452 6.21805 0.209677 6.23418 0.33871C6.25031 0.467742 6.34708 0.548387 6.47612 0.548387C6.49225 0.548387 6.49225 0.548387 6.50837 0.548387C6.81483 0.5 7.13741 0.483871 7.44386 0.483871C11.3148 0.483871 14.46 3.62903 14.46 7.5C14.46 11.371 11.3148 14.5161 7.44386 14.5161C7.13741 14.5161 6.81483 14.5 6.50837 14.4516C6.37934 14.4355 6.25031 14.5323 6.23418 14.6613C6.21805 14.7903 6.31483 14.9194 6.44386 14.9355C6.76644 14.9839 7.10515 15 7.44386 15C11.5729 15 14.9439 11.629 14.9439 7.5C14.9439 3.37097 11.5729 0 7.44386 0Z" fill="white"/>
<path d="M7.44386 0C7.10515 0 6.78257 0.016129 6.44386 0.0645161C6.31483 0.0806452 6.21805 0.209677 6.23418 0.33871C6.25031 0.467742 6.34708 0.548387 6.47612 0.548387C6.49225 0.548387 6.49225 0.548387 6.50837 0.548387C6.81483 0.5 7.13741 0.483871 7.44386 0.483871C11.3148 0.483871 14.46 3.62903 14.46 7.5C14.46 11.371 11.3148 14.5161 7.44386 14.5161C7.13741 14.5161 6.81483 14.5 6.50837 14.4516C6.37934 14.4355 6.25031 14.5323 6.23418 14.6613C6.21805 14.7903 6.31483 14.9194 6.44386 14.9355C6.76644 14.9839 7.10515 15 7.44386 15C11.5729 15 14.9439 11.629 14.9439 7.5C14.9439 3.37097 11.5729 0 7.44386 0Z" stroke="white" stroke-width="0.1" mask="url(#path-1-outside-1)"/>
<path d="M0.692139 4.95176C0.724397 4.96789 0.756655 4.96789 0.788913 4.96789C0.885688 4.96789 0.966333 4.91951 1.01472 4.82273C1.24053 4.25822 1.54698 3.72596 1.93407 3.24209C2.01472 3.12918 1.99859 2.98402 1.88569 2.90338C1.77278 2.82273 1.62762 2.83886 1.54698 2.95176C1.14375 3.46789 0.821172 4.04854 0.579236 4.64531C0.51472 4.75822 0.563107 4.90338 0.692139 4.95176Z" fill="white"/>
<path fill-rule="evenodd" clip-rule="evenodd" d="M1.01472 4.82273C0.966333 4.91951 0.885688 4.96789 0.788913 4.96789C0.756655 4.96789 0.724397 4.96789 0.692139 4.95176C0.563107 4.90338 0.51472 4.75822 0.579236 4.64531C0.821172 4.04854 1.14375 3.46789 1.54698 2.95176C1.62762 2.83886 1.77278 2.82273 1.88569 2.90338C1.99859 2.98402 2.01472 3.12918 1.93407 3.24209C1.54698 3.72596 1.24053 4.25822 1.01472 4.82273ZM1.50944 2.92367C1.6069 2.78817 1.78162 2.77144 1.91293 2.86523C2.04921 2.96257 2.06621 3.13775 1.97222 3.26933L1.97073 3.27141C1.58659 3.75159 1.28238 4.27979 1.05824 4.84014L1.05679 4.84377C1.00079 4.95578 0.904153 5.01477 0.788913 5.01477C0.788004 5.01477 0.787084 5.01477 0.786153 5.01477C0.755864 5.01479 0.714928 5.01481 0.673453 4.99481C0.519817 4.93574 0.461052 4.76153 0.536923 4.62492C0.780051 4.02587 1.10414 3.44262 1.50944 2.92367Z" fill="white"/>
<path d="M0.353945 8.69952C0.389972 8.69785 0.418122 8.68209 0.446273 8.66634C0.530725 8.61909 0.577474 8.53748 0.572445 8.4294C0.493843 7.8265 0.50137 7.21237 0.602901 6.60109C0.618146 6.46318 0.533188 6.34438 0.395281 6.32914C0.257374 6.31389 0.138571 6.39885 0.123326 6.53676C0.0234712 7.18406 0.0254968 7.8483 0.105775 8.48722C0.104605 8.61725 0.217715 8.7203 0.353945 8.69952Z" fill="white"/>
<path fill-rule="evenodd" clip-rule="evenodd" d="M0.572445 8.4294C0.577474 8.53748 0.530725 8.61909 0.446273 8.66634C0.418122 8.68209 0.389972 8.69785 0.353945 8.69952C0.217715 8.7203 0.104605 8.61725 0.105775 8.48722C0.0254968 7.8483 0.0234712 7.18406 0.123326 6.53676C0.138571 6.39885 0.257374 6.31389 0.395281 6.32914C0.533188 6.34438 0.618146 6.46318 0.602901 6.60109C0.50137 7.21237 0.493843 7.8265 0.572445 8.4294ZM0.0768515 6.53057C0.0957384 6.36473 0.240037 6.26481 0.400431 6.28254C0.566886 6.30095 0.66726 6.44551 0.649492 6.60624L0.649211 6.60878C0.548454 7.2154 0.540904 7.82489 0.618927 8.42334L0.619432 8.42722C0.625253 8.55231 0.569728 8.65098 0.469162 8.70725L0.466754 8.7086C0.440331 8.72341 0.40462 8.74342 0.358657 8.74621C0.19574 8.76968 0.0593913 8.64636 0.0588925 8.49009C-0.0214564 7.84859 -0.0234376 7.18136 0.0768515 6.53057Z" fill="white"/>
<path d="M1.01478 10.1775C0.966397 10.0485 0.821236 10.0001 0.692203 10.0485C0.563171 10.0969 0.514784 10.2421 0.563171 10.3711C0.805107 10.9679 1.14382 11.5485 1.54704 12.0646C1.59543 12.1292 1.65995 12.1614 1.74059 12.1614C1.78898 12.1614 1.83736 12.1453 1.88575 12.113C1.99866 12.0324 2.01478 11.8872 1.93414 11.7743C1.56317 11.2743 1.24059 10.7421 1.01478 10.1775Z" fill="white"/>
<path fill-rule="evenodd" clip-rule="evenodd" d="M0.563171 10.3711C0.514784 10.2421 0.563171 10.0969 0.692203 10.0485C0.821236 10.0001 0.966397 10.0485 1.01478 10.1775C1.24059 10.7421 1.56317 11.2743 1.93414 11.7743C2.01478 11.8872 1.99866 12.0324 1.88575 12.113C1.83736 12.1453 1.78898 12.1614 1.74059 12.1614C1.65995 12.1614 1.59543 12.1292 1.54704 12.0646C1.14382 11.5485 0.805107 10.9679 0.563171 10.3711ZM1.50982 12.0931C1.10414 11.5738 0.763304 10.9895 0.51973 10.3887L0.519265 10.3876C0.463839 10.2398 0.517342 10.064 0.675745 10.0046C0.823391 9.94925 0.998904 10.0026 1.05849 10.1606C1.28238 10.7202 1.60257 11.2487 1.97178 11.7464C2.06578 11.878 2.04927 12.0538 1.913 12.1512L1.91177 12.152C1.85726 12.1884 1.79996 12.2083 1.74059 12.2083C1.64535 12.2083 1.56703 12.1692 1.50982 12.0931Z" fill="white"/>
<path d="M4.80467 13.9836C4.24015 13.7417 3.70789 13.4352 3.22402 13.0643C3.11112 12.9836 2.96596 12.9997 2.88531 13.1127C2.80467 13.2256 2.82079 13.3707 2.9337 13.4514C3.44983 13.8546 4.01434 14.1772 4.62725 14.4352C4.65951 14.4514 4.69176 14.4514 4.72402 14.4514C4.8208 14.4514 4.90144 14.403 4.94983 14.3062C4.98209 14.1772 4.91757 14.032 4.80467 13.9836Z" fill="white"/>
<path fill-rule="evenodd" clip-rule="evenodd" d="M3.25254 13.0271C3.73313 13.3955 4.26198 13.7 4.82313 13.9405C4.96006 13.9992 5.03235 14.1694 4.9953 14.3176L4.99278 14.3277L4.99175 14.3272C4.93575 14.4392 4.83926 14.4982 4.72402 14.4982C4.72311 14.4982 4.72219 14.4982 4.72126 14.4982C4.69078 14.4983 4.6495 14.4983 4.60775 14.4779C3.99222 14.2186 3.42473 13.8943 2.9056 13.4889C2.77011 13.3914 2.75337 13.2167 2.84717 13.0854C2.94451 12.9491 3.11968 12.9321 3.25127 13.0261L3.25254 13.0271ZM2.9337 13.4514C2.82079 13.3707 2.80467 13.2256 2.88531 13.1127C2.96596 12.9997 3.11112 12.9836 3.22402 13.0643C3.70789 13.4352 4.24015 13.7417 4.80467 13.9836C4.91757 14.032 4.98209 14.1772 4.94983 14.3062C4.90144 14.403 4.8208 14.4514 4.72402 14.4514C4.69176 14.4514 4.65951 14.4514 4.62725 14.4352C4.01434 14.1772 3.44983 13.8546 2.9337 13.4514Z" fill="white"/>
<path d="M3.06309 1.99989C3.11148 1.99989 3.15986 1.98376 3.20825 1.9515C3.69212 1.58054 4.22438 1.27409 4.7889 1.03215C4.91793 0.983763 4.96632 0.838602 4.91793 0.709569C4.86954 0.580537 4.72438 0.53215 4.59535 0.580537C3.99857 0.838602 3.41793 1.16118 2.9018 1.56441C2.7889 1.64505 2.77277 1.79021 2.85341 1.90312C2.91793 1.96763 2.99857 1.99989 3.06309 1.99989Z" fill="white"/>
<path fill-rule="evenodd" clip-rule="evenodd" d="M3.23425 1.99051C3.17974 2.02685 3.12246 2.04677 3.06309 2.04677C2.98447 2.04677 2.89232 2.00831 2.82027 1.93626L2.81474 1.93074C2.72095 1.79943 2.73821 1.62433 2.8737 1.52687C3.39345 1.12095 3.97747 0.796658 4.57674 0.537513L4.57887 0.536593C4.72667 0.481167 4.90242 0.534708 4.96182 0.69311C5.01712 0.840584 4.964 1.01586 4.80641 1.07564C4.24561 1.31607 3.71709 1.62046 3.23677 1.98871L3.23425 1.99051ZM4.7889 1.03215C4.91793 0.983763 4.96632 0.838602 4.91793 0.709569C4.86954 0.580537 4.72438 0.53215 4.59535 0.580537C3.99857 0.838602 3.41793 1.16118 2.9018 1.56441C2.7889 1.64505 2.77277 1.79021 2.85341 1.90312C2.91793 1.96763 2.99857 1.99989 3.06309 1.99989C3.11148 1.99989 3.15986 1.98376 3.20825 1.9515C3.69212 1.58054 4.22438 1.27409 4.7889 1.03215Z" fill="white"/>
</svg>
