<svg width="9" height="15" viewBox="0 0 9 15" fill="none" xmlns="http://www.w3.org/2000/svg">
<path d="M0.508374 0.573697V0.573387H0.50828H0.508186H0.508092H0.507999H0.507906H0.507814H0.507722H0.50763H0.507538H0.507447H0.507357H0.507266H0.507176H0.507087H0.506997H0.506908H0.50682H0.506731H0.506644H0.506556H0.506469H0.506382H0.506295H0.506209H0.506123H0.506038H0.505952H0.505867H0.505783H0.505699H0.505615H0.505531H0.505448H0.505365H0.505282H0.5052H0.505118H0.505036H0.504955H0.504874H0.504793H0.504713H0.504633H0.504553H0.504473H0.504394H0.504315H0.504237H0.504158H0.50408H0.504003H0.503925H0.503848H0.503771H0.503695H0.503618H0.503543H0.503467H0.503392H0.503316H0.503242H0.503167H0.503093H0.503019H0.502945H0.502872H0.502799H0.502726H0.502653H0.502581H0.502509H0.502437H0.502365H0.502294H0.502223H0.502152H0.502082H0.502012H0.501942H0.501872H0.501803H0.501733H0.501664H0.501596H0.501527H0.501459H0.501391H0.501323H0.501256H0.501189H0.501122H0.501055H0.500988H0.500922H0.500856H0.50079H0.500724H0.500659H0.500594H0.500529H0.500464H0.5004H0.500336H0.500272H0.500208H0.500144H0.500081H0.500018H0.499955H0.499892H0.49983H0.499767H0.499705H0.499643H0.499582H0.49952H0.499459H0.499398H0.499337H0.499276H0.499216H0.499155H0.499095H0.499035H0.498976H0.498916H0.498857H0.498798H0.498739H0.49868H0.498621H0.498563H0.498505H0.498446H0.498389H0.498331H0.498273H0.498216H0.498159H0.498102H0.498045H0.497988H0.497932H0.497875H0.497819H0.497763H0.497707H0.497651H0.497596H0.49754H0.497485H0.49743H0.497375H0.49732H0.497265H0.497211H0.497156H0.497102H0.497048H0.496994H0.49694H0.496887H0.496833H0.49678H0.496726H0.496673H0.49662H0.496567H0.496514H0.496462H0.496409H0.496357H0.496305H0.496252H0.4962H0.496148H0.496097H0.496045H0.495993H0.495942H0.49589H0.495839H0.495788H0.495737H0.495686H0.495635H0.495585H0.495534H0.495483H0.495433H0.495383H0.495332H0.495282H0.495232H0.495182H0.495132H0.495082H0.495033H0.494983H0.494934H0.494884H0.494835H0.494785H0.494736H0.494687H0.494638H0.494589H0.49454H0.494491H0.494442H0.494393H0.494345H0.494296H0.494248H0.494199H0.494151H0.494102H0.494054H0.494006H0.493957H0.493909H0.493861H0.493813H0.493765H0.493717H0.493669H0.493621H0.493573H0.493526H0.493478H0.49343H0.493383H0.493335H0.493287H0.49324H0.493192H0.493145H0.493097H0.49305H0.493002H0.492955H0.492907H0.49286H0.492813H0.492765H0.492718H0.492671H0.492623H0.492576H0.492529H0.492481H0.492434H0.492387H0.49234H0.492292H0.492245H0.492198H0.492151H0.492103H0.492056H0.492009H0.491962H0.491914H0.491867H0.49182H0.491772H0.491725H0.491678H0.49163H0.491583H0.491535H0.491488H0.491441H0.491393H0.491346H0.491298H0.491251H0.491203H0.491155H0.491108H0.49106H0.491012H0.490965H0.490917H0.490869H0.490821H0.490773H0.490725H0.490677H0.490629H0.490581H0.490533H0.490485H0.490436H0.490388H0.49034H0.490291H0.490243H0.490194H0.490145H0.490097H0.490048H0.489999H0.48995H0.489901H0.489852H0.489803H0.489754H0.489705H0.489656H0.489606H0.489557H0.489507H0.489458H0.489408H0.489358H0.489308H0.489258H0.489208H0.489158H0.489108H0.489057H0.489007H0.488956H0.488906H0.488855H0.488804H0.488753H0.488702H0.488651H0.4886H0.488548H0.488497H0.488445H0.488394H0.488342H0.48829H0.488238H0.488186H0.488133H0.488081H0.488028H0.487976H0.487923H0.48787H0.487817H0.487764H0.487711H0.487657H0.487604H0.48755H0.487496H0.487442H0.487388H0.487334H0.487279H0.487225H0.48717H0.487115H0.48706H0.487005H0.48695H0.486895H0.486839H0.486783H0.486727H0.486671H0.486615H0.486559H0.486502H0.486445H0.486389H0.486332H0.486274H0.486217H0.486159H0.486102H0.486044H0.485986H0.485927H0.485869H0.48581H0.485752H0.485693H0.485633H0.485574H0.485515H0.485455H0.485395H0.485335H0.485275H0.485214H0.485153H0.485093H0.485031H0.48497H0.484909H0.484847H0.484785H0.484723H0.484661H0.484598H0.484535H0.484472H0.484409H0.484346H0.484282H0.484219H0.484155H0.48409H0.484026H0.483961H0.483896H0.483831H0.483766H0.4837H0.483634H0.483568H0.483502H0.483435H0.483369H0.483302H0.483234H0.483167H0.483099H0.483031H0.482963H0.482895H0.482826H0.482757H0.482688H0.482618H0.482549H0.482479H0.482408H0.482338H0.482267H0.482196H0.482125H0.482053H0.481982H0.481909H0.481837H0.481765H0.481692H0.481618H0.481545H0.481471H0.481397H0.481323H0.481249H0.481174H0.481099H0.481023H0.480948H0.480872H0.480795H0.480719H0.480642H0.480565H0.480488H0.48041H0.480332H0.480254H0.480175H0.480096H0.480017H0.479937H0.479858H0.479777H0.479697H0.479616H0.479535H0.479454H0.479372H0.47929H0.479208H0.479125H0.479042H0.478959H0.478875H0.478792H0.478707H0.478623H0.478538H0.478453H0.478367H0.478281H0.478195H0.478108H0.478021H0.477934H0.477847H0.477759H0.47767H0.477582H0.477493H0.477404H0.477314H0.477224H0.477134H0.477043H0.476952H0.47686H0.476769H0.476676H0.476584H0.476491H0.476398H0.476304H0.47621H0.476116C0.33513 0.573387 0.227146 0.483992 0.209374 0.341811C0.191607 0.199675 0.297397 0.0577595 0.440539 0.0397364C0.440612 0.0397273 0.440684 0.0397183 0.440757 0.0397092L0.443858 0.0645161C0.782568 0.016129 1.10515 0 1.44386 0C5.57289 0 8.94386 3.37097 8.94386 7.5C8.94386 11.629 5.57289 15 1.44386 15C1.10515 15 0.766438 14.9839 0.443858 14.9355L0.508374 0.573697ZM0.508374 0.573697L0.512273 0.573081C0.817006 0.524965 1.13819 0.508871 1.44386 0.508871C5.30102 0.508871 8.43499 3.64284 8.43499 7.5C8.43499 11.3572 5.30102 14.4911 1.44386 14.4911C1.13819 14.4911 0.817006 14.475 0.512275 14.4269L0.511475 14.4268C0.369268 14.409 0.22728 14.5149 0.209374 14.6582C0.19161 14.8003 0.297359 14.9422 0.440461 14.9603L0.508374 0.573697Z" stroke="white" stroke-width="0.2"/>
</svg>
