<svg width="15" height="15" viewBox="0 0 15 15" fill="none" xmlns="http://www.w3.org/2000/svg">
<path d="M7.5 0.0925926C3.41553 0.0925926 0.0925926 3.41553 0.0925926 7.5C0.0925926 9.67146 1.0181 11.6865 2.64661 13.096H1.78087C1.6786 13.096 1.59569 13.1789 1.59569 13.2812C1.59569 13.3834 1.6786 13.4663 1.78087 13.4663H3.15529C3.25756 13.4663 3.34048 13.3834 3.34048 13.2812V11.9443C3.34048 11.842 3.25756 11.7591 3.15529 11.7591C3.05302 11.7591 2.97011 11.842 2.97011 11.9443V12.883C1.37356 11.5411 0.462963 9.598 0.462963 7.5C0.462963 3.61979 3.61979 0.462963 7.5 0.462963C11.3802 0.462963 14.537 3.61979 14.537 7.5C14.537 11.3802 11.3802 14.537 7.5 14.537C7.39773 14.537 7.31481 14.62 7.31481 14.7222C7.31481 14.8245 7.39773 14.9074 7.5 14.9074C11.5845 14.9074 14.9074 11.5845 14.9074 7.5C14.9074 3.41553 11.5845 0.0925926 7.5 0.0925926Z" fill="white"/>
<path fill-rule="evenodd" clip-rule="evenodd" d="M0 7.5C0 3.36439 3.36439 0 7.5 0C11.6356 0 15 3.36439 15 7.5C15 11.6356 11.6356 15 7.5 15C7.3466 15 7.22222 14.8756 7.22222 14.7222C7.22222 14.5688 7.3466 14.4444 7.5 14.4444C11.3291 14.4444 14.4444 11.3291 14.4444 7.5C14.4444 3.67093 11.3291 0.555556 7.5 0.555556C3.67093 0.555556 0.555556 3.67093 0.555556 7.5C0.555556 9.50298 1.3963 11.3624 2.87751 12.6805V11.9443C2.87751 11.7909 3.00189 11.6665 3.15529 11.6665C3.3087 11.6665 3.43307 11.7909 3.43307 11.9443V13.2812C3.43307 13.4346 3.3087 13.5589 3.15529 13.5589H1.78087C1.62747 13.5589 1.50309 13.4346 1.50309 13.2812C1.50309 13.1278 1.62747 13.0034 1.78087 13.0034H2.40409C0.868432 11.5861 0 9.61617 0 7.5ZM2.54161 13.0034C0.978376 11.5989 0.0925926 9.62435 0.0925926 7.5C0.0925926 3.41553 3.41553 0.0925926 7.5 0.0925926C11.5845 0.0925926 14.9074 3.41553 14.9074 7.5C14.9074 11.5845 11.5845 14.9074 7.5 14.9074C7.39773 14.9074 7.31481 14.8245 7.31481 14.7222C7.31481 14.62 7.39773 14.537 7.5 14.537C11.3802 14.537 14.537 11.3802 14.537 7.5C14.537 3.61979 11.3802 0.462963 7.5 0.462963C3.61979 0.462963 0.462963 3.61979 0.462963 7.5C0.462963 9.5571 1.3384 11.4653 2.87751 12.8038C2.90812 12.8304 2.93898 12.8568 2.97011 12.883V11.9443C2.97011 11.842 3.05302 11.7591 3.15529 11.7591C3.25756 11.7591 3.34048 11.842 3.34048 11.9443V13.2812C3.34048 13.3834 3.25756 13.4663 3.15529 13.4663H1.78087C1.6786 13.4663 1.59569 13.3834 1.59569 13.2812C1.59569 13.1789 1.6786 13.096 1.78087 13.096H2.64661C2.61128 13.0654 2.57628 13.0345 2.54161 13.0034Z" fill="white"/>
</svg>
