<svg width="15" height="15" viewBox="0 0 15 15" fill="none" xmlns="http://www.w3.org/2000/svg">
<path fill-rule="evenodd" clip-rule="evenodd" d="M10.6652 7.69866C11.4894 6.88303 12 5.75115 12 4.5C12 2.01472 9.98528 0 7.5 0C5.01472 0 3 2.01472 3 4.5C3 5.75114 3.5106 6.88303 4.33478 7.69866C1.77449 8.8922 0 11.4889 0 14.5H2C2 11.4624 4.46243 9 7.5 9C10.5376 9 13 11.4624 13 14.5H15C15 11.4889 13.2255 8.8922 10.6652 7.69866ZM5 4.5C5 3.11929 6.11929 2 7.5 2C8.88071 2 10 3.11929 10 4.5C10 5.88071 8.88071 7 7.5 7C6.11929 7 5 5.88071 5 4.5Z" fill="#7D6F4B"/>
</svg>
