<svg xmlns="http://www.w3.org/2000/svg" xmlns:xlink="http://www.w3.org/1999/xlink" width="415" height="328" viewBox="0 0 415 328">
    <defs>
        <path id="a" d="M0 0h415v328H0z"/>
    </defs>
    <g fill="none" fill-rule="evenodd">
        <mask id="b" fill="#fff">
            <use xlink:href="#a"/>
        </mask>
        <use fill="#F8FAFA" xlink:href="#a"/>
        <g fill="#FFF" mask="url(#b)">
            <path d="M386.641 62.89c-1.195-1.024-1.738-4.415-3.397-3.754-.625 1.356 1.604 5.015 3.397 3.755zm-13.584-12.18c1.202-.644 1.484-1.528 1.35-2.528.605-.34.913 1.16 1.396 1.573-3.374.933.648 4.336 2.19 6.83-2.913 1.384-4.702-3.543-4.936-5.874zm17.994 33.657c.367-2.938-.501-6.132 1.63-8.704 1.36 4.366 2.231 8.38 1.879 12.862-.676.493-1.342.934-1.89.828.465 8-4.058 14.957-4.188 22.834-1.823.839-1.994 2.026-2.864 3.068.22 1.023 1.046 2.173 1.27 3.197-2.998 1.245-3.88 4.83-3.12 7.657-1.597 1.54-1.483 3.44-3.267 4.937-.709 5.964-1.018 12.01-6.356 17-.43 6.267-5.29 11.606-4.403 18.145-4.211 3.437-1.438 8.34-3.374 12.251-7.453 9.519-7.463 20.6-11.538 30.828.486.884 1.675.28 1.388 1.51-.575 1.708-1.663 2.238-3.517 2.686-.54 2.66 1.282 5.81 1.095 8.542-1.049.717-1.372-1.956-2.422-1.24-1.335 1.349-1.626 2.917-.073 4.872-1.604 1.621-1.257 3.648-1.68 5.515-.88.68-1.316-.705-2.157-.206-.276 1.163 1.114 2.677 1.351 3.948-2.615 4.668-6.496 9.069-5.566 14.481-.448.202-.648-.779-1.12-.48-3.043 5.31-1.377 11.607-5.79 16.632.518 1.82-.524 3.313 1.05 5.352-3.545 5.614-4.261 11.817-5.338 17.949-3.995 4.216-6.133 8.82-3.592 14.405-2.664 3.352-1.847 9.075-7.919 8.36.482-.874-.307-2.02-.335-3 5.413-5.795 1.007-13.644 5.457-19.636.53-.566.756.277 1.22.008.38-6.601 1.89-12.966 4.603-19.077-2.063-18.603 13.387-33.537 16.158-51.128-.266-1.687-1.37-3.546-1.331-5.167 4.57-.305 2.243-5.302 1.529-8.237 9.311-15.974 11.673-33.407 20.926-49.392.433-.806-.447-1.887-.619-2.82 1.565-2.036 2.612-4.177 1.698-6.732.804-.717 1.244.272 1.973-.073.606-8.023 5.268-15.196 6.916-23 5.728-12.652 7.848-26.059 12.316-38.975zm-6.688-19.937c-.5.696 1.228 2.293 1.992 1.585-.659-.563-.98-2.697-1.992-1.585zm-69.18 235.818c-2.068 7.64-1.355 15.866-8.965 22.343.302-4.832-.852-9.968 3.02-14.05-2.495-5.99 3.065-10.285 1.261-16.13.822-1.377 1.56-2.773 2.596-4.106.612-2.807.49-5.768.874-8.625.61.12 1.287-.319 1.424-.925 1.184-5.705 1.517-11.59 4.373-16.945-.63-4.292.575-8.202 2.803-11.89-2.657-7.167-.407-13.303 1.966-19.41.439-.886.174-1.922.134-2.908 3.003-12.34 13.164-23.174 14.326-35.9 4.168-6.628 6.804-13.582 12.129-19.963 4.687-15.902 13.02-31.034 14.397-47.633 2.182-4.517 3.876-9.138 5.178-13.838.695-.946.813.773 1.507-.173 2.475-10.9 8.23-21.111 8.92-32.386.485-.37.823-.042 1.321-.456-.003-3.183.073-6.347 1.726-9.181 2.27 3.672 3.249 9.156-.454 12.384-.652 5.33-2.106 10.488-1.262 16.132-.61.525-.777 1.141-1.809 1.577-1.571 9.378-7.206 17.898-7.159 27.617-4.269 5.233-5.646 13.157-7.422 19.73-1.087.877-1.757-.187-2.932 1.098.152 1.122.826 1.787 1.957 1.145-2.69 4.574-2.847 9.681-6.684 14.014.583 4.447-.946 8.444-3.836 12.162-.692.167-.958-1.628-1.674-1.331-.181 1.295 1.674 2.791 2.392 3.683-2.458 2.344-4.534 4.323-4.137 6.718-.738.783-1.054-.424-1.792.359-.914 1.519.088 3.443-.354 5.063-.84.862-1.405.465-2.074.542-.651.763.793 1.964.619 2.825-2.463 1.927-1.577 4.56-3.388 6.628.088.952 1.704.155 1.024.949-2.14 3.856-3.61 7.703-6.635 10.353-.922 7.715-10.635 13.588-8.863 21.873-1.693.95-2.185 2.152-2.68 3.35 2.575 3.808-1.277 6.259-.607 9.663 9.145-8.438 5.52-22.983 16.235-31.092.067 6.214-1.21 12.147-4.293 17.695-.082 3.169-.121 7.364-3.886 8.974-1.818 6.062-8.297 11.144-8.428 17.559l-1.708 1.11c2.86 6.722-3.942 11.41-1.665 18.006-4.016 7.475-2.34 16.148-7.474 23.39zm95.285-189.832c1.614-.819 1.031-2.107.151-3.457-1.593.824-1.277 2.053-.151 3.457zm-15.346 12.132c-2.907-9.445 4.159-16.768 4.918-25.432 8.038 1.068-3.738 10.15 2.267 14.699-.531.866-.19 1.92-1.537 2.614-1.546-1.628.126-3.627-1.265-4.436-1.767 1.178.277 3.166.696 4.805-4.486 10.325-8.438 20.762-11.107 31.471l-1.99 1.292c-4.213 11.622-9.336 24.314-12.657 35.311 1.025 4.22-2.39 7.5 1.074 12.24-.408.81-.201 1.755-1.723 2.327-.327-.758-.92-.28-1.207-1.236-1.008-1.111 1.086-1.564.785-2.529-1.988.399-3.349 3.043-2.505 4.861.483 1.25 2.825-.315 2.428 1.25-6.284 4.253-2.753 11.793-8.184 15.422-.548.78-.179 1.758.626 2.83-2.078 3.318-.917 7.32-1.359 10.986-4.359 4.142-4.848 9.105-4.967 14.144-.889 1.092-1.225-.378-1.977.071-3.035 3.693-1.365 9.667-5.324 12.35-.154.621.52 1.419 1.006 2.176-.401 1.304-.88 2.592-2.02 3.738.464 7.37-6.009 13.268-4.674 20.826-1.656 3.405-1.992 7.09-3.232 10.59l-1.707 1.108c.553 3.219-2.066 5.77-4.238 8.413 3.315-11.798 1.463-24.693 7.864-35.834-.76-.98-1.155-1.88-1.379-2.745 3.619-5.608 5.846-11.506 4.832-18.094.805-.716 1.392-.401 1.978-.07.267-4.194 1.283-8.224 5.408-11.599-.506-1.986-.751-3.919 1.38-5.345.29-1.327-.293-2.842.145-4.136 2.89-4.862 3.255-10.258 5.453-15.267-.77-.735-.383-1.225-.824-1.89 1.818-5.66 5.561-10.913 6.04-16.857l1.137-.738c4.655-18.543 9.106-37.125 19.194-54.512.33-.583-.128-1.334-.07-1.975.738-.78 1.052.423 1.788-.356-1.716-3.84.9-10.257 4.927-10.473zM365.13 43.475c-1.698-1.737-4.663-3.226-5.249-6.13.937-.437 1.723-.308 2.358.38 1.082.653-.903.814-.369 1.385 1.575.094 4.568 2.029 4.15 3.788l-.89.577zm-67.823 282.878c-4.207 2.234-4.369 6.079-8.052 6.838.372-2.933.566-5.901 3.476-8.295.237-3.777-.25-7.704 3.51-10.734-.027-7.167 1.244-14.06 2.98-20.854-1.139-2.276-1.123-4.306.545-5.99 1.883-6.681 2.46-13.637 5.968-19.976-.239-2.654.523-5.1 2.528-7.277.6-14.117 6.311-27.147 9.416-40.73 4.273-14.884 11.202-29.209 18.073-43.538.816-.761 1.447-.664 2.168-1.006 6.167-9.275 6.48-19.787 12.085-29.18.124-.87-.539-1.904-.62-2.817 3.05-2.042 3.603-6.092 1.404-7.76 6.358-3.688-.059-12.45 6.75-14.44.337-2.533-.43-5.3.189-7.773 2.2-2.542 4.644-5.039 4.413-8.097.616-.232 1.107.145 1.782-.356 1.64-12.35 11.233-23.011 7.77-36.446.191-1 .9-.38 1.699-1.103-1.287-3.12-1.955-6.11 1.513-8.224 1.197.285 2.154 1.878 2.022 3.113-1.275 8.277 1.464 17.404-3.127 24.977-.734 1.878-.33 3.999-.544 5.987-4.733 5.279-4.755 13.633-10.272 19.554-1.078 11.735-6.722 22.5-7.558 34.288-.983.443-.665 1.164-1.8 1.571-.788.815.066 1.968.337 3.005-.92.882-1.528.307-2.451 1.19 1.568 3.344-3.78 5.218-1.142 8.79-.58.842-1.261 1.284-2.268 1.472-.696 1.482.327 3.326-.06 4.874-4.442 3.227-5.63 9.359-9.147 11.976-.484 1.688.2 3.62-.163 5.339-5.23 6.209-7.284 12.99-8.306 19.48-8.98 13.804-9.587 29.386-14.984 43.947.839 1.48.67 2.746 1.074 4.137-.806.716-1.333.136-2.17 1.004-4.604 18.394-9.018 36.827-11.85 55.599-1.23.702-1.041 1.327-2.268 1.473.58 4.679-.893 8.925-3.726 12.88-.511.87.86 2.134.806 3.102zm112.557-207c1.092-1.507 1.14-3.245-.814-5.434-1.625 1.255-1.53 4.792.814 5.434zm-51.928-55.5c5.666-5.183-.73-14.755 4.322-18.512.992 2.166 2.376 4.414 3.946 6.7-2.632 6.663 2.087 14.834-2.198 21.16-.177 1.19.566 2.57.872 3.862-1.59 1.802-2.662 3.711-1.343 6.109-4.36 8.68-2.349 18.67-7.701 27.151-3.906-3.763-2.015-8.423.126-11.759.59-6.676.945-13.396 1.7-20.035 3.56-2.33 3.574-9.335.276-14.675zm46.405 58.079c1.336-.536 2.12-1.925 2.84-1.845.763.978 1.157 1.878 1.379 2.744-1.455 1.812-1.907 3.837-1.296 6.091-3.924.75-1.233 6.174-5.923 8.292-1.615 8.248-2.686 18.594-10.247 24.025-.684 1.164.028 2.62-.328 3.849-5.803 9.951-3.58 21.61-9.397 31.556.284 2.837.023 5.555.65 8.467-4.1 7.4-4.867 17.555-7.266 26.127-6.278 8.788-7.961 18.553-8.515 28.56-4.131 6.14-7.183 12.514-8.968 19.155-.784.235-1.372-.452-2.16-.213 2.298 5.88-3.69 11.285-6.665 15.236.664-3.778-.169-7.875 3.326-11.049.25-1.747-1.82.026-2.328-1.72.12-1.364 1.166-1.257 2.275-1.477 3.128-12.558 12.663-23.756 10.876-37.363 1-.867 1.637-.034 2.543-.438.546-1.084-.415-.969-1.01-2.172.125-.545.796-.972 1.519-1.394 6.44-13.16 7.674-27.431 13.55-40.71-.732-2.198-.326-4.151-.398-6.21 2.548-1.826 1.705-4.372 3.55-6.347-4.111-7.324 3.151-12.227 2.296-18.858.908-.81 1.352.552 2.26-.257 1.409-7.138 6.001-12.099 6.808-19.37.747-.44 1.457-.72 2.073-.536.02-4.079 2.039-7.73 4.832-11.219-.071-3.48.69-7.692 3.78-9.728.923-.865-.45-2.218-.056-3.196zM313.983 16.323c-.395-1.393 2.486.18 3.38.224.806-.4.349-1.068.113-1.69 3.897.528 5.417 7.297 10.075 5.549 1.233 3.378 3.337 2.697 5.218 3.059 1.187 1.392.335 2.354.704 3.571 9.233 9.22 6.847 22.337 15.078 31.313 2.768-6.593-2.37-14.853-.27-21.585-.862-1.688-1.96-2.293-2.963-3.312-.33.337.225.86.452 1.317-3.926-2.23-1.392-6.854-2.497-10.068 4.983 4.743 4.19 8.734 9.039 12.67.348 4.313 1.356 8.765 2.545 13.256-2.3 1.635-.782 4.074-.368 6.284-6.913 3.84-1.09 10.366-3.491 15.161l1.472 2.268c-.604 1.993-1.163 3.996-1.772 5.987.858 1.195 2.083 1.94 2.208 3.4-4.035 7.956-2.943 16.993-4.949 25.374 1.75 3.493-.032 6.332 2.413 9.317-6.226 7.33-1.808 16.904-8.598 24.117-.498 1.038 1.904.764 1.289 1.984-1.34 4.853-4.135 9.4-3.86 14.595-3.874 4.89-7.514 9.834-7.725 15.496-1.397 1.817-2.478 2.63-3.814 4.087-.927-1.005-2.033-1.173-2.976-2.096 10.284-18.87 15.078-38.894 17.149-59.496.459-.634.496-1.362 1.624-1.857-.485-1.081-.219-2.003-.804-3.104 4.656-6.03-1.72-14.387 2.907-20.424-.52-1.089-.43-2.049-1.272-3.206.466-10.259 2.635-21.451-5.008-32.612-1.206-5.054-4.383-11.571-4.185-17.026-4.623-9.835-12.455-17.565-20.577-20.483-.443-.746-.716-1.455-.537-2.07zm98.6 121.534c-.367-.828.455-2.869-.957-2.955.227.802-.123 2.923.957 2.955zm-9.203 25.89c-3.228-7.186 3.007-16.687 6.493-24.13 1.076.238 1.977 2.54 2.227 3.43-.822 1.122-1.062-.425-1.815.366.208 2.7.397 6.6-.164 9.859l-2.598 1.687c-.094 1.919.945 5.257-2.472 5.673-.419.91.074 3.3-1.67 3.115zm8.955 6.445c1.758-.788.562-4.335.64-6.358-.574 2.03-1.644 3.936-.64 6.358zM262.928 339.03c2.14 4.797-1.234 9.229-3.703 11.694-1.428-.54-.704-2.32.411-3.096-.458-1.4-3.413-3.337-1.08-4.145-3.13-1.81-.865-4.317-1.235-6.874.929-.914 1.582-.537 2.454-1.19.062-8.064 2.392-15.65 6.554-22.84-.948-10.077 6.514-18.36 6.241-28.293 2.026-2.75 2.347-5.865 4.98-8.485.144-1.113-.468-2.385-.24-3.479 4.283-14.672 14.761-28.027 14.866-43.589 6.381-13.086 7.808-27.223 16.05-39.909 1.024-.984 1.736-.513 2.735-1.379 4.52-11.522 10.704-22.689 12.045-34.887 9.946-19.016 9.096-40.333 10.751-61.118l-1.66-2.557c1.946-3.58 1.174-7.744-.144-12.024-.287-2.268.614-4.275 1.106-6.377-4.709-11.156-8.7-22.961-15.487-33.167-1.08-.687-2.154-1.39-3.264-1.919-1.441-6.425-6.434-7.906-9.995-12.903-5.366-2.19-9.915-5.73-15.085-10.805 1.815-1.248 3.07.138 4.795-.69 10.617 5.94 22.508 13.53 30.615 24.153.136.598-.552 1.024-.58 1.588 9.614 14.035 13.864 28.413 14.735 41.332l1.66 2.557c-1.711 4.289 1.515 9.627-2.128 13.502.526 1.092.436 2.05 1.28 3.21-.41 11.173-3.347 21.809-2.637 33.223-2.207 1.813-.82 4.394-3.261 6.16.217 6.492-2.058 12.454-5.563 18.155.47 3.013-1.085 9.689-3.6 11.226.491.678.932 1.343.822 1.89-4.146 4.666-5.45 9.936-9.465 14.629-.193.857.281 1.856.625 2.825-1.632 2.675-6.706 4.609-4.882 8.02-4.156 4.663-5.599 9.904-6.185 15.33-3.42 3.428-3.723 7.528-3.703 11.696-5.039 11.41-5.435 23.808-12.983 34.686-.248 1.498.052 3.114.23 4.703-.46.718-1.595 1.292-1.903 2.04 1.18 3.763.607 7.147-3.772 9.72 1.128 7.18-6.662 12.455-4.456 19.863-1.09.584-1.815 1.245-2.37 1.943 1.236 7.934-7.984 13.642-5.133 21.92-2.57 2.388-1.577 5.538-4.13 7.931.043 1.072 1.299 2.398.993 3.395-.364.82-.902 1.604-2.184 2.228-.189 3.55-.136 7.152-3.12 10.107zM402.16 187.35c-1.079-5.473 3.703-9.678 7.373-14.127l.37.569c-2.674 12.196-10.314 23.32-13.303 35.447.053-.637-.14-.935-.741-1.142-6.773 11.718-9.485 23.566-15.18 35.038-1.014 7.15-1.16 14.491-7.241 20.546-.226.685.956 1.68.73 2.366-2.362 2.381-2.311 3.993-5.973 5.096-.827-2.061-.91-3.964 1.365-5.353 4.408-11.986 6.294-24.515 11.056-36.423.957-.764 1.084-1.324 2.269-1.473 2.11-5.031 3.309-10.259 3.999-15.594 4.681-3.985 5.503-8.804 9.334-12.966l-1.3-2.003c2.191-3.4 4.477-7.446 7.242-9.98zm-4.637-8.356c-.96 1.033-1.548.384-2.25.268-2.662 9.418-3.62 19.183-10.278 27.782-.426-9.563 6.976-19.629 6.386-30.035.94-.59 1.605.089 2.641-.917.99-1.174-.434-2.842-.297-4.192 2.668-.94 5.039-4.544 4.364-7.612 1.56-.556 1.906-2.161 3.13-2.032 1.972 3.32.896 6.015 2.351 9.227-1.377.336-2.14-2.084-3.63-1.23-1.512 2.773-3.9 5.36-2.417 8.74zm5.16 33.256c4.265-6.406 7.177-13.04 8.017-20.706-3.234 6.989-8.274 12.651-8.016 20.706zM273.676 16.713c-2.39-1.616-1.807-2.894-2.564-5.185 1.503.091 4.072.403 4.38 2.395 3.34-2.296 5.228 2.237 8.237 1.503 2.725 4.2 7.82 6.792 11.408 10.732.535 1.01-.723 1.642-.314 2.624 2.081.95 4.111 2.127 6.151 3.264 1.229 1.483 1.503 2.763 1.36 3.953 23.561 26.425 28.583 59.453 21.488 84.013 3.322 8.45-4.374 14.56-3.558 22.47-.806.713-1.248-.274-1.973.073 2.262 4.714-.287 8.41-3.056 12.06-3.14 10.5-2.756 23.047-10.427 31.77-1.742-6.485 3.082-11.572 2.099-17.892 1.898-2.61 3.552-5.276 1.136-8.802 1.29-.486 1.586-.678 2.555-1.66 5.174-15.52 5.676-32.042 10.15-47.716-2.12-2.732-.175-4.599-1.411-7.141 5.164-9.582-3.8-22.16-2.602-32.58-1.523-1.95-2.18-3.721-1.816-5.274-3.077-2.82-1.76-6.47-4.005-9.894-3.639-2.2-5.502-9.412-9.522-11.56-.708-1.229 1.009-.414.582-1.586-1.915-3.55-5.4-3.415-5.354-7.004-6.747-6.217-13.371-13.01-20.223-18.716-.76-.64-1.868.354-2.72.153zM406.63 208.064c1.367-.676 1.076-1.707 1.147-2.662-1.346.681-1.806 1.555-1.147 2.662zM256.164 15.752c-1.747.45-.413 1.546-.502 2.343-1.542-.423-2.84-1.99-4.186-3.329 1.563-1.201 2.868-1.19 4.352-2.02 5.473 4.564 12.374 2.45 16.756 12.096 12.422 8.151 23.172 22.493 29.678 36.362.49 1.154 1.174 1.386 1.86 1.614-.983 3.466 2.725 7.917 2.66 11.575 5.925 7.436 5.028 14.228 6.197 21.374.425 2.6-.13 3.036-.166 5.35-.037 2.233 1.472 4.231 1.608 6.214.277 4.073-3.7 9.183-.386 14.36-2.14 7.707-5.427 15.17-4.081 23.614-.754.492-1.695.947-1.806 1.575-.064.886 1.025 2.01 1.087 2.919-5.754 6.785-4.93 14.954-7.262 22.458.25 1.546 1.402 1.137 1.473 2.269-3.475 3.588-1.279 8.377-2.425 12.458-.675.43-.52 1.035-1.523 1.395-6.71 21.264-11.72 42.886-21.919 63.419-.373 1.222.508 2.718.133 3.943-7.095 8.946-5.06 19.818-13.922 28.392.914 4.598-.528 8.702-4.118 12.347-.28 3.287-.068 6.674-3.229 9.355.19 5.915-2.142 11.298-5.488 16.464.028 7.102-.812 14.023-1.788 20.917-1.017.928-1.247 2.022-2.108 2.98-.068 1.755.546 3.081-.353 5.069-3.115.682-2.592 3.066-3.262 4.937-4.65-1.104-.76-5.337-2.896-8.197 7.233-8.307 3.38-17.617 4.782-26.892 2.912-1.506 1.263-3.976 4.118-5.496 3.607-17.35 8.803-34.367 17.705-50.598 3.63-13.433 15.573-25.112 13.887-39.662 6.975-11.662 5.888-25.025 14.874-36.265-2.305-6.281 1.637-11.24.52-17.269.92-.623.564-1.514 1.907-2.046-.387-10.196 4.186-19.348 4.349-29.43l1.707-1.11c-.056-5.965 2.05-11.477 2.962-17.242-3.462-5.87 2.578-9.735-1.293-15.691.579-.776 1.12-1.558 2.192-2.23l-1.84-2.835c1.166-7.914-3.057-16.962-2.48-24.999-2.095-2.408-4.202-4.761-6.296-7.2-.737-1.136.723-1.804.606-2.807-6.193-6.071-7.021-12.822-11.77-19.372-4.68-4.02-9.413-9.898-13.223-16.001-2.892-2.517-5.793-4.979-8.74-7.228-.928-1.173-1.346-2.24-1.274-3.206-2.475-1.014-4.684-3.282-7.077-4.674zm137.71 214.143c.034-2.542.74-4.945.228-7.6 4.007-2.46 2.709-7.233 6.978-8.845-.852 4.767-3.27 9.206-3.573 14.086l-3.633 2.36zM244.129 25.635c-.403-2.83-1.754-4.467-4.096-2.585-1.117-1.263-2.295-2.24-3.43-3.42 2.206-.814 3.88.905 6.19-.39.8.063 1.241 1.834 2.04 1.898 4.49-1.361 10.013 2.63 11.633 7.372 1.244 1.05 2.75.863 4.308.429 6.676 8.015 17.116 14.363 20.904 24.75 3.734 1.876 6.856 8.555 5.95 12.265 4.07 3.396 3.555 8.863 7.371 11.35-.719 5.222 4.613 11.741 2.345 16.63.964 1.185 1.235 2.221 1.742 3.308-.286 1.241-.986 2.397-1.26 3.64 2.267 4.882.2 8.843.132 13.227 3.12 5.147.711 9.113-.153 13.41l1.473 2.267c-.75.493-1.683.946-1.796 1.572-.083.963 1.25 2.226 1.276 3.208-.87 2.42-2.765 4.625-1.115 7.581-3.178 3.068-1.85 7.102-.876 11.056-.512.627-1.286 1.192-1.614 1.857 1.088 6.261-4.105 11.183-2.73 17.498-1.455 2.055-3.17 4.052-1.201 6.834-3.977 4.137-.636 8.328-2.49 12.913-.731-.78-1.431-1.7-2.226-2.185-1.04 20.866-13.928 39.705-17.446 59.333-8.192 8.433-5.166 19.264-12.501 27.883-2.429-7.12 2.022-12.768 1.44-19.49 7.057-13.485 11.46-27.535 14.72-41.828.95-.53.872-1.283 2.08-1.758 6.047-21.523 10.962-43.285 16.2-64.978-.643-1.194-1.525-1.243-2.124-2.65 3.746-6.207 2.088-13.569 4.256-20.11-1.591-8.813-.284-17.01-.46-25.52-2.824-6.71-2.719-12.8-3.067-18.985-10.614-11.852-6.192-28.603-20.862-36.467-.776-.982 1.454-1.317.026-2.438-1.072-1.545-1.484.924-2.72.154-4.112-6.135-9.46-7.965-12.318-13.383l-2.546 1.654c-1.964-1.715-3.644-3.381-4.806-6.157-.505-1.068-1.644.836-2.25.255zm150.756 207.653c1.283 2.01.797 3.466-.553 4.657-.19-1.344-.804-2.824-.9-4.142.52-.476.996-.577 1.453-.515zm-2.469 2.323c-.291 1.005-.77 1.97-.373 3.122 1.339-.604 1.764-2.902.373-3.122zM236.057 33.412c-3.877-4.336-8.41-5.466-12.771-7.445-.89-1.416-1.91-2.854-1.374-3.951 1.822-1.012 3.134.462 4.35 2.422 1.204.196 1.348-1.318 2.79-1.812 8.109 4.582 16.116 9.656 24.152 14.583 1.014.954-.279 1.397.732 2.347 3.58 1.054 6.169 6.976 9.99 6.832 3.629 4.96 15.034 10.07 14.304 17.75-6.767-2.038-12.564-8.26-18.598-10.924.247-3.996-4.088-3.684-4.978-7.665-6.48-2.666-11.834-10.857-18.597-12.137zm-.571 308.13c.77 9.065-5.477 16.636-6.594 25.303-1.272.603-2.395.519-3.479.237-1.198-8.83 3.587-16.389 4.052-24.864.985-.444.67-1.162 1.802-1.575-.215-1.19-.33-2.359-.71-3.583 1.956-1.219.893-3.078 2.4-4.389-3.065-8.021 2.562-13.366 3.057-20.176l1.42-.922c1.082-12.427 9.04-23.393 7.943-36.285 3.578-21.615 10.612-42.494 17.38-63.432 1.806-1.249 2.083-2.824 3.338-4.19 1.642-7.818.626-16.2 6.38-23.143.17-.782-.858-1.818-1.378-2.743.22-1.34.983-2.567 2.486-3.64.74-9.804 6.236-18.597 4.196-28.996.92-4.049 1.277-8.222 2.114-12.289-1.325-1.307-1.789-2.286-2.114-3.88.26-1.089 1.45-.055 2.458-1.192-3.596-10.24.415-18.857-1.733-28.79.32-1.076.891-2.098 1.165-3.183-2.911-7.154-2.239-13.543-5.394-20.75-2.602-6.477-10.207-12.34-10.499-18.651 14.695 1.987 18.603 22.807 22.813 34.506-.924.883-1.535.304-2.46 1.19 3.562 13.841 1.838 28.641.355 42.217l1.292 1.99c-.914 14.916-2.333 29.723-8.967 43.419-.33 9.569-5.143 18.18-6.339 27.56-.737.772-1.155.055-1.89.824-3.253 8.291-5.772 16.738-6.879 25.486-4.086 5.664-3.29 12.37-7.727 17.957-.739 7.845-2.06 15.569-1.123 23.773-1.606 2.679-3.105 5.38-1.607 8.72l-1.707 1.108c.333.764.923.28 1.21 1.237-7.357 9.786-5.454 21.546-11.836 31.535-.733 2.377-.712 4.913.569 7.716-3.28 3.552.64 8.634-3.994 11.894zm150.43-91.188c-1.116-1.404-.824-2.507.15-3.464.346.208.69.417 1.114.239.645 1.301-.018 2.325-1.265 3.225zM236.601 18.932c-.883-1.322-1.995-1.558-3.34-.71 1.034.612 2.273.245 3.34.71zm-32.868 334.775c1.341 7.789-6.21 13.694-5.065 21.442-2.25 2.378-.891 5.524-5.26 7.452-1.116-.508-2.07-1.769-2.964-3.32 1.682-2.254 2.246-4.744 3.939-6.998-2.22-9.035 6.829-15.682 3.606-24.935 2.375-3.737 3.487-7.744 2.596-12.177 9.258-7.42 4.13-17.884 12.07-25.585-1.082-1.207-.948-2.16-1.744-3.307 3.54-14.424 9.797-28.275 12.099-42.959 1.003-.357.851-.962 1.523-1.389.337-2.704 1.227-5.29 1.228-8.062 7.422-12.297 6.728-26.312 13.177-38.817 2.371-6.511 3.472-13.296 6.641-19.64.686-3.282.726-6.698 3.501-9.535.65-7.205 1.837-14.298 5.434-20.879-1.331-11.377 6.73-20.764 7.261-31.747 1.241-.631 1.646-1.445 2.187-2.226.932-2.254-.134-4.924.561-7.226 5.963-3.875-.682-10.424 2.913-14.801-.967-1.183-1.235-2.218-1.741-3.303 2.488-5.186-2.559-11.964-1.657-17.483-3.106-5.59-2.708-12.935-6.242-18.944-3.177-5.403-8.284-8.117-11.773-12.53-8.246-5.355-17.228-13.304-24.558-19.15-7.373-4.067-15.254-5.753-22.608-9.929 4.438-4.359 6.842.833 10.922-1.847 9.579 7.89 20.352 10.179 29.426 20.427 1.378 1.195 2.951 1.47 4.486 1.932.763.813.663 1.446 1.006 2.165 13.623 5.588 19.524 20.555 25.008 35.405-.485.631-.722 1.315-1.622 1.86 1.688 3.535 6.077 7.645 3.442 10.271 4.108 11.897 1.391 24.435-1.488 35.66l-2.558 1.66c-2.875 7.8-3.25 16.12-7.72 23.577.121 10.304-1.889 20.154-4.887 29.801-1.061.51-1.522 1.145-2.093 1.76-.484 1.773-.903 3.561-.445 5.534-2.076 1.111-1.334 2.816-2.59 4.1.004.982.508 2.068.34 3.01-5.95 10.163-7.435 21.267-12.147 31.693-2.406 11.564-8.962 22.25-8.327 34.456-3.626 2.168-1.853 5.483-4.14 7.934.966 1.186 1.236 2.22 1.742 3.305-1.787 2.722-1.573 5.867-4.708 8.303-.545 3.72-1.527 7.347-3.519 10.755-.393 1.877-.077 3.904.207 5.921-1.058 1.406-1.551 2.933-1 4.683-6.722 8.456-2.317 20.542-11.532 27.66.106 5.571-.43 11.003-2.927 16.023zm75.105-26.616c-1.033 1.408 1.454 3.557.869 5.064-2.549 2.716-.864 6.324-5.272 8.648-2.453-1.332-1.005-3.394-3.772-5.187.592-1.26 3.35-2.06 3.888-3.329.14-1.23-1.639-.797-2.22-2.178.506-1.003 1.59-2.157 2.934-2.307 1.732-2.482-.106-5.719.584-8.42 4.005-2.196 1.37-7.162 5.106-10.15-.148-1.168-.32-2.345-.702-3.563 3.003-9.127 6.623-18.123 5.07-28.215 8.41-14.658 12.481-30.23 18.05-45.487.545-16.805 9.438-31.85 17.88-46.988-.03-2.124 1.408-5.23 4.672-5.849 1.417.477 1.058 2.212 1.269 3.199-7.036 11.854-9.368 24.704-15.682 36.71-.248 1.087.218 2.328.235 3.465-2.276 1.148-1.118 3.019-3.803 4.08 2.173 9.569-5.35 17.094-4.202 26.45-8.05 10.825-8.787 23.2-13.313 34.77 1.38 9.404-7.724 16.594-5.134 26.25-1.124.82-.397 2.032-1.818 2.79-.558.533.966 1.506.533 2.066-1.439 1.16-2.174 2.467-4.173 3.51 2.205 2.377 2.084 3.481 2.441 6.86-2.443.61-1.236-2.263-3.44-2.19zM255.305 79.025c1.953-4.269-3.221-17.178-9.803-15.096-.86 5.384 5.821 11.376 9.803 15.096zM234.56 54.343c-1.842-2.85-3.773-5.197-6.297-4.257 1.042 2.096 4.025 4.513 6.297 4.257zm-48.262 314.963c-.018.973.728 2.107.806 3.104-2.496 5.832-7.016 11.686-12.045 16.28-1.36-2.327 2.493-5.665-1.66-9.398.58-2.464 3.025-2.678 4.917-2.385.56-.612-1.178-1.715-.721-2.352 7.151-11.2 5.904-24.173 9.21-36.19 3.644-2.734 2.077-6.57 4.256-9.613.2-1.403-.935-1.63-.623-2.818.983-.851 1.001-1.908 2.29-2.694.283-2.223.683-4.42.465-6.75.876-.626.834-1.451 1.906-2.04-.64-8.527 6.466-15.42 7.257-23.647 8.875-16.622 9.726-34.941 18.611-51.562.507-12.6 6.434-24.061 11.08-35.79-.613-2.332.356-4.325.181-6.565 7.015-11.8 6.778-25.132 10.73-37.582-.915-1.169-.136-1.981-.804-3.103 8.135-12.703 10.699-26.585 10.025-41.148 3.34-8.662 2.821-21.794-5.697-30.539-.612-1.026-.01-1.795-.62-2.822-6.858-4.923-11.52-20.087-19.649-19.061-1.416-2.537-3.386-2.474-5.216-3.057-4.586-7.92-10.87-7.879-16.368-11.528-.136-.923-1.127-2.028-.151-2.718-1.108-.918-2.404-.953-3.545-1.726-3.628-8.197-9.292-6.882-14.743-6.537-1.2-1.527-3.812-1.636-4.183-3.329 2.932-2.922 6.479.89 9.862-.36 1.98.652 3.874 1.701 5.986 1.754 6.637 2.51 12.432 8.963 18.488 14.171 6.762 1.942 12.975 6.446 19.396 9.964 1.246 3.305 5.059 6.264 5.034 9.62 1.594 1.745 3.014 2.824 3.311 5.099 4.163 4.555 8.498 8.314 12.392 14.107 4.661 11.04 2.947 19.777 2.791 30.413-.134 9.22-1.236 17.065-4.652 25.175-1.114 1.102-1.745 1.035-2.373 1.94-1.447 3.688-1.337 7.707-1.281 11.71-1.092.586-1.819 1.247-2.37 1.942-3.175 9.845-3.84 20.217-7.625 29.928 1.328 9.162-5.483 16.603-6.624 25.245l-1.702 1.106c-.859 2.428-1.771 4.844-1.602 7.487-3.696 3.698-3.711 8.18-2.985 12.813-4.572 11.99-9.204 23.969-11.463 36.448-1.248.633-1.654 1.444-2.188 2.226-.276 7.684-2.049 15.052-6.86 21.774-1.892 8.076-4.122 16.08-8.949 23.533 2.648 6.182-3.673 10.473-2.747 16.289-8.47 9.945-2.643 22.909-9.548 33.186zm36.38-322.747c-.707-5.843-7.362-6.961-11.278-8.177 2.234 5.559 7.14 8.12 11.277 8.177zm143.367 228.614c-.869-1.6-.839-2.871.48-3.666.393.13.75.828 1.162.686-.047 1.18-.325 2.275-1.642 2.98zM234.221 80.441c-2.502-1.039-12.49-11.939-8.806-14.197 4.196-2.57 13.446 16.027 16.813 20.79 4.356 12.55 10.889 26.863 5.088 36.528-.897-14.373-6.706-28.705-13.095-43.12zm-14.756 266.782c.376 7.908-2.407 15.154-4.825 22.481-3.058 2.477-5.759 3.972-7.53 7.71-.65-.402-1.313-.744-1.963-1.145 1.206-7.006 7.569-12.929 6.582-20.399.726-.414 1.402-.847 1.524-1.392-1.203-6.776 4.305-12.144 3.552-18.83 3.168-3.819 3.972-8.136 2.53-12.927 3.371-11.526 5.468-23.324 11.286-34.335-.709-6.676 4.556-12.09 3.55-18.832 2.092-4.045 3.639-8.204 3.47-12.728.877-.633.833-1.458 1.907-2.047 2.71-20.637 11.452-40.01 17.285-59.992 1.183-.486.904-1.278 2.091-1.764.024-.808-.78-1.795-.905-2.633 3.696-10.889 8.206-21.61 7.421-33.438 5.339-6.3 1.352-14.562 6.68-20.865.41-.377.667-.051 1.039-.272 3.888 6.781-2.695 13.46.65 20.94-1.843 3.204-1.94 6.77-1.742 10.401-6.555 6.778-2.78 15.73-8.305 22.726-.089 4.958-1.474 9.644-2.364 14.435-4.441 1.968-3.61 6.59-3.43 10.287-7.187 13.252-11.81 27.048-12.143 41.742-3.694 2.976-.903 7.311-5.123 10.178.706 16.87-8.505 31.657-11.475 47.754-2.55 2.567-2.192 5.738-4.253 8.405 1.68 5.249-.03 9.782-2.545 14.15 1.301 3.942-.63 7.21-2.964 10.39zm5.32-282.227c-.958.84-1.7.685-2.227-.475l1.349-.876.877 1.351zm-51.363 294.655c-.91 2.958.202 4.898.447 8.166-7.212 6.071-3.902 14.357-11.01 20.448-2.758-10.693 6.403-18.883 3.901-29.526 3.075-1.39 1.963-3.665 4.301-5.214-2.318-9.216 3.181-16.79 6.095-24.904 2.28-11.267 7.22-21.979 9.591-33.224 8.246-9.689 7.363-21.296 15.022-31.109.3-3.28.99-6.479.89-9.844 1.06-.512 1.521-1.151 2.092-1.765 5.128-21.437 16.028-41.66 18.114-63.738 3.711-4.687 2.621-10.38 5.484-15.244-.571-13.581 4.398-25.997 8.075-38.682.861-11.157-.318-22.746-4.485-34.96.557-3.254-2.948-10.068-6.51-11.89-3.15-6.819-7.196-15.32-13.368-18.717-2.29-4.539-6.316-5.814-8.149-8.808-10.833-3.163-20.396-12.245-30.58-18.415-5.21-.856-10.87.42-15.37-3.72 5.44-.348 9.842.623 14.97-1.26 2.23 2.157 5.03 1.672 7.18 4.202 6.957.057 16.787 11.062 24.556 12.253 3.314 4.34 7.162 6.199 10.78 9.117 8.621 11.825 20.785 28.451 23.084 43.029 5.31 5.93 7.501 15.389 3.453 21.526 2.3 8.23-4.204 14.617-1.735 22.884-4.663 2.571-.896 8.04-2.332 11.992-6.818 2.779-1.43 11.784-6.255 16.552-.367 1.061.933 2.478.702 3.572-2.686 2.207-1.252 5.285-4.057 7.468.64 4.945-1.232 9.367-3.205 13.766 2.17 5.349-.174 9.752-3.489 13.95.548 7.211-5.76 12.984-5.083 20.225-4.587 7.028-5.104 14.912-9.623 21.962a12.497 12.497 0 0 1 1.17 3.668c-.736 4.821-6.24 8.642-5.65 13.744-5.06 9.702-7.55 19.947-10.394 30.12-3.252 6.41-7.166 12.685-6.49 19.925-2.643 2.382-.884 5.689-4.157 7.937-.674 3.856-1.924 7.588-4.107 11.126-1.586 4.4 1.595 9.8-3.858 13.388zm22.22-314.614c2.024-3.226-2.756-5.364-5.593-3.522-.158 2.85 3.184 4.727 5.593 3.522zm52.147 79.41c-1.074.958-2.173 3.972-.558 6.324 1.835-1.612 2.242-4.71.558-6.324zm-14.39 10.806c-2.848 2.981 1.123 7.414-3.119 10.103-4.323-7.94-1.098-14.265-4.623-22.027 2.94-5.952-1.91-15.992-5.19-21.653-.325-1.46 1.007-2.562.613-4.03-5.317-9.257-12.743-18.275-20.016-22.125-2.753-4.836-7.787-8.537-12.182-9.445-1.398-3.783-3.925-2.26-5.378-5.794-10.79-6.015-21.763-11.186-32.852-15.8 5.583-4.369 10.835 2.709 16.597 1.332 12.254 3.75 22.76 15.72 34.868 20.148 8.216 8.318 17.927 18.061 26.182 32.24.078 1.075-1.18 1.869-.88 2.995 3.272 10.234 8.088 20.803 4.72 29.628.715 1.54-.405 2.687 1.26 4.428zm13.303-1.621c-1.355.18-1.585 2.552-.943 4.057 1.306-1.099 1.788-2.408.943-4.057zm-37.842 91.9c3.675 5.668-5.689 8.562-3.45 13.924-5.885 2.872-2.267 9.737-6.824 13.696-1.18 3.9-1.878 7.906-3.706 11.67.1 1.082.746 2.278.524 3.288-4.39 2.848-2.224 9.304-6.412 10.609-.13 4.656-2.851 11.22-5.603 13.71 2.006 6.208-5.116 10.476-4.232 16.446-1.109.777-2.793.186-3.302 1.74-.072.962.472 2.053 1.272 3.203-4.376 7.077-5.355 16.919-11.077 24.518-1.118 14.5-7.47 27.89-11.108 41.855.272.788.434 1.556 1.19 2.45-2.015 1.933-.807 4.552-3.545 6.333-2.453-4.05-5.004-10.969-.474-15.004-.677-1.612-1.767-6.016 1.677-6.727-.804-1.964-.625-3.715-.31-5.442 5.365-8.223 2.622-18.167 7.825-26.427-1.33-1.298-1.242-1.764-1.273-3.204 1.535-1.33 2.884-1.38 4.633-3.41-.215-2.408.503-4.616.742-6.928 7.437-10.473 6.743-22.67 14.373-33.1-.093-5.64 3.77-9.68 5.801-14.646 4.387-10.733 6.013-23.021 13.152-33.118-.369-1.136-.89-2.305-.988-3.386 2.933-3.121 2.544-6.95 2.756-10.65 9.866-14.76 8.545-31.895 15.2-47.34-1.918-4.069-1.055-7.552 2.007-10.564-.02-22.525 3.932-46.843-9.083-69.836-6.743-8.116-13.85-16.316-21.466-23.126-8.627-6.144-17.003-13.463-25.63-19.607 13.348-.74 23.146 15.205 35.377 19.723 4.382 9.898 15.917 10.829 15.119 20.802 6.956 6.46 7.477 17.195 11.689 25.443-.288 8.648.708 17.576 2.858 26.743-1.943 7.077-.93 14.786-4.573 21.501 2.4 4.012-.033 6.996 1.837 10.893-7.063 4.38-3.33 13.125-8.388 18.74-1.134 4.398-.617 9.15-3.068 13.274.563 4.352-1.334 8.185-3.52 11.954zm-66.139 150.17c1.176 6.86-4.493 12.277-7.114 18.337-1.089-2.108-.66-3.896-.956-5.833.492-.633.723-1.318 1.624-1.864.663-5.98-.362-12.32 3.061-17.72-.048-6.816.29-14.472 4.685-19.58.367-4.902 3.414-9.236 3.296-14.242 9.25-7.874 6.242-20.372 13.66-29.441 11.572-31.433 24.476-62.588 34.192-94.41.298-1.651.272-3.373-.118-5.167.37-1.555 1.648-2.917 2.41-4.39.343-1.48-.111-3.127-.218-4.7 2.746-2.442 1.305-7.662 5.693-10.55.455-7.09 1.316-14.091 4.413-20.62-1.154-7.999.096-15.49 1.724-22.898-1.754-7.31-4.023-14.725-3.472-21.547-3.946-9.38-8.421-23.64-18.408-29.595-.103-.754-.15-1.5-.251-2.255-1.313-1.124-2.723-1.79-4.306-1.646-.78-1.14-1.566-2.285-1.74-3.302-8.857-6.05-14.695-17.317-24.336-22.517-1.01-1.031-.317-1.701-.906-2.642-6.96-3.359-15.827-3.877-22.006-7.088.681-1.125 2.391.272 2.848-1.85 8.473-.657 16.325 1.584 23.414 7.39.936 1.01.775 1.793 1.372 2.735 3.74 2.748 6.835 8.5 11.171 8.477 5.224 3.45 9.38 11.884 15.156 12.746 2.78 4.565 5.758 8.188 9.079 10.24.461 4.265 6.533 6.748 5.595 10.483 10.966 8.087 7.85 24.233 12.214 35.636-.447 1.62-1.32 3.152-1.289 4.873 5.423 6.385-2.653 11.166 1.376 16.45-4.39 9.413-1.793 21.422-8.768 29.492.22.864.614 1.763 1.373 2.741-2.326 4.893-1.7 10.415-2.843 15.563-.222 1.13-.807-.08-1.61.637-5.022 14.042-5.864 28.965-14.207 42.307-.516 1.036-.46 2.187.236 3.476-8.835 9.973-6.439 22.314-15.016 32.34-3.6 10.912-6.407 21.995-13.038 32.268.41 8.167-8.12 14.448-6.14 22.946-9.63 10.378-4.944 23.77-11.85 34.72zm-10.208-15.424c3.273 10.973-4.906 19.537-5.382 29.727-1.456.012-3.567 1.11-5.006 1.635-.353-2.524 2.145-4.447.564-7.23 2.167-4.195 1.773-8.936 4.972-12.912-1.105-2.52-1.253-4.834-.941-7.058-.362-1.36-1.315.03-1.676-1.33 2.284-2.374 1.994-4.86 5.275-7.46-1.634-4.59-.705-8.64 2.607-12.187.318-4.389-.106-10.082 5.624-12.53-1.046-3.88 2.867-6.64 1.638-9.94 2.642-2.055 3.758-4.434 1.607-7.5 4.416-6.66 5.086-14.112 11.933-20.258.733-1.562.055-3.418-.588-5.268 9.646-14.375 11.842-30.32 21.575-44.68.18-7.388 3.449-14.132 6.206-20.977.88-4.142.449-8.56 3.828-12.174-.15-2.643.192-5.187 1.608-7.5-.556-1.014-.167-1.832-1.09-2.923 4.817-8.89 7.373-18.234 8.18-27.91.327-3.946 3.361-8.064 3.647-12.456.319-4.918-1.1-10.188-.273-14.754 1.278-7.054-1.702-23.612-6.627-32.015-1.363-2.33-3.845-3.926-3.485-6.615-4.278-5.612-10.524-8.042-13.822-14.427-5.065-1.573-8.181-7.831-10.823-13.553-1.252.112-2.46.049-3.568-.508-13.453-13.105-31.357-11.502-45.377-18.15 5.678-4.503 13.27 1.184 20.047-.91 12.087 2.825 22.529 8.855 32.967 17.735.948 1.262.142 2.152.519 3.295 8.03 7.923 18.857 14.578 23.857 23.648 3.44 1.734 8.512 8.949 7.357 12.575 2.824 2.546 2.93 6.22 1.578 8.66.542.9 1.42.23 1.857 1.619.527 8.027 3.872 16.652 3.342 24.46-4.3 13.218-3.686 27.474-8.444 40.59-.45.203-.647-.782-1.123-.48-.632 1.337-.109 2.914.037 4.417-2.798 1.098-1.996 4.82-4.22 5.968-.737 9.234-4.588 17.81-5.534 26.997-2.141 3.63-3.936 7.334-3.913 11.42-5.298 10.965-10.61 21.927-13.054 33.496-4.514 2.64-3.035 6.544-6.428 9.421.72 6.36-3.082 11.758-6.627 17.217-5.77 13.394-6.408 27.874-16.249 40.411-1.016 7.053-2.373 14.033-6.575 20.414zm-20.188 34.572c-.443-.604-1.283.658-1.889.823.124-2.962.344-7.046 1.892-8.904-3.396-5.443 3.167-10.701-.549-17.012.644-1.743.508-3.645 3.255-4.941.564-3.467-.178-7.22 3.126-10.106-1.497-3.011-.082-5.403.473-7.98 6.361-4.85 2.362-11.903 8.94-16.708 1.98-13.783 9.149-26.46 12.876-39.867l1.988-1.292c7.101-17.017 12.832-34.328 22.78-50.74 7.466-19.143 10.326-39.265 18.736-58.207 2.123-10.894 1.167-22.441 4.342-33.112-.601-8.125-1.421-16.3-4.96-25.05-5.697-7.897-11.684-17.872-18.905-21.647-5.551-8.831-11.95-13.676-18.681-16.95-10.97-3.285-21.123-10.435-32.952-9.7-2.542-1.092-4.968-2.727-7.964-1.693-2.179-2.313-6.171-1.307-7.468-4.036.602-1.641 2.28-1.598 4.079-3.052.945.208.234.64.45 1.32l1.99-1.29c8.659 2.647 17.506 4.411 26.523 5.394 6.185 2.773 12.388 5.445 18.794 7.178 1.02.952-.29 1.41.726 2.359 1.597.917 3.387.956 5.053 1.564 7.417 7.378 16.114 14.762 22.454 23.385 3.325 4.66 10.445 8.281 10.446 14.216 4.833 6.822 5.35 12.728 4.665 18.376 3.1 8.168.077 15.033-1.302 22.252l1.846 2.842c-2.521 13.745-7.935 26.879-10.351 40.646-.753.492-1.695.947-1.805 1.575-2.177 10.556-4.124 21.16-7.894 31.378-4.041 5.729-5.21 14.027-10.67 20.26.123.922.677 1.938 1.092 2.925-.565.613-1.028 1.249-2.087 1.756-.414 7.666-8.643 13.67-7.776 21.61-4.85 7.787-10.043 15.492-11.463 24.006-.922.885-1.537.308-2.459 1.193.369 14.115-12.051 25.514-11.844 39.594-.897.76-1.662.927-2.455 1.194-.161 6.576-4.382 12.289-5.204 18.724-4.8 4.612-.732 11.112-2.733 16.316-4.109 3.289-2.419 7.81-5.115 11.401zm60.444-278.605c11.674 8.588 12.57 25.95 10.439 35.833-6.252-5.143-2.404-14.257-6.208-21.294-6.887-8.846-11.69-17.121-19.164-23.332-10.443-13.185-25.137-16.144-38.336-20.126-.96-1.184-1.231-2.213-1.736-3.294-1.827-1.34-4.104-.53-6.35.102-7.37-6.692-19.006-2.87-27.449-8.306 7.672-3.702 15.422.208 23.153-.161.634.457 1.359.49 1.851 1.612 9.379-.225 17.835 3.9 26.432 7.357 4.323 3.342 8.471 7.506 13.746 6.352 1.706 2.456 5.229 2.808 5.353 5.77 6.598 4.208 11.474 12.554 17.55 17.14.187.772.124 1.49.72 2.347zM131.227 51.26c-.814-.552-1.945 1.391-2.804-.722 1.236-.142 1.292-.89 2.466-1.601.736 1.683 1.59 2.1 1.883 3.498-.629.674-.882-.15-1.43.2-.65-.567.213-.867-.115-1.375zm11.878 58.974c-11.842-9.669-26.004-8.446-37.801-18.328-1.792.74-1.296 2.232-2.946 2.318-8.018-5.759-18.182-1.405-26.173-7.275-2.208-.38-4.792.998-6.472-1.864 3.976-2.11 9.192-.197 14.058-2.655.86.159.239.874 1.108 1.706 4.824-1.53 8.397 2.816 13.158 1.57 1.475-1.752 1.712-3.622 4.17-2.304 1.288 1.25-1.787 1.579-1.067 2.716 1.746 2.54 4.487.418 6.768.455 2.319 3.343 5.581 2.22 8.437 3.016 4.477 3.16 9.196 5.204 14.336 5.253 4.617 3.286 9.648 4.616 14.208 8.168.723.807.138 1.337 1.01 2.177 1.994 1.376 4.077 2.367 6.273 2.802 10.396 14.211 25.062 27.13 23.942 43.103 5.875 10.57 4.446 19.586 3.695 28.748-5.2 6.745-1.494 15.379-8.55 21.731-6.29-11.079 5.695-20.366 2.085-31.686 2.008-5.545.952-11.738-3.632-18.68-1.56-4.91-.692-9.304-2.367-14.238-2.393-2.334-3.037-5.254-4.886-8.152-7.362-4.287-11.709-17.258-19.354-18.581zM96.311 395.277c-1.13.414-.816 1.134-1.802 1.576-1.077-1.945-2.23-6.807-4.225-7.752-.04-1.638 1.715-2.895.997-4.679-.476-1.21-1.226-1.132-1.76-2.088.101-8.416-.95-15.76-.086-23.748-1.913-6.6-3.768-13.196.038-18.586-.674-4.628.949-8.768 2.97-12.822.61-9.658 7.426-17.995 10.655-27.095 9.24-14.836 16.24-30.149 27.58-44.536.811-1.132-.024-2.617.327-3.847 7.599-13.063 10.487-27.128 17.383-40.343.14-1.684.104-3.403.342-5.065 8.318-14.95 4.251-32.53 9.974-48.033-.292-1.937-.277-3.809-1.43-5.932.62-1.333.01-2.931.427-4.31-2.41-4.102-1.23-7.44-2.96-11.395-7.957-4.747-11.974-14.644-19.939-20.14-7.558-.509-13.364-9.24-21.307-7.948-1.12-.867-2.349-1.227-3.346-2.67-4.766-1.375-9.515-2.804-14.213-4.488-7.723 2.16-14.28-1.117-21.383-1.852l-1.29-1.987c-4.06-.47-8.744 2.014-12.085-1.833 1.488-2.461 3.947.514 4.44-2.48 3.106-.044 5.713 2.283 9.293.017.638.459 1.366.491 1.858 1.615 9.212-.359 17.853 1.953 26.816 2.763 5.581 5.574 13.145 1.835 18.582 8.108 8.44 3.641 17.016 6.65 24.51 14.747 1.099.97 2.285 1.527 3.444 2.2 3.386 4.413 6.602 9.61 10.366 12.232 2.094 7.214 2.427 14.052 4.064 21.168-3.97 5.603-1.973 12.47-4.64 18.343.74 9.047-1.559 17.447-1.91 26.26-5.652 15.111-12.017 30.065-17.913 45.124 1.87 4.719-.291 8.582-2.405 12.458l-2.27 1.475c-.216 1.012-.955 1.913-1.349 2.89 1.584 2.703 1.12 4.968-.275 7.035-1.69 1.05-3.04.491-4.608.98-9.11 5.08-7.3 12.475-14.119 18.04-2.654 4.576-5.071 9.199-6.174 14.103-1.903 2.041-2.986 4.255-2.43 6.821-3.461 4.73-3.866 10.106-6.85 14.938.472 1.321 1.22 2.704.895 3.859-1.099.966-1.759-.175-2.826.623-4.23 10.273-6.475 20.97-.963 33.313a8.473 8.473 0 0 0-1.906 2.04c1.66 7.773-3.31 14.139.856 22.446-1.813 2.387-.044 5.534.647 8.455zm7.278-12.832c-.716 3.48 2.142 8.903-1.829 10.885-4.902-10.678 2.184-20.932-1.01-32.066 4.518-5.49 4.22-12.007 7.465-17.773.52-.525.806.058 1.124.483 3.422-15.442 11.479-29.907 15.05-45.317 6.142-9.15 8.626-19.081 11.087-29.012l2.56-1.662c2.459-6.421 4.097-13.017 7.763-19.178 7.514-5.352 6.96-12.409 11.518-18.384 3.339-9.91 11.631-18.77 3.68-31.074 1.222-3.988-.93-8.689 2.598-12.184-.523-11.14-.211-22.1 4.17-32.193.297-.265.544-.266.752-.085 1.833 1.5 1.285 4.477.39 6.204 5.144 15.628-8.624 27.246.018 43.614-.78 6.94-2.706 13.637-2.707 20.742-.956.534-.877 1.283-2.091 1.762-.697 13.166-15.557 23.326-16.353 36.47-8.307 9.185-6.19 20.573-14.198 29.821-2.283 10.213-8.857 19.52-9.593 30.062-7.648 5.731-4.132 13.823-11.061 19.705-1.037 1.249.31 3.006.038 4.417-4.277 2.91-4.429 8.655-4.776 13.199-.641-.156-1.873.644-1.991 1.293-.062 4.07-1.994 7.742.317 12.318-1.26 2.59-1.868 5.318-2.921 7.953zm-20.633-26.742c-3.029 11.185-1.005 23.428-.021 35.458-.992 1.193-2.03.378-3.399.997-1.162-9.293-7.44-19.665-2.153-27.6-2.759-5.144-3.532-9.873-.934-13.894-4.366-5.809 1.425-9.48-2.606-15.224 2.896-3.557 1.446-9.3 6.172-11.66 5.429-13.125 13.398-25.714 20.266-38.534 4.047-12.273 12.475-23.626 19.562-35.26-.204-1.261-.134-2.472.05-3.657 6.342-9.1 9.521-18.864 12.988-28.571 15.098-17.771 11.05-39.576 13.61-59.987-1.62-3.197-.314-5.775-2.223-9.027.3-1.159.785-2.282.519-3.56-1.78-1.792-2.621-3.687-3.396-5.85-13.647-17.385-30.068-21.837-46.318-27.115-8.477-.404-17.189.239-24.84-4.005-5.599.228-11.253.735-16.127-2.415-2.696.784-5.128.33-7.913 1.515-3.103-2.642-7.472.597-10.587-1.986 1.298-1.933 4.375-3.123 5.755-1.722l2.275-1.478c21.53 1.561 43.691.192 63.567 9.466 16.684 1.38 33.664 14.52 42.837 34.206-.314 1.73-.43 3.498-.635 5.247 4.616 14.424 1.138 27.141-1.499 40.04.442 1.394.795 2.774 1.54 4.236-.599.518-1.12.661-1.606.638-.857 14.822-13.509 27.158-14.862 41.87-6.504 10.212-11.766 20.679-17.436 31.064-1.301.866-2.864 1.676-3.516 2.682-3.795 9.963-10.763 19.256-13.185 29.51-.196.932-1.412.787-2.175 1.004-.64 4.353-5.58 7.797-3.935 12.627-5.968 5.424-5.647 12.18-11.142 17.706.889 1.555 2.196 1.171 3.259 1.913-.677 1.896-1.994 2.283-3.978 2.584-.118 1.364 1.756 1.097 2.306 2.934-.362 1.298-.724 2.506-2.576 2.88 2.003 4.579-.306 8.252 2.356 12.968zM21.124 127.44c-.634-.764-1.924-2.31-2.21-3.405 17.95-5.07 39.243-10.02 57.454-9.084 1.197.504 2.18 2.024 3.445 2.2.932.222 2.118-.746 3.109-.81 8.675.606 17.06 2.58 24.974 6.77 8.773.126 16.432 7.509 23.831 15.572 3.345 3.64 3.44 7.882 4.815 13.006 2.99 11.142 5.055 18.087 2.844 27.992.745 2.523.222 4.775 1.6 7.43-3.6 9.915-1.175 21.109-10.04 29.908-2.382-1.222-2.42-3.846-2.647-5.942 1.068-2.464 2.91-4.761 4.218-7.176 1.273-7.393 2.94-14.705 4.682-21.997-1.81-7.228-2.054-14.128-1.429-20.842-5.358-6.91-2.945-12.924-7.83-19.515-2.265-1.613-4.875-1.605-7.09-3.46-3.345-6.22-9.106-9.727-14.62-9.462-12.476-10.283-28.025-3.706-41.752-8.37-4.07 1.89-7.525.88-11.08.339-3.36 2.455-8.021 2.96-11.377 1.744-7.171 2.661-13.825 2.89-20.897 5.102zm43.868 242.172c7.632 3.237 3.797 11.59 6.522 17.517-1.58 1.951-3.664 3.794-4.214 5.96-3.475-5.18 1.243-10-2.595-16.443 1.02-.942 1.399 1.095 2.244.96-4.816-4.908-4.678-13.187-3.392-19.545-1.802-.407-3.263-2.708-2.945-4.536.613-1.029 1.35-.651 2.457-1.193.176-1.646-1.828-.75-2.407-2.467 1.567-5.54.626-11.609 1.275-17.342 5.086-9.204 6.446-19.19 8.203-29.091-3.933-.642-8.373 8.692-5.321 11.107-.833 1.457-.934 3.066-1.473 4.581-6.95 6.673-5.036 17.164-8.623 25.337 1.51 5.864-.096 11.07 1.268 16.904-.943.595-1.723.438-2.741 1.378 2.62 1.746 1.197 5.094 3.477 6.598-.59 3.943-6.605 4.116-7.163 8.28 1.636 5.217 1.58 7.791 3.865 12.8-1.29 1.065-2.313.868-3.297.528-3.003-4.633-6.914-18.73.219-22.702-.948-.898-1.93-1.639-2.976-2.094-.353-1.624.63-2.966-1.154-4.891 1.886-.825.972-2.241.988-3.461 1.115-.637 1.962-.007 3.012-.344-.175-1.096-1.119-2.354-1.924-3.585 3.426-10.691.996-23.924 7.133-33.232.642-5.32 4.976-10.06 6.31-14.57 13.857-15.51 26.513-31.275 38.055-47.272 23.237-31.472 29.655-66.486 23.811-104.077-2.537-7.663-9.057-11.927-14.738-14.602-12.49-2.64-24.576-7.158-37.174-9.29-7.9 1.44-15.397 1.005-22.737-.139-16.73 5.69-33.995 4.025-52.44 13.916-.834.076-1.549-.388-2.241-.962-1.043.19-.193 2.54-1.237 1.206.678-.795-.938.005-1.025-.95 8.16-5.423 15.242-8.511 22.773-9.15 15.679-6.031 33.158-10.97 48.024-7.014 1.026-.982 1.74-.515 2.743-1.38 13.02 2.068 27.27-1.587 38.899 6.964 9.791 2.22 21.68 11.66 24.84 24.552-.642 3.615.521 7.61 1.906 11.652-.125.546-.797.973-1.523 1.391 1.483 1.863.032 3.105.218 4.696 2.056 6.384 1.333 12.184-.155 17.823 2.22 5.85-.11 10.738-2.846 15.545.365 11.325-3.161 21.835-10.211 31.603-1.92 6.934-3.984 13.84-12.019 19.487-2.095 5.841-2.253 16.74-11.898 17.796-3.94 3.98-7.152 8.32-11.446 12.266-.643.844-.158 1.925-.134 2.91-8.595 6.506-7.297 15.093-9.34 22.981 5.607-2.07 7.113-11.168 9.156-16.417 3.428-4.902 6.872-9.805 9.319-14.914 2.264-1.858 4.449-5.616 7.598-5.74-.027 7.169-5.645 13.163-10.041 19.408-1.151 2.694-3.079 5.228-3.683 8.035-6.032 4.76-2.973 11.44-10.744 15.836-.23 2.888-3.738 5.085-4.62 7.836 1.472 6.506.535 12.506-1.005 18.376l1.472 2.267c.03 3.35-1.427 6.387-1.826 9.646 2.955 2.414 1.603 6.842-2.479 9.261zm77.973-120.309c-.477-10.06 7.63-18.357 9.116-28.01 4.154-4.865 2.8-10.858 7.374-15.634 1.05-.667 1.8.014 2.432 1.232.173 4.445-1.078 8.597-3.726 12.464.296 1.205.712 2.43.686 3.57-1.563 3.676-4.208 7.137-6.525 10.663-3 4.888-2.698 13.981-9.357 15.715zM71.813 142.41c-1.513.615-2.983 1.025-4.514 1.72-1.194-1.298-2.683-1.177-4.01-1.835-1.196 1.04-2.11.728-3.197 1.266-8.456-5.847-19.368-.037-28.939-.59-8.922 3.28-19.832 6.063-29.31 8.133-2.248 3.489-8.083 6.805-10.995 3.503.404-.644 1.118-1.226.676-2.053 6.157-3.841 12.765-5.869 18.08-9.32 15.94-3.885 33.76-8.494 49.246-6.54.51 1.056 1.144 1.52 1.76 2.09 5.862-2.35 11.173-2.036 16.209-.432 2.377-1.363 6.203-1.322 8.608.868 8.803-.048 16.57 4.841 24.942 6.819 4.005 3.797 7.952 7.863 11.476 13.953.141 1.405-.02 3.816-1.357 4.112-7.116-7.18-13.577-17.485-22.403-16.545-8.011-5.275-17.724-2.436-26.272-5.15zM66.12 86.905c1.291.607 3.267-.98 1.838-2.631-1.323.133-2.868 1.136-1.838 2.631zm175.933 270.2c-1.892 2.11 1.373 3.547 2.897 1.503-.746-1.133-1.649-1.822-2.897-1.502zM-6.485 177.196c-.934.938-1.227-1.151-2.16-.214-15.257 14.388-30.278 28.83-37.942 44.833 6.473-20.173 20.62-37.976 45.476-53.763 10.208-2.33 21.129-8.007 30.92-8.368 1.781-1.473 3.272-1.574 5.015-2.856 5.61.109 11.921-3.087 17.813-4.297 4.25-3.495 7.699-3.194 11.02-2.31 12.738-2.71 24.85-2.471 36.058 2.025.716.073 1.138 1.549 1.859 1.62 3.088 1.263 7.622 1.673 9.129 6.59 8.491 3.662 11.388 14.155 12.695 22.04-.305 1.896.322 3.988-1.198 5.625-3.754-4.718-2.927-8.462-4.637-12.737-5.312-7.525-11.786-14.707-18.463-19.105-7.332-1.982-15.395-.54-22.507-3.557-20.009 3.077-42.204 10.958-61.473 17.308-5.119-2.044-11.583 2.263-17.33 3.176-2.13 1.182-3.335 2.558-4.275 3.99zm65.6-82.085c-.394 1.035-2.322 1.744-3.435 2.628-.91-.596-1.66-1.94-2.44-3.15 2.103-1.065 5.5-2.82 5.875.522zm-15.75 272.706c-4.195 5.327-.694 12.285-3.33 17.94-7.216-6.673-.433-15.707-4.523-22.549 3.047-7.286 2.1-15.42 2.739-23.215 3.035-3.856 3.559-8.24 3.453-12.759 13.219-26.803 31.754-53.781 51.534-78.373 8.094-10.959 13.642-22.458 19.257-33.942 1.041-11.392 6.374-23.176-5.484-36.49-.6-1.435-.82-2.791-1.073-4.153-7.59-11.999-17.443-13.348-28.315-9.93-.632-.854-1.162-2.214-1.945-2.378-4.634 1.444-9.589.726-14.193 5.577-6.068-2.224-13.129.202-20.28 3.06-13.507 1.501-27.993 9.816-40.915 19.288-3.31 4.26-7.45 8.098-12.76 11.522-13.092 15.086-24.398 29.26-30.79 45.48-.858-5.167.289-9.914 4.692-13.968 8.524-22.961 31.648-43.618 58.58-61.91 21.816-6.323 44.48-14.807 64.207-14.596.888.447 1.833.62 2.618 1.536 10.788-1.924 19.276 7.933 26.396 20.074.415 2.777 1.734 7.554 4.875 9.375 6.886 15.689-.535 28.347-5.41 41.541a13.84 13.84 0 0 0-3.336 2.97c-1.238 1.375.067 3.287-.998 4.697-.33.974-1.882.709-2.378 1.948-5.638 10.923-13.34 22.856-22.897 31.454-1.857 4.758-6.901 8.84-6.201 14.142-2.664 3.265-4.944 8.154-10.096 9.385-1.163 1.147-.851 2.604-1.557 3.84-10.19 9.208-13.177 19.943-17.982 30.29 2.287 4.075-.615 8.753-2.7 12.673-.17.783.859 1.819 1.378 2.748-1.815 1.004-2.15 2.325-2.962 3.54l1.478 2.277c-.73.346-1.045-1.237-1.879-.397-.617 1.49 1.999.967 1.48 2.278-2.657 4.75 1.406 10.927-2.079 15.503-.526.825 1.975.103 1.396 1.522zm-58.246-138.904c-5.194 7.386-4.612 16.025-10.257 23.313-3.607 11.987-10.24 23.317-13.272 35.427-1.78-4.477 1.382-7.883 1.04-12.046.937-.966 1.464.04 2.259-.25-.46-1.322-1.407-.31-1.864-1.63 1.11-3.773 2.993-7.373 4.512-11.054 1.85-9.911 9.31-18.61 10.396-28.687-4.916 6.217-7.004 15.18-13.157 21.95-.837 1.455.462 3.372-.511 4.798-5.332 1.736-2.746 5.932-5.532 8.87.016-3.761-.427-7.623-.088-11.313 1.403 0 .095 2.221 1.485 2.288 7.159-11.71 9.188-25.562 22.764-35.093 1.02-1.335.639-2.973 1.635-4.314 6.124-4.283 10.974-10.754 16.568-13.6 3.161-4.393 9.608-11.157 15.614-12.58 1.79-.675.03-2.12 1.342-2.9 11.647-4.651 22.645-9.168 33.885-16.727-7.323-2.737-18.277 9.025-27.057 9.858 2.287-7.763 12.47-9.152 19.377-12.992 5.57-2.022 10.652-1.704 15.514-.325 10.35-7.324 18.603-4.571 27.583-5.322 4.474 2.585 17.48 4.075 13.802 12.561-4.121-.603-7.462-4.974-11.313-6.867-9.514-.22-19.372 1.206-29.158 2.28-3.576 1.7-4.425 3.307-6.816 5.647-9.508 1.46-17.497 10.588-28.31 13.51-6.507 7.56-18.26 12.467-23.578 20.186-2.313.9-4.828 2.76-7.275 4.316-3.212 3.564-5.253 7.379-9.588 10.696zm20.042-8.78c-5.303 8.011-12.945 16.812-18.274 23.996-.114-9.04 8.932-18.595 18.274-23.996m26.141 146.386c-1.155.488-1.387 1.172-1.614 1.859 3.015 5.054-1.575 8.475 1.546 13.554-1.338.384-1.127-2.28-3.094-.418-.035-.582.645-1.006 1.046-1.49-.428-1.45-.93-1.395-1.847-2.843-3.249-22.897-.76-44.561 7.35-65.023 1.307-1.167 2.32-.94 3.586-1.928-1.437-13.772 8.518-25.105 14.004-37.396 2.914-1.214 3.84-4.019 6.336-4.519 3.433 8.41-11.53 14.992-11.322 23.527-3.414 3.348-5.858 6.906-5.28 11.11 5.475-.483 8.089-9.557 10.284-13.956 3.311-5.002 7.731-9.768 8.608-15.294 1.011-.928 1.484-1.968 2.097-2.98.512-1.114.272-2.39.505-3.564 3.007-2.537 4.373-5.426 4.972-8.483 12.224-12.726 23.835-25.58 29.417-39.728 7.585-9.004 10.928-22.773 2.035-32.861-2.842 2.494-1.554 6.888 1.588 9.885 2.694 18.78-17.973 32.552-26.232 48.986l-6.52 4.234c-.566 5.178-8.83 8.712-8.597 14.069-15.786 8.66-21.641 26.052-28.2 39.745 2.609 2.593-.191 5.5 1.134 8.567-1.041.673-1.505-1.401-2.626-.318-1.738 1.262-1.456 2.954-1.457 4.586-2.745.42-1.217 3.41-4.081 4.266 1.256 7.125-4.731 12.695-1.81 20.18-5.311 7.103-3.48 15.739-2.414 24.21-.584.929-1.521 1.499-2.451 1.186.307.858 3.027 2.885 3.142 4.839-3.393.98-.575 5.19-2.791 6.256-2.774-1.943-2.389-5.214-3.297-7.56.091-1.124 1.383-1.99 2.096-2.983-3.061-4.732-1.877-8.558-2.681-12.814.167-.899.981-.761 1.701-1.105-1.333-16.61 2.837-32.035 8.943-47.05.205-.989 1.325-.383 2.07-.536.785-1.384.419-3.012.238-4.6 2.524-5.502 3.007-11.435 8.338-16.335 3.793-6.94 7.977-13.796 12.885-20.499 4.19-3.918 9.39-7.617 9.7-12.368 3.244-1.15 4.897-3.107 4.848-5.571 12.808-9.346 19.279-23.443 29.07-33.437 1.9-5.496 5.188-11.907 1.783-17.733-3.822 2.66-7.617 5.188-10.746 4.552-12.986 9.868-19.445 21.132-29.897 31.543-.77 9.147-10.82 15.312-16.3 23.931-1.264 1.986-3.29 3.923-5.044 6.508-1.263 1.867-.563 4.5-3.725 6.058-5.168 12.032-14.313 23.214-15.208 36.162-3.276 3.3-3.822 7.178-3.124 11.33-4.805 9.01-3.623 19.297-6.776 28.662-4.454-10.255.321-18.538 1.884-27.51.631-.916.963-.932 1.886-.817-1.122-7.752 5.63-13.813 3.14-21.852 4.114-10.302 9.512-20.79 14.68-30.153 5.52-5.51 6.93-11.903 14.348-17.006 2.411-5.277 7.265-10.033 8.425-15.577 8.222-7.869 15.377-15.967 22.214-24.133-23.576 16.17-33.646 37.352-49.486 55.995-1.284.668-2.742 2.172-3.872 2.107.034 4.087-.475 8.06-5.278 11.113-.166 1.308.829 3.483-1.726 3.547 1.38 4.702-2.365 8.31-2.666 12.65-7.376 4.791-9.04 12.094-7.7 17.938C3.56 305.34.798 297.556 7.085 295.71c3.176 3.985-1.647 8.274-1.634 12.384-5.543 6.892-5.686 14.94-7.463 22.643-.806 1.114-.882-1.237-1.69-.12 3.366 6.191-.044 10.93 2.544 16.951-4.04 4.038.568 11.211-1.657 14.823-1.27-1.385-3.375-4.929-3.68-6.907.618-.242.938.955 1.684.118.493-1.29-1.573-.172-1.858-1.625-.697-7.005.799-13.545-.53-20.682 4.393-6.812.775-15.34 4.455-22.305.184-1.007-1.242-.927-1.761-2.092.716-16.332 10.805-30.655 18.406-45.513.7-.216 1.305.003 1.973-.066 4.839-11.28 13.814-23.044 23.538-33.89 8.21-9.157 17.985-20.317 29.004-27.328 7.935-5.041 17.884-6.745 25.207-13.94.557-.943.33-2.052-.06-3.196-13.69-7.247-32.533-1.664-48.924 11.553-1.79.755-3.203-.281-4.88-.066-2.61 3.006-3.946 3.846-7.74 4.218-1.383.929-.91 2.253-.508 3.562-1.77-.496-4.03 1.32-5.632.019-.334 1.48-.98 2.891-1.642 4.3-5.002.479-6.15 7.836-11.831 9.707-6.517 9.683-15.033 21.538-26.41 30.09-2.401 4.384-5.17 8.685-5.77 13.454-1.875.986-1.823 2.384-2.945 3.53-.244 1.008.31 2.189-.411 3.097-1.23 1.196-2.067.513-3.104.8.04 10.46-.167 20.862-3.515 30.588 1.638-10.014-2.528-21.273 2.294-30.603 1.6-4.228 3.326-8.427 3.704-12.917 7.23-14.533 9.48-31.426 30.663-42.153.903-.951 2.24-1.807 3.033-2.78.505-.078.754 1.069 1.306.77 1.859-2.458 4.627-4.72 6.175-7.245 13.166-7.453 32.322-22.983 49.266-25.928 14.32-8.353 25.01.521 37.037 3.042 7.352 8.979 8.905 18.015 4.71 25.247-1.023 19.692-19.401 35.67-32.186 52.845-5.16 9.83-12.354 19.225-19.262 28.683-1.696 6.898-5.721 13.3-13.056 18.991.31 7.414-8.024 12.974-6.787 20.585-1.949.885-.572 2.487-2.663 3.345.997 2.497-.121 4.546 1.426 7.16-2.45 3.544-5.469 8.459-3.615 13.673-3.432 3.998-2.46 8.942-.994 13.986zm19.182-251.461c-5.243.487-10.085-.856-15.924 2.336-4.392-.793-8.835-1.353-14.131 1.975 3.501-5.877 13.523-5.971 19.516-8.673 4.71 2.32 10.939-2.282 15.288 1.677-1.494.484-3.125 1.595-4.75 2.685zm-61.006 220.072c-.779.73-1.693 1.432-2.179 2.228 2.316 6.462.383 12.01 1.797 18.282-1.876-2.612-3.144-5.09-4.058-7.494.244-19.233 1.454-38.254 5.977-56.56.455-.72 1.593-1.29 1.899-2.044 3.922-19.254 18.27-36.263 31.3-53.553-.18-1.43.305-2.714-1.271-4.443 11.229-6.467 17.61-15.399 26.797-23.885 11.45-6.493 20.852-15.545 31.935-21.552 2.02.27 5.482-.666 6.08 2.54-2.68 2.926-6.68 2.36-9.799 3.525-2.657 3.115-7.305 6.333-11.235 6.891-2.822 4.217-10.173 8.269-15.055 13.426-4.331 4.571-7.368 7.74-13.063 10.91-.986 1.178-.337 2.705-1.066 3.937-2.849 1.345-3.967 5.59-6.619 4.703-.61 3.465-3.173 6.507-4.504 9.813-10.054 10.057-17.282 22.159-25.199 33.79 1.346 3.288-1.877 8.016-3.84 8.976.148 1.176.84 2.473.714 3.585-4.099 8.435-7.799 16.952-5.604 26.738-1.83 4.182-.691 9.001-3.22 13.032.817 2.549-.426 4.65.213 7.155zm43.838-227.798c-.302-.648.084-1.149.912-1.554.67.823.82 1.534-.134 2.008-.2-.429-.466-.553-.778-.454zM1.052 161.523c-14.57 6.68-28.718 18.56-37.615 31.651-.782-1.056-.34-1.86-.618-2.811.557-.697 1.284-1.358 2.376-1.944 4.086-9.504 16.605-18.642 27.04-26.788 5.068-2.346 9.992-4.04 15.408-8 7.254.672 15.16-6.56 21.631-4.014 4.058-2.967 7.748-4.217 10.923-3.084 5.266-1.658 12.273-5.685 15.296-.706-3.293 5.726-9.539 1.974-12.467 5.688-3.763-1.142-6.816.041-10.803 1.401l-1.1-1.694c-.928-.177-.026 2.097-2.007 2.507-5.206 1.167-9.904 2.752-15.453 4.818-3.893 1.454-8.704 1.183-12.611 2.976zm73.12 59.903c-1.676 4.851-6.129 9.115-11.135 13.259.219-5.076 6.036-9.993 11.134-13.259m-30.137 33.635c1.941-4.709 5.928-8.988 8.983-13.467l3.402-2.21c2.146-14.343 20.681-25.226 30.567-37.935 2.12-1.158 4.145-1.876 5.323 1.368-.21 2.23-2.078 4.114-5.134 5.746-1.585 1.616-.439 3.808-3.535 5.105-1.054 1.73-1.023 3.688-1.665 5.504-3.196 2.129-3.14 5.292-5.731 8.546-4.99 6.263-15.472 10.233-16.985 16.66-13.192 9.9-14.765 23.544-25.169 33.222-7.475 12.647-14.646 25.364-16.448 39.21-1.854 1.477-2.559 3.199-3.715 4.824-.46 5.839-.983 11.662-3.878 16.987.73 7.957-1.424 15.31-2.46 22.895-1.05-1.538-2.365-1.874-3.517-2.939.84-6.327.325-12.939 5.397-18.374-.456-1.224-1.805-.716-1.573-1.792 1.806-2.387 1.449-5.223 1.233-8.034 6.903-26.103 14.438-52.074 34.905-75.316zm52.953 94.384c3.674-10.794 8.475-21.354 9.434-32.728 8.347-11.928 10.423-25.178 19.161-37.025 1.922-1.96.494-5.924 4.121-6.708.693-.573 1.12.115 1.592.58-.749 6.198-3.404 11.997-7.175 17.556.88 2.959-2.747 4.963-1.701 7.955-4.231 2.937-3.843 6.85-4.924 10.45-.065.8-1.835 1.24-1.9 2.043-2.618 9.227-5.131 18.476-11.145 26.984-.046.806-.008 1.628.436 2.539-4.474 4.594-.456 10.99-5.271 15.511-1.956-1.68-2.537-5.065-2.628-7.157zM-24.401 305.8c-1.132 1.391-1.175 3.005-3.336 4.175.01 5.21.869 11.88-.04 16.082-1.491-2.689-1.346-7.09-2.38-10.494 2.23-6.23 1.781-15.504 7.115-19.473.211-1.592-1.769-.932-1.65-2.541.775-3.9 1.484-7.814 1.107-11.96 4.272-9.423 7.4-19.09 11.74-28.497 10.238-6.284 13.976-18.627 22.382-25.773 12.227-10.394 23.202-22.475 39.95-29.156 4.711-4.744 12.751-8.75 18.725-12.16.93-.553 1.665-.171 2.234.956.064 1.64-1.962 2.84-2.871 4.274-8.03 2.712-12.996 9.181-19.576 12.712-1.654.889-3.713.91-5.27 1.818-6.92 4.045-11.647 10.587-17.175 15.164-3.025 2.51-5.046 7.608-9.56 7.014-3.928 8.494-15.811 13.856-18.494 22.449-5.386 3.509-10.67 11.019-11.018 17.192-.766.24-2.078.55-2.269 1.473-2.77 7.055-3.252 14.598-6.586 21.534.26 5.337-5.092 9.495-3.028 15.211zm40.266-188.132c1.571-.582 3.097-.974 4.03.932-1.309.862-2.684 1.976-3.675 1.597-.81-.958-.249-1.687-.355-2.529zM2.913 130.954c4.472.885 10.002-1.95 15.909-3.282.485-7.41-11.183-.175-15.909 3.282zm11.555-12.306c-1.306.33-1.046 2.53.192 2.755-.42-1.028.63-1.6-.192-2.755zm-53.096 130.535c.043 2.453.074 4.9-2.452 6.817-1.313-6.582 3.254-12.08 5.996-17.553 5.911-11.807 15.003-26.607 27.406-36.276 5.937-4.635 11.183-9.545 16.472-15.119 1.834-.732 3.897-1.865 4.651-3.425 3.096-.734 6.705-3.866 9.837-4.782l.552.849c-9.208 12.773-25.195 21.292-35.24 32.93-1.237.81-2.528 1.88-3.498 1.467-8.224 11.631-17.2 23.107-23.724 35.092zm189.81 139.51c1.066.395 2.075 1.075 2.917 2.665-.921 1.367-2.97 1.215-4.275.704-.337-1.31.554-2.33 1.359-3.369zm-172.15-189.872c-5.228 8.714-13.643 16.778-19.48 25.366-1.963 4.208-2.739 8.656-5.948 12.61.107-12.589 11.191-27.14 22.27-39.105.994-.817 1.678-.25 2.431.01-.013-6.466 7.06-10.642 11.148-15.187 7.458-1.773 14.869-12.26 21.597-9.654-3.434 5.735-12.236 8.663-17.74 13.112-5.335 4.163-6.792 9.122-14.278 12.848zm12.523-54.143c-3.256.967-4.744 3.092-7.327 5.242 1.915.92 8.731-1.228 7.327-5.242zm-8.385 16.228c-.89 2.387-2.533 4.283-5.597 4.47.458-5.283 8.162-8.433 11.661-11.336.79.766.072 1.185.86 1.952-1.433 2.58-3.615 5.279-6.924 4.914zm5.755 127.213c-5.46 17.732-11.183 35.41-8.004 54.944-1.094.53-1.864-.414-2.805-.586-1.794-5.173-.068-9.61-1.458-14.7.503-.79.222-1.743 1.262-2.422-1.205-14.402 4.804-27.304 6.469-41.11 4.688-13.276 12.287-28.045 24.771-40.96 2.955-3.06 6.057-5.467 7.94-9.567 1.514-.588 3.2-1.976 4.33-.806.83 5.701-8.704 9.248-9.521 14.607-12.17 11.456-18.51 24.299-22.66 37.982-.6.512-.846-.608-1.405-.29-.302.83 1.19 2.03 1.08 2.908zm-13.852-121.084l.574.884c-1.777 2.221-3.86 4.374-6.59 6.378-.431-3.257 3.978-6.524 6.016-7.262zm-14.438 31.582c-.508.57-.775-.327-1.234-.072-.674 1.347-.786 2.838-1.187 4.257-.842.082-1.353-1.857-2.065-2.576 4.798-1.26 1.943-5.647 5.273-6.472.47 1.81-.256 3.314-.787 4.863zm97.204 167.264c.683-.556 1.237-.748 1.744-.776.263 1.275.51 2.546-.757 3.677-1.288-.29-1.145-2.011-.987-2.9zm.747 9.019c6.206 2.202.858 7.78 3.22 12.217-1.65.876-2.566-1.152-4.045-.95-1.586-3.499-1.266-6.67-1.287-9.896l2.112-1.371zm1.633 20.56c1.11.423 2.17 1.138 3.623-.192.881-4.191-5.78-3.563-3.623.193zm-104-147.245c-1.012.6-.11 2.876.979 2.245.13-.654-.392-1.441-.978-2.245zm81.387 137.968c.749 1.027 1.546 1.858 2.665 1.146.156-1.132-1.436-2.327-2.665-1.146zm-69.557-105.11c-4.161 4.858-1.635 11.218-2.145 16.894 1.238-5.515 4.128-10.66 2.145-16.894zm39.116 83.58c1.831 2.793 4.302 5.735.803 7.268-2.122-3.27-2.967-6.234-3.59-9.145 1.565-2.235 3.083-1.296 4.35 1.272-.62.743-.976.057-1.563.606zm-42.306-66.008c.15 1.57-1.64 4.844.853 5.408-.69-1.738 1.294-4.135-.853-5.408z"/>
        </g>
    </g>
</svg>
