<svg width="330" height="100" viewBox="0 0 330 100" fill="none" xmlns="http://www.w3.org/2000/svg">
<g opacity="0.2">
<path fill-rule="evenodd" clip-rule="evenodd" d="M151.999 0.108751C150.187 0.552751 146.419 -0.839249 146 0.912751C146.956 2.17575 152.095 2.29875 151.999 0.108751Z" fill="white"/>
<path fill-rule="evenodd" clip-rule="evenodd" d="M131.54 4.86729C133.853 5.94083 139.527 7.12429 140 3.92706C136.743 3.86158 131.138 5.38184 132.311 2.04428C131.634 2.22437 130.049 1.66538 130 2.35769C131.012 2.79038 131.666 3.50841 131.54 4.86729Z" fill="white"/>
<path fill-rule="evenodd" clip-rule="evenodd" d="M175.374 8.78553C185.033 20.7656 196.636 30.854 205.25 43.8488C211.745 50.1059 215.742 58.7916 223.102 64.211C222.977 65.0992 221.748 64.9109 221.936 66.0943C224.973 66.7886 226.382 69.0598 227.366 71.7498C228.372 72.1546 229.966 71.9888 230.472 72.8798C240.094 91.176 255.428 103.926 265.004 122.27C268.281 123.381 274.558 124.235 271.99 128.679C273.529 129.697 276.013 129.792 277.807 130.565C293.037 143.793 297.764 167.228 316.998 176.563C321.193 182.789 326.385 188.048 332.515 192.397C332.483 192.993 331.529 192.692 331.743 193.53C334.734 201.302 345.064 201.945 347.263 210.496C348.226 211.064 349.826 211.022 350.367 212C354.859 206.775 348.828 204.073 347.263 199.562C340.285 198.55 337.184 193.771 335.619 187.497C330.38 182.783 324.846 178.362 321.653 171.661C318.699 171.894 317.912 170.019 315.833 169.401C313.75 162.247 306.634 159.99 303.417 153.941C303.425 153.32 304.496 153.727 304.583 153.187C298.78 150.778 296.966 144.499 294.102 139.237C292.728 138.689 290.396 139.068 289.448 138.107C289.494 137.022 291.102 137.452 290.998 136.221C289.462 134.697 287.29 133.795 286.731 131.319C283.873 131.583 282.542 130.363 282.077 128.302C282.045 126.891 284.825 128.207 284.79 126.796C282.273 124.969 278.093 124.761 275.866 122.647C276.595 120.648 276.766 119.313 275.478 117.745C274.472 116.733 274.31 118.206 273.152 118.124C265.84 108.137 255.159 101.422 250.647 88.7165C248.087 84.5451 241.621 84.1628 240.944 78.1587C234.083 75.0274 231.977 67.2692 226.203 63.0754C224.733 55.0812 219.095 51.1346 213.787 46.8649C213.46 44.2957 211.557 43.2529 211.071 40.8327C207.868 39.8292 204.964 36.8384 205.641 33.291C204.513 32.8806 202.887 32.9537 201.762 32.5405C201.302 31.0985 200.263 30.2215 200.596 28.0149C193.08 23.1268 189.204 14.7025 181.197 10.295C181.642 9.84805 181.634 8.9598 181.582 8.03221C177.48 4.9908 173.062 3.37453 168 2C169.146 5.54174 172.77 6.6661 175.374 8.78553Z" fill="white"/>
<path fill-rule="evenodd" clip-rule="evenodd" d="M152.048 2.85744C152.36 3.65544 154.64 3.07644 154.463 2.05044C153.632 2.29644 151.667 1.40244 152.048 2.85744Z" fill="white"/>
<path fill-rule="evenodd" clip-rule="evenodd" d="M336.119 211.092C332.362 201.912 322.979 198.22 318.301 189.941C310.538 188.069 310.278 178.88 302.03 177.475V175.208C295.946 171.198 295.105 162.072 290.412 156.702C291.215 152.213 287.207 149.634 284.212 147.637C280.804 141.397 275.898 136.61 269.882 132.907C270.988 147.82 287.233 153.252 289.635 166.901C285.945 165.462 285.994 160.382 280.726 160.478C279.883 159.289 279.034 158.101 279.178 155.947C270.107 152.579 270.526 139.955 263.685 134.419C263.026 129.989 260.245 126.286 257.874 121.953C257.536 120.838 257.294 122.828 256.323 122.333C255.466 119.39 252.381 118.621 252.067 115.155C251.347 114.471 249.291 115.09 248.965 114.02C249.309 113.35 250.042 113.063 249.739 111.756C248.457 110.362 245.982 110.131 245.092 108.357C244.801 107.194 246.158 107.631 245.866 106.468C243.316 105.386 242.71 102.249 241.991 98.5352C240.685 98.6647 238.089 99.4898 236.957 98.5352C237.119 97.6876 239.01 98.5267 239.282 97.7805C237.511 92.8301 234.624 88.9806 229.986 86.8293C228.215 80.6229 223.404 77.3817 220.686 72.099C220.597 73.5436 219.537 73.7688 218.365 73.231C217.862 71.3556 219.303 71.3753 219.139 69.8293C213.929 64.189 207.171 58.1009 204.806 50.9455C195.434 45.0996 190.762 34.6777 182.728 27.528C182.953 26.3002 182.465 25.7708 182.341 24.8838C176.389 22.2509 172.337 17.7679 167.621 13.9297C166.83 8.51747 160.947 6.10701 156 6C157.692 9.26088 160.687 11.2489 163.748 13.1751C163.835 13.8903 163.309 14.0086 163.361 14.6844C173.769 22.1608 179.993 33.7203 188.925 42.6356C189.402 43.8577 187.675 42.9257 188.151 44.1478C191.856 48.2112 195.241 52.5928 198.221 57.3659C213.316 68.7114 222.662 85.6578 235.022 99.67C237.832 108.507 242.871 115.18 246.64 123.088C258.148 131.885 262.22 147.933 272.207 158.214C273.18 158.774 274.341 159.154 274.919 160.1C279.308 166.017 283.802 171.835 292.35 173.699C294.504 178.013 297.511 181.507 302.03 183.521C305.395 189.431 310.844 193.309 315.589 197.871C316.086 198.367 316.086 199.265 315.589 199.76C318.096 201.85 321.018 203.531 323.335 205.803C323.97 207.578 324.851 209.112 325.662 210.715C332.405 212.573 333.064 220.365 340.379 221.666C341.887 227.754 347.544 229.79 352 233C350.524 221.973 342.172 217.653 336.119 211.092Z" fill="white"/>
<path fill-rule="evenodd" clip-rule="evenodd" d="M212.834 6.01003C213.026 4.21003 211.628 3.99703 210.017 4.00003C209.84 5.78503 211.043 6.19003 212.834 6.01003Z" fill="white"/>
<path fill-rule="evenodd" clip-rule="evenodd" d="M215.354 28.7177C213.05 32.6122 217.579 38.9526 222.338 39.6797C222.627 40.8407 221.275 40.4039 221.565 41.5677C222.144 42.0101 223.151 42.0383 223.504 42.7005C233.909 62.6828 248.976 78.1226 263.879 93.7285V95.239C269.288 99.2941 271.997 105.981 276.298 111.115C277.213 111.107 277.441 111.766 278.628 111.493C282.066 116.588 287.021 120.203 289.887 125.856C290.856 127.051 292.674 127.426 293.768 128.502C293.808 131.36 295.817 132.304 298.04 133.037C298.708 138.94 301.944 142.336 305.805 145.131C305.122 145.478 304.453 145.836 304.638 147.022C311.596 150.074 315.871 155.735 319 162.521C319.969 162.837 321.081 163.014 322.496 162.899C329.202 175.644 342.738 181.74 352 192C350.816 188.365 350 184.369 346.565 182.932V180.663C343.977 177.38 340.649 174.83 338.411 171.215C330.322 167.875 328.696 158.246 321.33 154.205C320.939 152.444 320.001 151.215 319 150.049C317.969 150.043 316.783 150.19 316.282 149.668C316.175 144.339 309.397 142.274 307.744 137.196C307.782 136.221 309.402 136.799 308.908 135.305C304.144 132.135 299.684 128.666 298.425 122.077C295.18 119.44 290.613 118.096 288.723 114.139C287.192 114.241 286.023 113.993 285.615 113.006C285.516 105.728 276.075 104.451 275.91 95.997C274.654 94.6754 274.697 97.8146 273.195 97.5075C270.923 97.1918 269.233 94.3147 270.09 92.2153C271.204 92.5196 270.333 94.7515 272.029 94.4838C273.126 94.7966 273.036 93.9512 273.968 94.1062C274.368 92.3365 273.331 91.956 272.808 91.0825C266.096 91.4432 265.077 86.2609 260.385 84.6575C251.897 74.8791 242.904 62.387 234.372 51.394V48.7507C225.753 39.7557 218.196 29.7266 211.079 19.2662C209.244 18.6632 206.06 19.3677 206.031 17.0006C207.675 16.1918 208.552 18.9675 211.079 18.511C211.253 16.8315 210.028 16.5102 209.528 15.4873C201.415 18.3391 200.037 1.82009 194 8.68469C201.846 14.6532 204.471 25.7025 215.354 28.7177Z" fill="white"/>
<path fill-rule="evenodd" clip-rule="evenodd" d="M120 8.57479V7.51389C118.597 6.20492 114.938 7.66168 113.884 8.93107C113.017 9.0683 114.082 7.31596 112.803 7.86753C111.765 8.02587 111.161 8.61438 111 9.63834C114.098 10.7283 117.32 9.05246 120 8.57479Z" fill="white"/>
<path fill-rule="evenodd" clip-rule="evenodd" d="M350.053 243.342C349.156 242.706 347.083 243.219 346.567 242.215C344.532 237.174 341.369 233.227 336.505 230.933C337.132 229.699 336.413 229.498 336.505 227.925C320.221 213.906 305.25 198.618 290.435 183.175C290.124 181.868 291.01 181.728 290.825 180.542C289.235 180.077 288.124 179.152 286.175 179.037C275.543 165.178 260.935 155.169 253.27 138.425C247.664 133.538 242.426 127.513 239.722 118.869C238.296 117.49 236.01 116.957 234.688 115.483C234.368 110.615 229.213 105.79 228.884 99.6894C227.637 98.3913 225.224 98.2287 224.234 96.6811C224.681 95.6269 224.681 94.7241 224.234 93.6727C219.151 93.9699 220.69 87.8438 216.493 87.2803C216.222 85.8841 217.154 85.6654 216.88 84.2719C215.714 83.8962 214.072 83.9944 213.78 82.7663C214.098 81.4598 213.206 81.3196 213.393 80.1337C202.579 72.2104 195.75 60.4209 185.137 52.3042C182.889 43.5679 174.868 38.4848 172.747 30.87C170.969 29.4653 168.677 28.5569 167.329 26.7345C162.913 17.8609 152.425 14.8861 145.261 8.68157C144.156 7.80962 142.026 7.73673 141.004 8.68157C140.871 13.1983 144.164 14.3871 147.968 15.0768C148.165 16.26 147.126 16.5459 147.968 17.331C163.052 22.2402 167.315 37.6521 178.167 46.666C178.228 47.5996 177.558 47.8295 177.396 48.5445C180.482 50.1818 181.356 53.9752 182.427 57.5696C184.419 59.6443 187.559 60.606 189.784 62.4564C187.446 70.0152 199.88 69.3367 199.456 77.5038C202.434 76.4636 205.984 79.4328 206.042 83.5177C206.972 83.9944 208.38 84.0028 209.139 84.6448C214.672 95.568 224.586 102.23 229.654 113.604C229.533 114.485 229.045 115.014 229.268 116.237C238.758 131.332 248.207 146.477 259.853 159.484C270.977 170.612 279.941 183.837 293.143 192.951C293.986 196.142 295.862 198.335 298.563 199.72C302.468 206.835 308.798 211.588 314.048 217.394C314.625 219.971 316.567 221.215 319.468 221.532C324.917 227.269 330.753 232.632 337.663 236.95C338.229 242.294 342.31 244.22 345.793 246.729C346.278 250.895 349.011 252.875 351.6 255C353.171 251.103 349.574 248.622 350.053 243.342Z" fill="white"/>
<path fill-rule="evenodd" clip-rule="evenodd" d="M221 12.3835C220.197 10.6476 218.479 9.6608 215 10.1069C215.2 12.1532 218.822 14.0006 221 12.3835Z" fill="white"/>
<path fill-rule="evenodd" clip-rule="evenodd" d="M135.239 27.3789C142.498 27.5394 149.286 31.8334 149.303 36.6062C155.269 41.3732 161.565 45.8134 167.671 50.4486C169.558 54.5018 172.888 59.1284 179 57.7525C174.144 47.5333 163.185 43.3224 157.51 33.9145C154.352 33.6909 153.175 31.5152 152.429 28.9182C150.981 28.4165 149.175 28.2732 148.132 27.3789C144.695 19.4816 133.794 18.9284 128.987 12.3812C125.78 12.4615 122.727 12.3898 120 12C120.463 19.0488 133.779 18.8796 135.239 27.3789Z" fill="white"/>
<path fill-rule="evenodd" clip-rule="evenodd" d="M220.178 19.7997C220.875 20.7594 223.037 20.2992 223.293 21.6826C223.322 25.7936 226.904 29.0515 230.303 31.0916C231.917 35.8059 234.172 39.8972 238.091 42.3834C237.528 42.8464 237.354 43.6771 237.31 44.6396C243.812 49.7916 245.719 57.0735 251.717 62.7054C251.928 64.0411 250.338 63.6314 250.55 64.9671C257.476 68.183 257.656 77.9174 267.287 78.5179C268.036 81.4335 271.017 82.1883 271.183 85.6679C273.212 86.8465 274.84 88.4067 277.415 89.0549C286.535 102.566 299.516 112.351 308.17 126.318C308.123 127.246 308.115 128.13 308.562 128.576C310.094 128.75 310.585 127.785 311.287 128.95C311.11 130.038 309.908 130.128 310.117 131.585C324.35 138.154 329.174 153.815 339.319 164.329C338.837 165.497 338.08 166.406 339.319 167.343C341.319 167.927 340.907 164.924 342.434 166.215C343.305 171.392 347.775 173.096 351 176C349.055 170.837 347.592 161.986 340.489 160.569C340.75 159.691 341.781 159.559 342.045 158.686C336.762 153.004 332.53 146.303 329.197 138.737C319.9 132.165 311.543 124.687 307.003 113.519C300.242 106.097 290.936 99.2356 286.37 90.9379C283.171 89.7593 280.715 87.8708 277.804 86.42C271.859 74.9794 259.232 69.9957 253.272 58.5664C252.312 57.4916 250.463 57.2727 249.769 55.9314C249.267 45.5993 239.966 38.3398 233.029 31.8436C233.923 26.1921 227.011 25.4176 228.744 21.3066C226.19 20.5125 224.521 18.8653 223.685 16.4127C222.712 16.0956 221.597 15.9188 220.178 16.0367C219.65 16.6597 220.497 18.2311 220.178 19.7997Z" fill="white"/>
<path fill-rule="evenodd" clip-rule="evenodd" d="M61.4256 39.9802C61.9049 40.5195 62.7565 40.6936 63.7497 40.7329C71.6226 34.9303 83.9386 32.3098 96.2748 33.9529C101.393 37.4384 109.639 38.4214 115.248 40.3566C130.743 39.9886 140.146 48.7825 149.713 55.4249C151.35 55.3406 152.217 56.0063 153.588 56.1804C156.501 64.1457 168.511 63.261 171.401 71.2487C172.824 71.3695 173.543 72.1755 174.885 72.3778C174.657 73.7287 175.333 74.2034 175.656 75.0151C194.162 89.4121 210.413 105.997 222.129 127C223.604 126.68 224.455 125.75 226 125.495C225.434 123.368 225.327 121.869 224.453 119.467C219.143 115.844 216.663 109.46 214.383 102.891C209.218 100.003 206.593 94.6474 202.765 90.4625C201.977 89.1509 200.741 91.5551 200.054 90.4625C197.361 79.7701 185.403 78.0933 182.244 67.8559C177.85 68.3277 176.234 64.9489 171.785 64.4659C164.983 57.5257 155.617 53.074 150.49 44.4993C149.009 43.7325 147.528 44.4235 145.845 44.4993C144.312 42.7271 142.736 40.9941 141.197 39.2247H138.099C134.99 34.0849 125.084 35.5622 125.708 26.7965C123.326 25.8444 120.035 25.7826 119.899 22.651C114.841 21.0416 109.933 19.2862 105.571 17C98.7634 19.1374 95.4231 15.9833 87.7552 17.7555C91.5343 18.6711 94.3953 23.8306 98.9886 21.5219C98.4083 21.4573 97.5595 21.6567 97.4411 21.1455C99.0463 20.8282 100.314 20.1709 102.473 20.39C107.632 26.4201 118.776 26.6308 123.384 33.2002C109.621 35.4387 98.5065 25.277 83.8837 28.3019C82.4835 27.9087 82.0909 26.5325 80.0122 26.7965C78.4908 28.33 77.8325 30.7033 73.8167 29.8074C72.5897 35.2055 65.1354 32.5261 62.1964 35.8375C62.9413 35.9948 63.868 35.9723 63.7497 36.9666C63.1492 37.7726 59.8406 39.5056 61.4256 39.9802Z" fill="white"/>
<path fill-rule="evenodd" clip-rule="evenodd" d="M240 21.1816C239.105 21.0376 237.842 19.2376 237 20.3746C237.797 20.6206 239.385 22.0696 240 21.1816Z" fill="white"/>
<path fill-rule="evenodd" clip-rule="evenodd" d="M260.648 45C261.948 43.4939 259.275 42.5125 258.644 41.5765C260.423 38.1587 256.465 37.1121 254.632 35.8698V32.4463C251.776 29.9645 247.805 27.7918 245.01 26.3594C244.711 25.1852 246.391 25.8943 245.811 24.4563C244.773 24.1528 241.924 23.6025 241 24.4563C246.11 32.1683 251.489 43.6669 260.648 45Z" fill="white"/>
<path fill-rule="evenodd" clip-rule="evenodd" d="M271.979 41C272.336 39.0969 267.985 38.1677 266 37C267.666 38.5876 268.886 40.523 271.979 41Z" fill="white"/>
<path fill-rule="evenodd" clip-rule="evenodd" d="M341.047 283.144C340.066 278.561 336.562 276.424 333.258 274.093C333.459 272.515 333.041 271.536 332.477 270.698C331.708 269.807 329.644 270.175 328.584 269.565C327.876 265.727 324.218 264.743 323.524 260.89C313.762 258.531 314.032 246.448 305.61 242.787C305.285 241.844 305.102 240.765 305.221 239.392C296.701 236.957 296.492 226.474 288.865 223.17C289.127 217.515 286.224 214.925 281.857 213.744C281.329 213.002 281.486 211.593 281.082 210.727C279.439 209.928 277.695 209.228 276.406 208.086C270.646 194.428 258.944 186.532 251.1 174.896C247.071 172.385 243.308 169.613 242.144 164.334C237.282 160.493 233.133 155.963 231.241 149.248C226.811 148.883 228.123 142.966 226.567 139.817C225.417 139.549 224.157 139.386 223.452 138.686C221.443 132.084 217.178 127.666 215.277 120.959C214.818 120.523 213.901 120.532 212.94 120.58C213.033 117.295 207.572 111.789 204.373 110.4C201.072 103.663 196.75 97.9178 190.357 94.1806C190.183 90.8259 186.827 90.5559 186.461 87.3924C175.015 81.1273 166.602 71.9264 156.09 64.7614C154.444 64.8458 153.576 64.1793 152.194 64.0078C150.74 58.2516 143.575 58.0267 140.513 53.8227H137.009C124.012 46.7955 107.494 42.0404 87.9476 42.5072C87.4221 42.1389 87.4425 41.2362 86.7806 41C71.4672 42.1304 56.7082 48.6374 44.3385 54.956C44.0569 57.0706 41.9348 57.4024 42.0015 59.8573C50.13 58.1054 56.3889 56.002 61.8582 52.3155C68.9038 52.0202 73.4557 48.2522 80.5507 50.8055C81.7555 50.0884 83.1054 49.5119 84.4436 48.9186C98.5291 48.7696 112.406 52.2058 126.105 54.5764C127.823 56.3114 129.194 58.3726 131.56 59.4805C136.509 60.8471 141.006 62.6524 143.238 66.6455H146.742C165.74 80.8095 186.819 92.9546 198.921 113.794C209.839 122.452 216.731 135.011 225.008 146.231C225.217 147.69 224.317 148.07 224.625 149.625C231.693 165.029 244.426 174.944 253.045 188.852C267.978 198.396 274.292 216.297 285.753 229.207C286.665 230.085 288.273 230.284 289.257 231.094C290.134 235.146 292.935 237.337 294.317 240.9C304.063 246.676 307.375 258.677 317.681 263.907C322.006 272.164 327.859 278.946 335.592 283.898C335.677 285.11 334.904 285.492 335.203 286.915C337.9 288.122 338.899 291.76 342.603 289.933C341.921 292.604 345.637 291.018 347.274 291.44C347.323 292.953 348.586 294.71 350 293.703C349.17 289.899 347.01 284.055 341.047 283.144Z" fill="white"/>
<path fill-rule="evenodd" clip-rule="evenodd" d="M282.007 61.4556C282.72 65.5753 285.19 70.1642 287.098 74.2726H289.843C291.458 80.3762 295.591 84.0658 296.502 90.8551C301.216 94.7358 305.506 99.0269 309.037 104.049C308.438 105.246 308.9 105.704 309.037 107.061C317.539 118.731 328.441 128.092 337.241 139.479C337.156 142.446 339.043 143.522 341.549 144C342.778 139.911 341.193 138.981 340.375 135.331C339.855 134.704 338.155 135.204 337.635 134.578C335.606 125.226 328.617 120.637 322.355 115.354C314.858 103.076 305.129 93.3561 298.07 79.9237C298.646 79.4882 299.054 79.4882 299.636 79.9237C289.811 69.7764 283.867 55.8944 273.78 46H273C274.992 52.1261 276.052 59.1429 282.007 61.4556Z" fill="white"/>
<path fill-rule="evenodd" clip-rule="evenodd" d="M270.995 60.5014C266.849 59.8416 265.86 56.0699 264.151 53C264.259 51.1044 267.042 51.8537 267.574 50.3746C263.607 49.7903 261.703 47.1706 257.311 47C256.43 48.0569 257.747 49.343 257.311 51.124C260.658 52.3458 262.627 56.713 261.87 59.7521C263.075 60.6915 265.548 60.3756 266.056 62C266.373 63.5657 265.313 63.7726 265.293 65C275.591 70.7176 280.609 83.6375 290 89C285.92 77.6514 277.195 70.8854 269.856 62.7493C270.402 62.1678 271.386 62.014 270.995 60.5014Z" fill="white"/>
<path fill-rule="evenodd" clip-rule="evenodd" d="M306 76C302.481 68.1497 297.891 61.4221 291 56C295.731 63.2425 298.044 71.3658 306 76Z" fill="white"/>
<path fill-rule="evenodd" clip-rule="evenodd" d="M36.5807 77.3325C37.3054 76.66 37.0427 75.0265 38.1313 74.7042C47.8882 71.7733 58.5461 69.7111 68.7275 67.1865C72.1463 69.4 74.1907 66.0713 78.7963 66.4355C80.1881 66.7465 78.3343 67.8533 79.9571 67.9374C84.528 65.4912 92.6188 68.1195 97.0021 66.06C101.691 66.0404 104.377 69.4757 109.006 68.3157C110.27 69.5934 112.381 70.0529 115.205 69.8147C124.468 77.2372 142.143 76.4947 148.126 87.1059C151.34 87.4926 151.92 90.4347 155.867 90.1124C168.133 103.767 183.691 114.232 195.374 128.447C195.712 129.943 195.712 130.335 195.374 131.831C200.269 131.714 201.799 134.869 203.122 138.217C209.806 141.126 211.683 148.7 219 151C215.405 138.573 203.113 131.338 194.984 122.058C193.206 117.269 191.245 112.657 185.305 111.912C185.424 111.027 186.648 111.212 186.466 110.029C178.358 106.003 177.29 95.1336 167.1 93.1162C147.932 71.6416 113.071 56.3343 72.9866 62.2998C71.9326 61.4451 70.5322 60.9268 68.3405 61.1734C65.9757 62.3866 63.579 63.5663 61.3672 64.9308C60.1688 64.7179 60.3479 63.1628 59.0427 63.0507C53.0193 64.009 47.3511 67.1893 41.6165 67.1865C40.4442 70.434 34.9117 69.4505 35.033 73.9533C32.928 73.0342 31.0251 75.2394 30 76.5844C32.6738 77.2653 33.5372 78.5822 36.5807 77.3325Z" fill="white"/>
<path fill-rule="evenodd" clip-rule="evenodd" d="M304.638 69.412C304.815 67.897 303.792 67.579 303.03 67C302.868 68.5 303.351 69.361 304.638 69.412Z" fill="white"/>
<path fill-rule="evenodd" clip-rule="evenodd" d="M24.9091 93.5449C27.7474 92.1539 31.3155 91.4669 33.8409 89.7719C34.7272 90.4251 36.016 90.6814 37.7276 90.5265C41.7388 89.1384 45.9267 87.922 50.1609 86.7479C58.4265 86.8915 67.0514 86.0355 73.8545 84.104C83.1367 83.6422 90.1599 86.9619 99.8853 84.8614C100.925 85.3598 100.656 87.128 102.211 87.128C105.872 86.6522 109.457 86.1115 113.089 85.616C120.471 91.0277 131.833 92.5707 138.729 98.4582H142.613C142.589 99.866 143.003 100.846 143.389 101.857C151.55 101.854 151.495 109.836 159.318 110.163C164.302 114.51 168.296 119.818 174.079 123.382V125.649C183.692 131.914 189.649 141.732 199.716 147.552C199.389 149.129 200.469 149.337 200.495 150.573C207.003 153.186 209.314 159.873 216.81 161.529C222.017 176.733 235.574 183.82 242.447 197.403C257.521 204.651 261.301 222.882 271.973 234.415C282.043 252.567 295.189 267.735 309.649 281.622C309.328 285.209 312.74 285.167 312.369 288.799C320.429 295.731 331.811 297.778 335.289 309.568C339.381 309.309 341.026 315.506 345 311.834C343.616 310.074 340.992 309.117 342.283 305.795C340.931 303.75 339.268 303.52 337.621 302.393C337.235 301.008 336.326 300.129 336.068 298.617C330.035 293.527 323.893 288.546 317.032 284.266C314.147 278.01 310.42 272.57 304.601 269.16C303.996 264.585 300.599 262.729 297.607 260.474C296.341 254.913 293.289 251.078 288.287 249.144C285.571 235.671 273.821 230.98 269.642 218.932C268.695 217.839 266.702 217.755 265.758 216.665C252.354 194.694 234.656 176.908 218.365 157.75C218.646 156.596 217.965 156.373 217.974 155.484C214.759 151.939 208.77 151.086 207.487 145.665C206.352 145.046 206.024 146.369 204.379 145.665C198.607 138.939 190.22 134.755 187.283 125.269C186.368 124.776 184.604 125.111 183.79 124.514C183.255 124.03 183.405 122.876 183.402 121.873C174.424 118.01 169.289 110.416 163.201 103.746C156.141 103.701 153.705 96.8899 149.607 94.6796C147.611 93.604 144.741 93.8011 142.613 92.413C140.406 90.977 140.333 90.1942 137.562 89.0145C129.945 85.7737 123.961 80.8181 113.089 81.8402C109.605 79.5623 102.996 80.3254 100.27 77.307C99.6217 77.8082 98.9701 78.3065 97.5509 78.0644C80.116 75.7302 59.5705 77.0705 43.9428 83.7267C31.9063 81.9697 29.6241 89.6931 21.8015 92.0357C21.6741 93.925 20.8458 95.1357 21.0254 97.3235C23.1569 96.8786 25.4797 96.6168 26.8525 95.4342C26.14 94.8682 24.2488 95.4483 24.9091 93.5449Z" fill="white"/>
<path fill-rule="evenodd" clip-rule="evenodd" d="M317 95V90.091C312.679 86.7901 310.033 81.7515 306.146 78C305.075 83.0527 310.257 84.7651 310.124 90.091C312.881 91.2429 314.675 93.3974 317 95Z" fill="white"/>
<path fill-rule="evenodd" clip-rule="evenodd" d="M27.5037 110.265C28.4433 110.052 27.321 107.839 28.6666 108.015C32.0711 108.611 34.7304 108.054 37.613 107.263V103.888C44.628 104.504 49.7406 100.629 58.2317 100.508C59.7484 99.8228 57.6256 97.9453 59.7861 97.881C61.761 97.2291 60.688 99.5094 62.1206 99.3807C78.8911 90.4691 92.2745 104.728 110.35 102.008C116.533 105.427 122.338 109.21 130.577 110.64C138.894 115.626 145.979 121.804 155.473 125.654C160.424 131.633 168.561 134.543 172.2 141.79C173.932 142.083 174.532 141.292 176.086 141.415C193.724 159.422 211.631 177.173 228.599 195.832C228.3 197.245 229.075 197.629 228.991 198.835C240.733 210.522 251.523 223.127 260.107 237.864C266.954 241.389 269.613 248.955 278 251C274.282 238.949 261.943 235.214 258.941 222.477C242.217 207.321 232.123 183.91 212.652 170.315C213.618 169.867 214.943 169.772 216.152 169.562C212.893 165.06 206.759 165.637 205.26 159.428C201.345 159.579 200.493 156.773 199.422 154.173C192.471 151.633 190.978 143.815 184.259 141.04C183.824 140.332 183.763 139.269 183.478 138.412C179.056 136.927 174.335 135.724 173.366 130.905C169.483 130.654 168.544 127.553 166.754 125.279C165.792 124.708 163.738 125.186 162.863 124.526C162.329 124.042 162.477 122.898 162.471 121.902H159.362C155.761 118.496 153.443 113.852 146.527 113.645C142.342 110.928 139.817 106.605 133.689 105.763C132.662 104.756 131.987 103.404 130.969 102.386C129.603 102.201 128.434 101.826 126.688 102.008C123.394 96.9353 113.769 97.9593 109.184 94.1289C104.396 96.1798 99.4461 92.3914 93.6229 94.1289C90.6128 91.0399 82.2174 89.9068 78.0704 92.2515C65.6818 89.4955 53.0234 95.3824 41.1132 96.7534C40.5564 98.4686 39.7937 99.9851 38.0016 100.508C32.4162 99.1485 25.1083 101.879 23.609 106.888C23.0464 107.593 21.0629 106.932 20.5003 107.64C20.3031 110.575 17.5974 111.096 17 113.645C18.8502 113.301 20.5293 112.794 22.4461 112.517C22.0981 109.196 24.5225 108.927 27.5037 110.265Z" fill="white"/>
<path fill-rule="evenodd" clip-rule="evenodd" d="M321.495 96C321.119 96.349 320.9 96.8031 321.045 97.4989C322.493 98.1365 324.461 98.4273 326 99C325.671 97.2192 324.475 96.0179 321.495 96Z" fill="white"/>
<path fill-rule="evenodd" clip-rule="evenodd" d="M322 99.3355C322.684 100.128 323.233 101.055 324.415 101.349C324.637 99.8965 322.942 98.2885 322 99.3355Z" fill="white"/>
<path fill-rule="evenodd" clip-rule="evenodd" d="M29.8775 122.604C35.3546 117.077 46.6227 117.044 53.2621 112.62C57.6642 114.199 60.0817 109.97 63.7864 112.62C70.1439 108.609 79.7877 106.971 86 101.899C79.041 96.5706 66.9535 104.107 59.887 104.488C57.6293 108.135 50.2867 106.963 47.0237 109.662C45.4721 110.028 45.8556 108.556 44.2982 108.923C34.5004 113.43 24.5776 117.821 15.0674 122.604C14.6403 124.247 16.0118 125.297 15.0674 126.301C12.4117 126.248 10.1656 126.579 10 128.889C10.7235 130.052 12.7516 129.972 14.6781 130C19.3242 127.133 23.2585 123.594 29.8775 122.604Z" fill="white"/>
<path fill-rule="evenodd" clip-rule="evenodd" d="M325.777 310.134C325.537 303.836 318.198 304.414 316.83 299.203C313.333 298.701 310.881 297.184 309.051 295.06C303.429 283.057 290.927 277.708 286.109 264.918C285.01 264.606 285.106 265.449 284.163 265.297V263.033C280.014 262.407 278.353 259.373 276.779 256.252C268.301 252.156 261.696 246.246 254.611 240.805C252.007 233.282 245.06 229.962 242.164 222.72C234.44 216.388 227.887 208.921 221.944 200.865C221.663 199.713 222.614 199.758 222.332 198.603C214.055 191.805 208.778 182.1 199.779 175.996C190.747 161.512 177.39 151.219 163.612 141.331H160.89C148.756 131.724 135.596 121.151 120.056 116.089C119.781 114.69 120.72 114.47 120.447 113.074C106.563 109.914 84.0928 100.947 73 113.451C79.2538 117.002 89.645 113.459 97.5022 114.956C106.406 116.378 112.132 120.875 120.833 122.493C121.706 123.406 122.332 124.558 123.167 125.507C134.065 129.522 139.85 138.483 151.946 141.331C152.41 142.961 150.673 143.444 151.557 144.345C153.294 145.008 154.526 145.168 156.611 144.725C160 147.969 163.792 150.829 167.112 154.141C178.39 158.537 183.415 168.99 192.385 175.619C192.478 177.67 193.183 179.125 194.334 180.142C195.548 180.218 197.187 179.886 197.833 180.518C200.918 190.092 209.616 194.221 216.11 200.488C216.641 202.486 217.983 203.699 218.056 206.14C233.97 225.136 249.661 244.344 268.22 260.775C281.307 267.562 286.886 281.627 298.164 290.164V292.046C304.406 296.633 306.033 305.119 315.664 307.12C315.983 309.319 318.436 309.454 318.387 312.016C319.802 312.404 320.999 313.005 322.278 313.524C321.968 314.831 322.855 314.971 322.666 316.159C330.529 321.727 334.812 330.769 344.055 335C345.003 334.16 345.785 333.163 346 331.612C338.36 325.32 334.98 314.906 325.777 310.134Z" fill="white"/>
<path fill-rule="evenodd" clip-rule="evenodd" d="M331.823 113.817C331.748 112.281 331.25 111.168 329.807 111C329.726 111.453 329.363 111.627 329 111.804C329.273 113.142 330.038 113.988 331.823 113.817Z" fill="white"/>
<path fill-rule="evenodd" clip-rule="evenodd" d="M15.415 114C13.825 114.021 13.021 114.825 13 116.415C14.077 115.881 14.443 114.642 15.415 114Z" fill="white"/>
<path fill-rule="evenodd" clip-rule="evenodd" d="M318.487 347.059C315.211 341.686 310.312 337.893 304.877 334.614C303.784 321.697 289.379 318.483 285.437 307.081C283.405 306.535 282.242 305.149 281.55 303.31C279.428 302.351 277.277 301.417 275.714 299.913C273.676 295.988 270.795 292.872 267.551 290.108C267.165 285.705 264 283.998 262.495 280.68C261.133 280.495 259.967 280.121 258.219 280.303C257.289 276.682 252.984 276.327 253.164 271.629C241.003 264.821 234.808 252.224 225.169 242.968C218.07 232.249 208.297 224.131 202.227 212.417C201.424 211.689 200.062 211.5 199.114 210.91C198.662 208.958 196.554 208.618 196.783 206.006C194.594 205.238 193.133 203.762 191.727 202.235C191.493 201.33 191.168 200.514 191.342 199.215C183.921 190.569 175.685 182.721 165.678 176.588C161.289 167.894 153.506 162.501 147.789 155.089V151.695C138.773 142.202 128.39 132.066 114.353 128.689C113.472 124.637 106.764 126.242 102.299 125.674C102.337 124.505 101.827 123.869 101.523 123.034C83.7785 119.151 65.6604 115.585 51.7486 124.915C50.8413 124.8 50.2934 124.322 49.0324 124.541C47.6264 125.694 46.377 126.996 44.3623 127.558C28.8068 129.816 19.8579 138.485 6.25924 142.644C6.28823 148.076 -0.219782 147.174 1.20357 153.959C9.83067 149.626 16.388 143.291 24.9223 138.873C35.1438 135.575 48.4265 132.009 58.7495 127.558C65.185 126.976 70.9973 123.855 78.1923 124.164C86.1962 124.507 93.0259 129.333 100.357 129.822C105.111 134.009 114.802 133.407 118.243 138.873C119.606 139.059 120.771 139.435 122.516 139.25C124.485 145.259 134.956 143.026 134.958 150.942C136.741 152.986 139.982 153.61 141.571 155.845C141.985 156.824 142.516 157.696 142.348 159.237C152.601 166.39 156.602 179.606 168.4 185.26C172.49 192.607 178.584 198.015 185.121 202.989C186.118 207.299 189.385 209.408 192.119 212.037C196.25 218.842 202.1 223.982 206.891 230.143C214.907 243.744 228.848 251.592 236.054 265.974C238.724 267.656 240.661 270.054 243.055 272.008C243.046 272.894 243.725 273.119 243.441 274.272C256.152 285.322 265.585 299.559 277.271 311.608C278.874 311.56 279.709 312.263 281.55 311.984C284.002 324.064 297.296 325.622 298.653 338.762C303.483 340.617 306.648 344.084 308.764 348.566C319.699 351.167 320.441 363.644 330.538 367.049C331.651 369.996 333.698 372.031 334.817 374.967C336.872 375.074 338.684 374.947 339.872 374.213C340.748 368.966 336.866 368.328 335.982 364.785C327.798 361.158 326.833 350.529 318.487 347.059Z" fill="white"/>
<path fill-rule="evenodd" clip-rule="evenodd" d="M339.509 261.096C340.816 258.992 342.828 261.862 343.768 259.211C340.291 257.495 339.304 256.712 335.636 257.33C335.881 254.83 335.082 253.35 334.865 251.303C334.597 250.559 332.707 251.393 332.542 250.548C332.701 248.762 331.079 248.705 330.992 247.158C320.075 243.721 318.846 230.856 308.927 226.441C300.616 215.197 289.161 207.002 283.77 192.918C274.045 188.315 271.503 176.726 260.929 172.951C261.587 169.8 259.061 169.747 259.379 166.925C258.274 166.251 256.787 165.933 255.896 165.043C248.283 151.864 237.368 141.891 230.352 128.13C229.27 127.729 227.824 126.342 226.48 127.375C225.034 130.798 227.126 134.025 229.189 135.286C238.488 152.352 247.414 169.783 263.255 180.486C274.463 194.94 286.913 208.187 295.767 224.933C306.457 229.603 312.855 238.441 319.766 246.782C321.178 247.164 322.418 247.717 323.636 248.287C324.176 253.589 330.606 254.14 330.216 259.211C332.386 261.495 336.652 261.742 337.959 264.864C337.264 266.21 337.696 267.923 338.346 269.004C340.04 269.299 340.735 267.375 341.832 268.251C342.718 269.523 341.763 272.585 342.605 273.902C346.063 272.405 347.142 275.008 349.959 273.525C350.478 267.999 345.95 267.384 344.929 263.356C343.843 261.896 340.219 262.915 339.509 261.096Z" fill="white"/>
<path fill-rule="evenodd" clip-rule="evenodd" d="M86 132.717C83.0637 128.094 67.1446 124.954 65 132.717C69.7205 136.98 79.8291 134.249 86 132.717Z" fill="white"/>
<path fill-rule="evenodd" clip-rule="evenodd" d="M49 137C45.1222 136.993 41.6706 137.334 41 139.963C43.6587 140.23 47.8316 139.045 49 137Z" fill="white"/>
<path fill-rule="evenodd" clip-rule="evenodd" d="M322.348 372.777C316.763 360.113 300.614 357.695 296.329 343.773C290.141 341.114 289.962 332.619 282.343 331.345C278.18 322.328 271.859 315.4 265.257 308.745C261.788 300.187 255.794 294.071 248.558 289.159C248.138 288.188 247.611 287.317 247.782 285.77C237.164 276.105 228.515 264.53 219.817 253.003C214.895 250.874 210.583 248.145 209.332 242.459C206.677 241.015 204.919 238.702 203.115 236.43V234.172C195.497 227.874 192.587 217.015 182.922 212.705C175.929 203.292 166.345 196.39 158.84 187.466C158.515 186.531 158.333 185.453 158.452 184.08C154.557 181.707 150.613 179.376 147.964 175.793C147.483 174.659 147.944 174.111 147.579 172.404C141.898 164.305 135.024 158.526 126.218 152.818C116.061 146.23 108.709 139.339 95.1463 137C87.1227 137.124 80.7843 138.89 73.7858 140.013C71.4057 138.912 69.4772 139.583 66.796 140.013C63.5761 137.958 58.3352 139.721 54.3683 138.881C46.9557 142.74 38.7236 145.806 32.6169 150.936C23.8029 153.43 13.9522 154.927 7.37642 159.596C6.00393 161.534 3.80621 162.665 1.93859 164.117C1.02359 168.029 -4.87174 169.029 -3.89015 173.533C-2.02542 174.212 -0.285194 171.842 1.93859 171.648C5.01945 166.355 7.29824 160.276 17.4732 161.857C18.9326 161.261 19.7781 160.074 21.3561 159.596C21.4111 160.925 23.0964 160.669 24.0722 161.101C31.033 158.184 34.9276 152.298 45.4355 152.818C47.1439 151.464 48.3166 149.588 51.6494 149.805C55.7495 141.602 73.2907 146.438 82.3306 143.023C83.7031 143.077 84.0679 144.104 85.4404 144.155C99.2058 141.507 112.192 148.976 118.453 157.339C132.916 165.53 144.695 176.329 151.85 191.611C153.35 191.667 153.645 192.886 155.345 192.74C164.874 203.966 177.878 211.82 184.862 225.509C187.132 226.703 188.447 228.815 191.079 229.654C199.479 241.091 206.819 253.562 218.65 261.666C229.112 280.019 246.242 291.908 256.712 310.253C264.148 315.973 266.346 326.776 274.968 331.345C274.864 332.701 275.687 333.161 275.742 334.358C278.125 335.565 279.992 337.27 281.958 338.879C281.909 340.558 282.917 341.215 283.122 342.647C284.072 343.658 285.002 342.737 286.229 343.773C287.799 347.648 292.478 348.51 292.834 353.565C302.349 363.926 315.639 370.621 321.96 384.074C322.288 384.885 324.439 383.934 324.679 384.826C323.211 386.413 321.888 388.822 323.9 390.855C330.1 389.244 330.905 394.86 334 395C332.72 387.528 329.906 379.766 325.846 373.906C324.836 373.375 323.275 373.384 322.348 372.777Z" fill="white"/>
<path fill-rule="evenodd" clip-rule="evenodd" d="M34 142.847C27.9023 139.826 22.6374 145.627 19 148.686C25.7834 150.032 31.3455 146.86 34 142.847Z" fill="white"/>
<path fill-rule="evenodd" clip-rule="evenodd" d="M343.816 148C343.942 146.511 343.174 145.682 342.211 145C342.106 145.423 341.326 145.342 341.002 145.601C340.951 147.139 342.001 147.857 343.816 148Z" fill="white"/>
<path fill-rule="evenodd" clip-rule="evenodd" d="M74.2096 152.935C92.1148 155.74 109.576 159.04 124 167C118.312 155.606 100.416 152.999 85.5823 149.419C78.8803 149.678 55.1498 147.01 55.0007 152.545C54.8721 157.403 71.6404 154.659 74.2096 152.935Z" fill="white"/>
<path fill-rule="evenodd" clip-rule="evenodd" d="M321.626 328.064C320.021 323.963 318.079 320.183 313.464 319.01C310.827 314.021 307.527 309.681 301.414 308.069C300.133 304.534 296.85 302.947 295.972 299.015C282.311 286.499 273.822 268.96 257.113 259.402C256.991 253.732 251.063 253.71 250.506 248.464C236.547 239.256 226.139 226.593 217.862 211.869C214.185 209.799 209.207 207.774 210.091 202.441C206.029 198.712 202.378 194.583 197.652 191.497C194.367 182.112 183.371 180.21 180.94 169.995C177.315 167.981 173.937 165.731 172.002 162.072C162.695 160.663 160.377 150.481 151.404 150C151.384 150.481 150.909 150.523 151.016 151.133C153.757 159.917 164.219 161.203 166.951 169.995C178.848 176.425 186.361 187.121 194.546 197.159C195.433 197.55 196.887 197.398 197.652 197.91C197.377 199.311 198.316 199.53 198.043 200.928C213.657 218.465 226.864 238.344 245.065 253.367C244.961 254.725 245.784 255.183 245.845 256.384C250.312 258.966 253.355 262.927 255.945 267.326C263.075 270.47 264.999 278.658 271.881 282.038C278.855 294.13 288.917 303.229 297.919 313.351C303.442 314.907 307.101 318.27 308.799 323.536C315.718 326.883 317.445 335.267 324.732 338.249C325.181 338.693 325.175 339.585 325.12 340.513C332.94 344.116 334.667 353.634 340.668 359C341.461 358.637 342.206 358.227 343 357.864C340.505 353.949 340.755 350.526 340.282 346.174C334.731 339.483 329.487 332.502 321.626 328.064Z" fill="white"/>
<path fill-rule="evenodd" clip-rule="evenodd" d="M52.611 152H51V153.608C52.26 153.797 52.794 153.26 52.611 152Z" fill="white"/>
<path fill-rule="evenodd" clip-rule="evenodd" d="M305.044 378.804C304.998 371.541 297.807 371.237 294.56 367.091C292.517 362.909 289.704 359.482 286.411 356.517C286.293 352.101 282.007 351.738 281.365 347.829C273.969 344.072 270.372 336.617 266.231 329.698C258.21 320.88 249.899 312.347 243.718 301.747C238.434 299.207 238.197 291.755 234.012 288.148C232.76 287.607 231.368 287.196 229.747 287.016C225.783 278.528 218.511 273.267 214.61 264.728C207.211 260.971 205.596 251.588 198.307 247.73C196.337 242.092 193.562 237.237 187.051 236.02C184.047 231.514 180.96 227.087 175.794 224.688C175.447 220.748 171.584 220.221 171.138 216.377C170.23 215.498 168.051 215.853 167.258 214.867C165.684 207.475 153.637 207.047 155.226 199.001C152.318 195.267 144.693 195.467 145.133 189.558C135.624 186.852 133.541 176.914 124.174 174.072C120.794 166.575 110.31 162.889 101.276 164.249C85.7947 157.561 62.1677 158.836 45.3843 159.715C40.3088 161.323 36.11 163.787 29.8568 164.249C23.8495 170.777 7.0979 173.281 2.69081 179.738C-1.09124 180.211 -2.37604 183.118 -5.84847 183.892C-7.24323 189.817 -10.9327 193.338 -14 198.624C-7.19693 196.934 -4.88487 190.879 -0.801876 186.537C11.5137 180.772 26.2455 177.353 36.0695 169.161C40.1004 169.265 43.8478 166.28 49.6525 166.894C56.7855 163.193 67.5066 164.57 76.0459 165.761C80.0305 163.542 88.7868 164.401 91.5734 166.894C105.946 170.405 117.848 176.328 128.057 183.892C137.977 195.01 146.828 207.171 160.27 214.867C163.163 220.486 169.33 222.919 171.523 229.222C191.487 244.547 204.15 266.973 221.593 284.749C221.827 285.653 222.154 286.469 221.983 287.77C225.288 289.716 227.939 292.299 230.91 294.566C235.572 307.658 247.306 313.868 251.482 327.434C260.831 336.46 268.06 347.561 277.487 356.517C283.48 364.151 287.337 373.873 297.665 377.294C297.694 380.415 300.582 380.756 299.997 384.467C311.815 388.582 313.974 402.094 326 406C324.579 395.676 314.527 393.744 313.19 383.335C309.888 381.584 307.324 381.446 305.044 378.804Z" fill="white"/>
<path fill-rule="evenodd" clip-rule="evenodd" d="M16 167.884C14.1299 163.739 9 167.152 9 171.211C11.6885 173.233 15.6485 171.096 16 167.884Z" fill="white"/>
<path fill-rule="evenodd" clip-rule="evenodd" d="M125 167.086C125.262 168.508 127.577 171.071 131 170.998C130.577 168.581 127.726 166.553 125 167.086Z" fill="white"/>
<path fill-rule="evenodd" clip-rule="evenodd" d="M126.22 186.821C123.501 187.319 123.098 185.582 121.168 185.316C114.773 176.838 101.582 174.929 89.6775 171.785C88.405 171.384 88.4282 169.731 87.3442 169.153C68.5237 168.265 53.0657 171.418 39.9149 174.041C28.0771 182.645 9.97553 185.189 -1.29991 194.34C-3.57818 200.542 -13.6797 201.153 -12.9638 209C-1.58397 201.458 10.2596 194.362 22.8017 187.947C27.1148 188.732 27.2278 185.456 31.7467 186.442C35.3699 182.897 42.083 180.445 48.4627 180.806C56.7208 176.359 70.0513 174.896 82.292 175.543C83.9528 176.064 84.1818 177.973 85.7905 178.553C93.2949 178.923 105.999 180.478 109.892 186.821C119.573 188.233 123.649 195.066 134 195.842C134.063 190.262 127.31 191.279 126.22 186.821Z" fill="white"/>
<path fill-rule="evenodd" clip-rule="evenodd" d="M133.111 174C132.523 175.234 134.388 176.719 136 177C135.79 175.306 134.954 174.189 133.111 174Z" fill="white"/>
<path fill-rule="evenodd" clip-rule="evenodd" d="M197.649 264.296C195.385 259.968 192.877 255.87 188.328 253.757C185.887 248.966 180.981 246.567 177.451 242.84C175.204 234.709 164.434 232.891 164.634 223.637C159.706 223.02 158.353 218.936 152.981 218.746C148.788 211.269 140.721 207.539 135.114 201.432C124.93 197.879 115.698 193.394 107.54 187.879C96.9505 186.81 86.2737 180.784 75.6895 183.364C66.5735 176.569 58.4537 186.779 46.1668 184.868C34.1521 193.551 12.6449 193.032 5 205.948C16.3255 201.617 28.6269 198.233 39.9524 193.902C51.2866 190.919 63.643 189.255 75.6895 187.879C106.009 189.67 126.98 208.112 148.71 221.757C149.698 226.444 152.515 229.363 157.641 230.039C168.364 245.624 185.713 254.784 193.766 272.954C197.2 275.395 201.136 277.354 202.309 281.988C203.412 282.552 204.866 282.774 206.192 283.119C211.456 295.911 222.287 304.884 229.888 315.492C233.404 320.401 234.881 326.46 240.377 329.795C245.656 343.249 257.85 349.999 263.291 363.299C265.371 364.924 267.05 366.933 269.506 368.194C270.369 371.059 269.572 372.35 269.894 374.59C271.301 375.434 271.695 375.799 273.78 375.345C278.486 385.215 289.791 388.684 294.361 398.684C295.829 400.025 297.404 401.254 299.802 401.695C298.331 405.344 303.259 406.997 305.237 407.342C306.291 414.021 314.559 415.834 320 416C319.997 412.363 316.716 411.902 316.114 408.849C314.779 409.012 313.936 408.697 313.007 408.473C301.82 396.604 292.887 382.549 279.606 372.709C275.862 362.754 266.986 355.87 262.903 347.49C261.293 347.54 259.9 347.386 259.017 346.735C257.839 345.317 259.463 344.102 259.408 342.595C253.098 339.8 253.443 330.558 246.2 328.666C245.523 324.586 240.898 318.063 236.491 315.116C237.855 310.413 230.273 308.521 230.276 302.692C229.442 301.872 227.884 301.749 226.778 301.188C224.294 297.197 220.868 294.115 217.848 290.646C216.883 283.989 207.999 283.203 208.914 275.965C202.343 274.803 205.416 264.301 197.649 264.296Z" fill="white"/>
<path fill-rule="evenodd" clip-rule="evenodd" d="M300.779 417.274C294.546 404.212 278.704 400.475 274.73 385.22C265.3 381.922 264.584 370.173 256.456 365.613C250.705 353.217 241.779 343.894 233.515 333.936C229.219 319.876 215.824 314.641 211.742 300.373C210.064 300.241 208.919 299.597 208.243 298.489C200.605 282.641 186.749 272.826 176.356 259.648C176.168 258.465 177.701 258.653 176.751 257.762C172.504 253.581 166.79 250.823 163.529 245.695C162.112 245.81 160.999 245.633 160.027 245.316C156.616 233.932 143.414 229.085 137.089 219.298C129.474 219.855 129.921 209.436 120.372 210.625C118.694 209.613 117.763 207.872 116.482 206.475C102.759 203.641 89.1461 190.967 74.4869 196.292C71.475 193.157 65.2803 197.313 60.8799 195.162C56.8245 197.015 51.4675 197.596 45.3279 197.425C40.8811 202.286 30.1497 201.055 23.555 203.835C20.862 207.889 13.3802 207.293 8.39137 209.115C7.1101 209.101 6.45498 208.477 4.89542 208.738C-5.13731 211.831 -12.2133 217.791 -16.8832 226.085C-15.1237 227.795 -17.5413 228.542 -16.8832 229.858C-9.92033 226.043 -3.87054 218.095 3.72431 213.642C4.99978 213.661 5.2114 214.713 6.83762 214.395C17.8849 208.558 32.3992 209.936 43.7741 205.345C44.8641 205.798 46.4584 205.758 48.0469 205.722C48.8992 204.158 50.4239 203.248 52.3284 202.705C53.1198 203.068 53.8677 203.475 54.6591 203.835C66.6514 198.133 83.1977 202.592 94.7089 204.591C100.938 209.233 109.507 211.606 117.65 214.395C123.772 220.395 130.21 226.094 138.643 229.858C142.997 236.696 149.206 241.734 155.755 246.449C155.792 252.285 161.726 254.101 162.361 258.139C163.944 258.991 165.816 259.564 167.028 260.779C167.97 262.381 168.483 264.397 169.75 265.682C171.724 266.404 173.4 267.422 174.806 268.699C199.396 297.01 221.349 327.889 244.403 357.693C248.502 370.094 262.43 374.854 264.231 388.24C269.13 391.158 271.399 396.621 275.895 399.93C278.066 407.116 285.235 412.064 291.836 416.143C294.897 422.601 301.651 425.483 306.999 429.72C306.962 430.89 307.478 431.519 307.779 432.36C309.832 433.257 311.287 434.739 314 435C309.8 428.891 308.127 420.33 300.779 417.274Z" fill="white"/>
<path fill-rule="evenodd" clip-rule="evenodd" d="M279.759 417.341C276.244 409.564 270.376 404.076 264.224 398.86C258.31 382.103 244.776 372.746 235.491 359.264C232.454 352.657 229.635 345.847 223.066 342.67C222.418 337.766 217.736 336.782 218.017 330.979C208.412 321.701 201.183 310.117 193.942 298.544C189.997 296.092 187.553 292.178 185.399 287.986C177.149 281.545 171.304 272.767 162.879 266.491C163.163 263.725 159.081 262.221 159.773 258.948C158.236 258.175 156.392 257.708 155.5 256.311C155.506 255.684 156.577 256.097 156.664 255.554C147.015 243.183 132.913 235.128 122.882 223.122C115.7 217.904 105.309 215.801 97.2556 211.434C95.646 211.001 95.7415 212.224 94.5372 212.185C93.0347 209.449 89.4333 207.323 85.2182 208.414C82.4506 205.144 72.3384 205.504 68.52 207.661C56.6679 206.831 43.4986 212.893 30.8561 215.581C29.5216 215.241 29.1684 213.95 27.3619 214.071C12.2935 218.424 -0.0333824 224.505 -10.3048 234.059C-12.5253 241.642 -22.7417 245.275 -21.9571 253.291C-6.79897 244.249 2.84713 226.594 23.8647 221.989C25.0922 221.294 25.9086 220.206 26.5831 218.972C33.7396 219.973 41.7095 220.856 46.3878 217.088C54.5922 217.878 60.8338 213.529 68.9079 212.938C71.2702 214.901 74.3562 213.554 77.451 213.695C88.6141 214.189 106.41 221.432 112.399 226.892C116.276 230.427 122.234 232.294 126.767 235.566C130.814 238.49 132.881 243.81 136.474 246.504C145.281 253.111 152.674 261.146 158.218 271.015C159.845 270.816 160.39 271.673 161.713 271.769C163.053 274.488 165.288 276.346 167.925 277.805C169.292 283.142 173.811 285.414 177.247 288.74C182.111 295.451 186.557 302.579 193.555 307.218C201.29 324.976 215.261 336.673 223.066 354.361C225.249 354.881 227.458 355.373 228.503 357.001C230.138 367.1 236.89 372.234 240.54 380.379C244.833 380.23 246.426 382.71 246.753 386.416C250.696 387.268 250.907 392.585 255.293 393.957C254.068 400.778 259.812 403.828 263.836 406.781C265.179 412.013 268.497 415.331 273.934 416.585C274.385 421.215 276.959 422.45 277.816 426.015C279.35 426.501 278.609 424.772 280.144 425.259C282.089 426.895 284.408 428.157 287.523 428.652C289.35 434.039 294.158 436.542 296.842 441.099C300.507 441.31 300.796 444.802 303.445 446C303.839 444.341 304.103 441.709 305 440.346C295.493 433.736 292.363 420.932 279.759 417.341Z" fill="white"/>
<path fill-rule="evenodd" clip-rule="evenodd" d="M300 457.733C298.228 453.03 292.816 451.865 292.219 446.024C288.457 440.992 279.653 440.849 278.214 433.558C272.53 428.881 269.667 421.463 263.435 417.318C263.673 416.414 263.992 415.598 263.821 414.297C250.129 405.939 246.919 387.398 233.094 379.17C232.818 377.771 233.758 377.545 233.482 376.146C226.171 369.647 221.998 360.109 217.532 350.844C209.342 346.832 208.707 335.489 201.581 330.445C201.755 329.147 201.433 328.328 201.195 327.427C199.986 327.215 198.661 327.117 197.695 326.672C195.108 317.779 187.846 311.646 184.856 304.386C177.374 294.654 168.377 286.392 159.573 277.944C159.036 277.46 159.187 276.303 159.184 275.3C147.435 264.678 138.172 251.637 126.511 240.931H122.619C116.529 235.257 111.807 228.259 102.002 226.198C96.9905 222.126 90.9785 219.023 81.3849 219.4C75.6687 215.796 67.7281 220.256 61.1593 220.535C48.8889 221.228 36.3371 224.877 24.5915 227.333C22.9645 228.521 21.8074 230.171 19.9252 231.109C18.3765 231.483 18.7535 229.98 17.1991 230.354C11.5235 235.293 5.07071 239.472 -1.4691 243.572C-8.05531 251.409 -15.2882 258.613 -23.2549 265.103V267.748C-24.0467 267.536 -24.0177 266.61 -24.8094 267.367C-24.5339 269.933 -25.6243 271.476 -24.4208 273.036C-20.9812 273.481 -19.4528 269.136 -15.8625 268.502C-14.9837 265.072 -11.8922 263.797 -9.25016 262.082C-2.55955 250.573 10.6767 245.42 20.7024 237.155C28.0659 232.846 36.7344 229.805 48.7119 229.977C56.8642 225.516 70.2164 225.975 81.3849 225.443C92.0255 227.448 100.413 231.647 108.614 236.02C116.906 245.47 128.625 251.59 137.79 260.192C150.774 279.563 168.366 294.46 182.133 313.071C191.718 332.343 204.806 348.217 216.755 365.194V367.839C227.337 379.469 235.063 393.872 247.099 404.097C247.612 413.167 256.907 413.711 257.6 422.607C259.734 424.69 261.153 427.467 264.99 427.895C265.703 432.739 269.781 434.324 272.768 436.957C272.298 440.314 274.215 441.341 275.491 443.003C283.893 443.36 284.853 452.693 292.219 452.822C293.04 455.399 296.836 458.085 299.611 460C299.832 459.333 299.142 457.781 300 457.733Z" fill="white"/>
<path fill-rule="evenodd" clip-rule="evenodd" d="M69.8112 231.706C68.609 231.742 67.9543 231.249 67.091 230.956C58.8434 233.843 47.7162 233.336 39.5063 236.938C36.5659 235.261 34.0137 238.331 30.5692 238.434C28.3733 244.048 21.7451 245.393 15.8006 247.399C7.06339 253.32 -2.23291 258.702 -7.90223 267.578C-9.29566 267.358 -9.78234 268.013 -10.6225 268.328C-15.1185 275.755 -23.763 280.611 -25 290C-14.4464 285.423 -10.8368 272.267 0.258467 269.448C1.05802 266.974 1.70404 264.36 4.14617 263.469C5.50773 263.653 6.67231 264.023 8.41916 263.845C20.5545 253.955 32.6376 242.053 51.9371 240.301C62.6326 237.094 73.6468 237.626 86.5208 236.562C95.7099 237.275 102.103 246.377 111 243.663C102.784 235.695 85.4403 226.025 69.8112 231.706Z" fill="white"/>
<path fill-rule="evenodd" clip-rule="evenodd" d="M-18.3306 230.982C-17.5752 230.984 -17.8479 231.87 -16.8113 231.634C-16.8057 230.984 -15.7692 231.22 -16.0474 230.326C-17.7116 229.81 -18.731 230.3 -20.9972 230C-21.0511 231.371 -20.3043 231.827 -20.9972 232.94C-18.1972 233.371 -19.4637 231.364 -18.3306 230.982Z" fill="white"/>
<path fill-rule="evenodd" clip-rule="evenodd" d="M45.2435 256.461C51.3097 250.095 66.5466 253.919 75.2954 249.625C79.2494 249.656 82.4702 250.831 86.2205 250.007C92.0307 251.442 95.7258 254.932 101.44 256.461C111.009 256.39 117.646 259.172 121.736 264.435C134.919 267.945 136.371 284.846 151 285.696C149.292 275.205 138.641 273.422 135.391 264.435C127.023 258.148 119.22 251.315 105.342 250.386C90.6342 239.604 68.9819 245.492 48.7581 246.587C46.963 248.382 44.7023 249.732 42.1245 250.765C40.7687 251.071 40.6232 250.199 39.3925 250.386C33.1081 252.501 28.674 256.41 22.6107 258.739C19.3433 263.532 14.4147 266.713 8.5608 268.989C6.00337 271.183 5.04325 274.928 0.364809 275.067C-1.09866 277.184 -0.769888 281.048 -4.31363 281.138C-5.86147 281.121 -4.25253 278.036 -6.26589 278.483C-9.07644 279.986 -7.42095 281.348 -6.65576 283.799C-8.43636 289.024 -14.8663 289.729 -16.4141 295.187C-17.7612 295.495 -18.0609 294.476 -18.7534 295.187C-19.4313 301.25 -24.5432 304.978 -25 309.994C-21.1857 310.161 -20.8976 306.897 -19.1461 305.057C-8.47709 301.137 -6.30953 288.948 4.26933 284.934C5.22072 283.335 3.46922 282.89 3.87946 280.759C20.8039 275.712 28.4965 261.68 45.2435 256.461Z" fill="white"/>
<path fill-rule="evenodd" clip-rule="evenodd" d="M290.582 472.367C287.339 471.243 283.205 470.988 282.041 467.853C271.441 466.709 268.421 458.225 259.903 455.068C259.518 454.188 259.223 453.218 259.13 452.057C243.805 449.724 234.914 441.159 227.67 431.001C227.568 429.523 229.08 429.599 228.836 427.989C227.927 426.988 226.129 426.848 224.563 426.489C221.778 420.784 216.856 417.153 214.467 411.066C211.65 410.031 210.196 407.682 209.42 404.673C205.39 400.678 202.451 395.628 199.707 390.385C198.612 380.665 190.363 377.875 191.168 366.312C191.678 364.554 193.059 363.635 193.105 361.425C191.988 358.874 190.097 357.071 186.507 356.911C185.812 355.952 185.407 354.719 184.567 353.906V350.897C182.158 346.582 179.79 342.231 174.08 341.118C163.272 326.51 152.858 311.529 141.847 297.118C133.583 291.457 126.936 284.232 117.766 279.446C113.779 273.407 105.922 271.113 103.012 264.023C95.1394 261.241 88.3499 257.414 80.0983 255C75.2225 256.921 68.2101 256.772 61.8462 257.257C60.4738 257.93 59.197 258.698 57.5756 259.136C45.0997 261.219 36.8422 267.39 28.0636 273.051C18.6278 274.321 17.4986 283.632 8.64475 285.46C2.26348 293.322 -5.36279 299.975 -10.7741 308.776C-12.1639 308.555 -12.6503 309.214 -13.4899 309.53C-13.5478 314.238 -17.416 315.258 -19.3153 318.18C-16.7414 320.451 -21.1423 320.942 -19.7033 323.818C-13.9127 323.033 -13.377 317.165 -10.3862 313.666H-7.66746C-2.51959 307.492 4.73318 303.365 7.48083 294.861C12.0381 291.502 16.381 287.941 20.6835 284.333C22.6957 284.277 23.8104 283.349 25.3449 282.83C29.0654 274.646 41.0984 274.52 46.3128 267.785C56.5796 263.689 68.6154 265.935 78.1584 261.393C83.0457 262.175 85.5212 265.293 90.976 265.531C92.0414 266.753 93.961 267.151 94.8557 268.537C97.6207 268.747 99.4129 269.894 101.46 270.794C112.804 285.508 132.266 292.357 141.456 309.155C142.906 310.383 144.583 311.389 146.117 312.539C154.525 326.961 166.257 338.165 174.08 353.151C175.044 354.222 176.996 354.343 177.578 355.784C184.338 375.057 194.701 390.848 203.204 408.436C209.944 416.951 213.708 428.348 222.623 434.76C225.261 439.098 228.231 443.116 233.107 445.289C235.915 452.096 243.423 454.359 250.971 456.571C258.12 462.209 265.844 465.675 273.882 470.862C275.135 470.943 275.529 470.197 276.991 470.486C279.157 470.895 279.27 473.293 280.871 474.246C283.028 472.959 288.428 474.826 290.973 475C291.164 473.814 290.275 473.671 290.582 472.367Z" fill="white"/>
<path fill-rule="evenodd" clip-rule="evenodd" d="M282.644 457.696C280.768 455.115 278.524 452.895 276.822 450.149C270.98 449.532 268.655 445.503 264.781 442.978C264.231 442.475 264.231 440.84 264.781 440.336C260.629 437.258 255.201 433.633 255.073 427.878C253.886 426.77 251.356 426.961 250.803 425.236C249.474 415.204 239.5 413.58 238.765 402.969C229.089 395.891 224.245 384.115 215.852 375.793C211.961 362.714 199.691 357.787 196.046 344.465C183.907 335.755 183.417 315.728 171.194 307.097C171.492 305.674 170.722 305.294 170.806 304.078C163.976 299.77 158.739 293.914 152.554 288.978C131.422 287.123 128.849 267.231 110.612 262.56C109.512 260.677 106.99 258.361 104.404 259.163C104.1 259.248 103.947 259.478 104.017 259.917C110.985 270.124 121.327 277.058 132.363 283.322C133.521 288.733 139.384 289.574 142.456 293.131C159.248 293.168 162.589 306.279 170.033 315.402C172.931 323.278 180.062 327.038 180.516 337.295C184.15 344.451 189.468 349.978 194.106 356.166V359.562C202.117 367.878 210.114 376.216 215.076 387.494C227.662 400.169 236.538 416.456 249.248 429.01C248.64 429.049 247.902 428.962 248.081 429.767C251.599 436.289 258.05 439.962 260.508 447.506C273.206 451.274 278.64 464.103 291.967 466C292.54 461.092 285.542 460.473 282.644 457.696Z" fill="white"/>
<path fill-rule="evenodd" clip-rule="evenodd" d="M243.799 460.701C237.603 460.326 235.512 455.943 229.858 455.037C230.655 453.08 229.72 452.01 228.697 450.884C226.587 450.285 225.674 452.196 224.435 451.259C225.385 449.223 225.836 447.759 224.435 445.977C223.058 446.521 222.61 447.973 220.56 447.861C218.678 439.379 211.981 435.581 210.491 426.719C204.82 425.326 204.592 418.626 200.807 415.388C201.075 414.544 201.973 413.497 201.199 412.748C192.851 404.269 188.266 392.127 181.056 382.542C180.496 381.323 180.692 379.372 180.672 377.632C174.227 366.039 167.447 354.779 161.689 342.513C148.386 332.328 144.424 313.034 130.706 303.245C131.032 302.806 131.22 302.232 131.095 301.359C129.224 301.168 127.677 300.661 126.06 300.228C115.303 289.944 105.246 278.985 88.4925 274.548C86.939 273.295 85.3105 272.116 83.8436 270.773C59.1839 267.401 35.9449 275.288 24.1984 290.031C2.86808 302.967 -9.65522 324.491 -24.6012 343.648V346.669C-26.8101 347.108 -27.5869 350.703 -26.5387 353.087C-22.1092 351.744 -22.4961 345.7 -18.0176 344.405C-17.4169 341.086 -15.4621 339.09 -14.5323 336.098C-8.45977 333.457 -5.4163 327.869 -2.13893 322.504C6.72007 317.932 11.5423 309.408 17.225 301.737C32.4481 289.764 46.984 277.13 72.2241 274.928C74.7882 275.517 77.1358 275.88 79.9714 275.305C81.3661 275.832 82.1428 276.966 83.0697 277.949C87.3895 278.137 89.0527 280.922 93.1386 281.347C111.168 296.115 134.664 305.557 142.325 330.431C149.495 339.555 156.899 348.445 161.689 359.886C162.714 360.775 163.834 361.575 165.174 362.149C171.937 375.822 177.591 390.576 186.866 401.797C194.904 415.985 202.034 431.06 211.265 444.089C210.584 449.933 217.012 452.061 218.623 456.923C226.665 456.641 226.578 464.276 234.891 463.721C237.135 468.586 242.165 470.731 248.835 471.274C253.164 481.023 267.059 481.451 276.72 486C276.98 484.348 278.412 483.872 277.884 482.222C265.701 475.846 252.664 470.311 243.799 460.701Z" fill="white"/>
<path fill-rule="evenodd" clip-rule="evenodd" d="M-14.3272 380.791C-12.0285 372.836 -8.07831 366.475 -6.15112 358.153C-2.87432 355.754 -0.43922 351.089 -0.703339 346.456C2.04813 343.46 5.18851 340.844 5.91701 335.89C19.0242 325.886 22.4229 307.352 40.171 301.931C43.3723 296.614 50.37 293.357 58.4706 294.006C61.6516 293.061 63.2798 290.616 66.2577 289.477C75.6817 288.912 79.9744 294.819 90.005 294.006C96.0942 298.668 102.909 302.629 111.021 305.327C116.968 311.384 122.982 317.381 129.321 323.061C130.833 325.751 131.895 328.868 133.605 331.363C135.77 332.424 138.327 333.982 141 332.497C138.063 318.864 125.736 314.335 118.422 304.947C114.995 304.623 113.149 302.767 110.246 301.931C102.07 293.849 94.0713 291.562 81.4401 287.592C75.6324 285.766 71.4762 283.28 65.8659 284.197C53.4436 286.219 41.5148 288.898 35.8929 297.025C26.8868 301.881 19.7237 308.523 13.7012 316.267C13.1411 317.232 13.3326 318.929 12.5345 319.666C11.5709 320.74 9.48695 320.738 8.25053 321.551C-4.07011 338.011 -12.6409 360.927 -19 380.791C-17.7636 381.188 -15.462 380.921 -14.3272 380.791Z" fill="white"/>
<path fill-rule="evenodd" clip-rule="evenodd" d="M245.955 486.202C246.178 480.925 242.76 476.98 238.588 478.274C235.699 475.928 233.687 472.728 230.443 470.724H227.34C222.65 465.729 217.46 461.218 210.275 458.649C208.179 456.159 208.257 451.552 205.62 449.588C206.247 439.671 197.903 438.478 197.09 429.963C194.765 427.697 193.531 424.363 191.657 421.655C188.393 413.768 186.134 404.892 179.25 400.522C177.399 403.536 179.652 407.852 180.025 411.091C183.414 416.472 185.981 422.657 188.557 428.829C192.334 433.916 200.152 440.836 198.64 447.323C192.322 440.636 183.243 436.643 182.352 424.678C181.39 424.104 180.045 423.901 179.635 422.79C178.521 416.39 176.35 410.762 174.982 404.673C179.996 395.032 169.601 388.278 165.287 382.782C164.874 371.861 159.516 365.748 154.04 359.754C149.043 347.254 141.13 337.594 129.998 331.071C127.08 325.603 123.83 320.467 116.81 318.993C112.311 314.186 107.179 309.996 99.7476 308.046C98.0995 307.255 97.8103 305.148 95.0895 305.404C95.1416 304.472 95.1502 303.586 94.7021 303.138C89.9457 301.982 85.3715 300.645 82.2921 297.856C67.9044 292.991 51.3829 298.366 43.1221 306.158C27.6183 311.828 22.2287 327.342 12.0972 338.241C12.3025 339.701 11.4061 340.084 11.7097 341.638C-1.39416 353.113 -7.56734 372.421 -11.5633 390.709C-15.6575 398.124 -17.1119 406.606 -16.9934 417.508C-16.0189 418.006 -15.779 416.013 -15.4378 417.128C-13.5005 416.962 -16.2936 416.331 -15.8252 415.242C-14.8392 414.944 -13.9458 414.558 -13.4976 413.734C-11.4881 390.523 0.910297 375.42 5.89221 356.358C11.5825 350.201 16.6888 343.467 20.2423 335.221C30.1714 324.756 42.0783 316.215 52.4296 306.158C58.5565 302.477 66.7392 298.976 75.7026 301.253C115.549 318.582 145.247 345.794 161.02 386.556C169.205 407.022 176.471 428.389 182.74 450.722C186.247 454.701 188.101 461.618 192.822 465.442C197.946 476.811 212.206 482.563 220.357 492.241C222.046 492.235 223.847 492.117 225.012 492.618C224.68 493.802 223.544 494.211 223.46 495.637C224.625 496.391 226.559 496.397 226.175 498.657C229.144 498.159 229.821 499.889 231.605 500.545C232.698 499.844 234.025 499.377 235.482 499.037C234.846 508.101 250.865 512.994 257.203 513C258.145 512.288 258.975 511.452 258.755 509.603C252.504 508.7 250.061 507.088 244.015 505.453C240.354 502.408 243.948 496.69 240.522 493.749C237.648 494.965 235.315 491.607 231.995 492.995C231.726 491.475 232.365 490.842 232.383 489.601C225.912 487.339 221.904 482.684 215.315 480.54C209.688 472.238 198.391 467.665 196.312 457.135C195.19 455.714 193.704 454.645 192.822 452.984C188.589 454.369 182.379 444.568 185.455 441.286C193.889 448.927 202.653 456.249 208.335 466.574C213.45 470.654 219.88 473.454 224.235 478.274C226.25 478.775 226.64 476.361 228.115 477.523C227.944 478.885 227.12 479.344 227.727 480.54C229.289 481.944 232.417 481.975 233.935 480.54C239.253 485.594 247.138 490.741 254.875 489.221C254.476 490.091 252.279 489.21 252.547 490.732C261.149 491.056 262.841 498.381 270 498.277C268.259 496.451 267.788 493.389 266.898 490.732C259.487 489.683 253.843 481.041 245.955 486.202Z" fill="white"/>
<path fill-rule="evenodd" clip-rule="evenodd" d="M179.568 340C182.051 332.801 173.148 327.62 170.329 321.91C168.392 317.65 166.721 313.127 164.17 309.474C163.094 308.766 161.662 308.414 160.321 307.965C158.263 303.194 155.063 299.544 150.695 297.035C149.134 296.888 148.014 297.172 148 298.543C149.731 305.641 156.317 307.987 158.395 314.751C166.721 321.921 169.629 334.4 179.568 340Z" fill="white"/>
<path fill-rule="evenodd" clip-rule="evenodd" d="M31.5038 342.094C39.4745 335.764 42.8195 324.985 52.9244 320.709C57.5471 311.907 71.5314 312.122 82.9139 309.834C83.4656 308.408 81.2414 306.797 79.7982 306.078C71.7172 305.675 65.3232 306.895 59.1529 308.329C52.001 314.941 42.4217 319.223 36.954 327.463C33.336 328.381 30.8998 331.924 30.7256 334.967C26.0245 338.693 22.3949 343.456 20.9895 350.348C20.0545 350.577 19.2095 350.887 17.8709 350.722C6.28801 363.983 -0.428261 383.396 -6.66542 400.616C-6.66542 407.665 -8.84901 415.057 -9 423.126C-7.92563 423.216 -7.81238 424.234 -7.44361 425C-2.43472 424.284 -1.97884 416.833 -3.93594 412.624C0.00439072 402.53 4.15379 390.668 6.57838 380.358C13.1059 371.766 14.3371 358.07 25.2724 353.723C25.435 352.384 26.3091 351.721 26.0535 349.976C27.5199 349.136 28.3358 347.674 30.3365 347.346C30.624 345.498 31.1495 343.878 31.5038 342.094Z" fill="white"/>
<path fill-rule="evenodd" clip-rule="evenodd" d="M-25.4292 313.999C-24.2172 313.247 -24.4722 310.725 -26.6352 311.025C-27.2442 312.207 -27.2442 314.049 -25.4292 313.999Z" fill="white"/>
<path fill-rule="evenodd" clip-rule="evenodd" d="M345 313.611C345.738 316.347 348.722 314.391 347.838 312C346.481 312.009 345.411 312.39 345 313.611Z" fill="white"/>
<path fill-rule="evenodd" clip-rule="evenodd" d="M16.4295 436.515C15.6417 434.769 15.0732 432.809 15.2665 430.105C17.9675 424.186 17.8637 415.541 23.0089 412.001C28.9159 390.164 35.1778 364.666 44.6833 344.123C52.0015 339.312 55.6375 330.911 62.1014 325.269C70.4728 321.701 81.3865 320.011 91.9049 319.615C97.0674 320.61 100.141 323.652 107 323.008C106.377 320.596 103.982 319.913 102.354 318.479C93.9826 314.919 82.1224 311.262 73.3268 316.969C67.6766 315.395 64.4619 319.378 61.328 321.496C60.8115 322.125 59.1349 321.625 58.6184 322.249C47.3324 329.986 39.5641 341.148 34.2342 354.683C31.3197 357.247 28.8841 360.283 29.5883 366.37C27.0806 372.603 26.2149 380.433 22.6193 385.604C22.7636 388.008 21.9325 389.461 22.2355 392.017C16.4872 401.376 15.1309 415.012 11.0101 425.955C10.6696 458.729 18.9285 482.728 34.2342 501C23.6668 484.145 19.1738 461.366 14.8798 438.401C14.5624 436.962 16.7469 437.954 16.4295 436.515Z" fill="white"/>
<path fill-rule="evenodd" clip-rule="evenodd" d="M-21.4536 325.411C-25.2115 323.604 -25.6858 328.17 -26 330.983C-24.2011 330.989 -22.2822 331.114 -21.0377 330.586C-21.2072 328.888 -20.6373 326.485 -21.4536 325.411Z" fill="white"/>
<path fill-rule="evenodd" clip-rule="evenodd" d="M230.829 505.602C229.826 504.2 228.959 506.975 228.495 505.982C226.27 499.949 217.793 499.997 214.885 494.632C213.948 493.351 212.817 496.112 211.77 494.632C211.483 493.342 213.202 494.008 213.324 493.117H210.212C209.551 491.619 208.49 490.505 208.658 488.2C207.44 488.121 205.801 488.454 205.155 487.819C202.687 483.492 200.001 477.941 194.653 477.605C187.705 466.836 179.248 457.53 176.757 442.419C176.008 441.008 174.413 440.416 174.036 438.633C176.069 433.071 172.792 427.974 171.316 423.503C165.78 420.939 165.005 413.748 161.589 409.125C159.289 394.976 152.625 380.536 145.641 368.638C144.76 367.423 145.983 366.133 145.253 365.234C144.562 363.383 141.909 363.442 141.361 361.451C140.885 360.024 140.578 358.433 140.586 356.531C130.943 343.968 123.406 329.35 104.019 326.264C100.306 328.095 94.889 326.428 91.9599 325.131C75.8381 324.417 61.0591 326.366 56.1724 337.615C54.8006 337.793 54.0437 338.572 53.0605 339.13C40.5378 357.437 34.5432 383.766 27 407.991C27.7714 444.261 33.1947 478.406 49.9516 500.307C51.1 506.882 54.9485 510.834 60.4529 513.17C48.8466 497.351 42.2779 478.184 35.9469 456.794C35.9701 449.753 34.8651 443.556 32.8351 437.877C31.7968 420.053 32.8467 401.469 39.8389 387.935C41.5557 379.518 43.6322 371.448 49.5601 367.126C47.7707 359.88 51.5554 355.685 53.0605 350.478C53.7072 349.846 55.3458 350.176 56.561 350.103C60.0643 337.869 67.5147 329.48 83.7931 329.669C85.2606 330.259 86.702 330.876 88.4565 331.187C108.665 328.185 116.666 340.32 126.97 348.207C134.508 360.424 142.1 372.587 147.584 386.801C158.88 420.211 173.247 453.905 190.767 482.525C195.178 485.168 199.067 488.319 200.88 493.495C207.976 498.823 216.39 502.874 221.494 510.143C230.626 510.473 235.078 522.295 246 519.601C242.21 513.706 233.332 512.755 230.829 505.602Z" fill="white"/>
<path fill-rule="evenodd" clip-rule="evenodd" d="M61.1519 475.495C60.6679 469.445 58.2711 465.233 56.8482 460.079C56.8802 456.857 56.6615 453.385 57.2418 450.683C53.1334 441.051 55.7576 427.121 52.5473 416.477C56.4953 404.626 52.7018 391.651 57.2418 381.902C56.4837 378.256 55.4661 376.49 56.0667 372.127C61.1519 362.352 65.9426 352.297 72.1038 343.56C76.3347 341.116 82.6329 340.648 85.7907 337.17C79.9183 328.603 70.3514 339.827 65.065 342.433C60.1722 351.261 52.3607 357.289 52.9409 371.373C48.573 375.072 45.0886 379.618 43.5519 386.035C42.9309 394.801 37.9011 405.136 43.9456 411.968C48.6342 403.278 44.1584 385.943 51.3722 380.772C51.623 395.83 49.095 408.819 46.2899 422.494C46.2199 424.19 48.713 423.424 48.2435 425.501C45.8584 431.963 48.3398 442.069 50.5937 447.676C49.8356 454.615 53.0342 463.056 53.3288 471.359C53.9965 473.099 55.813 473.735 56.4604 475.495C57.1485 493.924 69.2171 504.203 76.0169 517.968C75.0838 519.224 73.7629 516.659 72.8853 517.968C76.2268 520.518 80.2215 522.443 83.8342 524.736C82.7466 520.359 77.0899 520.23 78.7519 514.207C77.988 512.436 75.3287 512.487 74.4511 510.825C71.7802 500.988 64.4556 493.615 61.5427 485.267C70.5672 492.382 74.279 504.604 82.665 512.33C85.2601 515.976 87.549 519.91 90.4882 523.231C92.0452 523.604 91.6632 522.107 93.2232 522.48C93.0045 523.396 91.707 523.279 92.051 524.736C96.2732 526.938 97.5765 531.949 103 533C93.2349 522.841 86.473 509.796 77.1861 499.175C73.6988 489.499 65.0154 484.81 61.1519 475.495Z" fill="white"/>
<path fill-rule="evenodd" clip-rule="evenodd" d="M65.0748 452C69.5657 461.929 73.3391 474.554 77 484C68.0391 478.558 64.4197 464.145 65.0748 452Z" fill="white"/>
<path fill-rule="evenodd" clip-rule="evenodd" d="M222.21 515.526C216.44 513.84 211.075 511.752 209.372 506.132C203.196 504.703 200.353 498.912 198.473 494.483C194.992 494.343 193.718 492.059 190.692 491.476C191.174 489.008 188.772 489.322 189.137 486.969C181.04 483.514 180.898 472.377 173.57 468.178C172.676 457.893 169.032 450.264 163.453 444.506C158.669 432.338 154.123 419.944 147.889 409.18C139.351 386.861 135.46 360.052 117.148 347.175C112.811 338.885 103.145 334.862 89.9096 336.28C79.9674 345.968 64.748 350.56 63.8371 368.97C56.0824 386.55 59.056 413.814 58 430.601C59.4622 433.574 59.9089 437.524 61.1129 440.746C61.0549 441.441 59.7958 440.979 59.555 441.497C59.996 442.825 59.9844 444.59 60.3354 446.008C57.4198 472.254 72.2707 484.579 81.7371 500.12C85.8219 503.19 88.7839 507.342 91.8533 511.394C97.8181 521.539 111.256 524.472 119.87 532.062C112.602 523.052 102.721 516.56 92.6308 510.265C93.0022 509.124 94.183 508.757 93.8 506.886C93.3764 505.664 91.894 505.465 91.0758 504.628C90.6755 502.888 89.2974 502.089 89.5208 499.744C85.3055 496.298 82.8975 491.112 80.1792 486.218C79.0593 470.433 72.9728 455.315 67.7275 443.377C69.4769 436.947 63.1147 431.422 65.7808 426.469C64.838 424.998 63.8835 423.541 62.6679 422.334C64.9221 421.628 64.5856 418.422 66.1696 417.072C64.6581 416.655 63.0886 416.293 63.0596 414.441C65.073 410.679 65.0991 408.925 63.8371 404.672C64.6784 402.977 66.5583 402.288 66.95 400.161C64.4753 376.876 70.8781 355.928 86.4079 347.551C87.7511 347.881 88.9609 348.341 89.5208 349.431C91.8678 360.615 87.2899 370.923 87.1825 381.373C87.0433 395.891 91.6735 411.763 95.355 424.962C99.7154 440.595 105.428 456.086 113.258 467.427C112.907 468.091 112.318 468.522 112.089 469.307C121.636 485.388 129.116 503.468 144.384 514.024C145.829 514.246 146.644 512.867 147.497 513.649C151.901 521.298 162.368 523.088 166.178 531.308C173.877 534.39 179.236 539.744 186.413 543.336C187.988 543.949 188.203 541.347 189.137 542.588C189.477 543.79 188.125 543.364 187.971 544.087C190.065 545 194.791 545.182 196.918 544.837C194.832 540.576 185.049 540.529 183.689 534.317C176.276 533.084 173.848 527.036 165.786 526.425C165.217 524.996 167.527 526.349 166.958 524.923C160.657 518.602 153.001 513.596 149.833 504.255C145.87 501.778 144.756 494.684 138.936 495.234C136.783 502.213 146 504.35 147.108 510.643C140.648 508.354 134.66 502.381 134.66 492.603C130.671 489.695 129.539 484.018 124.152 482.458C125.686 480.037 122.971 479.648 121.816 478.701C121.88 472.375 118.376 469.494 114.421 467.051C115.19 466.037 114.653 463.768 114.813 462.165C106.771 436.109 92.6802 413.895 91.8533 382.124C95.4391 393.443 98.7609 405.016 101.195 417.447C105.805 421.885 107.348 429.29 110.92 434.734C111.195 444.739 116.467 449.925 118.317 458.408C124.099 468.895 130.818 480.278 138.161 490.35C147.454 492.897 149.067 502.863 157.228 506.51C156.54 507.3 156.348 507.62 156.836 508.763C164.492 515.652 169.479 525.119 182.131 527.176C175.09 518.566 164.451 513.439 158.783 503.504C154.352 501.641 150.961 498.783 149.833 493.732C137.932 485.058 132.887 469.761 124.538 457.657C125.013 453.766 122.043 452.824 121.036 450.516C119.643 447.316 119.046 444.254 117.926 441.873C113.055 431.546 113.403 418.442 105.083 412.186C101.595 396.138 94.7922 383.295 93.4112 365.213C95.9788 362.68 95.9178 357.612 95.7467 352.437C103.481 352.79 107.595 359.738 111.697 364.837C115.196 380.017 124.717 394.586 125.707 412.186C128.109 413.632 128.959 416.358 128.039 420.078C132.417 423.244 132.727 430.332 133.879 436.611C137.262 445.246 141.245 453.298 145.553 461.036C146.937 468.973 152.345 473.016 156.061 478.701C157.703 479.494 159.499 480.138 160.34 481.707C160.021 482.494 158.739 483.172 159.563 483.962C170.196 498.747 182.433 511.974 199.25 520.788C199.132 521.668 198.49 522.343 199.25 523.043C203.849 524.87 206.79 528.291 213.257 528.302C213.768 529.568 213.794 531.297 214.818 532.062C217.644 532.636 220.551 534.976 224.154 533.566C224.514 530.854 218.7 530.933 219.878 527.176C217.925 526.1 214.275 527.408 213.257 527.176C214.139 526.498 214.177 525.279 213.649 524.172C204.829 520.037 195.375 516.515 191.858 507.261C182.83 505.454 181.211 496.5 173.57 493.356C174.536 490.168 170.703 489.781 172.015 486.969C170.445 485.98 168.641 485.218 168.513 482.833C168.171 481.133 170.457 481.956 170.46 480.578C166.679 479.956 165.632 475.585 161.507 476.448C152.429 462.042 139.351 446.053 140.883 426.091C135.582 423.065 137.346 413.22 132.716 409.558V400.915C122.063 383.264 121.726 355.656 101.97 346.797C97.1218 347.912 92.0883 346.453 91.4646 342.292C106.73 340.11 117.891 351.563 121.816 364.086C131.941 377.857 137.056 396.466 141.663 415.568C144.23 417.977 146.157 421 146.72 425.34C147.703 426.267 149.081 426.816 149.833 427.968C150.424 429.153 151.129 430.223 151.39 431.728C156.16 435.891 157.985 442.898 160.729 449.014C163.59 453.724 170.689 461.655 167.733 467.051C163.326 465.045 161.428 460.613 160.34 455.402C151.997 450.429 155.014 432.493 144.776 430.601C143.697 433.232 145.817 435.793 145.165 439.245C153.563 451.802 158.249 467.945 172.4 474.944C172.56 476.723 171.707 477.53 172.015 479.454C186.636 499.405 205.929 514.843 229.994 525.677C231.961 525.699 232.222 525.198 233.884 525.677C234.099 526.344 234.081 527.234 234.665 527.554C234.102 524.592 236.533 526.402 237 524.923C230.162 524.758 229.738 518.406 222.99 518.157C222.471 517.529 221.958 516.899 222.21 515.526Z" fill="white"/>
<path fill-rule="evenodd" clip-rule="evenodd" d="M-8.38318 346.106C-8.4175 343.913 -8.46611 341.701 -8 340C-14.5026 341.672 -13.9679 350.34 -19.1237 353.351C-20.2647 360.637 -26.4127 370.118 -22.9584 377C-22.8526 369.987 -19.5498 366.151 -16.0554 362.505C-15.4806 355.066 -11.1798 351.332 -8.38318 346.106Z" fill="white"/>
<path fill-rule="evenodd" clip-rule="evenodd" d="M166.421 536.144C163.598 535.22 162.349 532.781 159.374 531.998C157.065 527.186 151.694 525.324 148.801 521.074C137.967 517.183 132.059 508.551 126.48 499.597C125.485 498.804 123.798 498.664 122.569 498.088C122.872 495.67 120.327 489.785 116.304 489.046C110.034 474.58 102.876 460.474 99.4662 444.965C97.1074 441.713 95.7763 437.468 92.8104 434.794C95.3326 432.853 91.9317 429.23 92.4192 425.749C91.6865 424.32 89.8036 424 89.284 422.362C89.7948 415.112 88.6388 410.348 86.9399 403.522C85.019 395.826 85.7167 386.492 83.4135 381.292C85.3401 377.278 85.1475 370.978 83.8046 366.602C84.6366 362.978 87.693 359.582 86.5487 355.298C83.0749 353.911 81.805 357.717 80.2783 359.442C79.1281 373.453 81.9743 387.742 81.0635 402.39C83.4981 416.134 88.1251 427.525 87.3281 441.951C89.9875 441.527 90.9246 442.76 92.4192 443.46C100.949 466.145 108.381 489.889 124.525 505.248C125.062 505.993 124.898 507.403 125.31 508.265C140.16 523.61 157.78 536.293 176.212 548.2C179.108 548.804 182.298 549.124 186 548.955C179.052 546.469 174.904 541.293 167.206 539.534C166.742 538.596 166.637 537.315 166.421 536.144Z" fill="white"/>
<path fill-rule="evenodd" clip-rule="evenodd" d="M-26.1651 356.636C-26.0781 356.321 -25.8291 356.165 -25.3611 356.231C-25.2381 355.172 -25.9161 354.911 -26.9721 355.025C-27.0831 355.94 -26.8731 356.537 -26.1651 356.636Z" fill="white"/>
<path fill-rule="evenodd" clip-rule="evenodd" d="M6.35402 420.526C7.0639 415.777 10.2997 411.437 11.3232 406.907C12.7885 400.455 14.1855 395.091 16.2952 389.507C17.1305 387.404 14.405 386.865 15.1491 386.103H17.4441C18.6158 381.543 19.377 377.965 22.7953 375.136C21.0676 370.136 28.5085 366.568 25.0903 360.003C18.4733 359.806 17.9744 368.816 16.2952 374.755C13.2504 377.04 12.1585 381.256 12.4749 386.859C6.04327 391.371 8.04177 403.171 2.91297 409.556C3.3349 417.035 1.90089 422.675 1 428.848C2.30572 443.572 3.26648 460.851 9.79508 470.456C9.67819 471.835 9.8578 472.918 10.1771 473.863C11.2547 474.181 11.748 475.084 13.239 474.994C6.26849 458.702 3.70267 438.231 6.35402 420.526Z" fill="white"/>
<path fill-rule="evenodd" clip-rule="evenodd" d="M109.001 388C112.746 392.399 114.112 398.983 115 406C110.089 402.796 108.957 394.582 109.001 388Z" fill="white"/>
<path fill-rule="evenodd" clip-rule="evenodd" d="M122.888 436.93C132.517 470.13 152.914 492.911 173.835 515.181C176.691 516.685 179.66 518.07 180.834 521.203C181.73 522.073 182.087 520.505 183.557 520.822C185.63 528.852 192.351 532.38 197.946 537C199.701 536.571 200.852 535.547 203 535.499C196.311 529.932 190.55 523.464 182.391 519.321C179.057 513.389 173.751 509.37 168.39 505.401C167.544 503.337 166.32 501.634 166.056 499.009C153.789 488.931 145.99 474.526 138.449 459.879C135.622 444.298 123.407 434.557 122.117 416.239C116.849 410.929 119.594 398.737 116.669 390.28C115.15 385.888 112.053 384.022 112.001 379.748C110.647 378.048 108.733 376.89 107.722 374.856C108.412 371.179 105.57 370.921 105.002 368.461C105.344 364.619 104.695 361.733 102.668 360.184C98.7886 359.318 98.2117 361.643 98 364.324C104.086 381.26 102.969 405.162 115.5 415.863V420.379C117.916 425.946 119.551 432.263 122.888 436.93Z" fill="white"/>
<path fill-rule="evenodd" clip-rule="evenodd" d="M247.465 443.891C249.536 445.072 253.159 446.578 256 445.773C254.658 438.55 245.986 438.423 244.36 431.475C243.206 431.337 242.39 430.874 241.644 430.344C237.211 419.592 229.877 411.653 222.629 403.63C221.897 403.083 222.58 401.167 221.851 400.622C219.059 397.436 215.048 395.43 214.866 389.71C211.331 388.874 211.669 384.282 208.27 383.311C205.275 376.433 201.352 370.449 195.852 366C195.108 366.16 194.179 366.14 194.298 367.133C192.785 370.988 197.495 372.057 198.181 375.033C204.123 390.344 215.584 400.297 221.851 415.294C232.203 423.07 239.369 433.935 247.465 443.891Z" fill="white"/>
<path fill-rule="evenodd" clip-rule="evenodd" d="M129.555 531.565C122.74 530.027 122.081 522.509 116.763 519.517C112.156 512.198 105.174 507.176 100.098 500.312C99.3268 499.574 99.8499 498.161 100.098 497.3C94.3557 493.232 90.4164 483.746 90.4049 476.59C83.7893 468.876 86.0639 454.531 80.324 445.713C83.7286 441.858 80.0726 436.881 79.5465 432.535C78.5928 424.599 75.2402 416.219 75.6737 407.306C75.772 405.302 77.0437 403.368 77.2229 401.285C77.9396 393 74.8067 384.441 77.2229 375.3C76.4078 373.582 76.5205 370.963 74.8963 370.028C73.4512 369.877 72.6217 370.331 72.5726 371.536C72.1188 379.18 70.9454 389.115 72.5726 396.389C68.5206 416.076 73.3038 433.647 75.6737 451.364C77.3038 463.545 86.8789 474.518 86.5263 487.887C92.8904 497.642 100.263 506.423 106.685 516.125C110.925 518.287 114.26 521.322 117.541 524.41C119.02 525.496 119.624 523.247 121.029 524.41C121.517 531.796 130.754 537 135.373 542.859C139.309 543.957 143.468 546.761 147 547C143.512 543.603 136.532 540.361 131.494 537.211C131.72 534.485 130.188 533.466 129.555 531.565Z" fill="white"/>
<path fill-rule="evenodd" clip-rule="evenodd" d="M-27 378.901C-26.2361 379.271 -25.9306 380.139 -24.6862 379.981C-23.8287 379.357 -24.0135 377.596 -24.0233 376.028C-26.1302 375.774 -26.6328 377.266 -27 378.901Z" fill="white"/>
<path fill-rule="evenodd" clip-rule="evenodd" d="M-21.8967 400C-18.1899 396.323 -17.4502 389.368 -15 382.979C-21.9424 377.98 -22.2765 393.423 -21.8967 400Z" fill="white"/>
<path fill-rule="evenodd" clip-rule="evenodd" d="M-26.9385 381.003C-27.3735 382.533 -25.3875 383.709 -24.5235 382.611C-25.6155 382.362 -25.5225 380.931 -26.9385 381.003Z" fill="white"/>
<path fill-rule="evenodd" clip-rule="evenodd" d="M65.9122 510.57C58.365 497.197 52.8658 481.84 46.7394 467.091C47.7546 466.434 47.53 464.58 47.5241 462.931C42.5413 446.477 44.3559 426.361 37.7394 410H36.5637C35.4755 413.484 36.2428 418.758 35 422.099C36.0415 423.751 35.8402 426.367 35.3938 428.526C37.4768 436.853 38.9413 444.737 39.6998 453.101C41.2723 470.564 49.9368 488.047 57.6969 500.741C61.294 506.626 63.7592 514.232 71 517C70.7316 513.476 68.3277 512.019 65.9122 510.57Z" fill="white"/>
<path fill-rule="evenodd" clip-rule="evenodd" d="M319 417.025C319.541 418.266 320.004 419.568 321.606 420C323.031 419.184 324.585 417.548 323.779 416.031C321.538 415.871 320.14 416.347 319 417.025Z" fill="white"/>
<path fill-rule="evenodd" clip-rule="evenodd" d="M28.2305 462.436C29.3288 453.228 25.4462 448.88 24.7695 441.408C23.9235 433.605 26.6219 423.655 23.2296 417C16.4794 421.681 21.9708 434.901 19 442.905C20.8295 449.448 20.4252 458.544 26.6907 462.436C25.9652 462.979 24.9874 463.273 25.1537 464.69C29.7704 482.213 36.8847 501.301 49 509C47.1906 503.63 43.3739 500.223 40.5351 495.858C35.8926 485.248 33.3777 472.557 28.2305 462.436Z" fill="white"/>
<path fill-rule="evenodd" clip-rule="evenodd" d="M-16.5875 419C-17.5505 422.619 -16.5785 425.292 -16.1825 429C-14.3675 427.773 -12.4565 420.121 -16.5875 419Z" fill="white"/>
<path fill-rule="evenodd" clip-rule="evenodd" d="M-5.93053 435.98C-3.29583 433.081 -4.63933 429.369 -6.36856 426.436C-7.7088 426.709 -7.65977 425.775 -9 426.052C-8.33969 431.131 -10.2814 440.33 -5.05448 444C-3.16507 440.993 -4.03459 438.283 -5.93053 435.98Z" fill="white"/>
<path fill-rule="evenodd" clip-rule="evenodd" d="M120.906 507.899C120.125 507.265 118.028 507.93 117.415 507.143C117.459 506.427 118.696 506.878 118.578 506.007C107.954 493.821 99.5186 480.099 96.0833 461.768C91.4161 457.751 93.9724 446.686 87.9403 444C86.0983 444.347 86.3817 446.765 86 448.538C88.7818 452.787 89.1606 457.147 90.2652 461.768C94.9122 481.277 104.42 497.345 114.312 509.788C126.614 519.724 135.315 533.173 149.996 540.79C149.999 542.174 151.098 542.49 151.546 543.44C157.338 545.23 160.545 549.537 166.672 551C167.43 550.225 168.826 550.078 169 548.734C148.119 539.848 134.621 523.767 120.906 507.899Z" fill="white"/>
<path fill-rule="evenodd" clip-rule="evenodd" d="M-4.81485 447C-5.30541 449.346 -4.967 455.431 -2 457C-2.19413 453.243 -2.8657 450 -3.76026 447H-4.81485Z" fill="white"/>
<path fill-rule="evenodd" clip-rule="evenodd" d="M16.4437 479.723C15.2656 478.273 14.2558 476.667 12.1854 476C10.8771 479.648 16.9836 479.643 15.1672 484.941C16.3231 484.71 18.5459 485.416 19 484.571C17.8664 483.324 16.4787 482.304 15.5895 480.843C15.6308 480.254 16.6787 480.551 16.4437 479.723Z" fill="white"/>
<path fill-rule="evenodd" clip-rule="evenodd" d="M238.03 490.885C238.689 491.503 240.055 492.56 241 491.637C240.741 489.96 239.541 489.474 238.329 489C238.076 489.44 237.935 490.01 238.03 490.885Z" fill="white"/>
<path fill-rule="evenodd" clip-rule="evenodd" d="M247 495.317V498.15C250.169 500.106 253.069 502.352 257.5 503C258.242 501.481 260.809 501.858 261 499.766C255.157 499.275 253.098 490.811 247 495.317Z" fill="white"/>
<path fill-rule="evenodd" clip-rule="evenodd" d="M268.666 506C269.865 505.299 271.337 504.799 270.931 502.856C267.137 499.835 263.262 505.763 268.666 506Z" fill="white"/>
<path fill-rule="evenodd" clip-rule="evenodd" d="M61.0007 514.025C60.9527 515.201 63.3527 515.685 63.4157 514.427C62.9387 513.962 61.9937 513.971 61.0007 514.025Z" fill="white"/>
<path fill-rule="evenodd" clip-rule="evenodd" d="M245.037 521.912C246.306 521.843 247.437 521.627 247.449 520.301C246.585 519.554 244.716 520.238 245.037 521.912Z" fill="white"/>
<path fill-rule="evenodd" clip-rule="evenodd" d="M100 523C102.086 529.693 109.828 531.161 115 535C110.441 530.591 107.279 524.89 100 523Z" fill="white"/>
<path fill-rule="evenodd" clip-rule="evenodd" d="M205.742 537.059C205.587 536.109 206.432 536.201 206.119 535.09C202.99 534.687 201.215 535.601 202.339 538.637C205.398 539.913 208.639 541 212.926 541C213.609 536.477 209.414 537.041 205.742 537.059Z" fill="white"/>
<path fill-rule="evenodd" clip-rule="evenodd" d="M115 537.246C116.678 537.975 118.802 541.26 121 539.476C118.8 539.108 117.684 536.139 115 537.246Z" fill="white"/>
</g>
</svg>
