<svg
  width="18"
  height="18"
  viewBox="0 0 18 18"
  fill="none"
  xmlns="http://www.w3.org/2000/svg"
>
  <mask
    id="mask0_12jkene1j2k"
    mask-type="alpha"
    maskUnits="userSpaceOnUse"
    x="3"
    y="0"
    width="12"
    height="17"
  >
    <path
      fillRule="evenodd"
      clipRule="evenodd"
      d="M13.5 6H12.75V4.5C12.75 2.43 11.07 0.75 9 0.75C6.93 0.75 5.25 2.43 5.25 4.5V6H4.5C3.675 6 3 6.675 3 7.5V15C3 15.825 3.675 16.5 4.5 16.5H13.5C14.325 16.5 15 15.825 15 15V7.5C15 6.675 14.325 6 13.5 6ZM9 12.75C8.175 12.75 7.5 12.075 7.5 11.25C7.5 10.425 8.175 9.75 9 9.75C9.825 9.75 10.5 10.425 10.5 11.25C10.5 12.075 9.825 12.75 9 12.75ZM11.325 6.00002H6.675V4.50002C6.675 3.21752 7.7175 2.17502 9 2.17502C10.2825 2.17502 11.325 3.21752 11.325 4.50002V6.00002Z"
      fill="white"
    />
  </mask>
  <g mask="url(#mask0_12jkene1j2k)">
    <rect
      x="-9.75"
      y="-9.75"
      width="37.5"
      height="37.5"
      fill="currentColor"
    />
  </g>
</svg>