<svg width="308" height="205" viewBox="0 0 308 205" fill="none" xmlns="http://www.w3.org/2000/svg">
<mask id="mask0" mask-type="alpha" maskUnits="userSpaceOnUse" x="0" y="0" width="308" height="205">
<rect width="308" height="205" fill="white"/>
</mask>
<g mask="url(#mask0)">
<g opacity="0.2">
<path fill-rule="evenodd" clip-rule="evenodd" d="M144.54 20.6268C143.168 20.9556 140.317 19.9248 140 21.2222C140.723 22.1575 144.612 22.2486 144.54 20.6268Z" fill="white"/>
<path fill-rule="evenodd" clip-rule="evenodd" d="M129.057 24.1507C130.808 24.9457 135.101 25.8221 135.459 23.4544C132.995 23.4059 128.753 24.5317 129.641 22.0601C129.129 22.1935 127.929 21.7795 127.892 22.2922C128.658 22.6127 129.152 23.1444 129.057 24.1507Z" fill="white"/>
<path fill-rule="evenodd" clip-rule="evenodd" d="M162.229 27.0523C169.538 35.924 178.319 43.3949 184.838 53.0181C189.753 57.6517 192.778 64.0838 198.347 68.0971C198.253 68.7549 197.323 68.6154 197.465 69.4918C199.764 70.0059 200.83 71.6878 201.574 73.6799C202.336 73.9797 203.542 73.8568 203.925 74.5167C211.206 88.0658 222.811 97.5079 230.057 111.092C232.537 111.915 237.287 112.547 235.343 115.838C236.508 116.592 238.389 116.663 239.746 117.235C251.272 127.031 254.849 144.385 269.404 151.298C272.578 155.909 276.508 159.804 281.147 163.024C281.123 163.465 280.4 163.242 280.562 163.863C282.826 169.618 290.643 170.095 292.307 176.427C293.036 176.848 294.246 176.816 294.656 177.541C298.055 173.671 293.491 171.671 292.307 168.33C287.027 167.58 284.68 164.042 283.496 159.396C279.531 155.905 275.343 152.63 272.926 147.668C270.691 147.841 270.096 146.452 268.522 145.994C266.946 140.697 261.56 139.025 259.126 134.546C259.133 134.086 259.943 134.387 260.008 133.988C255.617 132.204 254.244 127.554 252.077 123.657C251.037 123.251 249.273 123.532 248.555 122.82C248.59 122.017 249.807 122.335 249.728 121.423C248.566 120.295 246.922 119.627 246.499 117.793C244.336 117.989 243.329 117.085 242.977 115.559C242.953 114.514 245.057 115.489 245.03 114.444C243.126 113.091 239.963 112.937 238.277 111.371C238.829 109.891 238.958 108.902 237.984 107.741C237.222 106.992 237.099 108.082 236.223 108.022C230.689 100.626 222.607 95.6532 219.192 86.2444C217.255 83.1553 212.362 82.8722 211.85 78.4259C206.657 76.107 205.063 70.3619 200.694 67.2561C199.582 61.3361 195.315 58.4135 191.298 55.2516C191.051 53.349 189.61 52.5768 189.243 50.7845C186.819 50.0414 184.621 47.8266 185.134 45.1996C184.28 44.8957 183.05 44.9498 182.198 44.6438C181.85 43.576 181.064 42.9265 181.316 41.2925C175.628 37.6726 172.695 31.434 166.635 28.1701C166.973 27.8391 166.966 27.1814 166.927 26.4944C163.822 24.2422 160.48 23.0452 156.649 22.0273C157.516 24.6501 160.258 25.4828 162.229 27.0523Z" fill="white"/>
<path fill-rule="evenodd" clip-rule="evenodd" d="M144.577 22.6623C144.813 23.2533 146.539 22.8245 146.405 22.0647C145.776 22.2469 144.289 21.5848 144.577 22.6623Z" fill="white"/>
<path fill-rule="evenodd" clip-rule="evenodd" d="M283.874 176.868C281.031 170.07 273.93 167.336 270.39 161.205C264.515 159.819 264.319 153.014 258.077 151.974V150.295C253.472 147.325 252.836 140.567 249.285 136.59C249.893 133.266 246.859 131.356 244.593 129.877C242.014 125.256 238.301 121.711 233.749 118.969C234.586 130.013 246.879 134.036 248.697 144.143C245.904 143.078 245.941 139.316 241.955 139.387C241.317 138.507 240.674 137.627 240.784 136.031C233.919 133.537 234.236 124.189 229.059 120.089C228.56 116.809 226.456 114.066 224.661 110.857C224.406 110.031 224.222 111.506 223.488 111.139C222.839 108.96 220.505 108.39 220.267 105.823C219.722 105.316 218.166 105.775 217.919 104.983C218.179 104.486 218.735 104.274 218.505 103.306C217.535 102.274 215.662 102.103 214.989 100.789C214.768 99.9279 215.795 100.251 215.574 99.3899C213.645 98.5892 213.186 96.2661 212.642 93.5156C211.654 93.6115 209.689 94.2225 208.832 93.5156C208.955 92.8879 210.386 93.5093 210.592 92.9567C209.252 89.2907 207.066 86.44 203.557 84.8468C202.217 80.2508 198.576 77.8506 196.519 73.9385C196.452 75.0082 195.65 75.1751 194.762 74.7768C194.382 73.3879 195.473 73.4025 195.348 72.2577C191.406 68.0808 186.292 63.5723 184.502 58.2735C177.41 53.9443 173.874 46.2265 167.794 40.9319C167.964 40.0227 167.595 39.6306 167.501 38.9737C162.997 37.0239 159.931 33.7041 156.362 30.8618C155.763 26.8538 151.311 25.0687 147.568 24.9895C148.848 27.4043 151.115 28.8766 153.431 30.3029C153.497 30.8326 153.099 30.9202 153.138 31.4207C161.015 36.9572 165.724 45.5175 172.484 52.1197C172.844 53.0247 171.538 52.3344 171.898 53.2395C174.702 56.2486 177.263 59.4934 179.519 63.028C190.942 71.4298 198.014 83.9793 207.368 94.3559C209.494 100.9 213.308 105.842 216.16 111.698C224.869 118.212 227.951 130.096 235.508 137.71C236.244 138.125 237.123 138.406 237.56 139.107C240.882 143.488 244.282 147.797 250.751 149.177C252.382 152.372 254.657 154.96 258.077 156.451C260.623 160.828 264.747 163.699 268.338 167.078C268.714 167.445 268.714 168.11 268.338 168.477C270.235 170.024 272.446 171.269 274.199 172.952C274.68 174.266 275.346 175.402 275.961 176.589C281.064 177.965 281.562 183.735 287.098 184.699C288.238 189.207 292.52 190.715 295.892 193.092C294.775 184.926 288.455 181.727 283.874 176.868Z" fill="white"/>
<path fill-rule="evenodd" clip-rule="evenodd" d="M190.577 24.9969C190.723 23.664 189.665 23.5062 188.445 23.5084C188.312 24.8303 189.222 25.1302 190.577 24.9969Z" fill="white"/>
<path fill-rule="evenodd" clip-rule="evenodd" d="M192.484 41.8129C190.74 44.6969 194.168 49.3923 197.769 49.9307C197.988 50.7904 196.965 50.467 197.184 51.3288C197.622 51.6565 198.384 51.6773 198.652 52.1677C206.526 66.9654 217.928 78.3992 229.206 89.956V91.0746C233.299 94.0775 235.349 99.0296 238.604 102.832C239.296 102.826 239.469 103.314 240.367 103.111C242.969 106.884 246.719 109.562 248.887 113.748C249.621 114.633 250.996 114.91 251.824 115.708C251.855 117.824 253.375 118.523 255.057 119.065C255.563 123.437 258.012 125.952 260.933 128.022C260.417 128.279 259.911 128.544 260.051 129.422C265.316 131.682 268.551 135.875 270.919 140.9C271.652 141.133 272.494 141.265 273.565 141.179C278.639 150.618 288.883 155.132 295.892 162.73C294.996 160.038 294.378 157.079 291.779 156.015V154.335C289.821 151.904 287.302 150.015 285.609 147.338C279.487 144.865 278.256 137.734 272.682 134.741C272.386 133.437 271.677 132.527 270.919 131.663C270.139 131.659 269.241 131.768 268.862 131.382C268.781 127.435 263.651 125.906 262.401 122.145C262.429 121.423 263.656 121.851 263.281 120.745C259.676 118.397 256.301 115.829 255.348 110.95C252.893 108.996 249.437 108.001 248.007 105.071C246.848 105.146 245.963 104.962 245.654 104.232C245.58 98.8418 238.435 97.8964 238.31 91.6359C237.36 90.6572 237.393 92.9819 236.256 92.7545C234.537 92.5207 233.257 90.3901 233.906 88.8354C234.749 89.0608 234.09 90.7136 235.373 90.5153C236.203 90.7469 236.135 90.1209 236.841 90.2357C237.143 88.9251 236.359 88.6434 235.962 87.9965C230.883 88.2636 230.112 84.4259 226.562 83.2385C220.138 75.9972 213.333 66.7463 206.876 58.6056V56.6482C200.353 49.987 194.635 42.56 189.249 34.8137C187.86 34.3671 185.451 34.8888 185.429 33.1359C186.673 32.5369 187.337 34.5925 189.249 34.2544C189.38 33.0107 188.454 32.7728 188.075 32.0152C181.936 34.1271 180.893 21.8941 176.324 26.9776C182.262 31.3975 184.249 39.58 192.484 41.8129Z" fill="white"/>
<path fill-rule="evenodd" clip-rule="evenodd" d="M120.324 26.8962V26.1106C119.263 25.1413 116.494 26.22 115.696 27.1601C115.04 27.2617 115.846 25.964 114.878 26.3725C114.092 26.4897 113.635 26.9256 113.513 27.6838C115.858 28.491 118.296 27.25 120.324 26.8962Z" fill="white"/>
<path fill-rule="evenodd" clip-rule="evenodd" d="M294.419 200.751C293.739 200.28 292.171 200.66 291.78 199.916C290.24 196.183 287.847 193.26 284.166 191.562C284.64 190.648 284.096 190.499 284.166 189.334C271.843 178.952 260.514 167.631 249.302 156.195C249.067 155.227 249.737 155.123 249.597 154.245C248.394 153.9 247.553 153.215 246.079 153.13C238.032 142.867 226.978 135.455 221.177 123.056C216.935 119.437 212.971 114.975 210.924 108.574C209.845 107.552 208.116 107.158 207.115 106.066C206.873 102.461 202.972 98.8882 202.723 94.3703C201.779 93.409 199.953 93.2886 199.204 92.1425C199.543 91.3618 199.543 90.6933 199.204 89.9147C195.358 90.1348 196.522 85.5982 193.346 85.1808C193.141 84.1469 193.846 83.9849 193.639 82.953C192.756 82.6748 191.514 82.7475 191.293 81.8381C191.533 80.8706 190.858 80.7667 191 79.8885C182.816 74.021 177.649 65.2904 169.617 59.2797C167.916 52.8101 161.846 49.0458 160.241 43.4067C158.895 42.3665 157.161 41.6938 156.141 40.3443C152.799 33.773 144.862 31.5701 139.441 26.9753C138.604 26.3296 136.992 26.2756 136.219 26.9753C136.119 30.3202 138.611 31.2005 141.49 31.7112C141.638 32.5874 140.852 32.7992 141.49 33.3805C152.904 37.0161 156.13 48.4292 164.343 55.1043C164.388 55.7957 163.882 55.966 163.759 56.4954C166.094 57.7079 166.756 60.5171 167.566 63.1788C169.073 64.7153 171.45 65.4274 173.134 66.7977C171.365 72.3953 180.774 71.8929 180.453 77.941C182.707 77.1707 185.394 79.3694 185.437 82.3945C186.141 82.7475 187.206 82.7537 187.781 83.2292C191.968 91.3182 199.471 96.2514 203.306 104.675C203.214 105.327 202.845 105.719 203.013 106.624C210.195 117.803 217.346 129.019 226.159 138.65C234.577 146.891 241.361 156.685 251.351 163.435C251.989 165.797 253.409 167.421 255.453 168.447C258.408 173.716 263.198 177.235 267.171 181.535C267.608 183.443 269.078 184.365 271.273 184.6C275.397 188.848 279.813 192.82 285.042 196.017C285.47 199.975 288.559 201.401 291.195 203.259C291.562 206.344 293.63 207.81 295.589 209.384C296.778 206.498 294.056 204.661 294.419 200.751Z" fill="white"/>
<path fill-rule="evenodd" clip-rule="evenodd" d="M196.757 29.7167C196.149 28.4312 194.849 27.7005 192.216 28.0308C192.367 29.5462 195.109 30.9143 196.757 29.7167Z" fill="white"/>
<path fill-rule="evenodd" clip-rule="evenodd" d="M131.856 40.8214C137.35 40.9403 142.487 44.1202 142.5 47.6546C147.015 51.1848 151.779 54.473 156.399 57.9055C157.828 60.9071 160.348 64.3332 164.973 63.3143C161.298 55.7466 153.004 52.6283 148.71 45.6613C146.32 45.4958 145.43 43.8846 144.865 41.9613C143.77 41.5899 142.403 41.4837 141.614 40.8214C139.012 34.9732 130.763 34.5635 127.125 29.7151C124.698 29.7745 122.388 29.7214 120.324 29.4327C120.675 34.6526 130.752 34.5274 131.856 40.8214Z" fill="white"/>
<path fill-rule="evenodd" clip-rule="evenodd" d="M196.135 35.2088C196.662 35.9194 198.298 35.5786 198.492 36.6031C198.514 39.6475 201.224 42.0601 203.797 43.5708C205.018 47.062 206.725 50.0918 209.69 51.9329C209.264 52.2758 209.132 52.8909 209.1 53.6037C214.02 57.419 215.463 62.8115 220.002 66.9822C220.162 67.9713 218.958 67.6679 219.119 68.6571C224.36 71.0385 224.496 78.2473 231.785 78.692C232.352 80.8511 234.608 81.4101 234.733 83.9868C236.268 84.8596 237.501 86.015 239.449 86.495C246.351 96.5009 256.175 103.747 262.723 114.089C262.688 114.777 262.681 115.432 263.02 115.762C264.179 115.891 264.551 115.176 265.082 116.039C264.948 116.845 264.039 116.911 264.197 117.99C274.967 122.855 278.618 134.452 286.296 142.239C285.931 143.103 285.358 143.777 286.296 144.471C287.809 144.903 287.497 142.679 288.653 143.635C289.312 147.469 292.695 148.731 295.135 150.881C293.663 147.058 292.556 140.504 287.181 139.454C287.379 138.804 288.158 138.706 288.358 138.06C284.36 133.852 281.158 128.889 278.636 123.287C271.6 118.42 265.276 112.882 261.84 104.611C256.724 99.1151 249.681 94.0342 246.226 87.8894C243.805 87.0166 241.947 85.6181 239.743 84.5438C235.245 76.0715 225.689 72.3809 221.179 63.917C220.452 63.1211 219.053 62.959 218.528 61.9657C218.148 54.3144 211.109 48.9384 205.859 44.1277C206.536 39.9426 201.306 39.369 202.617 36.3247C200.684 35.7366 199.421 34.5168 198.788 32.7005C198.052 32.4657 197.209 32.3348 196.135 32.4221C195.735 32.8834 196.376 34.0471 196.135 35.2088Z" fill="white"/>
<path fill-rule="evenodd" clip-rule="evenodd" d="M75.9977 50.1532C76.3604 50.5526 77.0049 50.6815 77.7565 50.7106C83.7143 46.4136 93.0346 44.473 102.37 45.6898C106.244 48.2709 112.483 48.9989 116.728 50.4319C128.454 50.1595 135.57 56.6716 142.81 61.5906C144.049 61.5282 144.704 62.0212 145.742 62.1501C147.947 68.0487 157.035 67.3936 159.222 73.3088C160.299 73.3982 160.843 73.9952 161.859 74.1449C161.687 75.1454 162.198 75.4969 162.443 76.098C176.447 86.7595 188.745 99.0414 197.611 114.595C198.727 114.358 199.372 113.669 200.541 113.48C200.112 111.906 200.031 110.795 199.369 109.017C195.352 106.334 193.475 101.606 191.749 96.741C187.84 94.6029 185.855 90.6365 182.957 87.5374C182.361 86.5661 181.426 88.3465 180.906 87.5374C178.868 79.6192 169.818 78.3775 167.428 70.7963C164.103 71.1457 162.879 68.6436 159.513 68.2858C154.365 63.1464 147.278 59.8497 143.398 53.4998C142.277 52.932 141.156 53.4436 139.883 53.4998C138.722 52.1874 137.53 50.9041 136.365 49.5937H134.021C131.668 45.7875 124.172 46.8815 124.644 40.3902C122.841 39.6851 120.351 39.6393 120.248 37.3202C116.42 36.1284 112.706 34.8285 109.405 33.1355C104.253 34.7183 101.726 32.3825 95.9228 33.6949C98.7827 34.373 100.948 38.1938 104.424 36.4841C103.985 36.4363 103.342 36.5839 103.253 36.2054C104.467 35.9704 105.427 35.4837 107.061 35.6459C110.965 40.1115 119.398 40.2674 122.885 45.1323C112.47 46.79 104.059 39.2649 92.9931 41.505C91.9334 41.2138 91.6363 40.1946 90.0633 40.3902C88.9119 41.5258 88.4138 43.2833 85.3748 42.6198C84.4462 46.6174 78.8052 44.6332 76.5811 47.0854C77.1447 47.2018 77.846 47.1852 77.7565 47.9215C77.302 48.5184 74.7983 49.8017 75.9977 50.1532Z" fill="white"/>
<path fill-rule="evenodd" clip-rule="evenodd" d="M211.135 36.2321C210.458 36.1255 209.502 34.7925 208.865 35.6345C209.468 35.8167 210.67 36.8897 211.135 36.2321Z" fill="white"/>
<path fill-rule="evenodd" clip-rule="evenodd" d="M226.76 53.8706C227.745 52.7552 225.722 52.0285 225.244 51.3354C226.591 48.8043 223.595 48.0293 222.208 47.1093V44.574C220.047 42.7362 217.042 41.1272 214.926 40.0665C214.7 39.1969 215.972 39.722 215.533 38.6571C214.747 38.4324 212.591 38.0249 211.892 38.6571C215.759 44.3682 219.83 52.8834 226.76 53.8706Z" fill="white"/>
<path fill-rule="evenodd" clip-rule="evenodd" d="M235.336 50.9084C235.606 49.4991 232.313 48.811 230.811 47.9463C232.072 49.1219 232.995 50.5552 235.336 50.9084Z" fill="white"/>
<path fill-rule="evenodd" clip-rule="evenodd" d="M287.603 230.226C286.861 226.832 284.209 225.249 281.709 223.523C281.861 222.355 281.544 221.63 281.118 221.009C280.536 220.349 278.974 220.622 278.172 220.17C277.636 217.328 274.868 216.599 274.343 213.746C266.955 211.999 267.159 203.051 260.786 200.339C260.54 199.642 260.401 198.842 260.492 197.826C254.044 196.023 253.886 188.259 248.114 185.813C248.312 181.625 246.115 179.707 242.811 178.832C242.411 178.283 242.53 177.239 242.225 176.598C240.981 176.007 239.661 175.488 238.685 174.643C234.327 164.528 225.471 158.681 219.535 150.064C216.486 148.204 213.639 146.151 212.758 142.243C209.078 139.398 205.939 136.043 204.506 131.07C201.154 130.8 202.147 126.418 200.969 124.086C200.099 123.888 199.146 123.767 198.612 123.249C197.092 118.359 193.865 115.088 192.426 110.122C192.079 109.799 191.384 109.805 190.657 109.84C190.727 107.408 186.595 103.331 184.174 102.302C181.676 97.3127 178.405 93.0583 173.568 90.2908C173.436 87.8065 170.896 87.6066 170.619 85.2639C161.957 80.6243 155.591 73.8107 147.636 68.5047C146.39 68.5672 145.733 68.0737 144.688 67.9466C143.587 63.684 138.165 63.5174 135.847 60.4042H133.196C123.36 55.2003 110.86 51.6789 96.0684 52.0246C95.6708 51.7518 95.6862 51.0833 95.1853 50.9084C83.5967 51.7455 72.4278 56.5642 63.0669 61.2434C62.8538 62.8093 61.2479 63.0551 61.2984 64.873C67.4497 63.5757 72.1862 62.018 76.3251 59.288C81.6569 59.0694 85.1016 56.2789 90.4708 58.1698C91.3825 57.6387 92.404 57.2119 93.4168 56.7725C104.076 56.6621 114.577 59.2068 124.944 60.9623C126.245 62.2471 127.282 63.7735 129.072 64.594C132.818 65.606 136.221 66.9429 137.91 69.8999H140.562C154.938 80.389 170.89 89.3829 180.048 104.816C188.311 111.227 193.526 120.527 199.79 128.836C199.948 129.917 199.267 130.198 199.5 131.35C204.849 142.757 214.485 150.099 221.007 160.399C232.308 167.467 237.086 180.723 245.759 190.284C246.449 190.933 247.666 191.081 248.411 191.681C249.074 194.682 251.194 196.304 252.24 198.942C259.615 203.219 262.122 212.107 269.921 215.98C273.194 222.094 277.623 227.117 283.475 230.784C283.539 231.682 282.955 231.965 283.181 233.019C285.222 233.912 285.978 236.607 288.781 235.253C288.264 237.231 291.076 236.057 292.315 236.369C292.353 237.49 293.308 238.791 294.378 238.046C293.75 235.228 292.116 230.901 287.603 230.226Z" fill="white"/>
<path fill-rule="evenodd" clip-rule="evenodd" d="M242.924 66.0566C243.464 69.1074 245.333 72.5057 246.777 75.5481H248.854C250.076 80.0681 253.204 82.8004 253.893 87.8281C257.461 90.702 260.707 93.8797 263.379 97.5984C262.926 98.4849 263.275 98.8242 263.379 99.8293C269.813 108.472 278.064 115.404 284.723 123.836C284.659 126.033 286.087 126.83 287.983 127.184C288.913 124.156 287.713 123.467 287.094 120.764C286.701 120.3 285.415 120.671 285.021 120.206C283.485 113.281 278.196 109.883 273.458 105.97C267.784 96.8784 260.422 89.6802 255.08 79.733C255.516 79.4105 255.825 79.4105 256.265 79.733C248.83 72.2185 244.332 61.9383 236.698 54.6111H236.108C237.615 59.1477 238.418 64.344 242.924 66.0566Z" fill="white"/>
<path fill-rule="evenodd" clip-rule="evenodd" d="M234.591 65.35C231.453 64.8614 230.705 62.0683 229.412 59.7949C229.493 58.3911 231.599 58.946 232.002 57.8507C229 57.418 227.559 55.478 224.235 55.3517C223.568 56.1343 224.566 57.0867 224.235 58.4056C226.768 59.3104 228.258 62.5445 227.686 64.7951C228.597 65.4908 230.469 65.2568 230.853 66.4598C231.093 67.6192 230.291 67.7724 230.276 68.6814C238.069 72.9155 241.866 82.4832 248.973 86.4544C245.885 78.0503 239.282 73.0397 233.728 67.0147C234.142 66.584 234.886 66.4701 234.591 65.35Z" fill="white"/>
<path fill-rule="evenodd" clip-rule="evenodd" d="M261.081 76.8273C258.418 71.0139 254.944 66.0318 249.73 62.0165C253.31 67.3799 255.06 73.3955 261.081 76.8273Z" fill="white"/>
<path fill-rule="evenodd" clip-rule="evenodd" d="M57.1962 77.8141C57.7446 77.3161 57.5458 76.1064 58.3696 75.8678C65.7532 73.6973 73.8186 72.1701 81.5235 70.3005C84.1107 71.9398 85.6578 69.4747 89.1431 69.7444C90.1963 69.9748 88.7935 70.7944 90.0215 70.8566C93.4806 69.0452 99.6034 70.9915 102.92 69.4664C106.469 69.4519 108.501 71.9958 112.004 71.1368C112.961 72.083 114.559 72.4233 116.696 72.2469C123.706 77.7436 137.081 77.1937 141.609 85.0517C144.041 85.3381 144.48 87.5168 147.467 87.2782C156.75 97.3896 168.523 105.14 177.364 115.666C177.62 116.774 177.62 117.065 177.364 118.173C181.068 118.086 182.226 120.422 183.227 122.902C188.286 125.056 189.706 130.664 195.243 132.368C192.523 123.165 183.221 117.808 177.069 110.935C175.723 107.389 174.24 103.974 169.745 103.422C169.834 102.766 170.761 102.903 170.623 102.027C164.487 99.0455 163.679 90.9966 155.967 89.5026C141.462 73.5998 115.081 62.2641 84.7466 66.6818C83.949 66.0489 82.8892 65.665 81.2307 65.8476C79.441 66.7461 77.6273 67.6197 75.9535 68.6302C75.0467 68.4725 75.1822 67.3209 74.1945 67.2379C69.6362 67.9475 65.3468 70.3026 61.0071 70.3005C60.1199 72.7055 55.9331 71.9771 56.0249 75.3117C54.4319 74.6311 52.9919 76.2641 52.2162 77.2601C54.2396 77.7643 54.893 78.7396 57.1962 77.8141Z" fill="white"/>
<path fill-rule="evenodd" clip-rule="evenodd" d="M260.051 71.9487C260.184 70.8267 259.41 70.5912 258.834 70.1625C258.711 71.2733 259.077 71.9109 260.051 71.9487Z" fill="white"/>
<path fill-rule="evenodd" clip-rule="evenodd" d="M48.3636 89.82C50.5115 88.79 53.2117 88.2812 55.1228 87.026C55.7935 87.5097 56.7688 87.6995 58.0641 87.5848C61.0996 86.5568 64.2688 85.6561 67.4731 84.7866C73.7282 84.8929 80.2551 84.259 85.4034 82.8287C92.4277 82.4867 97.7426 84.945 105.102 83.3896C105.889 83.7586 105.685 85.0681 106.862 85.0681C109.633 84.7157 112.346 84.3153 115.094 83.9484C120.681 87.9559 129.279 89.0986 134.497 93.4585H137.436C137.419 94.5011 137.732 95.2267 138.024 95.9753C144.2 95.9732 144.158 101.884 150.078 102.126C153.85 105.346 156.872 109.276 161.249 111.916V113.594C168.524 118.234 173.032 125.505 180.65 129.814C180.403 130.982 181.22 131.136 181.24 132.052C186.165 133.987 187.913 138.939 193.586 140.165C197.526 151.424 207.786 156.673 212.987 166.731C224.394 172.098 227.254 185.599 235.331 194.14C242.951 207.583 252.9 218.815 263.843 229.099C263.599 231.755 266.181 231.724 265.901 234.414C272 239.547 280.614 241.063 283.246 249.794C286.343 249.602 287.588 254.191 290.595 251.472C289.547 250.169 287.561 249.46 288.539 247C287.515 245.486 286.257 245.315 285.01 244.481C284.719 243.455 284.03 242.804 283.835 241.685C279.27 237.915 274.621 234.226 269.429 231.057C267.246 226.424 264.426 222.395 260.023 219.87C259.565 216.482 256.994 215.108 254.73 213.438C253.772 209.32 251.462 206.48 247.677 205.047C245.621 195.07 236.729 191.596 233.567 182.674C232.85 181.865 231.342 181.802 230.628 180.995C220.484 164.725 207.091 151.554 194.763 137.367C194.975 136.512 194.46 136.347 194.467 135.688C192.034 133.063 187.501 132.431 186.531 128.417C185.671 127.959 185.424 128.939 184.179 128.417C179.811 123.436 173.464 120.338 171.241 113.313C170.549 112.948 169.214 113.196 168.598 112.754C168.193 112.395 168.307 111.541 168.304 110.798C161.51 107.938 157.624 102.314 153.017 97.3744C147.674 97.341 145.831 92.2971 142.729 90.6603C141.219 89.8638 139.047 90.0098 137.436 88.9818C135.766 87.9184 135.712 87.3387 133.614 86.4651C127.85 84.0651 123.322 80.3953 115.094 81.1522C112.458 79.4654 107.456 80.0304 105.394 77.7952C104.903 78.1664 104.41 78.5354 103.336 78.3561C90.1418 76.6276 74.5939 77.6201 62.7675 82.5493C53.6588 81.2481 51.9317 86.9676 46.0119 88.7024C45.9155 90.1015 45.2887 90.9981 45.4246 92.6182C47.0377 92.2888 48.7954 92.0949 49.8343 91.2191C49.2951 90.8 47.8639 91.2296 48.3636 89.82Z" fill="white"/>
<path fill-rule="evenodd" clip-rule="evenodd" d="M269.405 90.8976V87.2623C266.135 84.8178 264.133 81.0865 261.191 78.3084C260.381 82.0501 264.302 83.3182 264.202 87.2623C266.288 88.1153 267.646 89.7108 269.405 90.8976Z" fill="white"/>
<path fill-rule="evenodd" clip-rule="evenodd" d="M50.3271 102.202C51.0381 102.044 50.1888 100.405 51.2071 100.536C53.7835 100.977 55.796 100.565 57.9774 99.9785V97.4797C63.286 97.9355 67.1551 95.0658 73.5808 94.9767C74.7285 94.4691 73.1221 93.0787 74.757 93.0311C76.2515 92.5483 75.4396 94.237 76.5237 94.1417C89.2149 87.5423 99.3428 98.1013 113.022 96.0873C117.7 98.6193 122.094 101.421 128.329 102.479C134.623 106.172 139.984 110.747 147.169 113.598C150.915 118.026 157.073 120.181 159.827 125.547C161.138 125.765 161.592 125.178 162.768 125.27C176.115 138.605 189.667 151.75 202.507 165.568C202.281 166.614 202.867 166.898 202.804 167.791C211.689 176.446 219.855 185.781 226.351 196.694C231.533 199.305 233.545 204.907 239.892 206.422C237.078 197.498 227.741 194.732 225.469 185.3C212.813 174.076 205.174 156.739 190.439 146.671C191.17 146.34 192.173 146.269 193.088 146.114C190.622 142.78 185.98 143.207 184.845 138.609C181.883 138.721 181.238 136.643 180.428 134.718C175.167 132.836 174.037 127.047 168.952 124.992C168.623 124.468 168.577 123.68 168.362 123.046C165.015 121.946 161.443 121.055 160.71 117.487C157.771 117.301 157.06 115.005 155.706 113.32C154.977 112.898 153.424 113.252 152.761 112.763C152.357 112.404 152.469 111.557 152.465 110.819H150.112C147.386 108.298 145.633 104.858 140.399 104.705C137.232 102.693 135.321 99.4916 130.683 98.8679C129.907 98.122 129.395 97.1212 128.625 96.367C127.591 96.2303 126.707 95.9526 125.386 96.0873C122.893 92.3307 115.609 93.0891 112.139 90.2525C108.516 91.7713 104.77 88.9658 100.363 90.2525C98.0853 87.965 91.732 87.1258 88.5938 88.8622C79.2186 86.8213 69.6393 91.1808 60.6262 92.1961C60.2048 93.4662 59.6277 94.5892 58.2714 94.9767C54.0447 93.9697 48.5144 95.992 47.3798 99.7009C46.954 100.223 45.4529 99.734 45.0272 100.258C44.878 102.432 42.8304 102.817 42.3784 104.705C43.7785 104.45 45.0491 104.075 46.4998 103.87C46.2364 101.41 48.0711 101.211 50.3271 102.202Z" fill="white"/>
<path fill-rule="evenodd" clip-rule="evenodd" d="M272.807 91.6381C272.522 91.8966 272.357 92.2329 272.466 92.7481C273.562 93.2203 275.052 93.4357 276.216 93.8598C275.967 92.541 275.062 91.6514 272.807 91.6381Z" fill="white"/>
<path fill-rule="evenodd" clip-rule="evenodd" d="M273.189 94.1082C273.707 94.6947 274.122 95.3812 275.017 95.5989C275.185 94.5237 273.902 93.3329 273.189 94.1082Z" fill="white"/>
<path fill-rule="evenodd" clip-rule="evenodd" d="M52.1235 111.339C56.2684 107.247 64.7956 107.222 69.82 103.946C73.1512 105.115 74.9807 101.984 77.7842 103.946C82.5954 100.975 89.8934 99.7628 94.5946 96.0067C89.3283 92.0607 80.181 97.6418 74.8334 97.9235C73.1249 100.624 67.5683 99.7567 65.099 101.755C63.9248 102.027 64.215 100.937 63.0365 101.208C55.6219 104.546 48.1128 107.798 40.9159 111.339C40.5926 112.556 41.6305 113.334 40.9159 114.077C38.9061 114.038 37.2064 114.283 37.0811 115.994C37.6286 116.855 39.1634 116.796 40.6212 116.817C44.1372 114.693 47.1145 112.072 52.1235 111.339Z" fill="white"/>
<path fill-rule="evenodd" clip-rule="evenodd" d="M276.048 250.213C275.866 245.549 270.312 245.977 269.277 242.119C266.631 241.746 264.774 240.623 263.39 239.05C259.136 230.161 249.675 226.2 246.028 216.729C245.197 216.498 245.269 217.122 244.556 217.01V215.333C241.416 214.869 240.159 212.622 238.968 210.311C232.552 207.278 227.554 202.901 222.192 198.872C220.221 193.301 214.964 190.842 212.773 185.479C206.928 180.79 201.969 175.261 197.471 169.295C197.258 168.442 197.978 168.475 197.765 167.62C191.501 162.586 187.508 155.399 180.697 150.878C173.863 140.152 163.755 132.53 153.328 125.208H151.268C142.086 118.093 132.127 110.263 120.367 106.515C120.158 105.479 120.869 105.316 120.663 104.282C110.155 101.942 93.1513 95.3019 84.7567 104.561C89.4894 107.191 97.353 104.567 103.299 105.676C110.037 106.729 114.37 110.059 120.955 111.258C121.615 111.934 122.089 112.787 122.721 113.49C130.968 116.462 135.346 123.098 144.499 125.208C144.85 126.414 143.536 126.772 144.205 127.44C145.52 127.931 146.452 128.049 148.03 127.721C150.594 130.123 153.464 132.241 155.977 134.694C164.512 137.949 168.314 145.69 175.102 150.599C175.173 152.118 175.706 153.196 176.577 153.949C177.496 154.005 178.736 153.759 179.225 154.227C181.56 161.317 188.142 164.375 193.057 169.016C193.458 170.495 194.474 171.394 194.529 173.201C206.572 187.268 218.446 201.493 232.491 213.661C242.395 218.686 246.616 229.102 255.151 235.424V236.818C259.875 240.215 261.106 246.5 268.395 247.981C268.636 249.61 270.492 249.709 270.455 251.607C271.526 251.894 272.432 252.339 273.399 252.724C273.165 253.691 273.836 253.795 273.693 254.675C279.644 258.798 282.884 265.494 289.879 268.627C290.597 268.005 291.189 267.267 291.351 266.118C285.57 261.459 283.012 253.747 276.048 250.213Z" fill="white"/>
<path fill-rule="evenodd" clip-rule="evenodd" d="M280.623 104.832C280.566 103.695 280.189 102.871 279.097 102.746C279.036 103.082 278.761 103.211 278.486 103.342C278.693 104.332 279.272 104.959 280.623 104.832Z" fill="white"/>
<path fill-rule="evenodd" clip-rule="evenodd" d="M41.1789 104.968C39.9757 104.983 39.3672 105.579 39.3513 106.756C40.1664 106.361 40.4433 105.443 41.1789 104.968Z" fill="white"/>
<path fill-rule="evenodd" clip-rule="evenodd" d="M270.531 277.558C268.052 273.578 264.344 270.769 260.231 268.342C259.404 258.776 248.503 256.395 245.52 247.952C243.982 247.548 243.102 246.521 242.578 245.159C240.972 244.449 239.344 243.758 238.162 242.644C236.62 239.737 234.439 237.43 231.984 235.383C231.693 232.122 229.297 230.858 228.158 228.401C227.127 228.264 226.245 227.987 224.923 228.122C224.218 225.44 220.961 225.178 221.097 221.698C211.894 216.657 207.206 207.328 199.912 200.474C194.539 192.536 187.144 186.524 182.55 177.85C181.943 177.31 180.912 177.171 180.194 176.733C179.852 175.288 178.257 175.036 178.43 173.102C176.774 172.534 175.668 171.44 174.604 170.31C174.427 169.639 174.181 169.035 174.313 168.073C168.697 161.67 162.464 155.859 154.891 151.317C151.57 144.879 145.68 140.885 141.354 135.396V132.883C134.531 125.853 126.673 118.346 116.051 115.845C115.384 112.845 110.308 114.034 106.929 113.613C106.958 112.747 106.572 112.276 106.341 111.658C92.9134 108.782 79.2025 106.142 68.6746 113.051C67.988 112.966 67.5734 112.612 66.6191 112.774C65.5551 113.628 64.6096 114.592 63.0849 115.008C51.3132 116.68 44.5411 123.1 34.2502 126.18C34.2721 130.203 29.3472 129.534 30.4243 134.559C36.9529 131.35 41.9152 126.659 48.3736 123.387C56.1088 120.945 66.1606 118.305 73.9725 115.008C78.8427 114.577 83.2412 112.266 88.6861 112.495C94.743 112.749 99.9115 116.322 105.46 116.685C109.057 119.785 116.391 119.339 118.995 123.387C120.026 123.525 120.908 123.804 122.229 123.666C123.718 128.116 131.642 126.463 131.644 132.325C132.993 133.838 135.446 134.301 136.648 135.956C136.962 136.681 137.363 137.326 137.236 138.467C144.995 143.765 148.023 153.551 156.951 157.739C160.047 163.18 164.658 167.184 169.605 170.868C170.36 174.06 172.832 175.622 174.901 177.568C178.027 182.608 182.454 186.414 186.08 190.976C192.146 201.048 202.696 206.86 208.149 217.511C210.17 218.756 211.635 220.532 213.447 221.979C213.441 222.635 213.954 222.802 213.739 223.656C223.359 231.839 230.497 242.382 239.34 251.304C240.553 251.269 241.185 251.789 242.578 251.583C244.434 260.529 254.494 261.682 255.521 271.413C259.176 272.787 261.572 275.355 263.173 278.674C271.448 280.6 272.009 289.839 279.65 292.361C280.493 294.543 282.041 296.05 282.888 298.224C284.444 298.304 285.815 298.21 286.714 297.666C287.377 293.781 284.439 293.308 283.77 290.684C277.577 287.998 276.847 280.127 270.531 277.558Z" fill="white"/>
<path fill-rule="evenodd" clip-rule="evenodd" d="M286.439 213.898C287.428 212.34 288.951 214.466 289.663 212.503C287.031 211.232 286.284 210.652 283.508 211.109C283.694 209.258 283.089 208.162 282.925 206.646C282.722 206.095 281.292 206.713 281.167 206.087C281.287 204.764 280.06 204.723 279.994 203.577C271.733 201.031 270.802 191.504 263.296 188.235C257.006 179.908 248.338 173.84 244.259 163.41C236.899 160.001 234.975 151.419 226.973 148.624C227.471 146.29 225.56 146.251 225.8 144.161C224.964 143.661 223.839 143.426 223.164 142.767C217.403 133.007 209.143 125.622 203.834 115.432C203.015 115.135 201.921 114.107 200.903 114.873C199.809 117.408 201.393 119.797 202.954 120.731C209.991 133.369 216.746 146.278 228.733 154.203C237.216 164.907 246.637 174.717 253.337 187.118C261.427 190.577 266.268 197.121 271.499 203.298C272.567 203.581 273.506 203.991 274.427 204.413C274.836 208.339 279.702 208.747 279.407 212.503C281.049 214.193 284.277 214.376 285.266 216.689C284.74 217.685 285.068 218.954 285.559 219.755C286.841 219.973 287.367 218.548 288.197 219.197C288.868 220.139 288.145 222.406 288.782 223.381C291.399 222.273 292.216 224.201 294.347 223.103C294.74 219.01 291.314 218.555 290.54 215.572C289.719 214.491 286.976 215.246 286.439 213.898Z" fill="white"/>
<path fill-rule="evenodd" clip-rule="evenodd" d="M94.5946 118.829C92.3725 115.405 80.3256 113.08 78.7027 118.829C82.2749 121.985 89.9247 119.963 94.5946 118.829Z" fill="white"/>
<path fill-rule="evenodd" clip-rule="evenodd" d="M66.5946 122C63.66 121.995 61.048 122.248 60.5405 124.194C62.5525 124.392 65.7104 123.514 66.5946 122Z" fill="white"/>
<path fill-rule="evenodd" clip-rule="evenodd" d="M273.453 296.603C269.226 287.224 257.005 285.434 253.762 275.124C249.08 273.155 248.944 266.864 243.179 265.92C240.028 259.243 235.244 254.113 230.248 249.185C227.623 242.846 223.087 238.317 217.612 234.68C217.294 233.961 216.895 233.316 217.024 232.171C208.989 225.013 202.444 216.441 195.861 207.905C192.136 206.329 188.874 204.308 187.927 200.097C185.918 199.028 184.588 197.314 183.222 195.632V193.96C177.457 189.296 175.255 181.255 167.941 178.063C162.649 171.092 155.396 165.981 149.716 159.372C149.471 158.68 149.333 157.882 149.423 156.865C146.476 155.108 143.491 153.382 141.486 150.728C141.122 149.888 141.471 149.483 141.195 148.218C136.896 142.221 131.694 137.941 125.03 133.714C117.343 128.836 111.78 123.732 101.516 122C95.4442 122.092 90.6476 123.4 85.3514 124.232C83.5502 123.416 82.0909 123.913 80.0618 124.232C77.6251 122.709 73.659 124.015 70.657 123.394C65.0475 126.251 58.8179 128.522 54.1966 132.321C47.5265 134.167 40.0719 135.276 35.0956 138.734C34.057 140.169 32.3939 141.007 30.9805 142.082C30.2881 144.978 25.8268 145.719 26.5696 149.054C27.9807 149.557 29.2977 147.802 30.9805 147.659C33.312 143.739 35.0365 139.237 42.7365 140.408C43.8408 139.967 44.4807 139.087 45.6749 138.734C45.7165 139.717 46.9918 139.528 47.7303 139.848C52.998 137.688 55.9452 133.329 63.8971 133.714C65.1899 132.712 66.0774 131.323 68.5995 131.483C71.7023 125.409 84.9767 128.989 91.8177 126.461C92.8563 126.5 93.1324 127.261 94.1711 127.299C104.588 125.338 114.416 130.869 119.153 137.062C130.098 143.128 139.012 151.125 144.427 162.442C145.562 162.483 145.785 163.386 147.072 163.278C154.283 171.591 164.124 177.408 169.409 187.545C171.127 188.429 172.122 189.993 174.114 190.614C180.47 199.084 186.025 208.319 194.978 214.32C202.895 227.912 215.859 236.716 223.782 250.301C229.409 254.537 231.072 262.537 237.598 265.92C237.519 266.925 238.141 267.266 238.183 268.152C239.986 269.046 241.4 270.308 242.887 271.499C242.85 272.743 243.613 273.23 243.768 274.29C244.487 275.039 245.19 274.357 246.119 275.124C247.307 277.994 250.848 278.632 251.118 282.375C258.318 290.048 268.376 295.006 273.159 304.969C273.407 305.569 275.035 304.865 275.217 305.526C274.106 306.701 273.104 308.485 274.627 309.99C279.319 308.797 279.928 312.956 282.27 313.06C281.302 307.526 279.172 301.779 276.1 297.439C275.335 297.046 274.154 297.052 273.453 296.603Z" fill="white"/>
<path fill-rule="evenodd" clip-rule="evenodd" d="M55.2432 126.33C50.6287 124.093 46.6445 128.389 43.8919 130.654C49.0253 131.651 53.2344 129.302 55.2432 126.33Z" fill="white"/>
<path fill-rule="evenodd" clip-rule="evenodd" d="M289.698 130.146C289.794 129.044 289.213 128.43 288.484 127.925C288.404 128.238 287.814 128.178 287.569 128.37C287.53 129.509 288.325 130.04 289.698 130.146Z" fill="white"/>
<path fill-rule="evenodd" clip-rule="evenodd" d="M85.6721 133.801C99.222 135.878 112.436 138.322 123.351 144.217C119.047 135.779 105.504 133.848 94.2785 131.197C89.2067 131.389 71.2485 129.413 71.1357 133.512C71.0383 137.109 83.7279 135.078 85.6721 133.801Z" fill="white"/>
<path fill-rule="evenodd" clip-rule="evenodd" d="M272.906 263.491C271.691 260.454 270.222 257.655 266.729 256.786C264.734 253.091 262.237 249.877 257.61 248.684C256.641 246.066 254.157 244.891 253.493 241.979C243.154 232.71 236.73 219.722 224.085 212.644C223.993 208.445 219.507 208.429 219.086 204.544C208.522 197.725 200.646 188.348 194.382 177.444C191.599 175.911 187.832 174.411 188.501 170.462C185.427 167.7 182.664 164.643 179.088 162.358C176.602 155.407 168.281 153.999 166.441 146.434C163.698 144.943 161.142 143.277 159.677 140.567C152.634 139.523 150.88 131.983 144.089 131.627C144.074 131.983 143.715 132.015 143.796 132.467C145.87 138.971 153.787 139.923 155.855 146.434C164.858 151.196 170.543 159.117 176.738 166.551C177.409 166.84 178.509 166.728 179.088 167.107C178.88 168.144 179.59 168.306 179.384 169.342C191.2 182.328 201.194 197.05 214.968 208.174C214.889 209.18 215.512 209.52 215.558 210.409C218.939 212.321 221.241 215.254 223.202 218.512C228.598 220.84 230.053 226.903 235.261 229.407C240.539 238.361 248.154 245.099 254.966 252.596C259.145 253.747 261.914 256.238 263.199 260.138C268.435 262.616 269.742 268.825 275.257 271.033C275.596 271.362 275.592 272.022 275.55 272.71C281.468 275.378 282.775 282.426 287.316 286.4C287.917 286.132 288.48 285.827 289.081 285.559C287.193 282.659 287.382 280.125 287.024 276.902C282.823 271.947 278.855 266.778 272.906 263.491Z" fill="white"/>
<path fill-rule="evenodd" clip-rule="evenodd" d="M69.3272 133.108H68.1081V134.299C69.0616 134.439 69.4657 134.041 69.3272 133.108Z" fill="white"/>
<path fill-rule="evenodd" clip-rule="evenodd" d="M260.358 301.066C260.322 295.687 254.881 295.462 252.424 292.392C250.878 289.295 248.749 286.757 246.257 284.561C246.167 281.291 242.924 281.022 242.438 278.127C236.841 275.345 234.119 269.825 230.985 264.701C224.915 258.171 218.626 251.852 213.949 244.002C209.95 242.121 209.771 236.603 206.604 233.931C205.656 233.531 204.603 233.226 203.376 233.093C200.376 226.807 194.873 222.911 191.921 216.588C186.322 213.806 185.1 206.857 179.584 204C178.093 199.825 175.993 196.23 171.065 195.329C168.792 191.992 166.456 188.713 162.547 186.936C162.284 184.019 159.361 183.629 159.024 180.782C158.336 180.131 156.687 180.394 156.087 179.664C154.896 174.19 145.78 173.873 146.982 167.915C144.781 165.149 139.011 165.297 139.344 160.922C132.148 158.918 130.571 151.558 123.483 149.454C120.925 143.902 112.991 141.172 106.155 142.179C94.4392 137.226 76.5593 138.171 63.8584 138.822C60.0174 140.013 56.84 141.837 52.1078 142.179C47.5617 147.014 34.8849 148.868 31.5498 153.65C28.6877 154 27.7154 156.152 25.0876 156.726C24.0321 161.114 21.2401 163.721 18.9189 167.635C24.0672 166.384 25.8168 161.9 28.9067 158.684C38.2265 154.415 49.3749 151.883 56.8094 145.817C59.8598 145.894 62.6956 143.683 67.0884 144.138C72.4863 141.397 80.5996 142.417 87.0617 143.299C90.0771 141.656 96.7035 142.292 98.8123 144.138C109.689 146.738 118.696 151.124 126.422 156.726C133.928 164.959 140.627 173.965 150.799 179.664C152.988 183.825 157.655 185.627 159.315 190.294C174.422 201.643 184.005 218.25 197.205 231.414C197.383 232.084 197.63 232.688 197.501 233.652C200.002 235.093 202.008 237.005 204.257 238.684C207.784 248.38 216.664 252.978 219.824 263.024C226.899 269.708 232.369 277.929 239.504 284.561C244.039 290.215 246.958 297.414 254.773 299.948C254.795 302.259 256.981 302.511 256.538 305.26C265.482 308.307 267.115 318.313 276.216 321.206C275.141 313.56 267.534 312.13 266.522 304.421C264.023 303.124 262.083 303.022 260.358 301.066Z" fill="white"/>
<path fill-rule="evenodd" clip-rule="evenodd" d="M41.6216 144.871C40.2064 141.801 36.3243 144.329 36.3243 147.335C38.3588 148.832 41.3556 147.25 41.6216 144.871Z" fill="white"/>
<path fill-rule="evenodd" clip-rule="evenodd" d="M124.108 144.28C124.307 145.333 126.058 147.232 128.649 147.178C128.328 145.387 126.171 143.886 124.108 144.28Z" fill="white"/>
<path fill-rule="evenodd" clip-rule="evenodd" d="M125.031 158.894C122.974 159.264 122.669 157.977 121.208 157.78C116.369 151.502 106.386 150.088 97.3776 147.76C96.4146 147.463 96.4322 146.239 95.6118 145.811C81.3693 145.153 69.6713 147.488 59.7193 149.431C50.761 155.802 37.0625 157.687 28.5298 164.463C26.8057 169.056 19.1613 169.508 19.7031 175.319C28.3148 169.734 37.2775 164.479 46.7688 159.729C50.0328 160.31 50.1183 157.884 53.538 158.614C56.2799 155.989 61.3601 154.173 66.188 154.441C72.4373 151.147 82.5253 150.064 91.7885 150.543C93.0454 150.929 93.2187 152.342 94.4361 152.772C100.115 153.046 109.729 154.198 112.675 158.894C120.001 159.94 123.086 165 130.919 165.575C130.967 161.443 125.856 162.196 125.031 158.894Z" fill="white"/>
<path fill-rule="evenodd" clip-rule="evenodd" d="M130.246 149.4C129.801 150.314 131.213 151.414 132.432 151.622C132.273 150.368 131.641 149.54 130.246 149.4Z" fill="white"/>
<path fill-rule="evenodd" clip-rule="evenodd" d="M179.086 216.268C177.372 213.063 175.474 210.029 172.032 208.464C170.184 204.916 166.472 203.139 163.801 200.379C162.1 194.358 153.95 193.011 154.102 186.159C150.372 185.702 149.348 182.678 145.283 182.536C142.11 176.999 136.005 174.237 131.762 169.715C124.055 167.084 117.069 163.762 110.895 159.679C102.881 158.887 94.8017 154.424 86.792 156.334C79.8935 151.303 73.7487 158.864 64.4505 157.448C55.3583 163.879 39.0826 163.494 33.2973 173.059C41.8679 169.852 51.1771 167.346 59.7477 164.139C68.3249 161.929 77.6757 160.697 86.792 159.679C109.736 161.005 125.606 174.661 142.051 184.766C142.798 188.237 144.93 190.399 148.809 190.9C156.924 202.441 170.053 209.224 176.147 222.68C178.746 224.488 181.724 225.938 182.612 229.37C183.447 229.788 184.547 229.952 185.551 230.207C189.535 239.68 197.731 246.325 203.483 254.181C206.143 257.816 207.261 262.303 211.42 264.772C215.415 274.736 224.643 279.734 228.761 289.584C230.335 290.787 231.606 292.275 233.464 293.208C234.117 295.33 233.514 296.286 233.757 297.945C234.823 298.571 235.121 298.841 236.698 298.504C240.259 305.814 248.815 308.382 252.273 315.788C253.384 316.781 254.576 317.691 256.391 318.018C255.277 320.72 259.007 321.944 260.504 322.199C261.301 327.146 267.558 328.488 271.676 328.611C271.673 325.918 269.191 325.577 268.735 323.315C267.725 323.436 267.087 323.203 266.383 323.037C257.918 314.248 251.157 303.839 241.108 296.552C238.274 289.181 231.557 284.082 228.467 277.876C227.249 277.914 226.195 277.8 225.527 277.317C224.635 276.268 225.864 275.368 225.822 274.252C221.047 272.182 221.308 265.338 215.827 263.937C215.314 260.915 211.815 256.085 208.479 253.903C209.512 250.419 203.774 249.019 203.777 244.702C203.146 244.095 201.967 244.003 201.129 243.588C199.249 240.632 196.657 238.35 194.371 235.781C193.641 230.852 186.918 230.27 187.611 224.91C182.638 224.049 184.963 216.272 179.086 216.268Z" fill="white"/>
<path fill-rule="evenodd" clip-rule="evenodd" d="M257.13 329.554C252.413 319.881 240.425 317.114 237.417 305.817C230.281 303.375 229.739 294.674 223.588 291.297C219.236 282.118 212.482 275.214 206.227 267.839C202.976 257.427 192.839 253.551 189.751 242.984C188.481 242.887 187.614 242.41 187.103 241.589C181.323 229.853 170.837 222.585 162.972 212.826C162.83 211.95 163.99 212.089 163.271 211.429C160.057 208.333 155.733 206.291 153.265 202.493C152.193 202.579 151.35 202.448 150.615 202.212C148.033 193.782 138.043 190.193 133.257 182.945C127.494 183.358 127.832 175.642 120.606 176.522C119.336 175.773 118.631 174.484 117.662 173.449C107.277 171.351 96.9754 161.965 85.8819 165.908C83.6027 163.587 78.9148 166.664 75.5848 165.071C72.5158 166.443 68.4619 166.874 63.8156 166.747C60.4505 170.347 52.3295 169.435 47.3389 171.494C45.3009 174.497 39.639 174.055 35.8637 175.404C34.8941 175.394 34.3983 174.932 33.2181 175.125C25.6258 177.416 20.271 181.83 16.737 187.971C18.0685 189.237 16.239 189.791 16.737 190.766C22.0062 187.94 26.5844 182.054 32.3319 178.756C33.2971 178.771 33.4572 179.55 34.6879 179.314C43.048 174.992 54.0318 176.012 62.6398 172.612C63.4647 172.948 64.6712 172.919 65.8733 172.891C66.5183 171.734 67.6721 171.059 69.1134 170.657C69.7123 170.926 70.2782 171.228 70.8771 171.494C79.9524 167.272 92.4739 170.574 101.185 172.054C105.899 175.492 112.384 177.249 118.546 179.314C123.179 183.757 128.051 187.978 134.433 190.766C137.727 195.829 142.426 199.56 147.382 203.051C147.41 207.374 151.901 208.719 152.381 211.708C153.579 212.339 154.996 212.764 155.913 213.663C156.626 214.85 157.014 216.343 157.973 217.294C159.467 217.83 160.735 218.583 161.799 219.528C180.408 240.494 197.021 263.361 214.467 285.432C217.569 294.616 228.109 298.141 229.472 308.053C233.179 310.214 234.897 314.26 238.299 316.71C239.942 322.032 245.367 325.696 250.362 328.717C252.679 333.5 257.79 335.634 261.837 338.771C261.809 339.637 262.199 340.104 262.427 340.726C263.981 341.391 265.082 342.488 267.135 342.681C263.956 338.157 262.691 331.817 257.13 329.554Z" fill="white"/>
<path fill-rule="evenodd" clip-rule="evenodd" d="M241.223 329.604C238.563 323.845 234.122 319.781 229.467 315.918C224.991 303.509 214.749 296.58 207.723 286.596C205.425 281.703 203.291 276.66 198.32 274.307C197.829 270.676 194.287 269.947 194.499 265.65C187.23 258.779 181.76 250.2 176.281 241.63C173.295 239.815 171.446 236.916 169.816 233.812C163.572 229.042 159.149 222.541 152.773 217.894C152.988 215.845 149.899 214.731 150.423 212.308C149.259 211.735 147.864 211.389 147.189 210.355C147.193 209.89 148.004 210.196 148.07 209.794C140.768 200.633 130.096 194.668 122.505 185.777C117.07 181.913 109.207 180.355 103.112 177.122C101.894 176.801 101.967 177.707 101.055 177.678C99.9181 175.652 97.1928 174.078 94.003 174.886C91.9086 172.464 84.2561 172.731 81.3664 174.327C72.3973 173.713 62.4313 178.202 52.8641 180.193C51.8541 179.941 51.5868 178.985 50.2198 179.075C38.8167 182.298 29.4882 186.802 21.7153 193.877C20.0349 199.492 12.3036 202.182 12.8973 208.118C24.3683 201.422 31.6681 188.349 47.5733 184.938C48.5022 184.424 49.12 183.618 49.6305 182.704C55.0461 183.445 61.0774 184.099 64.6177 181.309C70.8265 181.894 75.5498 178.673 81.66 178.236C83.4477 179.689 85.7831 178.692 88.125 178.796C96.5728 179.162 110.04 184.526 114.572 188.569C117.506 191.186 122.015 192.569 125.445 194.993C128.508 197.158 130.072 201.097 132.791 203.092C139.456 207.985 145.051 213.936 149.246 221.244C150.477 221.096 150.889 221.731 151.891 221.802C152.905 223.815 154.596 225.192 156.592 226.272C157.626 230.224 161.046 231.907 163.646 234.37C167.327 239.34 170.692 244.618 175.987 248.054C181.841 261.204 192.414 269.866 198.32 282.965C199.972 283.35 201.644 283.714 202.435 284.92C203.672 292.399 208.781 296.201 211.544 302.233C214.793 302.122 215.998 303.959 216.245 306.703C219.229 307.334 219.389 311.271 222.708 312.287C221.782 317.338 226.128 319.597 229.173 321.784C230.19 325.659 232.7 328.115 236.815 329.044C237.157 332.473 239.104 333.387 239.753 336.028C240.914 336.388 240.353 335.107 241.514 335.467C242.986 336.679 244.741 337.614 247.098 337.981C248.481 341.97 252.12 343.823 254.151 347.198C256.924 347.354 257.143 349.94 259.148 350.827C259.446 349.599 259.645 347.65 260.324 346.64C253.13 341.745 250.761 332.263 241.223 329.604Z" fill="white"/>
<path fill-rule="evenodd" clip-rule="evenodd" d="M256.541 359.516C255.2 356.034 251.104 355.17 250.652 350.845C247.806 347.119 241.143 347.012 240.054 341.613C235.752 338.15 233.586 332.657 228.87 329.587C229.05 328.918 229.291 328.313 229.162 327.35C218.801 321.16 216.371 307.43 205.909 301.337C205.7 300.301 206.411 300.134 206.203 299.097C200.67 294.284 197.512 287.221 194.132 280.361C187.934 277.389 187.454 268.989 182.061 265.254C182.193 264.293 181.949 263.686 181.769 263.019C180.854 262.862 179.851 262.79 179.12 262.46C177.163 255.875 171.667 251.333 169.404 245.957C163.742 238.75 156.934 232.631 150.271 226.375C149.865 226.017 149.979 225.159 149.977 224.417C141.086 216.551 134.076 206.894 125.252 198.965H122.306C117.697 194.763 114.124 189.581 106.704 188.055C102.912 185.039 98.3621 182.741 91.102 183.021C86.7763 180.352 80.7672 183.655 75.7962 183.861C66.5105 184.374 57.0118 187.077 48.1233 188.895C46.8921 189.775 46.0164 190.997 44.592 191.692C43.4201 191.969 43.7054 190.856 42.529 191.133C38.234 194.791 33.3508 197.885 28.4017 200.921C23.4176 206.725 17.944 212.059 11.9152 216.866V218.824C11.316 218.668 11.338 217.982 10.7388 218.543C10.9473 220.442 10.1221 221.585 11.0329 222.74C13.6358 223.07 14.7924 219.852 17.5095 219.383C18.1744 216.843 20.514 215.898 22.5134 214.628C27.5765 206.106 37.5931 202.289 45.1802 196.169C50.7525 192.978 57.3125 190.726 66.3766 190.853C72.5459 187.55 82.6503 187.89 91.102 187.496C99.1544 188.981 105.501 192.09 111.708 195.329C117.983 202.327 126.851 206.858 133.787 213.229C143.612 227.574 156.925 238.606 167.344 252.388C174.597 266.66 184.502 278.415 193.544 290.988V292.946C201.552 301.558 207.399 312.225 216.507 319.797C216.896 326.513 223.93 326.916 224.454 333.504C226.069 335.047 227.143 337.103 230.046 337.42C230.586 341.007 233.672 342.181 235.932 344.13C235.577 346.616 237.027 347.377 237.993 348.608C244.351 348.873 245.078 355.783 250.652 355.879C251.273 357.787 254.146 359.777 256.246 361.195C256.413 360.701 255.891 359.552 256.541 359.516Z" fill="white"/>
<path fill-rule="evenodd" clip-rule="evenodd" d="M82.3436 192.134C81.4338 192.161 80.9384 191.795 80.2851 191.579C74.0436 193.716 65.6231 193.341 59.4101 196.008C57.185 194.766 55.2536 197.04 52.6469 197.116C50.9852 201.274 45.9692 202.27 41.4707 203.755C34.8588 208.14 27.8237 212.126 23.5334 218.699C22.4789 218.536 22.1106 219.021 21.4749 219.254C18.0724 224.754 11.5307 228.35 10.5946 235.303C18.5811 231.913 21.3126 222.171 29.7091 220.083C30.3142 218.251 30.803 216.316 32.6511 215.656C33.6815 215.792 34.5628 216.066 35.8847 215.934C45.0682 208.61 54.2122 199.796 68.8172 198.499C76.9111 196.124 85.2462 196.518 94.9887 195.73C101.943 196.258 106.781 202.998 113.513 200.989C107.296 195.088 94.171 187.927 82.3436 192.134Z" fill="white"/>
<path fill-rule="evenodd" clip-rule="evenodd" d="M15.6417 191.597C16.2133 191.599 16.007 192.256 16.7914 192.081C16.7957 191.599 17.5801 191.774 17.3695 191.112C16.1101 190.73 15.3386 191.092 13.6237 190.871C13.5829 191.886 14.1481 192.223 13.6237 193.047C15.7427 193.367 14.7842 191.881 15.6417 191.597Z" fill="white"/>
<path fill-rule="evenodd" clip-rule="evenodd" d="M63.7518 210.466C68.3425 205.751 79.8731 208.583 86.4938 205.403C89.486 205.427 91.9234 206.296 94.7615 205.686C99.1584 206.749 101.955 209.334 106.279 210.466C113.521 210.413 118.543 212.474 121.638 216.371C131.615 218.97 132.713 231.487 143.784 232.115C142.491 224.347 134.431 223.026 131.971 216.371C125.639 211.715 119.734 206.655 109.231 205.967C98.1015 197.983 81.716 202.343 66.4115 203.154C65.053 204.483 63.3423 205.483 61.3915 206.248C60.3655 206.475 60.2554 205.829 59.324 205.967C54.5682 207.533 51.2127 210.428 46.6243 212.153C44.1517 215.702 40.4219 218.058 35.9919 219.744C34.0566 221.368 33.33 224.141 29.7896 224.244C28.6821 225.812 28.9309 228.673 26.2491 228.741C25.0778 228.728 26.2954 226.443 24.7717 226.774C22.6448 227.887 23.8976 228.896 24.4767 230.711C23.1292 234.581 18.2633 235.102 17.092 239.144C16.0726 239.372 15.8458 238.618 15.3218 239.144C14.8087 243.634 10.9402 246.395 10.5946 250.109C13.4811 250.233 13.6991 247.816 15.0245 246.453C23.0984 243.55 24.7387 234.524 32.7443 231.552C33.4643 230.367 32.1388 230.038 32.4493 228.46C45.257 224.722 51.0784 214.331 63.7518 210.466Z" fill="white"/>
<path fill-rule="evenodd" clip-rule="evenodd" d="M249.413 370.353C246.959 369.521 243.831 369.332 242.95 367.01C234.928 366.163 232.643 359.88 226.197 357.543C225.906 356.891 225.682 356.172 225.612 355.313C214.015 353.585 207.286 347.242 201.804 339.72C201.727 338.625 202.871 338.681 202.687 337.49C201.999 336.748 200.638 336.645 199.453 336.379C197.345 332.154 193.62 329.465 191.813 324.957C189.681 324.191 188.581 322.451 187.994 320.223C184.944 317.264 182.72 313.525 180.643 309.642C179.815 302.444 173.572 300.378 174.181 291.815C174.567 290.513 175.612 289.832 175.647 288.196C174.802 286.307 173.371 284.972 170.654 284.853C170.128 284.143 169.821 283.23 169.186 282.628V280.4C167.363 277.204 165.571 273.982 161.25 273.158C153.071 262.34 145.189 251.246 136.857 240.574C130.604 236.382 125.573 231.032 118.634 227.487C115.617 223.015 109.67 221.317 107.468 216.066C101.511 214.006 96.3729 211.172 90.1284 209.384C86.4387 210.806 81.1319 210.696 76.316 211.055C75.2774 211.554 74.3112 212.123 73.0842 212.447C63.643 213.989 57.3941 218.559 50.7508 222.751C43.6102 223.692 42.7557 230.587 36.0555 231.941C31.2264 237.763 25.4552 242.69 21.3601 249.207C20.3084 249.043 19.9403 249.531 19.3049 249.766C19.2611 253.252 16.3338 254.008 14.8965 256.171C16.8443 257.853 13.5139 258.217 14.6029 260.347C18.985 259.765 19.3903 255.42 21.6537 252.829H23.7111C27.6068 248.257 33.0954 245.2 35.1747 238.903C38.6234 236.415 41.9099 233.778 45.1658 231.106C46.6886 231.065 47.5322 230.378 48.6934 229.993C51.5089 223.933 60.6149 223.839 64.561 218.852C72.3305 215.819 81.4387 217.482 88.6604 214.118C92.3589 214.697 94.2322 217.006 98.3602 217.183C99.1665 218.088 100.619 218.383 101.296 219.408C103.389 219.564 104.745 220.413 106.294 221.08C114.878 231.976 129.607 237.049 136.561 249.488C137.659 250.397 138.927 251.143 140.089 251.994C146.452 262.674 155.33 270.971 161.25 282.069C161.979 282.862 163.456 282.951 163.897 284.019C169.013 298.291 176.855 309.985 183.29 323.01C188.39 329.315 191.239 337.755 197.985 342.504C199.981 345.716 202.229 348.691 205.919 350.3C208.044 355.342 213.726 357.017 219.438 358.655C224.847 362.831 230.693 365.397 236.775 369.238C237.724 369.299 238.022 368.746 239.129 368.96C240.767 369.263 240.853 371.038 242.065 371.744C243.697 370.791 247.783 372.174 249.709 372.303C249.854 371.425 249.181 371.319 249.413 370.353Z" fill="white"/>
<path fill-rule="evenodd" clip-rule="evenodd" d="M243.406 359.488C241.987 357.578 240.289 355.933 239 353.899C234.579 353.443 232.82 350.459 229.888 348.59C229.472 348.217 229.472 347.006 229.888 346.633C226.746 344.353 222.638 341.669 222.542 337.407C221.644 336.586 219.729 336.728 219.31 335.451C218.305 328.022 210.757 326.819 210.2 318.961C202.878 313.72 199.213 304.999 192.861 298.837C189.916 289.151 180.631 285.502 177.873 275.636C168.686 269.187 168.316 254.356 159.066 247.964C159.291 246.91 158.708 246.629 158.772 245.728C153.603 242.538 149.64 238.201 144.96 234.546C128.968 233.173 127.021 218.442 113.22 214.982C112.387 213.588 110.479 211.873 108.522 212.467C108.292 212.53 108.176 212.701 108.229 213.026C113.502 220.584 121.328 225.719 129.68 230.357C130.557 234.365 134.993 234.988 137.318 237.622C150.026 237.649 152.554 247.358 158.187 254.114C160.38 259.947 165.776 262.731 166.12 270.327C168.87 275.626 172.895 279.719 176.405 284.301V286.817C182.467 292.974 188.519 299.149 192.274 307.501C201.798 316.887 208.515 328.949 218.134 338.245C217.674 338.274 217.115 338.21 217.251 338.806C219.913 343.636 224.794 346.356 226.654 351.943C236.264 354.733 240.376 364.234 250.461 365.638C250.895 362.004 245.6 361.545 243.406 359.488Z" fill="white"/>
<path fill-rule="evenodd" clip-rule="evenodd" d="M214.01 361.714C209.321 361.436 207.739 358.19 203.46 357.519C204.063 356.07 203.355 355.278 202.582 354.444C200.984 354 200.294 355.416 199.357 354.721C200.075 353.214 200.416 352.13 199.357 350.811C198.314 351.213 197.975 352.289 196.424 352.205C194.999 345.924 189.932 343.112 188.804 336.549C184.513 335.517 184.34 330.556 181.475 328.158C181.678 327.533 182.358 326.757 181.772 326.203C175.455 319.924 171.985 310.932 166.529 303.834C166.105 302.931 166.253 301.486 166.238 300.198C161.361 291.613 156.23 283.274 151.873 274.191C141.806 266.649 138.808 252.36 128.426 245.112C128.673 244.787 128.815 244.361 128.721 243.715C127.305 243.573 126.134 243.198 124.91 242.877C116.77 235.261 109.159 227.146 96.4808 223.86C95.3052 222.933 94.0728 222.059 92.9627 221.065C74.3013 218.567 56.7151 224.409 47.8258 235.326C31.6839 244.905 22.2068 260.845 10.8964 275.031V277.268C9.22473 277.594 8.63692 280.256 9.43014 282.021C12.7822 281.027 12.4894 276.551 15.8786 275.592C16.3331 273.134 17.8125 271.656 18.5161 269.44C23.1115 267.485 25.4147 263.347 27.8948 259.373C34.5989 255.988 38.2482 249.675 42.5486 243.994C54.0688 235.128 65.069 225.772 84.1696 224.142C86.11 224.577 87.8865 224.846 90.0324 224.421C91.0878 224.811 91.6756 225.651 92.3771 226.379C95.6461 226.518 96.9047 228.58 99.9968 228.895C113.641 239.831 131.422 246.823 137.219 265.244C142.645 272 148.248 278.584 151.873 287.056C152.648 287.715 153.496 288.307 154.51 288.732C159.628 298.858 163.906 309.784 170.925 318.093C177.009 328.6 182.404 339.764 189.39 349.412C188.874 353.74 193.738 355.316 194.958 358.916C201.043 358.707 200.978 364.361 207.269 363.951C208.967 367.553 212.773 369.141 217.821 369.544C221.097 376.763 231.612 377.08 238.923 380.449C239.12 379.225 240.204 378.873 239.804 377.651C230.585 372.929 220.719 368.831 214.01 361.714Z" fill="white"/>
<path fill-rule="evenodd" clip-rule="evenodd" d="M18.6713 302.538C20.4109 296.646 23.4002 291.936 24.8586 285.773C27.3383 283.996 29.1811 280.542 28.9812 277.111C31.0634 274.892 33.4399 272.955 33.9912 269.286C43.9102 261.878 46.4822 248.153 59.9132 244.139C62.3358 240.201 67.6313 237.789 73.7615 238.27C76.1687 237.57 77.4009 235.759 79.6544 234.916C86.7862 234.497 90.0346 238.872 97.6254 238.27C102.233 241.722 107.391 244.655 113.53 246.653C118.03 251.138 122.581 255.58 127.378 259.786C128.522 261.778 129.326 264.086 130.62 265.934C132.258 266.719 134.193 267.874 136.216 266.774C133.993 256.678 124.665 253.324 119.13 246.372C116.536 246.132 115.14 244.757 112.943 244.139C106.756 238.153 100.703 236.459 91.1438 233.52C86.7488 232.168 83.6036 230.326 79.3579 231.005C69.9573 232.503 60.9301 234.487 56.6757 240.505C49.8602 244.101 44.4395 249.02 39.882 254.755C39.4581 255.47 39.603 256.726 38.999 257.272C38.2698 258.067 36.6928 258.065 35.7571 258.667C26.4334 270.857 19.9474 287.827 15.1351 302.538C16.0708 302.831 17.8125 302.633 18.6713 302.538Z" fill="white"/>
<path fill-rule="evenodd" clip-rule="evenodd" d="M215.642 380.598C215.81 376.691 213.224 373.769 210.066 374.728C207.88 372.99 206.357 370.62 203.902 369.137H201.555C198.006 365.438 194.078 362.097 188.64 360.194C187.054 358.35 187.113 354.939 185.118 353.484C185.592 346.14 179.278 345.257 178.663 338.951C176.903 337.273 175.969 334.804 174.551 332.799C172.081 326.958 170.372 320.385 165.162 317.149C163.762 319.381 165.466 322.577 165.749 324.976C168.313 328.961 170.256 333.541 172.206 338.111C175.063 341.879 180.98 347.003 179.836 351.807C175.055 346.855 168.184 343.898 167.51 335.037C166.781 334.612 165.764 334.462 165.453 333.639C164.611 328.9 162.967 324.732 161.933 320.223C165.727 313.083 157.86 308.082 154.596 304.012C154.283 295.924 150.228 291.398 146.084 286.959C142.303 277.702 136.314 270.548 127.89 265.717C125.682 261.668 123.223 257.865 117.91 256.773C114.505 253.214 110.622 250.111 104.998 248.667C103.751 248.081 103.532 246.52 101.473 246.71C101.513 246.02 101.519 245.364 101.18 245.032C97.5805 244.176 94.1189 243.186 91.7886 241.121C80.9006 237.518 68.3978 241.498 62.1464 247.268C50.4138 251.468 46.3352 262.956 38.6681 271.027C38.8235 272.109 38.1452 272.392 38.3749 273.543C28.4584 282.041 23.7869 296.339 20.7629 309.882C17.6646 315.373 16.5639 321.654 16.6537 329.727C17.391 330.096 17.5727 328.621 17.8308 329.446C19.2969 329.323 17.1832 328.856 17.5376 328.05C18.2838 327.829 18.9599 327.543 19.2991 326.933C20.8198 309.745 30.2024 298.56 33.9725 284.444C38.2786 279.884 42.1428 274.897 44.832 268.791C52.3459 261.041 61.3565 254.716 69.1899 247.268C73.8265 244.543 80.0188 241.95 86.8019 243.636C116.956 256.469 139.43 276.621 151.366 306.806C157.561 321.963 163.059 337.786 167.803 354.324C170.457 357.271 171.86 362.393 175.433 365.225C179.31 373.644 190.102 377.904 196.27 385.07C197.548 385.066 198.911 384.979 199.793 385.35C199.542 386.227 198.682 386.529 198.618 387.586C199.5 388.144 200.964 388.148 200.673 389.822C202.92 389.453 203.432 390.734 204.782 391.22C205.609 390.701 206.613 390.355 207.716 390.103C207.235 396.815 219.357 400.439 224.153 400.443C224.867 399.916 225.495 399.297 225.328 397.928C220.598 397.259 218.749 396.065 214.173 394.854C211.403 392.6 214.123 388.365 211.53 386.187C209.355 387.088 207.589 384.601 205.077 385.629C204.874 384.504 205.358 384.035 205.371 383.116C200.474 381.44 197.441 377.993 192.454 376.405C188.196 370.258 179.647 366.871 178.074 359.073C177.225 358.021 176.1 357.229 175.433 356C172.23 357.025 167.53 349.767 169.858 347.337C176.24 352.995 182.873 358.417 187.172 366.063C191.043 369.085 195.909 371.158 199.205 374.728C200.73 375.099 201.025 373.311 202.141 374.171C202.012 375.18 201.388 375.52 201.848 376.405C203.029 377.445 205.397 377.468 206.546 376.405C210.57 380.148 216.537 383.96 222.392 382.834C222.09 383.478 220.427 382.826 220.63 383.953C227.14 384.193 228.42 389.617 233.838 389.54C232.521 388.188 232.164 385.921 231.49 383.953C225.882 383.176 221.611 376.776 215.642 380.598Z" fill="white"/>
<path fill-rule="evenodd" clip-rule="evenodd" d="M165.403 272.33C167.281 266.999 160.544 263.162 158.411 258.934C156.945 255.779 155.681 252.429 153.75 249.724C152.936 249.2 151.852 248.94 150.838 248.607C149.28 245.073 146.859 242.37 143.553 240.512C142.371 240.404 141.524 240.614 141.513 241.63C142.823 246.886 147.808 248.623 149.38 253.632C155.681 258.942 157.881 268.183 165.403 272.33Z" fill="white"/>
<path fill-rule="evenodd" clip-rule="evenodd" d="M53.3542 273.881C59.3861 269.193 61.9175 261.211 69.5644 258.044C73.0627 251.526 83.6453 251.685 92.2591 249.991C92.6766 248.935 90.9934 247.742 89.9013 247.209C83.786 246.911 78.9473 247.814 74.2778 248.877C68.8656 253.773 61.6164 256.944 57.4787 263.046C54.7407 263.725 52.8971 266.35 52.7653 268.603C49.2077 271.362 46.461 274.889 45.3974 279.993C44.6898 280.163 44.0504 280.393 43.0374 280.27C34.272 290.09 29.1894 304.466 24.4694 317.219C24.4694 322.438 22.8169 327.913 22.7027 333.888C23.5157 333.954 23.6014 334.708 23.8805 335.276C27.671 334.746 28.016 329.228 26.5349 326.111C29.5168 318.636 32.6569 309.852 34.4917 302.217C39.4315 295.854 40.3632 285.711 48.6386 282.493C48.7616 281.501 49.423 281.01 49.2297 279.717C50.3394 279.096 50.9568 278.013 52.4708 277.77C52.6884 276.401 53.0861 275.202 53.3542 273.881Z" fill="white"/>
<path fill-rule="evenodd" clip-rule="evenodd" d="M10.2698 253.075C11.187 252.518 10.994 250.651 9.35713 250.873C8.89627 251.748 8.89627 253.112 10.2698 253.075Z" fill="white"/>
<path fill-rule="evenodd" clip-rule="evenodd" d="M290.595 252.788C291.153 254.814 293.411 253.365 292.742 251.595C291.715 251.602 290.906 251.884 290.595 252.788Z" fill="white"/>
<path fill-rule="evenodd" clip-rule="evenodd" d="M41.9466 343.803C41.3504 342.51 40.9202 341.059 41.0665 339.056C43.1105 334.673 43.0319 328.271 46.9256 325.65C51.3958 309.479 56.1346 290.596 63.3279 275.383C68.866 271.821 71.6175 265.599 76.5092 261.421C82.8443 258.779 91.1033 257.527 99.0632 257.234C102.97 257.971 105.296 260.224 110.486 259.747C110.015 257.96 108.202 257.454 106.971 256.393C100.635 253.757 91.6602 251.048 85.004 255.275C80.7282 254.109 78.2955 257.059 75.9239 258.627C75.533 259.093 74.2642 258.722 73.8733 259.185C65.3326 264.914 59.4539 273.18 55.4205 283.203C53.2149 285.102 51.3718 287.351 51.9046 291.858C50.0069 296.474 49.3518 302.273 46.6308 306.102C46.74 307.882 46.1111 308.958 46.3403 310.851C41.9903 317.782 40.9639 327.88 37.8455 335.983C37.5878 360.253 43.8377 378.026 55.4205 391.557C47.4235 379.075 44.0234 362.206 40.7739 345.2C40.5337 344.134 42.1868 344.869 41.9466 343.803Z" fill="white"/>
<path fill-rule="evenodd" clip-rule="evenodd" d="M13.2784 261.526C10.4345 260.188 10.0756 263.57 9.83781 265.653C11.1991 265.657 12.6513 265.749 13.593 265.358C13.4648 264.101 13.8961 262.322 13.2784 261.526Z" fill="white"/>
<path fill-rule="evenodd" clip-rule="evenodd" d="M204.195 394.965C203.436 393.926 202.78 395.982 202.429 395.247C200.745 390.779 194.33 390.814 192.129 386.841C191.42 385.893 190.564 387.938 189.772 386.841C189.554 385.886 190.856 386.379 190.948 385.719H188.593C188.093 384.61 187.29 383.785 187.417 382.078C186.495 382.02 185.255 382.266 184.766 381.796C182.898 378.592 180.866 374.481 176.819 374.232C171.56 366.257 165.16 359.366 163.275 348.175C162.709 347.131 161.502 346.692 161.217 345.372C162.755 341.253 160.275 337.478 159.158 334.167C154.968 332.268 154.382 326.944 151.797 323.52C150.057 313.042 145.013 302.349 139.728 293.538C139.061 292.638 139.987 291.683 139.434 291.017C138.912 289.646 136.904 289.69 136.489 288.215C136.129 287.158 135.897 285.98 135.903 284.572C128.606 275.268 122.902 264.444 108.23 262.158C105.421 263.514 101.321 262.279 99.1048 261.319C86.9045 260.79 75.7204 262.233 72.0223 270.564C70.9842 270.696 70.4114 271.272 69.6674 271.686C60.1907 285.243 55.6543 304.741 49.9459 322.68C50.5297 349.539 54.6338 374.826 67.3147 391.044C68.1838 395.913 71.0961 398.84 75.2617 400.569C66.4785 388.855 61.5075 374.66 56.7165 358.82C56.7341 353.606 55.8979 349.017 54.3616 344.812C53.5759 331.612 54.3704 317.851 59.6618 307.828C60.9611 301.595 62.5325 295.618 67.0184 292.418C65.6643 287.052 68.5284 283.946 69.6674 280.089C70.1568 279.622 71.3968 279.866 72.3164 279.812C74.9676 270.752 80.6057 264.54 92.9245 264.68C94.035 265.116 95.1258 265.574 96.4536 265.803C111.746 263.581 117.801 272.567 125.599 278.408C131.303 287.455 137.049 296.462 141.199 306.988C149.747 331.729 160.62 356.681 173.878 377.875C177.216 379.833 180.159 382.166 181.531 385.999C186.901 389.945 193.268 392.945 197.131 398.328C204.042 398.572 207.41 407.327 215.676 405.332C212.807 400.966 206.089 400.262 204.195 394.965Z" fill="white"/>
<path fill-rule="evenodd" clip-rule="evenodd" d="M75.7906 372.67C75.4243 368.189 73.6105 365.07 72.5337 361.254C72.558 358.867 72.3925 356.296 72.8316 354.295C69.7225 347.163 71.7085 336.846 69.279 328.965C72.2667 320.188 69.396 310.58 72.8316 303.36C72.2579 300.66 71.4878 299.353 71.9424 296.121C75.7906 288.883 79.416 281.437 84.0785 274.966C87.2803 273.156 92.0465 272.81 94.4362 270.234C89.9922 263.89 82.7524 272.202 78.7519 274.132C75.0492 280.669 69.1378 285.133 69.5769 295.563C66.2715 298.302 63.6346 301.669 62.4717 306.421C62.0017 312.912 58.1954 320.566 62.7696 325.625C66.3178 319.19 62.9307 306.352 68.3898 302.524C68.5795 313.674 66.6664 323.293 64.5437 333.42C64.4907 334.676 66.3774 334.109 66.0221 335.647C64.2171 340.433 66.0949 347.916 67.8006 352.069C67.2269 357.207 69.6475 363.458 69.8704 369.607C70.3757 370.895 71.7504 371.367 72.2402 372.67C72.761 386.317 81.894 393.929 87.0398 404.123C86.3337 405.052 85.3341 403.153 84.6699 404.123C87.1986 406.011 90.2216 407.437 92.9556 409.134C92.1326 405.893 87.8518 405.797 89.1095 401.338C88.5314 400.026 86.519 400.063 85.8548 398.833C83.8336 391.548 78.2907 386.088 76.0863 379.906C82.9157 385.175 85.7246 394.226 92.0708 399.947C94.0346 402.647 95.7668 405.561 97.991 408.02C99.1693 408.296 98.8803 407.188 100.061 407.464C99.8953 408.142 98.9134 408.055 99.1737 409.134C102.369 410.766 103.355 414.476 107.459 415.254C100.07 407.731 94.9526 398.071 87.9246 390.206C85.2855 383.04 78.7143 379.568 75.7906 372.67Z" fill="white"/>
<path fill-rule="evenodd" clip-rule="evenodd" d="M78.7593 355.271C82.1578 362.623 85.0134 371.972 87.7838 378.968C81.0025 374.938 78.2636 364.264 78.7593 355.271Z" fill="white"/>
<path fill-rule="evenodd" clip-rule="evenodd" d="M197.672 402.314C193.306 401.065 189.246 399.52 187.958 395.358C183.283 394.299 181.132 390.011 179.709 386.731C177.075 386.627 176.111 384.936 173.821 384.504C174.185 382.677 172.368 382.909 172.644 381.166C166.517 378.608 166.409 370.361 160.863 367.251C160.187 359.634 157.43 353.985 153.208 349.721C149.588 340.71 146.147 331.532 141.429 323.56C134.968 307.033 132.024 287.179 118.166 277.644C114.884 271.504 107.569 268.525 97.5532 269.575C90.0294 276.749 78.512 280.15 77.8226 293.783C71.9542 306.802 74.2045 326.992 73.4054 339.424C74.5119 341.625 74.85 344.551 75.7611 346.937C75.7172 347.451 74.7644 347.109 74.5821 347.493C74.9159 348.476 74.9071 349.783 75.1727 350.833C72.9663 370.27 84.2048 379.396 91.3686 390.905C94.4598 393.179 96.7013 396.254 99.0241 399.254C103.538 406.767 113.707 408.939 120.226 414.559C114.726 407.887 107.248 403.08 99.6125 398.418C99.8935 397.573 100.787 397.302 100.497 395.916C100.177 395.011 99.0549 394.864 98.4357 394.243C98.1328 392.955 97.0899 392.364 97.259 390.627C94.069 388.075 92.2468 384.235 90.1896 380.61C89.3422 368.921 84.7361 357.725 80.7667 348.885C82.0906 344.123 77.276 340.032 79.2936 336.364C78.5801 335.274 77.8578 334.196 76.9379 333.301C78.6437 332.779 78.3891 330.405 79.5878 329.405C78.4439 329.096 77.2562 328.828 77.2343 327.457C78.7579 324.67 78.7777 323.372 77.8226 320.222C78.4593 318.967 79.882 318.456 80.1784 316.882C78.3056 299.638 83.151 284.125 94.9033 277.922C95.9198 278.167 96.8353 278.507 97.259 279.314C99.0351 287.596 95.5707 295.229 95.4894 302.968C95.3841 313.72 98.888 325.473 101.674 335.247C104.974 346.825 109.297 358.296 115.222 366.695C114.957 367.186 114.511 367.506 114.337 368.087C121.563 379.996 127.223 393.384 138.777 401.202C139.871 401.366 140.487 400.345 141.133 400.924C144.466 406.588 152.387 407.914 155.269 414.001C161.096 416.284 165.151 420.248 170.583 422.908C171.775 423.363 171.937 421.435 172.644 422.354C172.901 423.244 171.878 422.929 171.762 423.464C173.347 424.141 176.923 424.276 178.532 424.02C176.954 420.865 169.551 420.829 168.521 416.23C162.912 415.317 161.074 410.837 154.973 410.385C154.543 409.327 156.29 410.329 155.86 409.273C151.091 404.592 145.298 400.885 142.9 393.967C139.901 392.133 139.058 386.88 134.654 387.287C133.025 392.455 140 394.038 140.839 398.698C135.949 397.003 131.418 392.579 131.418 385.339C128.399 383.185 127.543 378.981 123.466 377.826C124.628 376.033 122.573 375.745 121.699 375.044C121.747 370.359 119.095 368.226 116.103 366.417C116.684 365.666 116.278 363.985 116.399 362.798C110.313 343.503 99.6498 327.052 99.0241 303.524C101.738 311.906 104.252 320.477 106.093 329.683C109.582 332.969 110.75 338.453 113.453 342.484C113.661 349.893 117.65 353.734 119.051 360.016C123.427 367.782 128.511 376.212 134.068 383.67C141.1 385.556 142.321 392.936 148.496 395.638C147.976 396.223 147.831 396.459 148.2 397.306C153.994 402.408 157.768 409.418 167.342 410.941C162.014 404.565 153.963 400.769 149.673 393.411C146.321 392.032 143.754 389.915 142.9 386.175C133.895 379.751 130.077 368.423 123.758 359.46C124.118 356.578 121.87 355.881 121.108 354.171C120.054 351.802 119.602 349.534 118.755 347.771C115.069 340.123 115.332 330.419 109.035 325.787C106.396 313.902 101.248 304.392 100.203 291.001C102.146 289.125 102.1 285.372 101.97 281.54C107.824 281.802 110.937 286.947 114.041 290.723C116.689 301.964 123.894 312.753 124.643 325.787C126.461 326.857 127.104 328.876 126.408 331.631C129.721 333.976 129.956 339.225 130.827 343.874C133.387 350.269 136.402 356.232 139.662 361.962C140.709 367.84 144.802 370.834 147.614 375.044C148.857 375.631 150.216 376.108 150.852 377.27C150.611 377.853 149.64 378.355 150.264 378.94C158.31 389.888 167.571 399.683 180.298 406.211C180.208 406.862 179.722 407.362 180.298 407.881C183.777 409.234 186.004 411.767 190.897 411.775C191.284 412.713 191.303 413.993 192.078 414.559C194.217 414.985 196.417 416.717 199.143 415.674C199.416 413.665 195.016 413.723 195.907 410.941C194.43 410.144 191.668 411.113 190.897 410.941C191.565 410.439 191.593 409.536 191.194 408.717C184.519 405.655 177.364 403.047 174.704 396.194C167.871 394.855 166.646 388.224 160.863 385.897C161.595 383.536 158.694 383.249 159.687 381.166C158.499 380.434 157.133 379.869 157.037 378.104C156.778 376.844 158.508 377.454 158.51 376.434C155.649 375.973 154.857 372.736 151.735 373.375C144.865 362.707 134.968 350.866 136.127 336.084C132.116 333.843 133.451 326.552 129.947 323.84V317.44C121.885 304.369 121.631 283.924 106.68 277.364C103.011 278.189 99.202 277.108 98.7299 274.027C110.282 272.411 118.728 280.893 121.699 290.167C129.361 300.364 133.231 314.145 136.718 328.291C138.661 330.075 140.119 332.314 140.545 335.528C141.289 336.214 142.332 336.621 142.9 337.474C143.348 338.351 143.882 339.144 144.079 340.258C147.689 343.341 149.069 348.53 151.146 353.059C153.311 356.547 158.683 362.421 156.446 366.417C153.111 364.931 151.675 361.649 150.852 357.79C144.538 354.107 146.821 340.824 139.074 339.424C138.257 341.372 139.862 343.268 139.368 345.825C145.724 355.124 149.269 367.079 159.979 372.261C160.099 373.579 159.454 374.176 159.687 375.602C170.752 390.376 185.352 401.808 203.563 409.831C205.051 409.848 205.249 409.476 206.507 409.831C206.669 410.325 206.656 410.985 207.098 411.221C206.672 409.028 208.511 410.368 208.865 409.273C203.69 409.151 203.37 404.447 198.263 404.262C197.87 403.798 197.481 403.331 197.672 402.314Z" fill="white"/>
<path fill-rule="evenodd" clip-rule="evenodd" d="M23.1695 276.851C23.1435 275.228 23.1067 273.589 23.4594 272.33C18.5385 273.568 18.9432 279.987 15.0415 282.217C14.1781 287.613 9.52549 294.634 12.1396 299.73C12.2197 294.537 14.7191 291.696 17.3635 288.996C17.7984 283.487 21.0531 280.722 23.1695 276.851Z" fill="white"/>
<path fill-rule="evenodd" clip-rule="evenodd" d="M155.454 417.582C153.317 416.898 152.372 415.092 150.121 414.512C148.373 410.949 144.309 409.57 142.119 406.422C133.921 403.541 129.45 397.149 125.228 390.518C124.475 389.931 123.198 389.827 122.268 389.401C122.498 387.61 120.572 383.252 117.527 382.705C112.782 371.992 107.365 361.546 104.785 350.061C103 347.652 101.993 344.509 99.7484 342.529C101.657 341.092 99.0834 338.408 99.4524 335.831C98.8979 334.772 97.473 334.535 97.0798 333.322C97.4663 327.953 96.5915 324.426 95.3058 319.371C93.8522 313.671 94.3802 306.759 92.6372 302.909C94.0952 299.936 93.9494 295.27 92.9332 292.03C93.5628 289.346 95.8758 286.831 95.0098 283.659C92.3809 282.632 91.42 285.45 90.2646 286.727C89.3942 297.103 91.5481 307.685 90.8589 318.533C92.7013 328.711 96.2027 337.146 95.5996 347.829C97.6122 347.515 98.3213 348.428 99.4524 348.946C105.907 365.745 111.532 383.329 123.748 394.703C124.155 395.254 124.031 396.298 124.343 396.937C135.58 408.301 148.915 417.693 162.863 426.51C165.055 426.958 167.469 427.195 170.27 427.07C165.013 425.229 161.873 421.395 156.048 420.093C155.697 419.398 155.617 418.45 155.454 417.582Z" fill="white"/>
<path fill-rule="evenodd" clip-rule="evenodd" d="M9.7129 284.649C9.77873 284.416 9.96717 284.301 10.3213 284.349C10.4144 283.565 9.90133 283.372 9.10219 283.456C9.01819 284.134 9.17711 284.576 9.7129 284.649Z" fill="white"/>
<path fill-rule="evenodd" clip-rule="evenodd" d="M34.3219 331.963C34.8591 328.446 37.3078 325.232 38.0824 321.878C39.1913 317.099 40.2485 313.127 41.845 308.992C42.4771 307.434 40.4146 307.035 40.9777 306.471H42.7144C43.6011 303.094 44.1772 300.444 46.764 298.35C45.4565 294.647 51.0875 292.005 48.5007 287.143C43.4933 286.997 43.1157 293.669 41.845 298.068C39.5408 299.759 38.7145 302.881 38.954 307.031C34.0868 310.373 35.5991 319.111 31.7179 323.839C32.0372 329.377 30.952 333.554 30.2702 338.126C31.2584 349.029 31.9854 361.825 36.926 368.938C36.8375 369.959 36.9734 370.761 37.2151 371.461C38.0306 371.697 38.4038 372.365 39.5322 372.298C34.2572 360.233 32.3155 345.074 34.3219 331.963Z" fill="white"/>
<path fill-rule="evenodd" clip-rule="evenodd" d="M112.001 307.876C114.835 311.133 115.868 316.009 116.541 321.206C112.824 318.833 111.967 312.75 112.001 307.876Z" fill="white"/>
<path fill-rule="evenodd" clip-rule="evenodd" d="M122.51 344.11C129.796 368.697 145.232 385.567 161.065 402.059C163.226 403.172 165.473 404.198 166.361 406.518C167.039 407.162 167.309 406.001 168.421 406.236C169.99 412.183 175.076 414.796 179.311 418.216C180.638 417.899 181.509 417.141 183.135 417.105C178.073 412.982 173.714 408.192 167.539 405.125C165.016 400.732 161.001 397.755 156.944 394.816C156.303 393.287 155.378 392.027 155.178 390.082C145.895 382.619 139.992 371.952 134.286 361.105C132.146 349.567 122.903 342.353 121.926 328.788C117.94 324.856 120.017 315.827 117.803 309.564C116.654 306.312 114.31 304.93 114.271 301.765C113.246 300.506 111.798 299.648 111.032 298.143C111.555 295.419 109.404 295.228 108.974 293.407C109.233 290.561 108.742 288.424 107.208 287.277C104.272 286.635 103.836 288.357 103.676 290.343C108.281 302.884 107.436 320.585 116.919 328.509V331.854C118.747 335.977 119.984 340.654 122.51 344.11Z" fill="white"/>
<path fill-rule="evenodd" clip-rule="evenodd" d="M216.784 349.265C218.352 350.14 221.093 351.255 223.243 350.659C222.227 345.31 215.665 345.216 214.435 340.071C213.561 339.969 212.944 339.626 212.379 339.234C209.025 331.271 203.474 325.392 197.989 319.45C197.435 319.045 197.952 317.626 197.4 317.223C195.288 314.863 192.253 313.378 192.115 309.142C189.439 308.523 189.696 305.122 187.123 304.404C184.857 299.31 181.888 294.879 177.725 291.584C177.163 291.702 176.46 291.688 176.55 292.423C175.405 295.278 178.969 296.069 179.488 298.273C183.985 309.612 192.658 316.982 197.4 328.088C205.234 333.847 210.658 341.893 216.784 349.265Z" fill="white"/>
<path fill-rule="evenodd" clip-rule="evenodd" d="M127.555 414.192C122.398 413.053 121.899 407.485 117.875 405.269C114.388 399.85 109.104 396.13 105.264 391.047C104.68 390.501 105.076 389.455 105.264 388.817C100.918 385.804 97.9367 378.78 97.928 373.481C92.9216 367.768 94.6429 357.145 90.2992 350.615C92.8757 347.76 90.1089 344.074 89.7109 340.856C88.9891 334.979 86.452 328.774 86.7801 322.173C86.8545 320.689 87.8168 319.256 87.9524 317.714C88.4948 311.579 86.124 305.24 87.9524 298.471C87.3356 297.199 87.4209 295.259 86.1918 294.567C85.0982 294.455 84.4705 294.792 84.4333 295.683C84.0899 301.344 83.2019 308.702 84.4333 314.088C81.3669 328.667 84.9866 341.679 86.7801 354.799C88.0137 363.82 95.2597 371.946 94.9928 381.846C99.8089 389.07 105.388 395.573 110.248 402.758C113.457 404.359 115.981 406.606 118.463 408.893C119.583 409.697 120.04 408.032 121.103 408.893C121.473 414.362 128.463 418.217 131.958 422.555C134.937 423.368 138.084 425.445 140.757 425.622C138.117 423.106 132.835 420.705 129.023 418.373C129.193 416.354 128.034 415.599 127.555 414.192Z" fill="white"/>
<path fill-rule="evenodd" clip-rule="evenodd" d="M9.08105 301.138C9.65912 301.412 9.89035 302.055 10.832 301.938C11.481 301.475 11.3411 300.171 11.3337 299.011C9.73931 298.822 9.3589 299.927 9.08105 301.138Z" fill="white"/>
<path fill-rule="evenodd" clip-rule="evenodd" d="M12.943 316.762C15.7482 314.039 16.3079 308.889 18.1621 304.158C12.9085 300.456 12.6556 311.892 12.943 316.762Z" fill="white"/>
<path fill-rule="evenodd" clip-rule="evenodd" d="M9.12758 302.694C8.79839 303.827 10.3013 304.698 10.9551 303.885C10.1288 303.701 10.1991 302.641 9.12758 302.694Z" fill="white"/>
<path fill-rule="evenodd" clip-rule="evenodd" d="M79.393 398.644C73.6816 388.741 69.52 377.368 64.8838 366.446C65.6521 365.96 65.4821 364.586 65.4777 363.365C61.7069 351.18 63.0801 336.284 58.073 324.168H57.1833C56.3598 326.748 56.9405 330.654 56 333.127C56.7881 334.351 56.6358 336.288 56.298 337.887C57.8743 344.053 58.9826 349.892 59.5566 356.086C60.7466 369.018 67.3035 381.965 73.176 391.365C75.8981 395.724 77.7637 401.356 83.2432 403.406C83.0401 400.796 81.2209 399.717 79.393 398.644Z" fill="white"/>
<path fill-rule="evenodd" clip-rule="evenodd" d="M270.919 329.37C271.328 330.289 271.678 331.254 272.891 331.573C273.969 330.969 275.146 329.758 274.535 328.634C272.84 328.515 271.781 328.868 270.919 329.37Z" fill="white"/>
<path fill-rule="evenodd" clip-rule="evenodd" d="M50.8771 362.999C51.7083 356.18 48.7701 352.96 48.2579 347.426C47.6178 341.648 49.6598 334.28 47.0926 329.352C41.9844 332.818 46.14 342.608 43.8919 348.536C45.2763 353.381 44.9704 360.117 49.7118 362.999C49.1628 363.401 48.4229 363.619 48.5487 364.668C52.0424 377.644 57.4263 391.78 66.5946 397.481C65.2253 393.505 62.337 390.982 60.1887 387.749C56.6754 379.892 54.7723 370.494 50.8771 362.999Z" fill="white"/>
<path fill-rule="evenodd" clip-rule="evenodd" d="M16.9608 330.833C16.2321 333.513 16.9676 335.492 17.2673 338.238C18.6408 337.329 20.087 331.663 16.9608 330.833Z" fill="white"/>
<path fill-rule="evenodd" clip-rule="evenodd" d="M25.0255 343.407C27.0193 341.26 26.0026 338.511 24.694 336.339C23.6798 336.542 23.7169 335.85 22.7027 336.055C23.2024 339.816 21.733 346.628 25.6885 349.346C27.1183 347.12 26.4603 345.112 25.0255 343.407Z" fill="white"/>
<path fill-rule="evenodd" clip-rule="evenodd" d="M121.01 396.666C120.419 396.196 118.832 396.689 118.368 396.106C118.401 395.576 119.338 395.91 119.248 395.265C111.208 386.241 104.825 376.079 102.225 362.504C98.6933 359.529 100.628 351.336 96.0629 349.346C94.669 349.603 94.8834 351.394 94.5946 352.707C96.6997 355.853 96.9864 359.082 97.8223 362.504C101.339 376.951 108.534 388.85 116.02 398.065C125.329 405.423 131.914 415.383 143.024 421.023C143.026 422.048 143.858 422.282 144.197 422.985C148.58 424.311 151.007 427.501 155.644 428.584C156.217 428.01 157.274 427.901 157.405 426.906C141.604 420.326 131.389 408.417 121.01 396.666Z" fill="white"/>
<path fill-rule="evenodd" clip-rule="evenodd" d="M25.8698 351.568C25.4986 353.305 25.7547 357.812 28 358.973C27.8531 356.191 27.3448 353.789 26.6679 351.568H25.8698Z" fill="white"/>
<path fill-rule="evenodd" clip-rule="evenodd" d="M41.9574 375.801C41.0659 374.727 40.3017 373.537 38.7349 373.043C37.7448 375.745 42.3659 375.741 40.9914 379.665C41.8661 379.494 43.5482 380.016 43.8919 379.391C43.034 378.467 41.9838 377.712 41.311 376.63C41.3422 376.194 42.1352 376.414 41.9574 375.801Z" fill="white"/>
<path fill-rule="evenodd" clip-rule="evenodd" d="M209.644 384.067C210.143 384.524 211.177 385.307 211.892 384.624C211.696 383.381 210.788 383.022 209.87 382.671C209.679 382.997 209.572 383.419 209.644 384.067Z" fill="white"/>
<path fill-rule="evenodd" clip-rule="evenodd" d="M216.432 387.348V389.447C218.831 390.895 221.025 392.558 224.378 393.038C224.94 391.913 226.882 392.192 227.027 390.643C222.605 390.279 221.047 384.011 216.432 387.348Z" fill="white"/>
<path fill-rule="evenodd" clip-rule="evenodd" d="M232.828 395.26C233.735 394.741 234.849 394.37 234.543 392.932C231.671 390.694 228.738 395.084 232.828 395.26Z" fill="white"/>
<path fill-rule="evenodd" clip-rule="evenodd" d="M75.6762 401.203C75.6399 402.074 77.4561 402.431 77.5038 401.501C77.1428 401.156 76.4277 401.163 75.6762 401.203Z" fill="white"/>
<path fill-rule="evenodd" clip-rule="evenodd" d="M214.947 407.043C215.907 406.992 216.763 406.832 216.772 405.85C216.118 405.297 214.704 405.803 214.947 407.043Z" fill="white"/>
<path fill-rule="evenodd" clip-rule="evenodd" d="M105.189 407.849C106.768 412.806 112.626 413.893 116.541 416.735C113.091 413.47 110.698 409.249 105.189 407.849Z" fill="white"/>
<path fill-rule="evenodd" clip-rule="evenodd" d="M185.21 418.26C185.092 417.557 185.732 417.624 185.496 416.802C183.128 416.504 181.784 417.18 182.635 419.429C184.95 420.373 187.403 421.179 190.647 421.179C191.163 417.829 187.989 418.247 185.21 418.26Z" fill="white"/>
<path fill-rule="evenodd" clip-rule="evenodd" d="M116.541 418.398C117.81 418.938 119.418 421.371 121.081 420.05C119.416 419.778 118.572 417.579 116.541 418.398Z" fill="white"/>
</g>
</g>
</svg>
