<svg xmlns="http://www.w3.org/2000/svg" xmlns:xlink="http://www.w3.org/1999/xlink" width="95" height="83" viewBox="0 0 95 83">
    <defs>
        <path id="a" d="M41.77 3.347c-7.261 5.242-6.62 11.115-18.616 11.115-11.997 0-33.095 33.346-17.789 46.843 15.307 13.497 26.89 25.406 45.92 19.055 19.03-6.352 20.27-11.513 28.13-31.361 7.86-19.849 5.221-32.75-7.036-41.53C60.12-1.31 49.03-1.896 41.769 3.347z"/>
    </defs>
    <g fill="none" fill-rule="evenodd">
        <g transform="translate(0 .217)">
            <mask id="b" fill="#fff">
                <use xlink:href="#a"/>
            </mask>
            <use fill="#87BD24" xlink:href="#a"/>
            <path fill="#FFF" d="M9.562 29.672a1.024 1.024 0 0 1-.697-.272c0-1.4 1.5-2.578 2.046-1.148-.041.44-.248.822-.532 1.078 1.94-.795 4.013-1.574 5.08-2.728 2.107-.155 3.522-.981 5.232-1.52 5.655-.295 13.617-.722 18.833 1.52 3.044-.456 6.576.78 7.715 3.293 3.156.953 3.858 4.284 7.062 5.192-.148 1.98 2.421 1.914 3.401 3.165-.535 2.698 3.524 2.841 4.054 5.32.267.33 1.002.211 1.308.506.15 1.289 1.452 1.465 1.569 2.786 1.74.804 2.78 2.288 3.792 3.8 2.194.407 3.13 2.035 3.793 3.925 2.456 1.293 3 4.44 5.494 5.699 1.314 2.862 3.764 4.626 5.1 7.471.546.06 1.015.199 1.437.38 1.41 1.21 1.49 3.708 3.27 4.56 2.083 3.553 4.883 6.414 7.586 9.37 1.395 2.32 2.607 4.819 5.1 6.078.216 1.31 1.66 1.432 1.7 2.913 1.11.994 2.057 2.143 2.745 3.545 1.094 1.39 3.517 1.492 3.533 3.927.768.885 1.632.931 2.745 1.519.45 3.49 3.837 4.137 4.316 7.598-4.052-1.31-4.78-5.84-8.761-7.219.197-1.244-.777-1.358-.786-2.404-3.48-1.148-4.78-4.407-6.8-6.966-3.176-3.003-5.611-6.724-8.762-9.75-1.407-4.548-5.36-6.63-6.931-11.02-1.001-.76-1.895-1.625-3.008-2.278.057-.436-.053-.71-.132-1.013-5.877-5.959-10.144-13.477-16.87-18.615-.74-2.113-2.817-2.929-3.792-4.812-4.53-2.58-7.512-6.657-10.854-10.385-3.44-2.536-7.45-4.521-12.293-5.699-.94-.835-3.89-1.123-5.232-.38-2.878-.398-6.49-.86-8.894.38-1.955-.205-3.218.795-4.576.76-3.31 2.747-8.274 3.893-12.424 5.826-1.376 1.456-2.155 3.485-4.447 4.052 1.033-1.772 2.277-2.952 2.747-4.939 1.17-.26 1.602-1.234 2.877-1.392.59-.861 1.839-1.513 3.256-2.123zm14.306-6.377c-.104.198-.331.27-.683.217v-.74h.733c.014.1.019.19.014.27.762-1.558 8.07-.73 10.211-.815 4.985 1.235 10.998 2.134 12.91 6.065-4.847-2.746-10.715-3.885-16.731-4.853-.863.595-6.498 1.542-6.455-.134a.68.68 0 0 1 0-.01zM114.864 5.32c.095.18.145.388.114.59-.537-.135-.787-.562-1.098-.926a.497.497 0 0 1 .105-.09 1.852 1.852 0 0 1-.092-.065c-.04-.32.02-.53.122-.69.813.009 1.14.561 1.23 1.38a3.29 3.29 0 0 0-.38-.2zM56.64-27.502c-.526.132-1.212-.028-1.404-.37.143-.806 1.428-.166 2.046-.37a.669.669 0 0 1-.378.64c.256-.008.611.084.816.023.08.472-.956.738-1.098.371-.036-.14-.025-.234.018-.294zm-6.334.889c.043-.469-.18-.717-.525-.866.017-.239.557-.046.788-.108-.4 1.152 1.511.627 2.622.65-.162 1.103-2.096.694-2.885.324zm14.236 1.285c-.878-.71-2.1-1.087-2.486-2.274 1.707.46 3.197 1.002 4.58 2.022.018.31.02.608-.13.758 2.7 1.477 4.008 4.3 6.543 5.94-.113.739.238 1.033.393 1.516.38.138.928.114 1.308.252-.228 1.188.751 2.19 1.831 2.527.164.811.806 1.161.916 2.022 1.79 1.431 3.692 2.754 4.188 5.433 1.947 1.406 2.657 4.006 4.971 5.056.228 2.012 2.409 2.14 3.272 3.539 1.522 4.258 5.124 6.509 7.59 9.856.39.027.445-.466.785-.127.434.526.376.973.13 1.643.752.709 2.162.778 3.01 1.39.012.474-.926.033-.915.506.157.69.606 1.1 1.57 1.01.188.83.92 1.133 1.439 1.644.035.412-.507.268-.523.632.32.322 1.106.195 1.57.379.966 1.763 1.577 3.868 3.534 4.675-.029.181-.39.045-.393.253 1.085 2.027 3.485 2.784 4.187 5.182.702.207.967.835 1.963.757 1.077 2.246 2.944 3.728 4.71 5.308.528 2.103 1.574 3.704 3.927 4.044.528 1.512 2.562 2.417 1.047 4.169-.182-.328-.722-.314-1.047-.504-.741-2.866-4.225-3.082-5.234-5.687-.072-.28.25-.18.26-.38a20.594 20.594 0 0 1-5.232-5.307c-6.487-3.129-8.081-10.983-13.218-15.417-.605-.26-1.443-.291-1.962-.632.867-1.49-1.25-1.776-2.356-2.148C91.54 6.56 86.37 2.287 83.124-3.845c-.171-.3-.709-.244-1.048-.38-.332-.9-.807-1.662-1.831-1.895-.064-.396.35-.333.393-.631-2.482-1.816-3.83-4.728-6.02-6.825-2.906-4.355-6.82-7.737-10.077-11.752zm54.209 67.686c2.042 2.194 4.861 3.639 5.359 7.326-1.504-1.073-3.413-1.754-3.922-3.79-2.469-.435-2.69-3.04-4.966-3.662-.274-.536-.572-1.049-.786-1.642-.782-.76-1.768-1.322-2.614-2.02a.46.46 0 0 0 0-.633c-1.601-1.525-3.44-2.822-4.576-4.798-1.525-.673-2.54-1.842-3.267-3.285-2.884-.623-4.401-2.568-5.882-4.547-.195-.316-.587-.443-.916-.63-3.37-3.438-4.744-8.805-8.628-11.746-1.272-2.644-2.972-4.876-3.92-7.83C80.46.414 77.305-5.253 72.211-9.047a30.668 30.668 0 0 0-3.399-4.42c-.16-.409.422-.097.262-.506-3.015-2.98-5.115-6.846-8.628-9.346-.017-.226.16-.266.13-.505-1.032-.644-2.043-1.309-2.614-2.4 1.67.037 3.655.843 3.922 2.652 1.591 1.284 2.959 2.783 4.967 3.663.042.297.207.474.131.885 2.711 2.39 4.288 5.875 7.451 7.83.798 2.393 3.079 4.429 4.837 6.315.056.517-.43.51-.261 1.137.395.18.753.105.783-.378.917 1.766 2.541 2.85 3.139 4.925 1.565.72 2.54 2.007 3.137 3.662-.092.25-.73-.03-.785.253.382.319 1.259.043 1.7 0 .242 1.242.446 2.29 1.307 2.652.098.389-.36.243-.261.632.3.593 1.135.67 1.568 1.137.102.436-.145.532-.261.757.11.357.804.15 1.047.38.106 1.158 1.147 1.415 1.436 2.4.328.165.41-.5.523-.128.8 1.45 1.74 2.688 1.961 4.169 2.31 1.851 2.168 6.072 5.23 7.198-.05.72.237 1.118.522 1.516 1.777-.032 1.76 1.666 3.006 2.147-.81-4.564-6.293-6.38-6.666-11.367 2.03 1.238 3.686 2.84 4.836 4.926 1.01.667 2.363 1.53 2.092 3.03 1.584 1.796 1.868 4.848 3.921 6.19v.757c2.784.47 2.872 3.543 5.491 4.169 1.58 2.768 4.746 4.003 6.014 7.072zM77.663-25.988c.088-.828-.548-.926-1.28-.924-.08.82.466 1.007 1.28.924zm.445 7.057c-3.663-1.013-4.547-4.722-7.189-6.726 2.033-2.304 2.497 3.241 5.228 2.284.168.343.58.451.522 1.015-.85.153-1.146-.778-1.7-.507.01.795 1.082.558 1.7.76 2.396 3.512 4.94 6.879 7.841 9.899v.887c2.873 3.69 5.9 7.884 8.758 11.167 1.579.538 1.922 2.278 4.181 2.157.177.293.526.42.391 1.015-.314-.052-.283.231-.653.126-.57.09-.277-.659-.652-.761-.289.705.28 1.67 1.045 1.777.506.103.491-.951.914-.508.055 2.838 3.234 3.267 3.267 5.71.137.332.53.415 1.046.38.637 1.329 2.174 1.78 3.266 2.666.424 2.212 1.926 3.376 3.53 4.44.166.502-.38.308-.392.635.556 1.705 2.838 2.398 2.874 4.187.168.175.568.126.915.128.337.391.653.804.784 1.395 2.48 1.357 3.027 4.59 5.75 5.71.754 1.214 1.874 2.07 2.745 3.172v.762c1.157.482 1.432 1.824 1.83 3.044-3.118-3.444-7.675-5.49-9.932-9.77a2.93 2.93 0 0 1-1.177-.126c-1.054-2.278-2.493-4.179-4.835-5.203-.062-.398.163-.519.393-.635-1.3-.938-2.39-2.078-2.614-4.06-.749-.246-1.425-.563-1.438-1.522-.369-.362-.98-.488-1.307-.889-.965-1.897-2.633-3.111-3.79-4.821-.4.091-.477-.13-.785-.127-1.447-1.724-2.36-3.969-4.18-5.33v-.507c-5.017-5.24-10.09-10.422-13.592-17.13-.12-.223-.458-.232-.653-.38-.097-.391.358-.245.26-.635-1.602-.244-3.127-2.372-2.351-3.68zM46.37-25.498c-1.015.22-2.235.99-3.41.49.062-.472.29-.742.684-.815.485-.254.081.552.41.49.399-.585 1.785-1.255 2.316-.653v.488zm77.085 78.865c-.161 1.77 1.047 2.601.52 3.908-.87-.713-1.79-1.376-1.952-2.773-1.171-.841-2.543-1.487-2.733-3.279-2.322-1.447-4.284-3.245-6.115-5.168-.975-.106-1.628-.524-1.822-1.388-1.765-1.946-3.892-3.54-5.205-5.925-.908-.464-1.538-1.2-1.822-2.269-4.437-3.056-7.45-7.49-11.189-11.22-3.914-4.36-7.09-9.438-10.28-14.499-.074-.41.09-.587.13-.882-1.703-3.814-5.035-6.047-6.895-9.709-.255-.215-.729-.218-1.041-.378-.02-1.37-1.213-2.365-2.214-2.016.143-2.738-4.036-2.51-3.25-5.045-.749-.62-1.804-.942-2.473-1.638-.36-1.205-.654-2.477-1.691-3.026.054-.24.28-.316.259-.63-3.648-3.021-5.08-8.188-10.15-9.834-.284-.263.066-.359 0-.756-1.279-.23-2.386-.63-2.341-2.144.343-.316 1.06-.292 1.43 0 2.409 2.08 5.934 3.078 7.418 6.053.453.61 1.223.915 1.821 1.386.713 2.553 3.409 4.257 4.165 7.186 3.567 2.721 5.862 6.673 9.497 9.33-.063.397.237.444.13.882.098.412.65.38 1.042.505.092.467-.222.54-.13 1.009 1.41.189.893 2.242 2.601 2.143.15.352.15.655 0 1.008.333.52 1.144.574 1.563 1.009.11 2.045 1.843 3.663 1.951 5.295.444.494 1.213.672 1.692 1.135.909 2.898 2.67 4.918 4.554 6.556 2.576 5.613 7.486 8.969 11.06 13.615.654.039 1.028.349 1.562.505.063.397-.235.444-.13.882 4.979 5.178 10.01 10.303 15.484 15.003-.03.527.21.595 0 1.008 1.635.77 2.698 2.093 3.382 3.783.174.336.87.164 1.172.378zM80.466-23.746c-.273-.798-.86-1.252-2.045-1.047.068.941 1.303 1.791 2.045 1.047zm-28.988 4.67c-.49-2.806-4.952-2.75-5.108-5.076.914.129 1.938.152 3.013.126 1.61 2.16 5.265 2.343 6.417 4.95.35.295.955.342 1.44.507.25.858.644 1.576 1.703 1.65 1.902 3.104 5.575 4.494 7.203 7.867-2.049.454-3.165-1.073-3.797-2.41-2.047-1.53-4.157-2.996-6.157-4.57-.006-1.574-2.28-2.992-4.714-3.045zm28.367-2.418c.108-.527-.18-1.056 0-1.266.48-.04.857.02 1.186.127.283.825.848 1.38 1.712 1.646-.586 1.383 1.752 1.644 1.45 3.545 2.347 2.185 5.494 4.627 5.664 8.103.235.451.86.525 1.185.887 2.017 3.844 6.29 5.521 8.3 9.37.986.488 1.817 1.123 2.899 1.52 1.545 2.79 4.694 5.099 6.981 7.596 1.536 3.757 4.364 6.273 7.51 8.483 1.127 2.545 2.56 4.8 4.347 6.711-.09.294-.438.338-.526.634 2.403.476 2.898 3.454 3.556 5.19-1.091-.976-2.604-1.55-2.898-3.291-.517-.434-.378.576-1.054.38-.42-.316-.163-.622 0-1.014-3.433-3.538-5.065-8.806-9.88-11.016-.072-.49.335-.52.395-.886-.238-.392-.404-.067-.922-.126-.152-.15-.149-.447-.133-.76-2.928-4.698-7.32-7.99-10.406-12.535-.871-.218-1.422-.743-2.109-1.14-.056-1.17-1.064-1.424-1.318-2.405-3.259-.202-3.32-3.476-5.663-4.558-.072-.45.467-.312.395-.761-2.03-1.895-2.675-4.344-4.875-6.077.015-.324.074-.604.265-.76-1.326-.836-2.09-2.212-2.636-3.798-1.15-.686-2.362-1.782-2.372-3.165-.086-.466-.818-.31-1.053-.634zm-53.106 6.507c-.537-.161.584-.748.788-1.021.04-.337-.274-.33-.527-.383.996-1.121 3.522-.214 3.938-2.042 1.361.303 1.584-.5 2.1-1.02.704-.09.837.376 1.312.51 4.955-1.025 8.722 2.417 13.386 1.659-1.561-2.225-5.338-2.297-7.086-4.34-.732-.074-1.162.149-1.706.256.04.174.328.106.525.128-1.557.782-2.526-.966-3.807-1.276 2.599-.6 3.73.468 6.038-.256 1.478.775 3.141 1.37 4.855 1.914.046 1.061 1.162 1.082 1.969 1.405-.212 2.97 3.145 2.469 4.2 4.21h1.049c.521.6 1.056 1.186 1.575 1.787.57-.026 1.072-.26 1.574 0 1.738 2.904 4.912 4.412 7.217 6.763 1.508.164 2.055 1.309 3.545 1.149 1.07 3.468 5.122 4.036 6.035 7.658.233.37.652-.444.919 0 1.297 1.418 2.187 3.232 3.937 4.21.773 2.225 1.613 4.388 3.413 5.615.296.814.332 1.322.524 2.042-.523.087-.812.402-1.312.51-3.97-7.115-9.478-12.733-15.75-17.61-.109-.275-.338-.436-.26-.893-.455-.069-.699-.342-1.181-.383-.98-2.706-5.05-2.406-6.037-5.104-.465-.06-.758-.285-1.313-.256-3.242-2.25-6.429-5.23-11.68-5.105-1.9-.655-4.695-.988-6.43-2.169-4.18-.557-8.354.331-11.022 2.297-.337-.014-.626-.073-.788-.255zm59.865-5.861c-.407-.066-.982-.895-1.364-.371.362.113 1.084.78 1.364.37zm6.699 7.737c-3.123-.438-4.957-4.217-6.7-6.75.316-.281 1.287-.1 1.64 0 .199.472-.374.239-.272.625.953.47 2.307 1.184 3.28 2v1.125c.625.408 1.975.752 1.369 1.875.215.308 1.126.63.683 1.125zm4.204-1.38c.122-.657-1.362-.977-2.039-1.38.569.547.985 1.215 2.04 1.38zm22.907 81.235c2.007.306 2.734 2.266 3.013 3.542-.476.338-.9-.251-.917-.759-.551-.141-1.802.39-1.572-.506-1.247.614-1.583-.607-2.49-1.012-.101-.477.159-.606.13-1.012-2.602-1.661-4.572-3.937-6.027-6.707-3.469-1.754-4.583-5.78-7.863-7.718-.465-1.196-1.408-1.93-1.703-3.29-.33-.272-.872-.339-1.179-.633-3.857-4.33-5.982-10.336-11.007-13.538-2.9-4.666-7.186-7.993-9.565-13.16-.103-.522.2-.65.13-1.14-2.786-3.763-5.105-7.976-8.78-10.881-4.072-6.991-11.166-11.066-17.56-15.818h-1.179c-.75-1.34-2.264-1.945-3.93-2.403-.796-.372-1.257-1.064-1.836-1.646-4.61-.795-9.28-1.948-14.02-1.898-.45.2-.904.393-1.31.633-2.388-.856-3.92.408-6.29.507-1.841 1.237-3.947 1.942-6.683 2.53-.022-.823.692-.935.787-1.644 4.162-2.12 9.13-4.303 14.283-4.682.222.079.216.382.392.505 6.578-.156 12.137 1.44 16.51 3.797h1.18c1.03 1.41 3.442 1.485 3.931 3.417.465.057.758.28 1.311.252 3.538 2.404 6.37 5.49 10.221 7.593.123 1.06 1.253 1.152 1.311 2.277 2.152 1.254 3.606 3.181 4.717 5.441 1.077.466 2.914 2.314 2.883 3.415.324-.016.632-.018.787.128.64 2.25 2.075 3.732 2.75 5.947.238.235.662.29 1.049.379.524 1.057.082 3.041 1.573 3.164.637 2.253 2.033 3.773 3.67 5.061.391 1.771 1.657 2.701 3.013 3.544 2.64 3.903 6.578 6.552 8.516 11.134.434.383 1.021.618 1.574.886.136.29.083.763.261 1.012 1.47.397 2.446 1.266 2.358 3.163 2.567 1.108 2.637 4.625 5.505 5.442-.04.46.021.823.13 1.139 2.835 1.228 2.744 5.282 6.03 6.073.233 1.293 1.464 1.623 1.702 2.91.357.205 1.051.082 1.31.38.19.282.33.61.263 1.14 1.112.781 2.291 1.498 2.621 3.036zM100.541-7.887c-2.001-.782-2.357-3.154-3.027-5.224h.262c3.39 3.344 5.387 8.036 8.688 11.466-.195-.148-.332-.148-.526 0 2.372 4.54 5.641 7.825 8.16 11.975 2.104 1.785 4.453 3.336 5.135 6.497.175.212.746.043.92.255.275 1.233.808 1.548.395 2.93-.842-.162-1.476-.526-1.448-1.529-2.956-3.848-6.62-7.012-9.477-10.956-.046-.459-.2-.614 0-1.018-1.186-1.698-2.628-3.148-4.212-4.46-.306-2.294-1.695-3.541-2.237-5.604h-.923c-.64-1.389-1.47-2.94-1.71-4.332zm-3.855.124c.13.522-.196.575-.377.776 2.427 2.807 5.311 5.142 6.66 9.057-3.104-1.85-4.763-6.308-8.168-8.28.006-.424.357-.495.252-1.036-.168-.56-.986-.451-1.384-.775.25-1.049-.4-2.556-1.507-2.977.144-.615-.292-1.058 0-1.423 1.452.059 2.081.963 3.393 1.164-.176.51-1.096.252-1.132.906.565 1.06.892 2.36 2.263 2.588zm11.739 5.003c-1.12-2.709-2.58-5.03-4.773-6.9 1.505 2.498 2.241 5.3 4.773 6.9zm-90.533.68c-1.021.42-1.31-.023-2.208-.253.344-.454.983-1.198 1.689-.888-.04-1.519 1.816-1.187 2.209-2.283 1.924.001 3.826-1.072 5.847-1.395.438.038.378.563.78.634.742-.46 1.547-.858 2.34-1.267.736-.083 1.205.092 1.56.38 13.45-2.013 25.147 3.151 31.578 10.396 3.42.68 3.778 4.348 6.499 5.706.06.399-.35.336-.39.635 1.993.252 2.651 1.808 3.248 3.423 2.728 3.13 6.852 5.572 8.058 9.764-2.455-.776-3.085-3.331-5.328-4.312-.443-1.13-.957-2.195-2.6-2.155.114-.505.114-.637 0-1.142-3.92-4.795-9.14-8.326-13.256-12.932-1.324.108-1.519-.884-2.597-1.015-2.008-3.58-7.938-3.329-11.047-5.833-.947.08-1.655-.075-2.08-.506-1.553.392-2.454-.767-4.028-.76-1.47.694-4.185-.192-5.719.633-.544-.029.078-.402-.39-.507-1.545-.123-2.23 1-3.378.253-3.416.852-6.993 1.548-10.266 2.537-.366.108-.278.66-.52.886zm90.596-3.02c.08-.698-.385-.844-.731-1.11-.074.69.146 1.086.73 1.11zM14.273 2.802c-.223.64.414.445.654.635-.462.398-1.244.486-1.962.636-.06-.736.218-1.143.261-1.778 2.635-.788 3.403-3.385 7.456-2.794 5.263-2.239 12.182-2.69 18.053-1.904.478.081.697-.086.916-.255.917 1.015 3.143.758 4.316 1.524C47.63-1.476 49.643.19 52.208 1.28c.934.396.958.66 1.701 1.142.717.467 1.684.401 2.356.763 1.38.743 2.2 3.033 4.578 3.048 2.05 2.243 3.779 4.797 6.802 6.096.001.337-.05.725.131.888.274.2.868.088 1.176.254.99 3.19 3.814 4.596 5.757 6.858.554.237.664-.208 1.047 0 .432 1.823 2.449 2.11 3.531 3.301-.003.3.227.374.132.763 5.486 6.442 11.446 12.422 15.96 19.81.317.367.988.395 1.307.762 1.408 4.052 5.364 5.629 6.28 10.16 1.684.65 2.712 1.94 3.138 3.81 1.007.758 2.151 1.381 2.355 2.92 1.96 1.147 3.215 2.976 4.186 5.08 2.31 1.439 4.379 3.113 6.41 4.825.087.509.394.804.523 1.27.555.379 1.115.456 1.57 1.144-.435 1.117.45 1.439.915 2.03-1.338 1.235-1.892-.849-3.27-.762-1.171-3.964-5.004-4.652-7.718-6.983.125-1.222-1.024-1.207-.916-2.414-4.87-4.67-9.296-9.77-12.688-15.873-3.593-3.878-4.866-10.009-9.943-12.446-2.314-4.567-6.88-6.95-8.633-12.063-2.524-.557-3.302-2.805-5.494-3.684-.008-.415-.372-.485-.262-1.016-3.39-1.957-5.396-5.258-8.633-7.365v-.762c-1.948-1.198-3.293-2.983-4.971-4.445-2.634-.11-2.616-2.794-5.364-2.793-.13-.34-.27-.67-.262-1.143h-1.307c-2.323-1.98-6.149-2.498-8.635-4.318-1.223.167-2.43.348-3.663.508-.524 0-.433-.594-.783-.762-3.275.707-5.64-.41-8.766-.254-2.29.649-5.195.937-7.979.889-1.426.394-2.836.803-4.187 1.27-.576.052-1.01-.034-1.308-.254-.85.57-2.052.801-3.008 1.27zm98.243.647c-.864-.52-1.532-1.22-2.557-1.594.05-1.73-1.878-2.285-1.48-3.926 1.446 1.218 2.43 2.854 4.037 3.926V3.45zm-97.383 5.1c-1.005-.449-1.822-.359-1.705.759-.646.093-1.212.263-1.835.379.2-.858 1.113-1.033 1.18-2.02.189-.238.857-.016 1.047-.253.505-1.685 2.968-2.604 4.851-2.146.604-.176.861-.686 1.049-1.263C23.734 3.544 28 1.564 32.176 2.49c1.397-.789 4.227-.407 5.242.632 1.962-.585 3.63.69 5.244 0 1.546 1.288 4.79.944 5.9 2.65.588-.06.982.065 1.443.127.343.343.57.798.916 1.136 2.066.284 2.917 1.738 4.327 2.652 2.331.07 3.112 1.632 4.326 2.778h1.048c.002.335-.048.72.132.882.295.223.987.062 1.312.254.603.765.92 1.808 2.228 1.892.327 1.621 1.918 2.026 3.408 2.526.096.288.117.646.263.884 2.265.933 2.768 3.563 5.111 4.418.36.874.648 1.818 1.968 1.768.505 2.088 2.572 1.894 3.67 3.409-.407.07-.853.102-1.179.253C84.097 33.325 87.5 41.201 93.136 46.3c1.012 4.284 5.171 5.54 6.424 9.595-2.827-.688-3.723-3.233-6.03-4.42-2.894-4.957-6.53-9.197-10.488-13.129.028-.406-.233-.535-.132-1.01C77.19 31.06 71.156 25.088 65.21 19.03c-.524-.042-.726.225-1.31.126-1.226-2.438-3.969-3.417-5.637-5.428-3.2-1.295-5.588-3.374-8.391-5.051-2.777-.48-4.734-1.753-6.818-2.904-6.092.915-10.603-3.881-16.255-.884-.483.044-.121-.723-.787-.504-.728.022-.012.653-.524.884-2.861.04-4.585 1.344-6.949 1.137V7.54c-.972.266-1.868.454-3.015.253-.454-.06-.076.685-.392.757zm.331 4.77c-2.197.341-3.504 1.562-5.046 2.551-.64-.01-1.313.018-1.553-.383.055-.797.8-.911 1.682-.893.314-.346-.142-.709 0-1.275 3.157-1.65 6.452-3.166 9.704-4.72.518-.127.39.38.905.254 1.084-.931 3.521-.527 4.27-1.785 2.347-.131 6.36-2.732 8.67-.893-2.062 1.75-5.264 2.315-7.375 3.699-1.23-.914-2.032.545-3.494 0-2.204 1.526-5.945 1.538-7.763 3.445zm99.78 62.513c3.103 1.604 4.243 5.102 6.82 7.216-.073.52-.337.856-.657 1.138-3.117-1.421-4.56-4.459-7.212-6.33.063-.399-.236-.446-.131-.885-.431-.174-.835-.376-1.312-.506.016-.861-.81-.906-.918-1.645-3.248-.672-3.797-3.523-5.902-5.064v-.633c-3.803-2.868-5.684-7.593-10.097-9.873-6.258-5.52-11.55-11.973-16.916-18.354-.024-.82-.477-1.228-.656-1.899-2.19-2.105-5.123-3.493-6.163-6.709-.218-.212-.77-.1-1.18-.126-.389-.342-.626-.83-.657-1.52-3.025-2.227-4.72-5.739-8.523-7.215-1.12-1.113-2.398-2.074-3.541-3.164-.703.15-1.119.096-1.704-.127-.298-.303.287-.465.13-1.013-4.078-.957-6.029-3.967-9.704-5.316-.281-.319-.492-.706-.787-1.012-2.934-.544-4.865-2.055-7.867-2.532-2.65-.503-6.154.687-8.263-.506 3.741-4.2 11.318-1.188 16-.127.092.47-.225.543-.132 1.013 5.24 1.7 9.678 5.253 13.77 8.48h.918c4.646 3.322 9.15 6.78 12.196 11.646 3.034 2.05 4.814 5.311 7.605 7.595.095.388-.226.373-.13.76 2.003 2.706 4.213 5.214 6.817 7.342.977 2.433 3.32 3.548 4.198 6.075 2.39 1.828 4.616 3.814 7.475 5.19.53 1.048 1.091 2.067 2.49 2.278v.76c.318.052.286-.232.656-.127 1.625 4.297 5.84 6.094 7.737 10.126.617.714 1.444 1.223 2.623 1.392.461 1.75 2.936 1.556 3.017 3.672zm2.647-65.566c-.811.078-1.159-.31-1.283-.926.165-.082.33-.162.367-.37.656.077.882.59.916 1.296zM11.327 9.66c-.723.01-1.089.38-1.098 1.11.49-.245.656-.815 1.098-1.11zM112.79 88.574c2.803 1.169 3.128 4.75 5.877 5.972.297 1.194 1.6 1.41 1.307 3.177-.4.247-1.008.29-1.699.254-.376-.989-1.063-1.675-1.437-2.668-3.392-1.147-3.641-5.351-7.314-6.227-.711-1.51-1.775-2.679-3.397-3.304-.456-4.427-4.922-4.952-5.746-9.022-.618.093-.899-.143-1.437-.127-3.926-4.06-7.094-8.857-11.365-12.58.096-.389-.132-.465-.13-.763-.804-.658-1.454-1.467-2.35-2.033-2.422-4.846-7.105-7.49-9.798-12.073-1.61-2.076-3.575-3.808-4.962-6.1-.919-.887-2.016-1.597-2.351-3.05-2.196-1.676-4.243-3.498-5.617-5.973-3.964-1.905-5.307-6.358-8.752-8.769.057-.519-.122-.813-.26-1.142-.534-.753-1.623-.964-2.222-1.653-.001-2.667-3.519-1.914-4.18-3.939-.586.063-.977-.064-1.435-.127-1.156-1.842-4.412-1.639-6.009-3.05-2.462-.165-4.757-1.79-7.446-1.906-2.417-.104-4.37.948-6.531 1.144-3.468 1.5-7.93 2.7-11.364 3.812-2.866 1.488-5.07 3.623-7.967 5.083-.479-2.286 1.708-1.982 1.698-3.812 4.568-1.402 7.574-4.323 12.8-5.083.677-.19 1.096-.629 1.569-1.017.423-.074.607.087.912.126 4.674-3.144 10.76-1.942 16.72-.634.103.282.274.496.262.89 1.5.191 3.753-.35 4.049 1.015 4.715 1.138 8.203 4.554 11.232 7.752v1.144c1.92 2.497 4.535 4.315 6.01 7.244 3.361 2.066 6.128 4.71 8.62 7.624-.058.438.051.712.13 1.017.473.515.963 1.012 1.699 1.271-.077.88.63.995.783 1.652.318.2.776.263 1.046.508 2.039 3.947 5.321 6.682 7.706 10.294 3.238 3.119 5.32 7.363 9.405 9.657-.06 1.583 1.385 1.703 1.698 2.923.587-.062.979.064 1.436.127.506 1.118 1.57 1.693 1.699 3.177 1.09.93 2.057 1.98 2.742 3.303.525.507 1.247.822 1.96 1.145.233.62.624 1.086 1.306 1.27 1.325 3.842 6.163 4.925 6.53 9.278 1.827 1.104 3.472 2.382 4.573 4.193zm7.117-29.39c.238.607 1.454.267 1.818.754.343 1.342 1.862 1.547 1.687 3.39-.945.493-1.307-.374-2.466.125-.283-.44.037-1.46-.26-1.884-.368-.292-.601.35-1.17.251-.217-.36-.362-.931-.13-1.38-.438-1.04-1.869-1.123-2.597-1.884.131-1.69-2.026-1.873-2.207-3.64-.408-.19-.825-.375-1.298-.502-2.319-2.78-4.465-5.726-8.05-7.282-2.97-5.582-7.147-9.997-10.907-14.814-5.314-3.567-8.309-9.377-11.428-15.065-.692-.42-1.394-1.496-.909-2.637.451-.344.936.118 1.3.252 2.353 4.586 6.014 7.91 8.568 12.303.299.296.798.402 1.168.627-.106.94.741.958.52 2.008 3.547 1.258 4.4 5.121 7.663 6.655 1.808 4.694 5.65 7.426 8.439 11.173 3.327 1.472 3.74 5.76 7.402 6.905.029.516.573.535.52 1.13.055.282.689.004.78.252.072.682.34 1.175.258 2.008 1.23-.206 1.561.055 2.728.627-.316.884-.99-.073-1.43.628zM34.096 15.886c-.954-1.367-6.123-2.296-6.82 0 1.534 1.26 4.816.453 6.82 0zM21.82 17.942c-1.322-.004-2.499.153-2.727 1.362.906.123 2.329-.422 2.727-1.362zM114.046 97.4c.312.204.838.201 1.179.38 1.367 1.975 2.316 4.59 2.747 7.109-1.043-.048-1.314-1.94-3.403-1.397-.678-.685-.232-1.497.262-2.032-.08-.3-.805.02-.916-.253-2.13-4.534-6.607-6.79-9.813-10.282-.12-1.704-1.697-1.994-2.225-3.3-.414-.35-.727-.039-1.047-.38-.07-.482-.409-.704-.392-1.27-.663-.542-1.292-1.116-2.095-1.523-.018-.403-.295-.558-.26-1.015-2.906-1.54-3.646-5.18-6.151-7.108-3.528-6.183-9.3-10.19-12.824-16.374-3.987-2.732-6.46-6.934-9.29-10.789-.887-.283-1.33-.994-2.094-1.396-2.354-4.614-6.735-7.26-9.945-11.044-.573.05-.673-.361-1.178-.38-2.41-5.15-6.38-8.79-11.252-11.55-2.11-2.818-6.485-5.336-11.123-4.443-.462-.017-.585-.364-1.048-.382-3.045 1.151-8.955-.478-10.337 2.286-1.123-.073-1.518.559-2.093 1.015-3.54-.175-4.853 1.809-7.198 2.792-.33-.146-.897-.06-.915-.507-.532.16-.817.56-1.309.761-3.428-.532-4.196 1.516-5.234 3.3-.749.065-1.335.864-1.963.635-.331-1.518 1.655-1.855 1.963-3.173.63-.49 1.37-.87 1.832-1.523 2.216-1.574 5.535-2.079 8.505-2.919 2.057-1.729 4.83-2.762 7.328-4.062 1.337.282 3.103-.312 4.187.38.904-.144 1.553-.37 2.355 0 2.358-.378 4.494-.973 7.197-1.014 4.57.788 7.047 3.11 10.47 5.33 2.966 1.924 5.282 3.872 7.196 6.6.123.576-.032.76.13 1.143.892 1.207 2.221 1.993 3.533 2.793-.04.462.022.826.131 1.14 2.529 3.008 5.758 5.334 8.114 8.506 3.256 1.453 4.237 5.112 6.804 7.235v.76c.607.766 1.2 1.546 2.094 2.033.422 1.916 1.874 2.836 3.533 3.553 2.93 3.885 5.844 7.786 9.422 11.043-.058.521.12.815.261 1.142 2.438 1.655 4.458 3.716 5.627 6.6 2.224 2.243 4.354 4.578 5.756 7.617 2.567.43 2.628 3.292 4.712 4.188 1.444 4.692 6.885 5.507 8.767 9.775zM17.048 19.572c-1.94-.893-3.616.822-4.773 1.727 2.158.398 3.928-.54 4.773-1.727zm104.25 1.82c-.826-.066-1.303-.396-1.28-1.104.148-.119.502-.082.55-.276.438.313.787.695.73 1.38zm-7.128 60.657c2.652 1.495 4.421 3.846 6.294 6.1.16 1.465.076 2.618.917 3.936-.267.122-.519.26-.787.383-2.024-1.808-2.607-5.013-5.245-6.226.018-.313.02-.613-.131-.763-2.46-1.004-3.042-3.828-5.376-4.955-.573-1.773-1.808-2.906-3.671-3.43-3.038-3.409-6.433-6.473-8.786-10.545-2.322-1.139-2.97-3.896-5.377-4.955-.874-1.481-1.9-2.815-3.408-3.685-.02-.404-.298-.558-.263-1.016-6.14-5.059-10.597-11.754-15.865-17.66.092-.47-.225-.545-.132-1.016-.258-.173-.749-.121-1.048-.253-2.762-3.38-5.297-6.983-9.31-9.148-.923-2.961-4.453-3.394-5.378-6.352-.036-.206.125-.22.131-.382 3.028.162 3.81 3.59 6.95 4.065.653 1.233 1.793 1.99 3.016 2.669.82 3.44 4.53 4.08 5.639 7.241 1.594 1.04 2.826 2.43 4.197 3.686-.298 1.796 1.381 2.478 2.622 3.175 2.793 4.959 6.304 9.223 11.014 12.324.188 1.767 2.188 1.774 2.23 3.684 5.637 3.218 8.502 9.125 13.11 13.34.297 1.325 1.405 1.859 1.837 3.05 2.063.542 3.176 2.004 4.066 3.684 1.557.395 2.212 1.668 2.754 3.05zM47.734 27.632c.09.49.879 1.375 2.046 1.35-.144-.834-1.116-1.534-2.046-1.35zm.775 6.502c.37 1.461 2.656 1.128 2.635 2.957-3.506-.255-4.886-2.494-8.164-2.957-1.318-2.08-5.62-2.59-8.162-2.71-.545-.19-.622-.816-1.185-.987-4.145-.212-8.659.267-11.455 1.725-2.16-.118-4.434.685-5.661 1.848-1.53-.324-1.569.75-3.03.493-4.247 2.103-8.257 4.428-12.11 6.9-.243-2.572 3.177-2.772 3.949-4.805 3.818-3 9.948-3.833 13.957-6.653 4.453-.86 9.688-1.894 16.061-1.602.367.189.36.73.79.862 4.032 1.03 8.499 1.656 10.664 4.435.654.088.79.657 1.711.494zm2.003-4.462c-.267.568.581 1.252 1.314 1.38-.096-.779-.476-1.293-1.314-1.38zm21.632 30.644c2.606.002 1.575 3.518 3.78 3.906-.307 2.423 2.674 2.686 2.997 4.915 1.014 1.161 2.163 2.193 2.997 3.529.371.188.894.229 1.174.503-.001 1.952 2.543 2.585 2.085 4.16 1.479.986 3.03 3.17 3.258 4.535 2.43.633 2.315 3.727 4.432 4.663.018.504-.527.911-.131 1.386.296.218.764.27 1.304.252 1.37 2.806 4.348 5.11 5.604 8.443 4.457 3.294 7.454 7.999 11.208 11.972.312.075.594.18 1.042.126.202 1.022 1.303 1.176 1.304 2.393-1.825-.055-4.6-.662-4.953-2.898-.664-.116-2.318-.669-1.824-1.89-.805-.148-1.333-.56-1.826-1.008-1.533-3.348-5.327-4.509-6.906-7.813-.7.152-.831.03-1.304-.253-.107-.75.16-1.182-.13-2.141-.824-.422-1.387-1.094-2.085-1.638-1.826-4.453-5.918-6.712-7.689-11.216-1.844-1.116-2.34-3.145-3.52-4.788-2.55-3.551-6.184-6.555-7.95-10.837-.446-.115-.933-.19-1.304-.378-.393-1.551-1.714-2.207-2.866-3.025-2.702-6.082-8.524-9.148-12.122-14.365-1.72-.227-2.665-1.204-2.996-2.773-7.292-4.568-14.329-10.741-24.502-11.34-4.042.46-8.189 1.017-11.992 2.016-3.8 1.45-7.928 2.582-11.728 4.032 2.565-4.323 9.782-4.15 13.813-7.056 4.123.64 6.848-2.779 9.907-.504 3.551-.863 7.134 1.154 10.687 1.512 2.737 1.846 5.835 3.347 9.253 4.536 1.88 2.045 4.588 3.293 5.995 5.796 1.802.064 2.256 1.431 3.91 1.638-.067 3.097 3.546 3.706 4.3 6.428 1.185 1.247 2.831 2.05 3.65 3.654 1.527.708 2.368 2.08 3.128 3.528zm34.569 51.72c2.467 1.029 3.03 3.909 4.44 5.964-.912-.088-1.4-.586-2.09-.888-.1-.283-.274-.495-.261-.888-1.796-1.426-4.064-2.395-5.092-4.567-2.217-1.373-4.624-3.037-5.353-5.455-1.51-1.113-2.272-2.95-3.917-3.932-.605-4.503-5.282-6.105-6.659-10.276C80.04 81.967 72.668 71.58 64.41 62.056a5.103 5.103 0 0 0-1.698-1.015c-.425-.432-.597-1.11-.914-1.65-.407-.408-1.036-.601-1.567-.888-.213-1.358-2.206-1.969-2.219-3.932-2.199-1.586-4.284-3.281-5.746-5.581-2.831-1.267-4.994-3.184-7.05-5.202-2.734-.939-5.611-1.737-7.703-3.298-3.866-.673-9.422-2.173-13.45-.255-.265-.12-.516-.258-.782-.38-.64.183-1.152.49-1.438 1.015-.533.012-1.069.025-1.435-.127-3.82 1.545-8.693 1.081-12.403 3.045-.546.107-.617-.247-1.046-.254-2.55 1.498-4.582 4.172-6.92 5.456-.22-.443.591-.695 0-1.27 1.568-2.79 3.945-4.795 7.314-5.835.523-.088.743.122 1.174.126 1.675-.612 4.187-.412 5.092-1.776 2.214-.935 5.818-.52 7.311-2.156 2.062.058 3.86-.138 5.223-.761 1.477.723 3.558-.675 4.57.38 4.922-1.792 9.493 2.472 14.101 3.425.43.47.743 1.056 1.307 1.396 3.206-.4 3.056 3.105 5.613 2.918 2.125 3.292 6.558 4.923 7.703 8.752.326.107.7.167 1.176.128 1.095 1.725 3.014 2.653 4.44 4.06.32.3-.196.236-.132.634 3.49 4.433 8.143 7.735 10.708 13.066.226.373.61.59 1.175.634 1.37 4.8 5.868 6.56 7.311 11.29 2.775 3.35 5.773 6.487 7.704 10.657 2.73 1.534 2.97 5.486 6.136 6.596 1.335 5.132 6.655 6.389 8.748 10.783zm-7.445-.227c4.232 1.208 5.283 5.515 8.475 7.74-.301.458-.39 1.343-.522 1.901-.89-.403-.987-1.577-2.217-1.648-.901-1.534-2.516-2.375-3.129-4.188a4.917 4.917 0 0 1-2.477-1.141c-.516-.164-.267.418-.782.254-.288-1.2-1.152-1.614-1.303-3.172-1.826-.422-2.94-1.538-3.39-3.298-1.352-.993-3.28-2.02-2.869-4.314-1.472-.462-1.543-2.25-2.867-2.537-.11-1.247-.645-2.08-2.086-2.03-1.226-2.74-3.492-4.468-4.042-7.865-.35-.548-1.092-.714-1.825-.889-2.62-5.95-7.311-9.885-9.908-15.859-2.35-1.56-3.843-3.958-5.475-6.216-1.154-1.119-2.671-1.883-3.13-3.678-.886-.49-1.636-1.116-2.086-2.03-.444-.033-.627-.321-1.173-.254-1.862-3.32-4.344-6.023-7.3-8.246-1.207-.906-1.901-2.696-3.26-3.68-1.522-1.1-3.522-1.728-4.824-2.917-2.01-1.837-7.986-4.274-11.734-4.44-1.039-.047-2.075.406-2.868-.255-2.71.2-4.806 1.662-7.56 1.397-1.572 1.267-4.247.97-6.65.633-.227.415-.5.782-.913 1.015-7.056 1.55-10.295 7.488-15.384 10.53-.264-2.696 3.166-3.918 3.912-6.47 3.448-3.213 7.587-5.26 12.646-6.723.607-.041.725.393 1.173.508 4.245-.905 8.667-2.944 12.646-2.665 1.282-.725 4.677-.846 5.606.254 1.415-.367 2.625.348 3.13 1.268.403.013.371-.398.912-.253 2.704 1.47 6.192 2.177 8.604 3.932 3.368 4.04 8.102 6.749 11.342 10.91-.03.183-.389.044-.391.255.3.47.919.627 1.435.887-.233 1.101 1.138 1.607 1.043 2.538 2.828 2.111 4.79 5.064 7.56 7.23.724 1.411 1.544 2.728 2.869 3.553 2.43 3.893 4.858 7.79 8.083 10.91-.094 1.953 1.477 2.284 1.695 3.934 2.205 1.068 3.152 3.36 4.172 5.582 3.117 4.535 7.66 7.683 9.647 13.32 2.065 1.755 4.035 3.601 5.215 6.217zm7.111 13.025c-.288.016-.056.534-.13.757-.932-.64-2.207-1.536-2.482-2.395-2.473-.043-2.795-3.157-5.616-3.276-.428-.554-1.072-.897-.914-2.017-1.003-.879-2.372-1.408-2.611-3.023-1.288-.143-1.764-1.07-2.481-1.765-.233-2.968-3.353-3.149-3.526-6.175-4.04-3.411-6.634-8.217-10.186-12.097v-.882c-4.012-5.664-8.406-10.96-11.623-17.39-4.622-6.208-10.528-11.178-14.887-17.64-3.077-2.871-7.011-4.912-9.795-8.065-2.753-1.46-5.569-2.86-9.14-3.529-3.75.178-8.233.024-10.97 1.513-4.02-.058-6.93.957-9.403 2.394-3.366 2.758-7.81 4.477-10.055 8.316-.887.573-1.925.998-2.22 2.142-1.205.212-1.719 1.661-2.873 1.513-.404-.52-.038-1.035-.13-1.891.265-.253.255.056.521.127v-.882a54.42 54.42 0 0 0 7.314-7.184c2.195-1.368 4.362-2.762 6.267-4.41.522-.125.395.377.915.252.632-.313 1.02-.863 1.567-1.26 3.943-.819 8.157-2.036 12.276-2.268 2.205-.093 4.871-1.58 6.79-.378 3.22-.126 5.24.91 6.922 2.268 3.291.687 4.876 3.022 6.921 4.915h1.307c3.914 3.572 7.024 7.923 10.968 11.466.001.335-.05.721.13.883 2.957 2.818 5.977 5.574 8.489 8.821 1.004 2.422 3.441 4.468 4.31 7.435.324.149.77.182 1.175.252.08.3.188.574.13 1.007 2.392 1.683 2.605 5.467 5.354 6.806 1.5 3.09 2.9 6.273 5.355 8.44.093.468-.223.543-.13 1.01 4.641 2.745 5.719 8.93 10.315 11.719.058.434-.05.706-.13 1.008 2.093 1.383 3.054 3.857 4.962 5.418.483 2.432 3.44 2.48 4.702 4.159.2 1.948 2.017 2.337 2.612 3.906zm-77.255-75.27c5.25-1.896 11.077 1.33 13.837 3.987-2.989.905-5.137-2.13-8.224-2.368-4.325.355-8.025.177-11.618 1.247-6.484.584-10.543 4.554-14.62 7.852-.587.06-.978-.064-1.435-.125-.82.297-1.038 1.169-1.306 1.994-3.728.94-4.94 5.328-8.486 6.855.416-3.132 3.32-4.751 4.83-7.229.283-.105.446-.323.914-.25 1.905-2.96 5.028-4.755 7.963-6.73 1.997-.669 4.224-1.118 4.962-2.99 1.157-.034 2.014-1.058 3.002-.499 2.758-1.201 6.496-1.032 9.267-1.995.29.098.51.262.914.25zm-29.76-.118c-.309.176.037 1.099-.727.9.189-.512-.015-.721 0-1.352.618.138.896-.087 1.35.15.076.411-.207.303-.208.602-.283.109-.209-.3-.415-.3zm21.586 8.548c-5.645 1.746-8.238 6.44-13.943 8.13-.138.712.452.86.132 1.396-3.566 1.343-4.297 5.421-7.893 6.733-.59.615-.688 1.707-1.974 1.651.154-1.678 1.877-2.925 2.106-4.954.233-.237.334.103.788 0 .522-1.826 2.69-2.061 3.29-3.81-.258-.82-.816-1.275.131-1.778.679-.15.137.882.658.888 1.195-.03 1.084-1.323 1.577-2.031 1.577-.047 1.901-1.3 2.763-2.034 1.973-.761 3.635-1.826 4.736-3.43 2.044-.778 3.539-2.086 5.657-2.794.415-.062.464.23.921.127.869-.346 1.63-.797 2.236-1.398 6.817-.366 14.116-2.336 19.073 1.271 4.679.31 7.309 2.597 10.13 4.7 1.095 3.007 4.685 3.604 5.261 7.114-4.931-.284-5.42-5.94-9.864-7.114-1.379-1.76-3.616-2.691-6.842-2.667-1.926-.512-3.171-1.68-5.13-2.16-1.264.276-2.35-.117-3.683-.128-2.949 1.437-8.085.158-10.13 2.288zm82.56 72.233c-.103.438.197.486.132.884-.859-.058-2.682-.685-3.41-.253-.541-.32-.58-1.125-1.31-1.262-.495-.097-.627.153-1.05.126-2.715-1.74-5.323-2.904-7.737-4.796-2.549-.743-5.084-1.502-6.032-3.787-1.647-.729-2.65-2.077-3.54-3.533-3.01-2.152-4.282-5.977-6.558-8.835-2.87-5.903-6.37-11.203-8.653-17.671-.196-.484-.855-.524-1.18-.884-2.642-5.03-6.604-8.79-9.443-13.63-.518-.386-1.084-.724-1.574-1.136-3.103-5.637-9.675-7.936-13.505-12.875-.692-.302-1.297-.686-2.23-.757-.303-.465-.95-.599-1.31-1.009-1.843-.08-2.678-1.126-4.329-1.389-3.222 1.525-7.286.771-10.753 2.146-1.76 2.26-5.824 2.302-7.08 5.05-.518.173-.895.485-1.574.504-1.453 1.21-2.92 2.406-4.458 3.533-.928 2.854-3.377 4.24-5.116 6.311h-.918c-1.01 1.175-1.19 3.144-3.146 3.408-.486-.966 1-1.13.131-1.893.642-.98 1.948-1.323 1.967-2.903.284-.106.448-.327.917-.253 1.828-2.954 4.403-5.187 6.558-7.825 2.99-.614 3.37-3.739 6.557-4.165 2.964-1.9 5.752-3.971 9.965-4.67.548-.147.979-.405 1.442-.63 2.15-.163 4.517-.114 6.163-.758 2.787.81 5.08 2.094 7.738 3.028.982 2.38 3.635 3.15 4.982 5.176 3.096 1.607 5.34 4.032 8.13 5.931 3.719 4.837 7.236 9.865 10.885 14.768 1.928.373 2.728 1.834 3.541 3.282v1.01c.284.272.42.686.655 1.008 1.213.054 1.851.659 2.228 1.515-.015.742-.482 1.05-.654 1.64-.271 3.881 2.514 4.817 2.883 8.08.927 1.76 1.92 3.454 3.28 4.795.263 1.01.753 1.798 1.705 2.145.806 2.043 2.468 3.262 3.409 5.177.529.12 1.136.167 1.443.503.082.54-.428.515-.394 1.011 2.446 3.41 5.448 6.284 10.623 7.067.031.39.131.715.261 1.01 2.876 1.06 3.896 3.907 7.475 4.291.393 1.052 1.79 1.138 2.884 1.515zm-2.333-4.672c.978.935 3.339 1.143 3.145 2.796-4.495-.639-6.328-4.958-10.612-6.227-.83-2.54-3.005-3.777-4.192-5.973-.06-.27.189-.241.394-.255-4.288-4.226-7.282-9.71-11.527-13.978-1.674-3.797-4.372-6.605-7.074-9.404V91.37c-1.565-2.083-3.359-3.944-4.585-6.354-.153-3.453-2.558-4.719-3.536-7.37-2.51-3.073-3.638-7.487-9.302-7.5-1.037-1.197-3.014-1.48-3.405-3.302-3.723-2.11-7.212-4.444-9.562-7.88-.024-.148.028-.226.13-.254.873-.27 1.723.51 2.094 1.143 6.152 1.573 7.02 8.271 14.149 8.895 2.086 1.662 3.853 3.634 6.157 5.084-.029.41.231.538.13 1.017 4.124 2.906 4.29 9.65 8.384 12.582 1.23 4.485 5.369 6.144 6.681 10.548 2.832 2.801 4.466 6.767 7.73 9.15.248 3.572 3.612 4.119 4.06 7.497.187.58 1.04.516 1.44.89.044 1.937 1.875 3.157 3.276 4.194-.186.17-.186.72 0 .89 1.306.85 2.09 2.206 4.061 2.414.575.924 1.332 1.672 1.964 2.54zm-13.163 1.21c2.992 3.224 7.394 5.08 11.507 7.22.178.552-.305.712-.393 1.266-3.262-1.526-7.953-1.67-9.414-4.94-2.252-.182-3.95-.901-4.708-2.533-2.806.186-2.777-2.375-5.492-2.28-.544-1.631-2.714-2.345-2.484-4.306-3.117-4.37-5.523-9.427-8.237-14.186-3.132-3.764-5.04-8.713-7.324-13.3a4.488 4.488 0 0 1-1.176-.76c-1.617-3.837-4.117-6.819-6.538-9.88-2.586-8.343-10.518-11.51-16.605-16.465-1.38-.142-1.941-1.076-3.4-1.14-.312-.329-.575-.71-1.045-.886-.958.193-1.75.07-2.616-.127-8.521.739-13.429 4.977-18.568 8.993-1.919 2.573-3.547 5.433-6.537 6.966-1.107 1.8-2.134 3.675-4.184 4.56-.314 1.004-.974 1.674-1.177 2.787-1.512.435-1.381 2.462-2.877 2.912-.354-.8-.091-2.005.654-2.153V87.5c5.046-6.426 9.274-13.646 16.475-17.985 3.966-4.946 11.812-7.592 20.137-6.46.495.45 1.045.846 1.57 1.266 5.655 1.488 9.05 5.164 12.682 8.614.546.145 1.069.315 1.7.38.042.292-.021.485-.131.632 4.631 3.284 5.969 9.756 10.46 13.173 1.944 4.114 4.233 7.891 6.408 11.78.007.583-.059 1.238.13 1.647 2.434 3.215 3.982 7.288 6.8 10.132.262.251-.041.603-.132.886 1.278 1.086 1.355 3.334 3.27 3.8.503 2.974 2.763 4.248 3.4 7.093.691.038.842-.45 1.307-.632.473.598.321 1.089 0 1.772.419.314.727-.327 1.44-.126.344.378.66.737.391 1.393 1.909.304 2.615 1.774 4.707 1.9zM.89 99.299c-.382.043-1.157.132-1.573 0C1.46 92.657 4.345 84.995 8.493 79.49c.417-.272 1.118-.27 1.443-.63.268-.247.204-.814.392-1.137 2.028-2.59 4.44-4.81 7.472-6.433 1.893-2.718 5.91-3.613 10.092-4.29 1.89-.306 3.289.525 5.244 1.136 4.253 1.327 6.946 2.092 9.699 4.794.977.28 1.599.9 2.753 1.008 2.462 3.14 6.613 4.654 7.602 9.212-.9.497-1.761-.025-2.49-.38-.576-.833-.934-1.876-1.443-2.775-2.134-1.899-4.159-3.904-6.161-5.93-2.732-.902-5.026-2.226-7.076-3.785-3.378.272-4.823-1.703-7.996-1.514-1.003.38-1.55 1.198-2.622 1.514-2.727-.217-5.083.872-6.161 2.65-5.976 1.813-7.12 8.01-11.533 11.354-.246 1.657-1.303 2.532-2.23 3.533.09 1.55-.73 3.109-1.834 3.911-.649 2.783-1.979 4.91-2.753 7.57zm87.829 35.89c2.661-1.74 4.565 1.173 7.066 1.527.3.896.459 1.928 1.046 2.543-2.415.035-2.986-2.434-5.888-2.543-.09-.513.65-.216.785-.51-2.61.513-5.27-1.222-7.065-2.926-.512.484-1.567.474-2.094 0-.205-.403.073-.557.13-1.016-.497-.392-.629.422-1.309.253-1.469-1.625-3.638-2.569-5.364-3.944-1.917-3.48-4.874-5.949-7.72-8.524-1.038 1.106 1.058 4.41 2.486 3.943.298.56.799.92 1.177 1.4.702 3.549 4.513 5.09 6.412 7.888 2.223.723 3.575 2.292 5.758 3.055-.005.418-.221.632-.13 1.144 1.12-.468 1.907.664 2.877.254 1.156.991-.057 2.919 1.178 3.945 2.04.551 2.864 1.095 4.973 1.4.075.622-.205.904-.523 1.144-2.139-.002-7.543-1.651-7.329-4.707-.491.115-.94.273-1.308.509-.602-.221-.83-.805-1.832-.637.13-.761-.523-.763-.916-1.018.028-.48.412-.618.524-1.017-.393-.17-1.001-.13-1.57-.127-2.751-3.263-7.562-5.201-9.291-9.034-1.593-1.289-2.218-3.62-3.402-4.962a213.578 213.578 0 0 0-7.328-21.629C54.74 87.86 44.72 78.688 31.277 72.847c-3.024-.768-5.785.412-7.852 1.653-3.492 3.39-7.51 6.269-10.86 9.797-1.199 2.779-2.921 5.049-4.841 7.124-1.681 6.426-5.864 11.517-6.542 19.34-.152.279-.453.408-.786.509-.158.367.785.58.131.636-.115-.376-.196.296-.525.128-.04-3.675.45-6.534 1.832-9.034 1.349-6.164 3.431-12.672 7.853-16.54-.103-.524.2-.653.13-1.145 3.419-3.674 5.237-8.904 10.468-10.815 2.787-2.627 8.361-4.438 13.216-2.798 1.039.94 2.582 1.39 4.187 1.78.15.151.148.45.13.764.918-.087 1.016.624 1.572.89 2.507.658 4.239 2.07 5.757 3.69 2.368.497 3.465 2.229 4.45 4.072 3.755 2.198 6.425 5.455 8.11 9.668 1.849 2.02 3.656 4.081 3.796 7.762 1.455 1.853 4.962 4.13 3.27 7.38.462 2.052 1.195 3.949 1.57 6.106.139.375.593.443.918.637.3 4.033 3.363 5.379 5.495 7.633.51-2.187-2.128-4.52-3.402-6.234-.87-2.08-1.735-4.165-2.879-5.98-.126-1.09-.886-2.546-.261-3.562 2.323 1.473 3.084 4.465 4.186 7.124.632.912 1.049 2.036 1.833 2.8.274 2.87 3.09 3.272 2.878 6.615.89.662.863 2.215 1.57 3.055 2.425.866 4.176 2.386 5.758 4.07h1.047c1.094.675 1.773 1.754 2.748 2.545 1.408-.436 2.56.893 2.486 2.672zM65.999 86.257c-3.39-1.887-4.38-6.092-7.22-8.509-.708-2.28-2.954-3.07-3.544-5.462.005-.462.387-.558.92-.508 1.489.845 2.58 2.075 3.281 3.683.457.152.946.27 1.313.509.87 1.23 1.44 2.755 2.1 4.19.96 1.925 3.996 3.671 3.15 6.097zm-49.761.409c-.119.6-.294 1.145-.39 1.766-.667.11-.94.602-1.428.885.085.587-.207.81-.26 1.26-3.648 1.462-4.059 6.068-6.236 8.958-.809 3.468-2.193 7.457-3.507 10.852.653 1.416.5 3.922-1.17 4.163-.123-.258-.161-.6-.52-.63.051-2.715.78-5.2.78-7.571 2.08-5.792 4.32-12.321 8.183-16.781.447.055.729-.05 1.04-.126.47-2.318 1.68-3.92 3.248-5.173.058-1.024.87-2.215 2.077-2.524 1.824-2.771 5.02-4.211 7.405-6.435 2.058-.483 4.19-.893 6.886-.758.481.242 1.223.784 1.04 1.264-3.797.77-8.462.697-10.004 3.657-3.37 1.439-4.486 5.064-7.144 7.193zm-18.933-9.38c.55-.346.435-1.506-.549-1.368-.277.543-.277 1.391.549 1.368zm124.758.052c.336 1.258 1.692.358 1.29-.742-.616.005-1.103.18-1.29.742zm-110.665 41.09c.108.483-.637.15-.528.633 1.464 7.712 2.996 15.36 6.599 21.02-5.219-6.135-8.035-14.194-7.919-25.2 1.405-3.674 1.868-8.253 3.828-11.396-.104-.858.18-1.346.13-2.154 1.226-1.736 1.522-4.365 2.377-6.458-.24-2.044.59-3.064 1.584-3.925 1.817-4.545 4.466-8.293 8.314-10.891.176-.21.748-.042.924-.253 1.068-.711 2.164-2.05 4.09-1.52 3-1.917 7.044-.689 9.898.506.555.482 1.371.711 1.584 1.521-2.339.217-3.387-.805-5.147-1.14-3.586.134-7.307.701-10.162 1.9-2.204 1.894-3.443 4.715-5.939 6.33-3.24 6.9-5.376 15.462-7.39 22.795-1.754 1.188-1.719 4.091-2.64 6.079a4.165 4.165 0 0 0 .397 2.152zm-12.886-37.55c.223.371.068 1.2.114 1.786-.34.182-.863.14-1.354.137.086-.97.215-2.546 1.24-1.922zm85.036 60.574c.841 2.405 3.827 2.724 5.101 4.706-3.673.906-5.17-3.068-8.24-3.18-1.717-2.443-4.547-3.805-6.933-5.596-.61-1.74-1.917-2.8-3.4-3.688-5.893-9.622-10.724-20.95-14.523-32.18-1.844-4.78-4.397-8.868-6.932-12.975-3.465-2.652-6.156-6.731-12.952-5.722-.59-.105-1.074-.312-1.568-.51-5.474-.064-7.98 2.756-9.158 6.869-.408.025-.96-.086-1.177.126-.506 1.75-1.779 3.16-1.177 5.597-1.994 1.453-2.692 4.166-3.27 6.996-2.35 4.55-2.704 10.797-2.355 16.79.683 1.908 1.055 3.991 1.047 6.358 2.129 7.191 4.338 13.635 8.241 18.953-1.851-.785-3.145-2.114-3.531-4.324-5.636-7.363-7.46-18.842-7.719-31.035 2.537-8.144 4.553-16.995 8.764-23.15.33-.188.585-.45 1.047-.51 1.643-3.781 6.613-4.436 12.034-4.196.985.436 2.807.996 4.056.38 6.52 1.038 9.054 5.952 12.297 10.176-.003.64.1 1.174.26 1.654.185.67 1.077.65 1.31 1.272.245.302-.167.735.13 1.144 2.348 4 4.59 8.854 5.363 13.611 1.149 1.554 1.41 3.972 3.271 4.834.496 1.503 1.598 3.216.915 5.086.127.6.663.799.915 1.273.837 5.08 3.681 8.208 6.018 11.829 1.798.113 2.702 1.979 3.531 3.434.218.213.769.101 1.179.128-.057.775.3 1.15.522 1.653h1.047c-.041.3-.62.076-.523.509.352.498.733-.43 1.048 0 .978 1.804 3.828 1.787 4.577 3.816.156.334.447-.6.785-.128zM25.965 131.09c1.317 3.134 4.278 4.71 5.467 7.965 3.166 3.573 5.472 7.96 8.801 11.378-1.849-.354-2.293-2.04-3.733-2.78-.117-.49.325-.45.4-.759-.532-.125-.402.378-.933.253-1.002-1.117-1.782-2.44-2.667-3.667-2.86-2.599-4.125-6.71-7.202-9.103.993 2.808 3.49 5.288 4.401 8.597.3.559 1.206.542 1.467 1.138-.567 2.025 1.362 2.069 1.732 3.54-1.231-.77-2.593-1.418-3.733-2.275.3-.44.75.422 1.068 0-2.318-4.63-6.433-8.088-6.668-14.287-.22-.592-.84-.806-1.068-1.39-.1-2.794-1.19-5.633-.932-7.967-.769-1.886-1.615-5.285-.802-7.459.16-.698-.69-.44-.666-1.011.957-4.6 1.819-8.969 1.733-14.034-2.46 1.74-.933 7.57-2.532 10.493-2.06-2.298-.346-5.774-.134-8.722.524-2.159 1.712-3.688 3.201-4.932-.198-4.738 2.466-6.765 4.134-9.734 1.802-.877 5.064-4.652 7.066-1.77-1.076 1.17-3.224 1.327-4.666 2.149-2.1 2.939-3.734 6.32-5.468 9.608-.205 1.468.142 2.062.4 3.288-1.547 3.28-.254 7.644-1.6 11.63 1.094 3.58.2 8.266 1.6 11.506-.197.908-.123 2.076-.134 3.16.485 1.734 1.303 3.15 1.468 5.185zm1.337-7.57c1.531 3.212 2.818 7.296 4.066 10.351-3.055-1.76-4.29-6.422-4.066-10.35m52.98 21.816c-.085.462.087.675.261.886 2.262.084 2.404 2.223 4.697 2.279-.157.498-.972-.112-.783.886-.196-.108-.19-.408-.262-.633-.557-.16-.645.008-1.304 0-8.068-3.648-14.535-8.847-19.437-15.566-.103-.648.183-.92.13-1.52-4.745-2.356-6.316-7.793-9.132-12.022.22-1.162-.492-2.025-.13-2.91 3.432.636 2.42 6.677 5.218 8.352.365 1.755 1 3.247 2.478 3.923.991-1.817-1.389-4.488-2.348-6.075-.92-2.06-1.531-4.42-3.13-5.821-.088-.507-.324-.867-.523-1.266-.252-.388-.714-.573-1.043-.885-.189-1.462-.835-2.48-1.696-3.292-1.544-6.433-3.259-12.7-6.653-17.337-1.316-4.218-5.057-8.075-10.175-7.34.209 1.401 1.896 1.893 3.522 1.517 6.623 2.984 6.736 12.281 10.307 18.226v2.91c1.552 1.234.96 4.55 2.738 5.568-.514 6.723 3.87 12.108 6.914 16.96 1.383-.291 1.734 1.18 3.001 1.39 0 .465-.767.187-.652.76.043.803.648 1.06 1.174 1.393-.44.947.845 1.077.521 2.15 2.562 1.06 3.105 4.075 6.131 4.684 1.179 3.116 4.349 4.302 7.305 5.695.177.372.165.783-.13 1.011.34.079 1.564-.362 2.218 0-.394 1.266 1.555 1.24 1.434 2.152-1.208.475-2.182-.313-3.13-.506-.343-.258-.352-.84-.523-1.266-2.168-.004-3.154-1.156-4.696-1.771-.254-.236-.04-.464 0-.76-5.638-2.968-9.74-7.423-13.305-12.402-.276-.266.154-.494.261-.76-.282-.528-.884-.745-1.435-1.012-1.245-1.914-3.058-3.276-3.522-5.949-1.445-2.606-2.78-5.318-3.914-8.226-.386-2.114-.49-4.501-1.958-5.567.309-1.253.024-2.172-.782-2.658-.331-5.928-3.523-10.834-4.696-15.946-1.376-1.717-2.755-4.057-5.348-4.176.058 1.742.078 3.45-.783 4.302.463 6.09 2.744 10.415 3.913 15.82 2.79 2.107 2.673 6.52 4.306 9.997.375.802.576 1.834 1.042 2.911.338.778 1.334 1.095 1.174 2.405 2.8 4.076 4.49 9.228 8.48 12.15.379 1.7 1.516 2.663 3 3.29 1.901 3.346 5.468 5.073 7.828 7.972-4.241-.692-5.913-3.88-8.48-6.2-.163-.386-.1-.493.131-.76-2.735-1.228-3.276-4.584-6.391-5.442-2.462-3.392-4.715-7.225-6.653-10.757-.62-2.857-2.388-4.603-2.48-7.973-1.197-1.833-1.715-4.327-3.26-5.821-.816-4.187-1.93-8.085-3.132-11.897.277 10.7 5.001 18.181 7.697 26.956-.053.54.127 1.304-.131 1.646 1.326.823 2.5 1.793 2.479 3.923.387.32 1.297.45.783 1.265 1.806.526 2.185 2.438 3.523 3.417 0 3.293 2.007 5.305 4.173 6.075-.371-2.119-3.461-2.839-2.74-5.189 1.951-.185 2.325 2.204 3.653 3.038 1.062 3.146 3.629 4.832 5.741 6.96.191.48-.583.025-.392.506 2.702.206 3.516 2.243 6.001 2.658.457 2.092 3.736 2.108 4.435 3.543-.712.116-2.297.055-2.999-.253.052-.243.505-.1.39-.504-.312-.418-.384.458-.912.252-2.407-1.21-4.203-3.013-6.784-4.051-1.277-2.768-4.786-3.371-6.263-5.947-.286-.263-.559.2-1.043.126-5.119-3.555-7.626-9.644-10.827-15.06.077-.264.274-.409.392-.633-2.625-3.82-4.54-9.036-6.002-14.3-1.234-4.446-2.786-9.791-2.74-14.68.036-3.52 1.571-6.991.784-10.758-.188-.367-.593-.521-1.043-.633-5.207 2.821-7.353 9.876-6.524 17.718-.13.716-.761.948-1.043 1.519.423 1.432.414 2.023-.26 3.29.009.624.535.746 1.042.886-.531.455-.418 1.534-1.174 1.772.407.407.727.897 1.043 1.393-.893 1.668 1.24 3.529.653 5.694 1.758 4.02 3.799 9.112 4.174 14.428.912 1.648 1.719 3.395 3.132 4.555-.075.79.387 1.059.521 1.645.275.282.772.349.914.76.128.63-.268.754-.392 1.138 3.382 2.12 6.695 4.306 9.131 7.34-2.887-2.555-7.392-3.543-9.392-6.96-1.029-1.364-2.022-2.762-3.391-3.797-3.174-5.233-8.153-9.384-7.175-18.223-.118-.477-.114-1.072-.262-1.52.081-.174.503-.018.523-.252-.404-1.085-.554-2.415-1.044-3.417.354-5.653-.643-14.835 1.957-20.755.305-6.2 5.407-7.747 8.74-11.01 4.437-.477 7.678.878 9.132 3.67 6.14 4.336 7.443 13.365 10.306 20.881 2.09 3.625 3.614 7.8 5.218 11.897 1.87 1.94 3.091 4.508 3.391 7.972 2.457 1.415 2.504 5.165 5.219 6.329-.123.792.683.686.521 1.518 1.015.196 1.442.965 2.609 1.012.63 1.492 1.583 3.442 3.654 3.923.57 1.893 2.369 2.596 4.303 3.164zM3.278 87.617C2.325 89.37.859 90.625.663 93.122c-1.191 1.224-2.318 2.512-2.354 4.866-1.177-2.31.919-5.493 1.308-7.939 1.758-1.01 1.575-3.92 3.793-4.482-.16.571-.143 1.314-.131 2.05zm58.363 64.038c.072.391.107.82.263 1.133 2.575.588 3.963 2.319 6.287 3.15a12.931 12.931 0 0 1-3.275-.252c-6.166-3.982-12.06-8.222-17.028-13.353-.137-.288-.083-.76-.262-1.009-5.4-5.135-7.887-13.074-10.74-20.66-.5-.233-.814-.645-1.704-.503.267-4.824-1.28-8.633-2.095-13.228.305-4.898-.648-9.676-.263-14.36.51-.577.936-1.85 2.098-1.386.383 1.433-.64 2.568-.918 3.78.449 1.463.513 3.57-.131 4.912.77 1.738.537 4.86 1.18 7.432.568 2.283.955 3.876.784 6.3.174.547.803.654 1.049 1.132-.163 1.164.974 2.376.13 3.025.993.894 1.438 2.313 2.227 3.4 1.14 5.186 3.535 9.902 5.633 14.74 1.345.246 2.197 2.214 2.095 3.022.412.193.976.24 1.309.505 1.866 2.994 3.843 5.88 7.467 7.18.967 1.422 2.764 2.044 3.537 3.653.995.262 1.413 1.078 2.357 1.387zM-3.03 91.84c-.322-.045-.417-.32-.367-.741.48-.052.788.068.732.555-.212-.03-.325.041-.365.186zm10.92 20.966c-.868 5.95-.028 12.828 2.253 18.303-.488.03-.65-.273-1.002-.38a2.812 2.812 0 0 1-.125-1.145c-2.137-3.228-2.451-9.034-2.879-13.981.295-2.075.765-3.97.626-6.483 1.68-2.146 1.025-6.11 3.13-7.627-.103-1.883.254-3.3 1.25-4.067.55-1.996.714-5.023 2.88-4.957 1.118 2.206-1.317 3.405-.752 5.085-1.119.95-1.368 2.153-1.751 3.685h-.751c-.244.256.648.437.375 1.144-.69 1.876-1.148 3.679-1.628 5.847-.335 1.522-1.394 2.98-1.626 4.576zm34.39-10.677c1.276 1.517 1.742 3.789 2.045 6.21-1.675-1.106-2.06-3.94-2.046-6.21m31.899 49.055c.258-.072.6-.078 1.001-.03.117.383-.198.352-.14.679 1.366-.006 2.926-.2 2.672 1.36-1.594 0-2.8-.375-3.938-.815-.188-.473-.158-.796.04-.996-.43.112-.755.325-1.19.43-1.89-1.548-4.16-2.731-4.86-5.424-.497-.106-.617.42-.92.128-.396-1.05-1.399-1.515-2.363-2.019-7.066-7.466-13.954-15.104-17.206-26.236-1.127-1.565-1.679-3.683-2.495-5.55v-1.513c-4.231-3.588-3.854-11.602-5.91-17.28.072-.9.267-1.679 1.577-1.388.684.519.903 1.486.788 2.775.192.824 1.151.911.918 2.144.342.682.988 1.07 1.446 1.64.017 1.433 1.063 2.058 1.576 3.531.988 2.835.06 6.923 1.84 8.704.436 6.141 4.56 9.407 5.515 14.631 2.547 4.911 5.181 9.741 9.324 13.12.089.88.502 1.451.788 2.143 1.81 1.33 3.602 2.678 4.728 4.667 2.694 1.358 4.613 3.461 6.809 5.299zm14.97-30.443c-2.76-3.35-5.203-7.004-8.733-9.62-2.136-5.045-6.044-8.394-8.07-13.544-.234-1.002-1.84-1.361-1.324-2.658-.04-.334.276-.327.53-.381 1.875 1.497 3.213 3.51 4.234 5.824 1.159.326 1.043 1.87 2.249 2.152.062 1.924 1.43 2.599 2.381 3.671.249.183.016.828.266 1.012 2.47 2.699 4.972 5.37 6.483 8.987.254.178.533.334.926.38.555 2.337 3.511 2.38 3.969 4.81-.969.27-2.204-.236-2.91-.633zm-40.386 29.347c.21.637.719.979.644 1.893 1.672 1.056 3.99 2.143 5.147 3.282-1.172-.08-2.553-1.02-3.86-1.388-1.533-1.965-4.6-3.71-4.762-6.186-.466-.39-.666.364-1.158 0-1.089-1.035-2.196-2.053-3.604-2.778-2.132-3.253-4.58-6.197-6.692-9.468.117-4.482-3.062-8.161-3.603-12.245-.787-5.94-2.375-11.831-1.03-18.432-.54-2.439-.15-5.77 0-8.333.017-.404.292-.556.772-.506.54.314.502 1.192.772 1.768-.802 3.065.238 5.935 0 8.712-.06.699-.481 1.347-.514 2.02-.144 2.988.97 5.797 1.286 8.458.174 1.457 1.388 3.126.258 4.418 1.905 2.957 1.15 7.766 3.347 10.353.003 2.4 1.311 5.58 3.218 6.943-.083.29-.256.763 0 1.01 1.685 2.302 4.003 3.986 5.532 6.44 1.766 1.003 1.984 3.523 4.247 4.04zM-3.41 98.99c.167-.564.396-1.079 1.354-.99.004.54.088 1.147-.302 1.363-.565.054-.704-.245-1.052-.373zm1.394 7.28C-.932 105-.716 102.6 0 100.396c-2.029-1.725-2.127 3.604-2.016 5.873zm-1.366-6.9c-.197.352.705.622 1.098.37-.496-.057-.454-.387-1.098-.37zm31.652 43.387c.823.486 1.643.975 1.734 2.156-2.468-.928-3.309-3.479-4.535-5.453-2.646-4.256-5.6-10.12-6.137-15.976-.258-2.804-.758-5.449-1.468-8.241.152-.724.221-1.601-.134-2.155.424-1.12.162-2.89.533-4.058h.4c2.257 5.487 1.638 12.233 3.337 17.75.002.554.079 1.176-.267 1.396 2.088 4.946 3.963 10.096 6.537 14.58zm84.928-31.303c.311-.234.693-.398 1.304-.343.22.524-.204 1.088-.593 1.37-.437-.15-.563-.599-.71-1.027zm-97.776 15.672c1.755 3.416 2.612 7.7 4.195 11.281.968 1.474 2.27 2.624 2.886 4.436-4.13-2.599-6.556-9.041-8.13-14.956-.057-.478.276-.577.524-.76-2.137-1.314-1.999-4.384-2.622-6.593 1.012-2.701-.86-7.164 1.442-8.744 1.156 2.247.236 5.605.525 8.239.23 2.522 1.554 3.99 1.18 7.097zM.188 112.48c-.438 1.25.004 2.171.184 3.45.825-.423 1.694-3.063-.184-3.45zm3.377 5.514c.517.795.754 1.73.239 2.767-1.426-1.266-.896-4.44-1.076-6.193.365-.095.352.227.717.133.472 1.012.839 2.293.12 3.293zm42.97 24.196c4.62 5.321 9.168 10.714 16.201 13.694-.058.451-.528.5-.784.76-2.064-.49-3.144-1.935-5.095-2.535-.151-.319-.521-.425-.522-.889-4.945-2.554-7.876-7.064-12.02-10.397-3.332-4.172-6.535-9.56-8.1-16.103-.373-1.55-.5-3.012-1.437-4.437.128-.594.033-1.406.653-1.522 2.032.901 1.171 4.611 2.743 5.959 1.158 6.147 3.999 10.749 7.578 14.836.04.292-.377.14-.392.38.207.264.913.041 1.176.254zM4.176 122.14h.48c.407 1.035.712 2.154.8 3.45-1.348-.54-1.502-2.64-1.28-3.45zm6.67 10.803c.07.254-.237.163-.25.343.26.449.666.761.998 1.144-.133.259-.783.042-1.12.113.53-1.625-1.254-1.623-.872-2.742.605.205.9.697 1.245 1.142zm75.09 3.866c-.043-.403.021-.665.136-.868.551.219 1.097.442 1.214 1.214-.43.424-1.05-.062-1.35-.346zm2.714.916c2.08-1.382 2.782 1.214 4.774 1.365-.066.641-.94.526-1.194.992-1.51-.199-2.499-.888-3.58-1.488v-.869zm7.547 3.737c.327-.242.728-.414.618-1.085-1.035-1.042-2.092 1.003-.618 1.085zm-69.6 2.772c-.023.54 1.068.763 1.097.185-.217-.214-.646-.21-1.098-.185zm61.388 2.938c.577-.032 1.091-.131 1.097-.741-.393-.344-1.243-.03-1.097.74zm-48.433-.19c.664 2.31 3.128 2.816 4.774 4.14-1.451-1.52-2.457-3.488-4.774-4.14zm4.774 4.944c.572.335 1.296 1.847 2.045 1.026-.75-.17-1.13-1.535-2.045-1.026z" mask="url(#b)" opacity=".3"/>
        </g>
        <path fill="#344442" fill-rule="nonzero" d="M89.82 28.08c-.922 0-1.784.254-2.522.695A4.911 4.911 0 0 0 82.517 25a4.911 4.911 0 0 0-4.782 3.775 4.903 4.903 0 0 0-2.522-.695c-2.707 0-4.91 2.19-4.91 4.88v.145a4.902 4.902 0 0 0-2.393-.62c-2.707 0-4.91 2.188-4.91 4.88v24.108c0 4.71 2.088 8.942 5.393 11.834-.028.102-.044.21-.044.32v6.986c0 .69.564 1.25 1.259 1.25h18.514c.695 0 1.258-.56 1.258-1.25v-6.986c0-.11-.016-.218-.043-.32 3.304-2.892 5.393-7.125 5.393-11.834V32.96c0-2.69-2.203-4.88-4.91-4.88zm-2.956 51.282H70.866v-4.277a15.842 15.842 0 0 0 7.999 2.156 15.84 15.84 0 0 0 7.999-2.156v4.277zm-8-4.623c-7.36 0-13.347-5.951-13.347-13.267V37.364a2.389 2.389 0 0 1 2.393-2.378 2.389 2.389 0 0 1 2.393 2.378v10.677c0 .69.564 1.25 1.259 1.25s1.258-.56 1.258-1.25V32.96a2.389 2.389 0 0 1 2.393-2.38 2.389 2.389 0 0 1 2.394 2.38v15.08c0 .69.563 1.25 1.258 1.25.695 0 1.258-.56 1.258-1.25V29.88a2.389 2.389 0 0 1 2.394-2.38 2.389 2.389 0 0 1 2.393 2.38v18.16c0 .69.563 1.25 1.258 1.25.695 0 1.259-.56 1.259-1.25V32.96a2.389 2.389 0 0 1 2.393-2.38 2.389 2.389 0 0 1 2.393 2.38v22.693l-11.502-4.072a4.905 4.905 0 0 0-3.753.19 4.86 4.86 0 0 0-2.52 2.77 4.82 4.82 0 0 0 .19 3.73 4.867 4.867 0 0 0 2.789 2.505l7.175 2.54a1.259 1.259 0 0 0 1.608-.759 1.249 1.249 0 0 0-.764-1.597l-7.175-2.54a2.372 2.372 0 0 1-1.359-1.221 2.349 2.349 0 0 1-.092-1.818 2.368 2.368 0 0 1 1.228-1.351 2.391 2.391 0 0 1 1.83-.092l12.345 4.37v3.164c0 7.315-5.988 13.266-13.348 13.266z"/>
    </g>
</svg>
