<svg xmlns="http://www.w3.org/2000/svg" width="35" height="28" viewBox="0 0 35 28">
    <path fill="#B0D66D" fill-rule="evenodd" d="M27.097 27.454c-2.465 0-4.432-.866-5.9-2.598-1.467-1.732-2.201-4.095-2.201-7.089 0-3.757 1.189-7.191 3.566-10.303C24.94 4.353 29.005 2.034 34.76.508v4.579c-2.583.94-4.52 1.893-5.812 2.862-1.292.968-1.938 2.304-1.938 4.006 0 .822.323 1.453.969 1.894.646.44 1.394.91 2.246 1.409.85.499 1.6 1.203 2.245 2.113.646.91.969 2.246.969 4.007 0 1.996-.602 3.508-1.806 4.535-1.203 1.027-2.715 1.541-4.535 1.541zm-18.404 0c-2.466 0-4.432-.866-5.9-2.598C1.325 23.124.59 20.761.59 17.767c0-3.757 1.204-7.191 3.61-10.303C6.61 4.353 10.66 2.034 16.355.508v4.579c-2.524.94-4.447 1.893-5.768 2.862-1.32.968-1.981 2.304-1.981 4.006 0 .822.323 1.453.968 1.894.646.44 1.395.91 2.246 1.409s1.6 1.203 2.246 2.113c.645.91.968 2.246.968 4.007 0 1.996-.602 3.508-1.805 4.535-1.204 1.027-2.715 1.541-4.535 1.541z"/>
</svg>
