<?xml version="1.0" standalone="no"?>
<!DOCTYPE svg PUBLIC "-//W3C//DTD SVG 20010904//EN"
 "http://www.w3.org/TR/2001/REC-SVG-20010904/DTD/svg10.dtd">
<svg version="1.0" xmlns="http://www.w3.org/2000/svg"
 width="700.000000pt" height="700.000000pt" viewBox="0 0 700.000000 700.000000"
 preserveAspectRatio="xMidYMid meet">
<metadata>
Created by potrace 1.11, written by Peter Selinger 2001-2013
</metadata>
<g transform="translate(0.000000,700.000000) scale(0.100000,-0.100000)"
fill="#000000" stroke="none">
<path d="M3708 6965 c-22 -35 -24 -36 -68 -29 -104 16 -125 12 -167 -35 l-39
-44 -104 0 c-58 0 -120 4 -138 8 -29 7 -37 3 -64 -24 -17 -17 -37 -31 -44 -31
-8 0 -25 -18 -39 -40 -14 -22 -40 -47 -57 -56 -18 -9 -41 -26 -50 -37 -16 -21
-19 -21 -75 -8 -94 22 -133 24 -160 10 -19 -10 -24 -19 -20 -42 3 -25 -3 -32
-66 -73 -55 -36 -76 -44 -107 -42 -50 2 -82 -20 -108 -75 -12 -25 -31 -52 -43
-61 -19 -13 -26 -13 -69 4 -64 25 -73 17 -65 -57 l6 -60 -40 -7 c-46 -7 -81
-44 -81 -86 0 -17 -12 -40 -33 -62 -28 -30 -32 -42 -34 -93 -1 -52 -5 -63 -30
-83 -59 -47 -62 -53 -62 -107 1 -36 -6 -66 -24 -101 -19 -36 -25 -62 -23 -99
1 -36 -3 -55 -16 -69 -14 -16 -18 -37 -18 -99 0 -74 -2 -81 -29 -106 -27 -25
-28 -31 -26 -90 3 -54 0 -69 -25 -110 -37 -63 -43 -96 -45 -221 -2 -112 -18
-206 -59 -335 -27 -87 -46 -156 -53 -194 -5 -30 -8 -353 -3 -481 3 -112 19
-226 54 -405 15 -71 28 -139 30 -150 4 -22 86 -384 90 -400 1 -5 8 -30 15 -55
8 -25 14 -49 16 -55 29 -129 120 -426 147 -480 18 -37 60 -91 107 -140 90 -92
113 -124 131 -180 17 -53 33 -70 111 -116 61 -35 85 -58 146 -136 11 -15 41
-36 65 -45 90 -35 395 -121 476 -134 15 -2 38 -7 52 -9 14 -3 36 -7 49 -10 12
-2 77 -5 142 -6 70 -1 122 -5 126 -11 8 -15 12 -88 12 -258 1 -238 -2 -260
-65 -605 -15 -77 -28 -149 -30 -160 -1 -11 -5 -29 -7 -40 -56 -245 -69 -275
-140 -309 -58 -28 -201 -71 -268 -81 -49 -7 -91 -25 -96 -40 -2 -6 82 -10 239
-10 242 0 243 0 303 -27 102 -45 197 -67 285 -65 61 2 84 6 97 20 17 17 17 19
-13 45 -18 15 -37 37 -43 49 -14 29 1 34 119 38 78 3 109 0 177 -20 170 -50
307 -65 402 -44 70 15 72 27 3 26 -105 -1 -197 21 -247 58 -136 101 -167 168
-189 400 -4 33 -8 71 -10 85 -22 133 -28 575 -10 730 13 115 25 204 28 206 0
0 48 18 106 38 326 117 594 236 713 317 99 68 146 122 201 235 24 49 58 93
114 149 132 133 158 191 161 358 l2 97 38 38 c53 52 92 115 93 149 1 15 -13
58 -31 95 l-32 66 25 60 c44 110 44 116 -8 163 -25 23 -46 49 -46 58 0 9 13
32 29 51 15 19 38 52 49 73 l20 39 -33 44 -34 44 15 48 c30 92 29 125 -2 172
-24 36 -28 51 -26 102 2 46 -3 69 -19 98 l-22 39 27 32 c15 17 25 37 23 43 -3
6 -14 51 -26 99 -21 83 -22 91 -7 134 9 26 16 59 16 75 0 30 -31 68 -55 68
-20 0 -19 24 2 41 9 8 22 29 30 47 12 28 11 36 -2 62 -8 16 -26 37 -39 45 -21
14 -23 21 -19 74 5 62 -9 91 -47 91 -28 0 -32 26 -12 84 22 64 10 104 -38 133
-39 23 -44 45 -27 113 22 83 18 100 -29 132 -40 27 -42 29 -34 64 10 42 -3 84
-25 84 -18 0 -18 -1 -1 76 15 71 8 97 -31 118 -28 14 -29 17 -32 103 -1 48 -4
99 -6 113 -2 14 -4 32 -4 41 -1 8 -21 30 -45 47 -24 17 -63 60 -86 95 -24 35
-58 74 -76 86 -28 19 -33 29 -32 61 1 51 -12 69 -63 94 -45 22 -49 28 -73 87
-12 31 -26 42 -100 78 -68 33 -94 52 -124 90 -22 28 -72 70 -122 103 -47 30
-96 62 -110 71 -14 9 -61 43 -105 76 -103 78 -148 102 -201 107 -41 5 -44 3
-66 -31z"/>
</g>
</svg>
