<svg width="24" height="24" viewBox="0 0 24 24" fill="none" xmlns="http://www.w3.org/2000/svg">
<path opacity="0.4" fill-rule="evenodd" clip-rule="evenodd" d="M12.1215 21.2565C10.8705 20.6182 9.96828 19.929 8.68744 18.702C7.49452 17.5593 6.05597 16.4988 5.08239 15.9729C3.05945 14.8802 4.35891 14.1288 5.08136 14.2472C7.20291 14.5949 7.20431 15.3724 7.97657 15.7205C8.92546 16.1481 10.2186 17.0538 10.5488 16.3657C10.879 15.6775 7.5879 11.2535 5.75115 8.1942C5.63877 8.00695 4.51681 6.31868 5.15382 6.00869C5.79083 5.6987 6.91657 7.15631 7.09548 7.37882C8.68805 9.35976 10.9368 12.4265 11.5419 12.0683C11.9891 11.8035 10.7477 9.43966 9.40957 6.66061C8.6296 5.04074 7.79519 3.38949 8.35736 3.07117C9.33403 2.51814 10.0627 4.3651 10.8449 5.72012C11.3531 6.60063 13.6901 10.9209 14.3875 10.6885C14.8438 10.5093 13.8481 7.68453 13.4199 6.5455C12.6688 4.54808 11.4498 2.37694 12.5433 2.0153C13.2165 1.79266 14.1246 4.05313 14.5733 5.30097C14.8931 6.1899 16.6548 10.05 16.9217 10.0456C17.3048 9.89388 17.1458 8.16705 16.9837 6.69076C16.8285 5.27735 16.4528 4.04908 17.2332 3.972C18.0135 3.89492 18.1517 5.14236 18.3535 6.82125C18.4634 7.73592 18.9466 9.43256 19.3926 10.7889C19.7493 11.8738 20.9462 14.5531 20.994 15.809C21.0694 17.7867 20.4501 20.1368 18.2108 21.3064C16.5796 22.1582 14.2043 22.3192 12.1215 21.2565Z" fill="#344442"/>
</svg>
