<svg width="24" height="14" viewBox="0 0 24 14" fill="none" xmlns="http://www.w3.org/2000/svg">
<path opacity="0.4" d="M5 10V7H8V5H5V2H3V5H0V7H3V10H5ZM12 8.75C9.66 8.75 5 9.92 5 12.25V14H19V12.25C19 9.92 14.34 8.75 12 8.75ZM7.34 12C8.18 11.42 10.21 10.75 12 10.75C13.79 10.75 15.82 11.42 16.66 12H7.34ZM12 7C13.93 7 15.5 5.43 15.5 3.5C15.5 1.57 13.93 0 12 0C10.07 0 8.5 1.57 8.5 3.5C8.5 5.43 10.07 7 12 7ZM12 2C12.83 2 13.5 2.67 13.5 3.5C13.5 4.33 12.83 5 12 5C11.17 5 10.5 4.33 10.5 3.5C10.5 2.67 11.17 2 12 2ZM17 7C18.93 7 20.5 5.43 20.5 3.5C20.5 1.57 18.93 0 17 0C16.76 0 16.52 0.0200002 16.29 0.0700002C17.05 1.01 17.5 2.2 17.5 3.5C17.5 4.8 17.03 5.98 16.27 6.92C16.51 6.97 16.75 7 17 7ZM19.32 9.02C20.32 9.83 21 10.89 21 12.25V14H24V12.25C24 10.56 21.56 9.49 19.32 9.02Z" fill="#344442"/>
</svg>
