<svg width="330" height="245" viewBox="0 0 330 245" fill="none" xmlns="http://www.w3.org/2000/svg">
<path fill-rule="evenodd" clip-rule="evenodd" d="M155.999 0.799255C154.489 1.12993 151.349 0.0932212 151 1.39804C151.797 2.33868 156.079 2.43028 155.999 0.799255Z" fill="white"/>
<path fill-rule="evenodd" clip-rule="evenodd" d="M138.386 4.34323C140.468 5.14276 145.575 6.02416 146 3.64299C143.069 3.59422 138.025 4.72645 139.08 2.24076C138.471 2.37489 137.044 1.95858 137 2.47418C137.911 2.79643 138.499 3.33119 138.386 4.34323Z" fill="white"/>
<path fill-rule="evenodd" clip-rule="evenodd" d="M176.412 6.75603C184.811 14.7861 194.901 21.5482 202.392 30.2584C208.039 34.4524 211.515 40.2744 217.915 43.9069C217.807 44.5023 216.738 44.3761 216.901 45.1693C219.542 45.6346 220.767 47.157 221.623 48.9601C222.498 49.2314 223.884 49.1203 224.324 49.7175C232.691 61.9812 246.025 70.5275 254.351 82.8232C257.201 83.5674 262.66 84.1402 260.426 87.119C261.764 87.801 263.925 87.8651 265.485 88.3832C278.728 97.2499 282.839 112.958 299.564 119.215C303.211 123.388 307.727 126.913 313.057 129.828C313.029 130.227 312.199 130.026 312.385 130.587C314.986 135.797 323.969 136.228 325.881 141.96C326.718 142.34 328.109 142.312 328.58 142.968C332.486 139.465 327.242 137.655 325.881 134.631C319.813 133.952 317.117 130.749 315.756 126.544C311.201 123.384 306.388 120.421 303.611 115.929C301.043 116.085 300.359 114.829 298.55 114.414C296.739 109.619 290.551 108.106 287.754 104.051C287.762 103.635 288.692 103.908 288.768 103.547C283.722 101.932 282.144 97.7228 279.654 94.1957C278.459 93.8283 276.432 94.0827 275.607 93.4383C275.647 92.711 277.046 92.9993 276.955 92.1741C275.619 91.1529 273.73 90.5481 273.245 88.8882C270.76 89.0653 269.602 88.2476 269.197 86.8665C269.17 85.9207 271.587 86.8025 271.557 85.8566C269.368 84.632 265.734 84.4925 263.797 83.0757C264.431 81.7361 264.579 80.8411 263.46 79.7898C262.584 79.1115 262.443 80.0988 261.437 80.0442C255.078 73.3499 245.791 68.8488 241.867 60.3326C239.641 57.5366 234.019 57.2803 233.43 53.2559C227.463 51.157 225.632 45.9568 220.611 43.1457C219.333 37.7873 214.431 35.142 209.815 32.2801C209.531 30.558 207.876 29.859 207.453 28.2368C204.668 27.5641 202.143 25.5595 202.731 23.1817C201.75 22.9066 200.337 22.9556 199.358 22.6786C198.958 21.7121 198.055 21.1243 198.344 19.6452C191.809 16.3688 188.439 10.7221 181.476 7.7678C181.863 7.46822 181.856 6.87284 181.81 6.25109C178.243 4.21248 174.402 3.12912 170 2.20779C170.996 4.58176 174.148 5.33541 176.412 6.75603Z" fill="white"/>
<path fill-rule="evenodd" clip-rule="evenodd" d="M156.049 2.84638C156.361 3.4407 158.641 3.00948 158.464 2.24535C157.633 2.42857 155.668 1.76275 156.049 2.84638Z" fill="white"/>
<path fill-rule="evenodd" clip-rule="evenodd" d="M316.145 141.71C312.867 135.566 304.681 133.095 300.6 127.554C293.827 126.301 293.6 120.151 286.404 119.211V117.693C281.096 115.009 280.362 108.901 276.268 105.307C276.969 102.303 273.471 100.576 270.859 99.24C267.886 95.0634 263.605 91.8594 258.357 89.381C259.322 99.3625 273.494 102.998 275.59 112.133C272.37 111.17 272.413 107.77 267.818 107.834C267.082 107.039 266.341 106.244 266.467 104.802C258.553 102.548 258.918 94.0984 252.95 90.3931C252.375 87.4284 249.949 84.95 247.88 82.0494C247.585 81.303 247.374 82.6355 246.527 82.3038C245.779 80.3343 243.088 79.8198 242.813 77.4997C242.186 77.0417 240.392 77.4563 240.107 76.7401C240.407 76.2915 241.047 76.0993 240.783 75.2248C239.664 74.2919 237.505 74.1373 236.729 72.9499C236.474 72.1715 237.658 72.4637 237.404 71.6853C235.179 70.9615 234.65 68.862 234.023 66.376C232.884 66.4627 230.619 67.0149 229.631 66.376C229.772 65.8087 231.423 66.3704 231.659 65.8709C230.115 62.5576 227.595 59.9811 223.549 58.5412C222.004 54.3873 217.807 52.218 215.436 48.6822C215.358 49.6491 214.433 49.7999 213.41 49.4399C212.972 48.1847 214.229 48.1978 214.085 47.1631C209.54 43.388 203.644 39.3133 201.581 34.5242C193.405 30.6115 189.328 23.6361 182.319 18.8508C182.515 18.0291 182.09 17.6747 181.981 17.081C176.788 15.3188 173.253 12.3183 169.139 9.74946C168.449 6.12702 163.316 4.51369 159 4.44207C160.477 6.62458 163.09 7.9552 165.76 9.24435C165.836 9.72307 165.377 9.80223 165.423 10.2546C174.503 15.2585 179.933 22.9953 187.726 28.9623C188.141 29.7803 186.635 29.1565 187.051 29.9744C190.283 32.6941 193.236 35.6267 195.836 38.8213C209.006 46.4149 217.159 57.7572 227.943 67.1356C230.395 73.0498 234.791 77.5166 238.079 82.8089C248.12 88.6968 251.672 99.4379 260.385 106.319C261.234 106.694 262.247 106.948 262.751 107.582C266.58 111.542 270.501 115.435 277.959 116.683C279.838 119.57 282.461 121.909 286.404 123.257C289.34 127.213 294.094 129.808 298.234 132.862C298.667 133.193 298.667 133.794 298.234 134.126C300.421 135.525 302.97 136.65 304.991 138.171C305.545 139.358 306.314 140.385 307.022 141.458C312.905 142.702 313.48 147.917 319.862 148.787C321.177 152.862 326.113 154.225 330 156.374C328.713 148.993 321.426 146.102 316.145 141.71Z" fill="white"/>
<path fill-rule="evenodd" clip-rule="evenodd" d="M208.835 5.1943C209.027 3.85373 207.629 3.6951 206.018 3.69733C205.841 5.02673 207.044 5.32836 208.835 5.1943Z" fill="white"/>
<path fill-rule="evenodd" clip-rule="evenodd" d="M210.651 19.7002C208.639 22.3027 212.595 26.5399 216.751 27.0258C217.004 27.8016 215.823 27.5097 216.076 28.2875C216.581 28.5832 217.461 28.602 217.77 29.0445C226.857 42.3982 240.018 52.7161 253.034 63.1452V64.1545C257.758 66.8644 260.124 71.3332 263.881 74.7644C264.68 74.7587 264.879 75.1994 265.916 75.0167C268.919 78.4215 273.247 80.8376 275.749 84.6153C276.596 85.4138 278.184 85.6642 279.139 86.3836C279.175 88.2932 280.929 88.924 282.87 89.4137C283.454 93.3589 286.28 95.6282 289.653 97.4963C289.056 97.7279 288.472 97.967 288.634 98.7599C294.711 100.799 298.445 104.583 301.177 109.117C302.024 109.328 302.995 109.447 304.231 109.37C310.088 117.887 321.911 121.961 330 128.817C328.966 126.388 328.254 123.718 325.253 122.757V121.241C322.993 119.047 320.086 117.343 318.132 114.927C311.066 112.695 309.646 106.261 303.212 103.56C302.871 102.383 302.052 101.562 301.177 100.782C300.277 100.779 299.241 100.877 298.804 100.528C298.71 96.9671 292.79 95.5867 291.346 92.1932C291.379 91.5416 292.795 91.9277 292.363 90.9296C288.202 88.811 284.306 86.4928 283.207 82.09C280.373 80.3273 276.384 79.429 274.733 76.785C273.396 76.8528 272.375 76.6871 272.018 76.028C271.932 71.1637 263.686 70.3107 263.542 64.6611C262.445 63.7779 262.483 65.8758 261.171 65.6705C259.186 65.4596 257.71 63.5369 258.458 62.1339C259.432 62.3373 258.671 63.8288 260.152 63.6499C261.11 63.8589 261.032 63.2939 261.846 63.3975C262.195 62.2149 261.29 61.9606 260.832 61.3769C254.97 61.6179 254.08 58.1547 249.982 57.0832C242.568 50.5486 234.714 42.2004 227.262 34.8541V33.0877C219.734 27.0766 213.133 20.3744 206.917 13.384C205.315 12.981 202.534 13.4518 202.509 11.8699C203.945 11.3295 204.71 13.1844 206.917 12.8793C207.069 11.7569 206 11.5423 205.562 10.8587C198.477 12.7644 197.273 1.72524 192 6.31267C198.853 10.3012 201.146 17.6852 210.651 19.7002Z" fill="white"/>
<path fill-rule="evenodd" clip-rule="evenodd" d="M128 6.35968V5.56956C126.753 4.59469 123.501 5.67963 122.564 6.62502C121.793 6.72722 122.74 5.42215 121.603 5.83293C120.68 5.95086 120.143 6.38916 120 7.15177C122.754 7.96351 125.618 6.71543 128 6.35968Z" fill="white"/>
<path fill-rule="evenodd" clip-rule="evenodd" d="M328.303 163.465C327.52 163.039 325.713 163.383 325.262 162.711C323.488 159.336 320.729 156.694 316.488 155.159C317.035 154.333 316.408 154.198 316.488 153.145C302.288 143.761 289.233 133.528 276.314 123.19C276.042 122.316 276.815 122.222 276.653 121.428C275.267 121.117 274.298 120.497 272.599 120.42C263.326 111.144 250.588 104.444 243.904 93.2358C239.016 89.9647 234.448 85.9315 232.089 80.1456C230.846 79.2222 228.852 78.8656 227.7 77.8784C227.42 74.6204 222.925 71.3906 222.638 67.3068C221.551 66.4379 219.447 66.329 218.584 65.293C218.974 64.5874 218.974 63.9831 218.584 63.2793C214.151 63.4782 215.493 59.3776 211.833 59.0003C211.597 58.0657 212.41 57.9193 212.17 56.9866C211.154 56.7351 209.722 56.8008 209.467 55.9788C209.744 55.1042 208.966 55.0104 209.13 54.2165C199.699 48.9129 193.744 41.0212 184.49 35.588C182.529 29.7401 175.534 26.3376 173.685 21.2403C172.134 20.3001 170.136 19.692 168.96 18.4721C165.109 12.5323 155.963 10.541 149.716 6.38783C148.752 5.80416 146.895 5.75537 146.004 6.38783C145.888 9.41125 148.76 10.207 152.077 10.6687C152.248 11.4607 151.342 11.6521 152.077 12.1776C165.23 15.4637 168.948 25.7802 178.411 31.8139C178.464 32.4388 177.88 32.5927 177.739 33.0713C180.43 34.1673 181.192 36.7065 182.126 39.1125C183.863 40.5013 186.601 41.145 188.542 42.3837C186.503 47.4434 197.346 46.9892 196.976 52.4561C199.573 51.7599 202.669 53.7473 202.719 56.4818C203.53 56.8008 204.758 56.8064 205.42 57.2362C210.245 64.548 218.891 69.0071 223.31 76.621C223.205 77.2103 222.779 77.565 222.973 78.3833C231.249 88.4877 239.489 98.6258 249.645 107.332C259.345 114.781 267.162 123.633 278.674 129.735C279.409 131.87 281.045 133.338 283.401 134.265C286.807 139.028 292.326 142.209 296.904 146.096C297.408 147.821 299.102 148.654 301.631 148.866C306.383 152.706 311.472 156.296 317.498 159.186C317.991 162.763 321.55 164.053 324.588 165.732C325.011 168.521 327.394 169.846 329.652 171.269C331.021 168.66 327.885 166.999 328.303 163.465Z" fill="white"/>
<path fill-rule="evenodd" clip-rule="evenodd" d="M216 9.19625C215.331 7.9034 213.899 7.16849 211 7.50073C211.167 9.02471 214.185 10.4006 216 9.19625Z" fill="white"/>
<path fill-rule="evenodd" clip-rule="evenodd" d="M141.173 19.1193C147.448 19.2258 153.315 22.0763 153.33 25.2445C158.487 28.4089 163.929 31.3563 169.207 34.4332C170.839 37.1238 173.717 40.1949 179 39.2816C174.803 32.498 165.329 29.7028 160.424 23.4577C157.694 23.3093 156.677 21.8651 156.032 20.1411C154.781 19.8081 153.219 19.713 152.318 19.1193C149.347 13.877 139.924 13.5098 135.769 9.16372C132.996 9.217 130.357 9.16943 128 8.91064C128.401 13.5897 139.911 13.4774 141.173 19.1193Z" fill="white"/>
<path fill-rule="evenodd" clip-rule="evenodd" d="M215.155 13.6918C215.761 14.3351 217.643 14.0266 217.866 14.9539C217.891 17.7094 221.008 19.8932 223.966 21.2606C225.371 24.4205 227.333 27.1629 230.744 28.8294C230.254 29.1397 230.102 29.6965 230.064 30.3416C235.722 33.795 237.382 38.6759 242.601 42.4509C242.785 43.3462 241.401 43.0716 241.585 43.9669C247.613 46.1224 247.769 52.6473 256.151 53.0498C256.803 55.0041 259.397 55.51 259.541 57.8424C261.307 58.6323 262.724 59.6781 264.964 60.1126C272.901 69.1692 284.198 75.7279 291.728 85.0892C291.688 85.7118 291.68 86.3043 292.069 86.6033C293.403 86.7199 293.83 86.0729 294.441 86.8535C294.287 87.5833 293.241 87.6435 293.423 88.6197C305.808 93.0229 310.007 103.52 318.835 110.568C318.416 111.35 317.757 111.96 318.835 112.588C320.576 112.979 320.217 110.967 321.546 111.832C322.304 115.302 326.194 116.444 329 118.391C327.308 114.93 326.035 108.997 319.853 108.048C320.081 107.459 320.977 107.37 321.207 106.785C316.61 102.977 312.927 98.485 310.027 93.4141C301.936 89.009 294.663 83.9964 290.713 76.5104C284.829 71.5354 276.731 66.9365 272.757 61.3747C269.974 60.5847 267.836 59.3189 265.303 58.3464C260.129 50.678 249.141 47.3375 243.955 39.6766C243.119 38.9562 241.51 38.8095 240.906 37.9104C240.469 30.9849 232.375 26.119 226.338 21.7647C227.116 17.9765 221.102 17.4574 222.61 14.7019C220.387 14.1696 218.934 13.0655 218.207 11.4216C217.36 11.209 216.39 11.0905 215.155 11.1695C214.695 11.5871 215.433 12.6404 215.155 13.6918Z" fill="white"/>
<path fill-rule="evenodd" clip-rule="evenodd" d="M77.3717 27.293C77.79 27.6545 78.5332 27.7712 79.4 27.7975C86.2709 23.9081 97.0194 22.1517 107.786 23.253C112.253 25.5893 119.449 26.2482 124.344 27.5453C137.867 27.2986 146.073 33.193 154.423 37.6453C155.852 37.5889 156.607 38.035 157.804 38.1517C160.346 43.4908 170.828 42.8977 173.35 48.2518C174.592 48.3328 175.22 48.8731 176.391 49.0086C176.192 49.9141 176.782 50.2323 177.064 50.7764C193.214 60.4265 207.397 71.5432 217.622 85.6211C218.909 85.4065 219.652 84.7834 221 84.6121C220.506 83.1869 220.413 82.1816 219.65 80.572C215.016 78.1435 212.852 73.8644 210.862 69.461C206.354 67.5257 204.064 63.9356 200.723 61.1306C200.035 60.2514 198.956 61.8629 198.357 61.1306C196.006 53.9636 185.57 52.8397 182.814 45.9777C178.979 46.2939 177.568 44.0292 173.685 43.7054C167.749 39.0535 159.576 36.0696 155.101 30.3221C153.808 29.8081 152.516 30.2712 151.047 30.3221C149.709 29.1342 148.333 27.9726 146.99 26.7866H144.287C141.573 23.3415 132.928 24.3317 133.473 18.4561C131.394 17.818 128.522 17.7765 128.403 15.6775C123.989 14.5987 119.706 13.4221 115.899 11.8897C109.957 13.3223 107.042 11.2082 100.35 12.3961C103.648 13.0098 106.145 16.4681 110.154 14.9207C109.648 14.8774 108.907 15.011 108.803 14.6684C110.204 14.4557 111.31 14.0151 113.195 14.162C117.698 18.2039 127.423 18.3451 131.444 22.7484C119.434 24.2489 109.733 17.4377 96.9715 19.4652C95.7495 19.2017 95.4069 18.2792 93.5928 18.4561C92.2649 19.484 91.6905 21.0748 88.1858 20.4743C87.1149 24.0926 80.6094 22.2966 78.0444 24.5162C78.6945 24.6216 79.5033 24.6066 79.4 25.273C78.8759 25.8133 75.9885 26.9748 77.3717 27.293Z" fill="white"/>
<path fill-rule="evenodd" clip-rule="evenodd" d="M233 15.004C232.106 14.8968 230.842 13.5562 230 14.403C230.797 14.5862 232.385 15.6654 233 15.004Z" fill="white"/>
<path fill-rule="evenodd" clip-rule="evenodd" d="M249.701 31.2535C250.806 30.2386 248.534 29.5774 247.998 28.9466C249.51 26.6436 246.145 25.9384 244.587 25.1013V22.7944C242.16 21.1221 238.785 19.6581 236.408 18.6929C236.154 17.9016 237.583 18.3795 237.09 17.4105C236.208 17.206 233.786 16.8352 233 17.4105C237.344 22.6071 241.916 30.3552 249.701 31.2535Z" fill="white"/>
<path fill-rule="evenodd" clip-rule="evenodd" d="M259.983 28.2745C260.28 26.8571 256.654 26.1651 255 25.2954C256.389 26.4778 257.405 27.9192 259.983 28.2745Z" fill="white"/>
<path fill-rule="evenodd" clip-rule="evenodd" d="M320.21 190.081C319.356 187.019 316.307 185.59 313.433 184.033C313.607 182.979 313.243 182.325 312.753 181.765C312.084 181.169 310.288 181.415 309.366 181.007C308.75 178.443 305.567 177.785 304.963 175.211C296.468 173.634 296.703 165.56 289.375 163.113C289.092 162.484 288.933 161.762 289.037 160.845C281.623 159.218 281.441 152.213 274.805 150.005C275.033 146.226 272.507 144.496 268.707 143.706C268.248 143.21 268.384 142.269 268.033 141.69C266.603 141.157 265.085 140.689 263.964 139.926C258.952 130.799 248.77 125.523 241.944 117.747C238.438 116.069 235.165 114.217 234.152 110.69C229.921 108.123 226.311 105.096 224.664 100.609C220.809 100.364 221.951 96.4107 220.597 94.3062C219.597 94.1277 218.501 94.0187 217.887 93.5508C216.139 89.1388 212.428 86.1868 210.774 81.7053C210.374 81.414 209.576 81.4197 208.74 81.4516C208.821 79.2569 204.07 75.5777 201.286 74.6494C198.414 70.1472 194.653 66.3083 189.09 63.8111C188.939 61.5694 186.019 61.389 185.701 59.275C175.74 55.0885 168.42 48.9403 159.273 44.1524C157.841 44.2088 157.086 43.7635 155.884 43.6488C154.618 39.8024 148.384 39.6521 145.719 36.8429H142.67C131.361 32.1472 116.988 28.9697 99.9807 29.2816C99.5234 29.0355 99.5411 28.4323 98.9652 28.2745C85.6405 29.0298 72.7983 33.378 62.0351 37.6002C61.79 39.0132 59.9435 39.235 60.0016 40.8754C67.0744 39.7047 72.5205 38.2992 77.2795 35.8358C83.4101 35.6385 87.3709 33.1205 93.5444 34.8267C94.5927 34.3475 95.7673 33.9623 96.9318 33.5659C109.188 33.4663 121.262 35.7625 133.182 37.3465C134.678 38.5059 135.87 39.8832 137.929 40.6236C142.236 41.5368 146.148 42.7431 148.091 45.4114H151.14C167.67 54.8762 186.011 62.9918 196.542 76.9174C206.042 82.703 212.039 91.0949 219.241 98.5923C219.423 99.5675 218.64 99.8212 218.907 100.86C225.058 111.154 236.137 117.779 243.637 127.073C256.631 133.451 262.125 145.413 272.097 154.039C272.891 154.626 274.29 154.759 275.146 155.3C275.909 158.008 278.347 159.472 279.549 161.852C288.029 165.712 290.911 173.732 299.878 177.227C303.642 182.744 308.734 187.276 315.464 190.585C315.537 191.395 314.865 191.65 315.125 192.601C317.472 193.407 318.341 195.839 321.564 194.617C320.97 196.403 324.204 195.343 325.628 195.625C325.671 196.636 326.77 197.81 328 197.137C327.278 194.595 325.398 190.69 320.21 190.081Z" fill="white"/>
<path fill-rule="evenodd" clip-rule="evenodd" d="M268.833 41.5897C269.452 44.3448 271.601 47.4137 273.259 50.1612H275.646C277.051 54.2431 280.644 56.7106 281.437 61.251C285.536 63.8464 289.266 66.7161 292.337 70.0744C291.816 70.875 292.217 71.1813 292.337 72.089C299.73 79.8938 309.21 86.1538 316.862 93.7687C316.788 95.7533 318.429 96.4731 320.608 96.7925C321.677 94.0582 320.298 93.4361 319.587 90.9949C319.135 90.5758 317.657 90.9103 317.205 90.4912C315.44 84.2369 309.363 81.168 303.918 77.6349C297.398 69.4242 288.939 62.9236 282.8 53.9405C283.301 53.6492 283.656 53.6492 284.162 53.9405C275.618 47.1543 270.45 37.8706 261.678 31.2535H261C262.732 35.3504 263.654 40.043 268.833 41.5897Z" fill="white"/>
<path fill-rule="evenodd" clip-rule="evenodd" d="M259.299 41.0959C255.655 40.6513 254.786 38.1099 253.285 36.0413C253.379 34.7639 255.825 35.2688 256.293 34.2722C252.807 33.8785 251.133 32.1132 247.274 31.9983C246.499 32.7104 247.657 33.577 247.274 34.7771C250.214 35.6004 251.945 38.5432 251.28 40.591C252.339 41.2241 254.512 41.0112 254.958 42.1057C255.237 43.1608 254.306 43.3002 254.288 44.1272C263.338 47.98 267.748 56.6858 276 60.2992C272.414 52.6522 264.747 48.093 258.298 42.6106C258.778 42.2188 259.642 42.1152 259.299 41.0959Z" fill="white"/>
<path fill-rule="evenodd" clip-rule="evenodd" d="M290 51.3621C286.95 46.1001 282.972 41.5907 277 37.9564C281.101 42.8109 283.105 48.2558 290 51.3621Z" fill="white"/>
<path fill-rule="evenodd" clip-rule="evenodd" d="M55.7453 52.6276C56.378 52.1769 56.1486 51.0819 57.099 50.8659C65.617 48.9014 74.9214 47.5191 83.81 45.8269C86.7947 47.3106 88.5794 45.0794 92.6002 45.3235C93.8153 45.532 92.1969 46.2739 93.6136 46.3302C97.6041 44.6906 104.668 46.4523 108.494 45.0718C112.588 45.0587 114.932 47.3613 118.973 46.5838C120.078 47.4402 121.92 47.7482 124.386 47.5886C132.473 52.5638 147.903 52.0661 153.126 59.1786C155.932 59.4378 156.438 61.4098 159.884 61.1938C170.593 70.346 184.175 77.3609 194.375 86.8887C194.67 87.8916 194.67 88.1546 194.375 89.1575C198.648 89.0786 199.984 91.1934 201.138 93.4378C206.974 95.3873 208.612 100.464 215 102.006C211.862 93.6763 201.131 88.827 194.034 82.6065C192.482 79.3968 190.77 76.3054 185.584 75.8058C185.688 75.2123 186.757 75.3363 186.598 74.5437C179.519 71.8448 178.587 64.5595 169.69 63.2072C152.957 48.8131 122.523 38.5528 87.5282 42.5514C86.6081 41.9785 85.3855 41.6311 83.4722 41.7964C81.4076 42.6096 79.3153 43.4003 77.3843 44.315C76.3382 44.1722 76.4945 43.1298 75.355 43.0547C70.0965 43.697 65.1481 45.8287 60.1417 45.8269C59.1182 48.0036 54.2883 47.3444 54.3941 50.3626C52.5564 49.7465 50.8952 51.2246 50.0003 52.1262C52.3346 52.5825 53.0883 53.4653 55.7453 52.6276Z" fill="white"/>
<path fill-rule="evenodd" clip-rule="evenodd" d="M288.638 47.2003C288.815 46.072 287.792 45.8352 287.03 45.404C286.868 46.5211 287.352 47.1624 288.638 47.2003Z" fill="white"/>
<path fill-rule="evenodd" clip-rule="evenodd" d="M45.4027 63.1757C47.873 62.2452 50.9786 61.7855 53.1766 60.6515C53.948 61.0886 55.0697 61.26 56.5595 61.1564C60.0507 60.2277 63.6957 59.4139 67.381 58.6284C74.5752 58.7245 82.082 58.1518 88.0032 56.8596C96.0822 56.5506 102.195 58.7716 110.66 57.3663C111.565 57.6997 111.33 58.8827 112.684 58.8827C115.87 58.5644 118.991 58.2027 122.152 57.8711C128.577 61.4917 138.466 62.524 144.468 66.4629H147.848C147.828 67.4047 148.189 68.0603 148.524 68.7365C155.627 68.7347 155.579 74.0751 162.388 74.2936C166.726 77.2021 170.202 80.7529 175.236 83.1377V84.6541C183.602 88.8455 188.788 95.4141 197.55 99.3077C197.265 100.363 198.205 100.502 198.228 101.329C203.892 103.077 205.903 107.551 212.427 108.659C216.959 118.831 228.759 123.572 234.741 132.659C247.861 137.508 251.151 149.705 260.44 157.421C269.204 169.566 280.646 179.713 293.232 189.004C292.952 191.404 295.922 191.376 295.599 193.806C302.614 198.443 312.521 199.813 315.548 207.7C319.11 207.527 320.542 211.673 324 209.216C322.795 208.039 320.512 207.399 321.636 205.176C320.459 203.808 319.012 203.654 317.577 202.9C317.242 201.973 316.451 201.386 316.226 200.374C310.976 196.968 305.629 193.636 299.657 190.773C297.147 186.587 293.903 182.948 288.838 180.666C288.312 177.605 285.355 176.364 282.751 174.855C281.649 171.135 278.992 168.569 274.639 167.275C272.275 158.261 262.048 155.123 258.411 147.062C257.586 146.332 255.852 146.275 255.03 145.546C243.364 130.847 227.96 118.948 213.781 106.131C214.025 105.358 213.433 105.209 213.44 104.614C210.642 102.243 205.43 101.672 204.313 98.0456C203.325 97.6312 203.04 98.5166 201.608 98.0456C196.584 93.5454 189.284 90.7461 186.728 84.3998C185.932 84.0702 184.396 84.2943 183.688 83.895C183.222 83.571 183.353 82.7987 183.35 82.128C175.536 79.5436 171.067 74.4631 165.768 70.0005C159.623 69.9704 157.503 65.4136 153.936 63.9349C152.199 63.2153 149.701 63.3472 147.848 62.4185C145.927 61.4578 145.864 60.9341 143.452 60.1448C136.822 57.9766 131.615 54.6612 122.152 55.345C119.119 53.8211 113.367 54.3316 110.995 52.3122C110.43 52.6475 109.863 52.9809 108.628 52.8189C93.4531 51.2573 75.5709 52.154 61.969 56.6071C51.4928 55.4317 49.5064 60.5988 42.6979 62.1661C42.587 63.43 41.8661 64.2401 42.0224 65.7037C43.8776 65.4061 45.8993 65.2309 47.0941 64.4397C46.474 64.0611 44.8279 64.4492 45.4027 63.1757Z" fill="white"/>
<path fill-rule="evenodd" clip-rule="evenodd" d="M300 64.023V60.7971C296.072 58.6279 293.666 55.3169 290.133 52.8516C289.159 56.1719 293.87 57.2972 293.75 60.7971C296.256 61.5541 297.887 62.9699 300 64.023Z" fill="white"/>
<path fill-rule="evenodd" clip-rule="evenodd" d="M47.1357 74.7017C47.9529 74.5591 46.9768 73.0757 48.1471 73.1938C51.1081 73.5933 53.421 73.2201 55.928 72.6893V70.4275C62.0292 70.8401 66.4759 68.2426 73.8608 68.162C75.1799 67.7025 73.3337 66.4441 75.2127 66.401C76.9304 65.964 75.9971 67.4925 77.2431 67.4062C91.8289 61.4329 103.469 70.9902 119.19 69.1672C124.567 71.459 129.616 73.9946 136.782 74.953C144.016 78.295 150.177 82.436 158.435 85.0166C162.74 89.0244 169.818 90.9749 172.983 95.8323C174.489 96.0292 175.011 95.4984 176.363 95.5809C191.703 107.651 207.277 119.549 222.035 132.056C221.775 133.003 222.448 133.26 222.375 134.069C232.588 141.902 241.973 150.351 249.438 160.229C255.393 162.592 257.706 167.664 265 169.034C261.767 160.957 251.035 158.453 248.424 149.916C233.879 139.757 225.099 124.065 208.165 114.952C209.005 114.652 210.158 114.589 211.209 114.448C208.375 111.43 203.04 111.817 201.736 107.655C198.331 107.756 197.59 105.875 196.659 104.133C190.613 102.43 189.314 97.1901 183.47 95.3296C183.092 94.8551 183.039 94.1425 182.792 93.5686C178.946 92.5727 174.839 91.7663 173.997 88.5368C170.62 88.368 169.803 86.29 168.246 84.7653C167.409 84.3827 165.623 84.7034 164.862 84.2608C164.398 83.9363 164.526 83.1693 164.521 82.5016H161.817C158.685 80.2192 156.67 77.106 150.654 76.9672C147.015 75.1461 144.818 72.2486 139.488 71.6841C138.595 71.0089 138.008 70.1031 137.123 69.4204C135.935 69.2966 134.918 69.0453 133.4 69.1672C130.535 65.7671 122.163 66.4535 118.176 63.886C114.012 65.2607 109.706 62.7213 104.642 63.886C102.024 61.8155 94.7219 61.056 91.1152 62.6276C80.3404 60.7803 69.331 64.7262 58.9723 65.6452C58.4881 66.7948 57.8247 67.8113 56.266 68.162C51.4083 67.2505 45.0523 69.081 43.7484 72.438C43.2591 72.9106 41.5339 72.468 41.0446 72.9425C40.8731 74.9098 38.5199 75.2587 38.0003 76.9672C39.6094 76.7365 41.0698 76.3971 42.737 76.2114C42.4343 73.9852 44.5429 73.8052 47.1357 74.7017Z" fill="white"/>
<path fill-rule="evenodd" clip-rule="evenodd" d="M303.396 64.7678C303.095 65.0277 302.921 65.3659 303.036 65.8841C304.195 66.3589 305.769 66.5755 307 67.0021C306.737 65.6758 305.78 64.7811 303.396 64.7678Z" fill="white"/>
<path fill-rule="evenodd" clip-rule="evenodd" d="M304 67.252C304.684 67.8418 305.233 68.5322 306.415 68.7512C306.637 67.6698 304.942 66.4722 304 67.252Z" fill="white"/>
<path fill-rule="evenodd" clip-rule="evenodd" d="M49.2623 82.898C54.0188 79.1933 63.8042 79.1711 69.57 76.2056C73.3929 77.2643 75.4923 74.4299 78.7095 76.2056C84.2305 73.5171 92.6054 72.4196 98.0003 69.0198C91.9569 65.4481 81.4599 70.4998 75.3232 70.7548C73.3626 73.1993 66.9861 72.414 64.1525 74.223C62.805 74.4687 63.1381 73.482 61.7856 73.7278C53.2769 76.7488 44.6598 79.6922 36.401 82.898C36.03 83.9992 37.221 84.7032 36.401 85.3758C34.0946 85.3407 32.1441 85.5624 32.0003 87.1108C32.6286 87.8905 34.3899 87.8369 36.0628 87.8554C40.0976 85.9338 43.5142 83.5613 49.2623 82.898Z" fill="white"/>
<path fill-rule="evenodd" clip-rule="evenodd" d="M307.37 208.24C307.16 204.023 300.763 204.41 299.57 200.921C296.522 200.584 294.383 199.569 292.788 198.146C287.887 190.109 276.988 186.527 272.787 177.963C271.829 177.754 271.913 178.318 271.091 178.217V176.7C267.474 176.281 266.026 174.249 264.654 172.159C257.263 169.417 251.505 165.459 245.327 161.815C243.058 156.778 237.001 154.554 234.476 149.705C227.743 145.465 222.03 140.465 216.849 135.07C216.604 134.299 217.433 134.329 217.188 133.556C209.971 129.004 205.371 122.505 197.525 118.417C189.652 108.718 178.007 101.826 165.996 95.2047H163.622C153.044 88.7714 141.571 81.6911 128.023 78.3014C127.783 77.3646 128.602 77.2179 128.365 76.283C116.26 74.1668 96.6709 68.1624 87.0003 76.5351C92.4523 78.9127 101.511 76.5407 108.361 77.5433C116.123 78.4951 121.115 81.5067 128.701 82.5902C129.462 83.2016 130.008 83.9728 130.736 84.6086C140.237 87.2967 145.279 93.2973 155.825 95.2047C156.229 96.2957 154.715 96.6193 155.486 97.2231C157 97.6671 158.074 97.7743 159.892 97.4771C162.846 99.6497 166.152 101.565 169.047 103.782C178.879 106.726 183.259 113.726 191.08 118.165C191.161 119.538 191.775 120.513 192.778 121.194C193.837 121.244 195.266 121.022 195.829 121.446C198.519 127.856 206.101 130.622 211.763 134.818C212.226 136.156 213.396 136.968 213.459 138.603C227.333 151.323 241.013 164.186 257.192 175.188C268.602 179.733 273.465 189.151 283.297 194.868V196.128C288.739 199.2 290.157 204.883 298.554 206.222C298.832 207.695 300.97 207.785 300.927 209.501C302.161 209.76 303.205 210.163 304.319 210.511C304.049 211.385 304.822 211.48 304.658 212.275C311.513 216.004 315.246 222.059 323.304 224.892C324.131 224.329 324.813 223.661 325 222.623C318.34 218.409 315.393 211.436 307.37 208.24Z" fill="white"/>
<path fill-rule="evenodd" clip-rule="evenodd" d="M312.823 77.2924C312.748 76.1485 312.25 75.3196 310.807 75.1945C310.726 75.5318 310.363 75.6614 310 75.7932C310.273 76.7897 311.038 77.4198 312.823 77.2924Z" fill="white"/>
<path fill-rule="evenodd" clip-rule="evenodd" d="M37.4153 76.684C35.8253 76.6996 35.0213 77.2984 35.0003 78.4826C36.0773 78.0849 36.4433 77.1621 37.4153 76.684Z" fill="white"/>
<path fill-rule="evenodd" clip-rule="evenodd" d="M300.28 233.007C297.429 229.412 293.166 226.874 288.436 224.68C287.485 216.036 274.95 213.886 271.519 206.257C269.751 205.892 268.739 204.964 268.136 203.734C266.29 203.092 264.418 202.467 263.058 201.461C261.285 198.834 258.777 196.75 255.955 194.9C255.619 191.954 252.864 190.812 251.555 188.592C250.369 188.467 249.355 188.217 247.834 188.339C247.024 185.916 243.278 185.679 243.435 182.535C232.852 177.98 227.461 169.551 219.074 163.357C212.896 156.185 204.392 150.753 199.109 142.915C198.411 142.428 197.225 142.302 196.4 141.907C196.007 140.601 194.173 140.373 194.372 138.625C192.467 138.112 191.196 137.124 189.973 136.102C189.768 135.496 189.486 134.951 189.637 134.082C183.179 128.296 176.012 123.045 167.304 118.941C163.485 113.124 156.712 109.515 151.737 104.556V102.285C143.892 95.933 134.855 89.1503 122.641 86.8907C121.874 84.1795 116.037 85.2538 112.152 84.8737C112.185 84.091 111.741 83.6658 111.476 83.107C96.0347 80.5087 80.2682 78.123 68.1621 84.3657C67.3725 84.2886 66.8957 83.9687 65.7984 84.1155C64.5749 84.8869 63.4876 85.758 61.7344 86.1343C48.198 87.6451 40.4106 93.4457 28.5769 96.2284C28.6021 99.8634 22.9388 99.2594 24.1774 103.799C31.6848 100.9 37.391 96.6611 44.8176 93.7053C53.7124 91.4984 65.2711 89.1127 74.2542 86.1343C79.8545 85.7448 84.9124 83.6564 91.1735 83.8634C98.1385 84.0929 104.082 87.3215 110.462 87.6489C114.599 90.4504 123.032 90.0478 126.026 93.7053C127.212 93.8295 128.226 94.0816 129.745 93.9575C131.457 97.9781 140.569 96.4843 140.572 101.781C142.123 103.148 144.943 103.566 146.326 105.062C146.687 105.717 147.148 106.3 147.002 107.331C155.925 112.117 159.406 120.96 169.673 124.744C173.232 129.66 178.535 133.278 184.223 136.607C185.091 139.491 187.934 140.902 190.313 142.661C193.908 147.214 198.998 150.654 203.168 154.776C210.143 163.877 222.275 169.128 228.546 178.751C230.869 179.877 232.555 181.481 234.638 182.789C234.631 183.382 235.221 183.532 234.974 184.304C246.036 191.698 254.244 201.224 264.413 209.286C265.808 209.254 266.534 209.724 268.136 209.538C270.27 217.621 281.839 218.663 283.02 227.455C287.223 228.697 289.977 231.017 291.819 234.016C301.334 235.756 301.98 244.104 310.766 246.383C311.735 248.354 313.516 249.717 314.49 251.681C316.278 251.752 317.855 251.668 318.889 251.177C319.651 247.666 316.273 247.239 315.504 244.868C308.382 242.441 307.542 235.329 300.28 233.007Z" fill="white"/>
<path fill-rule="evenodd" clip-rule="evenodd" d="M318.863 175.3C320.001 173.893 321.753 175.812 322.573 174.04C319.544 172.892 318.684 172.368 315.49 172.781C315.703 171.11 315.007 170.12 314.819 168.751C314.585 168.253 312.938 168.811 312.795 168.246C312.933 167.051 311.521 167.014 311.445 165.979C301.937 163.68 300.866 155.076 292.227 152.124C284.988 144.604 275.012 139.124 270.316 129.705C261.846 126.627 259.632 118.876 250.422 116.352C250.995 114.244 248.796 114.209 249.072 112.321C248.109 111.871 246.815 111.658 246.038 111.063C239.408 102.249 229.901 95.5799 223.791 86.3772C222.849 86.1086 221.589 85.1808 220.418 85.8719C219.159 88.1614 220.981 90.3193 222.778 91.1626C230.877 102.576 238.651 114.233 252.448 121.391C262.21 131.057 273.054 139.916 280.765 151.115C290.075 154.239 295.648 160.149 301.668 165.727C302.897 165.982 303.978 166.352 305.038 166.734C305.508 170.28 311.109 170.648 310.769 174.04C312.659 175.566 316.374 175.732 317.513 177.82C316.907 178.72 317.284 179.865 317.85 180.588C319.325 180.786 319.931 179.499 320.886 180.085C321.658 180.936 320.826 182.983 321.56 183.864C324.571 182.863 325.511 184.604 327.964 183.612C328.417 179.916 324.473 179.505 323.583 176.812C322.638 175.835 319.481 176.517 318.863 175.3Z" fill="white"/>
<path fill-rule="evenodd" clip-rule="evenodd" d="M98.0003 89.3773C95.4835 86.426 81.8385 84.4214 80.0003 89.3773C84.0464 92.0983 92.7109 90.3552 98.0003 89.3773Z" fill="white"/>
<path fill-rule="evenodd" clip-rule="evenodd" d="M66.0003 92.3241C62.6072 92.3186 59.5871 92.5727 59.0003 94.5304C61.3267 94.7296 64.9779 93.8467 66.0003 92.3241Z" fill="white"/>
<path fill-rule="evenodd" clip-rule="evenodd" d="M303.865 250.226C299.007 241.745 284.961 240.125 281.233 230.802C275.851 229.021 275.695 223.332 269.068 222.478C265.446 216.44 259.948 211.8 254.206 207.343C251.189 201.611 245.975 197.515 239.681 194.226C239.316 193.576 238.857 192.993 239.006 191.957C229.77 185.484 222.247 177.732 214.681 170.012C210.4 168.587 206.649 166.759 205.561 162.951C203.252 161.984 201.723 160.434 200.154 158.913V157.401C193.527 153.183 190.996 145.911 182.589 143.024C176.507 136.72 168.17 132.098 161.642 126.122C161.36 125.495 161.201 124.773 161.304 123.854C157.917 122.265 154.486 120.704 152.182 118.304C151.764 117.544 152.164 117.178 151.847 116.034C146.905 110.611 140.926 106.74 133.267 102.917C124.432 98.5054 118.037 93.8905 106.24 92.324C99.2609 92.4067 93.7476 93.5896 87.6601 94.3418C85.5898 93.6046 83.9124 94.0541 81.5802 94.3418C78.7795 92.9653 74.2208 94.1462 70.7703 93.584C64.3227 96.1679 57.1623 98.2214 51.8505 101.657C44.1838 103.327 35.6155 104.33 29.8958 107.457C28.7019 108.755 26.7903 109.512 25.1658 110.485C24.3699 113.104 19.242 113.774 20.0958 116.79C21.7178 117.245 23.2315 115.658 25.1658 115.528C27.8456 111.983 29.8277 107.912 38.6782 108.971C39.9475 108.572 40.683 107.777 42.0556 107.457C42.1035 108.346 43.5693 108.175 44.4181 108.465C50.4728 106.511 53.8603 102.569 63.0004 102.917C64.4864 102.011 65.5064 100.755 68.4053 100.899C71.9717 95.4062 87.2294 98.6446 95.0926 96.3578C96.2864 96.3935 96.6037 97.0818 97.7975 97.1157C109.771 95.3423 121.067 100.345 126.512 105.945C139.093 111.431 149.338 118.663 155.562 128.897C156.867 128.935 157.123 129.751 158.602 129.653C166.891 137.172 178.202 142.432 184.277 151.6C186.251 152.399 187.395 153.813 189.684 154.375C196.991 162.035 203.375 170.386 213.666 175.814C222.766 188.105 237.666 196.067 246.773 208.353C253.241 212.184 255.153 219.418 262.653 222.478C262.563 223.386 263.278 223.695 263.326 224.496C265.399 225.305 267.023 226.446 268.733 227.524C268.69 228.648 269.567 229.088 269.746 230.047C270.572 230.724 271.38 230.108 272.448 230.802C273.813 233.397 277.883 233.974 278.193 237.359C286.469 244.298 298.03 248.782 303.528 257.791C303.812 258.335 305.684 257.697 305.893 258.295C304.616 259.358 303.465 260.971 305.215 262.333C310.608 261.254 311.308 265.015 314 265.109C312.887 260.105 310.439 254.907 306.908 250.982C306.029 250.627 304.671 250.632 303.865 250.226Z" fill="white"/>
<path fill-rule="evenodd" clip-rule="evenodd" d="M53.0003 96.5883C47.7156 94.6598 43.1527 98.3631 40.0003 100.316C45.8792 101.175 50.6997 99.1504 53.0003 96.5883Z" fill="white"/>
<path fill-rule="evenodd" clip-rule="evenodd" d="M322.816 99.7716C322.942 98.6628 322.174 98.0451 321.211 97.5373C321.106 97.852 320.326 97.792 320.002 97.9852C319.951 99.1306 321.001 99.665 322.816 99.7716Z" fill="white"/>
<path fill-rule="evenodd" clip-rule="evenodd" d="M87.7043 103.121C103.274 104.978 118.458 107.163 131 112.433C126.054 104.889 110.492 103.164 97.5936 100.794C91.7657 100.966 71.1305 99.1993 71.0009 102.863C70.8891 106.079 85.4702 104.263 87.7043 103.121Z" fill="white"/>
<path fill-rule="evenodd" clip-rule="evenodd" d="M303.409 220.551C302.013 217.804 300.325 215.272 296.31 214.486C294.017 211.143 291.146 208.236 285.829 207.156C284.715 204.788 281.86 203.725 281.096 201.091C269.214 192.706 261.83 180.956 247.296 174.553C247.19 170.754 242.034 170.739 241.55 167.225C229.408 161.056 220.356 152.573 213.156 142.709C209.958 141.322 205.628 139.966 206.397 136.393C202.864 133.895 199.688 131.128 195.578 129.061C192.72 122.774 183.156 121.5 181.042 114.656C177.889 113.307 174.951 111.8 173.267 109.348C165.173 108.404 163.156 101.583 155.352 101.261C155.334 101.583 154.921 101.612 155.014 102.02C157.398 107.905 166.498 108.766 168.875 114.656C179.222 118.964 185.757 126.13 192.876 132.854C193.648 133.116 194.913 133.015 195.578 133.358C195.339 134.296 196.155 134.443 195.918 135.379C209.499 147.128 220.986 160.446 236.817 170.509C236.727 171.419 237.442 171.727 237.495 172.531C241.381 174.261 244.027 176.914 246.28 179.861C252.482 181.968 254.156 187.453 260.141 189.717C266.207 197.818 274.96 203.913 282.79 210.695C287.593 211.737 290.776 213.99 292.253 217.518C298.271 219.76 299.773 225.377 306.111 227.374C306.501 227.672 306.496 228.269 306.449 228.891C313.25 231.305 314.752 237.681 319.972 241.276C320.662 241.033 321.31 240.758 322 240.515C319.83 237.892 320.047 235.599 319.636 232.684C314.808 228.202 310.246 223.525 303.409 220.551Z" fill="white"/>
<path fill-rule="evenodd" clip-rule="evenodd" d="M69.6113 102.751H68.0003V103.948C69.2603 104.089 69.7943 103.689 69.6113 102.751Z" fill="white"/>
<path fill-rule="evenodd" clip-rule="evenodd" d="M288.756 254.352C288.716 249.49 282.456 249.287 279.629 246.512C277.85 243.712 275.402 241.418 272.535 239.433C272.432 236.477 268.701 236.234 268.141 233.618C261.702 231.103 258.571 226.113 254.966 221.481C247.983 215.579 240.747 209.867 235.366 202.772C230.766 201.071 230.56 196.083 226.917 193.668C225.826 193.306 224.614 193.031 223.204 192.91C219.752 187.229 213.422 183.707 210.026 177.992C203.584 175.477 202.178 169.196 195.832 166.613C194.117 162.839 191.701 159.589 186.033 158.775C183.418 155.759 180.73 152.795 176.233 151.189C175.931 148.552 172.568 148.199 172.18 145.626C171.389 145.038 169.492 145.276 168.801 144.616C167.431 139.667 156.943 139.381 158.326 133.995C155.795 131.495 149.156 131.629 149.539 127.674C141.261 125.863 139.447 119.21 131.293 117.308C128.35 112.29 119.223 109.822 111.358 110.733C97.8804 106.256 77.311 107.11 62.6996 107.698C58.2809 108.774 54.6255 110.424 49.1815 110.733C43.9516 115.103 29.3679 116.778 25.5311 121.101C22.2385 121.418 21.12 123.363 18.0969 123.882C16.8826 127.848 13.6706 130.204 11.0003 133.743C16.923 132.611 18.9358 128.559 22.4904 125.652C33.2122 121.793 46.0375 119.504 54.5902 114.021C58.0995 114.09 61.3619 112.092 66.4154 112.503C72.6253 110.026 81.959 110.948 89.3932 111.745C92.8621 110.26 100.485 110.835 102.911 112.503C115.424 114.854 125.786 118.818 134.674 123.882C143.309 131.324 151.016 139.464 162.717 144.616C165.237 148.377 170.605 150.005 172.515 154.224C189.895 164.483 200.919 179.494 216.105 191.393C216.309 191.998 216.593 192.545 216.445 193.416C219.322 194.718 221.629 196.447 224.216 197.964C228.275 206.728 238.49 210.885 242.126 219.966C250.265 226.007 256.558 233.438 264.766 239.433C269.983 244.544 273.341 251.051 282.332 253.341C282.357 255.43 284.871 255.658 284.363 258.143C294.651 260.897 296.53 269.942 307 272.556C305.763 265.646 297.012 264.352 295.848 257.385C292.973 256.212 290.741 256.12 288.756 254.352Z" fill="white"/>
<path fill-rule="evenodd" clip-rule="evenodd" d="M37.0003 112.857C35.3973 110.284 31.0003 112.403 31.0003 114.922C33.3047 116.177 36.699 114.851 37.0003 112.857Z" fill="white"/>
<path fill-rule="evenodd" clip-rule="evenodd" d="M132 112.496C132.219 113.556 134.147 115.465 137 115.41C136.647 113.61 134.272 112.1 132 112.496Z" fill="white"/>
<path fill-rule="evenodd" clip-rule="evenodd" d="M133.226 125.867C130.858 126.201 130.507 125.037 128.826 124.858C123.259 119.176 111.772 117.896 101.407 115.789C100.299 115.52 100.319 114.412 99.3748 114.025C82.9869 113.429 69.5269 115.543 58.0758 117.301C47.7681 123.068 32.0062 124.774 22.1881 130.907C20.2043 135.064 11.4084 135.474 12.0318 140.734C21.9408 135.678 32.2535 130.922 43.1746 126.622C46.9302 127.148 47.0286 124.952 50.9634 125.613C54.1183 123.237 59.9637 121.593 65.5189 121.836C72.7095 118.854 84.3171 117.874 94.9756 118.308C96.4218 118.657 96.6212 119.936 98.022 120.325C104.556 120.573 115.619 121.616 119.008 125.867C127.438 126.814 130.987 131.394 140 131.914C140.055 128.174 134.175 128.856 133.226 125.867Z" fill="white"/>
<path fill-rule="evenodd" clip-rule="evenodd" d="M139.111 116.901C138.523 117.82 140.389 118.926 142 119.135C141.79 117.874 140.955 117.042 139.111 116.901Z" fill="white"/>
<path fill-rule="evenodd" clip-rule="evenodd" d="M195.575 177.814C193.605 174.92 191.423 172.18 187.466 170.767C185.343 167.564 181.076 165.959 178.005 163.467C176.051 158.03 166.683 156.814 166.857 150.626C162.57 150.213 161.393 147.483 156.721 147.355C153.073 142.355 146.056 139.861 141.179 135.777C132.32 133.401 124.29 130.402 117.194 126.715C107.983 126 98.6955 121.97 89.489 123.695C81.5595 119.151 74.4965 125.979 63.8088 124.701C53.358 130.508 34.6502 130.16 28.0003 138.797C37.8517 135.901 48.5519 133.638 58.4033 130.742C68.2622 128.747 79.0104 127.634 89.489 126.715C115.862 127.912 134.104 140.244 153.005 149.369C153.864 152.503 156.315 154.455 160.774 154.907C170.101 165.328 185.192 171.454 192.197 183.604C195.184 185.237 198.607 186.547 199.627 189.645C200.587 190.022 201.852 190.171 203.005 190.402C207.585 198.956 217.005 204.956 223.617 212.05C226.675 215.332 227.96 219.384 232.741 221.614C237.333 230.611 247.94 235.124 252.673 244.018C254.481 245.105 255.942 246.448 258.078 247.291C258.829 249.207 258.136 250.07 258.416 251.568C259.64 252.133 259.983 252.377 261.796 252.073C265.889 258.673 275.723 260.993 279.698 267.68C280.975 268.577 282.345 269.399 284.431 269.694C283.151 272.133 287.439 273.239 289.159 273.47C290.076 277.936 297.267 279.148 302 279.259C301.998 276.827 299.144 276.519 298.62 274.477C297.459 274.586 296.726 274.376 295.917 274.226C286.187 266.289 278.416 256.89 266.864 250.311C263.607 243.654 255.887 239.05 252.335 233.446C250.935 233.48 249.723 233.377 248.955 232.941C247.93 231.994 249.343 231.181 249.295 230.173C243.806 228.304 244.106 222.124 237.806 220.859C237.217 218.13 233.194 213.769 229.36 211.798C230.547 208.653 223.952 207.388 223.955 203.49C223.23 202.942 221.874 202.859 220.912 202.484C218.751 199.815 215.771 197.755 213.144 195.435C212.305 190.983 204.577 190.458 205.373 185.618C199.658 184.841 202.33 177.818 195.575 177.814Z" fill="white"/>
<path fill-rule="evenodd" clip-rule="evenodd" d="M285.496 280.038C280.074 271.283 266.29 268.779 262.832 258.553C254.627 256.343 254.004 248.468 246.932 245.411C241.928 237.102 234.162 230.853 226.971 224.178C223.233 214.754 211.578 211.245 208.027 201.681C206.566 201.593 205.57 201.161 204.982 200.419C198.336 189.796 186.28 183.217 177.238 174.385C177.074 173.591 178.408 173.717 177.581 173.12C173.886 170.318 168.915 168.469 166.077 165.032C164.844 165.109 163.875 164.99 163.03 164.777C160.062 157.147 148.575 153.898 143.072 147.338C136.446 147.712 136.834 140.728 128.526 141.525C127.066 140.846 126.256 139.68 125.141 138.743C113.201 136.844 101.357 128.348 88.6021 131.918C85.9816 129.816 80.5916 132.602 76.7629 131.16C73.2343 132.402 68.5732 132.792 63.2312 132.677C59.3621 135.935 50.0248 135.11 44.2868 136.974C41.9437 139.691 35.4338 139.292 31.0931 140.513C29.9783 140.503 29.4082 140.085 28.0513 140.26C19.3219 142.333 13.1652 146.328 9.10187 151.888C10.6329 153.033 8.52933 153.535 9.10187 154.417C15.1602 151.859 20.4241 146.532 27.0323 143.547C28.1421 143.56 28.3262 144.265 29.7412 144.052C39.3533 140.14 51.9821 141.063 61.8793 137.986C62.8276 138.289 64.2148 138.263 65.597 138.238C66.3385 137.19 67.6652 136.58 69.3223 136.216C70.0109 136.459 70.6616 136.732 71.3502 136.974C81.7846 133.152 96.1814 136.141 106.197 137.481C111.617 140.592 119.073 142.182 126.158 144.052C131.485 148.073 137.087 151.893 144.424 154.417C148.212 159 153.615 162.377 159.312 165.537C159.345 169.449 164.508 170.666 165.061 173.373C166.438 173.944 168.067 174.328 169.121 175.142C169.941 176.216 170.388 177.567 171.49 178.429C173.207 178.913 174.665 179.595 175.888 180.451C197.284 199.428 216.385 220.125 236.444 240.102C240.011 248.415 252.13 251.605 253.696 260.577C257.959 262.533 259.934 266.195 263.846 268.413C265.735 273.23 271.972 276.547 277.715 279.281C280.379 283.61 286.256 285.541 290.909 288.381C290.876 289.165 291.325 289.587 291.588 290.151C293.373 290.752 294.639 291.745 297 291.92C293.346 287.825 291.89 282.087 285.496 280.038Z" fill="white"/>
<path fill-rule="evenodd" clip-rule="evenodd" d="M267.001 280.158C263.938 274.945 258.823 271.267 253.462 267.771C248.307 256.538 236.511 250.267 228.419 241.23C225.773 236.801 223.315 232.237 217.59 230.107C217.025 226.82 212.945 226.161 213.19 222.271C204.818 216.052 198.517 208.287 192.207 200.53C188.768 198.887 186.638 196.263 184.761 193.454C177.57 189.136 172.476 183.252 165.134 179.046C165.381 177.191 161.823 176.183 162.426 173.989C161.086 173.471 159.479 173.158 158.702 172.222C158.707 171.801 159.641 172.078 159.716 171.715C151.307 163.422 139.016 158.023 130.274 149.976C124.014 146.478 114.958 145.068 107.939 142.142C106.536 141.851 106.619 142.671 105.569 142.645C104.26 140.811 101.121 139.386 97.4474 140.118C95.0352 137.926 86.2219 138.167 82.8938 139.612C72.564 139.057 61.0862 143.12 50.0676 144.921C48.9044 144.693 48.5966 143.828 47.0221 143.909C33.8891 146.827 23.1455 150.903 14.1933 157.307C12.2581 162.39 3.35387 164.825 4.03764 170.198C17.2489 164.137 25.656 152.303 43.9741 149.216C45.044 148.751 45.7555 148.022 46.3434 147.194C52.5806 147.865 59.5269 148.457 63.6043 145.932C70.7549 146.461 76.1948 143.546 83.2319 143.15C85.2908 144.465 87.9805 143.563 90.6777 143.657C100.407 143.988 115.917 148.843 121.137 152.503C124.516 154.872 129.708 156.123 133.66 158.317C137.187 160.277 138.989 163.843 142.12 165.648C149.795 170.077 156.239 175.463 161.071 182.078C162.489 181.944 162.964 182.519 164.117 182.583C165.285 184.406 167.233 185.651 169.531 186.629C170.722 190.206 174.661 191.729 177.656 193.959C181.895 198.457 185.77 203.235 191.869 206.344C198.611 218.247 210.788 226.087 217.59 237.943C219.492 238.292 221.418 238.622 222.328 239.713C223.754 246.482 229.638 249.924 232.82 255.383C236.562 255.283 237.949 256.946 238.234 259.429C241.671 260 241.855 263.564 245.678 264.484C244.61 269.056 249.616 271.101 253.124 273.08C254.294 276.587 257.186 278.811 261.924 279.651C262.318 282.755 264.561 283.582 265.308 285.972C266.645 286.298 265.999 285.139 267.336 285.465C269.032 286.562 271.053 287.408 273.768 287.74C275.36 291.351 279.551 293.028 281.89 296.083C285.084 296.224 285.337 298.565 287.645 299.368C287.988 298.256 288.218 296.492 289 295.578C280.714 291.147 277.987 282.565 267.001 280.158Z" fill="white"/>
<path fill-rule="evenodd" clip-rule="evenodd" d="M285 306.791C283.457 303.651 278.745 302.872 278.225 298.972C274.949 295.611 267.282 295.515 266.03 290.646C261.08 287.523 258.588 282.569 253.161 279.801C253.368 279.197 253.646 278.652 253.497 277.783C241.574 272.202 238.779 259.82 226.74 254.325C226.501 253.39 227.319 253.24 227.079 252.305C220.712 247.965 217.079 241.595 213.189 235.408C206.058 232.728 205.505 225.153 199.3 221.785C199.452 220.918 199.171 220.371 198.964 219.769C197.911 219.628 196.757 219.562 195.916 219.265C193.663 213.326 187.34 209.231 184.736 204.382C178.221 197.883 170.387 192.366 162.72 186.724C162.253 186.4 162.385 185.627 162.382 184.958C152.152 177.864 144.086 169.155 133.931 162.005H130.542C125.239 158.216 121.128 153.543 112.59 152.166C108.226 149.447 102.991 147.375 94.637 147.627C89.6595 145.219 82.7451 148.198 77.0252 148.384C66.3404 148.847 55.4107 151.284 45.1831 152.924C43.7663 153.718 42.7587 154.82 41.1198 155.446C39.7712 155.696 40.0995 154.692 38.7459 154.942C33.8038 158.241 28.1849 161.031 22.4903 163.769C16.7552 169.003 10.457 173.814 3.51985 178.148V179.914C2.83043 179.773 2.85568 179.154 2.16626 179.66C2.40617 181.374 1.45664 182.404 2.50466 183.446C5.49972 183.743 6.83058 180.841 9.95696 180.418C10.7221 178.128 13.4142 177.276 15.7148 176.131C21.5407 168.445 33.0664 165.003 41.7966 159.484C48.2084 156.606 55.7567 154.575 66.1864 154.69C73.2851 151.711 84.9118 152.018 94.637 151.662C103.902 153.001 111.206 155.805 118.347 158.726C125.567 165.037 135.772 169.123 143.752 174.869C155.058 187.805 170.377 197.753 182.365 210.182C190.711 223.053 202.108 233.654 212.513 244.992V246.757C221.728 254.524 228.455 264.143 238.935 270.972C239.382 277.029 247.476 277.392 248.08 283.333C249.938 284.724 251.173 286.579 254.514 286.865C255.136 290.099 258.686 291.158 261.287 292.916C260.878 295.158 262.547 295.844 263.659 296.954C270.974 297.193 271.81 303.425 278.225 303.511C278.939 305.232 282.245 307.026 284.662 308.305C284.854 307.859 284.253 306.823 285 306.791Z" fill="white"/>
<path fill-rule="evenodd" clip-rule="evenodd" d="M84.263 156.027C83.2199 156.052 82.6518 155.721 81.9028 155.525C74.7468 157.46 65.0923 157.12 57.969 159.534C55.4177 158.41 53.2033 160.468 50.2147 160.537C48.3095 164.3 42.5585 165.202 37.4008 166.547C29.82 170.515 21.7541 174.123 16.8351 180.072C15.6261 179.925 15.2038 180.364 14.4749 180.575C10.5739 185.553 3.07356 188.808 2.00028 195.101C11.1571 192.033 14.2889 183.215 23.9157 181.325C24.6094 179.667 25.17 177.915 27.2889 177.318C28.4702 177.441 29.4807 177.689 30.9963 177.57C41.5255 170.941 52.0094 162.963 68.7545 161.788C78.0344 159.639 87.5909 159.996 98.761 159.282C106.734 159.76 112.281 165.861 120 164.042C112.872 158.702 97.8234 152.22 84.263 156.027Z" fill="white"/>
<path fill-rule="evenodd" clip-rule="evenodd" d="M7.13578 155.615C7.74008 155.617 7.52199 156.277 8.3512 156.101C8.35575 155.617 9.18496 155.793 8.96232 155.127C7.63104 154.742 6.81545 155.107 5.00254 154.884C4.95937 155.905 5.55686 156.244 5.00254 157.073C7.24255 157.394 6.22932 155.9 7.13578 155.615Z" fill="white"/>
<path fill-rule="evenodd" clip-rule="evenodd" d="M63.0642 172.117C68.3377 167.879 81.5835 170.425 89.1889 167.566C92.6262 167.587 95.4261 168.369 98.6863 167.82C103.737 168.776 106.949 171.099 111.917 172.117C120.236 172.07 126.005 173.923 129.561 177.426C141.021 179.763 142.283 191.016 155 191.581C153.516 184.597 144.256 183.409 141.431 177.426C134.157 173.24 127.373 168.691 115.309 168.073C102.523 160.895 83.7004 164.814 66.1196 165.544C64.559 166.739 62.5938 167.638 60.3528 168.325C59.1742 168.529 59.0477 167.948 57.9779 168.073C52.5147 169.481 48.6601 172.083 43.3891 173.634C40.5487 176.825 36.2642 178.943 31.1753 180.458C28.9521 181.919 28.1174 184.412 24.0504 184.504C22.7782 185.914 23.064 188.486 19.9833 188.547C18.6378 188.535 20.0364 186.481 18.2862 186.779C15.8429 187.78 17.2821 188.686 17.9473 190.318C16.3994 193.797 10.8097 194.266 9.46413 197.9C8.29308 198.105 8.03257 197.427 7.4306 197.9C6.84129 201.937 2.39738 204.419 2.00028 207.758C5.31614 207.869 5.56654 205.696 7.08915 204.471C16.364 201.861 18.2483 193.746 27.4446 191.074C28.2717 190.009 26.7491 189.713 27.1057 188.294C41.8184 184.934 48.5058 175.592 63.0642 172.117Z" fill="white"/>
<path fill-rule="evenodd" clip-rule="evenodd" d="M276.636 316.967C273.81 316.213 270.208 316.042 269.193 313.941C259.957 313.174 257.326 307.488 249.903 305.372C249.567 304.781 249.31 304.131 249.229 303.353C235.876 301.79 228.128 296.048 221.815 289.239C221.727 288.249 223.044 288.3 222.832 287.221C222.04 286.55 220.473 286.456 219.108 286.216C216.681 282.391 212.392 279.957 210.311 275.877C207.856 275.184 206.589 273.609 205.913 271.593C202.401 268.915 199.841 265.53 197.449 262.016C196.495 255.5 189.307 253.63 190.009 245.88C190.453 244.701 191.656 244.085 191.697 242.604C190.723 240.894 189.075 239.685 185.947 239.578C185.341 238.936 184.988 238.109 184.256 237.564V235.547C182.157 232.655 180.094 229.738 175.118 228.992C165.7 219.201 156.625 209.16 147.031 199.5C139.83 195.706 134.038 190.863 126.047 187.655C122.573 183.606 115.726 182.069 113.191 177.316C106.331 175.452 100.415 172.887 93.2242 171.269C88.9755 172.556 82.865 172.456 77.3196 172.782C76.1238 173.233 75.0111 173.748 73.5983 174.041C62.727 175.437 55.5316 179.573 47.8821 183.368C39.6599 184.219 38.6759 190.46 30.9608 191.686C25.4003 196.955 18.7549 201.415 14.0395 207.314C12.8285 207.166 12.4047 207.607 11.673 207.82C11.6226 210.975 8.25195 211.659 6.59691 213.617C8.83979 215.14 5.00494 215.469 6.25883 217.397C11.3047 216.87 11.7714 212.937 14.3776 210.592H16.7466C21.2324 206.453 27.5523 203.687 29.9466 197.987C33.9177 195.736 37.7021 193.349 41.4512 190.93C43.2046 190.893 44.1759 190.271 45.5131 189.923C48.755 184.437 59.2403 184.353 63.7841 179.838C72.7304 177.093 83.2182 178.598 91.5338 175.554C95.7925 176.078 97.9496 178.168 102.703 178.327C103.631 179.147 105.304 179.414 106.084 180.342C108.493 180.483 110.055 181.252 111.838 181.855C121.723 191.718 138.682 196.309 146.69 207.568C147.954 208.391 149.415 209.066 150.752 209.836C158.079 219.503 168.301 227.013 175.118 237.058C175.959 237.776 177.659 237.857 178.166 238.823C184.057 251.741 193.087 262.326 200.497 274.115C206.37 279.822 209.65 287.462 217.418 291.76C219.716 294.667 222.305 297.36 226.553 298.816C229.001 303.379 235.543 304.896 242.12 306.379C248.349 310.158 255.08 312.481 262.084 315.958C263.176 316.012 263.519 315.512 264.793 315.706C266.68 315.98 266.779 317.587 268.174 318.226C270.054 317.363 274.759 318.615 276.977 318.732C277.143 317.937 276.369 317.841 276.636 316.967Z" fill="white"/>
<path fill-rule="evenodd" clip-rule="evenodd" d="M269.839 307.216C268.202 305.489 266.245 304.004 264.76 302.166C259.663 301.753 257.635 299.057 254.256 297.367C253.776 297.03 253.776 295.936 254.256 295.599C250.634 293.539 245.899 291.113 245.788 287.262C244.752 286.52 242.545 286.648 242.062 285.494C240.903 278.78 232.202 277.694 231.561 270.592C223.12 265.856 218.895 257.975 211.573 252.407C208.179 243.654 197.476 240.356 194.296 231.441C183.706 225.613 183.279 212.211 172.616 206.435C172.876 205.482 172.204 205.228 172.278 204.414C166.32 201.531 161.751 197.612 156.356 194.309C137.922 193.068 135.677 179.756 119.768 176.63C118.808 175.37 116.608 173.82 114.353 174.357C114.088 174.414 113.954 174.568 114.015 174.862C120.094 181.692 129.115 186.332 138.743 190.524C139.753 194.145 144.867 194.708 147.547 197.089C162.195 197.113 165.11 205.887 171.603 211.992C174.131 217.263 180.352 219.779 180.749 226.643C183.918 231.432 188.558 235.131 192.604 239.272V241.545C199.592 247.109 206.568 252.689 210.897 260.237C221.875 268.719 229.619 279.618 240.706 288.019C240.176 288.046 239.532 287.987 239.688 288.526C242.757 292.891 248.384 295.349 250.528 300.397C261.605 302.919 266.346 311.504 277.971 312.774C278.471 309.489 272.367 309.075 269.839 307.216Z" fill="white"/>
<path fill-rule="evenodd" clip-rule="evenodd" d="M236.173 309.256C230.768 309.006 228.945 306.074 224.014 305.468C224.709 304.159 223.893 303.443 223.002 302.69C221.161 302.289 220.365 303.568 219.285 302.941C220.113 301.579 220.506 300.6 219.285 299.408C218.084 299.771 217.693 300.743 215.905 300.668C214.263 294.994 208.423 292.454 207.124 286.526C202.178 285.594 201.979 281.112 198.678 278.947C198.912 278.382 199.695 277.681 199.02 277.18C191.74 271.509 187.74 263.387 181.452 256.975C180.964 256.16 181.135 254.855 181.117 253.691C175.496 245.937 169.583 238.405 164.562 230.2C152.96 223.387 149.505 210.481 137.54 203.934C137.825 203.64 137.989 203.256 137.88 202.672C136.248 202.544 134.899 202.205 133.488 201.915C124.108 195.036 115.336 187.705 100.725 184.738C99.3701 183.9 97.9497 183.111 96.6704 182.213C75.164 179.957 54.8965 185.233 44.652 195.094C26.0492 203.747 15.1272 218.145 2.09238 230.959V232.98C0.165866 233.273 -0.511562 235.678 0.402589 237.273C4.26569 236.375 3.92824 232.332 7.83415 231.466C8.35796 229.245 10.0629 227.91 10.8738 225.909C16.1698 224.142 18.8241 220.405 21.6824 216.815C29.4086 213.757 33.6142 208.055 38.5703 202.924C51.8468 194.916 64.5241 186.464 86.5367 184.992C88.773 185.385 90.8204 185.628 93.2934 185.244C94.5097 185.596 95.1871 186.355 95.9955 187.012C99.7629 187.139 101.213 189.001 104.777 189.285C120.501 199.164 140.993 205.479 147.674 222.118C153.927 228.221 160.384 234.168 164.562 241.82C165.456 242.416 166.433 242.95 167.601 243.334C173.499 252.48 178.43 262.349 186.519 269.855C193.53 279.346 199.748 289.43 207.799 298.144C207.205 302.054 212.81 303.477 214.216 306.729C221.229 306.541 221.154 311.648 228.404 311.277C230.361 314.531 234.747 315.966 240.565 316.329C244.34 322.85 256.458 323.136 264.884 326.179C265.111 325.074 266.36 324.756 265.899 323.652C255.274 319.387 243.904 315.685 236.173 309.256Z" fill="white"/>
<path fill-rule="evenodd" clip-rule="evenodd" d="M11.0598 255.287C13.0568 249.973 16.4885 245.724 18.1627 240.166C21.0095 238.563 23.125 235.447 22.8955 232.352C25.2858 230.351 28.014 228.603 28.6469 225.294C40.0338 218.611 42.9864 206.231 58.4051 202.61C61.1863 199.059 67.2655 196.883 74.3028 197.317C77.0664 196.685 78.4809 195.052 81.0679 194.291C89.255 193.913 92.9843 197.86 101.698 197.317C106.988 200.43 112.909 203.076 119.956 204.878C125.123 208.924 130.347 212.931 135.854 216.725C137.168 218.521 138.09 220.603 139.576 222.27C141.457 222.979 143.678 224.02 146 223.028C143.449 213.921 132.74 210.896 126.386 204.625C123.408 204.409 121.804 203.168 119.283 202.61C112.18 197.211 105.231 195.684 94.2576 193.032C89.2122 191.813 85.6015 190.151 80.7275 190.764C69.9357 192.115 59.5725 193.904 54.6885 199.333C46.8644 202.576 40.6415 207.013 35.4095 212.187C34.9228 212.831 35.0892 213.964 34.3958 214.457C33.5587 215.174 31.7483 215.173 30.6742 215.716C19.9706 226.711 12.5248 242.019 7.00028 255.287C8.07442 255.552 10.0739 255.374 11.0598 255.287Z" fill="white"/>
<path fill-rule="evenodd" clip-rule="evenodd" d="M238.055 326.119C238.249 322.587 235.272 319.947 231.638 320.813C229.121 319.243 227.368 317.101 224.543 315.76H221.84C217.755 312.417 213.234 309.398 206.975 307.679C205.149 306.012 205.217 302.929 202.92 301.615C203.466 294.978 196.198 294.179 195.49 288.48C193.465 286.964 192.389 284.732 190.757 282.921C187.914 277.642 185.947 271.702 179.95 268.777C178.338 270.794 180.3 273.683 180.625 275.851C183.577 279.452 185.813 283.591 188.057 287.721C191.347 291.126 198.157 295.757 196.84 300.098C191.337 295.624 183.428 292.951 182.652 284.943C181.814 284.559 180.642 284.424 180.285 283.68C179.315 279.397 177.424 275.63 176.232 271.555C180.6 265.102 171.545 260.582 167.787 256.904C167.427 249.595 162.76 245.505 157.99 241.493C153.637 233.127 146.744 226.662 137.047 222.296C134.506 218.637 131.675 215.2 125.559 214.213C121.64 210.996 117.17 208.192 110.697 206.887C109.261 206.358 109.009 204.947 106.639 205.118C106.685 204.495 106.692 203.902 106.302 203.602C102.159 202.828 98.174 201.934 95.4917 200.067C82.9588 196.811 68.5672 200.408 61.3714 205.623C47.8664 209.418 43.1716 219.801 34.3463 227.095C34.5251 228.072 33.7443 228.329 34.0088 229.368C22.5942 237.048 17.2169 249.97 13.7361 262.21C10.1697 267.172 8.90281 272.849 9.00607 280.145C9.85486 280.478 10.0639 279.145 10.3611 279.89C12.0486 279.779 9.61559 279.357 10.0236 278.629C10.8825 278.429 11.6607 278.171 12.0511 277.619C13.8016 262.085 24.6016 251.977 28.9412 239.22C33.8979 235.099 38.3459 230.592 41.4413 225.074C50.0904 218.07 60.4622 212.354 69.479 205.623C74.816 203.16 81.9438 200.817 89.7517 202.34C124.461 213.938 150.33 232.15 164.07 259.43C171.2 273.127 177.529 287.427 182.99 302.374C186.045 305.037 187.659 309.666 191.772 312.225C196.235 319.834 208.657 323.683 215.757 330.16C217.228 330.156 218.798 330.077 219.813 330.413C219.523 331.205 218.533 331.479 218.46 332.433C219.475 332.938 221.16 332.942 220.825 334.454C223.412 334.121 224.001 335.279 225.555 335.718C226.507 335.249 227.663 334.936 228.933 334.708C228.378 340.775 242.332 344.05 247.853 344.054C248.674 343.577 249.397 343.018 249.205 341.78C243.76 341.176 241.632 340.097 236.365 339.002C233.177 336.965 236.307 333.138 233.323 331.17C230.819 331.983 228.786 329.736 225.895 330.665C225.661 329.648 226.217 329.224 226.233 328.394C220.596 326.879 217.105 323.764 211.365 322.329C206.464 316.773 196.623 313.713 194.812 306.666C193.835 305.715 192.541 304.999 191.772 303.888C188.085 304.814 182.675 298.255 185.355 296.059C192.702 301.172 200.336 306.072 205.285 312.982C209.74 315.713 215.342 317.587 219.135 320.813C220.891 321.148 221.231 319.533 222.515 320.31C222.366 321.222 221.649 321.529 222.178 322.329C223.538 323.269 226.263 323.29 227.585 322.329C232.217 325.712 239.085 329.156 245.825 328.139C245.478 328.721 243.563 328.132 243.798 329.151C251.291 329.367 252.764 334.27 259 334.2C257.484 332.978 257.074 330.929 256.298 329.151C249.842 328.448 244.926 322.665 238.055 326.119Z" fill="white"/>
<path fill-rule="evenodd" clip-rule="evenodd" d="M179.622 228.615C181.794 223.753 174.004 220.253 171.538 216.396C169.843 213.519 168.382 210.463 166.149 207.995C165.207 207.517 163.954 207.28 162.781 206.976C160.981 203.753 158.181 201.288 154.358 199.593C152.992 199.494 152.013 199.686 152 200.612C153.515 205.407 159.278 206.991 161.096 211.56C168.382 216.404 170.926 224.833 179.622 228.615Z" fill="white"/>
<path fill-rule="evenodd" clip-rule="evenodd" d="M51.221 229.698C58.152 225.46 61.0607 218.241 69.8476 215.378C73.8673 209.483 86.0276 209.627 95.9254 208.095C96.4052 207.14 94.471 206.061 93.2161 205.58C86.1891 205.31 80.6292 206.127 75.2636 207.088C69.0447 211.515 60.7148 214.383 55.9603 219.901C52.8142 220.515 50.6958 222.888 50.5443 224.926C46.4564 227.421 43.3002 230.611 42.0781 235.226C41.265 235.379 40.5303 235.587 39.3663 235.477C29.2942 244.356 23.454 257.357 18.0304 268.889C18.0304 273.609 16.1316 278.559 16.0003 283.962C16.9345 284.022 17.033 284.704 17.3537 285.217C21.7092 284.738 22.1056 279.748 20.4038 276.929C23.8302 270.17 27.4384 262.226 29.5467 255.323C35.2228 249.569 36.2934 240.397 45.8024 237.486C45.9438 236.589 46.7038 236.145 46.4816 234.976C47.7567 234.415 48.4662 233.435 50.2059 233.216C50.4559 231.978 50.9129 230.893 51.221 229.698Z" fill="white"/>
<path fill-rule="evenodd" clip-rule="evenodd" d="M1.5711 210.74C2.7831 210.18 2.5281 208.302 0.365101 208.525C-0.243899 209.405 -0.243899 210.778 1.5711 210.74Z" fill="white"/>
<path fill-rule="evenodd" clip-rule="evenodd" d="M324 210.451C324.739 212.489 327.722 211.032 326.838 209.252C325.481 209.258 324.412 209.542 324 210.451Z" fill="white"/>
<path fill-rule="evenodd" clip-rule="evenodd" d="M37.7511 292.715C37.0617 291.547 36.5643 290.235 36.7335 288.426C39.0969 284.466 39.006 278.681 43.508 276.313C48.6767 261.702 54.1559 244.642 62.4732 230.896C68.8766 227.677 72.0581 222.056 77.714 218.281C85.039 215.894 94.5885 214.763 103.792 214.498C108.309 215.164 110.998 217.199 117 216.768C116.455 215.154 114.359 214.697 112.935 213.738C105.61 211.356 95.2324 208.909 87.5362 212.728C82.5923 211.674 79.7795 214.34 77.0373 215.756C76.5854 216.178 75.1183 215.843 74.6664 216.26C64.7911 221.437 57.9939 228.906 53.3302 237.962C50.78 239.677 48.6489 241.709 49.265 245.782C47.0708 249.952 46.3133 255.191 43.1672 258.651C43.2934 260.259 42.5662 261.232 42.8313 262.942C37.8016 269.204 36.6148 278.328 33.0091 285.649C32.7112 307.578 39.9377 323.635 53.3302 335.861C44.0837 324.584 40.1523 309.342 36.3951 293.977C36.1174 293.014 38.0288 293.678 37.7511 292.715Z" fill="white"/>
<path fill-rule="evenodd" clip-rule="evenodd" d="M4.63743 218.444C1.63111 217.323 1.25163 220.156 1.00028 221.902C2.43937 221.906 3.97456 221.983 4.97009 221.655C4.83456 220.602 5.29044 219.111 4.63743 218.444Z" fill="white"/>
<path fill-rule="evenodd" clip-rule="evenodd" d="M224.769 338.899C223.894 337.962 223.138 339.817 222.733 339.153C220.793 335.12 213.4 335.152 210.863 331.566C210.046 330.71 209.06 332.556 208.147 331.566C207.896 330.705 209.396 331.15 209.502 330.554H206.788C206.212 329.553 205.286 328.808 205.433 327.268C204.37 327.215 202.941 327.438 202.377 327.013C200.225 324.121 197.883 320.411 193.218 320.186C187.158 312.988 179.783 306.768 177.61 296.669C176.957 295.726 175.566 295.33 175.237 294.139C177.01 290.421 174.152 287.014 172.865 284.026C168.036 282.312 167.361 277.506 164.382 274.416C162.376 264.959 156.563 255.308 150.473 247.356C149.704 246.543 150.771 245.681 150.134 245.08C149.532 243.843 147.217 243.883 146.739 242.552C146.325 241.598 146.057 240.534 146.064 239.264C137.654 230.866 131.08 221.096 114.172 219.034C110.934 220.257 106.209 219.143 103.655 218.276C89.5942 217.799 76.7048 219.102 72.4428 226.621C71.2465 226.739 70.5863 227.26 69.7289 227.633C58.8072 239.869 53.5791 257.467 47.0003 273.658C47.6731 297.9 52.4029 320.722 67.0174 335.36C68.019 339.754 71.3755 342.396 76.1761 343.957C66.0537 333.384 60.3248 320.573 54.8033 306.276C54.8235 301.571 53.8598 297.428 52.0893 293.633C51.1838 281.72 52.0994 269.299 58.1976 260.253C59.695 254.627 61.506 249.233 66.676 246.345C65.1154 241.502 68.4161 238.698 69.7289 235.218C70.2929 234.795 71.722 235.016 72.7818 234.967C75.8372 226.79 82.3351 221.183 96.5322 221.31C97.812 221.704 99.0691 222.116 100.599 222.324C118.224 220.318 125.202 228.429 134.189 233.7C140.763 241.865 147.384 249.995 152.167 259.495C162.019 281.825 174.549 304.346 189.829 323.475C193.676 325.241 197.068 327.347 198.649 330.807C204.838 334.368 212.176 337.075 216.627 341.934C224.592 342.155 228.475 350.056 238 348.256C234.694 344.315 226.952 343.68 224.769 338.899Z" fill="white"/>
<path fill-rule="evenodd" clip-rule="evenodd" d="M76.552 318.936C76.1304 314.883 74.0428 312.061 72.8035 308.609C72.8315 306.45 72.641 304.124 73.1464 302.314C69.5681 295.862 71.8537 286.53 69.0576 279.399C72.4962 271.46 69.1922 262.768 73.1464 256.237C72.4861 253.794 71.5998 252.612 72.1229 249.689C76.552 243.14 80.7245 236.405 86.0907 230.551C89.7757 228.914 95.2612 228.6 98.0116 226.271C92.8968 220.532 84.5644 228.05 79.9601 229.796C75.6987 235.71 68.8951 239.748 69.4005 249.184C65.5961 251.662 62.5613 254.707 61.2229 259.006C60.682 264.878 56.3012 271.802 61.5658 276.379C65.6495 270.557 61.7512 258.944 68.0342 255.48C68.2526 265.567 66.0507 274.269 63.6076 283.43C63.5467 284.566 65.718 284.053 65.3092 285.444C63.2318 289.774 65.393 296.543 67.3561 300.3C66.6958 304.948 69.4817 310.603 69.7382 316.165C70.3198 317.331 71.902 317.757 72.4658 318.936C73.0651 331.282 83.5765 338.168 89.4988 347.389C88.6862 348.23 87.5357 346.512 86.7713 347.389C89.6817 349.098 93.1609 350.387 96.3075 351.923C95.3602 348.991 90.4334 348.904 91.881 344.87C91.2156 343.683 88.8995 343.717 88.1351 342.604C85.8088 336.014 79.4293 331.075 76.8923 325.482C84.7523 330.249 87.9852 338.436 95.2891 343.612C97.5494 346.054 99.543 348.69 102.103 350.915C103.459 351.165 103.126 350.162 104.485 350.412C104.295 351.026 103.164 350.947 103.464 351.923C107.141 353.399 108.277 356.755 113 357.459C104.495 350.654 98.6058 341.915 90.5172 334.8C87.4799 328.317 79.9169 325.176 76.552 318.936Z" fill="white"/>
<path fill-rule="evenodd" clip-rule="evenodd" d="M80.1037 302.857C83.9342 309.419 87.1528 317.762 90.2754 324.004C82.6321 320.408 79.545 310.883 80.1037 302.857Z" fill="white"/>
<path fill-rule="evenodd" clip-rule="evenodd" d="M217.111 345.906C212.082 344.776 207.407 343.378 205.923 339.613C200.54 338.656 198.062 334.776 196.424 331.809C193.39 331.715 192.28 330.185 189.643 329.795C190.062 328.141 187.969 328.351 188.287 326.775C181.231 324.46 181.107 317 174.72 314.186C173.941 307.296 170.766 302.185 165.904 298.328C161.734 290.176 157.773 281.873 152.339 274.662C144.898 259.71 141.508 241.75 125.549 233.123C121.769 227.569 113.344 224.874 101.81 225.824C93.145 232.314 79.8813 235.39 79.0873 247.724C72.329 259.502 74.9206 277.766 74.0003 289.013C75.2746 291.004 75.6639 293.651 76.7132 295.809C76.6627 296.274 75.5653 295.965 75.3555 296.312C75.7398 297.202 75.7297 298.384 76.0356 299.334C73.4946 316.917 86.4373 325.174 94.6873 335.585C98.2473 337.642 100.829 340.424 103.504 343.138C108.702 349.934 120.413 351.899 127.92 356.984C121.587 350.948 112.975 346.599 104.181 342.381C104.505 341.617 105.534 341.372 105.2 340.118C104.831 339.299 103.539 339.166 102.826 338.605C102.477 337.439 101.276 336.904 101.471 335.333C97.7972 333.025 95.6987 329.551 93.3296 326.272C92.3537 315.697 87.0492 305.569 82.4779 297.571C84.0025 293.264 78.4578 289.563 80.7813 286.244C79.9596 285.259 79.1278 284.283 78.0684 283.474C80.033 283.001 79.7397 280.854 81.1202 279.949C79.8029 279.669 78.435 279.427 78.4097 278.186C80.1644 275.666 80.1872 274.491 79.0873 271.642C79.8206 270.506 81.459 270.044 81.8003 268.62C79.6436 253.021 85.2237 238.987 98.758 233.375C99.9286 233.596 100.983 233.904 101.471 234.634C103.516 242.127 99.5266 249.032 99.4331 256.033C99.3117 265.759 103.347 276.392 106.555 285.234C110.356 295.708 115.334 306.085 122.158 313.683C121.852 314.128 121.339 314.417 121.139 314.942C129.46 325.716 135.978 337.828 149.285 344.9C150.544 345.048 151.254 344.125 151.998 344.649C155.836 349.773 164.958 350.972 168.278 356.479C174.988 358.544 179.658 362.13 185.913 364.537C187.286 364.948 187.473 363.204 188.287 364.036C188.583 364.841 187.405 364.555 187.271 365.04C189.096 365.652 193.215 365.774 195.068 365.543C193.251 362.688 184.725 362.656 183.539 358.495C177.079 357.669 174.963 353.617 167.937 353.208C167.441 352.25 169.454 353.157 168.958 352.201C163.466 347.967 156.794 344.613 154.033 338.355C150.579 336.696 149.608 331.944 144.537 332.312C142.661 336.987 150.693 338.419 151.659 342.635C146.028 341.101 140.81 337.1 140.81 330.549C137.333 328.601 136.347 324.798 131.652 323.753C132.99 322.131 130.623 321.87 129.617 321.236C129.672 316.998 126.618 315.068 123.172 313.432C123.842 312.752 123.374 311.232 123.513 310.158C116.505 292.703 104.224 277.82 103.504 256.536C106.629 264.119 109.524 271.872 111.645 280.2C115.663 283.173 117.008 288.134 120.12 291.781C120.36 298.484 124.954 301.958 126.567 307.641C131.607 314.667 137.462 322.293 143.861 329.04C151.96 330.746 153.366 337.423 160.478 339.866C159.879 340.396 159.712 340.61 160.137 341.375C166.809 345.991 171.155 352.333 182.181 353.711C176.045 347.943 166.773 344.508 161.833 337.852C157.972 336.604 155.017 334.69 154.033 331.306C143.662 325.495 139.265 315.247 131.988 307.138C132.403 304.531 129.814 303.9 128.937 302.354C127.723 300.21 127.202 298.159 126.226 296.564C121.981 289.645 122.284 280.867 115.033 276.676C111.994 265.924 106.065 257.321 104.861 245.207C107.099 243.51 107.046 240.115 106.897 236.648C113.637 236.885 117.223 241.539 120.798 244.955C123.847 255.125 132.145 264.885 133.007 276.676C135.101 277.644 135.842 279.47 135.04 281.963C138.855 284.084 139.126 288.832 140.13 293.039C143.078 298.823 146.549 304.218 150.304 309.402C151.51 314.719 156.223 317.428 159.461 321.236C160.893 321.767 162.458 322.199 163.191 323.25C162.913 323.777 161.795 324.231 162.513 324.761C171.78 334.665 182.444 343.526 197.101 349.431C196.998 350.02 196.439 350.473 197.101 350.942C201.109 352.166 203.672 354.458 209.308 354.465C209.753 355.313 209.776 356.472 210.668 356.984C213.131 357.369 215.664 358.936 218.805 357.992C219.118 356.175 214.051 356.228 215.078 353.711C213.376 352.99 210.196 353.866 209.308 353.711C210.077 353.256 210.11 352.44 209.649 351.698C201.963 348.928 193.723 346.569 190.659 340.369C182.791 339.159 181.38 333.16 174.72 331.054C175.562 328.918 172.222 328.659 173.365 326.775C171.997 326.112 170.424 325.602 170.313 324.004C170.015 322.865 172.007 323.417 172.01 322.493C168.715 322.077 167.803 319.149 164.207 319.727C156.296 310.076 144.898 299.364 146.233 285.991C141.614 283.964 143.151 277.368 139.116 274.915V269.125C129.832 257.3 129.538 238.805 112.32 232.87C108.095 233.617 103.709 232.639 103.165 229.852C116.469 228.389 126.196 236.062 129.617 244.452C138.441 253.677 142.898 266.144 146.913 278.941C149.151 280.555 150.83 282.58 151.32 285.488C152.177 286.109 153.378 286.477 154.033 287.248C154.549 288.042 155.163 288.759 155.391 289.767C159.547 292.556 161.138 297.25 163.53 301.348C166.023 304.503 172.209 309.817 169.633 313.432C165.793 312.088 164.139 309.118 163.191 305.627C155.919 302.296 158.549 290.28 149.626 289.013C148.686 290.775 150.534 292.491 149.965 294.803C157.285 303.215 161.368 314.03 173.701 318.719C173.84 319.911 173.097 320.451 173.365 321.741C186.108 335.106 202.922 345.448 223.894 352.706C225.609 352.721 225.836 352.385 227.285 352.706C227.472 353.153 227.457 353.75 227.965 353.964C227.474 351.98 229.593 353.193 230 352.201C224.041 352.091 223.672 347.836 217.791 347.669C217.338 347.248 216.891 346.826 217.111 345.906Z" fill="white"/>
<path fill-rule="evenodd" clip-rule="evenodd" d="M16.665 231.926C16.635 230.47 16.5924 229 17.0003 227.871C11.3105 228.981 11.7784 234.739 7.26705 236.739C6.26871 241.579 0.889158 247.877 3.91171 252.448C4.00429 247.79 6.89424 245.241 9.95182 242.82C10.4547 237.878 14.2179 235.398 16.665 231.926Z" fill="white"/>
<path fill-rule="evenodd" clip-rule="evenodd" d="M168.007 359.298C165.557 358.681 164.473 357.052 161.891 356.529C159.887 353.315 155.225 352.071 152.714 349.232C143.312 346.633 138.184 340.867 133.342 334.885C132.478 334.356 131.013 334.262 129.947 333.878C130.21 332.262 128.001 328.331 124.51 327.838C119.067 318.175 112.855 308.752 109.895 298.393C107.848 296.22 106.693 293.385 104.119 291.599C106.308 290.302 103.356 287.882 103.779 285.557C103.143 284.602 101.509 284.388 101.058 283.294C101.501 278.451 100.498 275.269 99.0236 270.709C97.3564 265.568 97.962 259.333 95.9629 255.86C97.6351 253.179 97.4679 248.97 96.3024 246.047C97.0245 243.627 99.6772 241.358 98.6841 238.497C95.669 237.57 94.5669 240.112 93.2418 241.264C92.2435 250.623 94.7138 260.168 93.9233 269.953C96.0364 279.134 100.052 286.743 99.3605 296.379C101.669 296.096 102.482 296.92 103.779 297.387C111.183 312.54 117.633 328.401 131.644 338.66C132.11 339.158 131.969 340.1 132.326 340.676C145.214 350.926 160.508 359.398 176.505 367.351C179.018 367.755 181.788 367.969 185 367.856C178.97 366.196 175.37 362.737 168.689 361.563C168.286 360.936 168.195 360.081 168.007 359.298Z" fill="white"/>
<path fill-rule="evenodd" clip-rule="evenodd" d="M0.835214 239.516C0.922214 239.281 1.17121 239.165 1.63921 239.214C1.76221 238.425 1.08421 238.231 0.028214 238.316C-0.082786 238.997 0.127214 239.442 0.835214 239.516Z" fill="white"/>
<path fill-rule="evenodd" clip-rule="evenodd" d="M28.7118 281.65C29.3365 278.482 32.184 275.587 33.0847 272.566C34.3742 268.262 35.6035 264.684 37.46 260.959C38.1951 259.556 35.7967 259.197 36.4515 258.689H38.4711C39.5022 255.647 40.1721 253.26 43.1801 251.373C41.6598 248.037 48.2078 245.658 45.1997 241.279C39.3768 241.147 38.9377 247.157 37.46 251.119C34.7806 252.643 33.8198 255.455 34.0982 259.193C28.4384 262.203 30.197 270.073 25.6837 274.332C26.055 279.321 24.7931 283.083 24.0003 287.201C25.1493 297.023 25.9948 308.549 31.74 314.956C31.6371 315.876 31.7951 316.598 32.0761 317.228C33.0245 317.441 33.4585 318.043 34.7706 317.983C28.6366 307.115 26.3786 293.46 28.7118 281.65Z" fill="white"/>
<path fill-rule="evenodd" clip-rule="evenodd" d="M118.775 260.277C121.931 263.291 123.082 267.802 123.831 272.609C119.692 270.414 118.737 264.786 118.775 260.277Z" fill="white"/>
<path fill-rule="evenodd" clip-rule="evenodd" d="M130.57 292.744C138.915 314.956 156.592 330.197 174.724 345.096C177.199 346.102 179.772 347.029 180.79 349.125C181.567 349.707 181.876 348.658 183.15 348.87C184.946 354.242 190.771 356.603 195.621 359.694C197.141 359.406 198.138 358.721 200 358.69C194.203 354.965 189.21 350.638 182.14 347.866C179.25 343.897 174.651 341.208 170.005 338.553C169.272 337.172 168.211 336.033 167.983 334.276C157.351 327.534 150.592 317.897 144.056 308.098C141.606 297.674 131.02 291.157 129.902 278.901C125.336 275.349 127.715 267.192 125.18 261.534C123.863 258.596 121.18 257.348 121.134 254.488C119.961 253.351 118.303 252.576 117.426 251.216C118.024 248.756 115.561 248.583 115.069 246.937C115.365 244.366 114.802 242.436 113.046 241.4C109.684 240.82 109.184 242.375 109 244.169C114.275 255.5 113.307 271.491 124.167 278.65V281.671C126.261 285.396 127.678 289.622 130.57 292.744Z" fill="white"/>
<path fill-rule="evenodd" clip-rule="evenodd" d="M238.566 297.954C240.371 298.746 243.526 299.755 246 299.216C244.831 294.374 237.279 294.289 235.862 289.632C234.857 289.54 234.146 289.229 233.496 288.874C229.636 281.667 223.248 276.345 216.935 270.968C216.298 270.601 216.892 269.317 216.257 268.952C213.825 266.816 210.333 265.471 210.174 261.637C207.095 261.077 207.39 257.999 204.429 257.348C201.82 252.738 198.403 248.727 193.613 245.745C192.965 245.852 192.156 245.839 192.26 246.505C190.942 249.088 195.044 249.805 195.641 251.8C200.817 262.062 210.799 268.734 216.257 278.786C225.274 283.998 231.516 291.281 238.566 297.954Z" fill="white"/>
<path fill-rule="evenodd" clip-rule="evenodd" d="M135.851 356.07C129.932 355.041 129.36 350.011 124.742 348.009C120.741 343.113 114.677 339.753 110.27 335.161C109.6 334.667 110.054 333.722 110.27 333.146C105.283 330.424 101.862 324.078 101.852 319.291C96.1068 314.129 98.0821 304.532 93.0974 298.633C96.0541 296.054 92.8791 292.724 92.4223 289.817C91.594 284.507 88.6826 278.901 89.0591 272.938C89.1444 271.597 90.2487 270.303 90.4043 268.909C91.0268 263.367 88.3061 257.64 90.4043 251.525C89.6966 250.376 89.7944 248.623 88.3839 247.998C87.129 247.897 86.4086 248.201 86.366 249.007C85.9719 254.121 84.9529 260.768 86.366 265.634C82.8471 278.805 87.001 290.561 89.0591 302.414C90.4746 310.563 98.7898 317.905 98.4836 326.848C104.01 333.375 110.413 339.25 115.99 345.741C119.672 347.187 122.568 349.217 125.417 351.283C126.702 352.01 127.227 350.505 128.447 351.283C128.871 356.224 136.892 359.706 140.903 363.626C144.322 364.36 147.933 366.237 151 366.396C147.971 364.124 141.91 361.955 137.535 359.847C137.731 358.024 136.4 357.342 135.851 356.07Z" fill="white"/>
<path fill-rule="evenodd" clip-rule="evenodd" d="M0.00028168 254.608C0.764158 254.884 1.06971 255.53 2.31409 255.413C3.1716 254.948 2.98679 253.636 2.97693 252.469C0.870115 252.279 0.367435 253.391 0.00028168 254.608Z" fill="white"/>
<path fill-rule="evenodd" clip-rule="evenodd" d="M4.08886 268.088C7.2661 265.653 7.90007 261.049 10.0003 256.82C4.04969 253.51 3.7633 263.734 4.08886 268.088Z" fill="white"/>
<path fill-rule="evenodd" clip-rule="evenodd" d="M0.0614817 255.879C-0.373518 256.828 1.61248 257.558 2.47648 256.877C1.38448 256.722 1.47748 255.834 0.0614817 255.879Z" fill="white"/>
<path fill-rule="evenodd" clip-rule="evenodd" d="M80.6191 341.991C74.1201 333.056 69.3847 322.794 64.1092 312.939C64.9834 312.5 64.79 311.261 64.785 310.159C60.4942 299.164 62.0568 285.723 56.3592 274.791H55.3468C54.4098 277.119 55.0705 280.643 54.0003 282.875C54.8971 283.979 54.7238 285.727 54.3394 287.17C56.1331 292.734 57.3942 298.002 58.0474 303.591C59.4014 315.259 66.8625 326.941 73.5449 335.423C76.6423 339.356 78.7651 344.438 85.0003 346.288C84.7692 343.933 82.6992 342.96 80.6191 341.991Z" fill="white"/>
<path fill-rule="evenodd" clip-rule="evenodd" d="M301 280.023C301.433 280.947 301.803 281.917 303.085 282.238C304.225 281.63 305.468 280.412 304.823 279.282C303.031 279.163 301.912 279.518 301 280.023Z" fill="white"/>
<path fill-rule="evenodd" clip-rule="evenodd" d="M48.0001 310.533C48.9519 304.346 45.587 301.424 45.0005 296.404C44.2673 291.161 46.6059 284.475 43.6659 280.004C37.8158 283.149 42.5749 292.032 40.0003 297.41C41.5858 301.806 41.2354 307.918 46.6655 310.533C46.0368 310.898 45.1893 311.095 45.3335 312.047C49.3346 323.821 55.5004 336.646 66.0003 341.819C64.4321 338.211 61.1244 335.922 58.664 332.989C54.6405 325.86 52.461 317.333 48.0001 310.533Z" fill="white"/>
<path fill-rule="evenodd" clip-rule="evenodd" d="M9.41283 280.749C8.44983 283.175 9.42183 284.966 9.81783 287.452C11.6328 286.629 13.5438 281.5 9.41283 280.749Z" fill="white"/>
<path fill-rule="evenodd" clip-rule="evenodd" d="M18.4559 292.569C20.5636 290.65 19.4888 288.192 18.1054 286.251C17.0332 286.432 17.0725 285.813 16.0003 285.996C16.5285 289.359 14.9752 295.449 19.1567 297.878C20.6682 295.888 19.9726 294.094 18.4559 292.569Z" fill="white"/>
<path fill-rule="evenodd" clip-rule="evenodd" d="M128.28 340.575C127.602 340.152 125.784 340.596 125.252 340.071C125.29 339.592 126.363 339.894 126.26 339.312C117.044 331.169 109.727 321.999 106.747 309.751C102.699 307.066 104.916 299.673 99.6834 297.878C98.0856 298.11 98.3314 299.726 98.0003 300.911C100.413 303.749 100.742 306.663 101.7 309.751C105.731 322.787 113.979 333.523 122.561 341.837C133.231 348.477 140.779 357.464 153.515 362.553C153.517 363.478 154.47 363.689 154.859 364.324C159.884 365.52 162.666 368.398 167.981 369.375C168.638 368.857 169.85 368.759 170 367.861C151.887 361.924 140.177 351.178 128.28 340.575Z" fill="white"/>
<path fill-rule="evenodd" clip-rule="evenodd" d="M19.1854 300.113C18.6949 301.685 19.0333 305.764 22.0003 306.815C21.8062 304.297 21.1346 302.123 20.24 300.113H19.1854Z" fill="white"/>
<path fill-rule="evenodd" clip-rule="evenodd" d="M37.8092 321.941C36.7994 320.981 35.9339 319.918 34.1592 319.476C33.0378 321.891 38.2719 321.888 36.715 325.395C37.7058 325.243 39.6111 325.71 40.0003 325.151C39.0286 324.325 37.8391 323.65 37.077 322.682C37.1124 322.292 38.0106 322.489 37.8092 321.941Z" fill="white"/>
<path fill-rule="evenodd" clip-rule="evenodd" d="M231.03 329.073C231.69 329.533 233.055 330.32 234 329.633C233.741 328.383 232.542 328.022 231.329 327.669C231.077 327.997 230.935 328.421 231.03 329.073Z" fill="white"/>
<path fill-rule="evenodd" clip-rule="evenodd" d="M239 332.264V334.14C241.717 335.435 244.202 336.922 248 337.351C248.637 336.345 250.836 336.594 251 335.21C245.992 334.884 244.227 329.281 239 332.264Z" fill="white"/>
<path fill-rule="evenodd" clip-rule="evenodd" d="M257.133 339.585C258.092 339.063 259.27 338.691 258.945 337.243C255.91 334.993 252.809 339.408 257.133 339.585Z" fill="white"/>
<path fill-rule="evenodd" clip-rule="evenodd" d="M77.001 344.817C76.953 345.693 79.353 346.053 79.416 345.117C78.939 344.77 77.994 344.777 77.001 344.817Z" fill="white"/>
<path fill-rule="evenodd" clip-rule="evenodd" d="M237.037 349.946C238.306 349.895 239.437 349.734 239.449 348.746C238.585 348.19 236.716 348.699 237.037 349.946Z" fill="white"/>
<path fill-rule="evenodd" clip-rule="evenodd" d="M111 350.756C112.808 355.326 119.518 356.328 124 358.949C120.049 355.939 117.309 352.047 111 350.756Z" fill="white"/>
<path fill-rule="evenodd" clip-rule="evenodd" d="M202.402 360.227C202.261 359.637 203.029 359.694 202.745 359.004C199.901 358.754 198.286 359.322 199.309 361.206C202.089 361.998 205.036 362.673 208.933 362.673C209.554 359.865 205.741 360.216 202.402 360.227Z" fill="white"/>
<path fill-rule="evenodd" clip-rule="evenodd" d="M124 359.877C125.398 360.42 127.169 362.866 129 361.538C127.167 361.263 126.237 359.052 124 359.877Z" fill="white"/>
</svg>
