<svg width="164" height="202" viewBox="0 0 164 202" fill="none" xmlns="http://www.w3.org/2000/svg">
<mask id="mask0" mask-type="alpha" maskUnits="userSpaceOnUse" x="0" y="0" width="164" height="202">
<path fill-rule="evenodd" clip-rule="evenodd" d="M77.9777 194.357C65.9664 187.915 57.3036 180.958 45.0058 168.575C33.5522 157.041 19.7401 146.337 10.3924 141.029C-9.03058 130.001 3.44606 122.417 10.3826 123.612C30.7523 127.121 30.7657 134.969 38.1805 138.482C47.2911 142.798 59.7072 151.939 62.8774 144.994C66.0475 138.048 34.4487 93.396 16.8134 62.5185C15.7344 60.6285 4.9621 43.5887 11.0783 40.46C17.1944 37.3312 28.0031 52.043 29.7208 54.2888C45.0117 74.2825 66.6029 105.236 72.412 101.62C76.706 98.9471 64.787 75.0889 51.9392 47.0399C44.4504 30.6904 36.439 14.0242 41.8366 10.8114C51.2139 5.22961 58.2105 23.8712 65.7203 37.5474C70.6001 46.4345 93.0386 90.0391 99.7339 87.6932C104.115 85.8851 94.5556 57.3744 90.4436 45.8781C83.2328 25.718 71.5281 3.80448 82.0274 0.154451C88.4914 -2.09268 97.2098 20.7224 101.519 33.3169C104.588 42.289 121.503 81.249 124.066 81.2045C127.744 79.6735 126.217 62.2445 124.661 47.3441C123.171 33.0785 119.564 20.6815 127.056 19.9036C134.549 19.1256 135.876 31.7161 137.813 48.6612C138.868 57.893 143.508 75.0173 147.79 88.7065C151.214 99.6566 162.706 126.699 163.166 139.375C163.889 159.336 157.944 183.056 136.443 194.861C120.781 203.459 97.9754 205.083 77.9777 194.357Z" fill="white"/>
</mask>
<g mask="url(#mask0)">
<g opacity="0.6">
<path fill-rule="evenodd" clip-rule="evenodd" d="M105.662 -46.3919C104.587 -46.0464 102.35 -47.1297 102.101 -45.7662C102.669 -44.7833 105.719 -44.6876 105.662 -46.3919Z" fill="#D7DBDB"/>
<path fill-rule="evenodd" clip-rule="evenodd" d="M93.5175 -43.6356C94.8909 -43.009 98.2589 -42.3183 98.5397 -44.1844C96.6064 -44.2227 93.2792 -43.3353 93.9753 -45.2834C93.5736 -45.1782 92.6325 -45.5045 92.6036 -45.1004C93.2043 -44.8479 93.5924 -44.4288 93.5175 -43.6356Z" fill="#D7DBDB"/>
<path fill-rule="evenodd" clip-rule="evenodd" d="M118.303 -41.4618C123.975 -34.6691 130.787 -28.949 135.846 -21.581C139.659 -18.0332 142.006 -13.1084 146.327 -10.0356C146.254 -9.53196 145.532 -9.63875 145.643 -8.96777C147.426 -8.5741 148.253 -7.28632 148.831 -5.76107C149.422 -5.53157 150.358 -5.6256 150.655 -5.12037C156.304 5.25357 165.308 12.483 170.93 22.884C172.855 23.5135 176.54 23.998 175.032 26.5178C175.936 27.0948 177.395 27.149 178.448 27.5872C187.391 35.0876 190.166 48.375 201.46 53.6679C203.922 57.1981 206.971 60.1801 210.57 62.6457C210.552 62.9836 209.991 62.813 210.117 63.288C211.873 67.6948 217.939 68.0598 219.229 72.9081C219.795 73.23 220.734 73.2061 221.052 73.7607C223.69 70.7979 220.148 69.2663 219.229 66.7083C215.133 66.1345 213.312 63.4251 212.393 59.8677C209.317 57.195 206.068 54.6879 204.192 50.8884C202.458 51.0206 201.996 49.9576 200.775 49.607C199.552 45.5508 195.374 44.271 193.485 40.8412C193.49 40.4889 194.118 40.72 194.169 40.414C190.762 39.0481 189.697 35.4876 188.016 32.5041C187.209 32.1933 185.84 32.4084 185.283 31.8634C185.31 31.2482 186.254 31.492 186.193 30.7939C185.291 29.9301 184.016 29.4185 183.688 28.0144C182.01 28.1642 181.228 27.4725 180.955 26.3043C180.936 25.5042 182.569 26.2501 182.548 25.45C181.07 24.414 178.616 24.2961 177.308 23.0976C177.736 21.9644 177.836 21.2073 177.081 20.318C176.49 19.7442 176.394 20.5794 175.715 20.5332C171.421 14.8705 165.15 11.0629 162.5 3.859C160.997 1.49383 157.201 1.27707 156.804 -2.12725C152.775 -3.90272 151.538 -8.30156 148.148 -10.6795C147.285 -15.2122 143.975 -17.4499 140.858 -19.8708C140.666 -21.3276 139.548 -21.9188 139.263 -23.2911C137.383 -23.8601 135.677 -25.5559 136.075 -27.5672C135.412 -27.7999 134.458 -27.7585 133.797 -27.9928C133.527 -28.8104 132.917 -29.3076 133.113 -30.5587C128.7 -33.3303 126.424 -38.1069 121.722 -40.606C121.984 -40.8594 121.979 -41.363 121.948 -41.889C119.54 -43.6134 116.946 -44.5298 113.974 -45.3092C114.646 -43.301 116.774 -42.6635 118.303 -41.4618Z" fill="#D7DBDB"/>
<path fill-rule="evenodd" clip-rule="evenodd" d="M104.514 -44.6419C104.761 -44.0209 106.566 -44.4715 106.426 -45.27C105.768 -45.0785 104.213 -45.7742 104.514 -44.6419Z" fill="#D7DBDB"/>
<path fill-rule="evenodd" clip-rule="evenodd" d="M212.68 73.0413C210.473 67.8484 204.96 65.7601 202.211 61.0769C197.65 60.0176 197.497 54.8199 192.651 54.025V52.7427C189.076 50.4744 188.582 45.3117 185.825 42.274C186.297 39.7349 183.941 38.2758 182.182 37.1464C180.18 33.6165 177.297 30.9085 173.762 28.8138C174.412 37.2499 183.957 40.3227 185.368 48.0436C183.2 47.2296 183.229 44.3559 180.134 44.4101C179.638 43.7379 179.14 43.0657 179.224 41.8471C173.895 39.942 174.141 32.8009 170.121 29.6692C169.734 27.1635 168.1 25.0688 166.707 22.6173C166.508 21.9865 166.366 23.1127 165.796 22.8324C165.292 21.1678 163.48 20.7329 163.295 18.772C162.872 18.3849 161.664 18.7354 161.472 18.1301C161.674 17.7509 162.105 17.5885 161.927 16.8493C161.174 16.0608 159.719 15.9302 159.197 14.9267C159.026 14.2688 159.823 14.5157 159.652 13.8578C158.153 13.2461 157.797 11.4716 157.375 9.37056C156.608 9.44384 155.082 9.91056 154.417 9.37056C154.512 8.89109 155.623 9.36578 155.783 8.94366C154.743 6.1433 153.046 3.96577 150.321 2.74878C149.281 -0.762024 146.454 -2.59548 144.857 -5.58381C144.805 -4.76664 144.182 -4.6392 143.493 -4.94345C143.198 -6.00433 144.044 -5.99319 143.948 -6.8677C140.887 -10.0583 136.916 -13.5022 135.526 -17.5498C130.02 -20.8568 127.275 -26.7522 122.554 -30.7966C122.687 -31.4911 122.4 -31.7906 122.327 -32.2924C118.83 -33.7817 116.449 -36.3177 113.678 -38.4888C113.213 -41.5504 109.757 -42.914 106.85 -42.9745C107.845 -41.1299 109.604 -40.0053 111.403 -38.9157C111.454 -38.5111 111.145 -38.4442 111.175 -38.0619C117.291 -33.8327 120.947 -27.2938 126.196 -22.2506C126.476 -21.5592 125.461 -22.0865 125.741 -21.3952C127.918 -19.0966 129.907 -16.618 131.658 -13.918C140.527 -7.50009 146.018 2.08612 153.28 10.0125C154.931 15.0111 157.892 18.7863 160.106 23.2593C166.868 28.2356 169.261 37.3136 175.128 43.1294C175.7 43.4464 176.382 43.6614 176.722 44.1967C179.301 47.5434 181.941 50.8344 186.964 51.8889C188.229 54.3292 189.996 56.3061 192.651 57.445C194.628 60.7886 197.83 62.982 200.618 65.5625C200.91 65.8429 200.91 66.351 200.618 66.6314C202.091 67.8133 203.808 68.7643 205.169 70.0498C205.542 71.0534 206.059 71.9215 206.536 72.8279C210.498 73.8792 210.885 78.2868 215.183 79.0228C216.069 82.4667 219.393 83.6183 222.011 85.4343C221.144 79.1964 216.237 76.7528 212.68 73.0413Z" fill="#D7DBDB"/>
<path fill-rule="evenodd" clip-rule="evenodd" d="M141.149 -42.5776C141.301 -43.9784 140.194 -44.1442 138.919 -44.1418C138.779 -42.7527 139.731 -42.4375 141.149 -42.5776Z" fill="#D7DBDB"/>
<path fill-rule="evenodd" clip-rule="evenodd" d="M141.923 -30.641C140.573 -28.4293 143.227 -24.8286 146.016 -24.4157C146.186 -23.7563 145.394 -24.0044 145.563 -23.3435C145.903 -23.0922 146.493 -23.0762 146.7 -22.7001C152.798 -11.3521 161.629 -2.58392 170.363 6.27874V7.13652C173.534 9.4394 175.122 13.237 177.642 16.1528C178.178 16.148 178.312 16.5225 179.008 16.3672C181.023 19.2607 183.927 21.3139 185.606 24.5242C186.175 25.2027 187.24 25.4155 187.881 26.0269C187.905 27.6496 189.082 28.1857 190.385 28.6018C190.777 31.9545 192.673 33.8829 194.936 35.4704C194.536 35.6673 194.144 35.8705 194.253 36.5443C198.331 38.2774 200.836 41.4925 202.67 45.3461C203.238 45.5254 203.889 45.6262 204.719 45.5606C208.649 52.7989 216.583 56.2604 222.011 62.0872C221.317 60.0228 220.839 57.7535 218.825 56.9373V55.6491C217.309 53.7847 215.358 52.3364 214.047 50.2831C209.306 48.3867 208.352 42.9184 204.035 40.6235C203.806 39.6233 203.257 38.9256 202.67 38.263C202.066 38.2598 201.37 38.3431 201.077 38.047C201.014 35.0208 197.041 33.8477 196.073 30.9639C196.095 30.4102 197.045 30.7383 196.755 29.8901C193.963 28.0897 191.349 26.1197 190.611 22.3781C188.709 20.8802 186.032 20.1168 184.925 17.87C184.027 17.9276 183.342 17.7868 183.103 17.2266C183.045 13.093 177.512 12.368 177.415 7.56701C176.679 6.81645 176.704 8.59922 175.824 8.42479C174.492 8.24555 173.502 6.61161 174.004 5.41936C174.657 5.5922 174.146 6.85966 175.14 6.70763C175.783 6.88527 175.731 6.40516 176.277 6.49318C176.511 5.48817 175.904 5.27213 175.597 4.77602C171.663 4.98087 171.066 2.03785 168.316 1.12726C163.341 -4.4259 158.07 -11.5202 153.069 -17.7631V-19.2642C148.018 -24.3725 143.589 -30.0681 139.418 -36.0085C138.342 -36.351 136.476 -35.9509 136.459 -37.2952C137.423 -37.7545 137.937 -36.1781 139.418 -36.4374C139.519 -37.3912 138.802 -37.5736 138.508 -38.1546C133.754 -36.535 132.946 -45.9162 129.408 -42.0178C134.006 -38.6283 135.545 -32.3533 141.923 -30.641Z" fill="#D7DBDB"/>
<path fill-rule="evenodd" clip-rule="evenodd" d="M86.6674 -41.7489V-42.5746C85.7421 -43.5933 83.3287 -42.4596 82.6334 -41.4717C82.0619 -41.3649 82.7643 -42.7286 81.9203 -42.2994C81.2356 -42.1761 80.8375 -41.7181 80.7313 -40.9213C82.7749 -40.073 84.8999 -41.3772 86.6674 -41.7489Z" fill="#D7DBDB"/>
<path fill-rule="evenodd" clip-rule="evenodd" d="M220.872 91.6636C220.347 91.3027 219.134 91.5937 218.832 91.0244C217.641 88.1655 215.79 85.9267 212.944 84.626C213.311 83.9263 212.89 83.8119 212.944 82.9198C203.415 74.9695 194.655 66.2988 185.985 57.5407C185.803 56.7997 186.321 56.7202 186.213 56.0476C185.283 55.7837 184.632 55.2589 183.492 55.1937C177.27 47.334 168.723 41.6575 164.237 32.1616C160.957 29.3901 157.891 25.973 156.309 21.0708C155.475 20.2885 154.137 19.9864 153.363 19.15C153.176 16.3896 150.159 13.6531 149.967 10.1931C149.237 9.45692 147.825 9.36469 147.246 8.48697C147.508 7.8891 147.508 7.37711 147.246 6.78083C144.272 6.94938 145.172 3.47506 142.716 3.15546C142.557 2.36361 143.103 2.23958 142.943 1.44931C142.26 1.23624 141.299 1.2919 141.129 0.595448C141.314 -0.145527 140.793 -0.225029 140.902 -0.897629C134.574 -5.39117 130.578 -12.0774 124.368 -16.6807C123.052 -21.6353 118.358 -24.5181 117.117 -28.8368C116.077 -29.6334 114.736 -30.1486 113.947 -31.1821C111.363 -36.2147 105.225 -37.9018 101.033 -41.4206C100.386 -41.9151 99.1399 -41.9565 98.542 -41.4206C98.4643 -38.859 100.391 -38.1848 102.617 -37.7937C102.732 -37.1226 102.124 -36.9605 102.617 -36.5152C111.444 -33.731 113.938 -24.9904 120.289 -19.8783C120.324 -19.3488 119.932 -19.2184 119.838 -18.813C121.643 -17.8844 122.155 -15.733 122.782 -13.6945C123.947 -12.5179 125.785 -11.9725 127.087 -10.923C125.719 -6.6362 132.995 -7.021 132.746 -2.38912C134.489 -2.97904 136.567 -1.29515 136.601 1.02158C137.144 1.2919 137.969 1.29667 138.413 1.66079C141.651 7.85571 147.452 11.6337 150.418 18.0846C150.347 18.5839 150.061 18.8845 150.191 19.5777C155.745 28.1387 161.274 36.7282 168.089 44.1046C174.598 50.4156 179.844 57.9159 187.569 63.0853C188.063 64.8948 189.16 66.1382 190.741 66.9237C193.026 70.9593 196.73 73.6545 199.802 76.9475C200.14 78.4088 201.277 79.1148 202.974 79.2945C206.163 82.5478 209.578 85.5896 213.621 88.0383C213.952 91.0689 216.341 92.1613 218.379 93.5844C218.663 95.9473 220.262 97.0699 221.777 98.2751C222.696 96.065 220.592 94.6577 220.872 91.6636Z" fill="#D7DBDB"/>
<path fill-rule="evenodd" clip-rule="evenodd" d="M146.029 -38.7849C145.552 -40.1358 144.532 -40.9038 142.467 -40.5566C142.586 -38.9641 144.736 -37.5264 146.029 -38.7849Z" fill="#D7DBDB"/>
<path fill-rule="evenodd" clip-rule="evenodd" d="M95.56 -30.8864C99.7963 -30.7968 103.757 -28.3995 103.767 -25.7348C107.249 -23.0734 110.923 -20.5944 114.486 -18.0066C115.587 -15.7437 117.53 -13.1607 121.097 -13.9289C118.263 -19.6342 111.868 -21.9852 108.556 -27.2376C106.714 -27.3624 106.027 -28.5771 105.592 -30.027C104.747 -30.3071 103.693 -30.3871 103.084 -30.8864C101.078 -35.2955 94.7168 -35.6043 91.9118 -39.2596C90.0402 -39.2148 88.2586 -39.2548 86.6674 -39.4724C86.9377 -35.5371 94.7083 -35.6315 95.56 -30.8864Z" fill="#D7DBDB"/>
<path fill-rule="evenodd" clip-rule="evenodd" d="M144.946 -34.9754C145.357 -34.4292 146.631 -34.6911 146.781 -33.9038C146.798 -31.5644 148.908 -29.7103 150.911 -28.5494C151.861 -25.8665 153.19 -23.5382 155.499 -22.1233C155.167 -21.8598 155.064 -21.3872 155.039 -20.8394C158.869 -17.9075 159.992 -13.7635 163.525 -10.5584C163.65 -9.79829 162.713 -10.0314 162.838 -9.27131C166.918 -7.44123 167.024 -1.9015 172.697 -1.55976C173.139 0.0994377 174.895 0.529015 174.992 2.5092C176.187 3.17991 177.147 4.06779 178.663 4.43668C184.036 12.1259 191.683 17.6943 196.781 25.6422C196.753 26.1708 196.748 26.6738 197.011 26.9277C197.914 27.0268 198.203 26.4774 198.617 27.1401C198.513 27.7598 197.805 27.8109 197.928 28.6397C206.312 32.3781 209.154 41.2905 215.13 47.2741C214.846 47.9385 214.4 48.4559 215.13 48.9892C216.308 49.3214 216.066 47.6127 216.965 48.3473C217.478 51.2936 220.111 52.2629 222.011 53.9157C220.865 50.9774 220.004 45.9407 215.819 45.1343C215.973 44.6344 216.58 44.5594 216.736 44.0627C213.624 40.829 211.131 37.0155 209.168 32.7102C203.691 28.9702 198.768 24.7144 196.093 18.3587C192.111 14.1348 186.628 10.2303 183.939 5.50822C182.054 4.83751 180.608 3.76278 178.893 2.93718C175.391 -3.57348 167.952 -6.40962 164.442 -12.9139C163.876 -13.5255 162.786 -13.6501 162.378 -14.4134C162.082 -20.2933 156.603 -24.4245 152.516 -28.1214C153.043 -31.3376 148.972 -31.7783 149.992 -34.1178C148.488 -34.5698 147.504 -35.5072 147.012 -36.9029C146.439 -37.0833 145.782 -37.1839 144.946 -37.1169C144.635 -36.7623 145.134 -35.8681 144.946 -34.9754Z" fill="#D7DBDB"/>
<path fill-rule="evenodd" clip-rule="evenodd" d="M52.489 -23.9686C52.7718 -23.6596 53.2743 -23.5598 53.8602 -23.5373C58.5054 -26.8625 65.772 -28.3642 73.0506 -27.4227C76.0707 -25.4252 80.9355 -24.8619 84.2452 -23.7529C93.3873 -23.9638 98.9352 -18.9244 104.58 -15.1178C105.546 -15.1661 106.057 -14.7847 106.866 -14.6849C108.585 -10.1203 115.671 -10.6273 117.376 -6.04977C118.216 -5.98056 118.64 -5.51863 119.432 -5.40274C119.297 -4.62856 119.696 -4.35655 119.887 -3.8914C130.805 4.35902 140.394 13.8633 147.306 25.8993C148.177 25.7158 148.679 25.1831 149.59 25.0366C149.257 23.8182 149.193 22.9587 148.677 21.5826C145.545 19.5063 144.082 15.8478 142.736 12.0831C139.689 10.4285 138.14 7.35918 135.882 4.96099C135.417 4.20934 134.687 5.58709 134.282 4.96099C132.693 -1.16647 125.637 -2.12736 123.774 -7.99408C121.181 -7.72368 120.227 -9.65994 117.603 -9.93678C113.589 -13.9139 108.064 -16.465 105.038 -21.3789C104.165 -21.8183 103.291 -21.4223 102.298 -21.3789C101.393 -22.3945 100.463 -23.3876 99.5552 -24.4016H97.7275C95.8929 -27.347 90.0486 -26.5004 90.4166 -31.5237C89.0113 -32.0693 87.0694 -32.1048 86.9893 -33.8994C84.005 -34.8216 81.1093 -35.8276 78.5355 -37.1377C74.5189 -35.9129 72.5481 -37.7204 68.0239 -36.7048C70.2536 -36.1801 71.9417 -33.2234 74.6517 -34.5464C74.3094 -34.5834 73.8086 -34.4692 73.7387 -34.7621C74.6858 -34.944 75.4336 -35.3206 76.7077 -35.195C79.7517 -31.7394 86.3267 -31.6187 89.0453 -27.854C80.9253 -26.5712 74.3673 -32.3945 65.7396 -30.661C64.9135 -30.8863 64.6818 -31.675 63.4554 -31.5237C62.5577 -30.6449 62.1694 -29.2849 59.7999 -29.7983C59.076 -26.7048 54.6779 -28.2403 52.9438 -26.3427C53.3833 -26.2525 53.9301 -26.2654 53.8602 -25.6956C53.5059 -25.2337 51.5539 -24.2406 52.489 -23.9686Z" fill="#D7DBDB"/>
<path fill-rule="evenodd" clip-rule="evenodd" d="M156.714 -33.8834C156.006 -33.9955 155.005 -35.3963 154.339 -34.5115C154.97 -34.32 156.227 -33.1924 156.714 -33.8834Z" fill="#D7DBDB"/>
<path fill-rule="evenodd" clip-rule="evenodd" d="M168.377 -20.7948C169.149 -21.632 167.562 -22.1776 167.188 -22.6979C168.244 -24.5978 165.894 -25.1796 164.806 -25.8701V-27.7732C163.111 -29.1528 160.754 -30.3605 159.094 -31.1568C158.916 -31.8095 159.914 -31.4153 159.57 -32.2147C158.954 -32.3834 157.262 -32.6893 156.714 -32.2147C159.747 -27.9277 162.94 -21.5358 168.377 -20.7948Z" fill="#D7DBDB"/>
<path fill-rule="evenodd" clip-rule="evenodd" d="M175.697 -23.1295C175.909 -24.2403 173.326 -24.7827 172.148 -25.4642C173.137 -24.5376 173.861 -23.4079 175.697 -23.1295Z" fill="#D7DBDB"/>
<path fill-rule="evenodd" clip-rule="evenodd" d="M215.578 114.294C215.003 111.693 212.95 110.48 211.015 109.157C211.132 108.262 210.887 107.706 210.557 107.231C210.107 106.725 208.897 106.934 208.276 106.587C207.861 104.409 205.718 103.85 205.312 101.664C199.592 100.325 199.75 93.4677 194.816 91.3898C194.625 90.8552 194.518 90.2424 194.588 89.4636C189.596 88.0815 189.473 82.1321 185.005 80.2569C185.158 77.0476 183.457 75.5777 180.899 74.9075C180.589 74.4862 180.681 73.6866 180.445 73.1951C179.482 72.7419 178.46 72.3445 177.705 71.6965C174.33 63.9453 167.474 59.4641 162.878 52.8603C160.517 51.4352 158.313 49.8616 157.631 46.8661C154.782 44.6861 152.351 42.1152 151.242 38.3042C148.647 38.0967 149.416 34.739 148.504 32.9516C147.83 32.8 147.092 32.7074 146.679 32.31C145.502 28.5629 143.003 26.0558 141.889 22.2496C141.62 22.0022 141.083 22.007 140.52 22.0341C140.574 20.1701 137.375 17.0454 135.501 16.257C133.567 12.4333 131.034 9.17286 127.289 7.05192C127.187 5.14803 125.22 4.99482 125.006 3.19945C118.3 -0.35619 113.37 -5.57793 107.211 -9.64426C106.247 -9.59638 105.738 -9.97461 104.929 -10.072C104.077 -13.3387 99.8789 -13.4664 98.0845 -15.8523H96.0315C88.4166 -19.8404 78.7386 -22.539 67.2865 -22.2741C66.9786 -22.4832 66.9906 -22.9955 66.6028 -23.1295C57.6306 -22.488 48.9833 -18.7951 41.7358 -15.2091C41.5708 -14.009 40.3274 -13.8207 40.3666 -12.4275C45.129 -13.4217 48.7962 -14.6154 52.0006 -16.7077C56.1287 -16.8752 58.7957 -19.0137 62.9526 -17.5647C63.6585 -17.9716 64.4494 -18.2988 65.2335 -18.6355C73.4862 -18.7201 81.6165 -16.7699 89.643 -15.4246C90.6499 -14.4399 91.4527 -13.2701 92.8389 -12.6413C95.7389 -11.8657 98.3736 -10.8412 99.6816 -8.57501H101.735C112.865 -0.536526 125.215 6.35611 132.306 18.1832C138.703 23.097 142.741 30.2242 147.59 36.5918C147.713 37.4201 147.186 37.6355 147.366 38.5181C151.508 47.2603 158.968 52.8874 164.018 60.7807C172.767 66.1971 176.466 76.3565 183.182 83.6833C183.716 84.1812 184.658 84.2945 185.235 84.7541C185.748 87.0538 187.39 88.297 188.199 90.319C193.909 93.5969 195.85 100.408 201.888 103.377C204.422 108.062 207.851 111.911 212.382 114.722C212.432 115.41 211.979 115.627 212.154 116.434C213.735 117.119 214.32 119.184 216.49 118.146C216.09 119.663 218.267 118.762 219.227 119.002C219.256 119.86 219.996 120.858 220.824 120.287C220.337 118.127 219.072 114.811 215.578 114.294Z" fill="#D7DBDB"/>
<path fill-rule="evenodd" clip-rule="evenodd" d="M180.979 -11.9578C181.395 -9.60236 182.841 -6.97858 183.957 -4.62955H185.563C186.507 -1.13974 188.925 0.969887 189.458 4.85173C192.216 7.07062 194.726 9.52409 196.791 12.3953C196.441 13.0798 196.711 13.3417 196.791 14.1177C201.765 20.7904 208.143 26.1424 213.291 32.6529C213.241 34.3496 214.345 34.965 215.811 35.2381C216.53 32.9003 215.603 32.3685 215.124 30.2814C214.82 29.9231 213.826 30.2091 213.522 29.8508C212.334 24.5036 208.246 21.8798 204.582 18.8592C200.197 11.8394 194.505 6.28172 190.376 -1.39843C190.712 -1.64747 190.951 -1.64747 191.291 -1.39843C185.544 -7.20031 182.067 -15.1375 176.166 -20.7948H175.709C176.875 -17.2921 177.495 -13.2802 180.979 -11.9578Z" fill="#D7DBDB"/>
<path fill-rule="evenodd" clip-rule="evenodd" d="M174.267 -11.747C171.881 -12.1321 171.312 -14.3336 170.328 -16.1254C170.39 -17.2318 171.992 -16.7945 172.298 -17.6578C170.015 -17.9988 168.919 -19.5279 166.391 -19.6275C165.883 -19.0106 166.642 -18.2599 166.391 -17.2204C168.317 -16.5073 169.451 -13.9582 169.015 -12.1844C169.708 -11.636 171.132 -11.8204 171.424 -10.8723C171.607 -9.95845 170.997 -9.83768 170.985 -9.12128C176.913 -5.78405 179.802 1.75696 185.207 4.88695C182.858 -1.73693 177.836 -5.68613 173.611 -10.435C173.926 -10.7744 174.492 -10.8642 174.267 -11.747Z" fill="#D7DBDB"/>
<path fill-rule="evenodd" clip-rule="evenodd" d="M194.705 -3.28452C192.755 -7.86656 190.212 -11.7933 186.394 -14.958C189.016 -10.7307 190.297 -5.9894 194.705 -3.28452Z" fill="#D7DBDB"/>
<path fill-rule="evenodd" clip-rule="evenodd" d="M37.0867 -2.13493C37.5101 -2.51872 37.3566 -3.451 37.9925 -3.6349C43.6924 -5.30758 49.9186 -6.48454 55.8665 -7.92534C57.8638 -6.66204 59.0581 -8.56179 61.7486 -8.35391C62.5617 -8.17641 61.4787 -7.54475 62.4267 -7.49678C65.097 -8.89281 69.8236 -7.39283 72.3843 -8.56819C75.1237 -8.57938 76.6925 -6.61886 79.3966 -7.2809C80.1354 -6.5517 81.3685 -6.28944 83.0183 -6.42537C88.4297 -2.1893 98.755 -2.61307 102.25 3.4428C104.128 3.66348 104.467 5.34255 106.773 5.15865C113.938 12.9512 123.027 18.9239 129.852 27.0362C130.05 27.8901 130.05 28.114 129.852 28.9679C132.712 28.9008 133.606 30.7014 134.378 32.6123C138.283 34.2722 139.38 38.5947 143.654 39.9075C141.554 32.8154 134.373 28.6865 129.625 23.3902C128.585 20.6573 127.44 18.0252 123.97 17.5998C124.039 17.0945 124.755 17.2 124.648 16.5252C119.912 14.2273 119.288 8.02427 113.335 6.87291C102.137 -5.38274 81.7717 -14.1187 58.3546 -10.7142C57.7389 -11.2019 56.9208 -11.4978 55.6405 -11.3571C54.2589 -10.6646 52.8588 -9.99141 51.5667 -9.21264C50.8667 -9.33417 50.9712 -10.2217 50.2088 -10.2856C46.69 -9.73875 43.3787 -7.92374 40.0286 -7.92534C39.3437 -6.07196 36.1117 -6.63326 36.1825 -4.06347C34.9528 -4.58798 33.8411 -3.32948 33.2423 -2.5619C34.8043 -2.17331 35.3087 -1.42172 37.0867 -2.13493Z" fill="#D7DBDB"/>
<path fill-rule="evenodd" clip-rule="evenodd" d="M194.814 -7.24418C194.954 -8.4232 194.145 -8.67068 193.542 -9.12128C193.413 -7.95393 193.796 -7.28387 194.814 -7.24418Z" fill="#D7DBDB"/>
<path fill-rule="evenodd" clip-rule="evenodd" d="M30.7853 6.12681C32.4493 5.3356 34.5412 4.9448 36.0218 3.98061C36.5414 4.35219 37.297 4.49794 38.3005 4.40985C40.6522 3.62023 43.1075 2.92833 45.59 2.26044C50.436 2.34212 55.4926 1.85522 59.4811 0.756485C64.9232 0.493813 69.0408 2.38216 74.7426 1.18733C75.3522 1.47082 75.1942 2.47666 76.1061 2.47666C78.2523 2.20598 80.3544 1.89846 82.4837 1.61657C86.8118 4.69494 93.473 5.57265 97.5159 8.92169H99.7929C99.7793 9.72252 100.022 10.2799 100.248 10.8549C105.033 10.8533 105.001 15.394 109.587 15.5797C112.509 18.0527 114.851 21.0718 118.241 23.0995V24.3888C123.877 27.9525 127.37 33.5374 133.272 36.848C133.08 37.745 133.713 37.8635 133.729 38.5666C137.544 40.0529 138.899 43.8568 143.293 44.7986C146.346 53.4475 154.295 57.4789 158.324 65.2052C167.162 69.3279 169.378 79.6985 175.635 86.2589C181.539 96.5847 189.246 105.213 197.724 113.112C197.535 115.153 199.536 115.129 199.318 117.195C204.044 121.138 210.717 122.302 212.756 129.009C215.155 128.861 216.12 132.386 218.449 130.298C217.638 129.297 216.099 128.752 216.857 126.862C216.064 125.7 215.089 125.568 214.123 124.928C213.897 124.139 213.364 123.64 213.213 122.78C209.676 119.884 206.075 117.051 202.052 114.616C200.361 111.057 198.176 107.963 194.764 106.023C194.409 103.421 192.418 102.365 190.664 101.082C189.922 97.9189 188.132 95.7375 185.2 94.6371C183.607 86.9732 176.718 84.3049 174.268 77.4514C173.713 76.83 172.545 76.7819 171.991 76.1621C164.133 63.6644 153.756 53.5468 144.205 42.6492C144.37 41.9925 143.971 41.866 143.976 41.3599C142.091 39.3434 138.58 38.8581 137.828 35.7749C137.162 35.4226 136.97 36.1753 136.006 35.7749C132.622 31.9486 127.704 29.5686 125.983 24.1726C125.446 23.8923 124.412 24.0829 123.935 23.7433C123.621 23.4679 123.709 22.8112 123.707 22.241C118.444 20.0435 115.433 15.7239 111.864 11.9296C107.724 11.904 106.296 8.02957 103.894 6.77228C102.724 6.16045 101.041 6.27257 99.7929 5.48296C98.499 4.66611 98.4566 4.22085 96.8316 3.54976C92.3659 1.70626 88.8579 -1.11264 82.4837 -0.531242C80.441 -1.82698 76.5662 -1.39293 74.9684 -3.1099C74.5881 -2.8248 74.206 -2.54131 73.374 -2.67905C63.1522 -4.00682 51.1067 -3.24443 41.9444 0.541866C34.8876 -0.457561 33.5496 3.93576 28.9633 5.26833C28.8886 6.34304 28.403 7.03175 28.5083 8.27623C29.758 8.02317 31.1198 7.87421 31.9246 7.20152C31.5069 6.87959 30.3981 7.20953 30.7853 6.12681Z" fill="#D7DBDB"/>
<path fill-rule="evenodd" clip-rule="evenodd" d="M201.828 7.22165V4.52491C199.03 2.7116 197.316 -0.0563164 194.799 -2.11717C194.106 0.658485 197.461 1.59917 197.376 4.52491C199.161 5.1577 200.323 6.3413 201.828 7.22165Z" fill="#D7DBDB"/>
<path fill-rule="evenodd" clip-rule="evenodd" d="M32.2824 15.8502C32.8337 15.7292 32.1752 14.4697 32.9648 14.5701C34.9625 14.9092 36.523 14.5923 38.2144 14.1417V12.2214C42.3308 12.5717 45.3308 10.3664 50.3133 10.298C51.2033 9.90785 49.9577 8.83943 51.2254 8.80281C52.3842 8.4318 51.7546 9.72952 52.5952 9.65627C62.436 4.58485 70.2892 12.6991 80.8957 11.1514C84.5237 13.0972 87.9304 15.25 92.7649 16.0636C97.6453 18.9011 101.802 22.4168 107.374 24.6078C110.278 28.0105 115.053 29.6665 117.189 33.7905C118.205 33.9577 118.557 33.5071 119.469 33.5771C129.819 43.8251 140.327 53.9265 150.283 64.5454C150.108 65.3495 150.562 65.5677 150.513 66.2539C157.403 72.9049 163.735 80.0781 168.772 88.4647C172.789 90.4709 174.35 94.7765 179.271 95.9404C177.089 89.0825 169.849 86.9568 168.088 79.7087C158.274 71.0833 152.351 57.7607 140.926 50.0238C141.492 49.769 142.27 49.7149 142.979 49.5955C141.067 47.0335 137.468 47.3615 136.588 43.8282C134.291 43.9142 133.79 42.3172 133.163 40.8379C129.084 39.3921 128.207 34.9433 124.265 33.3638C124.009 32.9609 123.974 32.3558 123.807 31.8686C121.212 31.0231 118.441 30.3384 117.873 27.5965C115.594 27.4532 115.043 25.689 113.993 24.3944C113.428 24.0696 112.223 24.3419 111.71 23.9661C111.396 23.6906 111.483 23.0394 111.48 22.4725H109.656C107.542 20.5347 106.183 17.8916 102.124 17.7737C99.6686 16.2276 98.1864 13.7675 94.5908 13.2883C93.9884 12.715 93.5919 11.946 92.9946 11.3664C92.1931 11.2613 91.5074 11.0479 90.4829 11.1514C88.5499 8.26461 82.902 8.84739 80.2117 6.66755C77.4022 7.8347 74.4975 5.67875 71.0805 6.66755C69.3142 4.90968 64.3878 4.2648 61.9544 5.59913C54.6849 4.03074 47.2571 7.3809 40.2683 8.16112C39.9416 9.13718 39.4941 10.0002 38.4425 10.298C35.165 9.52411 30.8768 11.0782 29.9971 13.9284C29.6669 14.3296 28.503 13.9538 28.1729 14.3567C28.0572 16.027 26.4695 16.3232 26.119 17.7737C27.2046 17.5779 28.1899 17.2897 29.3147 17.132C29.1105 15.242 30.5331 15.0891 32.2824 15.8502Z" fill="#D7DBDB"/>
<path fill-rule="evenodd" clip-rule="evenodd" d="M204.438 8.389C204.259 8.6606 204.155 9.01403 204.224 9.55548C204.912 10.0517 205.847 10.278 206.577 10.7237C206.421 9.33786 205.853 8.40293 204.438 8.389Z" fill="#D7DBDB"/>
<path fill-rule="evenodd" clip-rule="evenodd" d="M204.203 9.81748C204.744 10.4338 205.179 11.1553 206.114 11.3841C206.29 10.2541 204.948 9.00267 204.203 9.81748Z" fill="#D7DBDB"/>
<path fill-rule="evenodd" clip-rule="evenodd" d="M32.8591 23.9171C36.0248 20.6912 42.5377 20.6718 46.3752 18.0895C48.9195 19.0114 50.3168 16.5432 52.4581 18.0895C56.1327 15.7484 61.7068 14.7927 65.2974 11.8322C61.2751 8.72204 54.2887 13.121 50.2043 13.343C48.8994 15.4717 44.6554 14.7878 42.7694 16.363C41.8726 16.577 42.0943 15.7178 41.1941 15.9318C35.5311 18.5625 29.7958 21.1256 24.299 23.9171C24.0521 24.8761 24.8448 25.4891 24.299 26.0748C22.764 26.0442 21.4658 26.2373 21.3701 27.5856C21.7882 28.2646 22.9605 28.2179 24.0739 28.234C26.7594 26.5607 29.0333 24.4948 32.8591 23.9171Z" fill="#D7DBDB"/>
<path fill-rule="evenodd" clip-rule="evenodd" d="M206.577 129.67C206.436 126.091 202.127 126.42 201.324 123.458C199.271 123.172 197.831 122.31 196.757 121.103C193.457 114.282 186.117 111.242 183.288 103.973C182.643 103.796 182.699 104.275 182.146 104.189V102.902C179.71 102.546 178.735 100.822 177.81 99.0482C172.833 96.7205 168.956 93.3616 164.796 90.2692C163.267 85.9939 159.189 84.1069 157.488 79.9912C152.954 76.3927 149.107 72.1493 145.617 67.5707C145.452 66.9161 146.011 66.9417 145.846 66.2855C140.986 62.4221 137.888 56.9063 132.604 53.4372C127.302 45.2058 119.46 39.3563 111.372 33.7368H109.773C102.65 28.2769 94.9237 22.2678 85.8001 19.3909C85.6384 18.5959 86.1899 18.4714 86.0299 17.6779C77.8783 15.8819 64.6865 10.786 58.174 17.8918C61.8456 19.9098 67.9461 17.8966 72.559 18.7476C77.7863 19.5554 81.1481 22.1113 86.2563 23.0309C86.7686 23.5497 87.1363 24.2043 87.6265 24.7439C94.0249 27.0252 97.4207 32.118 104.522 33.7368C104.795 34.6627 103.775 34.9373 104.294 35.4498C105.314 35.8265 106.037 35.9175 107.261 35.6653C109.251 37.5092 111.477 39.1344 113.426 41.0167C120.048 43.5151 122.997 49.4556 128.264 53.2232C128.318 54.3887 128.732 55.2156 129.408 55.7935C130.121 55.8366 131.083 55.6483 131.462 56.0075C133.273 61.4482 138.38 63.795 142.193 67.3567C142.504 68.4918 143.292 69.1815 143.335 70.5688C152.678 81.3641 161.89 92.2808 172.786 101.618C180.469 105.476 183.744 113.469 190.366 118.321V119.39C194.03 121.997 194.985 126.82 200.64 127.957C200.827 129.207 202.267 129.284 202.238 130.74C203.069 130.96 203.772 131.302 204.522 131.597C204.34 132.339 204.861 132.419 204.75 133.094C209.367 136.259 211.881 141.398 217.307 143.802C217.864 143.325 218.323 142.758 218.449 141.877C213.964 138.3 211.98 132.382 206.577 129.67Z" fill="#D7DBDB"/>
<path fill-rule="evenodd" clip-rule="evenodd" d="M211.186 18.7528C211.127 17.5574 210.732 16.6912 209.59 16.5605C209.526 16.913 209.239 17.0484 208.952 17.1862C209.168 18.2275 209.773 18.8858 211.186 18.7528Z" fill="#D7DBDB"/>
<path fill-rule="evenodd" clip-rule="evenodd" d="M25.6559 17.7278C24.3975 17.7442 23.7611 18.3699 23.7445 19.6073C24.5969 19.1917 24.8866 18.2275 25.6559 17.7278Z" fill="#D7DBDB"/>
<path fill-rule="evenodd" clip-rule="evenodd" d="M202.306 151.223C200.39 148.16 197.525 145.998 194.346 144.129C193.707 136.766 185.282 134.934 182.976 128.435C181.788 128.124 181.108 127.334 180.703 126.286C179.462 125.739 178.204 125.207 177.29 124.35C176.098 122.112 174.413 120.336 172.515 118.761C172.29 116.251 170.438 115.278 169.558 113.387C168.762 113.281 168.08 113.068 167.058 113.172C166.513 111.108 163.996 110.906 164.101 108.228C156.989 104.347 153.365 97.1672 147.728 91.891C143.576 85.7813 137.861 81.1542 134.31 74.4772C133.841 74.0621 133.044 73.9547 132.489 73.6181C132.225 72.5058 130.992 72.3119 131.126 70.8229C129.846 70.3854 128.992 69.544 128.169 68.6737C128.032 68.1576 127.842 67.6928 127.944 66.9523C123.604 62.0239 118.787 57.5506 112.934 54.0551C110.367 49.0994 105.815 46.0253 102.472 41.8005V39.866C97.1989 34.4551 91.1258 28.6773 82.9165 26.7524C82.4011 24.4428 78.4779 25.358 75.8669 25.0342C75.8889 24.3675 75.5905 24.0053 75.4125 23.5293C65.0348 21.3159 54.4383 19.2836 46.3019 24.6015C45.7712 24.5358 45.4508 24.2633 44.7132 24.3883C43.8909 25.0454 43.1602 25.7875 41.9819 26.1081C32.8842 27.3951 27.6504 32.3363 19.6971 34.7068C19.714 37.8033 15.9078 37.2888 16.7402 41.1562C21.7858 38.6864 25.6209 35.0754 30.6123 32.5575C36.5904 30.6775 44.3589 28.6452 50.3963 26.1081C54.1602 25.7763 57.5596 23.9972 61.7676 24.1735C66.4487 24.3691 70.4432 27.1194 74.731 27.3983C77.5115 29.7847 83.1793 29.4418 85.1918 32.5575C85.9887 32.6633 86.6702 32.878 87.6909 32.7723C88.8421 36.1973 94.966 34.9247 94.9677 39.4365C96.0104 40.6016 97.9059 40.9575 98.835 42.2316C99.0774 42.7894 99.3877 43.2862 99.2894 44.1645C105.286 48.2419 107.626 55.7748 114.526 58.9979C116.919 63.1859 120.482 66.268 124.306 69.1032C124.889 71.5602 126.8 72.7623 128.398 74.2608C130.814 78.1395 134.236 81.0693 137.038 84.5809C141.726 92.3333 149.88 96.8066 154.094 105.005C155.656 105.963 156.788 107.33 158.189 108.444C158.184 108.949 158.581 109.077 158.414 109.734C165.849 116.033 171.366 124.148 178.2 131.016C179.138 130.988 179.626 131.389 180.703 131.23C182.137 138.116 189.912 139.004 190.706 146.493C193.53 147.551 195.382 149.527 196.619 152.082C203.015 153.564 203.449 160.676 209.354 162.617C210.005 164.296 211.202 165.457 211.856 167.13C213.058 167.191 214.118 167.119 214.813 166.701C215.325 163.71 213.055 163.346 212.538 161.327C207.752 159.259 207.187 153.201 202.306 151.223Z" fill="#D7DBDB"/>
<path fill-rule="evenodd" clip-rule="evenodd" d="M214.697 101.506C215.46 100.32 216.635 101.938 217.184 100.443C215.153 99.4757 214.577 99.0339 212.435 99.3822C212.578 97.973 212.111 97.1386 211.985 95.9843C211.828 95.5647 210.724 96.035 210.628 95.5583C210.721 94.5513 209.773 94.5196 209.723 93.6472C203.347 91.7091 202.629 84.4556 196.836 81.9665C191.981 75.6266 185.292 71.0063 182.143 63.0656C176.463 60.4704 174.978 53.9357 168.803 51.8076C169.187 50.0311 167.712 50.001 167.898 48.4097C167.252 48.0297 166.384 47.8507 165.863 47.3488C161.417 39.9179 155.043 34.2953 150.945 26.5367C150.313 26.3103 149.469 25.5281 148.683 26.1108C147.839 28.0409 149.061 29.8602 150.266 30.5712C155.696 40.1934 160.91 50.0216 170.161 56.0559C176.708 64.2056 183.979 71.6745 189.15 81.1162C195.393 83.7494 199.13 88.7323 203.166 93.435C203.99 93.6504 204.715 93.9623 205.427 94.2837C205.742 97.2732 209.497 97.5835 209.269 100.443C210.537 101.73 213.028 101.87 213.792 103.63C213.385 104.389 213.638 105.355 214.017 105.964C215.007 106.131 215.413 105.046 216.053 105.54C216.571 106.257 216.013 107.983 216.505 108.726C218.524 107.882 219.155 109.35 220.8 108.514C221.103 105.398 218.459 105.051 217.862 102.78C217.228 101.957 215.111 102.532 214.697 101.506Z" fill="#D7DBDB"/>
<path fill-rule="evenodd" clip-rule="evenodd" d="M65.2974 28.2594C63.6374 25.9464 54.6376 24.3754 53.4251 28.2594C56.0938 30.3918 61.8087 29.0258 65.2974 28.2594Z" fill="#D7DBDB"/>
<path fill-rule="evenodd" clip-rule="evenodd" d="M43.9273 31.7361C41.6254 31.7304 39.5765 31.9959 39.1784 34.0416C40.7567 34.2498 43.2338 33.3273 43.9273 31.7361Z" fill="#D7DBDB"/>
<path fill-rule="evenodd" clip-rule="evenodd" d="M204.491 166.153C201.215 158.933 191.742 157.555 189.229 149.618C185.599 148.102 185.494 143.259 181.025 142.532C178.583 137.392 174.875 133.443 171.002 129.649C168.967 124.769 165.452 121.282 161.207 118.482C160.961 117.929 160.652 117.432 160.752 116.55C154.523 111.04 149.45 104.441 144.348 97.8696C141.46 96.6562 138.931 95.1001 138.197 91.8584C136.64 91.0355 135.609 89.7164 134.551 88.4213V87.1342C130.082 83.5434 128.375 77.3529 122.706 74.8955C118.604 69.5294 112.982 65.5945 108.579 60.5069C108.389 59.9738 108.282 59.3591 108.352 58.5763C106.067 57.2235 103.754 55.8948 102.2 53.8521C101.918 53.2053 102.188 52.8932 101.974 51.9198C98.6413 47.3029 94.6091 44.0083 89.444 40.7538C83.4857 36.9981 79.1732 33.0696 71.2174 31.7361C66.5109 31.8065 62.7929 32.8134 58.6877 33.4538C57.2915 32.8262 56.1603 33.2089 54.5875 33.4538C52.6988 32.282 49.6245 33.2873 47.2976 32.8086C42.9494 35.0082 38.1206 36.7564 34.5385 39.6812C29.3683 41.1027 23.59 41.956 19.7327 44.6183C18.9277 45.7229 17.6385 46.368 16.543 47.1957C16.0063 49.4257 12.5481 49.9956 13.1239 52.5634C14.2177 52.9508 15.2385 51.5997 16.543 51.4892C18.3502 48.4716 19.6869 45.0057 25.6554 45.907C26.5114 45.5676 27.0074 44.8904 27.9331 44.6183C27.9653 45.3755 28.9539 45.2298 29.5263 45.4763C33.6094 43.813 35.8939 40.4576 42.0577 40.7538C43.0598 39.9821 43.7477 38.9128 45.7027 39.036C48.1078 34.3599 58.3972 37.1166 63.6999 35.1699C64.505 35.2003 64.719 35.7863 65.5241 35.8151C73.5987 34.3055 81.2165 38.5638 84.8886 43.3312C93.3726 48.0009 100.282 54.1579 104.479 62.8698C105.359 62.9018 105.532 63.5966 106.529 63.5133C112.119 69.9136 119.747 74.3913 123.844 82.1955C125.175 82.8759 125.946 84.0797 127.49 84.5584C132.418 91.0787 136.723 98.1882 143.663 102.808C149.8 113.272 159.848 120.05 165.99 130.508C170.352 133.769 171.641 139.928 176.699 142.532C176.638 143.306 177.12 143.568 177.152 144.25C178.55 144.938 179.646 145.91 180.799 146.827C180.77 147.785 181.361 148.159 181.482 148.976C182.039 149.552 182.584 149.027 183.304 149.618C184.225 151.827 186.97 152.318 187.179 155.2C192.76 161.107 200.556 164.924 204.264 172.593C204.456 173.056 205.718 172.513 205.859 173.023C204.997 173.927 204.221 175.301 205.402 176.46C209.038 175.541 209.51 178.742 211.326 178.822C210.575 174.563 208.924 170.138 206.543 166.797C205.95 166.494 205.035 166.499 204.491 166.153Z" fill="#D7DBDB"/>
<path fill-rule="evenodd" clip-rule="evenodd" d="M35.6168 34.4944C32.2384 32.983 29.3215 35.8853 27.3062 37.4155C31.0644 38.0892 34.1461 36.5023 35.6168 34.4944Z" fill="#D7DBDB"/>
<path fill-rule="evenodd" clip-rule="evenodd" d="M217.116 37.5728C217.216 36.4142 216.608 35.7687 215.846 35.2381C215.763 35.5669 215.146 35.5043 214.889 35.7061C214.849 36.903 215.68 37.4615 217.116 37.5728Z" fill="#D7DBDB"/>
<path fill-rule="evenodd" clip-rule="evenodd" d="M58.7268 41.0368C69.2015 42.674 79.4164 44.6001 87.8547 49.2463C84.5272 42.5958 74.0576 41.0742 65.38 38.9849C61.4592 39.1362 47.5766 37.5789 47.4894 40.809C47.4142 43.6447 57.2238 42.0433 58.7268 41.0368Z" fill="#D7DBDB"/>
<path fill-rule="evenodd" clip-rule="evenodd" d="M204.706 140.186C203.764 137.849 202.623 135.696 199.912 135.027C198.363 132.185 196.424 129.712 192.833 128.794C192.081 126.78 190.153 125.876 189.637 123.636C181.612 116.505 176.625 106.513 166.809 101.068C166.738 97.8377 163.256 97.8249 162.929 94.8364C154.729 89.5902 148.615 82.3763 143.752 73.9878C141.592 72.8084 138.668 71.6547 139.187 68.6166C136.801 66.4919 134.657 64.1396 131.881 62.3817C129.951 57.0346 123.491 55.9514 122.063 50.1315C119.934 48.9842 117.95 47.7023 116.813 45.6176C111.346 44.8148 109.984 39.0142 104.713 38.7402C104.701 39.0142 104.422 39.0382 104.485 39.3859C106.095 44.3902 112.241 45.1225 113.846 50.1315C120.835 53.7946 125.248 59.8884 130.056 65.6073C130.577 65.8301 131.431 65.7435 131.881 66.0352C131.719 66.8332 132.27 66.9582 132.11 67.7545C141.283 77.7454 149.04 89.0711 159.732 97.6294C159.671 98.4033 160.155 98.6645 160.19 99.3487C162.815 100.82 164.602 103.076 166.124 105.582C170.312 107.373 171.442 112.038 175.485 113.964C179.581 120.853 185.492 126.036 190.781 131.803C194.025 132.69 196.174 134.606 197.172 137.606C201.236 139.512 202.25 144.289 206.531 145.988C206.795 146.241 206.791 146.749 206.759 147.278C211.353 149.33 212.367 154.753 215.892 157.81C216.358 157.603 216.796 157.369 217.262 157.163C215.797 154.932 215.943 152.982 215.666 150.503C212.405 146.691 209.324 142.714 204.706 140.186Z" fill="#D7DBDB"/>
<path fill-rule="evenodd" clip-rule="evenodd" d="M47.5769 39.9075H46.3018V41.1589C47.2991 41.306 47.7217 40.8881 47.5769 39.9075Z" fill="#D7DBDB"/>
<path fill-rule="evenodd" clip-rule="evenodd" d="M194.284 168.068C194.257 163.949 190.038 163.777 188.134 161.425C186.935 159.054 185.285 157.11 183.353 155.428C183.284 152.924 180.77 152.718 180.393 150.501C176.054 148.37 173.944 144.143 171.515 140.218C166.809 135.218 161.934 130.378 158.308 124.366C155.208 122.926 155.069 118.7 152.615 116.654C151.88 116.347 151.063 116.114 150.112 116.012C147.787 111.198 143.521 108.214 141.233 103.372C136.892 101.241 135.945 95.9194 131.669 93.7313C130.513 90.5338 128.885 87.7803 125.066 87.0903C123.304 84.5348 121.492 82.0241 118.462 80.6633C118.258 78.4289 115.992 78.1302 115.731 75.9501C115.198 75.4517 113.92 75.653 113.454 75.094C112.531 70.9014 105.464 70.6587 106.396 66.0956C104.69 63.9777 100.217 64.0911 100.475 60.7403C94.8972 59.2054 93.6749 53.569 88.1801 51.9575C86.1974 47.7058 80.0472 45.6151 74.7476 46.3866C65.6658 42.5933 51.8055 43.3168 41.9599 43.8151C38.9825 44.7271 36.5194 46.1246 32.851 46.3866C29.327 50.0888 19.5 51.5087 16.9147 55.171C14.696 55.4393 13.9423 57.0876 11.9053 57.5268C11.0871 60.8872 8.92273 62.8837 7.12335 65.8815C11.1142 64.9232 12.4705 61.4893 14.8658 59.0265C22.0904 55.7571 30.7325 53.8182 36.4956 49.172C38.8602 49.2311 41.0585 47.5381 44.4638 47.8863C48.6482 45.7876 54.9375 46.5686 59.9469 47.2442C62.2844 45.9857 67.4211 46.4728 69.0558 47.8863C77.4874 49.878 84.4693 53.2368 90.4581 57.5268C96.2773 63.8324 101.47 70.7289 109.355 75.094C111.052 78.2803 114.67 79.6603 115.957 83.2347C127.668 91.9265 135.096 104.645 145.329 114.726C145.466 115.239 145.658 115.702 145.558 116.44C147.497 117.543 149.052 119.008 150.795 120.294C153.53 127.719 160.413 131.241 162.863 138.934C168.347 144.053 172.588 150.349 178.118 155.428C181.634 159.758 183.897 165.271 189.955 167.212C189.972 168.982 191.666 169.175 191.323 171.28C198.256 173.613 199.522 181.277 206.577 183.492C205.744 177.637 199.847 176.541 199.062 170.638C197.125 169.644 195.621 169.566 194.284 168.068Z" fill="#D7DBDB"/>
<path fill-rule="evenodd" clip-rule="evenodd" d="M24.9317 49.1787C23.9802 46.759 21.3701 48.7516 21.3701 51.1206C22.738 52.3006 24.7529 51.0537 24.9317 49.1787Z" fill="#D7DBDB"/>
<path fill-rule="evenodd" clip-rule="evenodd" d="M89.0419 48.129C89.1977 48.9594 90.5714 50.4554 92.6036 50.4128C92.3522 49.0019 90.6599 47.8182 89.0419 48.129Z" fill="#D7DBDB"/>
<path fill-rule="evenodd" clip-rule="evenodd" d="M90.391 59.1277C88.788 59.4043 88.5505 58.4408 87.4124 58.2932C83.6425 53.5924 75.8652 52.5341 68.8466 50.7905C68.0964 50.5683 68.1101 49.6514 67.4709 49.3313C56.3749 48.8387 47.2612 50.5869 39.5078 52.0415C32.5286 56.8122 21.8564 58.2233 15.2087 63.2971C13.8654 66.7361 7.90984 67.0748 8.33195 71.426C15.0412 67.2442 22.0238 63.3095 29.4183 59.7524C31.9612 60.1875 32.0279 58.3709 34.6921 58.9179C36.8282 56.9521 40.7861 55.5924 44.5474 55.7928C49.4162 53.3266 57.2755 52.5154 64.4923 52.8744C65.4715 53.1635 65.6065 54.2217 66.555 54.5434C70.9794 54.7485 78.4696 55.611 80.7646 59.1277C86.4725 59.9109 88.8752 63.6996 94.9778 64.13C95.0154 61.036 91.0336 61.6001 90.391 59.1277Z" fill="#D7DBDB"/>
<path fill-rule="evenodd" clip-rule="evenodd" d="M93.8784 51.581C93.4134 52.5416 94.8896 53.6974 96.1652 53.9157C95.9988 52.5976 95.3376 51.7279 93.8784 51.581Z" fill="#D7DBDB"/>
<path fill-rule="evenodd" clip-rule="evenodd" d="M131.539 103.42C130.217 100.969 128.752 98.6488 126.094 97.4521C124.668 94.7391 121.802 93.3803 119.74 91.2697C118.427 86.6654 112.136 85.6356 112.252 80.3956C109.373 80.046 108.583 77.7335 105.445 77.6254C102.995 73.3915 98.2823 71.2793 95.0071 67.821C89.0574 65.8089 83.6643 63.2692 78.8988 60.1462C72.7122 59.5406 66.4749 56.1284 60.2917 57.589C54.9663 53.7412 50.2227 59.5232 43.0448 58.4408C36.026 63.3582 23.4617 63.0641 18.9956 70.3782C25.6118 67.9258 32.7982 66.0091 39.4144 63.5568C46.0358 61.8674 53.2543 60.9249 60.2917 60.1462C78.0038 61.1601 90.2551 71.6035 102.95 79.3308C103.527 81.9849 105.173 83.6378 108.167 84.0208C114.431 92.8463 124.566 98.0338 129.271 108.323C131.277 109.706 133.576 110.815 134.261 113.439C134.906 113.758 135.755 113.884 136.53 114.079C139.605 121.324 145.932 126.405 150.373 132.412C152.427 135.192 153.29 138.623 156.5 140.511C159.584 148.13 166.708 151.953 169.887 159.485C171.102 160.405 172.083 161.543 173.517 162.256C174.021 163.879 173.556 164.61 173.744 165.878C174.566 166.357 174.796 166.563 176.014 166.306C178.763 171.895 185.368 173.86 188.037 179.523C188.895 180.282 189.815 180.978 191.216 181.228C190.357 183.294 193.236 184.23 194.391 184.426C195.007 188.208 199.837 189.235 203.016 189.329C203.014 187.269 201.097 187.008 200.745 185.279C199.965 185.371 199.473 185.193 198.93 185.066C192.395 178.345 187.176 170.386 179.418 164.814C177.231 159.176 172.046 155.278 169.66 150.532C168.72 150.561 167.906 150.473 167.39 150.104C166.701 149.302 167.65 148.614 167.618 147.76C163.932 146.177 164.133 140.944 159.903 139.872C159.507 137.562 156.805 133.868 154.23 132.199C155.027 129.536 150.598 128.464 150.6 125.163C150.113 124.699 149.202 124.629 148.556 124.311C147.105 122.051 145.104 120.306 143.339 118.342C142.776 114.572 137.586 114.127 138.12 110.028C134.282 109.37 136.077 103.423 131.539 103.42Z" fill="#D7DBDB"/>
<path fill-rule="evenodd" clip-rule="evenodd" d="M191.724 190.914C188.08 183.481 178.818 181.355 176.495 172.673C170.982 170.796 170.563 164.11 165.811 161.515C162.449 154.461 157.23 149.155 152.399 143.488C149.887 135.487 142.055 132.508 139.669 124.388C138.688 124.313 138.018 123.946 137.624 123.316C133.158 114.297 125.057 108.711 118.981 101.212C118.871 100.539 119.767 100.646 119.212 100.139C116.729 97.7596 113.388 96.1901 111.482 93.2717C110.653 93.3373 110.002 93.2365 109.434 93.0558C107.44 86.5775 99.7217 83.8192 96.0238 78.2497C91.5716 78.5665 91.8326 72.637 86.25 73.3138C85.2687 72.7378 84.7247 71.7474 83.9756 70.9522C75.9526 69.3395 67.994 62.1268 59.4235 65.1572C57.6627 63.3732 54.0409 65.738 51.4683 64.514C49.0973 65.5684 45.9654 65.8996 42.3758 65.802C39.7761 68.5683 33.502 67.8675 29.6464 69.4499C28.072 71.757 23.6978 71.4178 20.7811 72.4546C20.032 72.4466 19.649 72.0914 18.7372 72.2402C12.8716 74.0002 8.73466 77.3921 6.00439 82.112C7.03311 83.0848 5.61968 83.5104 6.00439 84.2592C10.0752 82.088 13.6122 77.5649 18.0525 75.0305C18.7982 75.0417 18.9219 75.6401 19.8727 75.4593C26.3315 72.1378 34.8172 72.9218 41.4674 70.309C42.1047 70.5666 43.0368 70.5442 43.9655 70.5234C44.4638 69.6339 45.3552 69.1155 46.4687 68.8067C46.9314 69.0131 47.3686 69.2451 47.8313 69.4499C54.8426 66.2051 64.5163 68.7427 71.2462 69.8803C74.8883 72.5218 79.898 73.8722 84.6586 75.4593C88.238 78.8737 92.0021 82.1168 96.9322 84.2592C99.4777 88.1503 103.108 91.0174 106.936 93.7005C106.958 97.0221 110.428 98.0556 110.799 100.353C111.724 100.838 112.819 101.164 113.527 101.856C114.078 102.768 114.378 103.915 115.119 104.646C116.273 105.057 117.252 105.636 118.074 106.363C132.451 122.474 145.286 140.047 158.764 157.008C161.161 164.065 169.304 166.774 170.356 174.392C173.22 176.052 174.548 179.161 177.176 181.044C178.445 185.134 182.637 187.95 186.496 190.271C188.285 193.946 192.234 195.586 195.361 197.997C195.339 198.663 195.641 199.021 195.817 199.5C197.017 200.01 197.868 200.853 199.454 201.002C196.998 197.525 196.02 192.654 191.724 190.914Z" fill="#D7DBDB"/>
<path fill-rule="evenodd" clip-rule="evenodd" d="M178.763 190.53C176.709 186.104 173.279 182.98 169.683 180.012C166.226 170.476 158.314 165.151 152.887 157.479C151.112 153.719 149.464 149.843 145.624 148.035C145.245 145.245 142.509 144.685 142.673 141.382C137.058 136.102 132.833 129.51 128.601 122.924C126.294 121.529 124.866 119.302 123.607 116.916C118.784 113.25 115.367 108.255 110.443 104.683C110.609 103.109 108.223 102.253 108.627 100.39C107.729 99.9504 106.651 99.6848 106.13 98.8896C106.133 98.5328 106.759 98.768 106.81 98.4592C101.17 91.4189 92.9268 86.8348 87.0632 80.0026C82.8648 77.0329 76.7914 75.836 72.0836 73.3511C71.1428 73.1047 71.1986 73.8007 70.4946 73.7783C69.6164 72.2215 67.5113 71.0118 65.0474 71.6327C63.4296 69.7718 57.5187 69.9766 55.2866 71.2038C48.3587 70.7318 40.6607 74.1816 33.2708 75.7112C32.4907 75.5176 32.2842 74.7832 31.2283 74.852C22.4202 77.3289 15.2147 80.7898 9.21071 86.2268C7.91278 90.5421 1.94091 92.6094 2.39951 97.1712C11.26 92.0254 16.8985 81.9786 29.184 79.3577C29.9015 78.9625 30.3788 78.3433 30.773 77.6409C34.9562 78.2105 39.6149 78.7129 42.3496 76.5688C47.1453 77.0184 50.7938 74.5432 55.5134 74.2072C56.8942 75.324 58.6981 74.5576 60.5071 74.6376C67.0324 74.9192 77.4345 79.0409 80.9357 82.1482C83.2016 84.1595 86.6842 85.2219 89.3342 87.0844C91.6999 88.7485 92.9082 91.7758 95.0082 93.3086C100.156 97.0687 104.478 101.642 107.719 107.258C108.67 107.144 108.988 107.632 109.761 107.687C110.545 109.234 111.851 110.292 113.393 111.122C114.191 114.159 116.833 115.452 118.842 117.345C121.684 121.164 124.284 125.22 128.374 127.86C132.895 137.966 141.062 144.622 145.624 154.688C146.9 154.984 148.191 155.264 148.802 156.191C149.758 161.938 153.705 164.86 155.839 169.495C158.348 169.41 159.279 170.822 159.47 172.931C161.775 173.415 161.898 176.441 164.462 177.222C163.746 181.104 167.104 182.84 169.456 184.52C170.241 187.497 172.18 189.386 175.358 190.099C175.622 192.734 177.127 193.437 177.628 195.466C178.525 195.743 178.091 194.759 178.988 195.035C180.125 195.967 181.481 196.685 183.302 196.967C184.37 200.032 187.18 201.456 188.749 204.05C190.891 204.17 191.061 206.157 192.609 206.839C192.839 205.895 192.993 204.397 193.518 203.621C187.96 199.859 186.131 192.573 178.763 190.53Z" fill="#D7DBDB"/>
<path fill-rule="evenodd" clip-rule="evenodd" d="M191.143 212.564C190.108 209.91 186.945 209.252 186.595 205.955C184.397 203.115 179.251 203.034 178.41 198.92C175.088 196.28 173.415 192.094 169.772 189.754C169.911 189.244 170.097 188.783 169.997 188.049C161.995 183.332 160.118 172.868 152.038 168.224C151.877 167.434 152.426 167.307 152.265 166.517C147.992 162.849 145.553 157.466 142.942 152.238C138.155 149.973 137.784 143.571 133.619 140.725C133.721 139.992 133.533 139.53 133.394 139.021C132.687 138.902 131.912 138.846 131.348 138.595C129.836 133.576 125.591 130.115 123.844 126.018C119.471 120.525 114.212 115.862 109.066 111.094C108.753 110.821 108.841 110.168 108.839 109.602C101.972 103.607 96.5583 96.2471 89.7424 90.2047H87.4676C83.908 87.0022 81.1484 83.0529 75.4173 81.8895C72.4883 79.5914 68.9744 77.84 63.3671 78.053C60.0261 76.0187 55.385 78.5361 51.5456 78.6935C44.3738 79.0844 37.0375 81.1441 30.1725 82.53C29.2215 83.2007 28.5452 84.132 27.4451 84.6612C26.5399 84.8726 26.7603 84.0239 25.8517 84.2353C22.5345 87.0229 18.763 89.3814 14.9406 91.6954C11.0911 96.1184 6.86355 100.184 2.20719 103.847V105.339C1.74444 105.22 1.76139 104.697 1.29863 105.125C1.45966 106.573 0.822317 107.444 1.52577 108.324C3.53613 108.575 4.42943 106.123 6.52793 105.765C7.04153 103.83 8.84848 103.11 10.3927 102.142C14.3032 95.6464 22.0395 92.738 27.8994 88.0734C32.2032 85.6418 37.2697 83.9254 44.2704 84.0223C49.0352 81.5049 56.8393 81.764 63.3671 81.4636C69.5863 82.5952 74.4884 84.9648 79.2821 87.4329C84.1283 92.7666 90.9781 96.2201 96.3345 101.075C103.923 112.008 114.206 120.415 122.252 130.919C127.854 141.796 135.504 150.755 142.488 160.337V161.829C148.673 168.393 153.189 176.522 160.223 182.293C160.523 187.412 165.956 187.718 166.361 192.739C167.609 193.915 168.438 195.482 170.68 195.724C171.097 198.457 173.481 199.352 175.227 200.838C174.952 202.732 176.072 203.312 176.818 204.25C181.729 204.452 182.29 209.719 186.595 209.792C187.075 211.246 189.294 212.762 190.916 213.843C191.045 213.466 190.642 212.591 191.143 212.564Z" fill="#D7DBDB"/>
<path fill-rule="evenodd" clip-rule="evenodd" d="M56.6407 85.2294C55.9375 85.2498 55.5546 84.9716 55.0497 84.8065C50.2258 86.435 43.7177 86.1489 38.9159 88.1814C37.1961 87.2351 35.7033 88.9674 33.6887 89.0256C32.4044 92.193 28.5276 92.9522 25.0508 94.084C19.9406 97.4243 14.5033 100.461 11.1874 105.469C10.3724 105.345 10.0878 105.715 9.5964 105.892C6.96674 110.083 1.91072 112.823 1.18723 118.12C7.35983 115.537 9.47102 108.115 15.9605 106.524C16.4281 105.128 16.806 103.654 18.2343 103.151C19.0307 103.255 19.7118 103.464 20.7335 103.363C27.8313 97.7827 34.8985 91.0675 46.1864 90.0787C52.442 88.2695 58.8841 88.5697 66.4139 87.9692C71.7884 88.3716 75.5279 93.5071 80.7313 91.976C75.9261 87.4804 65.7819 82.0242 56.6407 85.2294Z" fill="#D7DBDB"/>
<path fill-rule="evenodd" clip-rule="evenodd" d="M4.82933 85.0308C5.18806 85.0327 5.05859 85.7226 5.55082 85.5387C5.55352 85.0327 6.04575 85.2165 5.91359 84.5209C5.12332 84.1191 4.63918 84.5 3.56301 84.2669C3.53739 85.334 3.89207 85.6885 3.56301 86.5547C4.89272 86.8902 4.29125 85.3283 4.82933 85.0308Z" fill="#D7DBDB"/>
<path fill-rule="evenodd" clip-rule="evenodd" d="M42.4108 99.491C45.9709 95.8879 54.9129 98.0523 60.0473 95.6219C62.3678 95.6396 64.2579 96.3044 66.4589 95.8382C69.8687 96.6505 72.0372 98.6259 75.3907 99.491C81.0066 99.451 84.9013 101.026 87.302 104.004C95.0386 105.991 95.8906 115.557 104.476 116.038C103.474 110.1 97.2225 109.091 95.3152 104.004C90.4045 100.446 85.8251 96.5784 77.6804 96.0529C69.0491 89.9505 56.3421 93.2829 44.4734 93.9029C43.4199 94.9186 42.0932 95.6828 40.5804 96.2676C39.7847 96.4406 39.6993 95.9472 38.9771 96.0529C35.2889 97.2497 32.6867 99.4622 29.1284 100.781C27.2109 103.493 24.3184 105.294 20.883 106.582C19.3821 107.824 18.8186 109.943 16.073 110.022C15.2141 111.22 15.4071 113.407 13.3274 113.458C12.419 113.449 13.3632 111.702 12.1817 111.955C10.5322 112.806 11.5038 113.577 11.9529 114.964C10.9079 117.922 7.13436 118.321 6.22598 121.41C5.43542 121.584 5.25955 121.007 4.85317 121.41C4.45533 124.841 1.4553 126.951 1.18723 129.79C3.42573 129.885 3.59477 128.037 4.62267 126.996C10.884 124.777 12.156 117.878 18.3644 115.607C18.9228 114.701 17.8949 114.45 18.1356 113.244C28.068 110.387 32.5826 102.445 42.4108 99.491Z" fill="#D7DBDB"/>
<path fill-rule="evenodd" clip-rule="evenodd" d="M186.149 221.687C184.242 221.049 181.812 220.904 181.127 219.124C174.896 218.475 173.121 213.658 168.113 211.865C167.887 211.366 167.713 210.815 167.658 210.156C158.649 208.831 153.422 203.968 149.163 198.201C149.104 197.362 149.992 197.405 149.849 196.491C149.315 195.923 148.258 195.843 147.337 195.64C145.699 192.4 142.806 190.339 141.402 186.883C139.745 186.295 138.891 184.961 138.435 183.253C136.065 180.985 134.338 178.118 132.724 175.141C132.081 169.622 127.232 168.038 127.705 161.473C128.004 160.475 128.816 159.953 128.843 158.699C128.186 157.25 127.075 156.227 124.964 156.136C124.556 155.592 124.317 154.891 123.824 154.43V152.721C122.408 150.272 121.015 147.801 117.659 147.169C111.305 138.875 105.182 130.37 98.7091 122.188C93.8513 118.974 89.9432 114.872 84.5526 112.155C82.2088 108.726 77.5893 107.424 75.8786 103.398C71.2506 101.819 67.2591 99.6457 62.4081 98.2751C59.5417 99.3656 55.4192 99.2812 51.6779 99.5566C50.8711 99.9386 50.1205 100.375 49.1673 100.623C41.8329 101.806 36.9785 105.31 31.8176 108.524C26.2704 109.245 25.6066 114.531 20.4015 115.569C16.6501 120.033 12.1667 123.81 8.98544 128.807C8.16842 128.681 7.88247 129.055 7.38885 129.235C7.35481 131.908 5.08078 132.487 3.96419 134.146C5.47737 135.435 2.89016 135.714 3.73611 137.347C7.14034 136.902 7.45523 133.57 9.21352 131.583H10.8118C13.8382 128.078 18.102 125.735 19.7173 120.907C22.3964 119 24.9496 116.978 27.4789 114.929C28.6619 114.897 29.3172 114.37 30.2193 114.076C32.4066 109.429 39.4806 109.358 42.5461 105.534C48.5818 103.208 55.6575 104.483 61.2677 101.905C64.1408 102.349 65.5962 104.119 68.8029 104.254C69.4293 104.948 70.5578 105.174 71.0838 105.961C72.7093 106.08 73.7629 106.731 74.9663 107.242C81.6352 115.596 93.0768 119.485 98.4793 129.022C99.3321 129.719 100.318 130.291 101.22 130.943C106.163 139.132 113.06 145.493 117.659 154.001C118.226 154.609 119.373 154.678 119.715 155.496C123.689 166.439 129.781 175.404 134.78 185.39C138.743 190.224 140.956 196.695 146.196 200.336C147.747 202.798 149.493 205.079 152.36 206.313C154.011 210.178 158.424 211.463 162.862 212.719C167.064 215.92 171.606 217.887 176.331 220.832C177.068 220.878 177.299 220.455 178.159 220.619C179.432 220.851 179.498 222.212 180.44 222.754C181.708 222.023 184.882 223.083 186.378 223.182C186.491 222.509 185.968 222.427 186.149 221.687Z" fill="#D7DBDB"/>
<path fill-rule="evenodd" clip-rule="evenodd" d="M182.087 213.783C180.985 212.313 179.667 211.048 178.668 209.484C175.236 209.133 173.871 206.838 171.596 205.4C171.273 205.113 171.273 204.182 171.596 203.895C169.158 202.141 165.969 200.077 165.895 196.799C165.197 196.168 163.711 196.277 163.387 195.294C162.606 189.58 156.749 188.655 156.317 182.611C150.634 178.58 147.789 171.872 142.86 167.133C140.575 159.683 133.369 156.876 131.228 149.289C124.099 144.328 123.811 132.921 116.632 128.005C116.807 127.194 116.355 126.978 116.405 126.285C112.393 123.831 109.317 120.496 105.686 117.685C93.2748 116.628 91.7632 105.298 81.0527 102.637C80.4066 101.565 78.9256 100.246 77.4072 100.703C77.2287 100.751 77.1385 100.882 77.1793 101.132C81.2721 106.946 87.3457 110.895 93.8274 114.463C94.5075 117.545 97.9507 118.024 99.7548 120.05C109.617 120.071 111.579 127.539 115.951 132.735C117.653 137.221 121.841 139.363 122.107 145.205C124.241 149.281 127.365 152.429 130.089 155.953V157.888C134.794 162.624 139.49 167.373 142.404 173.797C149.796 181.016 155.009 190.293 162.474 197.444C162.116 197.466 161.683 197.416 161.788 197.875C163.854 201.59 167.643 203.682 169.086 207.979C176.544 210.125 179.735 217.432 187.562 218.512C187.899 215.717 183.789 215.365 182.087 213.783Z" fill="#D7DBDB"/>
<path fill-rule="evenodd" clip-rule="evenodd" d="M159.169 215.829C155.527 215.617 154.298 213.13 150.975 212.615C151.443 211.505 150.893 210.898 150.292 210.259C149.052 209.919 148.515 211.004 147.787 210.472C148.346 209.317 148.61 208.486 147.787 207.475C146.978 207.783 146.715 208.607 145.509 208.543C144.403 203.73 140.467 201.575 139.591 196.546C136.258 195.756 136.124 191.954 133.899 190.117C134.057 189.637 134.584 189.043 134.13 188.618C129.223 183.806 126.528 176.917 122.29 171.477C121.96 170.785 122.076 169.678 122.064 168.691C118.276 162.113 114.291 155.723 110.906 148.763C103.087 142.983 100.759 132.034 92.6952 126.48C92.887 126.23 92.9973 125.904 92.9243 125.409C91.8245 125.301 90.9148 125.013 89.9644 124.767C83.6422 118.931 77.7308 112.712 67.8835 110.195C66.9704 109.484 66.0132 108.815 65.151 108.053C50.6567 106.139 36.9974 110.615 30.0931 118.981C17.5557 126.321 10.1948 138.536 1.40997 149.406V151.121C0.111596 151.37 -0.344958 153.41 0.271135 154.763C2.87468 154.001 2.64725 150.571 5.27965 149.836C5.63267 147.953 6.78169 146.82 7.3282 145.122C10.8975 143.624 12.6863 140.453 14.6127 137.408C19.8198 134.814 22.6541 129.976 25.9943 125.623C34.942 118.829 43.4859 111.66 58.3213 110.411C59.8285 110.744 61.2083 110.95 62.875 110.625C63.6947 110.923 64.1513 111.567 64.6961 112.125C67.2351 112.232 68.2128 113.812 70.6143 114.053C81.2118 122.433 95.0221 127.791 99.5249 141.906C103.739 147.084 108.091 152.129 110.906 158.621C111.509 159.126 112.167 159.579 112.955 159.905C116.93 167.664 120.253 176.036 125.705 182.404C130.43 190.455 134.62 199.01 140.046 206.403C139.646 209.719 143.424 210.927 144.371 213.686C149.097 213.526 149.046 217.858 153.933 217.544C155.252 220.304 158.208 221.521 162.129 221.83C164.673 227.362 172.84 227.604 178.519 230.186C178.672 229.248 179.513 228.978 179.203 228.042C172.042 224.424 164.379 221.283 159.169 215.829Z" fill="#D7DBDB"/>
<path fill-rule="evenodd" clip-rule="evenodd" d="M7.48809 169.366C8.83556 164.866 11.1511 161.268 12.2808 156.561C14.2016 155.204 15.6291 152.565 15.4743 149.945C17.0872 148.25 18.928 146.77 19.3551 143.968C27.0384 138.31 29.0307 127.827 39.4345 124.76C41.3111 121.753 45.4131 119.91 50.1616 120.278C52.0263 119.743 52.9807 118.361 54.7263 117.716C60.2506 117.396 62.7669 120.738 68.6468 120.278C72.2163 122.915 76.2111 125.155 80.9664 126.681C84.4525 130.107 87.9777 133.499 91.6934 136.712C92.5798 138.233 93.2025 139.996 94.2046 141.408C95.4739 142.008 96.9727 142.889 98.5397 142.049C96.8179 134.338 89.5923 131.776 85.3048 126.466C83.2955 126.283 82.2135 125.233 80.5121 124.76C75.7194 120.189 71.0304 118.895 63.6261 116.65C60.2217 115.617 57.7854 114.211 54.4966 114.729C47.2148 115.873 40.2222 117.388 36.9267 121.985C31.6474 124.732 27.4484 128.489 23.9181 132.869C23.5897 133.415 23.702 134.375 23.2342 134.791C22.6693 135.399 21.4477 135.398 20.723 135.858C13.5007 145.168 8.47658 158.13 4.7489 169.366C5.47368 169.59 6.82286 169.439 7.48809 169.366Z" fill="#D7DBDB"/>
<path fill-rule="evenodd" clip-rule="evenodd" d="M160.398 230.08C160.529 227.072 158.521 224.822 156.07 225.56C154.374 224.222 153.191 222.397 151.286 221.255H149.463C146.708 218.407 143.66 215.834 139.439 214.369C138.208 212.949 138.254 210.322 136.705 209.202C137.073 203.547 132.172 202.867 131.694 198.011C130.329 196.72 129.603 194.818 128.503 193.274C126.585 188.777 125.259 183.715 121.215 181.223C120.128 182.942 121.451 185.404 121.67 187.251C123.661 190.319 125.169 193.846 126.682 197.365C128.9 200.266 133.493 204.212 132.605 207.91C128.894 204.098 123.56 201.821 123.037 194.998C122.472 194.67 121.682 194.555 121.441 193.921C120.787 190.272 119.511 187.063 118.708 183.59C121.653 178.093 115.547 174.242 113.013 171.108C112.77 164.88 109.623 161.395 106.406 157.977C103.471 150.849 98.8226 145.34 92.2836 141.62C90.5699 138.503 88.6609 135.574 84.537 134.733C81.8943 131.993 78.8795 129.603 74.5146 128.491C73.5464 128.04 73.3766 126.838 71.7784 126.984C71.8089 126.453 71.814 125.948 71.5508 125.693C68.7568 125.033 66.0699 124.271 64.2611 122.681C55.8096 119.906 46.1047 122.971 41.2523 127.414C32.1453 130.648 28.9794 139.494 23.028 145.709C23.1486 146.542 22.6221 146.76 22.8004 147.646C15.1031 154.19 11.4769 165.199 9.1297 175.628C6.72471 179.856 5.87039 184.693 5.94003 190.909C6.5124 191.193 6.65337 190.057 6.85379 190.693C7.99175 190.598 6.35105 190.238 6.6262 189.617C7.20537 189.447 7.73019 189.227 7.99344 188.757C9.17386 175.522 16.4568 166.91 19.3832 156.04C22.7257 152.529 25.7252 148.689 27.8125 143.987C33.645 138.02 40.6392 133.15 46.7196 127.414C50.3186 125.316 55.1252 123.319 60.3903 124.618C83.7965 134.499 101.241 150.016 110.506 173.26C115.314 184.93 119.583 197.114 123.265 209.849C125.325 212.118 126.414 216.062 129.187 218.243C132.197 224.726 140.574 228.006 145.362 233.524C146.353 233.521 147.412 233.453 148.096 233.739C147.901 234.415 147.233 234.647 147.184 235.461C147.868 235.891 149.005 235.894 148.779 237.183C150.523 236.899 150.921 237.885 151.969 238.259C152.611 237.86 153.39 237.593 154.246 237.399C153.872 242.568 163.282 245.358 167.005 245.362C167.559 244.956 168.046 244.479 167.917 243.425C164.245 242.91 162.81 241.99 159.258 241.058C157.108 239.322 159.219 236.061 157.207 234.384C155.518 235.077 154.148 233.163 152.198 233.954C152.04 233.088 152.415 232.727 152.425 232.019C148.624 230.729 146.27 228.075 142.4 226.852C139.094 222.118 132.459 219.511 131.237 213.506C130.578 212.696 129.705 212.086 129.187 211.139C126.701 211.929 123.053 206.34 124.86 204.468C129.814 208.825 134.962 213 138.299 218.888C141.304 221.215 145.081 222.811 147.639 225.56C148.823 225.846 149.052 224.469 149.919 225.132C149.818 225.908 149.334 226.17 149.691 226.852C150.608 227.653 152.446 227.67 153.337 226.852C156.461 229.734 161.093 232.669 165.638 231.802C165.403 232.298 164.112 231.796 164.27 232.664C169.323 232.848 170.317 237.025 174.522 236.966C173.5 235.925 173.223 234.179 172.7 232.664C168.347 232.065 165.031 227.137 160.398 230.08Z" fill="#D7DBDB"/>
<path fill-rule="evenodd" clip-rule="evenodd" d="M120.84 147.304C122.314 143.2 117.029 140.246 115.356 136.991C114.206 134.562 113.215 131.983 111.7 129.901C111.061 129.497 110.211 129.297 109.415 129.041C108.194 126.321 106.294 124.24 103.701 122.809C102.774 122.726 102.11 122.888 102.101 123.669C103.129 127.716 107.039 129.053 108.272 132.909C113.215 136.997 114.941 144.111 120.84 147.304Z" fill="#D7DBDB"/>
<path fill-rule="evenodd" clip-rule="evenodd" d="M34.2059 147.995C38.8345 144.394 40.777 138.261 46.645 135.828C49.3295 130.82 57.4502 130.942 64.0602 129.64C64.3805 128.829 63.0889 127.912 62.2509 127.503C57.5582 127.274 53.8451 127.968 50.2619 128.784C46.1088 132.546 40.546 134.983 37.3709 139.671C35.2699 140.193 33.8552 142.209 33.754 143.94C31.024 146.06 28.9163 148.77 28.1002 152.691C27.5572 152.821 27.0665 152.998 26.2892 152.904C19.5629 160.449 15.6627 171.494 12.0407 181.292C12.0407 185.302 10.7727 189.508 10.685 194.099C11.3089 194.15 11.3747 194.729 11.5888 195.165C14.4975 194.758 14.7623 190.519 13.6258 188.124C15.9139 182.381 18.3235 175.632 19.7315 169.766C23.5221 164.877 24.2371 157.085 30.5873 154.612C30.6817 153.849 31.1893 153.472 31.0409 152.479C31.8924 152.002 32.3663 151.17 33.528 150.983C33.695 149.932 34.0002 149.01 34.2059 147.995Z" fill="#D7DBDB"/>
<path fill-rule="evenodd" clip-rule="evenodd" d="M1.24328 132.128C2.20256 131.542 2.00073 129.58 0.288748 129.813C-0.193265 130.733 -0.193265 132.166 1.24328 132.128Z" fill="#D7DBDB"/>
<path fill-rule="evenodd" clip-rule="evenodd" d="M218.449 132.215C219.034 134.344 221.395 132.822 220.696 130.961C219.622 130.968 218.775 131.265 218.449 132.215Z" fill="#D7DBDB"/>
<path fill-rule="evenodd" clip-rule="evenodd" d="M25.7803 201.725C25.3126 200.734 24.9752 199.62 25.0899 198.084C26.6933 194.722 26.6316 189.811 29.6859 187.8C33.1924 175.395 36.9096 160.91 42.5521 149.24C46.8963 146.507 49.0546 141.735 52.8917 138.53C57.8611 136.503 64.3396 135.543 70.5835 135.318C73.648 135.883 75.4723 137.611 79.5441 137.246C79.1741 135.875 77.7523 135.487 76.7862 134.673C71.8168 132.651 64.7764 130.573 59.5552 133.815C56.2012 132.921 54.2929 135.184 52.4326 136.386C52.126 136.744 51.1308 136.46 50.8242 136.814C44.1247 141.21 39.5133 147.55 36.3494 155.239C34.6193 156.696 33.1735 158.421 33.5915 161.878C32.1029 165.419 31.589 169.867 29.4546 172.804C29.5403 174.17 29.0469 174.996 29.2268 176.447C25.8145 181.764 25.0094 189.51 22.5633 195.727C22.3612 214.344 27.2637 227.978 36.3494 238.357C30.0765 228.783 27.4093 215.843 24.8604 202.797C24.672 201.979 25.9687 202.543 25.7803 201.725Z" fill="#D7DBDB"/>
<path fill-rule="evenodd" clip-rule="evenodd" d="M3.34628 138.205C1.5617 137.151 1.33643 139.816 1.18723 141.457C2.04149 141.461 2.95279 141.534 3.54375 141.225C3.4633 140.235 3.73392 138.832 3.34628 138.205Z" fill="#D7DBDB"/>
<path fill-rule="evenodd" clip-rule="evenodd" d="M151.393 240.675C150.806 239.878 150.298 241.456 150.026 240.892C148.724 237.46 143.761 237.488 142.058 234.436C141.509 233.708 140.847 235.279 140.234 234.436C140.066 233.703 141.073 234.082 141.144 233.575H139.322C138.935 232.723 138.314 232.089 138.412 230.779C137.699 230.734 136.74 230.923 136.361 230.562C134.916 228.101 133.344 224.944 130.213 224.753C126.145 218.628 121.193 213.336 119.735 204.742C119.297 203.94 118.363 203.603 118.142 202.59C119.332 199.426 117.414 196.527 116.549 193.985C113.308 192.526 112.855 188.437 110.854 185.808C109.508 177.761 105.606 169.549 101.517 162.783C101.001 162.091 101.718 161.358 101.29 160.846C100.886 159.794 99.332 159.828 99.011 158.695C98.7326 157.883 98.5526 156.979 98.5577 155.897C92.9119 148.752 88.4989 140.439 77.148 138.684C74.9746 139.725 71.8028 138.777 70.0879 138.039C60.6489 137.633 51.996 138.742 49.1349 145.14C48.3318 145.241 47.8886 145.683 47.313 146.001C39.9812 156.412 36.4715 171.386 32.0551 185.163C32.5067 205.79 35.6819 225.209 45.4928 237.664C46.1652 241.403 48.4184 243.651 51.6411 244.979C44.8459 235.983 41 225.082 37.2933 212.917C37.3069 208.913 36.66 205.389 35.4714 202.16C34.8635 192.023 35.4782 181.454 39.572 173.757C40.5772 168.97 41.7929 164.38 45.2636 161.923C44.2159 157.802 46.4318 155.416 47.313 152.455C47.6917 152.095 48.651 152.283 49.3625 152.241C51.4136 145.284 55.7757 140.513 65.3064 140.621C66.1656 140.956 67.0094 141.307 68.0367 141.484C79.8682 139.777 84.5528 146.678 90.5857 151.163C94.9987 158.111 99.444 165.029 102.655 173.112C109.268 192.112 117.68 211.275 127.938 227.551C130.52 229.054 132.797 230.846 133.858 233.79C138.013 236.82 142.939 239.124 145.928 243.258C151.274 243.446 153.881 250.169 160.275 248.637C158.056 245.284 152.859 244.743 151.393 240.675Z" fill="#D7DBDB"/>
<path fill-rule="evenodd" clip-rule="evenodd" d="M51.1409 223.147C50.8535 219.704 49.4308 217.308 48.5861 214.375C48.6051 212.541 48.4753 210.566 48.8198 209.029C46.381 203.548 47.9388 195.621 46.0331 189.565C48.3767 182.822 46.1248 175.439 48.8198 169.891C48.3697 167.817 47.7657 166.812 48.1222 164.329C51.1409 158.767 53.9847 153.046 57.642 148.074C60.1535 146.684 63.8922 146.417 65.7668 144.438C62.2808 139.564 56.6018 145.95 53.4637 147.433C50.5593 152.456 45.9223 155.886 46.2667 163.9C43.6739 166.005 41.6055 168.592 40.6933 172.243C40.3246 177.231 37.3389 183.112 40.927 186.999C43.7102 182.055 41.0533 172.191 45.3355 169.249C45.4844 177.816 43.9837 185.207 42.3186 192.989C42.2771 193.953 43.757 193.518 43.4783 194.7C42.0624 198.377 43.5354 204.127 44.8734 207.318C44.4233 211.266 46.3221 216.069 46.4969 220.793C46.8933 221.784 47.9716 222.146 48.3559 223.147C48.7644 233.633 55.9285 239.482 59.9649 247.314C59.411 248.029 58.6269 246.57 58.1059 247.314C60.0895 248.765 62.4608 249.861 64.6054 251.165C63.9598 248.675 60.6018 248.601 61.5884 245.174C61.135 244.167 59.5564 244.195 59.0354 243.25C57.4499 237.653 53.102 233.458 51.3728 228.707C56.7299 232.756 58.9333 239.71 63.9113 244.106C65.4518 246.181 66.8105 248.419 68.5552 250.309C69.4795 250.521 69.2528 249.67 70.1788 249.882C70.049 250.403 69.2787 250.336 69.483 251.165C71.9893 252.419 72.763 255.27 75.9824 255.868C70.1857 250.087 66.1718 242.665 60.659 236.621C58.5888 231.115 53.4343 228.447 51.1409 223.147Z" fill="#D7DBDB"/>
<path fill-rule="evenodd" clip-rule="evenodd" d="M53.4696 210.341C56.1354 215.774 58.3754 222.682 60.5485 227.851C55.2292 224.874 53.0807 216.986 53.4696 210.341Z" fill="#D7DBDB"/>
<path fill-rule="evenodd" clip-rule="evenodd" d="M145.707 247.248C142.339 246.287 139.208 245.098 138.214 241.896C134.609 241.082 132.95 237.782 131.852 235.259C129.82 235.179 129.077 233.878 127.311 233.546C127.592 232.14 126.19 232.319 126.403 230.978C121.677 229.01 121.594 222.665 117.317 220.273C116.796 214.413 114.669 210.067 111.413 206.787C108.621 199.854 105.967 192.793 102.328 186.661C97.3449 173.946 95.0742 158.672 84.3862 151.336C81.8547 146.613 76.2127 144.321 68.4879 145.129C62.685 150.648 53.8021 153.264 53.2704 163.753C48.7442 173.768 50.4798 189.301 49.8635 198.865C50.7169 200.558 50.9776 202.809 51.6804 204.645C51.6465 205.04 50.9116 204.777 50.7711 205.072C51.0284 205.829 51.0217 206.834 51.2266 207.642C49.5248 222.595 58.1927 229.616 63.7179 238.47C66.1021 240.22 67.8309 242.585 69.6224 244.893C73.1038 250.673 80.9471 252.344 85.9745 256.668C81.7328 251.535 75.9655 247.837 70.0762 244.25C70.293 243.6 70.9821 243.391 70.7586 242.325C70.5114 241.629 69.6461 241.516 69.1686 241.039C68.935 240.047 68.1306 239.592 68.261 238.256C65.8007 236.293 64.3953 233.339 62.8086 230.55C62.155 221.557 58.6025 212.945 55.5411 206.143C56.5621 202.48 52.8487 199.333 54.4049 196.511C53.8545 195.673 53.2974 194.843 52.588 194.155C53.9036 193.752 53.7072 191.926 54.6318 191.157C53.7496 190.919 52.8335 190.713 52.8166 189.658C53.9917 187.515 54.0069 186.515 53.2704 184.092C53.7614 183.127 54.8587 182.734 55.0873 181.523C53.6429 168.257 57.38 156.322 66.4441 151.55C67.2281 151.738 67.9342 152 68.261 152.621C69.6309 158.993 66.9589 164.865 66.8962 170.819C66.815 179.09 69.5174 188.132 71.6662 195.652C74.2112 204.558 77.5453 213.384 82.1155 219.845C81.9106 220.223 81.5669 220.469 81.4331 220.916C87.0057 230.078 91.371 240.378 100.283 246.392C101.126 246.518 101.602 245.733 102.1 246.178C104.67 250.536 110.779 251.556 113.003 256.239C117.497 257.995 120.624 261.045 124.813 263.091C125.733 263.441 125.858 261.958 126.403 262.665C126.602 263.35 125.812 263.107 125.723 263.519C126.945 264.039 129.704 264.143 130.945 263.947C129.727 261.519 124.018 261.492 123.223 257.953C118.897 257.251 117.48 253.805 112.774 253.457C112.442 252.643 113.79 253.414 113.458 252.601C109.78 249 105.312 246.148 103.463 240.826C101.15 239.415 100.5 235.374 97.1028 235.687C95.8464 239.663 101.226 240.881 101.873 244.466C98.1018 243.161 94.6069 239.758 94.6069 234.188C92.2786 232.531 91.6182 229.297 88.4738 228.408C89.3695 227.029 87.7846 226.807 87.1107 226.268C87.1479 222.664 85.1025 221.023 82.7945 219.631C83.2432 219.053 82.93 217.76 83.0231 216.847C78.3293 202.003 70.105 189.347 69.6224 171.247C71.7153 177.695 73.6542 184.289 75.0748 191.371C77.7654 193.899 78.6663 198.118 80.7507 201.219C80.9116 206.919 83.9883 209.874 85.0686 214.707C88.4433 220.681 92.365 227.166 96.6507 232.905C102.074 234.355 103.016 240.033 107.779 242.111C107.378 242.561 107.266 242.743 107.55 243.394C112.019 247.319 114.93 252.713 122.314 253.884C118.205 248.979 111.995 246.058 108.687 240.398C106.101 239.337 104.121 237.709 103.463 234.831C96.5169 229.889 93.5723 221.174 88.699 214.279C88.9767 212.062 87.2428 211.526 86.6552 210.21C85.8424 208.388 85.4936 206.643 84.84 205.286C81.997 199.403 82.2002 191.938 77.3438 188.373C75.3085 179.231 71.3377 171.914 70.5317 161.612C72.0303 160.169 71.9947 157.282 71.8948 154.334C76.4091 154.535 78.8102 158.493 81.2045 161.398C83.2466 170.046 88.804 178.346 89.3814 188.373C90.7834 189.197 91.2796 190.75 90.7428 192.87C93.298 194.673 93.4792 198.712 94.1514 202.289C96.1258 207.208 98.4507 211.795 100.965 216.204C101.773 220.726 104.929 223.029 107.098 226.268C108.057 226.719 109.105 227.087 109.596 227.98C109.41 228.429 108.661 228.815 109.142 229.265C115.348 237.688 122.49 245.224 132.306 250.245C132.237 250.746 131.863 251.131 132.306 251.53C134.99 252.571 136.707 254.52 140.481 254.526C140.779 255.248 140.795 256.232 141.392 256.668C143.042 256.995 144.738 258.328 146.841 257.525C147.051 255.98 143.658 256.025 144.346 253.884C143.206 253.272 141.076 254.017 140.481 253.884C140.996 253.498 141.018 252.804 140.71 252.173C135.562 249.817 130.044 247.811 127.992 242.539C122.722 241.509 121.777 236.408 117.317 234.617C117.881 232.801 115.644 232.581 116.41 230.978C115.494 230.415 114.44 229.98 114.366 228.622C114.166 227.653 115.5 228.122 115.502 227.337C113.296 226.983 112.684 224.493 110.277 224.984C104.978 216.777 97.3449 207.668 98.239 196.295C95.1454 194.571 96.1749 188.962 93.4724 186.876V181.952C87.2546 171.896 87.0582 156.168 75.5269 151.121C72.6974 151.756 69.7596 150.924 69.3955 148.554C78.3056 147.311 84.8197 153.836 87.1107 160.97C93.0203 168.816 96.0055 179.417 98.6945 190.3C100.193 191.673 101.317 193.395 101.646 195.867C102.22 196.396 103.024 196.708 103.463 197.364C103.808 198.04 104.22 198.649 104.372 199.507C107.156 201.878 108.221 205.87 109.823 209.355C111.492 212.038 115.636 216.557 113.91 219.631C111.338 218.488 110.231 215.963 109.596 212.994C104.726 210.161 106.487 199.942 100.511 198.865C99.8815 200.364 101.119 201.823 100.738 203.789C105.64 210.943 108.375 220.14 116.635 224.127C116.728 225.141 116.23 225.6 116.41 226.697C124.944 238.063 136.204 246.858 150.25 253.03C151.398 253.043 151.55 252.758 152.521 253.03C152.646 253.41 152.636 253.918 152.976 254.1C152.648 252.413 154.067 253.444 154.339 252.601C150.348 252.507 150.101 248.888 146.162 248.746C145.859 248.389 145.56 248.03 145.707 247.248Z" fill="#D7DBDB"/>
<path fill-rule="evenodd" clip-rule="evenodd" d="M11.6448 149.604C11.6244 148.359 11.5956 147.102 11.8723 146.137C8.0122 147.086 8.32963 152.009 5.26909 153.719C4.5918 157.856 0.942234 163.241 2.99278 167.149C3.05559 163.166 5.01617 160.988 7.09048 158.917C7.43167 154.693 9.98466 152.572 11.6448 149.604Z" fill="#D7DBDB"/>
<path fill-rule="evenodd" clip-rule="evenodd" d="M113.256 257.935C111.611 257.412 110.884 256.033 109.151 255.59C107.806 252.868 104.678 251.815 102.993 249.411C96.6839 247.21 93.2428 242.328 89.9937 237.263C89.414 236.815 88.4313 236.735 87.7155 236.41C87.8923 235.042 86.4097 231.713 84.0669 231.295C80.4149 223.113 76.2461 215.134 74.2603 206.362C72.8865 204.522 72.1112 202.122 70.3839 200.609C71.8528 199.511 69.8721 197.462 70.156 195.493C69.7293 194.684 68.6327 194.503 68.33 193.577C68.6276 189.476 67.9543 186.782 66.9648 182.921C65.8461 178.568 66.2524 173.288 64.911 170.347C66.0331 168.077 65.9209 164.513 65.1388 162.038C65.6234 159.988 67.4035 158.067 66.737 155.644C64.7138 154.859 63.9742 157.012 63.085 157.988C62.4151 165.913 64.0728 173.995 63.5423 182.281C64.9603 190.055 67.6551 196.497 67.1909 204.657C68.7398 204.417 69.2856 205.115 70.156 205.51C75.124 218.342 79.4526 231.772 88.8546 240.459C89.1674 240.88 89.0722 241.678 89.312 242.166C97.9608 250.845 108.223 258.019 118.958 264.754C120.645 265.095 122.503 265.277 124.659 265.181C120.612 263.775 118.196 260.847 113.713 259.852C113.443 259.322 113.381 258.597 113.256 257.935Z" fill="#D7DBDB"/>
<path fill-rule="evenodd" clip-rule="evenodd" d="M0.660835 156.748C0.729694 156.503 0.926774 156.382 1.29719 156.433C1.39454 155.609 0.857915 155.406 0.022108 155.495C-0.0657467 156.207 0.100465 156.671 0.660835 156.748Z" fill="#D7DBDB"/>
<path fill-rule="evenodd" clip-rule="evenodd" d="M19.6722 192.216C20.0768 189.516 21.9208 187.049 22.504 184.475C23.3391 180.807 24.1351 177.758 25.3374 174.584C25.8134 173.388 24.2602 173.081 24.6843 172.649H25.9921C26.6598 170.056 27.0936 168.022 29.0416 166.414C28.057 163.572 32.2974 161.544 30.3494 157.812C26.5786 157.7 26.2943 162.822 25.3374 166.198C23.6023 167.496 22.98 169.893 23.1604 173.078C19.4952 175.643 20.634 182.351 17.7113 185.98C17.9517 190.231 17.1345 193.438 16.6212 196.947C17.3652 205.317 17.9127 215.139 21.6332 220.599C21.5666 221.383 21.6689 221.998 21.8509 222.535C22.465 222.717 22.7461 223.23 23.5958 223.178C19.6235 213.917 18.1613 202.28 19.6722 192.216Z" fill="#D7DBDB"/>
<path fill-rule="evenodd" clip-rule="evenodd" d="M79.5448 174.153C81.7678 176.72 82.5784 180.564 83.1058 184.659C80.1908 182.789 79.5183 177.995 79.5448 174.153Z" fill="#D7DBDB"/>
<path fill-rule="evenodd" clip-rule="evenodd" d="M88.2411 201.444C93.9024 220.275 105.895 233.196 118.196 245.827C119.875 246.68 121.621 247.466 122.311 249.243C122.838 249.736 123.048 248.847 123.912 249.026C125.131 253.581 129.082 255.582 132.372 258.202C133.404 257.959 134.081 257.378 135.344 257.351C131.411 254.193 128.024 250.525 123.227 248.175C121.266 244.811 118.147 242.531 114.995 240.28C114.497 239.109 113.778 238.143 113.622 236.654C106.41 230.938 101.824 222.768 97.3902 214.46C95.7281 205.623 88.5463 200.098 87.7877 189.708C84.6902 186.696 86.3046 179.781 84.5845 174.985C83.6913 172.493 81.8706 171.435 81.84 169.011C81.0439 168.047 79.9188 167.39 79.3238 166.236C79.7295 164.151 78.0589 164.004 77.7248 162.609C77.926 160.43 77.5441 158.793 76.3525 157.915C74.0716 157.423 73.7324 158.742 73.608 160.263C77.1861 169.868 76.5298 183.426 83.8975 189.495V192.056C85.3176 195.214 86.279 198.797 88.2411 201.444Z" fill="#D7DBDB"/>
<path fill-rule="evenodd" clip-rule="evenodd" d="M161.145 205.639C162.375 206.311 164.525 207.168 166.212 206.71C165.415 202.599 160.267 202.527 159.302 198.573C158.617 198.495 158.132 198.231 157.689 197.929C155.058 191.81 150.704 187.292 146.402 182.727C145.967 182.415 146.373 181.325 145.94 181.015C144.283 179.202 141.902 178.06 141.794 174.805C139.695 174.329 139.896 171.716 137.878 171.164C136.101 167.249 133.772 163.844 130.507 161.312C130.065 161.403 129.514 161.392 129.584 161.957C128.686 164.151 131.482 164.759 131.889 166.453C135.417 175.166 142.22 180.83 145.94 189.365C152.085 193.79 156.339 199.973 161.145 205.639Z" fill="#D7DBDB"/>
<path fill-rule="evenodd" clip-rule="evenodd" d="M90.8311 255.285C86.8921 254.412 86.5112 250.148 83.4375 248.451C80.7748 244.3 76.7389 241.451 73.8055 237.558C73.3595 237.139 73.6618 236.339 73.8055 235.85C70.4862 233.543 68.2093 228.162 68.2027 224.104C64.3789 219.728 65.6936 211.592 62.376 206.59C64.3438 204.404 62.2307 201.581 61.9266 199.116C61.3754 194.615 59.4376 189.862 59.6882 184.807C59.745 183.67 60.48 182.573 60.5836 181.391C60.9978 176.692 59.187 171.838 60.5836 166.653C60.1125 165.679 60.1776 164.193 59.2388 163.663C58.4036 163.577 57.9242 163.835 57.8958 164.518C57.6335 168.854 56.9553 174.489 57.8958 178.614C55.5537 189.781 58.3184 199.747 59.6882 209.796C60.6303 216.704 66.1647 222.929 65.9609 230.511C69.6393 236.044 73.9007 241.025 77.6125 246.527C80.0631 247.754 81.9909 249.475 83.8869 251.226C84.7422 251.842 85.0913 250.567 85.9031 251.226C86.1855 255.416 91.5243 258.368 94.1938 261.691C96.469 262.313 98.8728 263.904 100.914 264.039C98.8979 262.113 94.8636 260.274 91.952 258.487C92.0823 256.941 91.1969 256.363 90.8311 255.285Z" fill="#D7DBDB"/>
<path fill-rule="evenodd" clip-rule="evenodd" d="M2.33783e-09 168.842C0.604595 169.058 0.846433 169.565 1.83134 169.473C2.51005 169.108 2.36377 168.081 2.35597 167.166C0.688458 167.017 0.290596 167.888 2.33783e-09 168.842Z" fill="#D7DBDB"/>
<path fill-rule="evenodd" clip-rule="evenodd" d="M2.42703 181.157C4.31308 179.011 4.68942 174.952 5.93613 171.222C2.40378 168.305 2.23378 177.319 2.42703 181.157Z" fill="#D7DBDB"/>
<path fill-rule="evenodd" clip-rule="evenodd" d="M0.0486617 169.485C-0.295634 170.08 1.27625 170.538 1.96009 170.11C1.09579 170.014 1.1694 169.457 0.0486617 169.485Z" fill="#D7DBDB"/>
<path fill-rule="evenodd" clip-rule="evenodd" d="M55.1538 242.881C50.6737 235.295 47.4094 226.582 43.7726 218.215C44.3753 217.843 44.2419 216.79 44.2385 215.855C41.2806 206.52 42.3578 195.108 38.4301 185.827H37.7322C37.0863 187.803 37.5417 190.795 36.804 192.69C37.4222 193.627 37.3027 195.112 37.0378 196.337C38.2743 201.061 39.1436 205.534 39.5939 210.278C40.5273 220.185 45.6707 230.104 50.2772 237.305C52.4124 240.644 53.8758 244.958 58.174 246.529C58.0147 244.53 56.5877 243.703 55.1538 242.881Z" fill="#D7DBDB"/>
<path fill-rule="evenodd" clip-rule="evenodd" d="M203.016 189.927C203.272 190.651 203.492 191.411 204.253 191.663C204.93 191.187 205.668 190.232 205.285 189.347C204.221 189.253 203.557 189.531 203.016 189.927Z" fill="#D7DBDB"/>
<path fill-rule="evenodd" clip-rule="evenodd" d="M32.7856 216.439C33.4375 211.182 31.1327 208.699 30.731 204.432C30.2289 199.977 31.8306 194.296 29.8169 190.496C25.8099 193.169 29.0697 200.717 27.3062 205.288C28.3922 209.024 28.1522 214.217 31.8715 216.439C31.4408 216.749 30.8604 216.917 30.9591 217.726C33.6996 227.732 37.9228 238.631 45.1146 243.027C44.0405 239.961 41.7748 238.015 40.0897 235.523C37.3338 229.465 35.841 222.218 32.7856 216.439Z" fill="#D7DBDB"/>
<path fill-rule="evenodd" clip-rule="evenodd" d="M6.26265 191.663C5.50045 193.776 6.26977 195.336 6.5832 197.5C8.01974 196.784 9.53227 192.318 6.26265 191.663Z" fill="#D7DBDB"/>
<path fill-rule="evenodd" clip-rule="evenodd" d="M12.1427 200.99C13.3939 199.299 12.7559 197.132 11.9347 195.42C11.2982 195.579 11.3215 195.034 10.685 195.196C10.9986 198.16 10.0765 203.53 12.5587 205.672C13.456 203.917 13.0431 202.335 12.1427 200.99Z" fill="#D7DBDB"/>
<path fill-rule="evenodd" clip-rule="evenodd" d="M86.9553 241.922C86.4974 241.562 85.268 241.94 84.9084 241.494C84.9339 241.087 85.6597 241.343 85.5902 240.849C79.3596 233.936 74.4128 226.151 72.3981 215.751C69.661 213.472 71.1601 207.196 67.6225 205.672C66.5423 205.868 66.7085 207.24 66.4846 208.246C68.116 210.656 68.3382 213.13 68.986 215.751C71.7113 226.819 77.2872 235.935 83.0888 242.994C90.3029 248.631 95.4058 256.261 104.016 260.582C104.017 261.367 104.662 261.546 104.925 262.085C108.321 263.1 110.202 265.544 113.796 266.374C114.24 265.934 115.059 265.851 115.161 265.088C102.915 260.048 94.9988 250.924 86.9553 241.922Z" fill="#D7DBDB"/>
<path fill-rule="evenodd" clip-rule="evenodd" d="M13.206 208.006C12.8177 209.376 13.0856 212.927 15.4339 213.843C15.2803 211.65 14.7487 209.757 14.0407 208.006H13.206Z" fill="#D7DBDB"/>
<path fill-rule="evenodd" clip-rule="evenodd" d="M24.8183 226.281C24.2189 225.528 23.7051 224.695 22.6516 224.349C21.986 226.242 25.093 226.239 24.1688 228.988C24.7569 228.868 25.8879 229.235 26.119 228.796C25.5421 228.149 24.8361 227.62 24.3837 226.862C24.4047 226.556 24.9379 226.71 24.8183 226.281Z" fill="#D7DBDB"/>
<path fill-rule="evenodd" clip-rule="evenodd" d="M155.55 232.821C156.072 233.301 157.153 234.124 157.901 233.406C157.696 232.1 156.747 231.722 155.787 231.353C155.587 231.696 155.475 232.139 155.55 232.821Z" fill="#D7DBDB"/>
<path fill-rule="evenodd" clip-rule="evenodd" d="M160.275 234.371V235.841C162.157 236.856 163.878 238.021 166.508 238.357C166.949 237.569 168.472 237.765 168.586 236.68C165.118 236.425 163.895 232.033 160.275 234.371Z" fill="#D7DBDB"/>
<path fill-rule="evenodd" clip-rule="evenodd" d="M173.414 240.692C173.983 240.283 174.682 239.991 174.49 238.857C172.688 237.094 170.847 240.554 173.414 240.692Z" fill="#D7DBDB"/>
<path fill-rule="evenodd" clip-rule="evenodd" d="M52.2385 245.381C52.2005 246.297 54.1 246.672 54.1499 245.694C53.7724 245.332 53.0244 245.339 52.2385 245.381Z" fill="#D7DBDB"/>
<path fill-rule="evenodd" clip-rule="evenodd" d="M159.117 250.351C160.122 250.298 161.017 250.13 161.026 249.098C160.342 248.516 158.863 249.049 159.117 250.351Z" fill="#D7DBDB"/>
<path fill-rule="evenodd" clip-rule="evenodd" d="M74.7952 250.031C75.9508 253.938 80.2401 254.795 83.1058 257.035C80.5801 254.462 78.8282 251.134 74.7952 250.031Z" fill="#D7DBDB"/>
<path fill-rule="evenodd" clip-rule="evenodd" d="M136.579 258.237C136.479 257.683 137.027 257.736 136.824 257.087C134.798 256.852 133.648 257.386 134.376 259.158C136.357 259.902 138.456 260.537 141.232 260.537C141.674 257.897 138.958 258.226 136.579 258.237Z" fill="#D7DBDB"/>
<path fill-rule="evenodd" clip-rule="evenodd" d="M83.1058 258.394C84.1016 258.961 85.3629 261.518 86.6674 260.129C85.3613 259.843 84.6991 257.532 83.1058 258.394Z" fill="#D7DBDB"/>
</g>
</g>
</svg>
