<svg width="91" height="158" viewBox="0 0 91 158" fill="none" xmlns="http://www.w3.org/2000/svg">
<g id="Footprint illustration">
<mask id="mask0" mask-type="alpha" maskUnits="userSpaceOnUse" x="5" y="43" width="81" height="59">
<path id="Fill 1" fill-rule="evenodd" clip-rule="evenodd" d="M54.9672 55.7678C47.0443 54.0467 19.2616 76.623 15.3341 90.288C12.6736 99.5569 31.1765 98.6401 43.1627 97.9107C47.9884 97.5817 51.6138 98.4781 54.7025 99.9462C58.0028 101.504 66.7237 103.936 80.5092 89.8269C84.6562 85.5844 86.8868 81.8316 85.4283 78.8447C82.554 72.9616 65.8921 78.5333 62.7347 79.2686C55.1468 81.026 51.1251 77.6506 53.2434 71.6935C55.0757 66.5452 61.5594 57.2115 54.9672 55.7678ZM10.4436 84.8793C11.6739 85.3538 11.751 86.5702 10.6096 87.5914C9.47254 88.6094 7.55882 89.0487 6.3297 88.5701C5.10099 88.0974 5.02391 86.881 6.16098 85.863C7.29624 84.8406 9.21582 84.3983 10.4436 84.8793ZM12.8023 78.3771C14.3394 78.9746 14.4274 80.5005 13.0099 81.773C11.5908 83.0455 9.18598 83.5982 7.64729 82.9998C6.10854 82.4006 6.01485 80.8803 7.43527 79.6053C8.86309 78.3274 11.262 77.7769 12.8023 78.3771ZM18.8035 70.1745C20.4781 71.3278 20.16 73.5968 18.0902 75.248C16.0292 76.8929 12.9861 77.3025 11.3174 76.147C9.63979 74.9961 9.96092 72.7256 12.0246 71.0758C14.0932 69.4296 17.1261 69.0261 18.8035 70.1745ZM29.2821 59.1769C31.342 60.5972 30.9466 63.3957 28.3924 65.4302C25.8458 67.4643 22.1075 67.9625 20.046 66.5422C17.9832 65.1235 18.3772 62.3273 20.93 60.2936C23.481 58.2581 27.2238 57.7584 29.2821 59.1769ZM31.801 55.5208C29.4639 52.983 30.694 48.6681 34.5496 45.8787C38.398 43.0948 43.4196 42.8914 45.7639 45.4245C48.0918 47.9627 46.8709 52.2771 43.0152 55.0657C39.1595 57.8543 34.1453 58.0539 31.801 55.5208Z" fill="white"/>
</mask>
<g mask="url(#mask0)">
<g id="Vector" opacity="0.6">
<path fill-rule="evenodd" clip-rule="evenodd" d="M33.8856 42.7192C33.5667 42.9179 32.8636 42.932 32.8184 43.2622C33.0125 43.4155 33.9407 43.0903 33.8856 42.7192Z" fill="#B1C7C7"/>
<path fill-rule="evenodd" clip-rule="evenodd" d="M30.2598 44.709C30.6907 44.6918 31.7285 44.4624 31.7723 44.0171C31.1845 44.2282 30.1942 44.8026 30.3622 44.292C30.2426 44.3609 29.9497 44.3955 29.9499 44.4883C30.1378 44.476 30.265 44.5248 30.2598 44.709Z" fill="#B1C7C7"/>
<path fill-rule="evenodd" clip-rule="evenodd" d="M37.8325 42.3759C39.7051 43.2366 41.9003 43.7301 43.5994 44.7879C44.8358 45.1408 45.6578 45.9653 47.0378 46.1553C47.0268 46.2751 46.8052 46.3335 46.8537 46.4696C47.4038 46.3542 47.6835 46.5456 47.8927 46.8179C48.0772 46.8016 48.3593 46.6745 48.4607 46.7527C50.406 48.4092 53.2999 48.9883 55.2376 50.6539C55.8358 50.5748 56.9655 50.2636 56.5636 50.9931C56.8507 51.0183 57.2948 50.8646 57.6243 50.8421C60.5056 51.4881 61.6431 54.1165 65.1891 54.0065C66.0152 54.5089 67.007 54.8232 68.1543 54.9607C68.1562 55.0377 67.9822 55.0635 68.0309 55.1545C68.6619 55.9313 70.5114 55.3233 71.0109 56.2508C71.1898 56.2579 71.4744 56.1459 71.5831 56.2327C72.3181 55.2768 71.209 55.3397 70.8733 54.8773C69.6168 55.2155 69.0039 54.822 68.646 54.1383C67.6528 53.8956 66.6107 53.7092 65.9571 53.0804C65.4336 53.3067 65.2697 53.1236 64.8912 53.1846C64.4299 52.425 63.133 52.6159 62.4835 52.0706C62.4772 51.992 62.6731 51.9718 62.6818 51.8983C61.6171 51.9826 61.2147 51.3148 60.638 50.8448C60.3862 50.8676 59.9754 51.0707 59.7941 51.0132C59.7887 50.8739 60.0808 50.8206 60.0468 50.6729C59.7538 50.584 59.3552 50.6155 59.2245 50.3417C58.7184 50.5655 58.4658 50.501 58.3569 50.2732C58.3334 50.0981 58.8455 50.078 58.8216 49.903C58.35 49.8414 57.6022 50.0939 57.1786 49.977C57.2834 49.6773 57.297 49.4982 57.0478 49.3871C56.8556 49.3271 56.8453 49.5229 56.638 49.5898C55.2087 48.823 53.2205 48.6916 52.2561 47.3967C51.7473 47.0434 50.59 47.4265 50.3938 46.7175C49.1313 46.7817 48.6582 45.9476 47.5762 45.8059C47.2137 44.8997 46.159 44.78 45.1591 44.5976C45.0684 44.2967 44.716 44.2926 44.5989 44.021C44.0155 44.1085 43.4601 43.9265 43.5361 43.4358C43.3299 43.4595 43.041 43.577 42.8352 43.6002C42.7351 43.4497 42.5389 43.4088 42.5705 43.1095C41.1693 42.9966 40.3723 42.1969 38.8895 42.1772C38.9633 42.0914 38.9506 41.9804 38.9296 41.8673C38.1602 41.7588 37.3524 41.8504 36.4328 42.0153C36.6815 42.3837 37.3418 42.2833 37.8325 42.3759Z" fill="#B1C7C7"/>
<path fill-rule="evenodd" clip-rule="evenodd" d="M33.5759 43.2373C33.6646 43.3468 34.2025 43.0421 34.1422 42.8811C33.9468 42.9982 33.4592 43.0207 33.5759 43.2373Z" fill="#B1C7C7"/>
<path fill-rule="evenodd" clip-rule="evenodd" d="M69.0257 57.024C68.2402 56.1243 66.5202 56.2877 65.5818 55.5624C64.1736 55.8457 64.0119 54.7116 62.523 55.0859L62.4946 54.8018C61.3589 54.7053 61.0943 53.6177 60.1898 53.2579C60.2767 52.6419 59.5293 52.5861 58.97 52.5357C58.2838 51.9811 57.3485 51.7086 56.229 51.6459C56.6136 53.441 59.5794 53.0378 60.1793 54.5879C59.5029 54.6538 59.4479 54.0139 58.5095 54.3774C58.3442 54.2847 58.1778 54.1925 58.1765 53.9129C56.5163 54.0961 56.4324 52.4862 55.1426 52.2489C54.9695 51.7378 54.4269 51.4593 53.9496 51.0744C53.8753 50.9572 53.8571 51.2229 53.6777 51.2256C53.4878 50.914 52.928 51.0235 52.8283 50.6101C52.6915 50.5723 52.3325 50.7872 52.2608 50.6748C52.3137 50.5679 52.4409 50.483 52.3705 50.3395C52.1242 50.2504 51.6799 50.3866 51.4989 50.2236C51.4323 50.0973 51.6799 50.0615 51.6133 49.9352C51.1448 49.9698 50.9973 49.6172 50.8224 49.1997C50.5912 49.303 50.1384 49.5797 49.9245 49.5356C49.9427 49.4186 50.2906 49.3975 50.3297 49.2859C49.9518 48.7837 49.3883 48.494 48.534 48.5338C48.1403 47.8742 47.2414 47.7891 46.6903 47.3084C46.6925 47.4954 46.5063 47.5943 46.2904 47.6052C46.1772 47.4037 46.4345 47.31 46.3857 47.1273C45.3856 46.7681 44.1038 46.456 43.592 45.7172C41.8471 45.6099 40.8827 44.6157 39.3599 44.2558C39.3846 44.0869 39.2909 44.0531 39.2576 43.9502C38.1629 44.0174 37.3839 43.726 36.4945 43.5597C36.2854 42.9343 35.2058 43.0247 34.3221 43.3414C34.6649 43.6371 35.224 43.6864 35.7943 43.7235C35.8187 43.8074 35.7264 43.8573 35.7442 43.9385C37.6946 44.1809 38.9498 45.2142 40.655 45.7354C40.7554 45.8568 40.4356 45.8552 40.536 45.9766C41.2479 46.2386 41.9067 46.5618 42.4982 46.9611C45.3332 47.3756 47.2129 48.8757 49.5936 49.8069C50.2058 50.7267 51.1885 51.2268 51.96 51.9662C54.1233 52.3007 55.0511 54.0401 56.9615 54.6621C57.1421 54.6674 57.354 54.6376 57.4689 54.7176C58.3262 55.1661 59.2008 55.5953 60.7489 55.2586C61.1874 55.6554 61.7675 55.8928 62.599 55.8435C63.2733 56.3597 64.294 56.482 65.1977 56.7371C65.2925 56.766 65.3038 56.8786 65.2214 56.9739C65.6947 57.0684 66.2372 57.0841 66.6788 57.2143C66.8144 57.3943 66.9908 57.5278 67.1557 57.6744C68.3818 57.4574 68.5971 58.3899 69.9183 58.0648C70.2636 58.7272 71.2983 58.6048 72.1334 58.7098C71.7317 57.4264 70.1878 57.4423 69.0257 57.024Z" fill="#B1C7C7"/>
<path fill-rule="evenodd" clip-rule="evenodd" d="M44.7432 39.5344C44.7583 39.2068 44.4187 39.2958 44.0316 39.4411C44.0199 39.7647 44.316 39.7264 44.7432 39.5344Z" fill="#B1C7C7"/>
<path fill-rule="evenodd" clip-rule="evenodd" d="M45.2433 42.0908C44.8825 42.734 45.7683 43.2302 46.6241 43.005C46.6903 43.1318 46.4443 43.1668 46.5104 43.294C46.619 43.3111 46.7986 43.2476 46.8697 43.3074C48.973 45.1288 51.8486 46.0683 54.6969 47.0398L54.7159 47.2298C55.7295 47.3799 56.2959 48.0409 57.1258 48.4006C57.2885 48.3386 57.3375 48.4064 57.5451 48.293C58.2212 48.7051 59.1484 48.8302 59.7295 49.3506C59.917 49.4364 60.2452 49.3626 60.4534 49.4252C60.4966 49.782 60.8659 49.7671 61.2707 49.7113C61.464 50.4095 62.0826 50.6214 62.8048 50.7161C62.6876 50.8051 62.5732 50.8947 62.6211 51.0316C63.8976 50.9524 64.7296 51.3801 65.3718 52.0256C65.5483 52.0008 65.7483 51.9491 65.9986 51.8404C67.3525 52.9975 69.8379 52.8634 71.6151 53.5378C71.3587 53.1593 71.1631 52.7109 70.5337 52.7587L70.5051 52.4733C70.0033 52.2325 69.3789 52.1332 68.9353 51.8273C67.4539 51.9456 67.043 50.8425 65.6815 50.8243C65.5898 50.6288 65.4074 50.5366 65.2145 50.4565C65.0311 50.5244 64.8218 50.6218 64.7262 50.5895C64.64 49.9262 63.4079 50.1175 63.0498 49.5887C63.0442 49.4635 63.3399 49.4283 63.233 49.2734C62.3454 49.1916 61.5081 49.052 61.201 48.307C60.5904 48.1911 59.7609 48.326 59.3747 47.954C59.1036 48.0687 58.8924 48.1153 58.8074 48.0184C58.6981 47.1092 57.0022 47.577 56.8662 46.5244C56.6261 46.4417 56.6734 46.8338 56.4022 46.8951C55.994 47.0066 55.657 46.7572 55.7829 46.436C55.985 46.4002 55.8582 46.7389 56.1566 46.5923C56.3557 46.5587 56.3291 46.4583 56.4968 46.4158C56.5456 46.1666 56.3564 46.1877 56.2522 46.1126C55.0626 46.6047 54.8159 46.0206 53.961 46.1311C52.3273 45.4659 50.5698 44.4929 48.9131 43.6778L48.8797 43.3452C47.2327 42.7873 45.7617 42.0285 44.3635 41.1862C44.0294 41.2325 43.4718 41.533 43.4369 41.2371C43.7192 41.026 43.9102 41.3168 44.354 41.0912C44.3637 40.8684 44.1418 40.9094 44.0399 40.8141C42.6324 41.7128 42.179 39.7263 41.1913 40.9917C42.6626 41.2204 43.269 42.4357 45.2433 42.0908Z" fill="#B1C7C7"/>
<path fill-rule="evenodd" clip-rule="evenodd" d="M28.2222 45.9048L28.2038 45.7219C27.9003 45.6013 27.1928 46.1265 27.0037 46.4243C26.8325 46.5129 27.0155 46.131 26.7688 46.322C26.5637 46.427 26.453 46.5737 26.4385 46.7623C27.0777 46.7181 27.6938 46.1879 28.2222 45.9048Z" fill="#B1C7C7"/>
<path fill-rule="evenodd" clip-rule="evenodd" d="M71.9259 60.2191C71.7584 60.1988 71.3968 60.401 71.2923 60.3092C70.8674 59.8111 70.2557 59.5253 69.3629 59.5604C69.4587 59.3638 69.3284 59.3862 69.325 59.1824C66.2557 58.5033 63.4037 57.5774 60.5774 56.6217C60.5056 56.4782 60.6612 56.4018 60.6135 56.265C60.3251 56.3122 60.1161 56.2698 59.7685 56.3849C57.7051 55.3503 54.9842 55.0635 53.4116 53.4693C52.3543 53.2278 51.3478 52.8189 50.7586 51.9127C50.4879 51.8341 50.0751 51.9191 49.8217 51.8216C49.7036 51.2314 48.7271 50.9678 48.5918 50.2231C48.354 50.1429 47.9233 50.2828 47.7279 50.1542C47.7941 49.992 47.7827 49.8786 47.69 49.7762C46.7909 50.1513 46.987 49.2794 46.2344 49.4875C46.1686 49.3301 46.3315 49.2407 46.2652 49.0838C46.0534 49.1141 45.7629 49.2356 45.6956 49.1007C45.7356 48.9154 45.5754 48.9571 45.5938 48.7956C43.5728 48.5188 42.2112 47.4914 40.2237 47.1769C39.7143 46.2287 38.2254 46.1231 37.7527 45.3074C37.4192 45.2491 37.0006 45.2872 36.7383 45.1478C35.8421 44.3264 33.9413 44.6497 32.5906 44.3462C32.3833 44.3101 32.004 44.4425 31.8343 44.6291C31.8676 45.2054 32.4676 45.1359 33.1521 44.9698C33.2018 45.1054 33.0209 45.2103 33.1805 45.253C35.9218 44.8674 36.8731 46.5204 38.9145 46.9317C38.937 47.045 38.821 47.1184 38.8013 47.2189C39.37 47.2196 39.5731 47.6381 39.8086 48.0185C40.1885 48.1468 40.7584 48.059 41.1771 48.1436C40.8569 49.2486 43.0572 48.3371 43.0847 49.3914C43.6007 49.0628 44.2687 49.1999 44.3304 49.7093C44.5015 49.7074 44.7519 49.6149 44.8948 49.6451C46.0152 50.6497 47.8603 50.8279 48.9039 51.9201C48.8934 52.0388 48.8135 52.1378 48.8683 52.2766C50.7442 53.5424 52.6136 54.8173 54.8462 55.6775C56.9624 56.3364 58.7215 57.4022 61.1815 57.67C61.3713 58.0149 61.7322 58.1657 62.2296 58.1602C63.0129 58.7947 64.1971 58.9711 65.2029 59.3517C65.3379 59.6371 65.6986 59.6644 66.2179 59.5115C67.2582 59.87 68.3624 60.1561 69.6443 60.2394C69.8121 60.8732 70.5613 60.8439 71.2118 60.9277C71.3504 61.4189 71.8608 61.486 72.3475 61.5809C72.5774 60.987 71.9073 60.9142 71.9259 60.2191Z" fill="#B1C7C7"/>
<path fill-rule="evenodd" clip-rule="evenodd" d="M46.3089 39.8204C46.1343 39.5752 45.8076 39.521 45.1883 39.8324C45.2597 40.1717 45.9444 40.246 46.3089 39.8204Z" fill="#B1C7C7"/>
<path fill-rule="evenodd" clip-rule="evenodd" d="M31.1629 47.3013C32.451 46.8401 33.7067 46.9214 33.7689 47.5105C34.8849 47.7047 36.0552 47.8367 37.1944 48.0053C37.579 48.3815 38.2263 48.7331 39.2919 48.1579C38.305 47.2158 36.3113 47.4213 35.1894 46.6338C34.6272 46.8154 34.3917 46.6243 34.2274 46.3525C33.9647 46.3864 33.6429 46.4884 33.4471 46.4469C32.7402 45.698 30.8022 46.3519 29.8695 45.8607C29.3023 46.0832 28.7606 46.2766 28.2727 46.4091C28.4421 47.2502 30.799 46.3469 31.1629 47.3013Z" fill="#B1C7C7"/>
<path fill-rule="evenodd" clip-rule="evenodd" d="M46.0649 40.7872C46.2016 40.8616 46.5825 40.6589 46.6457 40.8163C46.7028 41.3326 47.3846 41.5037 48.0182 41.5335C48.3664 42.0198 48.8215 42.3847 49.5537 42.436C49.4588 42.5321 49.4382 42.6484 49.4425 42.7727C50.6704 42.9872 51.1035 43.7776 52.2471 44.0865C52.3019 44.2407 52.0123 44.2954 52.067 44.4497C53.3463 44.3917 53.5014 45.6069 55.2314 45.0383C55.4022 45.3558 55.9449 45.2515 56.0184 45.6791C56.3962 45.6919 56.7071 45.7797 57.1757 45.6892C58.9775 46.7824 61.4226 47.1476 63.1465 48.3294C63.1499 48.4496 63.1596 48.5616 63.2451 48.588C63.5214 48.5074 63.597 48.3529 63.7373 48.4527C63.7194 48.6018 63.5056 48.6935 63.5614 48.8631C66.1896 48.7392 67.2502 50.3908 69.1974 51.0377C69.1259 51.2171 69.0019 51.3824 69.2354 51.4176C69.6005 51.3574 69.4888 51.0065 69.7782 51.0671C69.9993 51.6615 70.8203 51.5772 71.4337 51.7276C71.0207 51.2068 70.6472 50.1889 69.3591 50.4854C69.3947 50.3572 69.5773 50.2716 69.6135 50.1439C68.5969 49.781 67.7554 49.2193 67.0639 48.4885C65.3181 48.282 63.7291 47.8982 62.7761 46.794C61.4733 46.3105 59.7224 46.0681 58.801 45.3275C58.214 45.3929 57.751 45.3191 57.212 45.331C56.0043 44.2864 53.6832 44.5028 52.4731 43.4606C52.2877 43.3894 51.9542 43.4855 51.8132 43.3628C51.5929 42.0938 49.8379 41.8008 48.5152 41.4459C48.6037 40.6737 47.3579 41.0384 47.6158 40.4042C47.149 40.4749 46.8297 40.3789 46.6492 40.1257C46.4713 40.1508 46.2697 40.203 46.0174 40.3128C45.9308 40.4267 46.1022 40.5681 46.0649 40.7872Z" fill="#B1C7C7"/>
<path fill-rule="evenodd" clip-rule="evenodd" d="M18.241 53.7249C18.3337 53.7613 18.4885 53.7263 18.6668 53.6647C20.0032 52.4006 22.1759 51.2428 24.4064 50.6248C25.3676 50.7243 26.857 50.2967 27.8863 50.1665C30.657 49.0816 32.4531 49.568 34.2514 49.7702C34.5435 49.6498 34.7071 49.6763 34.9549 49.6065C35.578 50.4225 37.718 49.5055 38.3372 50.3259C38.5937 50.2459 38.7327 50.3 38.9758 50.2358C38.9521 50.4225 39.0791 50.4375 39.1474 50.5189C42.6452 51.1067 45.7671 52.1233 48.1327 54.0046C48.3929 53.8651 48.5336 53.6901 48.807 53.5541C48.6786 53.3221 48.6404 53.1389 48.4532 52.8926C47.4561 52.7884 46.9307 52.1441 46.4386 51.463C45.4767 51.4425 44.9385 50.9384 44.1996 50.6636C44.0418 50.5499 43.851 50.9379 43.714 50.8452C43.0955 49.6683 40.9323 50.2567 40.2364 49.1686C39.4553 49.523 39.1227 49.2023 38.3197 49.4391C37.0131 49.0138 35.279 49.0762 34.2515 48.3311C33.9764 48.333 33.7199 48.52 33.4194 48.6424C33.1223 48.5201 32.8179 48.4057 32.5198 48.2842L31.9649 48.4918C31.3426 48.0476 29.5872 48.8988 29.5873 47.7442C29.1486 47.7829 28.5583 47.9956 28.4942 47.6071C27.5677 47.7417 26.6663 47.8477 25.8558 47.8498C24.6637 48.5772 24.0252 48.4006 22.6743 49.1394C23.3629 49.0024 23.941 49.4657 24.7343 48.8649C24.6296 48.8955 24.4801 48.9777 24.4524 48.9208C24.7359 48.7729 24.9545 48.6046 25.3441 48.4877C26.3449 48.9075 28.3436 48.1876 29.2525 48.7129C26.8159 49.9192 24.6958 49.3739 22.115 50.7376C21.8592 50.7815 21.7714 50.6331 21.4024 50.8059C21.1494 51.1025 21.0617 51.4479 20.331 51.6032C20.1799 52.3708 18.8106 52.5301 18.3264 53.1473C18.4618 53.1174 18.6275 53.0525 18.6189 53.1866C18.5216 53.3292 17.9511 53.7708 18.241 53.7249Z" fill="#B1C7C7"/>
<path fill-rule="evenodd" clip-rule="evenodd" d="M49.6615 39.6928C49.444 39.7484 49.1093 39.5517 48.9267 39.8234C49.1224 39.7941 49.5291 39.9012 49.6615 39.6928Z" fill="#B1C7C7"/>
<path fill-rule="evenodd" clip-rule="evenodd" d="M53.4928 41.2679C53.7086 40.9947 53.2148 41.0541 53.0895 40.9813C53.3679 40.4405 52.6416 40.5785 52.296 40.5491L52.2537 40.1275C51.7085 40.0144 50.9661 40.0145 50.4446 40.0266C50.3762 39.9021 50.6878 39.8762 50.5655 39.7382C50.3748 39.7708 49.8545 39.8951 49.6986 40.0625C50.7146 40.6677 51.8259 41.7211 53.4928 41.2679Z" fill="#B1C7C7"/>
<path fill-rule="evenodd" clip-rule="evenodd" d="M55.6632 39.9194C55.7029 39.6493 54.9066 39.8225 54.5339 39.8053C54.8547 39.8982 55.0996 40.0662 55.6632 39.9194Z" fill="#B1C7C7"/>
<path fill-rule="evenodd" clip-rule="evenodd" d="M70.8213 65.8335C70.589 65.3225 69.9388 65.287 69.3218 65.2137C69.3376 65.002 69.2509 64.9068 69.1402 64.8389C68.9921 64.778 68.6296 64.9617 68.4335 64.9555C68.2591 64.52 67.5961 64.6397 67.4241 64.2015C65.6579 64.5544 65.5537 63.0174 64.0096 63.1174C63.9399 63.0206 63.8938 62.897 63.8977 62.7166C62.3515 62.9773 62.1822 61.6732 60.7841 61.7652C60.7593 61.0369 60.2104 60.9045 59.4189 61.0465C59.3155 60.9883 59.3257 60.8007 59.243 60.7187C58.9407 60.7276 58.6215 60.7557 58.3779 60.6979C57.1813 59.364 55.0004 59.1499 53.4586 58.2089C52.7103 58.1613 52.0061 58.063 51.7326 57.4769C50.8193 57.3175 50.0243 57.024 49.6031 56.3057C48.8105 56.5544 48.9694 55.7233 48.6529 55.4309C48.4451 55.4738 48.2189 55.5371 48.0846 55.496C47.6441 54.7996 46.8299 54.5279 46.4072 53.8113C46.3201 53.787 46.1571 53.8491 45.9868 53.919C45.9619 53.4999 44.9213 53.171 44.3347 53.2092C43.6627 52.5818 42.8215 52.1471 41.6374 52.1026C41.5642 51.6924 40.9638 51.8818 40.8589 51.5084C38.744 51.4823 37.1317 50.8853 35.1717 50.6839C34.88 50.804 34.7172 50.778 34.4692 50.8484C34.138 50.2215 32.8608 50.6699 32.2631 50.3451L31.6398 50.5782C29.2396 50.5595 26.2416 51.0607 22.7708 52.4199C22.6727 52.4085 22.665 52.2937 22.5443 52.308C19.8347 53.469 17.2916 55.2691 15.171 56.8865C15.1475 57.1711 14.7743 57.354 14.8171 57.6582C16.2408 56.8971 17.3275 56.2162 18.2539 55.3889C19.5034 54.883 20.2656 54.1064 21.5597 53.9553C21.765 53.785 21.9978 53.6227 22.2284 53.4591C24.7319 52.5032 27.2433 52.0119 29.7099 51.3985C30.0374 51.5023 30.3071 51.6702 30.7419 51.6521C31.6395 51.4946 32.4621 51.4224 32.9095 51.7758L33.5327 51.5427C37.0902 52.0595 40.9925 52.1839 43.4078 53.9987C45.4589 54.3608 46.8429 55.4811 48.4564 56.341C48.512 56.5106 48.3567 56.6182 48.431 56.7932C49.8824 58.2595 52.2721 58.6589 53.9804 59.834C56.7568 60.0404 58.1054 61.8708 60.3066 62.7313C60.4798 62.781 60.7684 62.6991 60.9537 62.7354C61.1607 63.1865 61.6865 63.2755 61.9772 63.6315C63.7834 63.7093 64.5238 64.9978 66.4227 64.9696C67.2961 65.7198 68.4226 66.1831 69.8605 66.2912C69.8908 66.4379 69.7582 66.5374 69.8294 66.6964C70.3242 66.6686 70.5477 67.0596 71.1836 66.5834C71.0959 66.9646 71.7368 66.518 72.0334 66.4621C72.0612 66.649 72.308 66.7859 72.5468 66.5653C72.3511 66.1422 71.8933 65.5513 70.8213 65.8335Z" fill="#B1C7C7"/>
<path fill-rule="evenodd" clip-rule="evenodd" d="M57.5146 41.7945C57.6935 42.2689 58.1905 42.686 58.5814 43.0797L59.0689 42.8973C59.4332 43.5631 60.214 43.7559 60.462 44.5553C61.3484 44.7337 62.1649 44.9922 62.8557 45.3936C62.7646 45.585 62.8523 45.6124 62.8939 45.7752C64.552 46.6886 66.6071 47.1499 68.3144 48.0076C68.337 48.389 68.6858 48.4 69.1369 48.2941C69.3033 47.6945 69.0099 47.682 68.8183 47.274C68.718 47.2292 68.4225 47.4054 68.3222 47.3606C67.843 46.3109 66.5435 46.194 65.3644 45.9408C63.8771 44.8838 62.026 44.2989 60.6018 43.0665C60.6985 42.9731 60.7711 42.946 60.8798 42.9625C59.0061 42.3299 57.7744 40.9665 55.8573 40.3834L55.7188 40.4352C56.1503 41.0788 56.4276 41.8971 57.5146 41.7945Z" fill="#B1C7C7"/>
<path fill-rule="evenodd" clip-rule="evenodd" d="M55.4818 42.6033C54.7488 42.789 54.5272 42.3659 54.1888 42.0807C54.183 41.8285 54.679 41.7435 54.7529 41.5175C54.0521 41.7012 53.6854 41.487 52.9157 41.752C52.7754 41.9463 53.0223 42.0265 52.9691 42.2853C53.5698 42.2245 53.9705 42.6604 53.8777 43.1028C54.1003 43.1456 54.5285 42.943 54.6382 43.1199C54.7139 43.3016 54.5314 43.3976 54.5438 43.5576C56.4174 43.6238 57.4618 44.9663 59.1723 45.0458C58.3122 43.8452 56.6998 43.5407 55.3119 42.9684C55.3999 42.8575 55.5698 42.7733 55.4818 42.6033Z" fill="#B1C7C7"/>
<path fill-rule="evenodd" clip-rule="evenodd" d="M61.8742 42.1571C61.1806 41.3634 60.3214 40.7823 59.0921 40.5148C59.9818 41.1536 60.476 42.0584 61.8742 42.1571Z" fill="#B1C7C7"/>
<path fill-rule="evenodd" clip-rule="evenodd" d="M14.0498 60.3107C14.1699 60.1776 14.1026 59.9885 14.2915 59.8756C15.9848 58.8578 17.8488 57.89 19.6225 56.8954C20.2569 56.9484 20.5773 56.392 21.3987 56.1325C21.6494 56.0795 21.3347 56.3424 21.6236 56.2453C22.4032 55.6328 23.8714 55.4284 24.6227 54.8772C25.4541 54.5637 25.9739 54.8198 26.7801 54.3661C27.0206 54.4437 27.4007 54.3618 27.8985 54.1443C29.6354 54.4682 32.7606 53.2018 33.9561 54.1464C34.5309 53.9821 34.6711 54.3156 35.3671 54.013C37.7155 54.9255 40.6073 55.2165 42.8593 56.2385C42.9382 56.4053 42.9432 56.4549 42.9022 56.6665C43.7687 56.3269 44.0801 56.6242 44.3571 56.9598C45.5795 56.8841 46.0083 57.7171 47.3351 57.5225C46.5401 56.1899 44.2684 56.0907 42.7093 55.4567C42.3331 54.9693 41.927 54.5163 40.8642 54.8161C40.8739 54.6963 41.0934 54.6384 41.0462 54.501C39.5572 54.5299 39.23 53.2266 37.3972 53.6476C33.7258 52.2042 27.3493 52.5816 20.3159 55.995C20.1182 55.9569 19.8632 55.9843 19.4777 56.1608C19.0737 56.4711 18.6636 56.7792 18.2886 57.0985C18.0734 57.1511 18.0854 56.9426 17.8525 57.015C16.7964 57.5357 15.8315 58.3138 14.8144 58.6939C14.6476 59.1823 13.654 59.4249 13.7325 59.9862C13.3476 60.0096 13.038 60.4147 12.8733 60.6527C13.3561 60.5614 13.5259 60.6706 14.0498 60.3107Z" fill="#B1C7C7"/>
<path fill-rule="evenodd" clip-rule="evenodd" d="M61.8195 41.2675C61.8359 40.9904 61.5846 41.0275 61.3915 40.9962C61.3785 41.2693 61.5094 41.3744 61.8195 41.2675Z" fill="#B1C7C7"/>
<path fill-rule="evenodd" clip-rule="evenodd" d="M12.3203 62.8565C12.8079 62.4923 13.4343 62.1681 13.8623 61.7864C14.0283 61.8097 14.261 61.7562 14.5636 61.6227C15.26 61.1807 15.9901 60.7487 16.7289 60.3188C18.2018 59.7866 19.7261 59.1045 20.9126 58.4082C22.5588 57.732 23.8508 57.6827 25.5552 56.7705C25.7466 56.7641 25.721 57.0049 25.9978 56.9013C26.6433 56.5976 27.2746 56.2908 27.9148 55.9865C29.2971 56.177 31.3388 55.615 32.6405 55.8978L33.3317 55.6392C33.3454 55.8181 33.4315 55.914 33.5128 56.0158C34.9653 55.4721 35.0564 56.4816 36.4528 56.0019C37.3948 56.2179 38.1727 56.6208 39.2471 56.685L39.2757 56.9706C41.0657 57.1201 42.25 57.9606 44.1153 58.0238C44.077 58.2443 44.2719 58.1986 44.2921 58.3526C45.4834 58.2486 45.9792 58.9374 47.3341 58.647C48.453 60.2163 50.9554 60.2067 52.3501 61.4608C55.1247 61.3704 56.0276 63.4162 58.0728 64.1589C60.0943 65.7759 62.6256 66.812 65.3748 67.5992C65.3628 68.0726 65.9695 67.8402 65.9494 68.3226C67.4715 68.6595 69.5232 68.1596 70.2912 69.4136C71.0163 69.1085 71.3873 69.7799 72.0482 69.0527C71.7795 68.9231 71.3004 68.9772 71.4884 68.4725C71.2218 68.305 70.923 68.3866 70.6155 68.3544C70.5295 68.2054 70.3565 68.1553 70.2915 67.9819C69.1535 67.7421 67.9973 67.5234 66.7221 67.4409C66.1297 66.8445 65.3976 66.4072 64.3189 66.3649C64.1534 65.8286 63.5253 65.821 62.9643 65.736C62.6689 65.1195 62.0771 64.8395 61.1625 64.9287C60.5088 63.4119 58.3583 63.603 57.4623 62.363C57.28 62.2884 56.9242 62.4104 56.7424 62.336C54.0794 60.4598 50.7047 59.3968 47.5632 58.0673C47.5986 57.9031 47.4747 57.9204 47.465 57.8077C46.8481 57.5751 45.7713 57.8663 45.4745 57.2687C45.2646 57.2662 45.2231 57.4548 44.9214 57.4756C43.8091 57.0123 42.2634 57.0434 41.621 56.0436C41.4518 56.0424 41.1422 56.2021 40.9898 56.1811C40.8883 56.1557 40.9005 56.0002 40.8873 55.8741C39.2406 55.985 38.2308 55.37 37.063 54.9348C35.8057 55.3992 35.2862 54.7031 34.5289 54.6974C34.1601 54.6947 33.6518 54.9106 33.2554 54.8774C32.8444 54.8434 32.8217 54.7496 32.3135 54.7855C30.9168 54.8842 29.7893 54.6581 27.8671 55.5107C27.2182 55.4557 26.0515 55.9918 25.5284 55.7929C25.4192 55.8993 25.3095 56.0055 25.0539 56.0694C21.9213 56.9361 18.2814 58.4728 15.584 60.3521C13.4195 60.932 13.1108 62.0572 11.7481 62.8732C11.7493 63.1198 11.6171 63.3275 11.6767 63.5912C12.0505 63.3933 12.4606 63.2056 12.69 62.9652C12.5561 62.9413 12.2268 63.1403 12.3203 62.8565Z" fill="#B1C7C7"/>
<path fill-rule="evenodd" clip-rule="evenodd" d="M64.27 43.6755L64.2101 43.0781C63.3203 42.9942 62.7387 42.5756 61.9288 42.4049C61.7799 43.0986 62.8195 42.9259 62.8584 43.5838C63.4144 43.5212 63.7933 43.6515 64.27 43.6755Z" fill="#B1C7C7"/>
<path fill-rule="evenodd" clip-rule="evenodd" d="M12.9906 64.8405C13.1553 64.7511 12.9274 64.5468 13.1694 64.4794C13.7834 64.3277 14.2501 64.0803 14.7536 63.7884L14.7109 63.363C15.9683 62.9731 16.8301 62.1439 18.3412 61.5629C18.6027 61.3755 18.2009 61.2802 18.5849 61.1281C18.9285 60.9144 18.7661 61.2733 19.0197 61.1617C21.8946 58.9207 24.4588 59.8264 27.6444 58.2791C28.789 58.2981 29.871 58.3882 31.3567 58.0194C32.9013 58.0938 34.2414 58.4005 35.9813 58.2532C36.9387 58.6771 38.425 58.5018 39.1649 59.1728C39.477 59.0945 39.574 58.9547 39.8524 58.8666C43.2219 59.9615 46.6361 61.006 49.8944 62.2277C49.8591 62.4258 50.0018 62.4225 50.0021 62.5801C52.2414 63.271 54.3229 64.1411 56.0382 65.4269C57.3025 65.4151 57.8718 66.1917 59.3916 65.8907C58.5771 64.6192 56.3318 64.9706 55.6362 63.5649C52.4655 62.7686 50.3715 60.4899 46.7313 60.0734C46.8977 59.9526 47.1325 59.8523 47.3453 59.7453C46.7078 59.395 45.6225 59.8763 45.2769 59.1935C44.5814 59.4734 44.3941 59.1765 44.1707 58.9201C42.9003 59.063 42.5355 58.177 41.3035 58.2748C41.217 58.2145 41.1927 58.0846 41.1313 57.9956C40.3247 58.1029 39.4685 58.2659 39.2351 57.723C38.5402 57.95 38.3336 57.6218 37.9862 57.4542C37.8074 57.4464 37.4477 57.6436 37.2834 57.6187C37.1822 57.5932 37.1941 57.4391 37.1805 57.3139L36.6267 57.5211C35.9421 57.3318 35.4706 56.9007 34.2359 57.3354C33.4562 57.2718 32.9516 56.8951 31.8494 57.1973C31.6538 57.1387 31.5164 57.0133 31.3222 56.9528C31.0765 57.0205 30.8636 57.0511 30.5549 57.1904C29.904 56.7704 28.2023 57.5409 27.3372 57.3635C26.5102 57.9411 25.5805 57.7933 24.5651 58.4004C23.9899 58.2116 22.48 58.6281 21.7709 59.2001C19.5292 59.6781 17.3486 61.2638 15.2443 62.2303C15.1668 62.4836 15.0501 62.7256 14.7374 62.911C13.7253 63.1117 12.458 63.943 12.2542 64.6743C12.1629 64.8006 11.8012 64.8496 11.7099 64.9763C11.7119 65.3595 11.2364 65.6054 11.1622 65.9665C11.4875 65.7998 11.7802 65.6241 12.1182 65.4615C12.0142 65.0659 12.4427 64.8705 12.9906 64.8405Z" fill="#B1C7C7"/>
<path fill-rule="evenodd" clip-rule="evenodd" d="M65.0881 43.6378C65.0399 43.7183 65.0162 43.8083 65.0491 43.9205C65.2688 43.9523 65.5577 43.8963 65.7894 43.9121C65.7112 43.6228 65.518 43.4802 65.0881 43.6378Z" fill="#B1C7C7"/>
<path fill-rule="evenodd" clip-rule="evenodd" d="M65.0484 43.9809C65.2265 44.056 65.3744 44.1665 65.6635 44.1109C65.6917 43.8407 65.2567 43.7158 65.0484 43.9809Z" fill="#B1C7C7"/>
<path fill-rule="evenodd" clip-rule="evenodd" d="M13.3448 66.562C14.2342 65.4879 16.211 64.744 17.3186 63.7362C18.1115 63.6515 18.4809 62.946 19.1653 63.0454C20.2289 62.1095 21.8998 61.2648 22.9242 60.2012C21.634 59.969 19.6107 61.7369 18.3757 62.2499C18.0268 62.8696 16.7233 63.2001 16.1857 63.7632C15.9182 63.9124 15.9664 63.6969 15.6979 63.8466C14.0371 65.0724 12.3529 66.2915 10.7461 67.5341C10.6925 67.7746 10.9467 67.8204 10.794 68.0121C10.3273 68.1796 9.93751 68.3698 9.93838 68.6794C10.0804 68.7823 10.4352 68.6388 10.7736 68.516C11.5517 67.8403 12.1962 67.1244 13.3448 66.562Z" fill="#B1C7C7"/>
<path fill-rule="evenodd" clip-rule="evenodd" d="M68.4299 70.2619C68.3076 69.485 67.007 70.0471 66.6974 69.4823C66.0678 69.6521 65.6115 69.6247 65.2587 69.4793C64.1053 68.3429 61.8096 68.503 60.7894 67.214C60.5896 67.248 60.6173 67.3478 60.4474 67.3915L60.4189 67.1064C59.6715 67.3042 59.3371 67.033 59.0172 66.745C57.4545 66.7946 56.2028 66.4908 54.8713 66.2782C54.3123 65.5047 53.0323 65.5498 52.4247 64.8311C50.9682 64.5489 49.7062 64.0458 48.5452 63.4277C48.4805 63.3015 48.6506 63.2437 48.5859 63.1171C47.0248 62.8131 45.9619 61.943 44.2809 61.7745C42.4885 60.5532 39.978 60.1479 37.3977 59.8215L36.9125 60.003C34.6287 59.6025 32.1498 59.1487 29.3162 59.5474C29.2494 59.3897 29.4141 59.2995 29.3479 59.1419C26.8334 59.6697 22.7155 60.0388 20.8962 62.3525C22.0556 62.3826 23.8629 61.2439 25.2822 60.9085C26.887 60.4939 27.9643 60.6783 29.5355 60.302C29.7025 60.3587 29.8287 60.462 29.9895 60.5258C31.9826 60.3046 33.1265 61.0472 35.3183 60.5994C35.4216 60.7735 35.1181 60.9502 35.2871 61.0047C35.605 60.9724 35.8266 60.9104 36.1926 60.7156C36.8376 60.8981 37.5496 61.0053 38.183 61.2009C40.2486 61.0025 41.276 61.9835 42.9585 62.22C43.0009 62.472 43.1448 62.6082 43.3628 62.6595C43.5803 62.5881 43.868 62.4371 43.9912 62.4736C44.6618 63.4732 46.2642 63.4132 47.5007 63.7692C47.6205 63.9853 47.8751 64.0486 47.9188 64.3511C50.9949 65.6815 54.0338 67.0538 57.5488 67.885C59.967 67.8669 61.1387 69.2658 63.2565 69.5887L63.2803 69.8256C64.4507 69.987 64.8477 70.9469 66.5895 70.5566C66.6741 70.8123 67.113 70.6657 67.1365 70.9915C67.3936 70.946 67.6146 70.9419 67.849 70.922C67.8102 71.1072 67.9701 71.0657 67.9515 71.2279C69.4232 71.4046 70.3005 72.2575 72.0012 72.1739C72.1596 72.005 72.2865 71.8272 72.3052 71.6177C70.8642 71.3349 70.1303 70.2492 68.4299 70.2619Z" fill="#B1C7C7"/>
<path fill-rule="evenodd" clip-rule="evenodd" d="M67.3668 45.1673C67.3222 44.9093 67.1833 44.7622 66.8337 44.8629C66.8221 44.9483 66.7379 45.0109 66.6537 45.074C66.7424 45.2802 66.9408 45.3573 67.3668 45.1673Z" fill="#B1C7C7"/>
<path fill-rule="evenodd" clip-rule="evenodd" d="M11.0207 66.0089C10.639 66.1555 10.4597 66.3663 10.4821 66.6423C10.7317 66.4535 10.7982 66.207 11.0207 66.0089Z" fill="#B1C7C7"/>
<path fill-rule="evenodd" clip-rule="evenodd" d="M67.6118 75.5214C66.9622 75.0605 66.0444 74.9069 65.0378 74.8539C64.6803 73.2954 62.0821 73.8463 61.2378 72.6684C60.8701 72.7345 60.6461 72.6366 60.4999 72.4504C60.111 72.4703 59.7173 72.4953 59.4208 72.4091C59.0093 72.0488 58.4582 71.8468 57.8473 71.7132C57.7231 71.1828 57.1395 71.1776 56.8304 70.8585C56.5861 70.9256 56.3745 70.9558 56.0664 71.0949C55.8554 70.6994 55.0866 70.9406 55.059 70.3354C52.8137 70.2835 51.5544 69.1043 49.7258 68.5756C48.3297 67.6937 46.4919 67.3177 45.2659 66.2417C45.1141 66.2031 44.8698 66.2698 44.694 66.2582C44.5891 66.0418 44.2106 66.1388 44.2182 65.7938C43.8199 65.8422 43.5418 65.7529 43.2728 65.6534C43.2197 65.5547 43.1517 65.4733 43.1661 65.2977C41.7391 64.6988 40.1775 64.2549 38.3232 64.1451C37.4339 63.3388 35.9837 63.1748 34.8749 62.6185L34.8319 62.19C33.1111 61.5901 31.1391 60.9998 28.6042 61.5056C28.3965 61.0525 27.2258 61.7008 26.4259 61.9256C26.4178 61.7754 26.3192 61.729 26.2546 61.6438C23.055 62.3319 19.793 63.0851 17.441 65.1871C17.2784 65.2328 17.1751 65.2088 16.9539 65.3203C16.7189 65.5592 16.5135 65.8066 16.1629 66.0114C13.4296 67.3296 11.9504 69.0186 9.58859 70.4469C9.66248 71.1309 8.49555 71.4492 8.83412 72.2114C10.311 71.0913 11.3951 69.8558 12.8545 68.7312C14.6276 67.6359 16.9409 66.3035 18.7174 65.0559C19.8527 64.5549 20.8452 63.7748 22.1266 63.336C23.552 62.8477 24.8257 63.0034 26.1336 62.5783C27.0307 62.7912 28.7437 62.0716 29.4238 62.5332C29.6681 62.4662 29.8798 62.4364 30.1873 62.297C30.6128 62.925 32.4436 61.9477 32.5443 62.947C32.8867 63.0867 33.4701 62.9503 33.7804 63.127C33.8664 63.223 33.9716 63.2979 33.9613 63.5036C35.8723 63.7259 36.7498 65.1289 38.9162 65.0593C39.7354 65.7154 40.8857 65.9934 42.1093 66.1874C42.3409 66.6654 42.9477 66.7147 43.4663 66.8651C44.2859 67.45 45.3896 67.7105 46.3184 68.1702C47.9136 69.3552 50.4881 69.4203 51.9497 70.7577C52.445 70.7927 52.8192 70.9669 53.269 71.0547C53.2787 71.1671 53.402 71.1504 53.3661 71.3149C55.7629 71.866 57.6179 73.0371 59.8452 73.7824C60.1292 73.6699 60.2863 73.7032 60.6096 73.5458C61.1979 74.9082 63.5781 74.2219 63.9852 75.791C64.8662 75.7045 65.4721 75.9321 65.9046 76.3575C67.879 75.9597 68.1686 77.4857 70.0044 77.2451C70.2393 77.5433 70.6285 77.6644 70.8643 77.9608C71.2306 77.8377 71.5506 77.7014 71.7524 77.5298C71.8414 76.8092 71.1442 76.9864 70.9424 76.5977C69.4434 76.6832 69.1376 75.4053 67.6118 75.5214Z" fill="#B1C7C7"/>
<path fill-rule="evenodd" clip-rule="evenodd" d="M70.2697 63.1006C70.4751 62.7512 70.8677 62.9763 71.0013 62.5828C70.3633 62.5991 70.1785 62.5667 69.5359 62.8871C69.5481 62.5587 69.3878 62.4268 69.3238 62.1855C69.2669 62.1103 68.9422 62.3399 68.9025 62.2452C68.9082 62.0116 68.62 62.1121 68.5853 61.9246C66.6066 62.2194 66.2276 60.694 64.4137 60.8005C62.7993 59.9473 60.6658 59.6834 59.5337 58.2819C57.7518 58.352 57.1559 57.073 55.2339 57.3029C55.3111 56.8657 54.8627 57.0265 54.8837 56.6529C54.6793 56.642 54.4118 56.701 54.2425 56.6489C52.7277 55.5077 50.6677 54.986 49.2516 53.7326C49.0547 53.7542 48.781 53.6768 48.5555 53.8951C48.342 54.4186 48.7533 54.6828 49.135 54.7035C50.9972 56.2184 52.798 57.8035 55.7406 58.0897C57.9089 59.1517 60.2821 59.9805 62.0615 61.4849C64.0152 61.3593 65.2602 62.0388 66.5901 62.6222C66.8451 62.5763 67.0721 62.5631 67.2951 62.5535C67.4572 63.18 68.6041 62.8223 68.5985 63.4816C69.0119 63.6228 69.7712 63.3708 70.0421 63.6741C69.9356 63.8883 70.0338 64.0735 70.1625 64.1655C70.4665 64.09 70.5657 63.8036 70.7712 63.8403C70.9442 63.9404 70.8131 64.3861 70.979 64.4947C71.5733 64.0785 71.7972 64.3321 72.2781 63.96C72.301 63.2353 71.4905 63.4588 71.2589 63.0235C71.0482 62.9131 70.4183 63.2808 70.2697 63.1006Z" fill="#B1C7C7"/>
<path fill-rule="evenodd" clip-rule="evenodd" d="M23.2888 63.8403C22.7335 63.5164 19.9665 64.1904 19.6847 65.1885C20.5422 65.3578 22.2468 64.4062 23.2888 63.8403Z" fill="#B1C7C7"/>
<path fill-rule="evenodd" clip-rule="evenodd" d="M16.8785 67.0373C16.1795 67.2974 15.5634 67.5889 15.488 68.0873C15.9717 67.9542 16.7033 67.4685 16.8785 67.0373Z" fill="#B1C7C7"/>
<path fill-rule="evenodd" clip-rule="evenodd" d="M68.6068 78.5807C67.4518 77.3534 64.5456 78.1237 63.6062 76.6509C62.4707 76.7272 62.3312 75.6664 60.9584 76.0129C60.1028 75.1515 58.8895 74.6977 57.6297 74.2969C56.9036 73.4471 55.7589 73.074 54.4081 72.9357C54.3211 72.841 54.2162 72.7661 54.2271 72.5593C52.2139 72.046 50.5272 71.1603 48.8324 70.2839C47.9289 70.343 47.1266 70.2855 46.8318 69.6507C46.3407 69.6453 45.9985 69.4701 45.6485 69.3034L45.6199 69.0183C44.1836 68.7303 43.5279 67.5528 41.7522 67.6522C40.3878 66.9293 38.5937 66.696 37.1443 66.0689C37.0747 65.9724 37.0286 65.8484 37.0323 65.6671C36.3088 65.6268 35.577 65.5952 35.0598 65.3192C34.9599 65.2079 35.0349 65.1081 34.9484 64.9168C33.8342 64.2724 32.5369 64.0005 30.8967 63.8661C29.0045 63.7107 27.6081 63.3302 25.1632 63.9382C23.736 64.4883 22.6296 65.1335 21.3976 65.7416C20.9598 65.7611 20.6249 65.9743 20.1528 66.2072C19.5534 66.1621 18.6425 66.7339 17.9254 66.8921C16.6543 67.8732 15.2271 68.8088 14.2046 69.8635C12.6666 70.7655 10.9314 71.6107 9.81946 72.6385C9.59957 72.9746 9.22253 73.2639 8.90832 73.5717C8.79489 74.1267 7.75772 74.6456 7.98953 75.1491C8.33019 75.1107 8.61009 74.6954 9.00364 74.5228C9.48528 73.6491 9.81414 72.7295 11.6461 72.2514C11.8984 72.079 12.0339 71.8727 12.3089 71.7073C12.3355 71.8714 12.6324 71.7268 12.8116 71.7164C14.0143 70.8843 14.6333 69.8816 16.5111 69.2472C16.7982 68.9625 16.9833 68.6475 17.5795 68.4528C18.2058 67.1438 21.3907 66.586 22.9573 65.5526C23.2024 65.4679 23.2804 65.5734 23.5254 65.4883C25.9432 64.237 28.3503 64.3152 29.571 64.9543C32.2502 65.0254 34.4845 65.6047 35.952 67.058C36.2198 66.9652 36.2878 67.0994 36.5887 66.9677C38.4277 67.7508 40.8428 67.8765 42.2597 69.1401C42.6791 69.1396 42.9399 69.3188 43.4192 69.2495C45.0598 70.1344 46.5248 71.2203 48.7342 71.4557C50.8295 73.0767 54.0304 73.4372 56.1271 75.0566C57.5237 75.2837 58.0517 76.5015 59.6451 76.5041C59.6437 76.6824 59.796 76.6858 59.8209 76.8332C60.2606 76.8269 60.6147 76.9178 60.9852 76.99C60.9977 77.2054 61.1854 77.2212 61.2402 77.3884C61.4221 77.4528 61.576 77.2746 61.8077 77.3236C62.1362 77.7085 62.9804 77.5057 63.1078 78.1203C64.9333 78.7951 67.3847 78.7552 68.6806 80.0332C68.7492 80.1139 69.1202 79.8504 69.1743 79.9472C68.933 80.2453 68.7278 80.6378 69.1119 80.7605C70.1955 80.1439 70.4099 80.7996 70.9629 80.6111C70.6404 79.7527 70.041 78.96 69.2439 78.4903C69.0573 78.4906 68.7794 78.5956 68.6068 78.5807Z" fill="#B1C7C7"/>
<path fill-rule="evenodd" clip-rule="evenodd" d="M14.4168 68.592C13.3576 68.6408 12.5365 69.615 11.9587 70.1829C13.1146 69.9053 14.0149 69.2038 14.4168 68.592Z" fill="#B1C7C7"/>
<path fill-rule="evenodd" clip-rule="evenodd" d="M69.585 48.663C69.5895 48.395 69.3906 48.3211 69.1475 48.2901C69.1295 48.3724 68.9407 48.4286 68.8674 48.5024C68.8817 48.7722 69.1464 48.8015 69.585 48.663Z" fill="#B1C7C7"/>
<path fill-rule="evenodd" clip-rule="evenodd" d="M21.5778 67.417C24.7941 66.5902 27.9379 65.8569 30.6027 65.9279C29.4449 64.8325 26.2328 65.6843 23.552 66.2069C22.3651 66.6857 18.1161 67.9172 18.1613 68.6426C18.2014 69.2794 21.1439 67.8106 21.5778 67.417Z" fill="#B1C7C7"/>
<path fill-rule="evenodd" clip-rule="evenodd" d="M68.0956 72.8037C67.7574 72.3933 67.3634 72.0457 66.5255 72.2056C65.9922 71.7517 65.3488 71.4241 64.2382 71.6286C63.9651 71.2678 63.3596 71.2866 63.1533 70.8489C60.5588 70.1806 58.823 68.5333 55.7223 68.4418C55.6289 67.7342 54.5715 68.1269 54.4059 67.5019C51.8 67.271 49.7839 66.3672 48.1214 65.0611C47.4395 65.0451 46.5262 65.1216 46.6164 64.3896C45.8448 64.1899 45.1415 63.9123 44.2598 63.8382C43.5551 62.8728 41.5702 63.3663 41.0075 62.2392C40.3356 62.2269 39.7047 62.1683 39.3133 61.8356C37.6358 62.2785 37.0937 61.1482 35.4874 61.6861C35.4898 61.7481 35.4056 61.7851 35.4325 61.855C36.0324 62.7807 37.9144 62.245 38.5129 63.1724C40.7158 63.1903 42.1909 64.039 43.7775 64.7599C43.9405 64.7501 44.198 64.6339 44.3409 64.6475C44.3095 64.8426 44.4797 64.8077 44.4488 65.0023C47.4551 66.174 50.0617 67.8019 53.4976 68.4836C53.4961 68.662 53.6487 68.665 53.6747 68.8125C54.5041 68.8404 55.0967 69.1372 55.6143 69.5196C56.9257 69.4408 57.3723 70.3458 58.6422 70.3134C60.0389 71.3742 61.9484 71.8513 63.6819 72.5283C64.6864 72.3562 65.3815 72.5366 65.7509 73.0879C67.0271 73.0487 67.4411 73.9917 68.7783 73.8819C68.864 73.908 68.8742 74.0209 68.8762 74.1417C70.3163 74.0748 70.7446 75.1608 71.8826 75.4378C72.0196 75.3391 72.1472 75.2376 72.2842 75.1388C71.7898 74.8111 71.7909 74.3625 71.6516 73.8449C70.577 73.3707 69.5535 72.8395 68.0956 72.8037Z" fill="#B1C7C7"/>
<path fill-rule="evenodd" clip-rule="evenodd" d="M18.1678 68.433L17.7807 68.5778L17.8085 68.855C18.1145 68.7743 18.2336 68.6338 18.1678 68.433Z" fill="#B1C7C7"/>
<path fill-rule="evenodd" clip-rule="evenodd" d="M65.5504 80.1641C65.4507 79.2547 64.1663 79.6955 63.5359 79.391C63.1194 79.0016 62.5754 78.7584 61.9516 78.6052C61.8748 78.0583 61.1071 78.2982 60.9434 77.8499C59.5789 77.8706 58.8445 77.1737 58.02 76.5802C56.4804 76.0068 54.893 75.4884 53.6587 74.5684C52.6857 74.6012 52.5497 73.6808 51.7591 73.5063C51.5291 73.5219 51.2761 73.5629 50.9852 73.6482C50.1723 72.8459 48.8111 72.6694 48.0089 71.8565C46.6439 71.8775 46.2382 70.8061 44.8915 70.807C44.4695 70.2299 43.9142 69.8048 42.7394 70.0857C42.1477 69.7197 41.5421 69.3692 40.592 69.4118C40.4806 68.94 39.786 69.1311 39.6582 68.6779C39.4854 68.628 39.1018 68.8177 38.9482 68.7467C38.5747 67.9228 36.424 68.6715 36.6056 67.5549C36.0407 67.2794 34.6853 67.8125 34.6892 67.0409C32.9618 67.3343 32.4656 66.2245 30.7617 66.4915C30.0654 65.7748 28.1519 66.0101 26.5602 66.7828C23.7189 66.9738 19.5273 68.708 16.5494 69.9365C15.6657 70.4766 14.949 71.0659 13.8412 71.5405C12.8535 72.7609 9.90177 74.1913 9.19822 75.2962C8.53063 75.6076 8.33841 76.0583 7.72976 76.387C7.55597 77.2243 6.94324 77.9124 6.46354 78.7808C7.65382 78.1153 7.98934 77.2006 8.6618 76.383C10.7825 74.8383 13.363 73.4274 15.0094 71.7437C15.7286 71.4883 16.3584 70.8636 17.3999 70.554C18.6236 69.6139 20.5502 69.0727 22.086 68.6535C22.7677 68.1093 24.3379 67.6339 24.8655 67.7614C27.4694 67.2451 29.6636 67.1963 31.5769 67.4666C33.4835 68.2026 35.213 69.1407 37.7036 69.2123C38.2897 69.7254 39.4185 69.6203 39.8885 70.266C43.6367 70.8615 46.1742 72.8354 49.5045 73.9066C49.5576 74.0046 49.6261 74.0854 49.6121 74.2603C50.2251 74.2846 50.7296 74.4325 51.2874 74.5193C52.2825 75.8537 54.4504 75.8521 55.3648 77.2783C57.1435 77.7894 58.5706 78.7026 60.3623 79.1997C61.5257 79.7597 62.335 80.7241 64.2173 80.466C64.2618 80.8561 64.7804 80.7065 64.723 81.2118C66.8794 80.9414 67.434 82.4952 69.6249 82.1848C69.2419 80.9824 67.4273 81.4094 67.0581 80.1907C66.4481 80.1906 65.9898 80.344 65.5504 80.1641Z" fill="#B1C7C7"/>
<path fill-rule="evenodd" clip-rule="evenodd" d="M11.499 73.0584C11.1564 72.6304 10.4083 73.3682 10.4609 73.893C10.9023 73.9991 11.4863 73.494 11.499 73.0584Z" fill="#B1C7C7"/>
<path fill-rule="evenodd" clip-rule="evenodd" d="M30.9383 65.5455C31.0041 65.7118 31.4543 65.8872 32.0703 65.647C31.9627 65.363 31.4226 65.2929 30.9383 65.5455Z" fill="#B1C7C7"/>
<path fill-rule="evenodd" clip-rule="evenodd" d="M31.5921 67.8288C31.1116 68.0721 31.0181 67.8857 30.6693 67.9822C29.4205 67.369 27.0359 68.0177 24.8665 68.4285C24.6338 68.4645 24.6176 68.2598 24.4165 68.2615C21.037 69.4124 18.3091 70.8346 15.9876 72.0373C13.9747 73.8867 10.7662 75.4112 8.8607 77.2901C8.52928 78.2045 6.72879 78.9558 6.95353 79.8718C8.89749 78.1835 10.9299 76.5189 13.0958 74.8912C13.8774 74.6989 13.8573 74.2889 14.6783 74.1075C15.2831 73.4294 16.4545 72.6788 17.6008 72.296C19.0241 71.1968 21.392 70.1246 23.5909 69.3846C23.8946 69.3374 23.9591 69.5565 24.2541 69.5201C25.6018 69.0631 27.8949 68.4036 28.6697 68.922C30.4199 68.4473 31.2334 69.0138 33.0956 68.4161C33.0383 67.7264 31.842 68.3036 31.5921 67.8288Z" fill="#B1C7C7"/>
<path fill-rule="evenodd" clip-rule="evenodd" d="M32.4833 65.761C32.3634 66.0266 32.8372 66.115 33.2293 66.0185C33.1495 65.7454 32.9295 65.6279 32.4833 65.761Z" fill="#B1C7C7"/>
<path fill-rule="evenodd" clip-rule="evenodd" d="M45.0672 72.968C44.6112 72.5753 44.115 72.2276 43.2816 72.2643C42.7884 71.8253 41.8883 71.8497 41.2154 71.6163C40.7146 70.7454 38.7818 71.2317 38.7009 70.0577C37.8191 70.3072 37.5279 69.8846 36.5728 70.2171C35.7352 69.5573 34.2575 69.6246 33.1864 69.2304C31.3355 69.4603 29.6419 69.5102 28.1259 69.3595C26.2343 69.9279 24.265 69.8803 22.4203 70.906C20.7182 70.6584 19.4065 72.4779 17.2034 73.0533C15.1818 74.9397 11.361 76.3013 10.1676 78.4287C12.1217 77.1341 14.2608 75.8935 16.2149 74.5989C18.1875 73.4727 20.358 72.4442 22.4771 71.4725C27.8767 69.6858 31.8278 70.608 35.8532 70.8782C36.0872 71.4007 36.6236 71.5799 37.5411 71.3247C39.6388 72.5684 42.8307 72.5667 44.4874 74.3117C45.1272 74.3902 45.8498 74.3749 46.116 74.8784C46.3188 74.8759 46.5794 74.8073 46.8189 74.7626C47.9134 76.0181 49.947 76.4252 51.4284 77.2518C52.1136 77.6343 52.4517 78.2965 53.4684 78.3502C54.5738 79.6878 56.8213 79.7256 57.9535 81.0331C58.3426 81.099 58.6658 81.2397 59.1171 81.2348C59.3062 81.537 59.1812 81.7518 59.2663 82.0115C59.5266 82.0241 59.601 82.0437 59.965 81.8484C60.9237 82.7744 62.9723 82.4596 63.9084 83.4109C64.1856 83.4818 64.4805 83.5315 64.9112 83.4277C64.6962 83.983 65.5911 83.8634 65.9462 83.7755C66.2171 84.5435 67.7061 84.2225 68.6732 83.8823C68.627 83.4262 68.0393 83.5861 67.8941 83.243C67.6594 83.352 67.506 83.3685 67.3383 83.402C65.2052 82.6551 63.4441 81.4846 60.9652 81.1312C60.176 80.1308 58.5154 79.856 57.6859 79.0756C57.401 79.1887 57.152 79.2618 56.9872 79.2387C56.7604 79.1391 57.0332 78.8788 57.0045 78.6934C55.8503 78.7614 55.7952 77.5791 54.487 77.8223C54.3155 77.3553 53.4133 76.8439 52.5946 76.7666C52.7774 76.086 51.4091 76.3517 51.3363 75.6202C51.1781 75.5728 50.9003 75.6606 50.697 75.6636C50.2062 75.3278 49.5599 75.1685 48.9807 74.9337C48.726 74.1625 47.1404 74.6533 47.2117 73.6846C46.0318 73.9747 46.4447 72.4534 45.0672 72.968Z" fill="#B1C7C7"/>
<path fill-rule="evenodd" clip-rule="evenodd" d="M65.2805 85.5158C64.0093 84.2829 61.1504 84.8636 60.2523 83.2043C58.5369 83.4146 58.2614 81.981 56.7612 81.9457C55.5838 80.7649 53.8819 80.1821 52.2892 79.4754C51.3491 77.9881 48.9054 78.2175 48.0008 76.6897C47.7012 76.7845 47.4898 76.7794 47.356 76.6845C45.8 75.1937 43.2167 74.8763 41.2058 73.9051C41.1574 73.7683 41.4319 73.6903 41.2519 73.641C40.4453 73.396 39.3964 73.4276 38.7528 72.9976C38.5027 73.1063 38.3029 73.1578 38.1265 73.1823C37.3771 71.9737 34.9729 72.2391 33.7266 71.4252C32.382 72.001 32.3296 70.6578 30.6499 71.4417C30.3392 71.4255 30.1521 71.2679 29.907 71.1768C27.4356 71.7306 24.8593 71.0366 22.3248 72.6812C21.7506 72.4859 20.7036 73.4211 19.8954 73.4421C19.1991 73.9449 18.2556 74.3739 17.1638 74.7599C16.4359 75.668 14.5157 76.2252 13.3803 77.0136C12.9536 77.7035 11.6181 78.1251 10.7557 78.6859C10.5281 78.7692 10.4039 78.7341 10.1304 78.8706C8.38883 79.9265 7.20824 81.1477 6.48416 82.5033C6.81806 82.602 6.39842 82.8568 6.53183 82.979C7.71946 82.0357 8.69281 80.6321 9.98453 79.5664C10.2112 79.4842 10.262 79.6028 10.5466 79.4547C12.4336 77.9855 15.0271 77.1955 16.988 75.8615C17.1872 75.8462 17.4697 75.7354 17.7512 75.6253C17.8827 75.3717 18.1418 75.1556 18.473 74.9608C18.618 74.954 18.7559 74.9557 18.9009 74.9485C20.9574 73.4335 23.9505 72.8971 26.0188 72.3849C27.1831 72.5565 28.7339 72.2867 30.2144 72.0977C31.3768 72.4476 32.5915 72.7386 34.1358 72.6533C34.9949 73.2262 36.1606 73.4491 37.3825 73.6088C37.4629 74.3421 38.539 74.1771 38.7027 74.6439C38.9944 74.6462 39.334 74.5942 39.5644 74.6669C39.7518 74.8063 39.8684 75.0264 40.1094 75.1043C40.469 75.0643 40.7792 75.0814 41.0449 75.1489C45.767 77.0855 50.0535 79.5208 54.5218 81.7475C55.406 83.0388 57.9383 82.7141 58.4269 84.2821C59.3333 84.3247 59.8052 84.8627 60.6449 84.9814C61.1211 85.7431 62.456 85.891 63.679 85.9671C64.3039 86.578 65.5391 86.4928 66.5419 86.6719C66.55 86.8218 66.6495 86.867 66.7136 86.9529C67.0892 86.9297 67.3662 87.0199 67.8511 86.8727C67.0284 86.3814 66.6234 85.4132 65.2805 85.5158Z" fill="#B1C7C7"/>
<path fill-rule="evenodd" clip-rule="evenodd" d="M61.3373 86.9024C60.6154 86.1553 59.5048 85.8529 58.3472 85.6037C57.0859 83.8838 54.5661 83.6025 52.7482 82.5192C52.1258 81.8878 51.5394 81.2165 50.3336 81.252C50.1566 80.6769 49.3135 80.8635 49.29 80.1133C47.4682 79.5812 46.0391 78.6007 44.6081 77.6224C43.8769 77.5752 43.3938 77.244 42.9587 76.8585C41.4132 76.5941 40.2651 75.8755 38.6908 75.6436C38.7062 75.2759 37.9629 75.3573 38.0443 74.8988C37.7617 74.9033 37.4286 74.9669 37.2527 74.8499C37.2458 74.7705 37.4411 74.7515 37.4497 74.6773C35.5811 73.7582 32.977 73.6787 31.0452 72.8311C29.7048 72.65 27.8344 73.0745 26.3501 73.0587C26.059 73.1109 26.0914 73.2588 25.8772 73.3338C25.576 73.0886 24.91 73.0597 24.1758 73.477C23.6434 73.2485 21.8535 73.9651 21.2031 74.4905C19.0895 75.1726 16.8291 76.811 14.6196 77.9891C14.3785 78.0348 14.2995 77.8955 13.9805 78.0307C11.3615 79.5796 9.25089 81.1645 7.54889 83.0508C7.25067 84.1541 5.48362 85.2902 5.72411 86.2487C8.29975 84.1026 9.78844 81.2367 13.4599 79.2609C13.669 79.0919 13.8001 78.9005 13.9042 78.7002C15.1868 78.3513 16.6122 77.9336 17.3948 77.1481C18.8607 76.7031 19.9133 75.7404 21.3387 75.13C21.7827 75.2206 22.3133 74.846 22.8642 74.6583C24.8514 73.9797 28.1008 73.7115 29.2327 74.0022C29.9652 74.1905 31.046 74.0304 31.8919 74.142C32.647 74.242 33.081 74.7754 33.7526 74.8765C35.3988 75.1249 36.8124 75.6471 37.9209 76.5233C38.2071 76.3901 38.3145 76.4621 38.5505 76.3863C38.8227 76.6401 39.2427 76.726 39.7292 76.7349C40.0391 77.317 40.8697 77.3034 41.5215 77.4946C42.4694 78.0179 43.3485 78.6212 44.6488 78.7416C46.2458 80.4669 48.8729 81.014 50.4813 82.7258C50.8753 82.6465 51.2734 82.5619 51.4795 82.6978C51.8973 83.8624 53.1602 84.0615 53.9109 84.846C54.6709 84.5423 54.9848 84.7492 55.0896 85.1946C55.8001 85.0403 55.9048 85.6966 56.7004 85.5784C56.5693 86.5196 57.627 86.5229 58.3784 86.628C58.6829 87.1985 59.3135 87.3965 60.2942 87.1937C60.4328 87.7475 60.9051 87.7323 61.1022 88.1248C61.3806 88.0843 61.2273 87.9155 61.5057 87.875C61.8716 87.9521 62.299 87.9574 62.8581 87.813C63.2503 88.3708 64.1352 88.3671 64.669 88.7636C65.3221 88.5469 65.4175 88.9679 65.9027 88.943C65.9516 88.7078 65.9651 88.3585 66.1072 88.127C64.3366 87.9248 63.6195 86.5183 61.3373 86.9024Z" fill="#B1C7C7"/>
<path fill-rule="evenodd" clip-rule="evenodd" d="M65.5849 90.3777C65.2115 89.9073 64.2367 90.1208 64.0575 89.4302C63.327 89.0507 61.7629 89.6172 61.4163 88.8011C60.3491 88.5936 59.7483 87.8563 58.5905 87.7517C58.6214 87.6229 58.6678 87.4996 58.6211 87.3483C56.087 87.2121 55.285 85.1072 52.7289 84.9961C52.6625 84.8394 52.8264 84.7488 52.7599 84.5921C51.3812 84.2648 50.5212 83.3494 49.6127 82.4875C48.1092 82.5294 47.8544 81.1534 46.5268 80.9958C46.5415 80.822 46.4741 80.7409 46.4206 80.644C46.2033 80.6979 45.9669 80.7735 45.79 80.782C45.2196 79.8418 43.8542 79.557 43.2327 78.8479C41.7831 78.1277 40.0833 77.6919 38.4152 77.2201C38.3139 77.1951 38.3262 77.0404 38.3131 76.9153C36.0954 76.367 34.2884 75.3514 32.0851 74.7869L31.3945 75.0452C30.2428 74.74 29.3173 74.1785 27.5517 74.5716C26.6114 74.3951 25.5058 74.4062 23.8083 75.0901C22.7488 75.0189 21.3958 76.1036 20.2337 76.5744C18.0652 77.4755 15.8837 78.7648 13.8304 79.8514C13.5566 80.108 13.372 80.3911 13.0498 80.6333C12.7797 80.7829 12.8277 80.5699 12.5566 80.7199C11.6114 81.7141 10.5188 82.6649 9.40977 83.6115C8.33933 85.0285 7.14619 86.4092 5.81393 87.7495L5.84706 88.08C5.70393 88.1062 5.69747 87.9884 5.56648 88.1357C5.64751 88.4381 5.47336 88.7034 5.70646 88.8186C6.32234 88.6459 6.53909 88.0013 7.16821 87.6837C7.28116 87.1966 7.81373 86.8319 8.26104 86.4421C9.304 84.5592 11.588 83.0363 13.2634 81.3376C14.516 80.3102 16.016 79.3546 18.1434 78.5811C19.534 77.4823 21.909 76.6535 23.884 75.8456C25.7971 75.3901 27.3379 75.3583 28.848 75.3607C30.4376 75.9919 32.5938 75.9791 34.3277 76.4464C36.8742 78.0065 40.1823 78.7013 42.8583 80.1144C44.8005 81.8878 47.3217 83.0037 49.6546 84.3332L49.6877 84.6638C51.7112 85.4155 53.2625 86.7035 55.5262 87.183C55.7309 88.283 57.387 87.734 57.6214 88.8002C58.0263 88.919 58.3127 89.172 58.9989 88.9709C59.1861 89.5291 59.9295 89.4567 60.4925 89.5876C60.4512 90.0384 60.8042 90.0397 61.0515 90.1627C62.5467 89.6498 62.834 90.7528 64.1427 90.2801C64.3206 90.5478 65.0278 90.6317 65.5443 90.6869C65.5751 90.5888 65.4331 90.4406 65.5849 90.3777Z" fill="#B1C7C7"/>
<path fill-rule="evenodd" clip-rule="evenodd" d="M21.9256 77.4437C21.7126 77.5281 21.5901 77.5099 21.4332 77.5307C20.0049 78.4393 18.0228 79.1149 16.6102 80.1105C16.0671 80.0962 15.6524 80.6494 15.0421 80.8911C14.7225 81.7386 13.5625 82.347 12.5321 82.9926C11.0549 84.3129 9.47163 85.6031 8.57617 87.089C8.326 87.1541 8.24779 87.2682 8.10256 87.3634C7.39728 88.5904 5.92319 89.7715 5.82116 91.0271C7.63771 89.7541 8.11384 87.87 10.0486 86.7807C10.1596 86.4184 10.2416 86.0488 10.664 85.7752C10.9081 85.7077 11.1195 85.6767 11.4274 85.5384C13.4583 83.4962 15.4547 81.206 18.8595 79.7052C20.7184 78.594 22.6808 77.9289 24.9534 76.9408C26.5939 76.4196 27.8431 77.1326 29.3888 76.2026C27.8302 75.7523 24.6295 75.6956 21.9256 77.4437Z" fill="#B1C7C7"/>
<path fill-rule="evenodd" clip-rule="evenodd" d="M6.19224 83.2834C6.30118 83.2431 6.27719 83.4106 6.42255 83.314C6.41213 83.2016 6.56564 83.1864 6.51008 83.0473C6.26125 83.048 6.12273 83.1874 5.79085 83.258C5.80676 83.4973 5.9223 83.5355 5.84164 83.7648C6.25276 83.6881 6.03549 83.4104 6.19224 83.2834Z" fill="#B1C7C7"/>
<path fill-rule="evenodd" clip-rule="evenodd" d="M17.9223 82.219C18.9231 81.0165 21.6857 80.4805 23.1905 79.3591C23.8953 79.0995 24.4839 79.0321 25.1417 78.6789C26.1949 78.4716 26.8971 78.663 27.9343 78.4738C29.6383 77.8272 30.8557 77.7338 31.6506 78.121C34.0434 77.6825 34.5144 79.7049 37.1314 78.8365C36.6953 77.635 34.7752 78.1212 34.0832 77.211C32.5134 76.9804 31.0374 76.6437 28.5531 77.4522C25.7974 77.0805 22.0137 79.2617 18.4244 80.7468C18.1271 81.0915 17.7413 81.4114 17.295 81.7128C17.0573 81.8415 17.0205 81.7418 16.8035 81.8473C15.7105 82.5312 14.9696 83.3169 13.9186 84.013C13.3967 84.8316 12.5586 85.559 11.5443 86.2345C11.1162 86.68 10.9922 87.2135 10.1604 87.5427C9.92628 87.9057 10.0334 88.3683 9.40318 88.6158C9.1272 88.7168 9.37508 88.2227 9.022 88.413C8.54015 88.7887 8.85221 88.8491 9.01933 89.1055C8.76776 89.8793 7.63105 90.3962 7.42385 91.1836C7.18773 91.3121 7.12154 91.2043 7.00709 91.3395C6.9625 92.1449 6.09859 92.953 6.08024 93.6124C6.7619 93.3791 6.77221 92.9507 7.06114 92.6033C8.91269 91.4007 9.14572 89.728 10.98 88.5197C11.1294 88.2558 10.8118 88.3168 10.8581 88.0222C13.81 86.2615 15.0042 83.9895 17.9223 82.219Z" fill="#B1C7C7"/>
<path fill-rule="evenodd" clip-rule="evenodd" d="M64.2711 92.9659C63.6782 93.041 62.9371 93.285 62.6899 92.9684C60.7837 93.5322 60.1378 92.6667 58.5778 92.8383C58.498 92.7532 58.433 92.651 58.4019 92.5111C55.6374 93.2408 53.9426 92.7571 52.5217 91.9631C52.485 91.784 52.7557 91.6927 52.692 91.5065C52.5171 91.4413 52.1944 91.5437 51.9104 91.6031C51.3414 91.0715 50.4171 90.9434 49.9141 90.3373C49.3983 90.3952 49.1093 90.1967 48.9329 89.8702C48.1632 89.6367 47.5751 89.1978 47.0192 88.7216C46.7013 87.5721 45.194 87.7719 45.1919 86.2639C45.2607 86.0087 45.4956 85.8009 45.476 85.5199C45.2444 85.2736 44.8842 85.1731 44.2415 85.3927C44.1054 85.3184 44.0175 85.1903 43.8574 85.1441L43.8195 84.7657C43.3351 84.3839 42.8576 83.9947 41.8246 84.2358C39.7115 83.1202 37.664 81.9313 35.5173 80.8538C33.9712 80.6935 32.6937 80.2285 30.9969 80.2387C30.2092 79.7453 28.7779 79.9814 28.1692 79.2839C26.7292 79.4596 25.4692 79.4315 23.9661 79.6788C23.1201 80.2458 21.8667 80.6953 20.7371 81.1811C20.5006 81.3574 20.2824 81.5393 19.9986 81.7025C17.7982 82.7974 16.4023 84.1248 14.9069 85.4229C13.2389 86.2126 13.1547 87.4591 11.5976 88.2801C10.5578 89.6949 9.28063 91.0408 8.4258 92.509C8.17497 92.5739 8.09647 92.6893 7.95061 92.7852C7.99961 93.3811 7.32212 93.7677 7.01997 94.262C7.50797 94.3758 6.72872 94.7313 7.0218 94.997C8.04536 94.5117 8.06699 93.7379 8.55667 93.0981L9.04188 92.9166C9.88281 91.7964 11.1252 90.7931 11.5084 89.5402C12.2794 88.8135 13.0096 88.0757 13.732 87.3346C14.0904 87.1932 14.2776 87.0021 14.545 86.8344C15.1058 85.5566 17.2518 84.7375 18.0975 83.5423C19.8782 82.3417 22.0545 81.8206 23.7004 80.6123C24.5825 80.3844 25.0636 80.6113 26.0402 80.2771C26.2457 80.3597 26.5933 80.2816 26.7705 80.3961C27.2666 80.238 27.6009 80.2625 27.9776 80.2391C30.1876 81.3324 33.7474 80.8946 35.5992 82.3938C35.8736 82.4514 36.1854 82.4661 36.4738 82.5082C38.1562 83.7609 40.3912 84.3868 41.9763 85.7494C42.1618 85.8197 42.5116 85.7046 42.6337 85.847C44.0832 87.8197 46.1316 89.114 47.8709 90.7584C49.1812 91.3794 49.9966 92.5616 51.6684 92.7729C52.1938 93.1424 52.7746 93.4494 53.6722 93.3972C54.2592 94.0659 55.6276 93.8493 57.0026 93.6236C58.3495 93.8555 59.7718 93.7757 61.2716 93.8915C61.4964 93.818 61.5573 93.6979 61.8219 93.6366C62.2135 93.5435 62.2639 93.8375 62.5617 93.8505C62.9304 93.5446 63.9176 93.419 64.374 93.271C64.3932 93.1091 64.2328 93.1504 64.2711 92.9659Z" fill="#B1C7C7"/>
<path fill-rule="evenodd" clip-rule="evenodd" d="M62.8626 91.6761C62.4955 91.4756 62.0674 91.3451 61.7291 91.1121C60.6796 91.424 60.2142 91.0706 59.4916 91.0105C59.3872 90.9836 59.3665 90.7773 59.4582 90.6771C58.679 90.5655 57.6654 90.4702 57.5699 89.7526C57.3442 89.6919 56.8955 89.8848 56.7751 89.704C56.4113 88.5268 54.6125 88.9872 54.3472 87.6973C52.5326 87.4496 51.5201 86.2867 49.9184 85.7965C49.0593 84.4057 46.8094 84.6023 45.991 83.1645C43.7165 82.8752 43.376 80.3808 41.0875 80.1071C41.1227 79.9075 40.9806 79.9109 40.9802 79.752C39.708 79.6639 38.7002 79.2743 37.5352 79.0639C33.7441 80.2393 33.0336 77.901 29.7231 78.5278C29.5031 78.3637 29.0242 78.2396 28.5734 78.5133C28.5203 78.5442 28.4958 78.5835 28.5138 78.6343C29.8853 79.4574 31.8168 79.6425 33.8637 79.6968C34.1387 80.3024 35.1946 80.0176 35.7872 80.2615C38.7816 79.1462 39.5431 80.5776 40.9856 81.2323C41.6019 82.0328 42.9208 82.0316 43.1315 83.2955C43.8698 83.9561 44.888 84.2988 45.7931 84.7702L45.8361 85.1988C47.3695 85.7137 48.9007 86.2325 49.9281 87.3246C52.3322 88.0845 54.1208 89.5476 56.5456 90.2839C56.4377 90.3294 56.305 90.3676 56.3472 90.4572C57.0568 91.0456 58.2533 91.0788 58.787 91.8668C61.0986 91.4953 62.2297 92.7516 64.6297 92.1022C64.6699 91.4447 63.4144 91.8333 62.8626 91.6761Z" fill="#B1C7C7"/>
<path fill-rule="evenodd" clip-rule="evenodd" d="M55.9505 94.7321C54.8401 95.0987 54.4118 94.6872 53.3915 94.9506C53.5091 94.6515 53.3287 94.5795 53.1321 94.5061C52.7479 94.5717 52.6092 94.8728 52.3763 94.8377C52.5202 94.5184 52.5821 94.3043 52.3098 94.1738C52.0709 94.334 52.0093 94.5465 51.6421 94.6692C51.1993 93.7286 49.9566 93.6982 49.5791 92.6836C48.5496 92.887 48.4245 92.0599 47.7082 91.9057C47.7455 91.7816 47.8925 91.59 47.745 91.5475C46.1486 91.0388 45.1774 89.8186 43.7701 89.0949C43.6548 88.979 43.6653 88.7207 43.6397 88.5033C42.3437 87.4762 40.992 86.5132 39.8101 85.3557C37.308 84.9633 36.3581 82.8022 33.7868 82.4874C33.8395 82.4104 33.8658 82.3257 33.8326 82.2243C33.4963 82.3251 33.2138 82.3647 32.9198 82.4181C30.8709 81.8434 28.9383 81.137 25.8929 81.6975C25.5999 81.6437 25.2945 81.6042 25.0158 81.5333C20.5731 82.7553 16.5258 85.298 14.6155 87.9353C10.9724 90.9851 9.00892 94.5268 6.58335 97.9326L6.6214 98.3123C6.23277 98.515 6.13946 99.0187 6.35653 99.2485C7.13 98.784 6.98481 98.0501 7.76764 97.5884C7.833 97.131 8.15668 96.7497 8.28489 96.3114C9.33518 95.5742 9.80786 94.6686 10.3251 93.7753C11.8482 92.6093 12.6013 91.2159 13.5187 89.8722C16.0842 87.3511 18.5188 84.7926 22.9948 82.8312C23.4598 82.734 23.8832 82.6229 24.382 82.3615C24.6375 82.3346 24.7904 82.4253 24.9681 82.487C25.7413 82.2223 26.0732 82.4613 26.8076 82.242C30.2108 82.8951 34.5223 82.5137 36.2026 85.1293C37.5969 85.7977 39.03 86.421 40.0289 87.5395C40.2231 87.5829 40.433 87.6086 40.6794 87.5914C42.0583 88.8588 43.253 90.3361 45.0494 91.1276C46.6625 92.3746 48.1246 93.7938 49.936 94.8154C49.888 95.5956 51.0617 95.4341 51.4105 95.9377C52.8419 95.3655 52.9226 96.331 54.399 95.7064C54.8606 96.1682 55.7852 96.1021 56.9823 95.7252C57.8775 96.6618 60.3622 95.7881 62.1435 95.7151C62.1691 95.49 62.4187 95.3346 62.3036 95.1625C60.0494 95.1741 57.6534 95.3486 55.9505 94.7321Z" fill="#B1C7C7"/>
<path fill-rule="evenodd" clip-rule="evenodd" d="M8.87164 101.664C9.18081 100.514 9.8039 99.454 10.0424 98.283C10.5954 97.7642 10.9701 97.0177 10.8649 96.4547C11.317 95.8961 11.843 95.3593 11.9104 94.69C14.1173 92.564 14.4894 90.0155 17.5797 88.1548C18.0826 87.2755 19.287 86.4015 20.7367 85.9437C21.2909 85.6135 21.55 85.1988 22.0656 84.8578C23.7356 84.1596 24.5737 84.6141 26.3485 83.8445C27.4907 84.0232 28.7531 84.0659 30.2306 83.864C31.365 84.227 32.5105 84.5782 33.7099 84.8679C34.0127 85.1043 34.2409 85.4241 34.5765 85.623C34.9751 85.6118 35.4497 85.6368 35.9067 85.2728C35.2129 83.7601 32.9624 84.0131 31.5429 83.3237C30.9289 83.5113 30.5771 83.4016 30.0501 83.4901C28.4936 83.0216 27.0414 83.2675 24.7438 83.6109C23.6873 83.7688 22.9165 83.7338 21.9296 84.2222C19.7444 85.3026 17.6552 86.4322 16.7568 87.8248C15.2151 89.0328 14.0237 90.3418 13.0493 91.7132C12.9617 91.8714 13.0171 92.0712 12.8843 92.2167C12.7263 92.4155 12.3554 92.5538 12.1456 92.738C10.1598 95.6206 8.9223 99.0626 8.04008 101.975C8.26509 101.942 8.67132 101.756 8.87164 101.664Z" fill="#B1C7C7"/>
<path fill-rule="evenodd" clip-rule="evenodd" d="M56.64 97.7495C56.6129 97.0681 55.9535 96.7977 55.2259 97.2396C54.6811 97.1358 54.2817 96.8659 53.6778 96.8292L53.1246 97.0361C52.225 96.718 51.2424 96.4944 49.9286 96.6491C49.5232 96.4744 49.4788 95.8872 48.9837 95.815C48.9701 94.5205 47.4669 94.9264 47.2142 93.9049C46.771 93.7738 46.5086 93.4349 46.1402 93.218C45.4582 92.4393 44.9432 91.4688 43.6602 91.376C43.3683 91.8801 43.8246 92.2752 43.9322 92.6594C44.6046 93.1131 45.1407 93.7231 45.6783 94.3308C46.4161 94.7216 47.8979 95.0742 47.7103 95.9945C46.4991 95.5713 44.8295 95.6725 44.5192 94.2204C44.3402 94.2121 44.0979 94.2762 44.0106 94.1632C43.7311 93.4291 43.2726 92.863 42.9517 92.185C43.7237 90.6327 41.7846 90.4729 40.9457 90.0664C40.7337 88.7144 39.7009 88.2997 38.6484 87.9079C37.5992 86.6621 36.0657 85.9697 33.998 85.8883C33.4085 85.3922 32.764 84.9602 31.4934 85.2423C30.6302 84.9352 29.662 84.7483 28.3122 84.9976C28.0083 85.0077 27.93 84.7607 27.4481 84.9745C27.4456 84.8534 27.4359 84.7409 27.3503 84.7142C26.4875 84.8854 25.6548 85.0217 25.0704 84.8748C22.4431 85.2199 19.565 87.001 18.1905 88.5363C15.4975 90.2868 14.7328 92.606 13.0641 94.6586C13.1192 94.8294 12.9642 94.9376 13.038 95.1135C10.8465 97.4373 9.99009 100.288 9.50903 102.865C8.87279 104.075 8.72081 105.243 8.87996 106.612C9.06002 106.61 9.0776 106.342 9.15255 106.46C9.49591 106.31 8.98984 106.417 9.05959 106.248C9.23163 106.145 9.38608 106.036 9.45556 105.902C9.52009 102.836 11.5398 100.101 12.1869 97.3611C13.1237 96.2037 13.949 95.0125 14.4784 93.7339C16.1165 91.7495 18.1317 89.8764 19.8502 87.9155C20.8962 87.0418 22.3111 86.0538 23.9383 85.7434C31.2634 85.2745 36.9037 86.7309 40.2324 90.8278C41.9512 92.8672 43.5174 95.0816 44.918 97.4845C45.5938 97.7532 46.0119 98.5033 46.9023 98.6714C47.9599 99.7658 50.5757 99.5411 52.1517 100.22C52.4528 100.107 52.7725 99.9714 52.9867 99.957C52.9424 100.129 52.7449 100.256 52.748 100.442C52.9653 100.46 53.3103 100.331 53.2704 100.642C53.7936 100.381 53.9362 100.555 54.2626 100.519C54.4486 100.357 54.6794 100.21 54.9349 100.069C54.9363 101.257 57.8547 100.806 58.985 100.384C59.1441 100.232 59.2815 100.071 59.2189 99.8518C58.0927 100.155 57.6366 100.114 56.5377 100.311C55.8464 100.17 56.415 99.2082 55.7667 99.0653C55.2696 99.4106 54.811 99.1422 54.2366 99.5388C54.1694 99.3648 54.2754 99.2422 54.2628 99.0843C53.0802 99.2301 52.3066 98.9095 51.1044 99.0782C49.9959 98.4049 47.9235 98.5808 47.4195 97.3893C47.2014 97.2846 46.9229 97.2486 46.7446 97.0977C46.0073 97.555 44.7756 96.7312 45.2827 96.1115C46.8835 96.514 48.539 96.8543 49.6829 97.7796C50.6467 97.9538 51.8288 97.8785 52.6664 98.197C53.0321 98.1258 53.0711 97.7948 53.3488 97.8433C53.3356 98.0267 53.1945 98.1396 53.3179 98.2502C53.6141 98.3234 54.1724 98.1186 54.4249 97.8361C55.4371 98.1198 56.9084 98.244 58.2689 97.5359C58.2088 97.6724 57.8057 97.7077 57.873 97.8821C59.411 97.3492 59.8054 98.1616 61.0807 97.6709C60.7472 97.5563 60.6244 97.201 60.432 96.9248C59.0972 97.2866 57.9813 96.5714 56.64 97.7495Z" fill="#B1C7C7"/>
<path fill-rule="evenodd" clip-rule="evenodd" d="M42.7935 83.9044C43.1498 82.8279 41.4798 82.7737 40.8996 82.2426C40.4966 81.8352 40.1383 81.3765 39.6323 81.0871C39.4294 81.0703 39.1668 81.1225 38.9196 81.156C38.4884 80.6922 37.8655 80.4469 37.0465 80.4245C36.7633 80.5113 36.5652 80.6226 36.58 80.7967C36.9817 81.5765 38.1984 81.4288 38.6584 82.1428C40.2496 82.4872 40.9315 83.8672 42.7935 83.9044Z" fill="#B1C7C7"/>
<path fill-rule="evenodd" clip-rule="evenodd" d="M16.5082 93.8956C17.8334 92.5723 18.287 90.993 20.0144 89.7877C20.7182 88.3734 23.1862 87.4784 25.1639 86.4394C25.2432 86.2232 24.8307 86.1669 24.5672 86.1714C23.1375 86.6536 22.0257 87.2289 20.9561 87.8167C19.7788 89.1217 18.1441 90.2931 17.2843 91.6922C16.658 92.0464 16.2733 92.6537 16.281 93.0487C15.4993 93.8283 14.9196 94.668 14.7589 95.6293C14.597 95.7199 14.4519 95.8147 14.2138 95.8822C12.3394 98.3173 11.4006 101.207 10.5185 103.789C10.6075 104.677 10.316 105.753 10.3913 106.78C10.5818 106.72 10.6146 106.841 10.6893 106.914C11.5633 106.493 11.5496 105.524 11.1514 105.122C11.7185 103.59 12.3002 101.822 12.5974 100.362C13.6396 98.8488 13.6837 97.0413 15.5566 95.7724C15.5683 95.5928 15.714 95.4516 15.6469 95.2485C15.8949 95.046 16.0202 94.8078 16.3688 94.6347C16.3961 94.3827 16.4683 94.1439 16.5082 93.8956Z" fill="#B1C7C7"/>
<path fill-rule="evenodd" clip-rule="evenodd" d="M6.14914 94.1238C6.42737 93.8852 6.32252 93.4733 5.80798 93.7194C5.68207 93.9779 5.7139 94.2955 6.14914 94.1238Z" fill="#B1C7C7"/>
<path fill-rule="evenodd" clip-rule="evenodd" d="M72.0907 69.4774C72.3154 69.8827 72.9985 69.2773 72.7448 68.9446C72.419 69.068 72.1685 69.2299 72.0907 69.4774Z" fill="#B1C7C7"/>
<path fill-rule="evenodd" clip-rule="evenodd" d="M15.1432 106.755C14.9792 106.589 14.8521 106.38 14.8528 106.027C15.2649 105.1 15.1371 104.019 16.0197 103.227C16.8088 100.081 17.6157 96.4497 19.0696 93.2237C20.3278 92.125 20.877 90.8227 21.9708 89.6769C23.4344 88.6636 25.3798 87.7153 27.2703 86.9563C28.2132 86.7336 28.8054 86.9092 30.0334 86.3658C29.8906 86.1043 29.4504 86.1797 29.139 86.109C27.5855 86.2254 25.4021 86.5646 23.889 87.8757C22.8509 88.0585 22.3219 88.7765 21.7838 89.2542C21.6987 89.3683 21.3902 89.4183 21.305 89.5317C19.3687 91.2662 18.1096 93.1944 17.3198 95.257C16.8269 95.7761 16.4263 96.3224 16.6299 97.0409C16.2566 97.9944 16.1994 99.0381 15.6166 99.9311C15.6729 100.224 15.5415 100.463 15.6283 100.764C14.7105 102.329 14.638 104.137 14.0334 105.792C14.3854 109.939 16.1764 112.402 19.165 113.67C17.0481 112.261 15.9512 109.698 14.8877 107.097C14.8124 106.937 15.2186 106.915 15.1432 106.755Z" fill="#B1C7C7"/>
<path fill-rule="evenodd" clip-rule="evenodd" d="M6.9225 95.2313C6.35732 95.2004 6.3481 95.8163 6.33925 96.197C6.59866 96.1007 6.87693 96.0133 7.04949 95.8779C7.00308 95.6676 7.05409 95.3262 6.9225 95.2313Z" fill="#B1C7C7"/>
<path fill-rule="evenodd" clip-rule="evenodd" d="M54.1416 101.119C53.9456 101.009 53.8265 101.416 53.7315 101.322C53.2599 100.71 51.7538 101.28 51.1691 100.797C50.9864 100.698 50.8202 101.121 50.6154 101.004C50.5481 100.861 50.8622 100.83 50.8726 100.71L50.3195 100.917C50.1831 100.772 49.9803 100.702 49.9811 100.401C49.7636 100.472 49.4766 100.623 49.3537 100.586C48.8604 100.205 48.3129 99.6839 47.3582 99.9972C45.9871 99.1024 44.3665 98.4922 43.733 96.7541C43.5822 96.6262 43.2912 96.6576 43.2017 96.4581C43.4928 95.6221 42.8459 95.1978 42.5271 94.7327C41.5107 94.7778 41.2823 93.9234 40.6167 93.5681C40.0293 91.9384 38.6624 90.5624 37.271 89.5277C37.0989 89.4332 37.3002 89.1894 37.1589 89.1246C37.0129 88.9374 36.5419 89.1213 36.4194 88.9068C36.3168 88.7586 36.2421 88.5786 36.2196 88.3385C34.3471 87.3968 32.8228 86.0564 29.3379 86.9566C28.7012 87.434 27.7173 87.5842 27.1803 87.6155C24.3058 88.5975 21.7035 89.8256 20.977 91.5678C20.7354 91.6814 20.6107 91.8298 20.443 91.9655C18.4484 95.1045 17.7153 98.8201 16.6804 102.374C17.2755 106.892 18.6705 110.833 21.9254 112.478C22.2125 113.23 22.9465 113.472 23.9543 113.4C21.6917 112.179 20.2821 110.201 18.8868 107.927C18.802 107.039 18.5274 106.331 18.0949 105.751C17.6853 103.574 17.6373 101.163 18.7092 98.9933C18.9081 97.8187 19.1753 96.6639 20.1743 95.7253C19.7648 94.9313 20.3845 94.1513 20.5863 93.3952C20.6933 93.2726 20.9887 93.2052 21.2037 93.1152C21.672 91.341 22.8903 89.7888 25.786 88.7303C26.0543 88.707 26.3183 88.689 26.6341 88.6114C30.188 86.8897 31.7634 87.8866 33.6944 88.1951C35.1884 89.2331 36.6914 90.2607 37.8456 91.6868C40.2752 95.1448 43.2543 98.4345 46.7296 100.875C47.547 100.915 48.278 101.053 48.6655 101.585C49.9941 101.785 51.5407 101.735 52.5397 102.312C54.167 101.746 55.1076 102.94 57.0148 101.874C56.2666 101.383 54.6768 101.854 54.1416 101.119Z" fill="#B1C7C7"/>
<path fill-rule="evenodd" clip-rule="evenodd" d="M23.3178 108.621C23.1541 107.891 22.669 107.521 22.3474 106.968C22.3125 106.559 22.2292 106.136 22.2997 105.757C21.4376 104.82 21.7346 102.887 21.0216 101.761C21.5834 100.001 20.7358 98.6217 21.4308 97.0867C21.2481 96.6782 21.0425 96.5243 21.0956 95.9338C21.8885 94.3589 22.6248 92.7685 23.6247 91.2518C24.3563 90.6586 25.4854 90.175 26.0106 89.5238C24.8441 88.8398 23.2618 90.8994 22.3421 91.5843C21.5718 93.0268 20.2403 94.3132 20.5228 96.0495C19.7824 96.8102 19.2118 97.6181 19.016 98.5306C19.0148 99.6774 18.2389 101.319 19.4145 101.773C20.1497 100.361 19.1241 98.478 20.3588 97.34C20.5942 99.2211 20.3027 101.029 19.97 102.942C19.9788 103.16 20.4184 102.896 20.36 103.189C20.0118 104.164 20.5866 105.271 21.0636 105.826C21.0147 106.752 21.6977 107.6 21.8557 108.627C21.998 108.801 22.3334 108.759 22.4723 108.937C22.8291 111.213 25.1338 111.696 26.5331 112.972C26.3808 113.194 26.1104 112.959 25.9687 113.183C26.6031 113.28 27.3473 113.253 28.0273 113.298C27.776 112.82 26.755 113.185 26.9785 112.314C26.8184 112.142 26.3398 112.328 26.1607 112.178C25.5551 111.118 24.142 110.682 23.5116 109.826C25.2278 110.115 26.0511 111.405 27.6599 111.814C28.1736 112.098 28.6358 112.44 29.2074 112.66C29.4927 112.602 29.405 112.439 29.6908 112.381C29.663 112.511 29.4277 112.584 29.5081 112.745C30.2968 112.738 30.595 113.281 31.5856 113.048C29.6975 112.426 28.3142 111.237 26.5064 110.525C25.7557 109.54 24.1317 109.534 23.3178 108.621Z" fill="#B1C7C7"/>
<path fill-rule="evenodd" clip-rule="evenodd" d="M23.7404 105.519C24.6703 106.42 25.5037 107.696 26.2782 108.595C24.5972 108.539 23.7699 107.036 23.7404 105.519Z" fill="#B1C7C7"/>
<path fill-rule="evenodd" clip-rule="evenodd" d="M52.5612 103.221C51.5175 103.39 50.5406 103.483 50.1678 102.886C49.0553 103.115 48.4783 102.573 48.0891 102.138C47.4705 102.351 47.216 102.148 46.6724 102.275C46.7265 101.931 46.3049 102.13 46.3399 101.809C44.8615 101.909 44.6954 100.513 43.3438 100.469C43.0554 99.2302 42.3133 98.5089 41.2519 98.152C40.2504 96.9334 39.2881 95.6705 38.0473 94.7252C36.2521 92.4744 35.2237 89.3487 31.8162 88.9374C30.9428 88.1785 29.1791 88.3115 26.852 89.3676C25.2128 91.2493 22.5742 92.8376 22.6457 95.2214C21.494 97.9542 22.3657 101.198 22.3909 103.387C22.6876 103.665 22.8167 104.134 23.0708 104.461C23.0693 104.552 22.8403 104.577 22.8042 104.659C22.8992 104.797 22.9194 105.021 22.9996 105.176C22.8149 108.682 25.6022 109.253 27.4761 110.587C28.2387 110.704 28.8161 111.031 29.4112 111.339C30.5964 112.224 33.0146 111.704 34.6368 112.091C33.2351 111.435 31.4022 111.271 29.5347 111.145C29.586 110.977 29.7906 110.852 29.6991 110.641C29.6086 110.515 29.3434 110.588 29.1878 110.537C29.0949 110.344 28.8406 110.334 28.8505 110.024C28.06 109.868 27.5678 109.373 27.0242 108.936C26.6262 107.018 25.3565 105.513 24.2761 104.354C24.5047 103.427 23.3075 103.151 23.7173 102.349C23.5316 102.226 23.3441 102.106 23.1134 102.034C23.5039 101.795 23.4037 101.413 23.6673 101.138C23.3942 101.185 23.1116 101.244 23.083 101.012C23.3922 100.403 23.3746 100.18 23.0972 99.7272C23.2248 99.4576 23.5492 99.246 23.5917 98.9516C22.8587 96.177 23.7283 93.1088 26.3741 91.0222C26.6162 90.9749 26.8364 90.9527 26.9494 91.0532C27.5067 92.3091 26.8259 93.9134 26.9391 95.2394C27.098 97.081 28.1192 98.7772 28.9385 100.199C29.9088 101.883 31.1169 103.459 32.6478 104.372C32.594 104.479 32.4951 104.572 32.4644 104.686C34.3595 106.083 35.9134 107.869 38.7524 108.19C39.0111 108.122 39.1382 107.894 39.2992 107.936C40.1762 108.609 42.0536 108.141 42.8325 108.926C44.2358 108.805 45.2529 109.126 46.5701 109.103C46.857 109.076 46.8621 108.733 47.0433 108.828C47.1187 108.957 46.8738 108.993 46.8557 109.095C47.2383 109.071 48.078 108.781 48.4505 108.596C48.027 108.197 46.293 108.839 45.9734 108.146C44.6444 108.481 44.1376 107.879 42.7013 108.336C42.5825 108.193 43.0088 108.211 42.89 108.069C41.6936 107.689 40.2737 107.564 39.5942 106.595C38.8607 106.546 38.5735 105.724 37.5493 106.179C37.2561 107.203 38.9163 106.862 39.1923 107.582C38.0185 107.722 36.882 107.365 36.7583 106.131C36.0147 106.028 35.7424 105.387 34.7681 105.547C35.0094 105.139 34.5234 105.27 34.3068 105.227C34.2381 104.425 33.5807 104.293 32.8491 104.247C32.9725 104.068 32.8487 103.817 32.8567 103.605C31.1022 100.849 28.3245 98.9795 27.7762 95.0246C28.5547 96.2155 29.2897 97.456 29.8782 98.8635C30.7512 99.1181 31.1183 99.9503 31.8199 100.401C31.9953 101.645 32.9949 101.95 33.4302 102.898C34.5873 103.838 35.9218 104.83 37.3503 105.614C39.029 105.32 39.4409 106.471 40.933 106.39C40.8212 106.535 40.7913 106.588 40.8921 106.7C42.3358 107.062 43.3392 107.927 45.607 107.347C44.2505 106.728 42.3006 106.786 41.1705 105.908C40.362 105.966 39.7249 105.83 39.4611 105.267C37.2427 104.961 36.1553 103.365 34.5228 102.391C34.5579 101.868 34.0196 101.947 33.812 101.722C33.5248 101.41 33.3802 101.064 33.1517 100.837C32.158 99.8567 32.0539 98.1799 30.5005 97.9418C29.6796 96.1476 28.3117 94.9776 27.8384 92.7871C28.2613 92.2973 28.1864 91.6616 28.0906 91.0199C29.4655 90.5518 30.2823 91.1561 31.0737 91.5277C31.8856 93.2116 33.757 94.4191 34.1549 96.5748C34.5988 96.5981 34.7839 96.8858 34.668 97.4163C35.4837 97.5257 35.6284 98.3997 35.9119 99.1158C36.6205 99.9813 37.4281 100.734 38.2893 101.425C38.6349 102.335 39.6442 102.486 40.3746 102.958C40.6756 102.949 41.002 102.911 41.1709 103.053C41.1243 103.174 40.9057 103.344 41.0616 103.39C43.1326 104.551 45.4682 105.409 48.5596 105.407C48.5496 105.526 48.4446 105.653 48.5881 105.691C49.426 105.617 49.9905 105.854 51.1365 105.427C51.243 105.553 51.2694 105.769 51.4606 105.798C51.9685 105.683 52.5132 105.785 53.1338 105.369C53.1633 105.003 52.1341 105.398 52.2953 104.846C51.9357 104.839 51.3056 105.246 51.1222 105.284C51.2699 105.14 51.2612 104.984 51.1536 104.879C49.5386 104.942 47.8188 105.124 47.0787 104.189C45.4561 104.56 45.056 103.537 43.6623 103.647C43.7931 103.18 43.1092 103.386 43.306 102.944C43.0154 102.923 42.686 102.946 42.6332 102.654C42.551 102.462 42.9665 102.414 42.9496 102.24C42.2719 102.412 42.0311 101.93 41.311 102.312C39.5203 101.096 37.0008 99.9447 37.0197 97.3239C36.0423 97.2933 36.2303 95.9339 35.3636 95.7786L35.2543 94.6878C33.1434 93.1662 32.7346 89.7042 29.1219 89.8957C28.277 90.3577 27.3667 90.5071 27.2035 90.0234C29.8809 88.7361 32.0033 89.4419 32.8572 90.7622C34.8254 91.8291 35.967 93.8386 37.0249 95.944C37.5103 96.0779 37.8899 96.3318 38.0445 96.8422C38.2305 96.8941 38.4816 96.872 38.6293 96.9676C38.7492 97.0779 38.8876 97.1662 38.9529 97.3388C39.8507 97.5481 40.2626 98.3115 40.8263 98.9015C41.3927 99.3063 42.7509 99.8368 42.2953 100.714C41.4891 100.753 41.0969 100.319 40.8382 99.7335C39.2969 99.6588 39.6046 97.1952 37.7666 97.6351C37.6087 98.0386 38.0168 98.2213 37.9448 98.7001C39.5918 99.7283 40.6262 101.455 43.2222 101.4C43.273 101.614 43.1321 101.773 43.2109 101.995C46.0541 103.544 49.6677 104.214 54.0688 103.986C54.4176 103.858 54.4575 103.778 54.7582 103.728C54.8046 103.798 54.8128 103.912 54.9202 103.913C54.783 103.577 55.2367 103.644 55.3007 103.426C54.087 103.859 53.9316 103.085 52.7328 103.501C52.6328 103.456 52.5339 103.411 52.5612 103.221Z" fill="#B1C7C7"/>
<path fill-rule="evenodd" clip-rule="evenodd" d="M9.69482 96.8141C9.661 96.5406 9.62434 96.2655 9.6869 96.0202C8.53615 96.6689 8.74179 97.7233 7.85064 98.4497C7.73688 99.4432 6.74847 101.05 7.45774 101.683C7.3884 100.794 7.93523 100.089 8.51898 99.3945C8.52877 98.4198 9.25674 97.6602 9.69482 96.8141Z" fill="#B1C7C7"/>
<path fill-rule="evenodd" clip-rule="evenodd" d="M42.9469 109.273C42.4362 109.344 42.1846 109.121 41.6489 109.22C41.1802 108.77 40.2071 108.892 39.6422 108.551C37.678 108.78 36.5249 108.089 35.4261 107.336C35.2402 107.302 34.9401 107.396 34.7155 107.405C34.7389 107.082 34.2149 106.513 33.4944 106.687C32.204 105.289 30.7613 103.995 29.9637 102.277C29.5058 102.025 29.2172 101.582 28.6592 101.443C29.0808 101.033 28.434 100.804 28.4765 100.335C28.329 100.205 27.992 100.289 27.8796 100.118C27.8789 99.176 27.6147 98.6555 27.2286 97.9126C26.7923 97.0752 26.7985 95.8595 26.3259 95.3604C26.6162 94.73 26.503 93.9533 26.2106 93.4937C26.3122 92.9847 26.81 92.357 26.5539 91.896C25.9222 91.9518 25.7455 92.5127 25.4972 92.8298C25.4698 94.6615 26.1525 96.2637 26.1754 98.1594C26.7784 99.7205 27.7395 100.842 27.7798 102.702C28.2446 102.473 28.4258 102.566 28.6989 102.554C30.4919 104.833 32.1041 107.316 35.1513 108.173C35.2556 108.231 35.2444 108.418 35.328 108.499C38.1463 109.44 41.421 109.864 44.8294 110.136C45.349 110.021 45.9172 109.85 46.5695 109.584C45.3099 109.732 44.5114 109.358 43.1283 109.646C43.0345 109.559 42.9998 109.406 42.9469 109.273Z" fill="#B1C7C7"/>
<path fill-rule="evenodd" clip-rule="evenodd" d="M6.51891 99.6441C6.53438 99.582 6.59151 99.5327 6.7051 99.502C6.71636 99.3084 6.54894 99.3243 6.29717 99.4389C6.28631 99.6066 6.34709 99.6907 6.51891 99.6441Z" fill="#B1C7C7"/>
<path fill-rule="evenodd" clip-rule="evenodd" d="M13.0778 105.342C13.1407 104.698 13.6457 103.942 13.7656 103.306C13.9377 102.398 14.1117 101.633 14.4062 100.793C14.5242 100.474 14.0458 100.582 14.165 100.438L14.562 100.29C14.7072 99.6398 14.7937 99.1398 15.3493 98.5624C14.9874 98.0446 16.2296 97.1138 15.5554 96.5083C14.4082 96.9117 14.4356 98.0786 14.22 98.9351C13.7221 99.4198 13.5864 100.021 13.7119 100.707C12.6561 101.691 13.1508 103.048 12.3441 104.183C12.5114 105.098 12.3345 105.901 12.2566 106.737C12.6683 108.506 13.0525 110.62 14.3032 111.407C14.3004 111.588 14.3451 111.713 14.4123 111.811C14.6028 111.782 14.6995 111.863 14.9563 111.756C13.5448 110.155 12.8425 107.743 13.0778 105.342Z" fill="#B1C7C7"/>
<path fill-rule="evenodd" clip-rule="evenodd" d="M30.853 94.5417C31.5848 94.858 31.9162 95.6173 32.1672 96.4647C31.2408 96.3814 30.9302 95.3957 30.853 94.5417Z" fill="#B1C7C7"/>
<path fill-rule="evenodd" clip-rule="evenodd" d="M34.0989 99.5998C36.2356 103.128 40.1631 104.629 44.178 106.03C44.7066 106.028 45.254 106.004 45.5031 106.32C45.6739 106.369 45.7178 106.148 45.9842 106.09C46.4553 106.96 47.6994 106.955 48.7563 107.162C49.064 106.991 49.2566 106.785 49.6395 106.636C48.3755 106.383 47.2657 105.955 45.7573 105.979C45.0874 105.456 44.0898 105.306 43.0829 105.165C42.9058 104.962 42.666 104.83 42.5858 104.518C40.2693 104.07 38.6958 102.781 37.1653 101.444C36.4646 99.6754 34.1616 99.267 33.7007 97.0515C32.6935 96.7361 33.03 95.0208 32.4014 94.1536C32.0749 93.7032 31.4987 93.6756 31.4356 93.142C31.1725 93.0188 30.8164 93.001 30.6101 92.8131C30.687 92.305 30.1766 92.4623 30.0442 92.1911C30.0569 91.6855 29.9046 91.3662 29.5234 91.307C28.82 91.4571 28.7463 91.7878 28.7423 92.1388C30.0418 93.8604 30.1435 96.9382 32.515 97.446L32.5718 98.0134C33.073 98.5517 33.4444 99.2362 34.0989 99.5998Z" fill="#B1C7C7"/>
<path fill-rule="evenodd" clip-rule="evenodd" d="M56.3242 92.2502C56.7124 92.2594 57.3843 92.2051 57.8861 91.9121C57.5529 91.092 55.9887 91.6606 55.6079 90.8942C55.3981 90.9547 55.2452 90.9513 55.104 90.9348C54.1694 89.878 52.7473 89.3716 51.3399 88.8488C51.2011 88.8291 51.2999 88.5416 51.1616 88.5221C50.6182 88.3086 49.8702 88.326 49.7651 87.6172C49.1174 87.7502 49.1204 87.1484 48.4955 87.2552C47.8689 86.5899 47.0863 86.1001 46.0389 85.9099C45.907 85.9802 45.7393 86.0403 45.7733 86.1575C45.5493 86.7455 46.4116 86.5627 46.5728 86.8917C47.8372 88.4213 50.0282 88.9035 51.347 90.3717C53.3108 90.6542 54.7396 91.5408 56.3242 92.2502Z" fill="#B1C7C7"/>
<path fill-rule="evenodd" clip-rule="evenodd" d="M36.0804 111.233C34.8652 111.487 34.655 110.586 33.6842 110.559C32.7836 109.941 31.4952 109.769 30.5182 109.239C30.3735 109.197 30.4475 108.986 30.4803 108.861C29.4214 108.727 28.6108 107.793 28.5186 106.895C27.2607 106.36 27.4792 104.408 26.361 103.677C26.9098 102.969 26.2056 102.584 26.0586 102.072C25.7913 101.138 25.0976 100.305 25.0614 99.1566C25.0534 98.8983 25.2522 98.5718 25.2574 98.2984C25.2788 97.2104 24.6213 96.3406 24.9302 95.0335C24.7656 94.8711 24.7524 94.5346 24.4556 94.5238C24.2001 94.5996 24.0603 94.7112 24.0668 94.8657C24.0835 95.856 24.0027 97.1813 24.3798 97.9884C23.9167 100.728 24.9772 102.622 25.6162 104.692C26.0556 106.116 27.8738 106.866 27.9803 108.569C29.2198 109.377 30.6241 109.996 31.8731 110.794C32.6443 110.787 33.2677 110.95 33.8822 111.122C34.1555 111.162 34.2332 110.84 34.4943 110.893C34.673 111.789 36.3593 111.837 37.2435 112.27C37.948 112.15 38.7131 112.229 39.3358 112.027C38.6809 111.829 37.4154 111.88 36.4918 111.815C36.497 111.458 36.2154 111.43 36.0804 111.233Z" fill="#B1C7C7"/>
<path fill-rule="evenodd" clip-rule="evenodd" d="M6.58678 102.398C6.77512 102.377 6.85979 102.462 7.15674 102.33C7.35469 102.172 7.28747 101.961 7.26479 101.759C6.75527 101.916 6.65382 102.154 6.58678 102.398Z" fill="#B1C7C7"/>
<path fill-rule="evenodd" clip-rule="evenodd" d="M7.59698 104.851C8.1219 104.161 8.14603 103.219 8.44172 102.251C7.30459 102.006 7.45309 104.022 7.59698 104.851Z" fill="#B1C7C7"/>
<path fill-rule="evenodd" clip-rule="evenodd" d="M6.61582 102.535C6.52451 102.706 7.01187 102.629 7.20998 102.457C6.94545 102.533 6.95543 102.402 6.61582 102.535Z" fill="#B1C7C7"/>
<path fill-rule="evenodd" clip-rule="evenodd" d="M24.9741 112.537C23.4456 111.365 22.2612 109.805 20.9714 108.365C21.1461 108.214 21.0823 107.996 21.0604 107.789C19.9553 106.057 20.0289 103.407 18.6305 101.797L18.4186 101.876C18.2664 102.387 18.4711 102.998 18.2892 103.502C18.4977 103.639 18.4944 103.982 18.4411 104.283C18.9214 105.189 19.2846 106.081 19.5266 107.081C20.0299 109.17 21.8115 110.783 23.3699 111.855C24.0922 112.352 24.6322 113.142 25.972 113.002C25.8792 112.577 25.4277 112.556 24.9741 112.537Z" fill="#B1C7C7"/>
<path fill-rule="evenodd" clip-rule="evenodd" d="M68.6865 84.0148C68.7805 84.1461 68.8642 84.2895 69.1008 84.2589C69.2956 84.0765 69.4985 83.7813 69.3626 83.6286C69.0375 83.7287 68.842 83.8657 68.6865 84.0148Z" fill="#B1C7C7"/>
<path fill-rule="evenodd" clip-rule="evenodd" d="M17.5965 109.219C17.6777 107.98 16.9229 107.692 16.7062 106.793C16.4549 105.863 16.815 104.422 16.1194 103.809C14.9622 104.856 16.1194 106.158 15.6855 107.371C16.0981 108.075 16.1406 109.253 17.319 109.323C17.1952 109.441 17.0227 109.544 17.0706 109.712C18.1247 111.617 19.6487 113.552 21.9296 113.709C21.5355 113.152 20.8045 112.978 20.2376 112.617C19.2665 111.588 18.6524 110.152 17.5965 109.219Z" fill="#B1C7C7"/>
<path fill-rule="evenodd" clip-rule="evenodd" d="M8.99464 106.743C8.81015 107.297 9.07833 107.555 9.22153 107.999C9.64173 107.677 10.0018 106.516 8.99464 106.743Z" fill="#B1C7C7"/>
<path fill-rule="evenodd" clip-rule="evenodd" d="M10.9868 108.141C11.3291 107.624 11.0873 107.217 10.8 106.931C10.6103 107.038 10.6052 106.915 10.4156 107.023C10.5766 107.644 10.4159 108.938 11.217 109.131C11.4504 108.64 11.2899 108.337 10.9868 108.141Z" fill="#B1C7C7"/>
<path fill-rule="evenodd" clip-rule="evenodd" d="M34.6072 108.713C34.4602 108.685 34.0953 108.908 33.9762 108.85C33.9749 108.757 34.201 108.732 34.1689 108.63C32.1239 107.806 30.4493 106.643 29.6069 104.568C28.7253 104.374 29.0411 102.814 27.9333 102.878C27.6097 103.044 27.6907 103.329 27.645 103.577C28.1938 103.926 28.3162 104.449 28.571 104.956C29.6441 107.098 31.5392 108.484 33.4571 109.389C35.7724 109.819 37.4909 110.93 40.2006 110.909C40.2185 111.083 40.4182 111.049 40.5099 111.139C41.5637 110.978 42.1889 111.306 43.2982 111.082C43.4233 110.934 43.6702 110.822 43.6841 110.642C39.8546 110.916 37.2488 109.794 34.6072 108.713Z" fill="#B1C7C7"/>
<path fill-rule="evenodd" clip-rule="evenodd" d="M11.4653 109.574C11.3779 109.922 11.538 110.678 12.2713 110.614C12.1759 110.146 11.9725 109.787 11.7187 109.48L11.4653 109.574Z" fill="#B1C7C7"/>
<path fill-rule="evenodd" clip-rule="evenodd" d="M15.3963 112.304C15.1976 112.205 15.0231 112.079 14.6957 112.122C14.5356 112.617 15.4788 112.264 15.2592 112.978C15.4351 112.884 15.7866 112.837 15.847 112.714C15.6575 112.636 15.4314 112.599 15.2773 112.482C15.2768 112.412 15.4421 112.386 15.3963 112.304Z" fill="#B1C7C7"/>
<path fill-rule="evenodd" clip-rule="evenodd" d="M55.2292 98.907C55.3983 98.9542 55.7447 99.0138 55.9558 98.7697C55.8646 98.5037 55.568 98.5279 55.2684 98.5551C55.2154 98.6538 55.1912 98.7647 55.2292 98.907Z" fill="#B1C7C7"/>
<path fill-rule="evenodd" clip-rule="evenodd" d="M56.6981 98.714L56.7307 99.0396C57.3244 99.0508 57.8729 99.1134 58.6788 98.8892C58.7951 98.6646 59.2619 98.5349 59.2723 98.2815C58.2136 98.6189 57.7451 97.785 56.6981 98.714Z" fill="#B1C7C7"/>
<path fill-rule="evenodd" clip-rule="evenodd" d="M60.827 98.6222C60.9907 98.467 61.1964 98.3229 61.1128 98.0936C60.5266 97.9075 60.0447 98.883 60.827 98.6222Z" fill="#B1C7C7"/>
<path fill-rule="evenodd" clip-rule="evenodd" d="M24.1446 113.422C24.1534 113.629 24.7384 113.496 24.7318 113.274C24.6092 113.237 24.3822 113.323 24.1446 113.422Z" fill="#B1C7C7"/>
<path fill-rule="evenodd" clip-rule="evenodd" d="M56.7013 102.386C57.005 102.26 57.273 102.121 57.253 101.891C57.0325 101.84 56.5952 102.126 56.7013 102.386Z" fill="#B1C7C7"/>
<path fill-rule="evenodd" clip-rule="evenodd" d="M31.0956 111.89C31.5332 112.624 32.8543 112.327 33.774 112.498C32.9501 112.215 32.3444 111.676 31.0956 111.89Z" fill="#B1C7C7"/>
<path fill-rule="evenodd" clip-rule="evenodd" d="M50.0343 106.692C49.9915 106.58 50.1589 106.53 50.083 106.409C49.4627 106.587 49.1254 106.836 49.3859 107.146C50.0036 107.086 50.655 106.988 51.4978 106.673C51.5733 106.038 50.7561 106.419 50.0343 106.692Z" fill="#B1C7C7"/>
<path fill-rule="evenodd" clip-rule="evenodd" d="M33.8042 112.799C34.1191 112.812 34.5588 113.235 34.924 112.779C34.5211 112.864 34.2687 112.427 33.8042 112.799Z" fill="#B1C7C7"/>
</g>
</g>
</g>
</svg>
