<svg width="109" height="112" viewBox="0 0 109 112" fill="none" xmlns="http://www.w3.org/2000/svg">
<path fill-rule="evenodd" clip-rule="evenodd" d="M54.2755 4.56441C44.8838 11.7145 45.7141 19.7247 30.1964 19.7247C14.6788 19.7247 -12.6109 65.2055 7.18749 83.6144C26.9859 102.023 41.9684 118.266 66.5826 109.603C91.1968 100.94 92.8021 93.9017 102.969 66.8298C113.136 39.7579 109.722 22.1624 93.8669 10.1875C78.0121 -1.78738 63.6672 -2.58571 54.2755 4.56441Z" fill="#82A859"/>
<mask id="mask0" mask-type="alpha" maskUnits="userSpaceOnUse" x="0" y="0" width="109" height="112">
<path fill-rule="evenodd" clip-rule="evenodd" d="M54.2755 4.56441C44.8838 11.7145 45.7141 19.7247 30.1964 19.7247C14.6788 19.7247 -12.6109 65.2055 7.18749 83.6144C26.9859 102.023 41.9684 118.266 66.5826 109.603C91.1968 100.94 92.8021 93.9017 102.969 66.8298C113.136 39.7579 109.722 22.1624 93.8669 10.1875C78.0121 -1.78738 63.6672 -2.58571 54.2755 4.56441Z" fill="white"/>
</mask>
<g mask="url(#mask0)">
<g opacity="0.2">
<path fill-rule="evenodd" clip-rule="evenodd" d="M74.3383 -38.5201C73.5391 -38.2416 71.8774 -39.115 71.6928 -38.0157C72.1142 -37.2232 74.3806 -37.146 74.3383 -38.5201Z" fill="white"/>
<path fill-rule="evenodd" clip-rule="evenodd" d="M65.3154 -36.2979C66.3358 -35.7927 68.838 -35.2358 69.0466 -36.7403C67.6103 -36.7712 65.1384 -36.0557 65.6556 -37.6264C65.3572 -37.5416 64.658 -37.8047 64.6365 -37.4789C65.0828 -37.2753 65.3711 -36.9374 65.3154 -36.2979Z" fill="white"/>
<path fill-rule="evenodd" clip-rule="evenodd" d="M83.7297 -34.5452C87.9432 -29.0686 93.0047 -24.4568 96.7626 -18.5163C99.5956 -15.656 101.34 -11.6853 104.55 -9.2079C104.496 -8.80184 103.959 -8.88794 104.041 -8.34696C105.366 -8.02957 105.981 -6.9913 106.41 -5.76157C106.849 -5.57653 107.544 -5.65234 107.765 -5.245C111.962 3.11897 118.652 8.94767 122.828 17.3335C124.258 17.8411 126.996 18.2317 125.876 20.2632C126.547 20.7284 127.631 20.7721 128.414 21.1255C135.057 27.1726 137.119 37.8855 145.51 42.153C147.34 44.9992 149.605 47.4034 152.279 49.3913C152.265 49.6637 151.848 49.5262 151.942 49.9092C153.247 53.4621 157.753 53.7564 158.712 57.6653C159.132 57.9249 159.83 57.9056 160.066 58.3528C162.026 55.964 159.395 54.7291 158.712 52.6667C155.668 52.2041 154.315 50.0197 153.633 47.1516C151.347 44.9967 148.933 42.9754 147.54 39.912C146.252 40.0186 145.909 39.1615 145.001 38.8788C144.093 35.6085 140.988 34.5767 139.585 31.8114C139.589 31.5274 140.056 31.7138 140.094 31.467C137.562 30.3658 136.771 27.4951 135.522 25.0897C134.922 24.8391 133.905 25.0126 133.491 24.5731C133.512 24.0771 134.213 24.2737 134.168 23.7109C133.498 23.0144 132.55 22.6019 132.307 21.4698C131.06 21.5906 130.479 21.033 130.276 20.0911C130.262 19.446 131.475 20.0474 131.46 19.4023C130.362 18.5671 128.539 18.472 127.567 17.5057C127.885 16.592 127.959 15.9817 127.398 15.2647C126.959 14.8021 126.888 15.4754 126.383 15.4381C123.193 10.8726 118.534 7.80274 116.566 1.99461C115.449 0.0876884 112.628 -0.0870705 112.333 -2.8318C109.34 -4.26327 108.421 -7.80983 105.903 -9.72703C105.261 -13.3815 102.802 -15.1857 100.486 -17.1375C100.344 -18.312 99.5135 -18.7888 99.3016 -19.8951C97.9046 -20.3539 96.6377 -21.7211 96.933 -23.3427C96.4408 -23.5303 95.7316 -23.4969 95.2408 -23.6858C95.0401 -24.345 94.5871 -24.7459 94.7322 -25.7547C91.4538 -27.9892 89.7628 -31.8404 86.2699 -33.8552C86.4642 -34.0595 86.4604 -34.4656 86.4377 -34.8896C84.6484 -36.28 82.7214 -37.0188 80.5131 -37.6472C81.0128 -36.0281 82.594 -35.5141 83.7297 -34.5452Z" fill="white"/>
<path fill-rule="evenodd" clip-rule="evenodd" d="M73.4853 -37.1092C73.6688 -36.6085 75.0095 -36.9718 74.9054 -37.6156C74.4168 -37.4612 73.2613 -38.0221 73.4853 -37.1092Z" fill="white"/>
<path fill-rule="evenodd" clip-rule="evenodd" d="M153.846 57.7728C152.206 53.586 148.11 51.9023 146.068 48.1264C142.68 47.2724 142.566 43.0817 138.966 42.4409V41.407C136.31 39.5782 135.943 35.4158 133.894 32.9666C134.245 30.9195 132.495 29.7431 131.188 28.8325C129.7 25.9865 127.558 23.8032 124.932 22.1144C125.415 28.916 132.506 31.3934 133.555 37.6184C131.944 36.9621 131.966 34.6452 129.666 34.6889C129.298 34.1469 128.927 33.6049 128.99 32.6225C125.031 31.0864 125.214 25.329 122.227 22.804C121.94 20.7838 120.726 19.095 119.691 17.1185C119.543 16.6099 119.437 17.5179 119.014 17.2919C118.639 15.9498 117.293 15.5992 117.156 14.0182C116.842 13.7061 115.944 13.9887 115.802 13.5006C115.952 13.195 116.272 13.064 116.14 12.468C115.58 11.8323 114.5 11.727 114.111 10.9179C113.984 10.3875 114.576 10.5866 114.449 10.0561C113.336 9.56298 113.071 8.13228 112.757 6.43829C112.188 6.49737 111.054 6.87367 110.56 6.43829C110.631 6.05172 111.456 6.43444 111.575 6.0941C110.802 3.83632 109.541 2.08069 107.517 1.09949C106.744 -1.73109 104.644 -3.20931 103.458 -5.61864C103.419 -4.9598 102.956 -4.85706 102.444 -5.10236C102.225 -5.9577 102.854 -5.94871 102.782 -6.65379C100.508 -9.22622 97.558 -12.0029 96.5255 -15.2663C92.4348 -17.9324 90.3951 -22.6856 86.888 -25.9464C86.9863 -26.5064 86.7733 -26.7478 86.7191 -27.1524C84.1209 -28.3532 82.3523 -30.3978 80.2937 -32.1483C79.9483 -34.6167 77.3804 -35.716 75.2209 -35.7649C75.9596 -34.2776 77.2669 -33.3709 78.6032 -32.4925C78.641 -32.1663 78.4116 -32.1123 78.4342 -31.8041C82.9775 -28.3943 85.6942 -23.1223 89.5933 -19.0562C89.8013 -18.4988 89.0475 -18.9239 89.2555 -18.3665C90.8728 -16.5133 92.3503 -14.5149 93.6513 -12.3381C100.241 -7.16365 104.32 0.565224 109.715 6.95586C110.942 10.986 113.142 14.0297 114.787 17.636C119.811 21.6482 121.588 28.9674 125.947 33.6563C126.372 33.9119 126.879 34.0853 127.131 34.5168C129.047 37.2151 131.009 39.8684 134.74 40.7186C135.681 42.6862 136.993 44.28 138.966 45.1982C140.434 47.894 142.813 49.6625 144.884 51.743C145.101 51.969 145.101 52.3787 144.884 52.6048C145.979 53.5577 147.254 54.3244 148.265 55.3609C148.543 56.17 148.927 56.8699 149.281 57.6007C152.225 58.4483 152.512 62.0019 155.706 62.5953C156.364 65.3719 158.833 66.3005 160.778 67.7646C160.134 62.7353 156.488 60.7652 153.846 57.7728Z" fill="white"/>
<path fill-rule="evenodd" clip-rule="evenodd" d="M100.702 -35.4448C100.815 -36.5742 99.9933 -36.7079 99.046 -36.706C98.9419 -35.586 99.6493 -35.3319 100.702 -35.4448Z" fill="white"/>
<path fill-rule="evenodd" clip-rule="evenodd" d="M101.278 -25.821C100.275 -24.0378 102.247 -21.1347 104.319 -20.8018C104.445 -20.2702 103.856 -20.4702 103.982 -19.9373C104.234 -19.7348 104.673 -19.7219 104.827 -19.4187C109.357 -10.2694 115.918 -3.19999 122.407 3.94551V4.6371C124.763 6.4938 125.942 9.5556 127.815 11.9065C128.213 11.9026 128.313 12.2045 128.83 12.0794C130.327 14.4122 132.484 16.0676 133.732 18.6559C134.154 19.2029 134.946 19.3745 135.422 19.8674C135.44 21.1758 136.314 21.608 137.282 21.9435C137.573 24.6466 138.982 26.2013 140.663 27.4813C140.366 27.64 140.075 27.8039 140.156 28.3471C143.185 29.7444 145.047 32.3366 146.409 35.4435C146.831 35.588 147.315 35.6693 147.931 35.6164C150.851 41.4523 156.746 44.2432 160.778 48.941C160.263 47.2766 159.908 45.447 158.412 44.7889V43.7503C157.285 42.2471 155.836 41.0794 154.861 39.424C151.339 37.8951 150.631 33.4862 147.423 31.636C147.253 30.8295 146.845 30.267 146.409 29.7328C145.96 29.7302 145.444 29.7973 145.226 29.5586C145.179 27.1187 142.227 26.173 141.508 23.8479C141.524 23.4015 142.23 23.666 142.014 22.9821C139.94 21.5306 137.998 19.9423 137.45 16.9256C136.037 15.7179 134.048 15.1025 133.225 13.2909C132.559 13.3374 132.05 13.2238 131.872 12.7722C131.829 9.43948 127.718 8.85498 127.646 4.98418C127.099 4.37904 127.118 5.8164 126.464 5.67576C125.475 5.53125 124.739 4.21389 125.112 3.25264C125.597 3.39199 125.218 4.41388 125.956 4.29131C126.434 4.43453 126.395 4.04745 126.801 4.11841C126.974 3.30812 126.523 3.13394 126.295 2.73396C123.373 2.89911 122.929 0.526306 120.886 -0.207855C117.19 -4.68509 113.274 -10.4048 109.559 -15.4382V-16.6485C105.806 -20.767 102.515 -25.3591 99.4164 -30.1485C98.6174 -30.4246 97.2311 -30.1021 97.2185 -31.1859C97.9343 -31.5562 98.3162 -30.2853 99.4164 -30.4943C99.492 -31.2633 98.9589 -31.4104 98.7409 -31.8788C95.2084 -30.573 94.6085 -38.1366 91.9796 -34.9935C95.3962 -32.2607 96.5392 -27.2016 101.278 -25.821Z" fill="white"/>
<path fill-rule="evenodd" clip-rule="evenodd" d="M60.2263 -34.7767V-35.4424C59.5388 -36.2637 57.7458 -35.3497 57.2292 -34.5532C56.8046 -34.4671 57.3265 -35.5666 56.6995 -35.2205C56.1907 -35.1212 55.895 -34.7519 55.8161 -34.1094C57.3344 -33.4255 58.9131 -34.477 60.2263 -34.7767Z" fill="white"/>
<path fill-rule="evenodd" clip-rule="evenodd" d="M159.932 72.787C159.542 72.496 158.641 72.7306 158.416 72.2716C157.532 69.9666 156.156 68.1615 154.042 67.1129C154.314 66.5488 154.002 66.4565 154.042 65.7373C146.963 59.3273 140.454 52.3366 134.013 45.2754C133.878 44.678 134.263 44.6139 134.183 44.0716C133.491 43.8588 133.008 43.4357 132.161 43.3832C127.539 37.0463 121.188 32.4696 117.856 24.8135C115.419 22.579 113.141 19.824 111.966 15.8716C111.346 15.2409 110.352 14.9973 109.777 14.3229C109.638 12.0974 107.397 9.89109 107.254 7.10148C106.712 6.50792 105.663 6.43356 105.232 5.7259C105.427 5.24387 105.427 4.83107 105.232 4.35032C103.023 4.48621 103.692 1.68506 101.867 1.42738C101.749 0.788944 102.154 0.68895 102.035 0.0517998C101.528 -0.119987 100.814 -0.075119 100.688 -0.636631C100.826 -1.23404 100.438 -1.29814 100.519 -1.84042C95.8178 -5.46334 92.849 -10.8541 88.2352 -14.5655C87.2577 -18.5602 83.7707 -20.8844 82.8484 -24.3663C82.0755 -25.0086 81.0792 -25.424 80.4932 -26.2573C78.5734 -30.3148 74.0135 -31.675 70.8991 -34.512C70.4185 -34.9107 69.4925 -34.9441 69.0483 -34.512C68.9906 -32.4467 70.4223 -31.9032 72.0761 -31.5878C72.1614 -31.0468 71.7097 -30.916 72.0761 -30.5571C78.6336 -28.3123 80.4869 -21.2652 85.2049 -17.1436C85.2312 -16.7167 84.9401 -16.6116 84.8699 -16.2846C86.2112 -15.536 86.5914 -13.8014 87.0569 -12.1579C87.9227 -11.2092 89.2879 -10.7695 90.2554 -9.92339C89.239 -6.46714 94.6446 -6.77738 94.4602 -3.04293C95.7551 -3.51855 97.2985 -2.16092 97.3236 -0.293056C97.7276 -0.075119 98.3399 -0.0712738 98.6699 0.222305C101.075 5.21695 105.386 8.26297 107.589 13.464C107.536 13.8666 107.324 14.1089 107.421 14.6678C111.547 21.5701 115.655 28.4954 120.718 34.4426C125.554 39.5308 129.451 45.5779 135.19 49.7457C135.557 51.2046 136.372 52.2071 137.547 52.8404C139.245 56.0941 141.996 58.2671 144.279 60.9221C144.53 62.1003 145.374 62.6695 146.635 62.8143C149.004 65.4373 151.541 67.8898 154.545 69.864C154.791 72.3075 156.566 73.1882 158.08 74.3356C158.291 76.2407 159.479 77.1458 160.605 78.1175C161.287 76.3355 159.724 75.201 159.932 72.787Z" fill="white"/>
<path fill-rule="evenodd" clip-rule="evenodd" d="M104.328 -32.387C103.974 -33.4762 103.216 -34.0953 101.682 -33.8154C101.77 -32.5315 103.368 -31.3723 104.328 -32.387Z" fill="white"/>
<path fill-rule="evenodd" clip-rule="evenodd" d="M66.8329 -26.0189C69.9802 -25.9466 72.923 -24.0137 72.9306 -21.8654C75.5171 -19.7196 78.2464 -17.7209 80.8936 -15.6345C81.712 -13.8101 83.1556 -11.7275 85.8053 -12.3469C83.7 -16.9468 78.9486 -18.8422 76.4884 -23.077C75.1193 -23.1776 74.6091 -24.157 74.2857 -25.326C73.658 -25.5518 72.875 -25.6163 72.4228 -26.0189C70.9325 -29.5736 66.2065 -29.8227 64.1226 -32.7697C62.732 -32.7336 61.4084 -32.7658 60.2263 -32.9413C60.4271 -29.7685 66.2002 -29.8446 66.8329 -26.0189Z" fill="white"/>
<path fill-rule="evenodd" clip-rule="evenodd" d="M103.524 -29.3156C103.829 -28.8752 104.775 -29.0864 104.887 -28.4516C104.9 -26.5654 106.467 -25.0706 107.955 -24.1346C108.661 -21.9716 109.649 -20.0944 111.364 -18.9536C111.117 -18.7412 111.041 -18.3601 111.022 -17.9185C113.868 -15.5546 114.702 -12.2135 117.327 -9.62943C117.42 -9.01657 116.723 -9.20455 116.816 -8.59169C119.847 -7.11619 119.926 -2.6498 124.141 -2.37427C124.469 -1.03654 125.774 -0.690193 125.846 0.906326C126.734 1.44708 127.447 2.16294 128.574 2.46036C132.565 8.65976 138.247 13.1493 142.034 19.5573C142.013 19.9835 142.009 20.389 142.205 20.5938C142.876 20.6736 143.091 20.2307 143.398 20.765C143.321 21.2645 142.795 21.3057 142.886 21.974C149.115 24.988 151.226 32.1737 155.666 36.998C155.455 37.5336 155.124 37.9508 155.666 38.3808C156.542 38.6486 156.361 37.271 157.029 37.8632C157.411 40.2387 159.367 41.0202 160.778 42.3528C159.927 39.9838 159.287 35.9229 156.178 35.2727C156.293 34.8697 156.744 34.8092 156.859 34.4088C154.547 31.8016 152.695 28.727 151.236 25.2559C147.167 22.2405 143.51 18.8092 141.523 13.6849C138.564 10.2794 134.491 7.13147 132.493 3.32428C131.093 2.78353 130.018 1.91703 128.744 1.25138C126.142 -3.99783 120.616 -6.28446 118.008 -11.5285C117.587 -12.0216 116.778 -12.1221 116.474 -12.7375C116.255 -17.4781 112.184 -20.8089 109.148 -23.7895C109.539 -26.3826 106.514 -26.738 107.273 -28.6242C106.155 -28.9885 105.424 -29.7443 105.059 -30.8696C104.633 -31.0151 104.145 -31.0962 103.524 -31.0421C103.293 -30.7563 103.664 -30.0353 103.524 -29.3156Z" fill="white"/>
<path fill-rule="evenodd" clip-rule="evenodd" d="M34.8338 -20.4414C35.0439 -20.1922 35.4172 -20.1118 35.8525 -20.0936C39.3036 -22.7746 44.7023 -23.9853 50.1098 -23.2262C52.3535 -21.6158 55.9678 -21.1616 58.4267 -20.2675C65.2187 -20.4375 69.3405 -16.3745 73.5344 -13.3054C74.2519 -13.3444 74.6316 -13.0368 75.2327 -12.9564C76.5096 -9.27616 81.7741 -9.68493 83.0409 -5.99433C83.6648 -5.93853 83.9799 -5.5661 84.5684 -5.47266C84.4684 -4.84848 84.7645 -4.62917 84.9062 -4.25415C93.0182 2.39775 100.142 10.0605 105.277 19.7646C105.924 19.6166 106.297 19.1871 106.974 19.069C106.726 18.0867 106.679 17.3937 106.296 16.2842C103.969 14.6102 102.882 11.6606 101.882 8.6253C99.6178 7.29129 98.4674 4.81662 96.7894 2.88308C96.4439 2.27707 95.9023 3.38788 95.6011 2.88308C94.4203 -2.05718 89.1786 -2.83189 87.7941 -7.56193C85.868 -7.34392 85.1593 -8.90502 83.2092 -9.12822C80.2277 -12.3348 76.1223 -14.3916 73.8748 -18.3534C73.2256 -18.7077 72.5764 -18.3884 71.8386 -18.3534C71.1666 -19.1722 70.4756 -19.9729 69.8011 -20.7904H68.4432C67.0803 -23.1652 62.7383 -22.4826 63.0117 -26.5327C61.9676 -26.9726 60.5249 -27.0011 60.4654 -28.448C58.2483 -29.1916 56.0969 -30.0027 54.1847 -31.059C51.2006 -30.0714 49.7364 -31.5287 46.3753 -30.7099C48.0318 -30.2868 49.2859 -27.903 51.2994 -28.9697C51.045 -28.9996 50.6729 -28.9074 50.621 -29.1436C51.3247 -29.2902 51.8802 -29.5939 52.8268 -29.4927C55.0883 -26.7066 59.9732 -26.6092 61.9929 -23.574C55.9602 -22.5397 51.088 -27.2347 44.6782 -25.8371C44.0644 -26.0188 43.8923 -26.6546 42.9812 -26.5327C42.3142 -25.8241 42.0257 -24.7276 40.2654 -25.1416C39.7275 -22.6474 36.46 -23.8854 35.1717 -22.3554C35.4982 -22.2828 35.9044 -22.2932 35.8525 -21.8338C35.5893 -21.4613 34.139 -20.6607 34.8338 -20.4414Z" fill="white"/>
<path fill-rule="evenodd" clip-rule="evenodd" d="M112.266 -28.4352C111.74 -28.5255 110.997 -29.655 110.502 -28.9415C110.971 -28.7872 111.905 -27.878 112.266 -28.4352Z" fill="white"/>
<path fill-rule="evenodd" clip-rule="evenodd" d="M120.931 -17.8825C121.505 -18.5575 120.326 -18.9973 120.048 -19.4168C120.833 -20.9486 119.087 -21.4177 118.278 -21.9745V-23.5088C117.019 -24.6211 115.268 -25.5948 114.035 -26.2368C113.903 -26.7631 114.644 -26.4453 114.388 -27.0898C113.931 -27.2258 112.674 -27.4724 112.266 -27.0898C114.52 -23.6334 116.892 -18.48 120.931 -17.8825Z" fill="white"/>
<path fill-rule="evenodd" clip-rule="evenodd" d="M126.37 -19.7648C126.527 -20.6604 124.608 -21.0977 123.733 -21.6472C124.468 -20.9001 125.006 -19.9893 126.37 -19.7648Z" fill="white"/>
<path fill-rule="evenodd" clip-rule="evenodd" d="M155.999 91.0327C155.572 88.9354 154.047 87.9575 152.609 86.8908C152.696 86.169 152.514 85.7213 152.269 85.3378C151.934 84.9299 151.036 85.0985 150.574 84.8193C150.266 83.063 148.674 82.6126 148.372 80.8499C144.122 79.7703 144.24 74.2415 140.574 72.5662C140.432 72.1352 140.353 71.6411 140.404 71.0132C136.696 69.8989 136.605 65.1022 133.285 63.5903C133.399 61.0028 132.135 59.8178 130.235 59.2774C130.005 58.9377 130.073 58.293 129.897 57.8967C129.182 57.5313 128.423 57.2109 127.861 56.6885C125.354 50.4391 120.261 46.8261 116.846 41.5018C115.092 40.3528 113.454 39.0842 112.948 36.669C110.831 34.9114 109.025 32.8386 108.201 29.766C106.273 29.5987 106.844 26.8915 106.167 25.4505C105.667 25.3282 105.118 25.2536 104.811 24.9332C103.937 21.9121 102.08 19.8907 101.253 16.822C101.053 16.6225 100.654 16.6264 100.235 16.6483C100.276 15.1454 97.8989 12.6261 96.5063 11.9905C95.0696 8.90759 93.188 6.27889 90.4054 4.56889C90.3296 3.03388 88.8688 2.91036 88.7096 1.46284C83.727 -1.40389 80.0649 -5.61391 75.4892 -8.89238C74.7727 -8.85378 74.3949 -9.15873 73.7934 -9.23721C73.1603 -11.8711 70.0416 -11.974 68.7084 -13.8976H67.1832C61.5258 -17.113 54.3356 -19.2888 45.8274 -19.0752C45.5987 -19.2437 45.6076 -19.6568 45.3194 -19.7648C38.6537 -19.2476 32.2292 -16.2702 26.8448 -13.379C26.7222 -12.4115 25.7985 -12.2596 25.8275 -11.1364C29.3658 -11.938 32.0902 -12.9004 34.471 -14.5872C37.5378 -14.7223 39.5193 -16.4465 42.6076 -15.2782C43.132 -15.6063 43.7196 -15.8701 44.3022 -16.1416C50.4334 -16.2097 56.4737 -14.6374 62.4369 -13.5527C63.185 -12.7589 63.7814 -11.8157 64.8113 -11.3088C66.9659 -10.6834 68.9233 -9.85739 69.895 -8.0303H71.4202C79.6896 -1.54928 88.865 4.0079 94.1332 13.5435C98.8858 17.5052 101.886 23.2515 105.488 28.3854C105.579 29.0532 105.188 29.2269 105.322 29.9384C108.399 36.9869 113.941 41.5237 117.693 47.8876C124.193 52.2546 126.941 60.4457 131.93 66.3528C132.327 66.7543 133.027 66.8456 133.456 67.2162C133.837 69.0703 135.057 70.0726 135.658 71.7029C139.9 74.3457 141.342 79.8372 145.828 82.2305C147.711 86.0082 150.258 89.1117 153.625 91.3775C153.661 91.9321 153.325 92.1071 153.456 92.7581C154.629 93.3101 155.064 94.9751 156.677 94.1387C156.38 95.3611 157.997 94.6354 158.71 94.8284C158.731 95.5206 159.281 96.3248 159.896 95.8642C159.535 94.1233 158.595 91.4496 155.999 91.0327Z" fill="white"/>
<path fill-rule="evenodd" clip-rule="evenodd" d="M130.294 -10.7577C130.603 -8.8586 131.677 -6.74318 132.506 -4.84928H133.699C134.401 -2.03563 136.197 -0.33474 136.594 2.79499C138.642 4.58397 140.507 6.56207 142.042 8.87699C141.781 9.42884 141.982 9.63999 142.042 10.2657C145.737 15.6456 150.475 19.9606 154.3 25.2096C154.263 26.5776 155.083 27.0738 156.172 27.294C156.707 25.4091 156.017 24.9804 155.662 23.2976C155.436 23.0087 154.697 23.2393 154.471 22.9504C153.589 18.6393 150.551 16.5239 147.83 14.0885C144.571 8.42878 140.343 3.94792 137.275 -2.24419C137.525 -2.44498 137.703 -2.44498 137.956 -2.24419C133.685 -6.92195 131.102 -13.3213 126.718 -17.8825H126.379C127.245 -15.0585 127.705 -11.8238 130.294 -10.7577Z" fill="white"/>
<path fill-rule="evenodd" clip-rule="evenodd" d="M125.308 -10.5877C123.535 -10.8982 123.112 -12.6731 122.381 -14.1178C122.427 -15.0098 123.617 -14.6572 123.845 -15.3532C122.148 -15.6282 121.334 -16.8611 119.456 -16.9413C119.079 -16.444 119.642 -15.8387 119.456 -15.0006C120.887 -14.4257 121.729 -12.3705 121.406 -10.9403C121.921 -10.4983 122.978 -10.6469 123.195 -9.8825C123.331 -9.14569 122.878 -9.04833 122.869 -8.47073C127.273 -5.78009 129.419 0.299839 133.435 2.82338C131.69 -2.51711 127.959 -5.70115 124.82 -9.52988C125.054 -9.80355 125.475 -9.87592 125.308 -10.5877Z" fill="white"/>
<path fill-rule="evenodd" clip-rule="evenodd" d="M140.492 -3.76485C139.043 -7.45911 137.154 -10.6251 134.317 -13.1766C136.265 -9.76836 137.217 -5.94566 140.492 -3.76485Z" fill="white"/>
<path fill-rule="evenodd" clip-rule="evenodd" d="M23.3908 -2.838C23.7053 -3.14743 23.5913 -3.89908 24.0638 -4.04735C28.2985 -5.39594 32.9242 -6.34486 37.3431 -7.50651C38.8269 -6.48797 39.7142 -8.01964 41.7131 -7.85204C42.3172 -7.70893 41.5126 -7.19966 42.2169 -7.16098C44.2008 -8.28653 47.7124 -7.07718 49.6148 -8.0248C51.65 -8.03383 52.8155 -6.45316 54.8245 -6.98693C55.3734 -6.39901 56.2895 -6.18756 57.5152 -6.29715C61.5356 -2.88183 69.2066 -3.22349 71.8033 1.65904C73.1982 1.83696 73.4501 3.19072 75.1633 3.04245C80.487 9.32515 87.2394 14.1406 92.31 20.6812C92.4567 21.3697 92.4567 21.5502 92.31 22.2387C94.4343 22.1845 95.0985 23.6362 95.6725 25.1769C98.5737 26.5152 99.3883 30.0002 102.564 31.0587C101.004 25.3407 95.6687 22.0117 92.1408 17.7416C91.3689 15.5382 90.5179 13.4161 87.94 13.0731C87.9914 12.6657 88.5228 12.7508 88.4438 12.2067C84.9247 10.354 84.461 5.35285 80.0383 4.42456C71.7194 -5.45654 56.589 -12.4999 39.1916 -9.75503C38.7342 -10.1483 38.1263 -10.3868 37.1751 -10.2733C36.1487 -9.71506 35.1086 -9.17227 34.1486 -8.54438C33.6285 -8.64237 33.7062 -9.35793 33.1397 -9.4095C30.5255 -8.96856 28.0654 -7.50522 25.5764 -7.50651C25.0676 -6.01222 22.6664 -6.46476 22.719 -4.39288C21.8054 -4.81577 20.9796 -3.80109 20.5347 -3.18224C21.6952 -2.86894 22.0699 -2.26297 23.3908 -2.838Z" fill="white"/>
<path fill-rule="evenodd" clip-rule="evenodd" d="M140.573 -6.95732C140.677 -7.90791 140.075 -8.10744 139.627 -8.47073C139.532 -7.52955 139.816 -6.98932 140.573 -6.95732Z" fill="white"/>
<path fill-rule="evenodd" clip-rule="evenodd" d="M18.7092 3.82303C19.9455 3.18511 21.4997 2.87003 22.5997 2.09265C22.9857 2.39224 23.5471 2.50975 24.2926 2.43873C26.0398 1.8021 27.8639 1.24425 29.7082 0.705765C33.3085 0.771622 37.0653 0.379059 40.0285 -0.50679C44.0716 -0.718571 47.1307 0.803905 51.3668 -0.159424C51.8197 0.0691414 51.7024 0.880093 52.3798 0.880093C53.9743 0.661858 55.5361 0.413925 57.118 0.186649C60.3335 2.66858 65.2824 3.37623 68.286 6.0764H69.9777C69.9676 6.72206 70.148 7.17144 70.3158 7.63503C73.8707 7.63373 73.8467 11.2947 77.254 11.4444C79.425 13.4383 81.1646 15.8724 83.6838 17.5072V18.5467C87.8708 21.4199 90.4656 25.9228 94.8506 28.592C94.7081 29.3151 95.1786 29.4107 95.1899 29.9776C98.0245 31.1759 99.0312 34.2428 102.296 35.0021C104.564 41.9753 110.469 45.2256 113.463 51.4549C120.029 54.7788 121.675 63.1401 126.324 68.4294C130.71 76.7546 136.436 83.711 142.734 90.0798C142.594 91.725 144.08 91.7056 143.919 93.3714C147.43 96.5506 152.387 97.4895 153.902 102.896C155.685 102.777 156.402 105.62 158.132 103.936C157.529 103.129 156.386 102.69 156.949 101.166C156.36 100.228 155.636 100.122 154.918 99.6059C154.75 98.9706 154.354 98.5677 154.242 97.8743C151.614 95.5395 148.939 93.2552 145.95 91.2924C144.694 88.423 143.07 85.9282 140.536 84.3644C140.272 82.266 138.792 81.415 137.489 80.3807C136.938 77.8303 135.608 76.0715 133.43 75.1843C132.246 69.0053 127.129 66.854 125.308 61.3284C124.896 60.8274 124.028 60.7886 123.617 60.2889C117.778 50.2127 110.069 42.0554 102.973 33.2692C103.096 32.7397 102.799 32.6377 102.803 32.2296C101.403 30.6039 98.794 30.2126 98.2352 27.7268C97.7407 27.4427 97.5981 28.0496 96.8816 27.7268C94.3674 24.6418 90.7142 22.7229 89.435 18.3724C89.0364 18.1464 88.2681 18.3001 87.9136 18.0263C87.6803 17.8042 87.7459 17.2748 87.7446 16.8151C83.834 15.0434 81.5973 11.5607 78.9457 8.50151C75.8701 8.48084 74.8092 5.35712 73.0242 4.34343C72.155 3.85015 70.9049 3.94054 69.9777 3.30392C69.0164 2.64534 68.9849 2.28635 67.7776 1.74529C64.4599 0.258965 61.8537 -2.01377 57.118 -1.54502C55.6004 -2.5897 52.7217 -2.23975 51.5346 -3.62405C51.252 -3.3942 50.9682 -3.16563 50.3501 -3.27669C42.7559 -4.3472 33.8068 -3.73253 26.9998 -0.679829C21.757 -1.48562 20.7629 2.0565 17.3556 3.13088C17.3001 3.99736 16.9393 4.55263 17.0176 5.55599C17.946 5.35196 18.9577 5.23186 19.5557 4.68951C19.2454 4.42995 18.4216 4.69596 18.7092 3.82303Z" fill="white"/>
<path fill-rule="evenodd" clip-rule="evenodd" d="M145.784 4.70574V2.53149C143.705 1.06952 142.432 -1.16211 140.562 -2.82367C140.047 -0.585804 142.539 0.172626 142.476 2.53149C143.802 3.04169 144.665 3.99596 145.784 4.70574Z" fill="white"/>
<path fill-rule="evenodd" clip-rule="evenodd" d="M19.8215 11.6625C20.2311 11.565 19.7419 10.5495 20.3285 10.6304C21.8127 10.9038 22.972 10.6483 24.2286 10.285V8.7368C27.2868 9.01924 29.5157 7.24121 33.2174 7.18601C33.8786 6.87148 32.9531 6.01007 33.895 5.98055C34.756 5.68142 34.2882 6.7277 34.9127 6.66865C42.2238 2.57982 48.0583 9.12194 55.9383 7.87411C58.6336 9.44289 61.1646 11.1785 64.7563 11.8346C68.3821 14.1222 71.4707 16.9568 75.6098 18.7233C77.7679 21.4667 81.3153 22.8019 82.9019 26.1268C83.6567 26.2616 83.9184 25.8983 84.596 25.9548C92.2851 34.2172 100.092 42.3615 107.489 50.923C107.359 51.5713 107.696 51.7471 107.659 52.3004C112.778 57.6628 117.483 63.4462 121.225 70.2078C124.21 71.8254 125.369 75.2967 129.025 76.2351C127.404 70.7059 122.025 68.9921 120.717 63.1483C113.426 56.1941 109.025 45.4528 100.537 39.2149C100.958 39.0095 101.536 38.9659 102.063 38.8696C100.642 36.804 97.9678 37.0685 97.3142 34.2197C95.6075 34.2891 95.2358 33.0014 94.7693 31.8088C91.7389 30.6432 91.0879 27.0563 88.1586 25.7828C87.969 25.458 87.9424 24.9701 87.8185 24.5773C85.8906 23.8956 83.8324 23.3436 83.4101 21.1329C81.7173 21.0174 81.3077 19.595 80.5277 18.5513C80.1079 18.2894 79.2129 18.5089 78.8311 18.2059C78.5984 17.9838 78.6629 17.4588 78.6604 17.0018H77.3051C75.735 15.4394 74.7248 13.3083 71.7096 13.2133C69.8853 11.9668 68.7842 9.98336 66.1128 9.59694C65.6653 9.13478 65.3707 8.51472 64.927 8.04742C64.3315 7.96269 63.822 7.79067 63.061 7.87411C61.6248 5.54663 57.4288 6.01649 55.43 4.259C53.3428 5.20001 51.1847 3.46178 48.6461 4.259C47.3339 2.84171 43.6739 2.32178 41.866 3.39759C36.4652 2.13307 30.9468 4.83413 25.7546 5.46318C25.5118 6.25014 25.1794 6.94594 24.3981 7.18601C21.9631 6.5621 18.7773 7.81506 18.1236 10.113C17.8784 10.4365 17.0136 10.1336 16.7684 10.4584C16.6824 11.805 15.5029 12.0438 15.2424 13.2133C16.049 13.0554 16.781 12.8231 17.6167 12.696C17.465 11.1721 18.5219 11.0489 19.8215 11.6625Z" fill="white"/>
<path fill-rule="evenodd" clip-rule="evenodd" d="M147.723 5.64691C147.59 5.86589 147.513 6.15084 147.564 6.58739C148.075 6.98744 148.769 7.16992 149.312 7.52927C149.196 6.41193 148.774 5.65814 147.723 5.64691Z" fill="white"/>
<path fill-rule="evenodd" clip-rule="evenodd" d="M147.548 6.79862C147.95 7.29556 148.273 7.87721 148.968 8.06168C149.098 7.15062 148.102 6.14167 147.548 6.79862Z" fill="white"/>
<path fill-rule="evenodd" clip-rule="evenodd" d="M20.2499 18.1665C22.6019 15.5655 27.4405 15.5499 30.2916 13.4679C32.1819 14.2112 33.22 12.2213 34.8108 13.4679C37.5408 11.5804 41.682 10.8099 44.3496 8.42297C41.3613 5.91542 36.1708 9.46205 33.1364 9.64107C32.1669 11.3573 29.0139 10.806 27.6127 12.076C26.9464 12.2485 27.1112 11.5558 26.4424 11.7283C22.2351 13.8493 17.9741 15.9158 13.8903 18.1665C13.7069 18.9396 14.2958 19.4338 13.8903 19.906C12.7499 19.8814 11.7854 20.0371 11.7143 21.1241C12.025 21.6716 12.8959 21.6339 13.7231 21.6469C15.7182 20.2978 17.4076 18.6322 20.2499 18.1665Z" fill="white"/>
<path fill-rule="evenodd" clip-rule="evenodd" d="M149.312 103.43C149.207 100.544 146.006 100.809 145.409 98.4212C143.884 98.1909 142.814 97.4958 142.016 96.5227C139.564 91.0227 134.111 88.572 132.009 82.7116C131.53 82.5687 131.572 82.9549 131.161 82.8854V81.8479C129.351 81.5609 128.627 80.1708 127.94 78.7408C124.242 76.8641 121.361 74.1559 118.271 71.6627C117.135 68.2157 114.105 66.6943 112.842 63.3761C109.473 60.4748 106.615 57.0536 104.023 53.3621C103.9 52.8343 104.315 52.8549 104.192 52.3259C100.582 49.211 98.28 44.7639 94.3547 41.9669C90.4154 35.3304 84.5894 30.6143 78.58 26.0835H77.3925C72.1002 21.6815 66.3602 16.8366 59.5819 14.5172C59.4618 13.8762 59.8715 13.7758 59.7526 13.1361C53.6964 11.6881 43.8958 7.57948 39.0574 13.3086C41.7852 14.9355 46.3175 13.3124 49.7446 13.9985C53.6282 14.6498 56.1257 16.7105 59.9208 17.4519C60.3015 17.8702 60.5746 18.398 60.9388 18.833C65.6925 20.6724 68.2153 24.7784 73.4913 26.0835C73.6936 26.8301 72.9361 27.0515 73.3218 27.4646C74.0793 27.7684 74.6167 27.8418 75.526 27.6384C77.0043 29.1251 78.6584 30.4354 80.1064 31.9529C85.0257 33.9673 87.2172 38.7568 91.1299 41.7944C91.1704 42.7341 91.4777 43.4008 91.9797 43.8668C92.5096 43.9015 93.2241 43.7496 93.5061 44.0392C94.8516 48.4258 98.6454 50.3179 101.478 53.1896C101.71 54.1047 102.295 54.6608 102.327 55.7793C109.268 64.483 116.112 73.2845 124.207 80.8131C129.915 83.9228 132.348 90.3676 137.268 94.2792V95.1416C139.99 97.2435 140.7 101.132 144.901 102.048C145.04 103.056 146.11 103.118 146.088 104.292C146.705 104.47 147.228 104.745 147.785 104.983C147.65 105.582 148.037 105.646 147.955 106.19C151.384 108.742 153.252 112.885 157.284 114.823C157.697 114.439 158.039 113.982 158.132 113.271C154.8 110.388 153.326 105.616 149.312 103.43Z" fill="white"/>
<path fill-rule="evenodd" clip-rule="evenodd" d="M152.736 14.0027C152.692 13.0389 152.399 12.3406 151.551 12.2351C151.503 12.5194 151.289 12.6286 151.076 12.7396C151.237 13.5791 151.686 14.11 152.736 14.0027Z" fill="white"/>
<path fill-rule="evenodd" clip-rule="evenodd" d="M14.8984 13.1763C13.9635 13.1895 13.4907 13.694 13.4784 14.6916C14.1117 14.3566 14.3269 13.5792 14.8984 13.1763Z" fill="white"/>
<path fill-rule="evenodd" clip-rule="evenodd" d="M146.139 120.807C144.715 118.337 142.587 116.594 140.225 115.087C139.75 109.151 133.491 107.674 131.778 102.434C130.895 102.183 130.39 101.546 130.089 100.701C129.167 100.26 128.232 99.8314 127.553 99.1401C126.668 97.3362 125.416 95.9044 124.006 94.6341C123.839 92.6105 122.463 91.8262 121.809 90.3014C121.217 90.2161 120.711 90.0442 119.951 90.1282C119.547 88.4639 117.677 88.301 117.755 86.1418C112.471 83.0133 109.779 77.2242 105.591 72.9703C102.506 68.0444 98.2597 64.3138 95.6221 58.9304C95.2731 58.5958 94.6811 58.5092 94.2692 58.2378C94.0727 57.341 93.157 57.1847 93.2565 55.9842C92.3055 55.6314 91.6707 54.953 91.0598 54.2513C90.9577 53.8353 90.8167 53.4605 90.8922 52.8635C87.6676 48.89 84.0891 45.2834 79.7409 42.4651C77.8339 38.4696 74.4518 35.9911 71.9679 32.5849V31.0252C68.0505 26.6627 63.5386 22.0043 57.4396 20.4524C57.0567 18.5903 54.1419 19.3281 52.2021 19.0671C52.2185 18.5295 51.9968 18.2375 51.8646 17.8537C44.1545 16.0692 36.282 14.4307 30.2371 18.7182C29.8429 18.6652 29.6048 18.4455 29.0569 18.5463C28.446 19.0761 27.9031 19.6744 27.0276 19.9329C20.2686 20.9705 16.3802 24.9544 10.4714 26.8656C10.484 29.3621 7.65614 28.9473 8.27461 32.0654C12.0232 30.0741 14.8724 27.1628 18.5807 25.1327C23.0221 23.617 28.7936 21.9784 33.2791 19.9329C36.0754 19.6654 38.6009 18.231 41.7272 18.3732C45.205 18.5308 48.1727 20.7483 51.3582 20.9731C53.424 22.8972 57.6348 22.6207 59.13 25.1327C59.722 25.218 60.2284 25.3912 60.9866 25.3059C61.8419 28.0673 66.3916 27.0413 66.3929 30.6789C67.1675 31.6183 68.5758 31.9052 69.266 32.9325C69.4462 33.3822 69.6767 33.7828 69.6036 34.4909C74.0588 37.7783 75.7971 43.8517 80.9237 46.4503C82.701 49.8268 85.3487 52.3117 88.1891 54.5977C88.6224 56.5786 90.042 57.5478 91.2298 58.756C93.0247 61.8831 95.5666 64.2453 97.6488 67.0765C101.132 73.3269 107.189 76.9335 110.32 83.5431C111.481 84.3159 112.322 85.4181 113.362 86.3162C113.359 86.7232 113.653 86.8266 113.53 87.3564C119.053 92.4348 123.152 98.9772 128.23 104.514C128.926 104.492 129.289 104.815 130.089 104.688C131.154 110.239 136.931 110.955 137.52 116.993C139.619 117.846 140.994 119.439 141.914 121.499C146.665 122.694 146.988 128.428 151.375 129.993C151.858 131.347 152.748 132.283 153.234 133.632C154.127 133.681 154.914 133.623 155.431 133.285C155.811 130.874 154.124 130.581 153.74 128.953C150.184 127.286 149.765 122.401 146.139 120.807Z" fill="white"/>
<path fill-rule="evenodd" clip-rule="evenodd" d="M155.344 80.722C155.911 79.7658 156.784 81.0705 157.192 79.8654C155.684 79.0854 155.255 78.7292 153.664 79.0101C153.77 77.8739 153.423 77.2011 153.329 76.2705C153.213 75.9322 152.393 76.3113 152.321 75.9271C152.39 75.1152 151.686 75.0896 151.649 74.3862C146.912 72.8237 146.378 66.9755 142.075 64.9687C138.468 59.8571 133.498 56.132 131.159 49.7298C126.939 47.6375 125.836 42.3689 121.248 40.6531C121.533 39.2208 120.438 39.1965 120.575 37.9135C120.096 37.6071 119.451 37.4629 119.064 37.0582C115.761 31.0671 111.025 26.5338 107.981 20.2785C107.511 20.0959 106.884 19.4653 106.3 19.9351C105.673 21.4912 106.581 22.9581 107.476 23.5313C111.511 31.2892 115.384 39.2131 122.257 44.0783C127.121 50.649 132.523 56.6707 136.364 64.2831C141.003 66.4061 143.779 70.4236 146.778 74.2152C147.39 74.3888 147.929 74.6403 148.457 74.8994C148.691 77.3097 151.481 77.5599 151.312 79.8654C152.254 80.9033 154.105 81.0156 154.672 82.4352C154.37 83.0467 154.558 83.8255 154.84 84.317C155.575 84.451 155.876 83.5765 156.352 83.9748C156.737 84.5531 156.322 85.9446 156.688 86.5434C158.188 85.8629 158.656 87.0463 159.878 86.3723C160.104 83.8599 158.139 83.5803 157.696 81.7497C157.225 81.0859 155.652 81.5493 155.344 80.722Z" fill="white"/>
<path fill-rule="evenodd" clip-rule="evenodd" d="M44.3496 21.6674C43.1163 19.8026 36.43 18.5359 35.5293 21.6674C37.512 23.3867 41.7577 22.2853 44.3496 21.6674Z" fill="white"/>
<path fill-rule="evenodd" clip-rule="evenodd" d="M28.473 24.4705C26.7628 24.4659 25.2406 24.68 24.9448 26.3293C26.1174 26.4972 27.9577 25.7534 28.473 24.4705Z" fill="white"/>
<path fill-rule="evenodd" clip-rule="evenodd" d="M147.762 132.844C145.328 127.023 138.291 125.912 136.423 119.512C133.726 118.29 133.648 114.386 130.328 113.8C128.514 109.655 125.759 106.471 122.882 103.412C121.37 99.4782 118.758 96.667 115.605 94.4096C115.422 93.963 115.192 93.5629 115.266 92.8517C110.639 88.4091 106.87 83.0889 103.079 77.7906C100.934 76.8122 99.0551 75.5576 98.51 72.944C97.3528 72.2806 96.5869 71.217 95.8007 70.1728V69.1351C92.4807 66.2401 91.2125 61.2489 87.0004 59.2677C83.953 54.9413 79.7762 51.7688 76.5054 47.6669C76.3641 47.2371 76.2845 46.7415 76.3363 46.1103C74.6391 45.0197 72.9204 43.9484 71.7658 42.3015C71.5563 41.78 71.7569 41.5283 71.5979 40.7436C69.1221 37.0212 66.1264 34.365 62.2891 31.741C57.8624 28.713 54.6585 25.5456 48.7479 24.4704C45.2512 24.5272 42.489 25.3391 39.439 25.8554C38.4018 25.3494 37.5613 25.6579 36.3928 25.8554C34.9896 24.9106 32.7056 25.7211 30.9769 25.3352C27.7465 27.1086 24.159 28.5181 21.4977 30.8762C17.6565 32.0223 13.3636 32.7103 10.4979 34.8567C9.89975 35.7473 8.94198 36.2674 8.12807 36.9347C7.72932 38.7327 5.16014 39.1922 5.58792 41.2625C6.40056 41.5748 7.15895 40.4855 8.12807 40.3964C9.47071 37.9634 10.4638 35.1691 14.898 35.8957C15.534 35.6221 15.9025 35.0761 16.5902 34.8567C16.6142 35.4672 17.3486 35.3498 17.7739 35.5485C20.8074 34.2075 22.5046 31.5022 27.084 31.741C27.8285 31.1188 28.3396 30.2567 29.792 30.356C31.5788 26.5859 39.2232 28.8085 43.1628 27.239C43.7609 27.2635 43.9199 27.7359 44.5181 27.7591C50.517 26.542 56.1765 29.9753 58.9047 33.819C65.2078 37.584 70.3411 42.548 73.4592 49.572C74.1129 49.5978 74.2416 50.158 74.9823 50.0908C79.1351 55.2511 84.8022 58.8612 87.8459 65.1533C88.8352 65.7019 89.4081 66.6725 90.5551 67.0584C94.2158 72.3154 97.4147 78.0474 102.571 81.7724C107.13 90.2084 114.595 95.6732 119.158 104.105C122.399 106.735 123.356 111.7 127.114 113.8C127.069 114.423 127.427 114.635 127.451 115.185C128.49 115.74 129.304 116.523 130.16 117.263C130.139 118.035 130.578 118.337 130.668 118.995C131.082 119.46 131.487 119.036 132.022 119.512C132.706 121.294 134.745 121.69 134.9 124.013C139.047 128.776 144.839 131.853 147.593 138.037C147.736 138.41 148.673 137.972 148.778 138.382C148.138 139.112 147.562 140.219 148.439 141.154C151.14 140.413 151.491 142.994 152.84 143.059C152.282 139.624 151.056 136.057 149.287 133.363C148.846 133.119 148.166 133.123 147.762 132.844Z" fill="white"/>
<path fill-rule="evenodd" clip-rule="evenodd" d="M22.2987 26.6943C19.7888 25.4758 17.6217 27.8157 16.1245 29.0495C18.9166 29.5927 21.2061 28.3132 22.2987 26.6943Z" fill="white"/>
<path fill-rule="evenodd" clip-rule="evenodd" d="M157.142 29.1763C157.216 28.2422 156.764 27.7218 156.198 27.294C156.136 27.5591 155.678 27.5086 155.487 27.6713C155.457 28.6363 156.075 29.0866 157.142 29.1763Z" fill="white"/>
<path fill-rule="evenodd" clip-rule="evenodd" d="M39.4681 31.9692C47.2502 33.2891 54.8392 34.8421 61.1083 38.5881C58.6362 33.2261 50.8579 31.9993 44.411 30.3148C41.4981 30.4368 31.1842 29.1813 31.1194 31.7855C31.0635 34.0718 38.3515 32.7806 39.4681 31.9692Z" fill="white"/>
<path fill-rule="evenodd" clip-rule="evenodd" d="M147.922 111.908C147.222 110.024 146.374 108.288 144.36 107.749C143.209 105.457 141.769 103.464 139.101 102.723C138.542 101.099 137.109 100.371 136.726 98.5647C130.764 92.8157 127.059 84.7593 119.767 80.3693C119.714 77.7648 117.127 77.7545 116.884 75.345C110.792 71.1153 106.249 65.2991 102.637 58.5359C101.032 57.585 98.8598 56.6548 99.2454 54.2054C97.4726 52.4923 95.8794 50.5957 93.817 49.1785C92.383 44.8674 87.5843 43.994 86.5234 39.3018C84.9415 38.3767 83.4671 37.3432 82.6224 35.6624C78.5609 35.0152 77.5493 30.3384 73.6331 30.1175C73.6243 30.3384 73.4169 30.3578 73.4637 30.6381C74.6599 34.6728 79.226 35.2632 80.4184 39.3018C85.6104 42.2551 88.8892 47.1683 92.4614 51.7791C92.8484 51.9587 93.4831 51.8889 93.817 52.1241C93.6968 52.7674 94.1065 52.8682 93.9877 53.5103C100.802 61.5654 106.566 70.6967 114.509 77.5969C114.464 78.2209 114.823 78.4314 114.849 78.9831C116.799 80.1691 118.127 81.9881 119.257 84.0087C122.369 85.453 123.209 89.2138 126.212 90.7667C129.256 96.3207 133.647 100.5 137.576 105.15C139.986 105.864 141.583 107.409 142.324 109.828C145.344 111.365 146.097 115.216 149.278 116.586C149.474 116.79 149.471 117.199 149.447 117.626C152.86 119.281 153.614 123.653 156.232 126.118C156.579 125.951 156.904 125.762 157.25 125.596C156.162 123.797 156.27 122.225 156.064 120.226C153.641 117.153 151.353 113.946 147.922 111.908Z" fill="white"/>
<path fill-rule="evenodd" clip-rule="evenodd" d="M31.1844 31.0587H30.2371V32.0676C30.978 32.1862 31.292 31.8493 31.1844 31.0587Z" fill="white"/>
<path fill-rule="evenodd" clip-rule="evenodd" d="M140.179 134.388C140.158 131.067 137.024 130.928 135.609 129.032C134.719 127.12 133.493 125.553 132.058 124.197C132.006 122.178 130.139 122.012 129.859 120.224C126.635 118.507 125.067 115.098 123.263 111.934C119.767 107.902 116.145 104.001 113.451 99.1536C111.148 97.9921 111.045 94.5848 109.221 92.9352C108.675 92.688 108.068 92.5 107.362 92.4176C105.634 88.5364 102.465 86.131 100.765 82.2266C97.5402 80.5088 96.8365 76.2182 93.6596 74.454C92.8008 71.876 91.5913 69.656 88.7537 69.0997C87.4447 67.0394 86.099 65.0151 83.8478 63.918C83.6965 62.1165 82.0129 61.8756 81.8186 60.1179C81.4226 59.7162 80.473 59.8784 80.1274 59.4277C79.4414 56.0475 74.1912 55.8517 74.8835 52.1728C73.6161 50.4652 70.2929 50.5567 70.4846 47.855C66.3405 46.6176 65.4324 42.0732 61.3501 40.7739C59.877 37.346 55.3079 35.6604 51.3705 36.2824C44.6234 33.2241 34.326 33.8074 27.0113 34.2092C24.7992 34.9445 22.9693 36.0712 20.2439 36.2824C17.6258 39.2673 10.325 40.4121 8.40421 43.3648C6.75588 43.5811 6.19593 44.9101 4.68254 45.2642C4.07466 47.9735 2.46669 49.5832 1.12986 52.0002C4.09484 51.2276 5.1025 48.459 6.882 46.4733C12.2495 43.8374 18.67 42.2741 22.9516 38.5282C24.7084 38.5758 26.3416 37.2108 28.8715 37.4916C31.9803 35.7995 36.6528 36.4292 40.3745 36.9739C42.1111 35.9592 45.9274 36.3519 47.1419 37.4916C53.4061 39.0973 58.5932 41.8054 63.0425 45.2642C67.3658 50.3481 71.2237 55.9084 77.0817 59.4277C78.3429 61.9967 81.0304 63.1093 81.9864 65.9912C90.6871 72.9989 96.2059 83.2529 103.808 91.381C103.91 91.7943 104.053 92.1678 103.978 92.7627C105.419 93.6525 106.574 94.8333 107.869 95.8699C109.901 101.857 115.015 104.696 116.835 110.899C120.909 115.026 124.06 120.102 128.169 124.197C130.781 127.688 132.462 132.133 136.963 133.698C136.975 135.125 138.234 135.28 137.979 136.978C143.13 138.859 144.071 145.037 149.312 146.823C148.693 142.103 144.311 141.219 143.729 136.46C142.29 135.659 141.172 135.596 140.179 134.388Z" fill="white"/>
<path fill-rule="evenodd" clip-rule="evenodd" d="M14.3604 38.5336C13.6535 36.5827 11.7143 38.1892 11.7143 40.0992C12.7306 41.0506 14.2275 40.0452 14.3604 38.5336Z" fill="white"/>
<path fill-rule="evenodd" clip-rule="evenodd" d="M61.9904 37.6872C62.1061 38.3567 63.1267 39.5629 64.6365 39.5285C64.4497 38.391 63.1924 37.4366 61.9904 37.6872Z" fill="white"/>
<path fill-rule="evenodd" clip-rule="evenodd" d="M62.9927 46.5549C61.8018 46.7779 61.6253 46.0011 60.7797 45.8821C57.9789 42.0921 52.2008 41.2388 46.9865 39.8331C46.4291 39.6539 46.4393 38.9147 45.9644 38.6566C37.7208 38.2594 30.9499 39.6689 25.1896 40.8417C20.0044 44.6881 12.0756 45.8257 7.13675 49.9165C6.13882 52.6892 1.71418 52.9623 2.02778 56.4704C7.01233 53.0989 12.2 49.9265 17.6937 47.0586C19.5829 47.4094 19.6324 45.9448 21.6118 46.3858C23.1988 44.8008 26.1392 43.7046 28.9337 43.8662C32.5508 41.8778 38.3899 41.2238 43.7515 41.5132C44.479 41.7463 44.5793 42.5995 45.2839 42.8588C48.571 43.0242 54.1358 43.7196 55.8409 46.5549C60.0814 47.1864 61.8665 50.241 66.4003 50.588C66.4283 48.0935 63.47 48.5483 62.9927 46.5549Z" fill="white"/>
<path fill-rule="evenodd" clip-rule="evenodd" d="M65.5836 40.4704C65.2381 41.2449 66.3348 42.1767 67.2826 42.3528C67.159 41.2901 66.6677 40.5889 65.5836 40.4704Z" fill="white"/>
<path fill-rule="evenodd" clip-rule="evenodd" d="M93.5634 82.2655C92.5806 80.2896 91.4922 78.4188 89.5177 77.4539C88.4582 75.2666 86.3291 74.171 84.7971 72.4694C83.8217 68.7572 79.1476 67.9268 79.2343 63.7021C77.0952 63.4202 76.5082 61.5558 74.1768 61.4687C72.3569 58.0551 68.8554 56.3521 66.4222 53.5639C62.0019 51.9416 57.9951 49.894 54.4546 47.3761C49.8584 46.8879 45.2245 44.1367 40.6307 45.3143C36.6742 42.2121 33.1501 46.8738 27.8173 46.0011C22.6027 49.9657 13.2683 49.7287 9.95022 55.6256C14.8657 53.6484 20.2047 52.1031 25.1202 50.1259C30.0394 48.7638 35.4023 48.0039 40.6307 47.3761C53.7898 48.1936 62.8917 56.6135 72.323 62.8436C72.7516 64.9835 73.9745 66.3162 76.1991 66.625C80.8531 73.7405 88.3828 77.9229 91.878 86.2186C93.3686 87.3334 95.0767 88.2278 95.5857 90.3433C96.0645 90.6009 96.6955 90.7021 97.2711 90.8597C99.556 96.7003 104.257 100.797 107.556 105.64C109.082 107.882 109.723 110.648 112.108 112.17C114.399 118.313 119.692 121.395 122.053 127.467C122.956 128.209 123.685 129.127 124.75 129.702C125.125 131.011 124.779 131.6 124.919 132.622C125.53 133.008 125.701 133.175 126.606 132.967C128.648 137.474 133.555 139.058 135.538 143.623C136.175 144.236 136.859 144.797 137.899 144.998C137.261 146.664 139.4 147.419 140.258 147.576C140.716 150.626 144.304 151.454 146.666 151.529C146.665 149.869 145.241 149.658 144.979 148.264C144.4 148.339 144.034 148.195 143.631 148.093C138.775 142.674 134.898 136.256 129.134 131.764C127.509 127.219 123.657 124.076 121.885 120.249C121.186 120.273 120.582 120.202 120.198 119.905C119.687 119.258 120.392 118.703 120.368 118.015C117.629 116.738 117.779 112.519 114.635 111.655C114.341 109.792 112.334 106.814 110.421 105.469C111.013 103.321 107.723 102.458 107.724 99.7961C107.362 99.4219 106.686 99.3655 106.206 99.1093C105.128 97.2871 103.641 95.8802 102.33 94.2964C101.911 91.257 98.0554 90.8982 98.4525 87.5935C95.6008 87.063 96.9343 82.2681 93.5634 82.2655Z" fill="white"/>
<path fill-rule="evenodd" clip-rule="evenodd" d="M138.277 152.808C135.57 146.815 128.689 145.1 126.963 138.101C122.867 136.588 122.556 131.197 119.025 129.105C116.527 123.417 112.65 119.14 109.061 114.571C107.195 108.119 101.376 105.717 99.6033 99.1709C98.8743 99.1102 98.377 98.8148 98.0836 98.3066C94.7658 91.035 88.7473 86.5317 84.2334 80.4856C84.1515 79.9426 84.8176 80.029 84.4046 79.6201C82.56 77.7019 80.0783 76.4364 78.6618 74.0835C78.0461 74.1364 77.5626 74.0551 77.1408 73.9094C75.6588 68.6863 69.9248 66.4624 67.1775 61.972C63.8698 62.2274 64.0637 57.4468 59.9162 57.9924C59.1871 57.5281 58.783 56.7296 58.2264 56.0884C52.2658 54.7882 46.353 48.973 39.9857 51.4162C38.6775 49.9779 35.9868 51.8844 34.0754 50.8976C32.3139 51.7477 29.9871 52.0147 27.3203 51.936C25.3888 54.1664 20.7276 53.6014 17.8631 54.8772C16.6934 56.7373 13.4437 56.4638 11.2767 57.2997C10.7202 57.2933 10.4356 57.0069 9.75824 57.1269C5.40046 58.5458 2.32697 61.2806 0.298542 65.086C1.06282 65.8703 0.0127234 66.2134 0.298542 66.8171C3.32293 65.0666 5.95069 61.4199 9.24956 59.3766C9.80357 59.3856 9.89548 59.8681 10.6018 59.7223C15.4003 57.0443 21.7047 57.6764 26.6454 55.5699C27.1189 55.7776 27.8114 55.7595 28.5014 55.7427C28.8715 55.0255 29.5338 54.6076 30.3611 54.3586C30.7048 54.525 31.0297 54.7121 31.3734 54.8772C36.5823 52.2611 43.7693 54.307 48.7693 55.2242C51.4751 57.3539 55.197 58.4426 58.7339 59.7223C61.3931 62.4751 64.1896 65.0899 67.8523 66.8171C69.7435 69.9543 72.4405 72.266 75.2849 74.4292C75.3012 77.1072 77.8786 77.9405 78.1544 79.7929C78.8419 80.1838 79.6553 80.4469 80.1816 81.0042C80.5908 81.7395 80.8136 82.6644 81.3639 83.2539C82.2213 83.5854 82.9491 84.0524 83.5597 84.6381C94.2408 97.6281 103.776 111.796 113.79 125.471C115.57 131.161 121.62 133.345 122.402 139.486C124.53 140.825 125.516 143.332 127.469 144.85C128.412 148.147 131.526 150.417 134.393 152.289C135.722 155.252 138.656 156.574 140.979 158.518C140.963 159.055 141.187 159.344 141.318 159.73C142.209 160.141 142.841 160.821 144.02 160.941C142.195 158.138 141.469 154.21 138.277 152.808Z" fill="white"/>
<path fill-rule="evenodd" clip-rule="evenodd" d="M128.648 152.497C127.122 148.929 124.573 146.411 121.902 144.018C119.333 136.329 113.456 132.036 109.424 125.85C108.105 122.819 106.88 119.694 104.028 118.237C103.746 115.987 101.713 115.535 101.835 112.873C97.6636 108.615 94.5244 103.3 91.3801 97.9906C89.6665 96.8657 88.6054 95.07 87.67 93.1465C84.0869 90.191 81.5486 86.1635 77.8901 83.2841C78.0133 82.0147 76.2406 81.3246 76.5411 79.823C75.8735 79.4682 75.0726 79.2541 74.6854 78.6129C74.6879 78.3252 75.1531 78.5149 75.1908 78.2659C71.0005 72.5897 64.8766 68.8937 60.5203 63.3852C57.4012 60.9909 52.889 60.026 49.3914 58.0225C48.6924 57.8239 48.7339 58.385 48.2109 58.367C47.5584 57.1118 45.9944 56.1365 44.1639 56.637C42.962 55.1367 38.5705 55.3018 36.9122 56.2913C31.7652 55.9107 26.0461 58.6921 20.5558 59.9254C19.9762 59.7693 19.8228 59.1771 19.0383 59.2326C12.4945 61.2296 7.14126 64.02 2.68065 68.4035C1.71636 71.8828 -2.72037 73.5495 -2.37967 77.2274C4.20314 73.0786 8.3922 64.9784 17.5196 62.8654C18.0527 62.5467 18.4072 62.0475 18.7001 61.4811C21.808 61.9404 25.2691 62.3455 27.3008 60.6168C30.8638 60.9793 33.5743 58.9836 37.0807 58.7127C38.1066 59.6132 39.4468 58.9952 40.7908 59.0597C45.6386 59.2868 53.3667 62.6099 55.9679 65.1152C57.6513 66.7368 60.2387 67.5934 62.2075 69.095C63.9651 70.4366 64.8628 72.8774 66.423 74.1132C70.2474 77.1448 73.4584 80.8318 75.866 85.3598C76.5725 85.2682 76.8089 85.6617 77.3834 85.7056C77.9655 86.953 78.9361 87.8058 80.0814 88.4753C80.6748 90.9238 82.6373 91.9661 84.1297 93.4922C86.2418 96.5716 88.1729 99.8418 91.2116 101.97C94.5709 110.118 100.638 115.485 104.028 123.601C104.976 123.839 105.935 124.065 106.389 124.812C107.099 129.446 110.031 131.801 111.616 135.539C113.481 135.47 114.172 136.608 114.314 138.308C116.027 138.699 116.118 141.139 118.023 141.768C117.491 144.898 119.986 146.298 121.733 147.652C122.316 150.053 123.757 151.575 126.118 152.15C126.314 154.275 127.432 154.842 127.804 156.477C128.471 156.7 128.149 155.907 128.815 156.13C129.66 156.881 130.667 157.46 132.02 157.687C132.813 160.159 134.901 161.307 136.067 163.398C137.658 163.495 137.784 165.097 138.934 165.647C139.105 164.886 139.22 163.678 139.61 163.053C135.481 160.02 134.122 154.145 128.648 152.497Z" fill="white"/>
<path fill-rule="evenodd" clip-rule="evenodd" d="M137.845 170.262C137.076 168.123 134.726 167.592 134.467 164.935C132.833 162.645 129.01 162.579 128.385 159.262C125.917 157.134 124.674 153.759 121.968 151.872C122.071 151.461 122.21 151.09 122.135 150.498C116.19 146.694 114.796 138.258 108.793 134.514C108.673 133.877 109.081 133.775 108.961 133.138C105.787 130.18 103.974 125.84 102.035 121.625C98.4786 119.799 98.2029 114.637 95.1087 112.343C95.1842 111.752 95.0444 111.379 94.9412 110.969C94.416 110.873 93.8405 110.828 93.4212 110.625C92.2978 106.579 89.1445 103.788 87.8461 100.485C84.597 96.0564 80.6905 92.2969 76.8672 88.4529C76.6342 88.2325 76.6997 87.7058 76.6984 87.2497C71.5969 82.4164 67.5746 76.4824 62.5108 71.6107H60.8208C58.1762 69.0287 56.126 65.8446 51.8681 64.9066C49.692 63.0538 47.0814 61.6417 42.9155 61.8134C40.4334 60.1733 36.9853 62.2029 34.1329 62.3298C28.8047 62.645 23.3543 64.3057 18.254 65.423C17.5475 65.9637 17.045 66.7146 16.2277 67.1413C15.5552 67.3117 15.7189 66.6275 15.0439 66.7979C12.5794 69.0454 9.77738 70.9469 6.93758 72.8126C4.07763 76.3786 0.936849 79.6563 -2.52255 82.6099V83.8131C-2.86634 83.717 -2.85375 83.2954 -3.19755 83.6401C-3.07791 84.8074 -3.55142 85.5096 -3.0288 86.2194C-1.53523 86.4219 -0.871557 84.4448 0.6875 84.1565C1.06908 82.5958 2.41153 82.0153 3.55878 81.235C6.46407 75.998 12.2117 73.6532 16.5652 69.8924C19.7626 67.9319 23.5268 66.548 28.7279 66.6262C32.2678 64.5965 38.0658 64.8054 42.9155 64.5632C47.536 65.4755 51.178 67.386 54.7394 69.376C58.3399 73.6762 63.4288 76.4606 67.4083 80.3752C73.0464 89.1896 80.6855 95.968 86.6636 104.437C90.8257 113.206 96.509 120.429 101.698 128.154V129.358C106.293 134.65 109.648 141.204 114.874 145.856C115.097 149.984 119.133 150.231 119.434 154.279C120.361 155.227 120.977 156.49 122.643 156.685C122.953 158.889 124.723 159.611 126.02 160.809C125.816 162.336 126.649 162.804 127.203 163.56C130.851 163.722 131.268 167.969 134.467 168.028C134.823 169.2 136.472 170.423 137.677 171.294C137.772 170.99 137.473 170.284 137.845 170.262Z" fill="white"/>
<path fill-rule="evenodd" clip-rule="evenodd" d="M37.9182 67.5994C37.3958 67.6159 37.1113 67.3915 36.7362 67.2585C33.1524 68.5714 28.3172 68.3408 24.7498 69.9795C23.4721 69.2165 22.363 70.6132 20.8663 70.66C19.9121 73.2138 17.032 73.8259 14.4489 74.7384C10.6523 77.4315 6.61273 79.88 4.14922 83.9178C3.54373 83.8177 3.33225 84.1155 2.96719 84.2588C1.01351 87.6375 -2.7428 89.8465 -3.28032 94.1175C1.30555 92.0352 2.87404 86.0508 7.69531 84.7682C8.04274 83.6428 8.32346 82.454 9.38464 82.0485C9.97628 82.1321 10.4823 82.3007 11.2414 82.2196C16.5146 77.7205 21.7651 72.3063 30.1513 71.5092C34.7989 70.0504 39.5849 70.2925 45.1791 69.8084C49.1721 70.1328 51.9503 74.2733 55.8161 73.0389C52.2461 69.4142 44.7096 65.0152 37.9182 67.5994Z" fill="white"/>
<path fill-rule="evenodd" clip-rule="evenodd" d="M-0.574453 67.4392C-0.307944 67.4408 -0.404128 67.997 -0.0384288 67.8488C-0.0364246 67.4408 0.329274 67.589 0.231086 67.0282C-0.356035 66.7042 -0.715723 67.0114 -1.51525 66.8234C-1.53429 67.6837 -1.27078 67.9695 -1.51525 68.6679C-0.527363 68.9384 -0.974217 67.6792 -0.574453 67.4392Z" fill="white"/>
<path fill-rule="evenodd" clip-rule="evenodd" d="M27.3463 79.0978C29.9912 76.1928 36.6346 77.9379 40.4492 75.9783C42.1731 75.9926 43.5774 76.5286 45.2126 76.1527C47.7459 76.8076 49.3569 78.4003 51.8483 79.0978C56.0206 79.0655 58.9142 80.3353 60.6978 82.7365C66.4455 84.3382 67.0786 92.051 73.4568 92.4385C72.7122 87.6514 68.068 86.8377 66.6511 82.7365C63.0027 79.8677 59.6005 76.7495 53.5495 76.3258C47.1369 71.4057 37.6964 74.0925 28.8787 74.5924C28.096 75.4113 27.1103 76.0274 25.9864 76.4989C25.3953 76.6384 25.3318 76.2406 24.7952 76.3258C22.0552 77.2907 20.1219 79.0746 17.4782 80.1376C16.0537 82.3245 13.9047 83.7763 11.3524 84.8149C10.2374 85.8159 9.81873 87.5249 7.7789 87.5882C7.14082 88.5543 7.28417 90.3175 5.73908 90.3589C5.06421 90.3511 5.76571 88.9431 4.88788 89.1472C3.66246 89.8331 4.38426 90.4544 4.71789 91.573C3.94154 93.9575 1.13804 94.2792 0.463174 96.7696C-0.124164 96.9104 -0.254825 96.4453 -0.55674 96.7696C-0.852312 99.5364 -3.08116 101.238 -3.28032 103.526C-1.61725 103.603 -1.49166 102.113 -0.727994 101.274C3.92378 99.4847 4.86885 93.9227 9.4813 92.091C9.89612 91.3612 9.13245 91.1584 9.31131 90.1858C16.6905 87.8827 20.0445 81.4797 27.3463 79.0978Z" fill="white"/>
<path fill-rule="evenodd" clip-rule="evenodd" d="M134.135 177.618C132.718 177.104 130.913 176.987 130.404 175.552C125.775 175.028 124.456 171.145 120.735 169.699C120.567 169.296 120.438 168.852 120.398 168.321C113.704 167.253 109.821 163.332 106.657 158.682C106.613 158.006 107.273 158.041 107.167 157.304C106.769 156.846 105.984 156.782 105.3 156.617C104.083 154.006 101.934 152.344 100.89 149.557C99.66 149.084 99.0252 148.008 98.6863 146.631C96.926 144.802 95.6425 142.491 94.4437 140.091C93.9657 135.641 90.3629 134.364 90.7145 129.071C90.937 128.266 91.5402 127.845 91.5605 126.834C91.0723 125.666 90.2466 124.841 88.6785 124.768C88.375 124.329 88.198 123.764 87.8313 123.392V122.015C86.7791 120.04 85.7447 118.048 83.251 117.538C78.5303 110.851 73.9817 103.994 69.1725 97.3972C65.5634 94.806 62.66 91.4986 58.6551 89.3078C56.9138 86.5432 53.4818 85.4934 52.2109 82.2476C48.7725 80.9744 45.8071 79.2225 42.2031 78.1175C40.0735 78.9967 37.0107 78.9286 34.2312 79.1507C33.6318 79.4587 33.0741 79.8104 32.366 80.0106C26.9169 80.9642 23.3104 83.789 19.4762 86.3803C15.355 86.9616 14.8618 91.2239 10.9947 92.0607C8.20764 95.6595 4.87676 98.7051 2.51328 102.734C1.90629 102.632 1.69384 102.934 1.32711 103.079C1.30182 105.234 -0.387642 105.701 -1.2172 107.038C-0.0929971 108.078 -2.01514 108.303 -1.38665 109.619C1.14249 109.26 1.37643 106.574 2.68273 104.972H3.87016C6.11857 102.146 9.28631 100.257 10.4864 96.3641C12.4768 94.8265 14.3737 93.1966 16.2528 91.5448C17.1317 91.5191 17.6186 91.0943 18.2888 90.8569C19.9138 87.1105 25.1693 87.0528 27.4468 83.97C31.931 82.0949 37.1878 83.1229 41.3558 81.0437C43.4904 81.4018 44.5716 82.829 46.954 82.9381C47.4194 83.4977 48.2578 83.6799 48.6486 84.3139C49.8562 84.4102 50.639 84.9351 51.533 85.3471C56.4876 92.0825 64.9881 95.218 69.0018 102.907C69.6354 103.469 70.3675 103.93 71.0378 104.456C74.7101 111.058 79.8341 116.187 83.251 123.047C83.6721 123.537 84.5244 123.592 84.7786 124.252C87.7313 133.074 92.2572 140.302 95.9713 148.353C98.9152 152.251 100.559 157.468 104.453 160.404C105.605 162.389 106.902 164.228 109.032 165.223C110.258 168.339 113.537 169.375 116.834 170.387C119.956 172.968 123.33 174.555 126.841 176.929C127.388 176.966 127.56 176.625 128.199 176.757C129.145 176.944 129.194 178.042 129.893 178.478C130.835 177.889 133.194 178.744 134.305 178.823C134.389 178.281 134.001 178.215 134.135 177.618Z" fill="white"/>
<path fill-rule="evenodd" clip-rule="evenodd" d="M131.117 171.245C130.299 170.06 129.32 169.041 128.577 167.779C126.028 167.496 125.013 165.646 123.323 164.487C123.083 164.255 123.083 163.505 123.323 163.273C121.511 161.86 119.143 160.195 119.087 157.552C118.569 157.043 117.465 157.131 117.224 156.339C116.644 151.732 112.292 150.986 111.971 146.113C107.75 142.863 105.636 137.455 101.974 133.634C100.276 127.627 94.9226 125.365 93.3321 119.247C88.0353 115.248 87.8218 106.051 82.4884 102.087C82.6185 101.433 82.2825 101.259 82.3191 100.701C79.3391 98.7222 77.0539 96.033 74.3556 93.7663C65.1351 92.9147 64.0121 83.7797 56.0549 81.6346C55.5749 80.7701 54.4746 79.7065 53.3465 80.0748C53.2138 80.1136 53.1469 80.2196 53.1772 80.4211C56.2178 85.1082 60.7302 88.2923 65.5457 91.1689C66.051 93.6539 68.6091 94.0403 69.9494 95.6737C77.2762 95.6905 78.734 101.711 81.9818 105.901C83.2463 109.518 86.3577 111.244 86.5561 115.954C88.1414 119.241 90.462 121.779 92.4857 124.62V126.18C95.9812 129.999 99.4703 133.828 101.635 139.007C107.127 144.827 111 152.307 116.546 158.072C116.28 158.09 115.958 158.05 116.037 158.42C117.571 161.415 120.386 163.101 121.458 166.566C126.999 168.296 129.37 174.188 135.185 175.059C135.435 172.805 132.382 172.521 131.117 171.245Z" fill="white"/>
<path fill-rule="evenodd" clip-rule="evenodd" d="M114.09 172.896C111.384 172.724 110.471 170.719 108.003 170.304C108.351 169.409 107.942 168.92 107.496 168.404C106.574 168.13 106.175 169.005 105.635 168.576C106.049 167.645 106.246 166.975 105.635 166.159C105.033 166.408 104.838 167.073 103.942 167.021C103.12 163.141 100.196 161.403 99.5455 157.349C97.069 156.711 96.9694 153.646 95.3163 152.164C95.4335 151.778 95.8257 151.299 95.4878 150.956C91.8424 147.077 89.84 141.522 86.6915 137.137C86.4469 136.579 86.5326 135.686 86.5238 134.89C83.7094 129.587 80.7487 124.435 78.2344 118.823C72.4253 114.163 70.6953 105.335 64.7046 100.857C64.847 100.656 64.929 100.394 64.8748 99.9943C64.0577 99.9067 63.3818 99.6749 62.6757 99.4765C57.9787 94.7716 53.5869 89.7576 46.271 87.7278C45.5926 87.1546 44.8814 86.6149 44.2408 86.0006C33.4725 84.4576 23.3245 88.0665 18.195 94.8115C8.88045 100.73 3.41177 110.577 -3.11483 119.342V120.724C-4.07944 120.925 -4.41864 122.57 -3.96092 123.661C-2.02664 123.046 -2.19561 120.281 -0.239897 119.689C0.022377 118.17 0.87603 117.257 1.28205 115.888C3.9338 114.68 5.26282 112.123 6.69398 109.668C10.5625 107.577 12.6683 103.677 15.1498 100.167C21.7975 94.6892 28.145 88.9088 39.1668 87.9016C40.2866 88.1708 41.3117 88.337 42.5499 88.0742C43.159 88.3151 43.4982 88.8341 43.9029 89.2836C45.7893 89.3699 46.5156 90.6437 48.2998 90.8382C56.1731 97.5948 66.4333 101.915 69.7786 113.295C72.9095 117.469 76.1425 121.537 78.2344 126.771C78.682 127.178 79.1713 127.544 79.7563 127.807C82.7094 134.062 85.1784 140.812 89.2285 145.946C92.7389 152.438 95.8522 159.335 99.8834 165.295C99.5858 167.969 102.393 168.943 103.096 171.167C106.608 171.038 106.57 174.531 110.2 174.278C111.18 176.503 113.377 177.485 116.289 177.733C118.18 182.193 124.247 182.389 128.466 184.47C128.58 183.714 129.205 183.497 128.974 182.742C123.655 179.825 117.961 177.293 114.09 172.896Z" fill="white"/>
<path fill-rule="evenodd" clip-rule="evenodd" d="M1.40084 135.434C2.40193 131.806 4.12224 128.905 4.96154 125.11C6.38861 124.016 7.44911 121.889 7.33409 119.776C8.53236 118.41 9.90002 117.217 10.2173 114.957C15.9255 110.395 17.4057 101.943 25.1351 99.4712C26.5293 97.0465 29.5768 95.5609 33.1046 95.8572C34.49 95.4262 35.1991 94.3113 36.496 93.7917C40.6002 93.5339 42.4697 96.228 46.8381 95.8572C49.4899 97.983 52.4578 99.7894 55.9907 101.02C58.5807 103.782 61.1997 106.517 63.9603 109.107C64.6188 110.334 65.0815 111.755 65.826 112.893C66.7689 113.377 67.8825 114.088 69.0466 113.41C67.7675 107.193 62.3992 105.128 59.2139 100.847C57.7212 100.699 56.9172 99.8522 55.6532 99.4712C52.0925 95.7854 48.6089 94.7424 43.108 92.9322C40.5787 92.0995 38.7686 90.9654 36.3253 91.3837C30.9154 92.3061 25.7203 93.5274 23.2719 97.2338C19.3497 99.4481 16.2302 102.477 13.6073 106.009C13.3634 106.449 13.4468 107.223 13.0992 107.559C12.6796 108.049 11.772 108.048 11.2335 108.418C5.86784 115.925 2.13523 126.375 -0.634209 135.434C-0.0957422 135.615 0.906614 135.493 1.40084 135.434Z" fill="white"/>
<path fill-rule="evenodd" clip-rule="evenodd" d="M115.004 184.385C115.101 181.96 113.609 180.146 111.788 180.741C110.528 179.662 109.65 178.191 108.234 177.27H106.88C104.833 174.973 102.568 172.899 99.4324 171.718C98.5176 170.573 98.5517 168.455 97.4009 167.552C97.6747 162.993 94.033 162.445 93.6785 158.53C92.6639 157.488 92.1251 155.955 91.3075 154.711C89.8829 151.084 88.8974 147.004 85.8929 144.994C85.0853 146.38 86.0683 148.365 86.2311 149.854C87.71 152.327 88.8305 155.171 89.9548 158.008C91.6027 160.347 95.0147 163.529 94.3548 166.511C91.5977 163.437 87.6355 161.601 87.2469 156.1C86.8267 155.836 86.2399 155.743 86.0607 155.232C85.5749 152.29 84.6273 149.702 84.0304 146.903C86.2185 142.47 81.6822 139.365 79.7995 136.839C79.6191 131.818 77.2809 129.008 74.891 126.252C72.7105 120.505 69.2568 116.064 64.3988 113.065C63.1256 110.551 61.7073 108.19 58.6435 107.512C56.6801 105.302 54.4403 103.376 51.1974 102.479C50.4782 102.116 50.352 101.147 49.1646 101.264C49.1873 100.836 49.1911 100.429 48.9955 100.223C46.9198 99.6911 44.9236 99.0766 43.5797 97.7945C37.3008 95.5576 30.0907 98.0286 26.4856 101.611C19.7196 104.218 17.3676 111.35 12.9461 116.361C13.0357 117.033 12.6445 117.209 12.777 117.923C7.05834 123.199 4.36432 132.075 2.62046 140.483C0.833696 143.892 0.198992 147.792 0.250727 152.804C0.675966 153.033 0.780699 152.117 0.929596 152.629C1.77503 152.553 0.556092 152.263 0.760509 151.762C1.1908 151.625 1.5807 151.448 1.77629 151.069C2.65327 140.398 8.06403 133.454 10.2382 124.69C12.7215 121.86 14.9499 118.764 16.5007 114.973C20.8338 110.161 26.0301 106.235 30.5475 101.611C33.2213 99.9188 36.7923 98.3094 40.704 99.356C58.0934 107.323 71.0537 119.834 77.937 138.574C81.5093 147.983 84.6803 157.806 87.416 168.074C88.9466 169.903 89.7554 173.083 91.816 174.841C94.052 180.068 100.275 182.713 103.832 187.162C104.569 187.159 105.356 187.105 105.864 187.335C105.719 187.88 105.223 188.067 105.186 188.723C105.695 189.07 106.539 189.073 106.371 190.111C107.667 189.882 107.962 190.678 108.741 190.98C109.218 190.657 109.797 190.443 110.433 190.286C110.156 194.453 117.146 196.703 119.912 196.706C120.323 196.378 120.686 195.994 120.59 195.144C117.862 194.729 116.795 193.988 114.157 193.236C112.559 191.836 114.128 189.207 112.633 187.855C111.378 188.414 110.36 186.871 108.911 187.508C108.794 186.81 109.073 186.519 109.08 185.948C106.256 184.908 104.508 182.768 101.632 181.782C99.1763 177.966 94.2463 175.863 93.339 171.022C92.8494 170.369 92.2009 169.877 91.816 169.114C89.9687 169.75 87.2582 165.244 88.6008 163.736C92.2816 167.248 96.1062 170.615 98.5857 175.361C100.818 177.237 103.624 178.525 105.525 180.741C106.404 180.971 106.574 179.861 107.218 180.395C107.144 181.022 106.784 181.232 107.049 181.782C107.73 182.428 109.096 182.442 109.758 181.782C112.079 184.106 115.52 186.472 118.896 185.774C118.722 186.173 117.763 185.768 117.881 186.468C121.634 186.617 122.373 189.985 125.497 189.937C124.737 189.097 124.532 187.69 124.143 186.468C120.909 185.986 118.446 182.013 115.004 184.385Z" fill="white"/>
<path fill-rule="evenodd" clip-rule="evenodd" d="M85.6148 117.647C86.7097 114.338 82.7833 111.956 81.5403 109.332C80.6859 107.374 79.9493 105.295 78.824 103.616C78.3493 103.29 77.7177 103.129 77.1266 102.922C76.2191 100.729 74.8078 99.0514 72.8813 97.8981C72.1927 97.8309 71.6991 97.9614 71.6928 98.5916C72.456 101.854 75.3609 102.932 76.2773 106.041C79.9493 109.337 81.2315 115.073 85.6148 117.647Z" fill="white"/>
<path fill-rule="evenodd" clip-rule="evenodd" d="M21.2505 118.204C24.6893 115.301 26.1325 110.356 30.4921 108.394C32.4864 104.356 38.5197 104.455 43.4304 103.406C43.6685 102.751 42.7089 102.012 42.0863 101.683C38.5999 101.498 35.8413 102.057 33.1792 102.715C30.0937 105.749 25.9609 107.713 23.602 111.493C22.041 111.913 20.99 113.539 20.9148 114.935C18.8866 116.644 17.3207 118.829 16.7143 121.99C16.311 122.095 15.9464 122.238 15.3689 122.162C10.3717 128.245 7.47408 137.15 4.78318 145.05C4.78318 148.283 3.84111 151.674 3.77597 155.376C4.23949 155.417 4.28835 155.884 4.44744 156.235C6.60843 155.907 6.80512 152.489 5.96076 150.558C7.66074 145.927 9.45092 140.486 10.497 135.757C13.3131 131.816 13.8443 125.533 18.5622 123.539C18.6323 122.924 19.0094 122.62 18.8991 121.82C19.5318 121.435 19.8838 120.764 20.7469 120.614C20.871 119.765 21.0977 119.023 21.2505 118.204Z" fill="white"/>
<path fill-rule="evenodd" clip-rule="evenodd" d="M-3.23867 105.411C-2.52599 104.939 -2.67594 103.357 -3.94783 103.545C-4.30594 104.286 -4.30594 105.442 -3.23867 105.411Z" fill="white"/>
<path fill-rule="evenodd" clip-rule="evenodd" d="M158.132 105.481C158.566 107.198 160.321 105.971 159.801 104.47C159.003 104.476 158.374 104.715 158.132 105.481Z" fill="white"/>
<path fill-rule="evenodd" clip-rule="evenodd" d="M14.9908 161.524C14.6434 160.724 14.3927 159.827 14.4779 158.588C15.6691 155.878 15.6233 151.918 17.8925 150.297C20.4976 140.295 23.2592 128.617 27.4513 119.208C30.6787 117.005 32.2823 113.157 35.133 110.573C38.8249 108.939 43.6381 108.165 48.2769 107.983C50.5536 108.439 51.909 109.832 54.9341 109.537C54.6592 108.433 53.6029 108.12 52.8851 107.463C49.1932 105.833 43.9626 104.157 40.0836 106.771C37.5917 106.05 36.174 107.875 34.7919 108.845C34.5641 109.133 33.8247 108.904 33.5969 109.19C28.6196 112.733 25.1936 117.846 22.843 124.045C21.5577 125.219 20.4836 126.61 20.7941 129.397C19.6882 132.252 19.3064 135.839 17.7207 138.207C17.7843 139.308 17.4178 139.973 17.5514 141.144C15.0163 145.431 14.4181 151.676 12.6008 156.688C12.4506 171.698 16.0929 182.69 22.843 191.059C18.1826 183.339 16.2011 172.906 14.3074 162.388C14.1674 161.729 15.1308 162.183 14.9908 161.524Z" fill="white"/>
<path fill-rule="evenodd" clip-rule="evenodd" d="M-1.67627 110.311C-3.00211 109.461 -3.16947 111.609 -3.28032 112.933C-2.64565 112.936 -1.96861 112.994 -1.52956 112.746C-1.58933 111.947 -1.38828 110.816 -1.67627 110.311Z" fill="white"/>
<path fill-rule="evenodd" clip-rule="evenodd" d="M108.314 192.927C107.877 192.284 107.5 193.557 107.298 193.102C106.331 190.335 102.643 190.357 101.378 187.897C100.971 187.31 100.479 188.576 100.023 187.897C99.8983 187.306 100.646 187.611 100.699 187.203H99.3458C99.0582 186.516 98.5965 186.005 98.6696 184.948C98.1398 184.912 97.4271 185.065 97.1458 184.774C96.0722 182.79 94.9041 180.244 92.5779 180.09C89.5554 175.152 85.8769 170.885 84.7933 163.957C84.4678 163.31 83.774 163.038 83.61 162.221C84.4943 159.67 83.0688 157.333 82.4267 155.283C80.0185 154.107 79.6817 150.811 78.1957 148.691C77.1953 142.203 74.2964 135.582 71.2588 130.127C70.8753 129.569 71.4076 128.978 71.0897 128.565C70.7895 127.717 69.6352 127.744 69.3968 126.831C69.1899 126.177 69.0562 125.447 69.06 124.575C64.8656 118.815 61.587 112.112 53.1539 110.697C51.5392 111.537 49.1828 110.772 47.9087 110.177C40.8961 109.85 34.4675 110.744 32.3419 115.902C31.7452 115.983 31.416 116.34 30.9883 116.596C25.5412 124.991 22.9337 137.063 19.6526 148.171C19.9882 164.801 22.3472 180.458 29.636 190.5C30.1356 193.514 31.8096 195.327 34.2039 196.397C29.1554 189.144 26.2981 180.356 23.5443 170.548C23.5544 167.319 23.0738 164.478 22.1907 161.874C21.7391 153.701 22.1958 145.18 25.2372 138.975C25.984 135.115 26.8872 131.415 29.4657 129.433C28.6874 126.111 30.3336 124.187 30.9883 121.8C31.2697 121.51 31.9824 121.661 32.511 121.628C34.0348 116.018 37.2756 112.172 44.3563 112.258C44.9946 112.529 45.6216 112.812 46.3848 112.954C55.1748 111.578 58.6553 117.142 63.1373 120.759C66.4159 126.36 69.7185 131.937 72.104 138.455C77.0175 153.774 83.2669 169.223 90.8875 182.346C92.8062 183.558 94.4979 185.003 95.2863 187.376C98.3732 189.819 102.033 191.677 104.253 195.01C108.225 195.161 110.162 200.582 114.913 199.346C113.264 196.643 109.402 196.207 108.314 192.927Z" fill="white"/>
<path fill-rule="evenodd" clip-rule="evenodd" d="M33.8322 178.795C33.6187 176.02 32.5617 174.087 31.9342 171.723C31.9483 170.245 31.8519 168.652 32.1078 167.412C30.2959 162.994 31.4532 156.603 30.0374 151.72C31.7786 146.283 30.1056 140.331 32.1078 135.858C31.7734 134.185 31.3246 133.375 31.5895 131.374C33.8322 126.889 35.945 122.276 38.6622 118.268C40.5281 117.147 43.3057 116.932 44.6984 115.337C42.1085 111.406 37.8893 116.555 35.5579 117.751C33.4001 121.801 29.9551 124.566 30.211 131.028C28.2847 132.725 26.748 134.81 26.0703 137.754C25.7964 141.776 23.5782 146.517 26.2439 149.651C28.3117 145.665 26.3378 137.712 29.5192 135.34C29.6298 142.247 28.5149 148.206 27.2778 154.48C27.2469 155.258 28.3464 154.907 28.1394 155.86C27.0875 158.824 28.1818 163.46 29.1758 166.033C28.8415 169.216 30.2522 173.088 30.382 176.898C30.6765 177.696 31.4777 177.988 31.7631 178.795C32.0666 187.25 37.3891 191.965 40.3879 198.28C39.9764 198.856 39.3939 197.68 39.0068 198.28C40.4805 199.45 42.2422 200.333 43.8355 201.385C43.3559 199.377 40.8611 199.318 41.5941 196.555C41.2572 195.742 40.0844 195.766 39.6974 195.003C38.5194 190.491 35.2892 187.108 34.0045 183.278C37.9845 186.542 39.6215 192.149 43.3198 195.694C44.4643 197.366 45.4738 199.171 46.77 200.695C47.4567 200.866 47.2882 200.179 47.9762 200.35C47.8798 200.77 47.3075 200.716 47.4593 201.385C49.3213 202.396 49.8961 204.694 52.288 205.176C47.9814 200.516 44.9993 194.531 40.9036 189.659C39.3656 185.22 35.5361 183.069 33.8322 178.795Z" fill="white"/>
<path fill-rule="evenodd" clip-rule="evenodd" d="M35.5623 168.47C37.5428 172.851 39.207 178.421 40.8215 182.588C36.8696 180.187 35.2734 173.828 35.5623 168.47Z" fill="white"/>
<path fill-rule="evenodd" clip-rule="evenodd" d="M104.089 198.226C101.587 197.452 99.2608 196.493 98.5223 193.911C95.844 193.255 94.6112 190.595 93.796 188.56C92.2864 188.496 91.7341 187.447 90.422 187.18C90.6308 186.046 89.5892 186.19 89.7477 185.109C86.2366 183.522 86.175 178.407 82.9972 176.478C82.6098 171.754 81.0297 168.249 78.6105 165.605C76.5361 160.016 74.5648 154.322 71.8613 149.378C68.159 139.127 66.472 126.812 58.5315 120.898C56.6507 117.09 52.459 115.242 46.72 115.893C42.4088 120.343 35.8093 122.452 35.4143 130.909C32.0516 138.984 33.3411 151.507 32.8832 159.218C33.5172 160.583 33.7109 162.398 34.233 163.878C34.2078 164.197 33.6619 163.984 33.5575 164.223C33.7487 164.833 33.7436 165.643 33.8959 166.294C32.6316 178.35 39.0713 184.011 43.1762 191.15C44.9475 192.56 46.2319 194.467 47.5629 196.328C50.1493 200.988 55.9764 202.335 59.7115 205.822C56.5602 201.683 52.2754 198.701 47.9 195.81C48.0611 195.286 48.5731 195.117 48.407 194.258C48.2233 193.696 47.5805 193.605 47.2257 193.22C47.0521 192.421 46.4546 192.054 46.5514 190.977C44.7235 189.394 43.6794 187.012 42.5006 184.764C42.0151 177.514 39.3758 170.57 37.1013 165.086C37.8599 162.133 35.101 159.595 36.2571 157.32C35.8483 156.644 35.4344 155.975 34.9073 155.42C35.8848 155.096 35.7388 153.624 36.4257 153.003C35.7703 152.812 35.0897 152.646 35.0771 151.795C35.9502 150.067 35.9615 149.261 35.4143 147.308C35.7791 146.529 36.5943 146.212 36.7641 145.236C35.691 134.54 38.4675 124.918 45.2016 121.07C45.784 121.222 46.3086 121.433 46.5514 121.934C47.5692 127.071 45.584 131.806 45.5375 136.606C45.4771 143.274 47.4849 150.565 49.0813 156.627C50.9721 163.808 53.4491 170.923 56.8445 176.133C56.6923 176.438 56.4369 176.636 56.3375 176.996C60.4776 184.383 63.7207 192.688 70.3417 197.537C70.9681 197.638 71.3216 197.005 71.6915 197.364C73.6012 200.877 78.14 201.7 79.7918 205.475C83.1306 206.891 85.4541 209.35 88.5664 211C89.2495 211.282 89.3426 210.086 89.7477 210.657C89.8949 211.209 89.3087 211.013 89.242 211.345C90.1503 211.765 92.1996 211.848 93.1217 211.69C92.2172 209.733 87.9752 209.711 87.3852 206.858C84.171 206.291 83.118 203.513 79.622 203.232C79.3754 202.576 80.3768 203.198 80.1302 202.543C77.3978 199.639 74.0779 197.34 72.7042 193.049C70.9858 191.912 70.5027 188.653 67.9791 188.905C67.0457 192.111 71.0424 193.093 71.5229 195.983C68.7213 194.932 66.1248 192.188 66.1248 187.697C64.395 186.361 63.9044 183.754 61.5683 183.037C62.2338 181.925 61.0563 181.746 60.5556 181.311C60.5833 178.406 59.0636 177.083 57.3489 175.96C57.6823 175.495 57.4496 174.452 57.5188 173.716C54.0316 161.748 47.9214 151.544 47.5629 136.951C49.1178 142.15 50.5582 147.466 51.6137 153.176C53.6126 155.214 54.2819 158.616 55.8305 161.116C55.95 165.712 58.2358 168.094 59.0384 171.99C61.5457 176.807 64.4592 182.036 67.6432 186.662C71.6726 187.832 72.3721 192.41 75.9109 194.085C75.6127 194.448 75.5297 194.595 75.741 195.12C79.0609 198.284 81.2234 202.633 86.7096 203.577C83.6564 199.623 79.0433 197.268 76.5852 192.704C74.6642 191.848 73.1936 190.536 72.7042 188.216C67.5438 184.231 65.3562 177.205 61.7356 171.645C61.9419 169.858 60.6537 169.426 60.2172 168.365C59.6133 166.895 59.3542 165.489 58.8686 164.395C56.7564 159.652 56.9074 153.633 53.2994 150.759C51.7873 143.388 48.8372 137.489 48.2384 129.183C49.3518 128.02 49.3253 125.691 49.2511 123.315C52.605 123.477 54.3888 126.668 56.1677 129.01C57.6848 135.983 61.8136 142.675 62.2426 150.759C63.2842 151.423 63.6528 152.675 63.254 154.384C65.1524 155.838 65.287 159.094 65.7864 161.978C67.2532 165.944 68.9805 169.643 70.8486 173.197C71.4487 176.843 73.7936 178.7 75.4051 181.311C76.1172 181.676 76.8959 181.971 77.2607 182.692C77.1223 183.054 76.5663 183.365 76.9236 183.728C81.5342 190.519 86.8404 196.595 94.1331 200.643C94.0816 201.047 93.8035 201.357 94.1331 201.679C96.1271 202.518 97.4027 204.089 100.207 204.095C100.428 204.676 100.44 205.47 100.884 205.822C102.109 206.085 103.369 207.16 104.932 206.513C105.088 205.267 102.567 205.303 103.078 203.577C102.231 203.083 100.648 203.684 100.207 203.577C100.589 203.266 100.606 202.706 100.377 202.198C96.5523 200.298 92.4524 198.681 90.9277 194.43C87.0128 193.6 86.3108 189.487 82.9972 188.043C83.4161 186.579 81.7543 186.401 82.3229 185.109C81.6424 184.655 80.8599 184.305 80.8045 183.209C80.6561 182.428 81.6474 182.807 81.6486 182.174C80.0095 181.888 79.5553 179.88 77.7664 180.277C73.8301 173.659 68.159 166.315 68.8232 157.146C66.5248 155.756 67.2897 151.234 65.2819 149.552V145.582C60.6625 137.474 60.5166 124.793 51.9496 120.724C49.8474 121.236 47.6648 120.566 47.3943 118.655C54.014 117.652 58.8535 122.913 60.5556 128.666C64.9461 134.991 67.1639 143.538 69.1616 152.312C70.275 153.419 71.1103 154.808 71.3544 156.801C71.7808 157.227 72.3784 157.479 72.7042 158.008C72.9608 158.553 73.2665 159.044 73.3797 159.735C75.4479 161.647 76.2392 164.866 77.4293 167.675C78.6697 169.839 81.748 173.482 80.4661 175.96C78.5552 175.039 77.7325 173.003 77.2607 170.609C73.6427 168.325 74.951 160.086 70.5115 159.218C70.0435 160.426 70.9631 161.602 70.6801 163.188C74.322 168.956 76.3537 176.371 82.4902 179.586C82.5594 180.403 82.1896 180.773 82.3229 181.658C88.6633 190.822 97.0291 197.912 107.464 202.889C108.317 202.899 108.43 202.669 109.151 202.889C109.244 203.195 109.237 203.604 109.49 203.751C109.246 202.391 110.3 203.222 110.502 202.543C107.537 202.467 107.354 199.549 104.427 199.435C104.202 199.146 103.98 198.857 104.089 198.226Z" fill="white"/>
<path fill-rule="evenodd" clip-rule="evenodd" d="M4.48902 119.501C4.47389 118.497 4.45245 117.484 4.65801 116.706C1.79023 117.471 2.02606 121.44 -0.24774 122.819C-0.750926 126.155 -3.46233 130.496 -1.9389 133.647C-1.89224 130.436 -0.435647 128.68 1.10544 127.01C1.35892 123.604 3.25565 121.894 4.48902 119.501Z" fill="white"/>
<path fill-rule="evenodd" clip-rule="evenodd" d="M79.9796 206.843C78.7582 206.421 78.2176 205.31 76.9305 204.952C75.9313 202.758 73.6072 201.909 72.3554 199.97C67.6679 198.196 65.1114 194.26 62.6975 190.176C62.2668 189.815 61.5367 189.751 61.0049 189.488C61.1363 188.385 60.0348 185.702 58.2942 185.365C55.581 178.768 52.4838 172.335 51.0085 165.262C49.9879 163.779 49.4119 161.844 48.1286 160.624C49.2199 159.739 47.7484 158.086 47.9593 156.499C47.6423 155.847 46.8276 155.701 46.6027 154.954C46.8238 151.648 46.3236 149.476 45.5884 146.363C44.7573 142.853 45.0592 138.596 44.0626 136.225C44.8962 134.395 44.8129 131.522 44.2318 129.526C44.5918 127.873 45.9143 126.325 45.4192 124.371C43.916 123.738 43.3666 125.474 42.706 126.261C42.2083 132.65 43.4398 139.166 43.0457 145.847C44.0992 152.115 46.1013 157.309 45.7564 163.888C46.9071 163.695 47.3126 164.257 47.9593 164.576C51.6502 174.921 54.8661 185.749 61.8512 192.753C62.0836 193.093 62.0129 193.736 62.191 194.129C68.6165 201.127 76.2408 206.911 84.2162 212.341C85.4692 212.616 86.8498 212.762 88.4514 212.685C85.4452 211.552 83.6503 209.191 80.3194 208.389C80.1186 207.961 80.0731 207.377 79.9796 206.843Z" fill="white"/>
<path fill-rule="evenodd" clip-rule="evenodd" d="M-3.67139 125.261C-3.62023 125.064 -3.47382 124.966 -3.19862 125.007C-3.12629 124.343 -3.52497 124.179 -4.14593 124.251C-4.2112 124.825 -4.08771 125.199 -3.67139 125.261Z" fill="white"/>
<path fill-rule="evenodd" clip-rule="evenodd" d="M10.4529 153.857C10.7535 151.681 12.1234 149.692 12.5568 147.616C13.1772 144.659 13.7686 142.2 14.6618 139.641C15.0154 138.677 13.8615 138.43 14.1766 138.081H15.1482C15.6443 135.991 15.9666 134.351 17.4138 133.055C16.6823 130.763 19.8326 129.128 18.3854 126.119C15.5839 126.028 15.3727 130.158 14.6618 132.88C13.3727 133.927 12.9104 135.859 13.0444 138.427C10.3214 140.495 11.1675 145.903 8.99606 148.829C9.1747 152.257 8.56757 154.842 8.18615 157.671C8.73897 164.419 9.14573 172.339 11.9098 176.741C11.8603 177.373 11.9363 177.869 12.0715 178.302C12.5278 178.448 12.7366 178.862 13.3679 178.82C10.4167 171.354 9.3304 161.972 10.4529 153.857Z" fill="white"/>
<path fill-rule="evenodd" clip-rule="evenodd" d="M54.9346 139.294C56.5861 141.364 57.1883 144.462 57.5802 147.765C55.4146 146.257 54.9149 142.391 54.9346 139.294Z" fill="white"/>
<path fill-rule="evenodd" clip-rule="evenodd" d="M61.3954 161.297C65.6014 176.48 74.5112 186.897 83.6502 197.081C84.8977 197.769 86.1945 198.402 86.7075 199.835C87.0988 200.233 87.2546 199.516 87.8967 199.66C88.8022 203.333 91.738 204.946 94.1823 207.059C94.9485 206.862 95.4513 206.394 96.3898 206.372C93.468 203.826 90.9515 200.869 87.3876 198.974C85.9311 196.262 83.6134 194.423 81.2717 192.609C80.9019 191.665 80.3674 190.886 80.2522 189.685C74.8937 185.077 71.4868 178.489 68.1927 171.792C66.9578 164.667 61.6221 160.212 61.0585 151.835C58.7573 149.407 59.9567 143.832 58.6788 139.964C58.0152 137.956 56.6626 137.103 56.6398 135.148C56.0483 134.371 55.2124 133.841 54.7704 132.911C55.0718 131.23 53.8307 131.112 53.5825 129.987C53.7319 128.23 53.4482 126.91 52.5629 126.202C50.8684 125.805 50.6163 126.869 50.5239 128.095C53.1823 135.839 52.6947 146.77 58.1684 151.663V153.728C59.2234 156.274 59.9377 159.163 61.3954 161.297Z" fill="white"/>
<path fill-rule="evenodd" clip-rule="evenodd" d="M115.559 164.679C116.472 165.221 118.07 165.912 119.323 165.543C118.731 162.228 114.907 162.171 114.189 158.982C113.68 158.919 113.32 158.707 112.991 158.464C111.036 153.53 107.802 149.888 104.605 146.206C104.283 145.955 104.584 145.076 104.262 144.827C103.031 143.364 101.262 142.444 101.182 139.82C99.6227 139.436 99.772 137.329 98.2727 136.884C96.9521 133.728 95.2218 130.982 92.7961 128.941C92.4682 129.014 92.0586 129.005 92.1109 129.461C91.4436 131.23 93.5209 131.72 93.8233 133.086C96.4442 140.111 101.498 144.677 104.262 151.558C108.828 155.126 111.988 160.111 115.559 164.679Z" fill="white"/>
<path fill-rule="evenodd" clip-rule="evenodd" d="M63.3196 204.706C60.3932 204.003 60.1102 200.565 57.8266 199.197C55.8484 195.85 52.8499 193.553 50.6706 190.414C50.3393 190.077 50.5639 189.431 50.6706 189.037C48.2046 187.177 46.513 182.839 46.5081 179.567C43.6673 176.039 44.644 169.479 42.1792 165.446C43.6412 163.684 42.0712 161.408 41.8454 159.42C41.4358 155.791 39.9962 151.959 40.1823 147.883C40.2245 146.967 40.7706 146.082 40.8476 145.13C41.1553 141.341 39.81 137.427 40.8476 133.247C40.4976 132.462 40.546 131.264 39.8485 130.836C39.228 130.767 38.8718 130.975 38.8507 131.526C38.6558 135.021 38.1519 139.565 38.8507 142.891C37.1107 151.894 39.1647 159.929 40.1823 168.031C40.8823 173.601 44.994 178.619 44.8426 184.732C47.5754 189.193 50.7414 193.209 53.499 197.646C55.3197 198.634 56.7519 200.022 58.1605 201.434C58.7959 201.931 59.0553 200.903 59.6585 201.434C59.8682 204.812 63.8347 207.192 65.8179 209.871C67.5082 210.373 69.2941 211.655 70.8107 211.765C69.3128 210.211 66.3156 208.728 64.1524 207.288C64.2492 206.042 63.5914 205.576 63.3196 204.706Z" fill="white"/>
<path fill-rule="evenodd" clip-rule="evenodd" d="M-4.16235 135.012C-3.71317 135.186 -3.5335 135.595 -2.80178 135.52C-2.29754 135.226 -2.40621 134.398 -2.41201 133.66C-3.65087 133.541 -3.94646 134.243 -4.16235 135.012Z" fill="white"/>
<path fill-rule="evenodd" clip-rule="evenodd" d="M-2.35922 144.941C-0.957997 143.211 -0.678401 139.938 0.247828 136.931C-2.37649 134.579 -2.50279 141.846 -2.35922 144.941Z" fill="white"/>
<path fill-rule="evenodd" clip-rule="evenodd" d="M-4.1262 135.53C-4.38199 136.01 -3.21417 136.379 -2.70612 136.035C-3.34824 135.956 -3.29356 135.508 -4.1262 135.53Z" fill="white"/>
<path fill-rule="evenodd" clip-rule="evenodd" d="M36.8136 194.706C33.4852 188.589 31.0599 181.565 28.358 174.819C28.8058 174.519 28.7067 173.67 28.7041 172.916C26.5066 165.39 27.3069 156.189 24.3889 148.706H23.8704C23.3905 150.299 23.7289 152.712 23.1808 154.24C23.6401 154.995 23.5513 156.192 23.3545 157.179C24.2731 160.988 24.919 164.594 25.2535 168.42C25.947 176.407 29.7682 184.404 33.1905 190.21C34.7769 192.902 35.8641 196.381 39.0574 197.647C38.939 196.035 37.8789 195.369 36.8136 194.706Z" fill="white"/>
<path fill-rule="evenodd" clip-rule="evenodd" d="M146.666 152.012C146.857 152.596 147.02 153.208 147.585 153.412C148.088 153.027 148.636 152.258 148.352 151.544C147.561 151.469 147.068 151.693 146.666 152.012Z" fill="white"/>
<path fill-rule="evenodd" clip-rule="evenodd" d="M20.1953 173.387C20.6797 169.148 18.9674 167.147 18.6689 163.707C18.2958 160.115 19.4859 155.534 17.9898 152.47C15.0129 154.625 17.4346 160.711 16.1245 164.396C16.9313 167.408 16.753 171.596 19.5162 173.387C19.1963 173.637 18.765 173.773 18.8384 174.425C20.8744 182.492 24.012 191.279 29.355 194.823C28.557 192.351 26.8738 190.783 25.6218 188.774C23.5744 183.889 22.4653 178.046 20.1953 173.387Z" fill="white"/>
<path fill-rule="evenodd" clip-rule="evenodd" d="M0.490417 153.412C-0.0758505 155.115 0.495709 156.373 0.728567 158.118C1.79583 157.54 2.91954 153.939 0.490417 153.412Z" fill="white"/>
<path fill-rule="evenodd" clip-rule="evenodd" d="M4.85892 160.931C5.78849 159.568 5.31448 157.82 4.70438 156.44C4.23153 156.569 4.24883 156.13 3.77597 156.259C4.00894 158.65 3.32388 162.979 5.16801 164.706C5.83462 163.291 5.52784 162.015 4.85892 160.931Z" fill="white"/>
<path fill-rule="evenodd" clip-rule="evenodd" d="M60.4402 193.933C60.1 193.643 59.1866 193.947 58.9194 193.587C58.9383 193.26 59.4776 193.466 59.4259 193.068C54.797 187.494 51.1218 181.217 49.625 172.833C47.5915 170.995 48.7053 165.934 46.0771 164.706C45.2745 164.864 45.398 165.971 45.2317 166.782C46.4437 168.725 46.6088 170.719 47.0901 172.833C49.1147 181.756 53.2574 189.105 57.5676 194.797C62.9273 199.342 66.7184 205.493 73.115 208.977C73.1162 209.61 73.595 209.754 73.7903 210.189C76.3139 211.008 77.7112 212.978 80.3809 213.647C80.711 213.292 81.3196 213.225 81.3952 212.61C72.2973 208.546 66.416 201.19 60.4402 193.933Z" fill="white"/>
<path fill-rule="evenodd" clip-rule="evenodd" d="M5.64892 166.588C5.36046 167.692 5.55945 170.556 7.30412 171.294C7.18997 169.526 6.79506 168 6.26904 166.588H5.64892Z" fill="white"/>
<path fill-rule="evenodd" clip-rule="evenodd" d="M14.2761 181.322C13.8308 180.715 13.4491 180.044 12.6664 179.765C12.1719 181.291 14.4802 181.288 13.7936 183.505C14.2305 183.408 15.0708 183.703 15.2424 183.35C14.8139 182.828 14.2893 182.402 13.9532 181.79C13.9688 181.544 14.365 181.668 14.2761 181.322Z" fill="white"/>
<path fill-rule="evenodd" clip-rule="evenodd" d="M111.402 186.595C111.79 186.982 112.593 187.646 113.148 187.066C112.996 186.014 112.291 185.709 111.578 185.412C111.429 185.688 111.346 186.045 111.402 186.595Z" fill="white"/>
<path fill-rule="evenodd" clip-rule="evenodd" d="M114.913 187.845V189.03C116.31 189.848 117.589 190.788 119.543 191.059C119.871 190.423 121.002 190.581 121.087 189.706C118.51 189.5 117.602 185.96 114.913 187.845Z" fill="white"/>
<path fill-rule="evenodd" clip-rule="evenodd" d="M124.674 192.941C125.096 192.611 125.616 192.376 125.473 191.462C124.134 190.04 122.767 192.829 124.674 192.941Z" fill="white"/>
<path fill-rule="evenodd" clip-rule="evenodd" d="M34.6477 196.722C34.6194 197.46 36.0307 197.763 36.0677 196.974C35.7873 196.682 35.2316 196.688 34.6477 196.722Z" fill="white"/>
<path fill-rule="evenodd" clip-rule="evenodd" d="M114.052 200.729C114.798 200.686 115.463 200.55 115.47 199.718C114.962 199.249 113.863 199.678 114.052 200.729Z" fill="white"/>
<path fill-rule="evenodd" clip-rule="evenodd" d="M51.4059 200.47C52.2645 203.62 55.4512 204.311 57.5802 206.118C55.7038 204.043 54.4022 201.36 51.4059 200.47Z" fill="white"/>
<path fill-rule="evenodd" clip-rule="evenodd" d="M97.3078 207.086C97.2332 206.64 97.6401 206.682 97.4895 206.16C95.9842 205.97 95.1299 206.4 95.671 207.829C97.1424 208.429 98.7019 208.941 100.765 208.941C101.093 206.813 99.0748 207.078 97.3078 207.086Z" fill="white"/>
<path fill-rule="evenodd" clip-rule="evenodd" d="M57.5802 207.213C58.32 207.67 59.2571 209.732 60.2263 208.612C59.2559 208.381 58.7639 206.518 57.5802 207.213Z" fill="white"/>
</g>
</g>
</svg>
