<svg width="235" height="309" viewBox="0 0 235 309" fill="none" xmlns="http://www.w3.org/2000/svg">
<g id="foot">
<mask id="mask0" mask-type="alpha" maskUnits="userSpaceOnUse" x="16" y="30" width="209" height="239">
<path id="Fill 1" fill-rule="evenodd" clip-rule="evenodd" d="M136.691 95.0032C115.523 78.4203 49.7457 122.864 43.5404 166.703C39.3405 196.443 87.3174 217.47 118.357 230.606C130.843 235.768 140.562 243.746 149.049 253.069C158.115 262.991 181.574 283.172 213.353 250.696C222.914 240.933 227.622 230.408 222.937 217.781C213.704 192.908 171.902 190.992 163.887 189.479C144.62 185.809 133.136 168.421 136.9 149.844C140.157 133.791 154.307 108.843 136.691 95.0032ZM29.1906 140.882C32.539 144.2 33.0993 148.663 30.4246 150.825C27.7602 152.981 22.8998 152.042 19.5534 148.71C16.2099 145.401 15.6496 140.938 18.3139 138.782C20.9722 136.607 25.8471 137.544 29.1906 140.882ZM33.4207 120.666C37.6053 124.828 38.2854 130.416 34.9649 133.116C31.6405 135.814 25.5329 134.636 21.3439 130.468C17.1546 126.297 16.4612 120.723 19.7885 118.018C23.1342 115.311 29.227 116.49 33.4207 120.666ZM46.6465 99.1396C51.354 105.476 51.1945 113.194 46.2852 116.395C41.3968 119.585 33.5827 117.055 28.89 110.718C24.1757 104.387 24.3424 96.6673 29.2364 93.4634C34.1441 90.2787 41.9334 92.8175 46.6465 99.1396ZM70.7222 73.4747C76.5131 81.2743 76.3086 90.7898 70.2492 94.7286C64.2095 98.6757 54.6087 95.5497 48.8138 87.7478C43.0157 79.9497 43.2175 70.4413 49.2732 66.5033C55.3242 62.5569 64.9361 65.6834 70.7222 73.4747ZM76.2105 63.6746C69.3669 51.5034 71.3 37.6479 80.53 32.7123C89.7428 27.7871 102.777 33.6564 109.638 45.8203C116.458 57.981 114.548 71.8471 105.318 76.7795C96.0876 81.712 83.0717 75.8385 76.2105 63.6746Z" fill="white"/>
</mask>
<g mask="url(#mask0)">
<g id="Vector" opacity="0.6">
<path fill-rule="evenodd" clip-rule="evenodd" d="M80.206 46.7633C79.4223 47.1759 77.6077 46.7615 77.5583 47.7634C78.0912 48.3687 80.4242 47.958 80.206 46.7633Z" fill="#B1C7C7"/>
<path fill-rule="evenodd" clip-rule="evenodd" d="M71.2397 50.6139C72.3499 50.8411 74.9858 50.801 75.0082 49.439C73.5319 49.715 71.0891 50.8633 71.4193 49.3784C71.1242 49.5156 70.374 49.4327 70.3934 49.7226C70.8769 49.8068 71.2154 50.042 71.2397 50.6139Z" fill="#B1C7C7"/>
<path fill-rule="evenodd" clip-rule="evenodd" d="M90.3387 48.2635C95.3548 52.1719 101.13 55.1437 105.738 59.5546C109.006 61.4624 111.299 64.5727 114.905 66.0655C114.901 66.4326 114.34 66.4704 114.493 66.927C115.892 66.9254 116.654 67.7052 117.25 68.6919C117.724 68.7614 118.427 68.5482 118.705 68.8584C124.072 75.2996 131.671 78.9939 137.02 85.4584C138.55 85.6014 141.406 85.3657 140.516 87.3818C141.264 87.6476 142.38 87.4572 143.227 87.6016C150.807 91.4969 154.284 100.446 163.428 102.414C165.666 104.521 168.294 106.149 171.288 107.326C171.308 107.568 170.864 107.535 171.008 107.851C172.798 110.688 177.455 109.995 178.935 113.217C179.399 113.356 180.112 113.191 180.411 113.533C182.115 111.027 179.261 110.501 178.299 108.838C175.12 109.075 173.455 107.447 172.391 105.079C169.774 103.673 167.042 102.412 165.224 100.022C163.917 100.388 163.456 99.7094 162.49 99.6532C161.143 96.9802 157.829 96.7313 156.039 94.6051C156.007 94.3555 156.509 94.4202 156.516 94.1961C153.781 93.7656 152.605 91.4179 151.018 89.5743C150.372 89.4813 149.351 89.8478 148.871 89.5502C148.829 89.1115 149.573 89.1356 149.455 88.6522C148.679 88.1835 147.655 88.0221 147.262 87.0818C145.999 87.4507 145.333 87.0847 145.005 86.3025C144.909 85.7403 146.228 86.0112 146.131 85.4494C144.899 84.9494 143.018 85.2508 141.899 84.6094C142.108 83.742 142.107 83.1916 141.44 82.682C140.931 82.3694 140.944 82.9741 140.422 83.048C136.571 79.7218 131.405 78.0157 128.648 73.3433C127.26 71.9085 124.347 72.3505 123.695 70.0085C120.445 69.3861 119.052 66.4732 116.226 65.3253C115.104 62.2592 112.353 61.1978 109.731 59.9766C109.435 58.9778 108.523 58.7354 108.165 57.811C106.675 57.7039 105.202 56.7736 105.299 55.2907C104.77 55.2302 104.048 55.4091 103.52 55.3473C103.231 54.8121 102.715 54.5565 102.736 53.6423C99.0908 52.3766 96.8674 49.3599 93.0304 48.3319C93.2036 48.112 93.1481 47.7571 93.0708 47.3904C91.0597 46.55 88.9904 46.3094 86.6468 46.225C87.365 47.5378 89.0512 47.6544 90.3387 48.2635Z" fill="#B1C7C7"/>
<path fill-rule="evenodd" clip-rule="evenodd" d="M79.5112 48.1792C79.763 48.5791 81.0911 47.978 80.9025 47.436C80.4212 47.6743 79.1654 47.4268 79.5112 48.1792Z" fill="#B1C7C7"/>
<path fill-rule="evenodd" clip-rule="evenodd" d="M173.961 114.338C171.747 111.016 167.334 110.406 164.761 107.529C161.178 107.496 160.529 103.849 156.757 104.047L156.625 103.141C153.67 102.1 152.764 98.5311 150.352 96.8179C150.451 94.9507 148.508 94.2894 147.052 93.7676C145.165 91.5884 142.691 90.1278 139.785 89.2025C141.145 95.0588 148.729 95.7326 150.597 100.964C148.862 100.729 148.589 98.6953 146.237 99.2188C145.791 98.8217 145.342 98.4251 145.282 97.5512C141.027 97.0412 140.482 91.9591 137.099 90.3775C136.548 88.6685 135.088 87.4452 133.776 85.9322C133.56 85.5178 133.567 86.3355 133.104 86.2269C132.549 85.1303 131.125 85.1072 130.783 83.7513C130.421 83.5442 129.537 83.9811 129.329 83.5836C129.444 83.2842 129.755 83.1019 129.544 82.6078C128.889 82.169 127.768 82.3047 127.267 81.6779C127.069 81.2401 127.702 81.2895 127.504 80.8517C126.3 80.6546 125.847 79.4572 125.31 78.0395C124.733 78.2115 123.619 78.7803 123.057 78.5032C123.08 78.1496 123.975 78.3106 124.054 77.9875C122.974 76.1728 121.458 74.9009 119.258 74.4686C118.106 72.1521 115.765 71.3003 114.242 69.4401C114.286 70.0255 113.825 70.2131 113.269 70.1062C112.935 69.4032 113.581 69.2784 113.418 68.6759C110.759 66.9023 107.382 65.0925 105.909 62.4516C101.376 60.9793 98.6804 57.246 94.6704 55.1295C94.7 54.6183 94.4509 54.4517 94.3438 54.1088C91.5277 53.6051 89.4545 52.1873 87.1215 51.0883C86.4534 48.9989 83.6812 48.5777 81.4614 48.9906C82.4079 50.1375 83.8633 50.6559 85.3449 51.1435C85.4251 51.4213 85.1968 51.5169 85.2593 51.7822C90.3504 53.8104 93.8061 57.8554 98.3204 60.5945C98.6045 61.0388 97.7777 60.8255 98.0618 61.2699C99.9556 62.552 101.724 63.9908 103.335 65.6232C110.748 68.7655 115.913 74.6751 122.257 79.1348C124.027 82.4063 126.67 84.6084 128.815 87.4204C134.475 89.8749 137.229 95.9114 142.294 99.099C142.762 99.2332 143.303 99.2782 143.617 99.603C145.924 101.562 148.273 103.473 152.206 103.43C153.42 104.955 154.968 106.074 157.107 106.463C158.956 108.514 161.619 109.561 164.007 110.947C164.258 111.099 164.311 111.458 164.117 111.702C165.36 112.306 166.765 112.708 167.934 113.403C168.321 114.053 168.804 114.585 169.26 115.15C172.385 115.272 173.132 118.324 176.481 118.17C177.509 120.463 180.158 120.756 182.339 121.628C181.038 117.358 177.05 116.401 173.961 114.338Z" fill="#B1C7C7"/>
<path fill-rule="evenodd" clip-rule="evenodd" d="M107.623 43.894C107.595 42.8808 106.735 42.9372 105.764 43.1387C105.8 44.1418 106.557 44.2151 107.623 43.894Z" fill="#B1C7C7"/>
<path fill-rule="evenodd" clip-rule="evenodd" d="M109.437 52.203C108.636 53.9767 111.027 56.1036 113.193 55.958C113.39 56.3971 112.761 56.3461 112.958 56.7863C113.242 56.9106 113.693 56.8293 113.89 57.0625C119.698 64.1212 127.323 68.9294 134.884 73.8196L134.972 74.4254C137.623 75.5548 139.222 77.988 141.441 79.6522C141.848 79.5647 141.989 79.8082 142.503 79.5895C144.334 81.3171 146.756 82.312 148.365 84.316C148.867 84.7062 149.7 84.6895 150.251 85.0207C150.436 86.1631 151.388 86.3572 152.422 86.4468C153.065 88.7533 154.707 89.8179 156.593 90.5844C156.308 90.7862 156.031 90.9912 156.183 91.45C159.466 92.0347 161.704 93.9127 163.496 96.3469C163.947 96.3844 164.454 96.3535 165.078 96.1771C168.814 100.673 175.212 101.874 179.943 105.138C179.203 103.789 178.606 102.261 176.989 102.001L176.857 101.091C175.51 100.012 173.876 99.2947 172.667 98.0501C168.862 97.454 167.575 93.7414 164.051 92.7974C163.774 92.1269 163.284 91.7202 162.769 91.3443C162.309 91.4367 161.788 91.6045 161.534 91.4414C161.176 89.314 158.03 89.1083 156.996 87.2234C156.956 86.8289 157.713 86.9116 157.405 86.3581C155.094 85.5243 152.901 84.5427 151.956 82.0158C150.354 81.256 148.237 81.1365 147.163 79.7233C146.485 79.9047 145.949 79.9126 145.709 79.5545C145.241 76.6441 140.953 76.9996 140.387 73.6239C139.749 73.2092 139.951 74.4644 139.263 74.4792C138.23 74.5614 137.308 73.5627 137.568 72.6419C138.083 72.6616 137.825 73.6368 138.566 73.3736C139.074 73.3983 138.985 73.0674 139.41 73.044C139.485 72.2975 139 72.2401 138.715 71.9378C135.741 72.6992 134.984 70.7143 132.796 70.5022C128.438 67.3602 123.696 63.176 119.247 59.5508L119.093 58.4906C114.722 55.6747 110.764 52.3465 106.978 48.8049C106.124 48.7316 104.744 49.3067 104.593 48.3599C105.28 47.8845 105.833 48.9172 106.934 48.502C106.914 47.8124 106.349 47.796 106.066 47.4317C102.611 49.321 101.033 42.8219 98.7384 46.13C102.588 47.8029 104.404 51.9935 109.437 52.203Z" fill="#B1C7C7"/>
<path fill-rule="evenodd" clip-rule="evenodd" d="M66.2165 53.0203L66.1318 52.4372C65.3226 51.8628 63.6009 53.0418 63.1727 53.8485C62.7485 54.0136 63.1435 52.9403 62.5448 53.3758C62.036 53.5701 61.7798 53.956 61.7807 54.5355C63.424 54.8142 64.9085 53.5599 66.2165 53.0203Z" fill="#B1C7C7"/>
<path fill-rule="evenodd" clip-rule="evenodd" d="M182.11 126.206C181.673 126.033 180.78 126.429 180.491 126.074C179.291 124.242 177.651 122.951 175.351 122.478C175.558 121.927 175.226 121.912 175.176 121.273C167.103 117.152 159.542 112.402 152.041 107.575C151.826 107.08 152.212 106.943 152.061 106.485C151.325 106.444 150.776 106.176 149.901 106.308C144.356 101.733 137.264 99.0636 132.874 93.0602C130.092 91.617 127.407 89.6842 125.698 86.4701C124.983 86.0483 123.933 86.0447 123.258 85.5752C122.832 83.6551 120.254 82.1952 119.752 79.7817C119.121 79.3762 118.037 79.5324 117.505 79.0033C117.643 78.54 117.591 78.1784 117.33 77.7983C115.082 78.3836 115.412 75.7887 113.509 75.948C113.306 75.4136 113.709 75.2405 113.506 74.7075C112.964 74.664 112.238 74.8539 112.037 74.3888C112.102 73.8364 111.697 73.862 111.711 73.3698C106.431 71.1883 102.701 67.0924 97.4997 64.8149C95.9894 61.5218 92.1191 60.2216 90.7306 57.3661C89.8566 56.9666 88.7825 56.813 88.0757 56.2067C85.5914 53.0574 80.7441 52.8281 77.1907 51C76.6473 50.7522 75.6938 50.9184 75.2935 51.3906C75.4971 53.212 77.0339 53.386 78.7693 53.3133C78.9256 53.7692 78.4792 53.9791 78.9004 54.2162C85.908 54.7989 88.7046 60.581 94.0653 63.1959C94.1467 63.5643 93.8616 63.7179 93.8312 64.0191C95.3015 64.3918 95.9119 65.8311 96.5983 67.1725C97.6065 67.8209 99.0619 67.918 100.161 68.455C99.5592 71.6972 105.061 70.2847 105.347 73.595C106.614 72.9051 108.369 73.7687 108.632 75.3996C109.074 75.5053 109.702 75.3795 110.078 75.567C113.179 79.4347 117.985 81.1934 120.906 85.2846C120.903 85.6483 120.716 85.9053 120.886 86.3746C125.994 91.5503 131.086 96.75 137.033 100.891C142.638 104.328 147.402 108.803 153.816 111.243C154.377 112.443 155.341 113.15 156.625 113.456C158.78 115.948 161.877 117.271 164.555 119.115C164.962 120.095 165.9 120.415 167.211 120.276C169.973 122.074 172.886 123.686 176.216 124.782C176.78 126.871 178.71 127.268 180.409 127.953C180.867 129.578 182.201 130.12 183.478 130.733C183.951 129.028 182.204 128.364 182.11 126.206Z" fill="#B1C7C7"/>
<path fill-rule="evenodd" clip-rule="evenodd" d="M111.728 45.8075C111.227 44.9281 110.371 44.5457 108.834 45.1146C109.088 46.2207 110.873 46.8991 111.728 45.8075Z" fill="#B1C7C7"/>
<path fill-rule="evenodd" clip-rule="evenodd" d="M74.1033 59.298C77.3387 58.6972 80.6012 59.7694 80.8824 61.6497C83.8068 62.9836 86.8589 64.1585 89.838 65.4276C90.9091 66.8531 92.6539 68.3728 95.2912 67.2711C92.5477 63.6859 87.436 63.0281 84.3752 59.8376C82.959 60.0384 82.3113 59.2882 81.8311 58.3323C81.159 58.267 80.3481 58.3757 79.8334 58.1185C77.8533 55.319 72.9771 56.0981 70.4659 53.9563C69.0451 54.2813 67.6842 54.5324 66.4501 54.6281C67.0597 57.3651 72.9678 56.0802 74.1033 59.298Z" fill="#B1C7C7"/>
<path fill-rule="evenodd" clip-rule="evenodd" d="M111.295 48.6678C111.663 48.9892 112.607 48.6045 112.802 49.1369C113.055 50.7865 114.852 51.7652 116.496 52.2712C117.496 54.017 118.746 55.4531 120.65 56.0905C120.424 56.3286 120.394 56.6785 120.431 57.0694C123.649 58.5396 124.93 61.2903 127.949 63.0001C128.122 63.5173 127.384 63.4996 127.557 64.0169C130.852 64.6698 131.502 68.5657 135.857 67.9176C136.364 69.0202 137.745 69.0483 138.023 70.4316C139.002 70.7179 139.823 71.1946 141.016 71.2173C145.897 75.8057 152.292 78.5397 156.989 83.3539C157.023 83.7315 157.07 84.0876 157.297 84.2256C157.995 84.154 158.158 83.7207 158.542 84.1239C158.526 84.5779 157.992 84.725 158.171 85.291C164.939 86.6169 168.018 92.466 173.183 95.7551C173.035 96.2688 172.748 96.7042 173.359 96.9664C174.291 97.0163 173.93 95.8476 174.691 96.2254C175.384 98.2259 177.489 98.4976 179.105 99.3671C177.931 97.4715 176.758 94.0494 173.488 94.1358C173.554 93.7586 174.009 93.6104 174.077 93.2353C171.375 91.4393 169.085 89.1368 167.148 86.4039C162.593 84.6211 158.407 82.3871 155.719 78.3175C152.252 75.9587 147.677 74.0605 145.144 71.1471C143.64 70.9689 142.428 70.4366 141.037 70.1224C137.702 66.0731 131.746 65.2362 128.405 61.1928C127.911 60.8495 127.069 60.9323 126.68 60.4573C125.851 56.3509 121.255 54.292 117.763 52.3218C117.834 49.9677 114.688 50.2947 115.226 48.4823C114.033 48.3991 113.188 47.8912 112.67 46.9826C112.215 46.945 111.705 46.9769 111.075 47.1553C110.874 47.4545 111.346 48.0078 111.295 48.6678Z" fill="#B1C7C7"/>
<path fill-rule="evenodd" clip-rule="evenodd" d="M42.0116 70.9362C42.2586 71.1101 42.6515 71.1018 43.1001 71.0258C46.2965 67.9491 51.6765 65.7493 57.3162 65.2732C59.8211 66.2105 63.5838 65.8457 66.2182 66.11C73.1588 64.5279 77.901 67.2173 82.5906 69.0208C83.3212 68.8353 83.7495 69.0246 84.3759 68.9682C86.1531 71.9226 91.4977 70.4536 93.2658 73.4192C93.9125 73.3365 94.2829 73.5962 94.898 73.5539C94.8749 74.1218 95.2064 74.2514 95.3994 74.55C104.561 78.6653 112.838 83.8746 119.338 91.2916C119.982 91.0256 120.31 90.5705 120.989 90.3242C120.609 89.516 120.473 88.9189 119.939 88.0279C117.34 87.0526 115.851 84.6981 114.44 82.2502C111.949 81.5594 110.455 79.6343 108.489 78.2946C108.057 77.8367 107.644 78.924 107.271 78.5454C105.432 74.4669 99.9599 74.8944 97.9388 71.043C95.9921 71.6404 95.067 70.4225 93.0396 70.6385C89.5752 68.4587 85.1052 67.5232 82.2972 64.527C81.5866 64.3536 80.9617 64.7703 80.2099 64.9566C79.4169 64.3811 78.6067 63.8256 77.8112 63.2517L76.4193 63.5383C74.72 61.7456 70.356 63.2598 70.1208 59.6543C68.9946 59.4892 67.5121 59.7686 67.267 58.5137C64.8996 58.3302 62.5911 58.0737 60.4966 57.5519C57.5633 59.0466 55.877 58.079 52.5357 59.5056C54.2876 59.5266 55.8765 61.3502 57.8047 59.9909C57.5402 60.0185 57.1705 60.1777 57.0873 59.9817C57.7899 59.7048 58.3207 59.3216 59.3039 59.2105C61.9766 61.1739 66.9964 60.2284 69.453 62.4611C63.4007 64.64 57.8089 61.5554 51.4162 64.1322C50.7639 64.1026 50.5066 63.5819 49.5881 63.881C48.9946 64.6424 48.8383 65.6639 46.9812 65.6727C46.7473 67.971 43.2402 67.5761 42.1143 69.1882C42.4583 69.1829 42.8734 69.0881 42.8786 69.5015C42.6562 69.8833 41.2715 70.8907 42.0116 70.9362Z" fill="#B1C7C7"/>
<path fill-rule="evenodd" clip-rule="evenodd" d="M120.369 47.5942C119.818 47.626 118.912 46.7935 118.496 47.5229C118.996 47.5592 120.069 48.1586 120.369 47.5942Z" fill="#B1C7C7"/>
<path fill-rule="evenodd" clip-rule="evenodd" d="M130.594 55.0098C131.096 54.2975 129.831 54.1609 129.493 53.8522C130.102 52.3448 128.253 52.3023 127.353 51.9851L127.158 50.6411C125.726 49.9324 123.806 49.449 122.461 49.1468C122.259 48.7136 123.059 48.8356 122.715 48.325C122.228 48.3024 120.909 48.3516 120.54 48.7727C123.29 51.325 126.377 55.3387 130.594 55.0098Z" fill="#B1C7C7"/>
<path fill-rule="evenodd" clip-rule="evenodd" d="M135.929 52.2133C135.976 51.3956 133.953 51.4175 132.986 51.1208C133.835 51.6202 134.502 52.3045 135.929 52.2133Z" fill="#B1C7C7"/>
<path fill-rule="evenodd" clip-rule="evenodd" d="M180.401 143.019C179.696 141.272 178.008 140.737 176.398 140.106C176.396 139.455 176.152 139.101 175.852 138.817C175.457 138.531 174.557 138.868 174.049 138.721C173.51 137.247 171.82 137.189 171.286 135.708C166.793 135.659 166.209 130.791 162.238 130.097C162.039 129.75 161.894 129.334 161.867 128.773C157.924 128.579 157.22 124.396 153.625 123.773C153.412 121.482 151.966 120.71 149.949 120.638C149.67 120.389 149.658 119.81 149.427 119.5C148.648 119.331 147.828 119.21 147.187 118.871C143.822 113.926 138.14 111.836 133.963 107.892C132.019 107.256 130.178 106.49 129.352 104.481C126.958 103.388 124.844 101.953 123.608 99.4357C121.61 99.6961 121.851 97.2041 120.973 96.0847C120.445 96.0832 119.873 96.1335 119.518 95.9177C118.237 93.4557 116.077 92.0767 114.838 89.5632C114.608 89.4306 114.199 89.5183 113.773 89.6257C113.623 88.3007 110.866 86.5953 109.358 86.3324C107.492 83.935 105.229 82.0293 102.159 81.1185C101.886 79.7898 100.373 79.9899 100.026 78.7555C94.5533 77.2956 90.2637 74.3804 85.156 72.4741C84.4265 72.6591 84.0004 72.4717 83.3738 72.5299C82.3897 70.3562 79.1797 70.9241 77.5683 69.5204L76.0048 69.8423C69.7964 68.2194 62.149 67.8306 53.4547 69.8131C53.1988 69.7137 53.1553 69.35 52.8462 69.3162C46.0791 71.1759 39.8725 75.1397 34.7209 78.8085C34.7184 79.682 33.7908 80.0099 33.9636 80.9877C37.4885 79.5389 40.1588 78.1209 42.3846 76.1409C45.5112 75.3754 47.3229 73.4469 50.6373 73.8187C51.1332 73.4206 51.7019 73.0655 52.2645 72.7048C58.5408 71.3513 64.9327 71.454 71.1834 71.1459C72.0513 71.6834 72.7827 72.3838 73.9029 72.6105C76.191 72.7037 78.3026 73.0143 79.5313 74.4097L81.0947 74.0879C90.3962 78.0202 100.509 80.9521 107.123 88.1936C112.498 90.6611 116.305 95.0618 120.651 98.7988C120.829 99.3646 120.45 99.5994 120.678 100.194C124.729 105.72 130.988 108.524 135.643 113.307C142.862 115.761 146.722 122.356 152.588 126.478C153.045 126.746 153.775 126.679 154.261 126.913C154.888 128.456 156.266 129.077 157.09 130.378C161.775 131.798 163.951 136.305 168.854 137.454C171.265 140.366 174.271 142.547 178.011 143.822C178.119 144.3 177.796 144.524 178.013 145.067C179.286 145.303 179.944 146.67 181.49 145.597C181.341 146.73 182.907 145.753 183.662 145.772C183.772 146.374 184.438 146.962 185.01 146.429C184.418 144.98 183.114 142.836 180.401 143.019Z" fill="#B1C7C7"/>
<path fill-rule="evenodd" clip-rule="evenodd" d="M141.097 59.2755C141.657 60.8737 143.027 62.5002 144.117 63.9844L145.34 63.7326C146.418 66.0492 148.476 67.1601 149.28 69.8182C151.608 70.953 153.771 72.2923 155.638 73.9963C155.442 74.5347 155.674 74.6773 155.815 75.2128C160.288 79.1458 165.694 81.9259 170.282 85.7169C170.419 86.923 171.322 87.1846 172.467 87.1477C172.775 85.3839 172.014 85.1537 171.435 83.7546C171.167 83.5492 170.439 83.9071 170.171 83.7017C168.718 80.1114 165.335 78.8992 162.235 77.3401C158.175 73.0699 153.27 70.0369 149.337 65.2601C149.568 65.0314 149.75 64.9939 150.035 65.1165C145.062 61.9199 141.6 56.8592 136.525 53.7888L136.178 53.8603C137.425 56.1514 138.309 58.8877 141.097 59.2755Z" fill="#B1C7C7"/>
<path fill-rule="evenodd" clip-rule="evenodd" d="M136.008 60.4765C134.151 60.5786 133.492 59.1131 132.559 58.0018C132.492 57.2106 133.757 57.2684 133.902 56.6106C132.128 56.7277 131.136 55.8196 129.201 56.1457C128.878 56.6609 129.532 57.0721 129.448 57.8457C130.988 58.0474 132.113 59.6699 131.963 60.991C132.547 61.2696 133.613 60.9162 133.932 61.54C134.165 62.1568 133.713 62.3377 133.778 62.8455C138.634 64.2732 141.608 69.1463 146.046 70.5095C143.578 66.1995 139.348 64.1976 135.643 61.506C135.848 61.2169 136.27 61.0648 136.008 60.4765Z" fill="#B1C7C7"/>
<path fill-rule="evenodd" clip-rule="evenodd" d="M152.441 63.2493C150.486 60.3188 148.146 57.9441 144.914 56.3075C147.344 58.8822 148.806 62.0299 152.441 63.2493Z" fill="#B1C7C7"/>
<path fill-rule="evenodd" clip-rule="evenodd" d="M32.5217 88.7712C32.8048 88.4338 32.5922 87.7994 33.0577 87.5698C37.2269 85.4949 41.8479 83.6876 46.2298 81.7375C47.8804 82.3166 48.595 80.7877 50.6654 80.5127C51.3028 80.5106 50.5429 81.1265 51.2698 81.0117C53.1602 79.6071 56.9137 79.9255 58.7432 78.694C60.8283 78.2566 62.2242 79.3953 64.2156 78.5038C64.8531 78.903 65.8191 78.8949 67.0615 78.5403C71.6174 80.6837 79.4373 78.7657 82.7204 82.4948C84.1729 82.3564 84.6034 83.4891 86.3406 82.9977C92.5974 87.3779 100.132 90.1714 106.162 94.8309C106.4 95.403 106.423 95.5611 106.36 96.1952C108.531 95.6995 109.396 96.8311 110.181 98.0596C113.325 98.6197 114.604 101.501 117.994 101.758C115.667 97.078 109.774 95.2877 105.614 92.2915C104.543 90.5243 103.4 88.8448 100.714 89.0884C100.715 88.7206 101.271 88.6831 101.12 88.2231C97.2773 87.3427 96.1656 83.0596 91.5139 83.1797C81.7289 76.2794 65.3229 73.3021 47.8385 79.3778C47.3196 79.1298 46.6661 79.0491 45.7055 79.3492C44.7244 80.0549 43.7272 80.7498 42.8231 81.5024C42.2775 81.5263 42.2661 80.8831 41.6788 80.9575C39.0551 81.8954 36.7196 83.6964 34.1681 84.2205C33.8367 85.6368 31.3177 85.7471 31.6353 87.5509C30.6449 87.3733 29.9275 88.4364 29.5502 89.0724C30.7796 89.1019 31.2408 89.5537 32.5217 88.7712Z" fill="#B1C7C7"/>
<path fill-rule="evenodd" clip-rule="evenodd" d="M152.118 60.4355C152.104 59.5809 151.462 59.533 150.956 59.3093C150.978 60.1539 151.338 60.5672 152.118 60.4355Z" fill="#B1C7C7"/>
<path fill-rule="evenodd" clip-rule="evenodd" d="M28.5704 95.5941C29.7565 94.7744 31.3095 94.1705 32.3382 93.2574C32.772 93.4384 33.3624 93.4228 34.1176 93.2033C35.8276 92.277 37.6265 91.4034 39.4485 90.5425C43.1475 89.8404 46.9484 88.7038 49.8733 87.3025C53.9908 86.2639 57.3204 86.952 61.5401 85.2143C62.0334 85.3189 62.0164 86.0541 62.7108 85.9111C64.3175 85.3835 65.8868 84.8367 67.4795 84.3038C71.0915 85.7995 76.2545 85.3751 79.6771 87.1066L81.4111 86.7496C81.483 87.3174 81.7251 87.6729 81.956 88.0436C85.5999 87.2924 86.0412 90.5044 89.553 89.9166C92.0322 91.205 94.1252 92.9702 96.9156 93.8707L97.0479 94.7814C101.705 96.4148 104.938 99.8117 109.773 101.225C109.719 101.888 110.213 101.873 110.297 102.367C113.355 102.818 114.777 105.292 118.221 105.269C121.433 110.899 127.9 112.5 131.761 117.325C138.915 118.851 141.666 125.828 147.105 129.481C152.66 135.848 159.415 140.733 166.682 144.983C166.748 146.454 168.269 146.123 168.315 147.617C172.318 149.661 177.52 149.437 179.761 153.854C181.573 153.373 182.669 155.712 184.229 153.872C183.508 153.292 182.281 153.149 182.664 151.695C181.94 150.998 181.185 151.058 180.383 150.757C180.13 150.236 179.673 149.967 179.47 149.383C176.479 147.892 173.446 146.456 170.132 145.367C168.479 143.118 166.498 141.276 163.701 140.441C163.163 138.658 161.538 138.225 160.071 137.594C159.181 135.476 157.595 134.216 155.248 133.898C153.249 128.735 147.729 127.931 145.16 123.474C144.673 123.123 143.779 123.272 143.294 122.921C136.027 115.326 127.086 109.807 118.695 103.608C118.753 103.118 118.436 103.091 118.388 102.733C116.745 101.604 114.021 101.812 113.132 99.7524C112.589 99.6079 112.52 100.17 111.745 100.038C108.775 97.8662 104.786 96.9561 102.921 93.4151C102.484 93.3012 101.716 93.5979 101.317 93.4329C101.05 93.2876 101.05 92.81 100.99 92.4075C96.7559 91.6807 94.02 89.1019 90.9126 86.9816C87.7573 87.6125 86.2723 85.1 84.3135 84.5887C83.3598 84.34 82.0898 84.683 81.0583 84.321C79.9892 83.9469 79.9111 83.6391 78.6048 83.4199C75.0147 82.8179 72.0539 81.377 67.2591 82.7869C65.5706 82.192 62.6642 83.106 61.2712 82.1439C61.0108 82.4049 60.7489 82.665 60.1012 82.6981C52.1803 83.3629 43.0851 85.7897 36.4958 89.9002C31.0191 90.3007 30.4508 93.6133 27.0948 95.2734C27.1482 96.0442 26.849 96.6067 27.0568 97.4692C27.9826 97.0945 29.0044 96.7758 29.5484 96.1745C29.1972 96.0127 28.3867 96.4195 28.5704 95.5941Z" fill="#B1C7C7"/>
<path fill-rule="evenodd" clip-rule="evenodd" d="M158.944 69.5527L158.667 67.6481C156.35 66.8061 154.761 65.1198 152.632 64.0589C152.389 66.128 155.041 66.2663 155.276 68.3461C156.701 68.5132 157.707 69.167 158.944 69.5527Z" fill="#B1C7C7"/>
<path fill-rule="evenodd" clip-rule="evenodd" d="M30.7082 102.227C31.1156 102.055 30.4849 101.269 31.0965 101.216C32.6527 101.142 33.8086 100.674 35.0505 100.09L34.8535 98.7339C38.0243 98.336 40.0828 96.3081 43.8703 95.4786C44.508 95.0636 43.4498 94.5043 44.4115 94.2797C45.256 93.836 44.9096 94.8512 45.5423 94.6677C52.5164 89.5432 59.3297 94.0428 67.2484 91.287C70.211 92.0924 73.0264 93.0788 76.7916 92.8955C80.7995 94.1344 84.3261 95.9658 88.7938 96.6398C91.3551 98.5876 95.1614 99.0086 97.2109 101.586C98.0017 101.545 98.2238 101.172 98.9256 101.078C107.859 106.694 116.898 112.181 125.57 118.119C125.519 118.715 125.887 118.798 125.92 119.29C131.85 122.907 137.408 126.981 142.104 132.114C145.37 132.901 147 135.698 150.867 135.748C148.502 131.247 142.77 130.881 140.685 126.038C132.326 121.484 126.448 113.003 116.953 109.33C117.359 109.062 117.946 108.901 118.474 108.706C116.754 107.196 114.047 107.992 113.014 105.635C111.274 106.055 110.729 105.006 110.099 104.06C106.844 103.678 105.72 100.673 102.556 100.176C102.32 99.9313 102.231 99.5096 102.054 99.1916C99.9906 99.0013 97.8106 98.952 97.0964 97.1046C95.3464 97.3606 94.7455 96.201 93.8131 95.4513C93.3496 95.3105 92.46 95.6917 92.03 95.5068C91.7633 95.3614 91.7626 94.8878 91.7019 94.488L90.3126 94.774C88.5042 93.7367 87.1976 92.083 84.0947 92.6361C82.066 91.9291 80.6849 90.4239 77.8974 90.6491C77.3798 90.3387 76.999 89.8577 76.4846 89.542C75.8634 89.5934 75.3193 89.5503 74.5498 89.784C72.7814 88.0481 68.54 89.3452 66.2674 88.2274C64.2476 89.4921 61.8142 88.4248 59.3134 89.6589C57.7879 88.6943 53.97 89.0111 52.2537 90.335C46.5565 90.367 41.2435 93.8975 36.0011 95.5442C35.8524 96.2848 35.6002 96.9645 34.8298 97.3396C32.2544 97.3069 29.1481 99.0768 28.7706 101.228C28.5603 101.563 27.6353 101.48 27.4253 101.816C27.5085 103.014 26.3298 103.472 26.2116 104.552C27.0183 104.243 27.7391 103.885 28.5796 103.597C28.2301 102.294 29.2979 101.963 30.7082 102.227Z" fill="#B1C7C7"/>
<path fill-rule="evenodd" clip-rule="evenodd" d="M161.051 69.9681C160.943 70.1879 160.9 70.4538 161.008 70.8254C161.582 71.0681 162.317 71.0814 162.92 71.2816C162.658 70.3273 162.13 69.7561 161.051 69.9681Z" fill="#B1C7C7"/>
<path fill-rule="evenodd" clip-rule="evenodd" d="M161.018 71.0138C161.494 71.3643 161.899 71.8056 162.635 71.8206C162.653 70.9949 161.502 70.3214 161.018 71.0138Z" fill="#B1C7C7"/>
<path fill-rule="evenodd" clip-rule="evenodd" d="M31.975 107.834C34.0549 105.059 39.0129 104.024 41.6705 101.599C43.7028 101.851 44.5137 99.8889 46.3031 100.645C48.8614 98.4158 53.0083 96.8669 55.4391 94.2131C52.0568 92.6471 47.1874 96.8492 44.0997 97.6463C43.3243 99.3543 40.0221 99.5367 38.7474 100.945C38.0863 101.237 38.167 100.595 37.5034 100.887C33.4605 103.633 29.3557 106.342 25.4559 109.176C25.3663 109.892 26.0329 110.2 25.6773 110.7C24.5051 110.919 23.5363 111.259 23.6017 112.226C23.9898 112.64 24.8778 112.423 25.7274 112.26C27.6009 110.657 29.1207 108.841 31.975 107.834Z" fill="#B1C7C7"/>
<path fill-rule="evenodd" clip-rule="evenodd" d="M175.123 155.29C174.648 152.784 171.401 153.691 170.485 151.726C168.893 151.846 167.707 151.463 166.766 150.779C163.552 146.478 157.651 145.482 154.75 140.792C154.241 140.768 154.333 141.097 153.903 141.123L153.771 140.214C151.879 140.345 150.959 139.28 150.074 138.172C146.044 137.308 142.747 135.544 139.261 134.012C137.659 131.232 134.359 130.539 132.642 127.899C128.819 126.068 125.454 123.674 122.327 120.988C122.134 120.551 122.562 120.482 122.369 120.044C118.271 118.077 115.346 114.667 110.967 113.046C106.084 108.063 99.5118 105.161 92.7751 102.461L91.5579 102.711C85.5727 99.9717 79.0722 96.9389 71.8288 96.3374C71.6241 95.8012 72.0313 95.6268 71.8281 95.0915C65.4358 95.101 54.8665 93.57 50.6359 99.6096C53.6391 100.459 58.0785 98.081 61.6788 97.9588C65.7426 97.7099 68.5651 98.988 72.5497 98.8367C72.9931 99.1228 73.3402 99.5274 73.7689 99.8317C78.8758 100.44 81.9845 103.504 87.5588 103.534C87.8612 104.146 87.1129 104.499 87.5608 104.78C88.376 104.886 88.9362 104.837 89.8424 104.467C91.547 105.457 93.4093 106.256 95.0867 107.28C100.386 108.006 103.242 111.74 107.639 113.575C107.8 114.39 108.2 114.909 108.774 115.211C109.321 115.13 110.034 114.846 110.36 115.04C112.298 118.599 116.428 119.456 119.697 121.373C120.05 122.126 120.721 122.49 120.896 123.463C129.119 129.623 137.255 135.888 146.511 140.775C152.758 142.295 156.072 147.427 161.612 149.815L161.722 150.571C164.781 151.838 166.003 155.094 170.426 155.011C170.696 155.864 171.801 155.692 171.928 156.725C172.584 156.751 173.154 156.882 173.756 156.973C173.693 157.525 174.098 157.5 174.083 157.994C177.924 159.506 180.365 162.741 184.745 163.588C185.12 163.164 185.412 162.692 185.417 162.049C181.634 160.227 179.516 156.358 175.123 155.29Z" fill="#B1C7C7"/>
<path fill-rule="evenodd" clip-rule="evenodd" d="M167.253 76.2297C167.085 75.3948 166.696 74.8448 165.813 74.9315C165.8 75.1906 165.596 75.3313 165.391 75.4736C165.662 76.1751 166.191 76.5452 167.253 76.2297Z" fill="#B1C7C7"/>
<path fill-rule="evenodd" clip-rule="evenodd" d="M25.8543 104.592C24.8976 104.801 24.4772 105.342 24.5914 106.219C25.198 105.792 25.3197 105.065 25.8543 104.592Z" fill="#B1C7C7"/>
<path fill-rule="evenodd" clip-rule="evenodd" d="M174.082 171.181C172.308 169.318 169.904 168.241 167.292 167.419C166.049 162.319 159.446 162.346 157.023 158.117C156.086 158.084 155.487 157.633 155.071 156.956C154.069 156.764 153.057 156.586 152.273 156.123C151.136 154.73 149.67 153.74 148.063 152.925C147.634 151.187 146.124 150.791 145.26 149.593C144.643 149.643 144.102 149.599 143.334 149.833C142.707 148.461 140.769 148.713 140.575 146.805C134.76 145.179 131.264 140.676 126.429 137.833C122.641 134.169 117.813 131.797 114.424 127.638C114.024 127.418 113.406 127.468 112.95 127.317C112.634 126.573 111.675 126.629 111.625 125.556C110.605 125.448 109.868 124.988 109.152 124.502C108.995 124.159 108.802 123.86 108.804 123.322C104.993 120.521 100.866 118.117 96.0498 116.566C93.5865 113.468 89.8042 112.011 86.8245 109.551L86.6261 108.185C82.0553 105.19 76.8375 102.061 70.388 101.989C69.7586 100.438 66.8646 101.7 64.843 101.88C64.7914 101.406 64.527 101.197 64.3425 100.889C56.2121 100.952 47.9336 101.178 42.2828 106.21C41.8719 106.246 41.5999 106.104 41.0511 106.308C40.4923 106.901 40.0119 107.54 39.1474 107.951C32.3509 110.286 28.872 114.597 23.0582 117.518C23.3888 119.702 20.4373 119.935 21.4681 122.536C25.0573 120.001 27.6075 116.849 31.1504 114.288C35.5102 112.023 41.218 109.37 45.5556 106.632C48.388 105.807 50.7943 104.018 54.0171 103.483C57.6022 102.887 60.9264 104.203 64.2204 103.728C66.5828 104.978 70.8641 103.847 72.7164 105.732C73.3341 105.682 73.8752 105.726 74.6417 105.492C75.8698 107.73 80.403 105.871 80.8672 109.058C81.7808 109.717 83.2609 109.671 84.0992 110.426C84.341 110.781 84.6283 111.084 84.6435 111.719C89.6288 113.659 92.1835 118.612 97.7693 119.807C100.021 122.39 103.051 124.008 106.254 125.411C106.95 127.055 108.528 127.604 109.9 128.412C112.138 130.773 115.044 132.305 117.539 134.346C121.904 139.087 128.572 140.968 132.623 146.097C133.911 146.529 134.914 147.317 136.094 147.884C136.142 148.242 136.458 148.27 136.399 148.76C142.707 152.043 147.741 156.909 153.65 160.689C154.361 160.522 154.774 160.729 155.578 160.448C157.377 165.086 163.389 164.494 164.762 169.659C167.022 169.964 168.634 171.069 169.839 172.679C174.861 172.724 175.922 177.678 180.618 178.123C181.286 179.208 182.317 179.84 182.987 180.919C183.909 180.773 184.708 180.556 185.195 180.152C185.278 177.959 183.511 178.058 182.91 176.713C179.053 176.003 178.002 171.813 174.082 171.181Z" fill="#B1C7C7"/>
<path fill-rule="evenodd" clip-rule="evenodd" d="M178.417 134.125C178.877 133.168 179.938 134.126 180.203 132.985C178.557 132.62 178.072 132.398 176.477 132.98C176.441 131.962 176 131.446 175.785 130.651C175.623 130.379 174.83 130.884 174.708 130.563C174.676 129.837 173.951 129.963 173.823 129.355C168.768 128.985 167.477 123.975 162.81 123.125C158.463 119.409 152.894 117.194 149.682 112.079C145.09 111.137 143.288 106.755 138.367 106.22C138.477 104.905 137.351 105.115 137.329 103.962C136.798 103.795 136.119 103.804 135.671 103.531C131.522 98.9804 126.091 96.0086 122.174 91.1713C121.67 91.1105 120.946 90.6904 120.408 91.2251C119.963 92.7207 121.08 93.814 122.071 94.1272C127.194 100.072 132.172 106.196 139.837 109.007C145.659 113.737 151.963 117.872 156.87 123.73C161.894 124.611 165.251 127.544 168.808 130.233C169.458 130.256 170.042 130.362 170.616 130.478C171.163 132.54 174.055 132.17 174.175 134.225C175.272 134.936 177.184 134.644 177.946 135.768C177.714 136.367 178.006 137.01 178.357 137.381C179.128 137.343 179.326 136.513 179.864 136.762C180.332 137.187 180.084 138.494 180.535 138.941C181.986 138.028 182.617 138.966 183.784 138.118C183.695 135.869 181.646 136.039 180.958 134.529C180.391 134.047 178.838 134.785 178.417 134.125Z" fill="#B1C7C7"/>
<path fill-rule="evenodd" clip-rule="evenodd" d="M57.1245 105.815C55.623 104.442 48.6078 104.743 48.083 107.676C50.3341 108.764 54.5462 106.903 57.1245 105.815Z" fill="#B1C7C7"/>
<path fill-rule="evenodd" clip-rule="evenodd" d="M41.2064 111.621C39.4528 111.978 37.9197 112.486 37.8264 113.994C39.0497 113.893 40.8415 112.853 41.2064 111.621Z" fill="#B1C7C7"/>
<path fill-rule="evenodd" clip-rule="evenodd" d="M177.278 181.383C174.042 176.798 166.686 177.309 163.958 172.098C161.038 171.596 160.461 168.192 156.983 168.38C154.596 165.132 151.367 162.924 148.028 160.852C145.978 157.724 142.943 155.813 139.423 154.501C139.178 154.148 138.892 153.846 138.878 153.208C133.569 150.292 129.029 146.427 124.469 142.586C122.145 142.181 120.059 141.479 119.168 139.304C117.897 138.967 116.977 138.197 116.038 137.449L115.906 136.54C112.134 134.704 110.199 130.599 105.629 129.753C101.955 126.606 97.2698 124.708 93.395 121.805C93.1955 121.458 93.0509 121.041 93.0236 120.477C91.1451 119.88 89.247 119.304 87.8538 118.105C87.5727 117.693 87.7464 117.43 87.4835 116.776C84.472 114.038 81.0631 112.343 76.7956 110.854C71.8727 109.136 68.1854 107.037 61.9897 107.342C58.4126 108.13 55.6844 109.424 52.6237 110.52C51.496 110.296 50.6738 110.743 49.5011 111.163C47.9425 110.631 45.7044 111.823 43.8832 111.85C40.7974 114.085 37.2993 116.077 34.8714 118.704C31.0797 120.519 26.7667 122.027 24.1023 124.512C23.6025 125.418 22.6869 126.076 21.9375 126.833C21.7576 128.492 19.1824 129.436 19.8844 131.16C20.7572 131.262 21.3959 130.147 22.378 129.865C23.4447 127.45 24.1071 124.793 28.745 124.494C29.3621 124.12 29.6704 123.564 30.3474 123.227C30.4497 123.756 31.1876 123.498 31.6488 123.583C34.5877 121.768 35.9832 119.04 40.7078 118.283C41.3918 117.581 41.806 116.718 43.3075 116.498C44.6593 112.819 52.7783 113.152 56.6169 110.946C57.2332 110.842 57.4563 111.222 58.0723 111.116C64.0668 108.784 70.3052 110.597 73.5909 113.388C80.5311 115.357 86.4248 118.622 90.5149 124.117C91.1882 124.001 91.3915 124.465 92.1422 124.25C97.0558 127.894 103.324 129.86 107.245 134.73C108.329 135.002 109.04 135.731 110.265 135.827C114.686 139.66 118.695 144.006 124.454 146.181C130.201 152.609 138.549 155.821 144.299 162.244C147.956 163.864 149.569 168.011 153.688 169.058C153.721 169.614 154.116 169.723 154.21 170.2C155.345 170.467 156.279 170.982 157.252 171.449C157.328 172.129 157.817 172.301 157.992 172.859C158.476 173.179 158.837 172.722 159.446 173.027C160.374 174.442 162.514 174.359 162.969 176.362C167.826 179.659 174.155 181.132 177.765 185.968C177.959 186.264 178.864 185.683 179.024 186.021C178.461 186.794 178.011 187.886 179.029 188.52C181.704 187.301 182.392 189.488 183.783 189.26C182.774 186.369 181.063 183.503 178.906 181.516C178.424 181.396 177.727 181.542 177.278 181.383Z" fill="#B1C7C7"/>
<path fill-rule="evenodd" clip-rule="evenodd" d="M35.1604 114.872C32.4324 114.334 30.5088 116.841 29.131 118.238C32.0623 118.124 34.2463 116.52 35.1604 114.872Z" fill="#B1C7C7"/>
<path fill-rule="evenodd" clip-rule="evenodd" d="M173.701 88.592C173.658 87.7581 173.128 87.3975 172.494 87.1422C172.464 87.3875 171.987 87.44 171.813 87.6228C171.905 88.4745 172.595 88.7386 173.701 88.592Z" fill="#B1C7C7"/>
<path fill-rule="evenodd" clip-rule="evenodd" d="M53.4315 115.87C61.5767 115.384 69.5536 115.143 76.4566 117.101C73.2402 112.926 65.1108 113.492 58.2878 113.377C55.3174 114.099 44.5851 115.175 44.8501 117.47C45.0837 119.485 52.3901 116.816 53.4315 115.87Z" fill="#B1C7C7"/>
<path fill-rule="evenodd" clip-rule="evenodd" d="M174.777 163.01C173.82 161.507 172.73 160.165 170.597 160.118C169.126 158.353 167.396 156.911 164.566 156.826C163.787 155.521 162.225 155.185 161.603 153.684C154.76 149.906 149.937 143.63 141.903 141.323C141.517 139.053 138.864 139.59 138.308 137.531C131.525 135.111 126.129 130.974 121.565 125.812C119.799 125.318 117.454 124.961 117.537 122.734C115.502 121.608 113.628 120.283 111.333 119.476C109.315 116.002 104.284 116.25 102.6 112.363C100.86 111.887 99.2176 111.293 98.1378 109.999C93.8921 110.289 92.26 106.405 88.2176 107.038C88.2366 107.233 88.0265 107.294 88.1101 107.53C89.8498 110.812 94.6055 110.366 96.3417 113.652C102.04 115.143 106.026 118.755 110.274 122.04C110.694 122.116 111.336 121.921 111.708 122.057C111.667 122.646 112.099 122.647 112.059 123.235C120.07 128.853 127.14 135.636 136.16 140.004C136.193 140.56 136.588 140.669 136.685 141.147C138.835 141.774 140.428 143.088 141.844 144.619C145.217 145.228 146.557 148.345 149.833 149.071C153.659 153.294 158.693 156.029 163.312 159.273C165.873 159.39 167.707 160.407 168.774 162.369C172.065 163.078 173.328 166.293 176.762 166.821C176.989 166.959 177.039 167.318 177.068 167.697C180.777 168.426 182.106 172.097 185.104 173.704C185.438 173.485 185.747 173.251 186.081 173.032C184.736 171.686 184.648 170.286 184.182 168.579C181.308 166.397 178.553 164.072 174.777 163.01Z" fill="#B1C7C7"/>
<path fill-rule="evenodd" clip-rule="evenodd" d="M44.8242 116.82L43.8531 117.02L43.9815 117.904C44.7561 117.851 45.0351 117.49 44.8242 116.82Z" fill="#B1C7C7"/>
<path fill-rule="evenodd" clip-rule="evenodd" d="M169.7 184.336C169.257 181.431 166.027 181.971 164.335 180.609C163.179 179.122 161.723 178.007 160.079 177.123C159.769 175.365 157.834 175.613 157.319 174.107C153.796 173.282 151.756 170.627 149.503 168.236C145.406 165.442 141.197 162.788 137.819 159.111C135.31 158.579 134.771 155.617 132.692 154.556C132.1 154.455 131.455 154.418 130.72 154.495C128.455 151.46 124.9 150.022 122.661 146.96C119.137 146.136 117.869 142.526 114.388 141.651C113.18 139.574 111.657 137.884 108.678 137.996C107.074 136.467 105.437 134.978 102.99 134.492C102.605 132.945 100.849 133.09 100.426 131.591C99.9689 131.323 99.0161 131.665 98.6045 131.343C97.4711 128.527 92.0644 129.463 92.3059 126.094C90.7894 124.866 87.3946 125.647 87.2473 123.24C82.8417 123.031 81.3326 119.242 76.9826 118.965C75.0364 116.273 70.1382 115.761 66.1812 117.136C58.8757 115.881 48.3944 118.565 40.9474 120.46C38.7734 121.571 37.041 122.944 34.2742 123.704C31.9702 126.872 24.632 129.415 23.0388 132.407C21.3767 132.944 20.9718 134.227 19.4655 134.856C19.1872 137.358 17.7437 139.107 16.681 141.506C19.622 140.204 20.3026 137.566 21.874 135.451C27.0406 132.01 33.4232 129.285 37.3355 125.1C39.1425 124.771 40.6429 123.231 43.2719 122.943C46.2433 120.805 51.1132 120.371 54.9975 120.062C56.6485 118.807 60.6105 118.346 62.0004 119.088C68.626 119.173 74.2878 120.45 79.2889 122.541C84.3675 126.082 89.0297 130.139 95.4825 131.986C97.1021 133.97 99.9986 134.378 101.345 136.701C111.156 141.003 118.118 148.821 126.945 154.337C127.103 154.678 127.296 154.975 127.296 155.511C128.885 155.987 130.22 156.778 131.679 157.412C134.524 162.228 140.127 163.636 142.782 168.686C147.484 171.441 151.359 175.223 156.092 177.943C159.214 180.45 161.503 183.989 166.316 184.41C166.511 185.657 167.821 185.528 167.775 187.069C173.294 187.63 175.045 192.844 180.645 193.302C179.41 189.298 174.806 189.448 173.603 185.402C172.026 185.004 170.873 185.185 169.7 184.336Z" fill="#B1C7C7"/>
<path fill-rule="evenodd" clip-rule="evenodd" d="M28.5296 126.918C27.5566 125.358 25.7733 127.175 26.0164 128.848C27.1792 129.467 28.5857 128.27 28.5296 126.918Z" fill="#B1C7C7"/>
<path fill-rule="evenodd" clip-rule="evenodd" d="M77.2461 116.126C77.4499 116.688 78.6496 117.529 80.1929 117.181C79.8567 116.224 78.4464 115.653 77.2461 116.126Z" fill="#B1C7C7"/>
<path fill-rule="evenodd" clip-rule="evenodd" d="M79.402 123.682C78.2096 124.129 77.9299 123.486 77.0479 123.56C73.6946 120.831 67.6631 121.303 62.1391 121.172C61.545 121.132 61.4613 120.483 60.9417 120.357C52.4408 121.748 45.6795 124.412 39.924 126.655C35.0983 131.118 27.1154 133.788 22.5733 138.414C21.9032 141.053 17.4024 142.226 18.1702 145.233C22.8507 141.228 27.7648 137.354 33.0313 133.682C35.0125 133.591 34.8769 132.298 36.962 132.266C38.3871 130.543 41.2618 128.962 44.1469 128.514C47.6017 126.009 53.5039 124.204 59.0368 123.326C59.8122 123.377 60.0236 124.103 60.7789 124.182C64.1694 123.633 69.9622 123.068 72.0709 125.192C76.4981 124.85 78.7167 127.149 83.4083 126.496C83.1195 124.305 80.145 125.328 79.402 123.682Z" fill="#B1C7C7"/>
<path fill-rule="evenodd" clip-rule="evenodd" d="M81.2837 117.806C81.028 118.557 82.2708 119.142 83.2647 119.096C83.0028 118.191 82.4099 117.681 81.2837 117.806Z" fill="#B1C7C7"/>
<path fill-rule="evenodd" clip-rule="evenodd" d="M115.284 148.514C114.025 146.99 112.671 145.581 110.524 145.153C109.16 143.46 106.838 142.95 105.051 141.782C103.579 138.736 98.6817 138.995 98.2329 135.276C96.0043 135.48 95.1654 133.971 92.7644 134.387C90.4645 131.781 86.6585 131.028 83.8094 129.099C79.0719 128.61 74.704 127.662 70.7544 126.203C65.9808 126.746 60.8805 125.314 56.3215 127.314C51.871 125.432 48.8517 130.259 43.2742 130.62C38.4334 135.193 28.8347 136.955 26.1838 142.821C30.9709 140.052 36.2472 137.572 41.0343 134.802C45.9036 132.571 51.3042 130.774 56.5839 129.12C70.1769 127.06 80.5785 132.515 91.0391 135.982C91.7507 137.766 93.1739 138.676 95.4935 138.477C101.17 143.728 109.42 145.803 114.059 152.332C115.729 152.994 117.594 153.417 118.385 155.163C118.908 155.288 119.568 155.243 120.178 155.26C123.263 159.894 128.603 162.491 132.601 166.037C134.451 167.679 135.46 169.967 138.099 170.797C141.229 175.695 147.046 177.277 150.24 182.099C151.259 182.558 152.123 183.208 153.289 183.487C153.84 184.554 153.56 185.143 153.833 186.01C154.509 186.219 154.705 186.328 155.606 185.956C158.273 189.472 163.504 189.824 166.118 193.405C166.85 193.807 167.622 194.155 168.714 194.111C168.272 195.705 170.561 195.915 171.461 195.872C172.318 198.447 176.101 198.415 178.532 197.983C178.319 196.528 176.833 196.645 176.387 195.479C175.803 195.666 175.41 195.618 174.983 195.613C169.316 191.89 164.525 187.087 158.045 184.368C155.801 180.73 151.452 178.789 149.149 175.811C148.435 175.979 147.807 176.045 147.376 175.865C146.769 175.406 147.421 174.771 147.309 174.174C144.34 173.634 143.956 169.906 140.624 169.812C140.085 168.242 137.649 166.057 135.517 165.282C135.85 163.276 132.368 163.214 132.03 160.882C131.612 160.631 130.911 160.724 130.387 160.601C129.049 159.232 127.346 158.314 125.801 157.203C124.985 154.629 120.987 155.128 120.973 152.149C117.983 152.286 118.739 147.805 115.284 148.514Z" fill="#B1C7C7"/>
<path fill-rule="evenodd" clip-rule="evenodd" d="M170.095 200.873C166.557 196.194 159.286 196.144 156.625 190.377C152.234 189.916 151.23 185.259 147.344 184.172C144.06 179.717 139.541 176.788 135.28 173.543C132.546 168.285 126.277 167.409 123.626 162.048C122.871 162.149 122.324 161.995 121.958 161.612C117.632 155.942 110.89 153.267 105.493 148.923C105.34 148.465 106.034 148.4 105.558 148.129C103.424 146.838 100.719 146.253 98.9672 144.491C98.3427 144.667 97.8368 144.698 97.3858 144.659C95.2021 140.397 89.0413 139.658 85.6536 136.305C82.2955 137.226 81.8859 132.998 77.7038 134.351C76.8974 134.098 76.3815 133.484 75.7294 133.039C69.4539 133.158 62.6528 129.312 56.4368 132.796C54.9127 131.812 52.3972 134.05 50.3123 133.589C48.6148 134.705 46.2636 135.43 43.52 135.924C41.8239 138.285 36.9739 138.774 34.1999 140.496C33.2376 142.372 29.8715 142.818 27.7566 144.008C27.1853 144.119 26.8572 143.929 26.1781 144.177C21.8916 146.339 19.089 149.383 17.494 153.145C18.3773 153.671 17.3445 154.193 17.7143 154.661C20.5918 152.49 22.8214 148.741 25.9429 146.255C26.512 146.146 26.6676 146.549 27.3731 146.272C31.9511 142.914 38.494 142.137 43.2906 139.249C43.8023 139.331 44.5099 139.169 45.215 139.009C45.5032 138.303 46.1289 137.797 46.9452 137.404C47.3188 137.477 47.6756 137.573 48.0489 137.645C53.0556 134.254 60.6831 134.53 65.9252 134.278C68.9698 135.573 72.9236 135.741 76.712 136.116C79.7882 137.966 82.9876 139.666 86.962 140.407C89.2998 142.756 92.3586 144.211 95.5495 145.506C95.9071 147.849 98.6552 148.035 99.1735 149.599C99.928 149.797 100.795 149.856 101.406 150.233C101.919 150.79 102.265 151.554 102.904 151.954C103.825 152.063 104.631 152.319 105.331 152.703C117.933 161.828 129.51 172.227 141.515 182.093C144.064 186.702 150.544 187.338 152.127 192.553C154.479 193.277 155.808 195.265 158.003 196.183C159.389 198.872 162.87 200.204 166.047 201.238C167.787 203.553 170.963 204.093 173.592 205.305C173.643 205.779 173.91 205.985 174.093 206.295C175.059 206.467 175.793 206.929 177.017 206.786C174.79 204.715 173.545 201.428 170.095 200.873Z" fill="#B1C7C7"/>
<path fill-rule="evenodd" clip-rule="evenodd" d="M160.185 202.633C158.166 199.829 155.234 198.161 152.191 196.629C148.579 190.436 142.008 187.915 137.088 183.347C135.35 180.97 133.697 178.491 130.588 177.816C130.013 175.905 127.871 175.938 127.658 173.58C122.84 170.731 118.945 166.737 115.047 162.75C113.147 162.126 111.831 160.777 110.627 159.289C106.578 157.456 103.464 154.464 99.3469 152.713C99.3116 151.575 97.4067 151.345 97.5236 149.966C96.7941 149.796 95.946 149.778 95.4674 149.298C95.4334 149.045 95.9344 149.113 95.9414 148.887C90.9237 144.799 84.1759 142.854 79.0094 138.947C75.5073 137.508 70.7592 137.615 66.919 136.598C66.1772 136.572 66.2911 137.054 65.7527 137.149C64.9241 136.187 63.1968 135.663 61.3841 136.487C59.9611 135.427 55.4806 136.498 53.9066 137.715C48.5821 138.468 43.0735 142.111 37.6025 144.35C36.9885 144.335 36.7559 143.849 35.9588 144.063C29.505 147.193 24.3726 150.767 20.358 155.548C19.8123 158.8 15.4764 161.196 16.2937 164.346C22.5136 159.323 25.7769 151.343 34.8643 147.566C35.3702 147.174 35.6701 146.662 35.8983 146.104C39.1425 145.851 42.742 145.475 44.6046 143.532C48.303 143.098 50.8276 140.778 54.3874 139.8C55.5536 140.373 56.8488 139.549 58.2347 139.322C63.233 138.497 71.5778 139.778 74.563 141.423C76.495 142.489 79.2562 142.693 81.4655 143.593C83.4379 144.397 84.6686 146.346 86.4252 147.099C90.7314 148.948 94.492 151.5 97.5361 154.959C98.2488 154.729 98.5411 155.024 99.1357 154.941C99.8911 155.911 100.995 156.454 102.254 156.798C103.174 158.818 105.318 159.317 107.042 160.339C109.599 162.591 111.995 165.048 115.38 166.271C119.861 172.7 126.763 176.121 131.27 182.515C132.272 182.524 133.284 182.519 133.845 183.078C135.163 186.987 138.468 188.432 140.568 191.371C142.471 190.918 143.324 191.769 143.686 193.228C145.491 193.209 145.896 195.327 147.928 195.476C147.782 198.33 150.517 199.03 152.48 199.848C153.384 201.828 155.054 202.857 157.548 202.863C158.019 204.683 159.237 204.943 159.827 206.297C160.538 206.352 160.107 205.725 160.819 205.78C161.78 206.26 162.886 206.554 164.302 206.468C165.43 208.466 167.716 209.031 169.177 210.617C170.821 210.366 171.154 211.743 172.403 211.981C172.481 211.278 172.445 210.197 172.765 209.566C168.147 207.781 166.006 202.921 160.185 202.633Z" fill="#B1C7C7"/>
<path fill-rule="evenodd" clip-rule="evenodd" d="M171.874 216.254C170.813 214.542 168.337 214.573 167.732 212.3C165.767 210.639 161.839 211.388 160.777 208.614C157.976 207.271 156.272 204.576 153.258 203.495C153.311 203.113 153.406 202.758 153.255 202.255C146.676 200.178 144.174 193.082 137.543 191.069C137.34 190.537 137.745 190.361 137.541 189.828C133.911 187.907 131.501 184.488 128.976 181.204C125.098 180.355 124.159 175.892 120.695 174.535C120.697 174.002 120.507 173.704 120.349 173.367C119.798 173.394 119.202 173.476 118.747 173.387C117.08 170.079 113.493 168.3 111.741 165.68C107.847 162.487 103.364 160.018 98.9561 157.457C98.6892 157.313 98.6893 156.838 98.63 156.439C92.7855 153.281 87.9072 148.932 82.0965 145.733L80.3641 146.089C77.3246 144.386 74.8178 142.029 70.3339 142.106C67.8674 140.942 65.0116 140.256 60.7631 141.285C58.01 140.372 54.7338 142.878 51.826 143.591C46.4043 144.991 41.0285 147.596 35.9425 149.651C35.2871 150.274 34.8676 151.038 34.0841 151.584C33.4165 151.875 33.4972 151.241 32.827 151.533C30.5867 154.022 27.9563 156.279 25.2828 158.512C22.8049 162.24 20.0024 165.774 16.8322 169.091L16.9853 170.145C16.6206 170.133 16.5799 169.761 16.2713 170.136C16.5425 171.133 16.1465 171.848 16.7725 172.36C18.3293 172.222 18.758 170.35 20.3195 169.768C20.512 168.321 21.8143 167.529 22.891 166.603C25.2027 161.403 30.7961 158.136 34.7802 153.923C37.8083 151.531 41.4908 149.524 46.8322 148.495C50.2026 145.97 56.1726 144.93 61.1131 143.694C65.9655 143.518 69.9419 144.423 73.8459 145.415C78.0838 148.422 83.6547 149.788 88.2321 152.377C95.1332 158.909 103.826 163.235 111.032 169.391C116.415 176.195 123.16 181.323 129.461 186.996L129.614 188.05C134.998 191.716 139.271 196.749 145.221 199.722C145.974 203.291 150.143 202.655 150.967 206.138C152.038 206.773 152.83 207.75 154.562 207.569C155.16 209.434 157.067 209.692 158.549 210.468C158.534 211.849 159.447 212.083 160.111 212.628C163.872 212.001 164.84 215.633 168.126 215.01C168.641 215.962 170.486 216.684 171.832 217.193C171.892 216.907 171.495 216.352 171.874 216.254Z" fill="#B1C7C7"/>
<path fill-rule="evenodd" clip-rule="evenodd" d="M56.3768 147.408C55.8434 147.533 55.5233 147.397 55.1218 147.359C51.6152 149.266 46.6294 150.084 43.181 152.272C41.7742 151.873 40.8151 153.331 39.2868 153.688C38.6337 156.126 35.7592 157.27 33.2274 158.614C29.6784 161.775 25.8491 164.772 23.8377 168.829C23.2042 168.869 23.0254 169.175 22.6694 169.377C21.0967 172.749 17.5273 175.477 17.5198 179.332C21.9557 176.54 22.8019 170.966 27.5809 168.826C27.7938 167.766 27.9303 166.666 28.9665 166.087C29.5836 166.035 30.1238 166.076 30.8916 165.845C35.7244 160.791 40.4176 154.94 48.9127 152.472C53.4912 150.214 58.428 149.416 64.1009 147.811C68.2352 147.253 71.61 150.294 75.4157 148.397C71.2949 145.975 63.0096 143.712 56.3768 147.408Z" fill="#B1C7C7"/>
<path fill-rule="evenodd" clip-rule="evenodd" d="M16.8986 155.391C17.172 155.336 17.1442 155.843 17.5002 155.636C17.4503 155.278 17.844 155.331 17.672 154.861C17.0289 154.701 16.6993 155.046 15.8558 155.05C15.9458 155.807 16.2523 156.002 16.0905 156.665C17.1376 156.694 16.5193 155.685 16.8986 155.391Z" fill="#B1C7C7"/>
<path fill-rule="evenodd" clip-rule="evenodd" d="M47.003 159.712C49.3446 156.609 56.3766 156.736 60.0375 154.214C61.8065 153.863 63.3142 154.036 64.9425 153.362C67.6226 153.401 69.4768 154.456 72.1194 154.541C76.3922 153.633 79.5199 154.134 81.6538 155.862C87.7495 156.052 89.3799 162.674 95.9674 161.668C94.5949 157.632 89.7308 157.899 87.7564 154.605C83.6515 152.862 79.7671 150.848 73.5105 151.754C66.3111 148.797 56.9757 153.143 48.0005 155.442C47.3024 156.324 46.3704 157.072 45.2783 157.722C44.6901 157.969 44.5745 157.634 44.0353 157.822C41.3493 159.245 39.5945 161.216 37.0199 162.705C35.8378 164.921 33.8198 166.646 31.3356 168.095C30.32 169.207 30.1083 170.792 28.0254 171.278C27.4943 172.259 27.8656 173.774 26.287 174.136C25.5942 174.271 26.1342 172.89 25.2603 173.254C24.0914 174.113 24.9104 174.505 25.3947 175.415C24.9024 177.667 22.0695 178.541 21.6946 180.865C21.1105 181.112 20.9174 180.732 20.6491 181.08C20.6982 183.566 18.63 185.527 18.7171 187.574C20.4316 187.29 20.3708 185.958 21.0468 185.062C25.5875 182.513 25.8485 177.441 30.3435 174.863C30.6758 174.137 29.8672 174.12 29.9268 173.23C37.1979 169.656 39.8213 163.339 47.003 159.712Z" fill="#B1C7C7"/>
<path fill-rule="evenodd" clip-rule="evenodd" d="M169.006 223.481C167.489 223.329 165.623 223.608 164.919 222.458C160.107 222.976 158.261 219.852 154.263 219.372C154.039 219.054 153.851 218.692 153.742 218.235C146.745 218.712 142.265 216.097 138.43 212.692C138.298 212.108 138.979 211.999 138.777 211.377C138.311 211.059 137.498 211.168 136.776 211.169C135.197 209.138 132.781 208.135 131.357 205.915C130.036 205.76 129.248 204.951 128.726 203.816C126.689 202.586 125.079 200.832 123.544 198.982C122.488 195.185 118.633 194.827 118.319 190.116C118.445 189.364 119.01 188.868 118.902 187.978C118.253 187.058 117.301 186.509 115.685 186.776C115.318 186.456 115.064 185.998 114.641 185.75L114.466 184.543C113.136 183.035 111.822 181.509 109.201 181.588C103.511 176.727 97.9759 171.68 92.2067 166.916C88.1774 165.408 84.7802 163.123 80.3961 162.049C78.2594 159.995 74.6077 159.799 72.8919 157.224C69.2053 156.834 65.9426 155.925 62.1076 155.718C60.0365 156.937 56.8883 157.524 54.0673 158.305C53.4921 158.702 52.9652 159.127 52.2647 159.452C46.8004 161.437 43.4629 164.673 39.8623 167.752C35.7117 169.131 35.7486 172.969 31.891 174.518C29.492 178.258 26.4652 181.629 24.5551 185.657C23.92 185.696 23.7406 186.005 23.3831 186.21C23.6314 188.103 21.959 188.868 21.2789 190.215C22.5635 190.888 20.6218 191.491 21.4336 192.511C23.9804 191.663 23.8784 189.261 25.0136 187.582L26.2308 187.331C28.176 184.381 31.1827 182.058 31.9176 178.395C33.7622 176.628 35.4992 174.8 37.2153 172.956C38.113 172.748 38.558 172.273 39.2148 171.924C40.4038 168.299 45.7837 167.14 47.726 163.958C52.084 161.37 57.6035 161.161 61.6114 158.46C63.8451 158.323 65.135 159.345 67.5911 158.938C68.1393 159.33 69.022 159.313 69.5032 159.786C70.7534 159.615 71.6226 159.91 72.5915 160.082C78.5274 164.937 87.64 165.89 92.7328 171.778C93.4538 172.137 94.263 172.386 95.017 172.706C99.6215 177.714 105.527 181.126 109.902 186.414C110.396 186.754 111.277 186.623 111.621 187.147C115.771 194.252 121.33 199.629 126.162 205.898C129.675 208.691 132.025 212.915 136.389 214.664C137.823 216.16 139.387 217.498 141.696 217.92C143.35 220.391 146.843 220.606 150.352 220.797C153.881 222.399 157.541 223.077 161.442 224.416C162.008 224.333 162.14 223.998 162.812 223.979C163.805 223.944 163.996 224.894 164.768 225.129C165.659 224.414 168.185 224.665 169.335 224.501C169.351 224.007 168.945 224.032 169.006 223.481Z" fill="#B1C7C7"/>
<path fill-rule="evenodd" clip-rule="evenodd" d="M165.102 218.535C164.112 217.67 162.979 216.983 162.057 216.035C159.408 216.325 158.132 214.918 156.252 214.259C155.977 214.107 155.881 213.449 156.098 213.196C154.061 212.34 151.421 211.382 151.028 209.079C150.432 208.742 149.312 209.052 148.964 208.409C147.783 204.496 143.227 204.761 142.278 200.56C137.537 198.603 134.682 194.312 130.442 191.737C127.937 186.834 122.161 185.982 119.753 180.958C113.814 178.572 112.425 170.561 106.453 168.214C106.503 167.614 106.137 167.532 106.103 167.036C102.797 165.931 100.112 164.058 97.0577 162.642C87.4976 163.841 85.184 156.076 76.7543 155.876C76.1522 155.22 74.889 154.52 73.7795 155.081C73.6484 155.143 73.5933 155.25 73.65 155.42C77.3634 158.884 82.394 160.722 87.6963 162.225C88.5305 164.295 91.2019 164.094 92.7837 165.242C100.296 163.711 102.557 168.677 106.419 171.662C108.176 174.564 111.585 175.419 112.388 179.504C114.431 182.048 117.133 183.781 119.569 185.844L119.767 187.21C123.836 189.818 127.9 192.435 130.779 196.516C137.148 200.456 142.07 206.19 148.489 210.07C148.219 210.142 147.884 210.175 148.011 210.482C149.966 212.782 153.065 213.665 154.606 216.474C160.505 216.821 163.686 221.481 169.757 221.017C169.727 218.99 166.561 219.385 165.102 218.535Z" fill="#B1C7C7"/>
<path fill-rule="evenodd" clip-rule="evenodd" d="M147.858 223.573C145.063 223.994 143.872 222.43 141.288 222.588C141.531 221.731 141.05 221.388 140.527 221.031C139.547 220.985 139.25 221.835 138.641 221.574C138.947 220.67 139.064 220.042 138.333 219.457C137.748 219.802 137.632 220.425 136.708 220.569C135.372 217.343 132.153 216.438 130.97 213.024C128.351 212.988 127.858 210.324 125.975 209.375C126.046 209.012 126.387 208.509 125.997 208.28C121.767 205.651 119.007 201.208 115.222 198.03C114.9 197.594 114.874 196.794 114.764 196.098C111.204 192.046 107.514 188.158 104.222 183.773C97.6745 180.916 94.7778 173.548 88.067 170.89C88.1875 170.684 88.2381 170.436 88.1317 170.098C87.283 170.193 86.5606 170.133 85.8116 170.108C80.3981 166.978 75.2581 163.512 67.5004 163.278C66.7321 162.919 65.9344 162.597 65.1996 162.194C53.9648 163.114 44.0216 168.417 39.6219 175.408C30.8269 182.558 26.4743 192.338 20.8993 201.393L21.0752 202.604C20.112 202.983 19.9736 204.496 20.5816 205.355C22.4862 204.408 21.9611 202.022 23.8904 201.09C23.966 199.704 24.7249 198.724 24.9669 197.439C27.5314 195.822 28.5684 193.302 29.7231 190.849C33.4224 188.2 35.0847 184.34 37.1818 180.742C43.2991 174.541 49.0702 168.138 60.2403 164.929C61.4223 164.929 62.4943 164.858 63.7302 164.367C64.3851 164.449 64.7989 164.832 65.271 165.141C67.2156 164.818 68.1222 165.781 69.9759 165.575C78.9064 169.832 89.9736 171.451 94.851 180.714C98.5916 183.71 102.423 186.591 105.234 190.735C105.744 190.997 106.292 191.214 106.926 191.321C110.749 196.178 114.139 201.57 118.944 205.212C123.368 210.158 127.437 215.543 132.328 219.914C132.363 222.319 135.364 222.579 136.369 224.379C139.952 223.525 140.358 226.593 144.047 225.605C145.334 227.348 147.711 227.744 150.728 227.347C153.233 230.855 159.478 229.747 164.068 230.679C164.088 229.993 164.701 229.671 164.368 229.058C158.544 227.625 152.386 226.608 147.858 223.573Z" fill="#B1C7C7"/>
<path fill-rule="evenodd" clip-rule="evenodd" d="M27.576 214.537C28.1405 211.147 29.5348 208.243 29.9123 204.742C31.2358 203.482 32.0523 201.395 31.6655 199.568C32.7199 198.119 33.97 196.785 34.0078 194.739C39.2786 189.538 39.7203 181.822 47.3289 178.025C48.4495 175.607 51.3844 173.663 55.0384 173.178C56.4037 172.508 56.9887 171.382 58.252 170.653C62.4263 169.561 64.6855 171.526 69.1162 170.28C72.1051 171.582 75.3773 172.538 79.1553 172.871C82.1617 174.744 85.1945 176.587 88.3539 178.274C89.185 179.209 89.8401 180.357 90.7481 181.196C91.7763 181.421 93.0082 181.809 94.1154 180.97C92.013 175.794 86.2473 175.117 82.4373 172.039C80.8883 172.225 79.9565 171.653 78.6123 171.585C74.4933 169.108 70.7896 168.929 64.9204 168.505C62.2217 168.309 60.222 167.697 57.7706 168.579C52.3424 170.529 47.1725 172.695 45.1344 176.458C41.3956 179.226 38.5833 182.537 36.3441 186.185C36.15 186.622 36.334 187.282 36.0205 187.65C35.6526 188.167 34.7222 188.358 34.2174 188.796C29.6724 196.504 27.176 206.446 25.4899 214.966C26.0649 215.011 27.0769 214.693 27.576 214.537Z" fill="#B1C7C7"/>
<path fill-rule="evenodd" clip-rule="evenodd" d="M150.256 233.446C150.047 231.3 148.288 230.026 146.497 230.932C145.067 230.252 143.98 229.149 142.411 228.641L141.024 228.927C138.633 227.347 136.048 226.008 132.683 225.635C131.599 224.825 131.365 222.963 130.07 222.415C129.771 218.363 125.968 218.651 125.106 215.296C123.934 214.598 123.187 213.369 122.19 212.451C120.268 209.575 118.739 206.208 115.403 205.082C114.752 206.467 116.012 207.998 116.368 209.268C118.199 211.123 119.709 213.377 121.223 215.625C123.21 217.327 127.112 219.394 126.815 222.145C123.598 220.034 119.303 219.262 118.204 214.525C117.74 214.383 117.127 214.425 116.878 214.015C116.006 211.54 114.705 209.474 113.737 207.147C115.416 202.803 110.371 201.04 108.119 199.224C107.295 194.863 104.541 192.895 101.74 190.986C98.7739 186.412 94.6685 183.25 89.307 181.648C87.682 179.714 85.9276 177.945 82.7008 177.998C80.407 176.477 77.8659 175.262 74.4276 175.161C73.644 174.994 73.3914 174.172 72.1892 174.525C72.158 174.145 72.11 173.788 71.8833 173.649C69.6879 173.621 67.5634 173.504 66.0227 172.664C59.3017 172.03 52.2252 175.716 48.9856 179.615C42.3817 183.326 40.8783 190.07 36.9836 195.393C37.1609 195.962 36.7823 196.199 37.009 196.796C31.8183 202.625 30.1863 210.969 29.4687 218.702C28.0709 222.066 27.9165 225.615 28.6074 229.995C29.0724 230.106 29.0632 229.281 29.281 229.699C30.1379 229.453 28.8516 229.457 28.9974 228.975C29.421 228.764 29.7982 228.527 29.9504 228.153C29.4915 218.621 34.1543 211.396 35.2677 203.26C37.4531 200.257 39.3434 197.074 40.4507 193.427C44.2802 188.297 49.1071 183.761 53.1493 178.758C55.6749 176.711 59.1306 174.548 63.2736 174.639C82.1128 177.949 96.9901 186.173 106.431 201.137C111.29 208.625 115.791 216.562 119.901 224.978C121.703 226.258 122.937 228.873 125.273 229.978C128.23 234.085 134.946 235.088 139.159 238.235C139.914 238.077 140.713 237.864 141.263 237.958C141.184 238.466 140.699 238.735 140.745 239.317C141.311 239.514 142.176 239.338 142.136 240.283C143.436 239.809 143.84 240.444 144.676 240.544C145.124 240.161 145.69 239.851 146.322 239.579C146.568 243.288 154.02 243.784 156.856 243.203C157.236 242.829 157.558 242.416 157.352 241.692C154.502 241.904 153.315 241.479 150.515 241.377C148.699 240.488 149.972 237.854 148.268 236.986C147.053 237.74 145.813 236.603 144.409 237.467C144.2 236.88 144.449 236.566 144.384 236.065C141.357 235.749 139.291 234.244 136.218 233.987C133.215 231.162 127.894 230.361 126.348 226.311C125.763 225.842 125.036 225.548 124.544 224.961C122.731 225.908 119.38 222.533 120.564 220.928C124.784 223.229 129.133 225.37 132.279 229.005C134.806 230.178 137.846 230.713 140.076 232.253C141.007 232.27 141.04 231.261 141.768 231.594C141.771 232.158 141.429 232.418 141.771 232.844C142.552 233.266 143.953 232.99 144.548 232.272C147.223 233.818 151.051 235.165 154.423 233.84C154.296 234.227 153.261 234.075 153.471 234.663C157.338 234.002 158.523 236.796 161.719 236.095C160.834 235.519 160.444 234.33 159.89 233.342C156.514 233.602 153.483 230.641 150.256 233.446Z" fill="#B1C7C7"/>
<path fill-rule="evenodd" clip-rule="evenodd" d="M111.638 181.185C112.339 178.055 108.011 176.798 106.403 174.761C105.278 173.226 104.259 171.56 102.892 170.327C102.364 170.142 101.696 170.134 101.063 170.077C99.8539 168.348 98.1937 167.176 96.0722 166.572C95.3578 166.658 94.8684 166.877 94.9421 167.43C96.1396 170.127 99.2546 170.459 100.59 172.989C104.773 175.101 106.817 179.855 111.638 181.185Z" fill="#B1C7C7"/>
<path fill-rule="evenodd" clip-rule="evenodd" d="M45.7308 195.255C48.8864 191.986 49.7365 187.35 53.9557 184.711C55.4863 180.753 61.6834 179.567 66.5837 177.611C66.7445 176.988 65.6668 176.543 64.9866 176.386C61.3892 176.959 58.6327 178.031 55.9876 179.17C53.2107 182.478 49.2242 185.071 47.2871 188.879C45.7406 189.577 44.8701 191.223 44.9707 192.462C43.1091 194.387 41.7819 196.631 41.5627 199.529C41.1626 199.706 40.807 199.908 40.2054 199.963C35.8569 206.346 34.0199 214.759 32.2668 222.246C32.6782 225.079 32.144 228.248 32.5483 231.504C33.0287 231.442 33.1382 231.841 33.346 232.115C35.5194 231.372 35.286 228.336 34.1748 226.823C35.3282 222.408 36.4708 217.264 36.9413 212.9C39.3265 208.853 39.0715 203.237 43.6539 200.495C43.6476 199.942 43.9954 199.596 43.7806 198.918C44.3801 198.447 44.6555 197.785 45.5212 197.472C45.5404 196.703 45.6783 196.004 45.7308 195.255Z" fill="#B1C7C7"/>
<path fill-rule="evenodd" clip-rule="evenodd" d="M18.9996 189.216C19.6701 188.652 19.315 187.297 18.0352 187.731C17.7625 188.456 17.9096 189.468 18.9996 189.216Z" fill="#B1C7C7"/>
<path fill-rule="evenodd" clip-rule="evenodd" d="M184.426 155.226C185.089 156.638 186.731 155.192 186.008 153.988C185.191 154.161 184.576 154.503 184.426 155.226Z" fill="#B1C7C7"/>
<path fill-rule="evenodd" clip-rule="evenodd" d="M44.8268 234.524C44.3689 233.897 43.9977 233.163 43.9274 232.06C44.8036 229.434 44.2527 225.975 46.3725 224.076C47.7701 214.765 49.115 203.953 52.2148 194.826C55.2428 192.215 56.3969 188.506 58.9902 185.64C62.5668 183.43 67.4022 181.736 72.1342 180.598C74.526 180.517 76.0927 181.452 79.1561 180.555C78.7337 179.645 77.6111 179.594 76.7918 179.17C72.7998 178.521 67.2249 178.157 63.5812 181.266C60.9352 181.16 59.7141 183.058 58.4207 184.199C58.2239 184.499 57.4368 184.455 57.2397 184.753C52.5885 188.908 49.7272 194.109 48.1065 200.035C46.9383 201.335 46.0143 202.78 46.6873 205.156C45.917 207.891 45.982 211.113 44.6578 213.522C44.8632 214.473 44.5722 215.133 44.8581 216.13C42.8049 220.421 42.9865 226.018 41.7614 230.791C43.5176 243.972 48.65 252.832 56.6343 258.739C50.8746 252.96 47.5158 244.239 44.2362 235.425C44.0088 234.877 45.0542 235.072 44.8268 234.524Z" fill="#B1C7C7"/>
<path fill-rule="evenodd" clip-rule="evenodd" d="M21.2247 193.178C19.7574 192.713 19.8593 194.631 19.9141 195.814C20.5651 195.682 21.2665 195.591 21.685 195.28C21.5221 194.594 21.5842 193.56 21.2247 193.178Z" fill="#B1C7C7"/>
<path fill-rule="evenodd" clip-rule="evenodd" d="M144.486 242.34C143.957 241.869 143.732 243.064 143.467 242.707C142.123 240.488 138.346 241.285 136.736 239.397C136.244 238.969 135.901 240.182 135.347 239.683C135.144 239.192 135.95 239.301 135.952 238.932L134.565 239.218C134.182 238.677 133.644 238.327 133.585 237.386C133.037 237.466 132.326 237.75 132 237.554C130.647 236.043 129.126 234.06 126.722 234.416C122.995 230.728 118.682 227.766 116.689 221.925C116.273 221.427 115.527 221.336 115.255 220.654C115.837 218.233 114.078 216.487 113.159 214.827C110.541 214.305 109.776 211.488 107.983 209.945C106.132 204.472 102.318 199.284 98.5102 195.146C98.0461 194.739 98.5166 194.109 98.1382 193.815C97.7225 193.135 96.5428 193.402 96.1822 192.652C95.8868 192.123 95.6569 191.512 95.5499 190.748C90.5172 186.586 86.3035 181.407 77.4789 181.947C75.9305 183.023 73.4177 182.851 72.036 182.598C64.8059 183.791 58.3299 185.931 56.8074 190.898C56.2061 191.095 55.914 191.477 55.5082 191.792C50.9927 200.294 49.8561 211.42 47.9062 221.843C50.3665 236.34 54.7769 249.557 63.5264 256.816C64.4222 259.351 66.3687 260.585 68.9593 261.018C62.8613 255.73 58.814 248.634 54.743 240.623C54.3426 237.793 53.4883 235.406 52.2518 233.311C50.7488 226.247 50.1326 218.686 52.4606 212.608C52.735 209.07 53.19 205.638 55.581 203.358C54.3603 200.612 55.8031 198.579 56.1704 196.35C56.4219 196.037 57.1717 196.019 57.7093 195.878C58.5575 190.642 61.3901 186.589 68.6594 185.171C69.3481 185.273 70.0268 185.389 70.8272 185.352C79.6626 182.292 83.9383 186.432 88.993 188.654C93.0666 192.869 97.1617 197.058 100.436 202.263C107.422 214.646 115.795 226.861 125.276 236.748C127.397 237.405 129.315 238.314 130.425 240.226C133.901 241.715 137.888 242.57 140.588 245.021C144.68 244.315 147.354 248.655 152.067 246.571C150.033 244.551 146.019 244.984 144.486 242.34Z" fill="#B1C7C7"/>
<path fill-rule="evenodd" clip-rule="evenodd" d="M66.3384 245.677C65.7664 243.291 64.4369 241.821 63.4928 239.883C63.3192 238.584 63.0176 237.209 63.1222 236.07C60.7026 232.581 61.0757 226.739 59.003 222.76C60.096 217.63 57.6236 212.769 59.1068 208.428C58.5512 207.034 57.9881 206.419 58.0049 204.609C59.7332 200.208 61.312 195.721 63.5872 191.637C65.3572 190.261 68.1771 189.487 69.4017 187.795C66.2468 184.899 62.577 190.3 60.3393 191.839C58.6428 195.842 55.4633 198.991 56.5478 204.597C54.7892 206.491 53.4793 208.641 53.1593 211.363C53.3902 214.944 51.7197 219.566 54.8512 221.749C56.4635 217.82 53.428 211.27 56.3874 208.521C57.3798 214.548 56.9952 220.004 56.5255 225.761C56.5928 226.448 57.6752 225.909 57.5842 226.787C56.8832 229.606 58.5949 233.436 59.9412 235.48C60.0036 238.339 61.9424 241.434 62.5603 244.743C62.9637 245.38 63.8221 245.467 64.2175 246.114C65.6044 253.456 71.6604 256.464 75.538 261.363C75.1895 261.954 74.4427 261.046 74.1223 261.654C75.7818 262.368 77.7001 262.77 79.4672 263.355C78.7199 261.697 76.1552 262.172 76.5549 259.597C76.1062 258.956 74.9069 259.224 74.4131 258.638C72.6315 254.933 68.8898 252.652 67.0855 249.568C71.5807 251.588 73.9722 256.154 78.2143 258.478C79.6003 259.702 80.8648 261.07 82.3874 262.131C83.1131 262.136 82.853 261.57 83.58 261.575C83.5346 261.963 82.9412 262.037 83.1818 262.59C85.2191 263.083 86.1009 264.975 88.614 264.892C83.6064 261.719 79.788 257.106 74.9695 253.702C72.8281 250.137 68.6288 249.061 66.3384 245.677Z" fill="#B1C7C7"/>
<path fill-rule="evenodd" clip-rule="evenodd" d="M66.798 236.268C69.3856 239.687 71.8003 244.215 73.9856 247.525C69.6291 246.256 67.1836 241.022 66.798 236.268Z" fill="#B1C7C7"/>
<path fill-rule="evenodd" clip-rule="evenodd" d="M140.83 247.874C138.166 247.723 135.66 247.374 134.574 245.268C131.745 245.259 130.143 243.189 129.048 241.578C127.493 241.84 126.793 241.038 125.414 241.081C125.484 240.043 124.434 240.389 124.459 239.409C120.658 238.76 119.944 234.292 116.441 233.273C115.443 229.216 113.377 226.48 110.561 224.674C107.723 220.215 104.978 215.644 101.578 211.883C96.478 203.684 93.1816 193.253 84.2893 189.748C81.8769 186.809 77.3449 186.074 71.5448 187.856C67.6918 192.664 61.1952 195.904 61.8664 203.395C59.447 211.179 62.3624 221.876 62.8743 228.728C63.698 229.79 64.1275 231.339 64.851 232.525C64.8658 232.81 64.2791 232.739 64.2024 232.97C64.476 233.464 64.574 234.175 64.8129 234.713C65.051 245.541 72.3726 249.141 77.4889 254.528C79.484 255.39 81.0434 256.789 82.6445 258.139C85.8888 261.675 92.0335 261.626 96.3058 263.891C92.5488 260.931 87.7771 259.223 82.9241 257.613C83.0225 257.12 83.5259 256.865 83.2463 256.147C82.9866 255.694 82.316 255.75 81.9034 255.487C81.6238 254.824 80.9646 254.629 80.9268 253.665C78.8516 252.664 77.4782 250.797 75.9838 249.077C74.5634 242.828 70.9742 237.302 67.9449 232.978C68.3467 230.231 65.1957 228.59 66.0913 226.353C65.5862 225.848 65.0768 225.349 64.4659 224.974C65.4266 224.484 65.0897 223.225 65.7149 222.537C65.0186 222.507 64.2998 222.505 64.1787 221.763C64.8537 220.064 64.7628 219.356 63.9532 217.76C64.2281 217.001 65.0235 216.552 65.0733 215.661C62.6123 206.518 64.2338 197.503 70.6472 192.712C71.2636 192.722 71.8282 192.796 72.1407 193.183C73.8377 197.469 72.4053 202.035 72.9684 206.25C73.7551 212.104 76.741 218.067 79.1489 223.041C82.0009 228.932 85.4455 234.642 89.5889 238.489C89.4717 238.788 89.2351 239.016 89.1791 239.353C94.363 244.95 98.7442 251.54 106.148 254.39C106.803 254.347 107.085 253.718 107.51 253.955C109.915 256.629 114.672 256.392 116.846 259.351C120.448 259.886 123.143 261.55 126.543 262.339C127.279 262.441 127.223 261.375 127.71 261.789C127.932 262.241 127.306 262.193 127.28 262.498C128.264 262.674 130.375 262.315 131.301 261.982C130.124 260.458 125.773 261.334 124.805 258.959C121.438 259.141 120.005 256.93 116.386 257.422C116.05 256.899 117.155 257.232 116.819 256.71C113.649 254.744 109.953 253.43 107.999 249.961C106.093 249.327 105.183 246.575 102.628 247.328C102.079 250.333 106.301 250.35 107.161 252.781C104.156 252.451 101.145 250.595 100.574 246.661C98.6304 245.856 97.7957 243.675 95.3098 243.54C95.8504 242.426 94.6207 242.518 94.0521 242.242C93.7107 239.691 91.9845 238.853 90.0841 238.232C90.3665 237.753 89.9953 236.889 89.9726 236.23C84.8749 226.482 77.3131 218.832 75.0885 206.124C77.344 210.351 79.497 214.704 81.3056 219.483C83.6141 220.847 84.7329 223.685 86.6386 225.548C87.3459 229.549 89.9921 231.153 91.3107 234.397C94.4938 238.088 98.1457 242.053 101.998 245.434C106.278 245.609 107.577 249.471 111.418 250.192C111.158 250.573 111.092 250.719 111.375 251.134C115.181 253.206 117.951 256.558 123.695 256.228C120.062 253.408 115.034 252.319 111.933 248.84C109.855 248.496 108.181 247.656 107.384 245.727C101.587 243.326 98.4504 237.632 94.0316 233.526C94.0157 231.917 92.6401 231.81 92.0577 230.973C91.2517 229.813 90.8071 228.635 90.1701 227.78C87.4013 224.07 86.7901 218.766 82.726 217.01C80.238 210.872 76.4633 206.327 74.7925 199.177C75.7857 197.923 75.4624 195.89 75.0838 193.823C78.5424 193.257 80.7771 195.677 82.8986 197.353C85.3411 203.141 90.425 208.131 91.8935 215.123C93.0457 215.485 93.5829 216.504 93.3916 218.085C95.5226 218.958 96.0749 221.782 96.9538 224.203C98.9622 227.368 101.203 230.243 103.571 232.963C104.65 236.03 107.29 237.162 109.274 239.109C110.05 239.278 110.886 239.373 111.352 239.927C111.256 240.273 110.726 240.663 111.138 240.906C116.728 245.881 122.941 250.084 130.932 252.091C130.93 252.456 130.685 252.787 131.063 252.999C133.214 253.313 134.722 254.42 137.597 253.833C137.898 254.296 138.01 254.989 138.51 255.203C139.8 255.176 141.229 255.851 142.748 254.954C142.749 253.83 140.17 254.394 140.474 252.774C139.543 252.52 137.997 253.38 137.531 253.38C137.883 253.027 137.829 252.533 137.529 252.136C133.368 251.279 128.959 250.727 126.855 247.325C122.736 247.424 121.493 243.969 117.913 243.404C118.156 242.032 116.43 242.228 116.848 240.976C116.093 240.721 115.246 240.58 115.05 239.632C114.799 238.979 115.863 239.102 115.784 238.547C114.067 238.642 113.346 236.98 111.563 237.704C106.686 232.738 99.9378 227.501 99.4519 219.329C96.919 218.596 97.1276 214.474 94.8554 213.424L94.3502 209.946C88.5833 203.819 86.82 192.741 77.5203 190.984C75.4306 191.877 73.1079 191.75 72.5875 190.133C79.2455 187.858 84.8759 191.445 87.3527 196.125C92.6581 200.739 96.0193 207.759 99.1837 215.023C100.466 215.758 101.499 216.798 102.003 218.493C102.494 218.776 103.139 218.871 103.54 219.265C103.872 219.688 104.248 220.054 104.452 220.636C106.816 221.874 108.036 224.527 109.614 226.737C111.16 228.37 114.78 230.912 113.781 233.354C111.705 232.95 110.602 231.34 109.814 229.343C105.815 228.105 106.107 220.612 101.446 220.788C101.12 221.945 102.213 222.781 102.124 224.23C106.591 228.514 109.618 234.581 116.317 236.102C116.492 236.803 116.16 237.206 116.409 237.952C124.075 244.642 133.553 249.088 144.883 251.246C145.758 251.075 145.845 250.849 146.612 250.89C146.746 251.138 146.791 251.498 147.069 251.573C146.645 250.433 147.832 250.939 147.953 250.301C144.904 250.86 144.344 248.344 141.33 248.861C141.063 248.656 140.798 248.449 140.83 247.874Z" fill="#B1C7C7"/>
<path fill-rule="evenodd" clip-rule="evenodd" d="M28.7141 199.928C28.5708 199.052 28.4199 198.169 28.5316 197.444C25.6893 198.719 26.4361 202.146 24.2807 203.834C24.1895 206.862 21.9625 211.237 23.9251 213.676C23.5643 210.853 24.8339 209.007 26.2012 207.22C26.0276 204.183 27.7543 202.285 28.7141 199.928Z" fill="#B1C7C7"/>
<path fill-rule="evenodd" clip-rule="evenodd" d="M117.212 260.509C115.906 260.398 115.211 259.538 113.846 259.496C112.542 257.785 110.052 257.531 108.522 256.098C103.491 255.533 100.37 252.624 97.3757 249.556C96.8883 249.33 96.1317 249.428 95.5532 249.31C95.5475 248.317 94.0769 246.198 92.2498 246.27C88.6291 241.064 84.6356 236.082 82.2233 230.198C80.9883 229.114 80.1516 227.54 78.6809 226.743C79.687 225.737 77.9683 224.6 77.9825 223.165C77.5746 222.661 76.7208 222.705 76.3953 222.098C76.2012 219.155 75.412 217.358 74.2623 214.786C72.9637 211.887 72.7315 208.094 71.4081 206.228C72.0298 204.448 71.5787 201.949 70.7291 200.323C70.8878 198.8 72.0464 197.164 71.2903 195.557C69.6689 195.32 69.3266 196.957 68.7495 197.785C69.0524 203.487 71.1441 208.935 71.5902 214.87C73.4676 220.139 76.1809 224.266 76.6646 230.102C77.8196 229.69 78.3068 230.097 79.0103 230.24C84.1101 238.524 88.7846 247.33 96.8362 251.992C97.1176 252.24 97.127 252.819 97.3596 253.126C104.837 257.9 113.388 261.357 122.255 264.431C123.574 264.408 125.008 264.245 126.64 263.839C123.414 263.481 121.274 261.791 117.757 261.792C117.497 261.459 117.376 260.957 117.212 260.509Z" fill="#B1C7C7"/>
<path fill-rule="evenodd" clip-rule="evenodd" d="M21.0821 206.696C21.1094 206.512 21.247 206.395 21.5344 206.374C21.5239 205.776 21.0944 205.717 20.467 205.911C20.4732 206.427 20.6474 206.729 21.0821 206.696Z" fill="#B1C7C7"/>
<path fill-rule="evenodd" clip-rule="evenodd" d="M39.1995 228.765C39.2306 226.795 40.3818 224.764 40.5618 222.854C40.8214 220.132 41.1149 217.854 41.7048 215.424C41.9446 214.505 40.7304 214.532 41.0089 214.16L42.0049 213.955C42.2475 212.019 42.3691 210.514 43.6876 209.073C42.6462 207.22 45.6675 205.123 43.8011 202.793C40.9178 203.305 41.2268 206.967 40.8444 209.501C39.6562 210.69 39.4282 212.48 39.8924 214.702C37.3643 217.088 38.9198 221.647 37.0663 224.668C37.6856 227.633 37.3922 230.026 37.3612 232.585C38.7866 238.379 40.2113 245.231 43.6049 248.504C43.6346 249.068 43.7757 249.486 43.9694 249.837C44.4556 249.869 44.7223 250.187 45.3642 250.018C41.3888 244.1 39.0814 236.11 39.1995 228.765Z" fill="#B1C7C7"/>
<path fill-rule="evenodd" clip-rule="evenodd" d="M82.9433 206.622C84.8996 208.086 85.9112 210.673 86.7331 213.483C84.3213 212.619 83.3172 209.339 82.9433 206.622Z" fill="#B1C7C7"/>
<path fill-rule="evenodd" clip-rule="evenodd" d="M92.3661 224.533C98.6096 236.945 109.068 244.191 119.732 251.183C121.099 251.522 122.509 251.804 123.217 252.95C123.669 253.216 123.737 252.555 124.414 252.547C125.809 255.572 129.024 256.366 131.798 257.701C132.559 257.367 133.015 256.851 133.974 256.634C130.655 255.02 127.699 252.96 123.804 252.053C121.966 249.984 119.357 248.863 116.725 247.767C116.226 247.018 115.579 246.449 115.308 245.422C109.229 242.515 104.898 237.464 100.669 232.292C98.4967 226.311 92.4604 223.534 90.8167 216.315C88.1488 214.674 88.6687 209.537 86.8667 206.419C85.9308 204.799 84.4357 204.338 84.1636 202.63C83.4584 202.074 82.5342 201.786 81.9627 201.065C82.0577 199.528 80.7704 199.687 80.3728 198.754C80.3024 197.183 79.8437 196.087 78.8461 195.653C77.0586 195.664 76.9356 196.648 76.9968 197.742C80.7074 203.965 81.5985 213.643 87.8322 216.775L88.095 218.584C89.5004 220.591 90.6002 222.971 92.3661 224.533Z" fill="#B1C7C7"/>
<path fill-rule="evenodd" clip-rule="evenodd" d="M148.318 216.066C149.323 216.348 151.049 216.616 152.286 216.028C151.257 213.25 147.33 214.006 146.189 211.365C145.659 211.417 145.263 211.307 144.895 211.163C142.263 207.254 138.484 204.746 134.739 202.196C134.376 202.044 134.573 201.21 134.212 201.059C132.763 200.038 130.834 199.605 130.417 197.323C128.77 197.316 128.655 195.439 127.061 195.365C125.306 192.879 123.183 190.839 120.437 189.563C120.11 189.697 119.689 189.775 119.801 190.163C119.341 191.853 121.533 191.844 122.017 192.977C125.598 198.578 131.36 201.512 135.068 206.956C140.202 209.118 144.077 212.818 148.318 216.066Z" fill="#B1C7C7"/>
<path fill-rule="evenodd" clip-rule="evenodd" d="M99.8625 262.153C96.7731 262.154 96.0456 259.202 93.5306 258.485C91.0769 255.971 87.711 254.592 85.0776 252.302C84.695 252.077 84.8431 251.463 84.9023 251.096C82.1378 249.987 79.8518 246.544 79.4303 243.678C76.0693 241.187 76.2357 235.235 73.196 232.223C74.4704 230.37 72.5714 228.707 72.087 227.014C71.2054 223.922 69.242 220.868 68.9141 217.259C68.8407 216.447 69.2879 215.557 69.2456 214.706C69.079 211.323 67.2019 208.178 67.7335 204.297C67.2748 203.683 67.172 202.623 66.4026 202.396C65.7577 202.466 65.419 202.724 65.4675 203.211C65.7126 206.314 65.7742 210.4 66.9137 213.166C66.2758 221.42 69.4038 228.025 71.4779 234.908C72.9043 239.639 77.7576 243.168 78.3804 248.555C81.7494 251.886 85.5058 254.736 88.8972 258.04C90.8893 258.522 92.534 259.435 94.1576 260.375C94.8722 260.676 95.0072 259.721 95.6931 260.059C96.3379 262.974 100.707 264.221 103.081 266.15C104.877 266.233 106.871 266.98 108.44 266.755C106.706 265.711 103.445 265.044 101.045 264.239C100.985 263.126 100.252 262.857 99.8625 262.153Z" fill="#B1C7C7"/>
<path fill-rule="evenodd" clip-rule="evenodd" d="M21.8196 215.341C22.3022 215.399 22.5384 215.719 23.279 215.499C23.7585 215.135 23.5416 214.433 23.4418 213.788C22.1566 213.944 21.943 214.622 21.8196 215.341Z" fill="#B1C7C7"/>
<path fill-rule="evenodd" clip-rule="evenodd" d="M24.9314 223.658C26.1476 221.847 26.0177 218.921 26.5846 216.091C23.5951 214.585 24.3904 220.977 24.9314 223.658Z" fill="#B1C7C7"/>
<path fill-rule="evenodd" clip-rule="evenodd" d="M21.9226 215.787C21.7215 216.262 22.9655 216.338 23.4425 215.929C22.7743 215.996 22.7732 215.592 21.9226 215.787Z" fill="#B1C7C7"/>
<path fill-rule="evenodd" clip-rule="evenodd" d="M71.4192 258.986C67.229 254.33 63.849 248.688 60.221 243.349C60.6417 242.992 60.4322 242.269 60.3336 241.609C57.1233 235.48 56.7728 227.251 52.8293 221.312L52.2978 221.421C52.0087 222.918 52.6625 224.96 52.2951 226.414C52.8621 226.979 52.9234 228.046 52.8472 228.953C54.2736 232.095 55.3946 235.118 56.2243 238.399C57.9516 245.25 62.8862 251.448 67.1332 255.812C69.1019 257.835 70.6591 260.653 74.0936 261.089C73.7672 259.702 72.5956 259.342 71.4192 258.986Z" fill="#B1C7C7"/>
<path fill-rule="evenodd" clip-rule="evenodd" d="M178.593 198.406C178.863 198.877 179.108 199.379 179.714 199.438C180.18 198.995 180.644 198.205 180.262 197.64C179.442 197.741 178.965 198.041 178.593 198.406Z" fill="#B1C7C7"/>
<path fill-rule="evenodd" clip-rule="evenodd" d="M51.6714 243.817C51.6285 240.002 49.6185 238.61 48.8748 235.659C48.0353 232.592 48.6723 228.328 46.7488 225.96C43.9715 228.476 47.2284 233.296 46.3543 236.8C47.5647 239.269 47.9148 242.975 50.9753 243.961C50.6791 244.247 50.2543 244.457 50.4125 245.013C53.5261 251.65 57.8605 258.685 63.7886 260.663C62.656 258.665 60.731 257.647 59.1919 256.151C56.4716 252.304 54.5912 247.42 51.6714 243.817Z" fill="#B1C7C7"/>
<path fill-rule="evenodd" clip-rule="evenodd" d="M28.9304 230.477C28.5667 232.088 29.3127 233.07 29.7734 234.549C30.7939 233.818 31.4876 230.427 28.9304 230.477Z" fill="#B1C7C7"/>
<path fill-rule="evenodd" clip-rule="evenodd" d="M34.3654 236.143C35.1447 234.752 34.4365 233.321 33.6355 232.241C33.1671 232.453 33.129 232.065 32.6608 232.278C33.2038 234.323 33.0524 238.26 35.1625 239.384C35.6658 238.003 35.189 236.951 34.3654 236.143Z" fill="#B1C7C7"/>
<path fill-rule="evenodd" clip-rule="evenodd" d="M95.5399 253.323C95.1542 253.141 94.2566 253.6 93.937 253.341C93.9147 253.05 94.4937 253.117 94.3901 252.779C88.9358 248.873 84.3697 244.151 81.7684 237.121C79.4501 235.941 79.9478 231.273 77.0974 230.751C76.2949 231.059 76.5622 232.002 76.4949 232.748C77.9846 234.194 78.4076 235.907 79.1699 237.656C82.3809 245.046 87.5626 250.61 92.7051 254.686C98.7776 257.536 103.447 262.125 110.447 263.827C110.529 264.381 111.038 264.407 111.293 264.746C113.984 264.931 115.667 266.362 118.489 266.385C118.783 266.004 119.398 265.817 119.397 265.262C109.554 263.622 102.589 258.42 95.5399 253.323Z" fill="#B1C7C7"/>
<path fill-rule="evenodd" clip-rule="evenodd" d="M35.895 240.931C35.7398 241.959 36.3082 244.426 38.1906 244.704C37.8486 243.179 37.2496 241.926 36.5307 240.8L35.895 240.931Z" fill="#B1C7C7"/>
<path fill-rule="evenodd" clip-rule="evenodd" d="M46.6135 252.017C46.0798 251.58 45.603 251.072 44.7653 250.993C44.4525 252.434 46.8184 251.945 46.3966 254.031C46.8322 253.854 47.7311 253.936 47.8621 253.59C47.3565 253.223 46.7645 252.96 46.3421 252.496C46.3268 252.277 46.7486 252.302 46.6135 252.017Z" fill="#B1C7C7"/>
<path fill-rule="evenodd" clip-rule="evenodd" d="M146.846 236.141C147.292 236.399 148.2 236.81 148.696 236.186C148.406 235.296 147.644 235.178 146.875 235.068C146.758 235.341 146.718 235.672 146.846 236.141Z" fill="#B1C7C7"/>
<path fill-rule="evenodd" clip-rule="evenodd" d="M150.603 236.495L150.754 237.534C152.291 237.956 153.722 238.509 155.759 238.334C156.014 237.708 157.194 237.607 157.169 236.823C154.502 237.187 153.12 234.277 150.603 236.495Z" fill="#B1C7C7"/>
<path fill-rule="evenodd" clip-rule="evenodd" d="M161.258 238.9C161.649 238.522 162.152 238.206 161.889 237.435C160.335 236.472 159.289 239.205 161.258 238.9Z" fill="#B1C7C7"/>
<path fill-rule="evenodd" clip-rule="evenodd" d="M69.4555 261.209C69.5205 261.861 71.0057 261.829 70.9433 261.13C70.6187 260.934 70.0498 261.056 69.4555 261.209Z" fill="#B1C7C7"/>
<path fill-rule="evenodd" clip-rule="evenodd" d="M151.361 247.963C152.12 247.768 152.785 247.509 152.686 246.779C152.106 246.475 151.034 247.083 151.361 247.963Z" fill="#B1C7C7"/>
<path fill-rule="evenodd" clip-rule="evenodd" d="M87.111 260.956C88.392 263.534 91.7464 263.467 94.1587 264.6C91.9712 263.179 90.2956 261.103 87.111 260.956Z" fill="#B1C7C7"/>
<path fill-rule="evenodd" clip-rule="evenodd" d="M135.006 257.066C134.872 256.69 135.295 256.642 135.074 256.216C133.507 256.367 132.686 256.924 133.422 258.062C135.007 258.277 136.671 258.396 138.785 257.961C138.851 256.027 136.816 256.686 135.006 257.066Z" fill="#B1C7C7"/>
<path fill-rule="evenodd" clip-rule="evenodd" d="M94.2981 265.56C95.1147 265.804 96.3376 267.412 97.1886 266.227C96.1645 266.23 95.4231 264.702 94.2981 265.56Z" fill="#B1C7C7"/>
</g>
</g>
</g>
</svg>
