<svg width="111" height="108" viewBox="0 0 111 108" fill="none" xmlns="http://www.w3.org/2000/svg">
<g opacity="0.2">
<path fill-rule="evenodd" clip-rule="evenodd" d="M76.1864 -36.8797C75.4183 -36.6636 73.8211 -37.3411 73.6436 -36.4883C74.0487 -35.8735 76.227 -35.8137 76.1864 -36.8797Z" fill="white"/>
<path fill-rule="evenodd" clip-rule="evenodd" d="M67.2271 -34.5634C68.2863 -34.0409 70.8837 -33.4648 71.1003 -35.0211C69.6093 -35.053 67.0434 -34.313 67.5802 -35.9375C67.2704 -35.8499 66.5446 -36.122 66.5223 -35.785C66.9856 -35.5744 67.2849 -35.2249 67.2271 -34.5634Z" fill="white"/>
<path fill-rule="evenodd" clip-rule="evenodd" d="M86.5697 -32.9865C90.8421 -27.7382 95.9742 -23.3186 99.7847 -17.6258C102.657 -14.8847 104.426 -11.0796 107.681 -8.70548C107.626 -8.31635 107.082 -8.39886 107.165 -7.88043C108.508 -7.57627 109.132 -6.58129 109.567 -5.40283C110.012 -5.22551 110.717 -5.29816 110.941 -4.9078C115.197 3.10746 121.979 8.69315 126.215 16.7293C127.664 17.2158 130.441 17.5901 129.305 19.537C129.985 19.9827 131.084 20.0246 131.878 20.3632C138.614 26.1583 140.705 36.4246 149.213 40.5141C151.068 43.2417 153.365 45.5456 156.076 47.4506C156.062 47.7117 155.64 47.5799 155.734 47.9469C157.057 51.3517 161.627 51.6337 162.599 55.3797C163.025 55.6284 163.733 55.61 163.972 56.0385C165.959 53.7493 163.291 52.5659 162.599 50.5895C159.513 50.1462 158.141 48.0528 157.449 45.3043C155.132 43.2392 152.684 41.3022 151.271 38.3665C149.965 38.4687 149.617 37.6474 148.697 37.3764C147.776 34.2425 144.628 33.2537 143.205 30.6037C143.209 30.3315 143.683 30.5101 143.721 30.2737C141.154 29.2183 140.352 26.4674 139.085 24.1622C138.477 23.922 137.446 24.0883 137.026 23.6671C137.047 23.1918 137.758 23.3802 137.712 22.8408C137.033 22.1734 136.072 21.7781 135.825 20.6933C134.561 20.809 133.972 20.2746 133.766 19.372C133.752 18.7538 134.982 19.3301 134.966 18.7119C133.853 17.9115 132.004 17.8204 131.019 16.8944C131.342 16.0188 131.417 15.4339 130.848 14.7468C130.402 14.3035 130.331 14.9487 129.819 14.913C126.584 10.5378 121.86 7.59596 119.864 2.02998C118.732 0.20256 115.872 0.0350876 115.573 -2.59521C112.538 -3.967 111.606 -7.3657 109.052 -9.20297C108.402 -12.7051 105.908 -14.434 103.561 -16.3045C103.416 -17.43 102.574 -17.8869 102.359 -18.9471C100.943 -19.3867 99.658 -20.697 99.9574 -22.251C99.4584 -22.4308 98.7393 -22.3988 98.2416 -22.5798C98.0381 -23.2115 97.5788 -23.5957 97.7259 -24.5624C94.4017 -26.7038 92.6871 -30.3943 89.1454 -32.3252C89.3425 -32.521 89.3386 -32.9101 89.3156 -33.3165C87.5012 -34.6489 85.5474 -35.3569 83.3082 -35.9591C83.8149 -34.4075 85.4182 -33.915 86.5697 -32.9865Z" fill="white"/>
<path fill-rule="evenodd" clip-rule="evenodd" d="M76.2116 -35.5417C76.3703 -35.1533 77.5301 -35.4351 77.44 -35.9345C77.0173 -35.8148 76.0178 -36.25 76.2116 -35.5417Z" fill="white"/>
<path fill-rule="evenodd" clip-rule="evenodd" d="M157.647 55.2167C155.98 51.201 151.816 49.586 149.739 45.9645C146.294 45.1454 146.179 41.1259 142.519 40.5113V39.5197C139.818 37.7655 139.446 33.7732 137.363 31.4242C137.719 29.4607 135.94 28.3323 134.611 27.459C133.099 24.7293 130.922 22.6352 128.252 21.0153C128.743 27.539 135.952 29.9152 137.018 35.8858C135.38 35.2563 135.402 33.0342 133.064 33.076C132.69 32.5562 132.313 32.0364 132.377 31.094C128.352 29.6208 128.538 24.0986 125.502 21.6768C125.209 19.7392 123.975 18.1194 122.923 16.2236C122.773 15.7358 122.665 16.6067 122.235 16.3899C121.854 15.1026 120.485 14.7664 120.346 13.25C120.027 12.9507 119.114 13.2217 118.969 12.7536C119.122 12.4604 119.447 12.3348 119.313 11.7632C118.744 11.1534 117.645 11.0524 117.251 10.2764C117.121 9.76765 117.724 9.95858 117.594 9.44984C116.462 8.97683 116.193 7.60458 115.874 5.97982C115.295 6.03649 114.143 6.39741 113.64 5.97982C113.712 5.60905 114.552 5.97612 114.672 5.6497C113.886 3.48417 112.605 1.80028 110.546 0.859169C109.761 -1.85575 107.626 -3.27357 106.42 -5.58445C106.38 -4.95253 105.91 -4.85398 105.389 -5.08926C105.166 -5.90965 105.806 -5.90102 105.733 -6.57729C103.421 -9.04461 100.422 -11.7078 99.3721 -14.8378C95.2133 -17.3951 93.1397 -21.954 89.5742 -25.0816C89.6742 -25.6187 89.4576 -25.8503 89.4025 -26.2383C86.7611 -27.39 84.963 -29.3511 82.8701 -31.03C82.519 -33.3976 79.9083 -34.452 77.7129 -34.4988C78.464 -33.0724 79.793 -32.2027 81.1515 -31.3602C81.1899 -31.0473 80.9567 -30.9955 80.9798 -30.6999C85.5987 -27.4294 88.3605 -22.3728 92.3246 -18.4729C92.536 -17.9383 91.7696 -18.346 91.9811 -17.8114C93.6254 -16.0339 95.1274 -14.1172 96.4501 -12.0293C103.149 -7.06632 107.296 0.346733 112.782 6.47624C114.029 10.3417 116.265 13.2611 117.938 16.72C123.045 20.5682 124.852 27.5883 129.284 32.0857C129.716 32.3308 130.231 32.4971 130.487 32.911C132.435 35.499 134.429 38.0439 138.223 38.8594C139.179 40.7465 140.513 42.2752 142.519 43.156C144.012 45.7415 146.43 47.4378 148.536 49.4333C148.756 49.6501 148.756 50.043 148.536 50.2598C149.648 51.1739 150.945 51.9092 151.973 52.9033C152.255 53.6794 152.646 54.3507 153.006 55.0516C155.999 55.8646 156.291 59.273 159.537 59.8421C160.206 62.5053 162.717 63.3959 164.695 64.8002C164.04 59.9764 160.333 58.0868 157.647 55.2167Z" fill="white"/>
<path fill-rule="evenodd" clip-rule="evenodd" d="M103.062 -34.0072C103.159 -34.8833 102.448 -34.987 101.629 -34.9856C101.539 -34.1167 102.151 -33.9196 103.062 -34.0072Z" fill="white"/>
<path fill-rule="evenodd" clip-rule="evenodd" d="M103.986 -24.5264C102.962 -22.8255 104.975 -20.0562 107.089 -19.7386C107.217 -19.2315 106.617 -19.4223 106.745 -18.914C107.002 -18.7207 107.45 -18.7084 107.607 -18.4192C112.229 -9.69156 118.924 -2.94798 125.544 3.86821V4.52792C127.948 6.29905 129.151 9.21975 131.062 11.4623C131.468 11.4586 131.57 11.7466 132.097 11.6272C133.625 13.8525 135.826 15.4316 137.099 17.9006C137.53 18.4225 138.337 18.5862 138.823 19.0563C138.841 20.3044 139.734 20.7167 140.721 21.0367C141.018 23.6152 142.456 25.0984 144.171 26.3193C143.868 26.4707 143.571 26.627 143.653 27.1452C146.744 28.4781 148.643 30.9508 150.033 33.9146C150.464 34.0525 150.958 34.13 151.587 34.0795C154.566 39.6465 160.58 42.3087 164.694 46.7901C164.169 45.2023 163.806 43.457 162.28 42.8293V41.8385C161.13 40.4046 159.651 39.2908 158.657 37.7116C155.063 36.2531 154.341 32.0475 151.068 30.2825C150.895 29.5133 150.478 28.9766 150.033 28.4671C149.576 28.4646 149.048 28.5286 148.826 28.3009C148.778 25.9735 145.767 25.0713 145.033 22.8534C145.049 22.4275 145.769 22.6798 145.55 22.0275C143.433 20.6428 141.452 19.1277 140.892 16.2501C139.451 15.0981 137.422 14.511 136.582 12.7829C135.902 12.8272 135.382 12.7189 135.201 12.2881C135.157 9.10898 130.963 8.55142 130.89 4.85901C130.332 4.28176 130.351 5.65288 129.683 5.51872C128.674 5.38087 127.923 4.12422 128.304 3.20727C128.799 3.34019 128.412 4.31499 129.165 4.19807C129.653 4.33469 129.613 3.96544 130.027 4.03314C130.204 3.26019 129.744 3.09404 129.511 2.71249C126.529 2.87003 126.077 0.606583 123.992 -0.0937462C120.221 -4.36464 116.226 -9.8208 112.435 -14.6222V-15.7767C108.606 -19.7054 105.249 -24.0858 102.087 -28.6546C101.271 -28.918 99.857 -28.6103 99.8441 -29.6441C100.574 -29.9974 100.964 -28.785 102.087 -28.9844C102.164 -29.718 101.62 -29.8583 101.397 -30.3051C97.7932 -29.0595 97.1811 -36.2745 94.4988 -33.2762C97.9848 -30.6694 99.151 -25.8434 103.986 -24.5264Z" fill="white"/>
<path fill-rule="evenodd" clip-rule="evenodd" d="M61.9443 -33.2455V-33.7619C61.31 -34.3991 59.6556 -33.69 59.1789 -33.0721C58.7871 -33.0053 59.2687 -33.8583 58.6901 -33.5898C58.2207 -33.5127 57.9478 -33.2262 57.875 -32.7278C59.2759 -32.1973 60.7327 -33.013 61.9443 -33.2455Z" fill="white"/>
<path fill-rule="evenodd" clip-rule="evenodd" d="M163.831 69.4352C163.433 69.1567 162.514 69.3812 162.284 68.9421C161.382 66.7367 159.979 65.0096 157.822 64.0063C158.099 63.4666 157.781 63.3783 157.822 62.6901C150.598 56.5572 143.958 49.8685 137.386 43.1125C137.248 42.5409 137.641 42.4795 137.559 41.9607C136.853 41.7571 136.361 41.3523 135.496 41.302C130.78 35.239 124.301 30.86 120.9 23.5348C118.414 21.3968 116.09 18.7609 114.891 14.9793C114.258 14.3758 113.244 14.1427 112.658 13.4976C112.516 11.3682 110.229 9.25722 110.083 6.58815C109.53 6.02024 108.46 5.94909 108.021 5.27201C108.219 4.81081 108.219 4.41585 108.021 3.95588C105.766 4.0859 106.449 1.40579 104.587 1.15924C104.467 0.548397 104.88 0.452724 104.759 -0.156895C104.241 -0.321259 103.513 -0.278328 103.384 -0.815575C103.525 -1.38717 103.129 -1.4485 103.212 -1.96735C98.415 -5.43371 95.3859 -10.5915 90.6784 -14.1425C89.6811 -17.9646 86.1233 -20.1884 85.1823 -23.5198C84.3936 -24.1344 83.3771 -24.5318 82.7792 -25.3291C80.8205 -29.2112 76.168 -30.5127 72.9904 -33.2271C72.5001 -33.6086 71.5552 -33.6405 71.102 -33.2271C71.0431 -31.2511 72.5039 -30.731 74.1913 -30.4293C74.2783 -29.9116 73.8175 -29.7865 74.1913 -29.4431C80.8819 -27.2953 82.7728 -20.5527 87.5866 -16.6092C87.6135 -16.2008 87.3165 -16.1002 87.2448 -15.7874C88.6134 -15.0711 89.0013 -13.4115 89.4763 -11.839C90.3596 -10.9313 91.7526 -10.5106 92.7396 -9.70103C91.7026 -6.39413 97.218 -6.69097 97.0298 -3.1179C98.351 -3.57296 99.9257 -2.274 99.9513 -0.486851C100.364 -0.278328 100.988 -0.274651 101.325 0.00624084C103.779 4.78506 108.177 7.69944 110.425 12.6757C110.371 13.0609 110.155 13.2927 110.254 13.8275C114.463 20.4315 118.655 27.0576 123.82 32.7477C128.755 37.6161 132.731 43.4019 138.587 47.3896C138.961 48.7855 139.793 49.7447 140.991 50.3506C142.723 53.4637 145.531 55.5428 147.86 58.0831C148.116 59.2103 148.977 59.7549 150.264 59.8935C152.681 62.4031 155.27 64.7496 158.335 66.6385C158.586 68.9764 160.396 69.8191 161.941 70.9169C162.156 72.7396 163.369 73.6056 164.517 74.5354C165.214 72.8304 163.618 71.7449 163.831 69.4352Z" fill="white"/>
<path fill-rule="evenodd" clip-rule="evenodd" d="M106.707 -31.3916C106.367 -32.2366 105.638 -32.7169 104.163 -32.4997C104.248 -31.5037 105.784 -30.6044 106.707 -31.3916Z" fill="white"/>
<path fill-rule="evenodd" clip-rule="evenodd" d="M68.6447 -24.9061C71.8367 -24.8365 74.8211 -22.9735 74.8288 -20.9028C77.4521 -18.8347 80.2201 -16.9083 82.9048 -14.8973C83.7348 -13.1388 85.1989 -11.1315 87.8862 -11.7285C85.751 -16.1621 80.9323 -17.989 78.4371 -22.0706C77.0486 -22.1676 76.5311 -23.1115 76.2032 -24.2383C75.5666 -24.4559 74.7725 -24.5181 74.3139 -24.9061C72.8025 -28.3324 68.0094 -28.5724 65.8959 -31.4129C64.4856 -31.378 63.1433 -31.4091 61.9444 -31.5783C62.148 -28.5201 68.003 -28.5935 68.6447 -24.9061Z" fill="white"/>
<path fill-rule="evenodd" clip-rule="evenodd" d="M106.277 -28.4534C106.585 -28.033 107.543 -28.2346 107.656 -27.6285C107.668 -25.8276 109.254 -24.4003 110.759 -23.5066C111.473 -21.4414 112.472 -19.649 114.206 -18.5598C113.957 -18.357 113.88 -17.9931 113.861 -17.5715C116.739 -15.3144 117.583 -12.1243 120.238 -9.6571C120.331 -9.07194 119.627 -9.25142 119.721 -8.66627C122.787 -7.25747 122.867 -2.99296 127.13 -2.72989C127.461 -1.45263 128.781 -1.12194 128.854 0.402416C129.752 0.918728 130.473 1.60223 131.613 1.88621C135.65 7.80538 141.396 12.092 145.227 18.2103C145.206 18.6172 145.202 19.0045 145.4 19.1999C146.079 19.2762 146.296 18.8533 146.607 19.3634C146.528 19.8404 145.996 19.8797 146.089 20.5178C152.389 23.3956 154.525 30.2564 159.015 34.8627C158.802 35.3741 158.467 35.7724 159.015 36.183C159.901 36.4387 159.718 35.1233 160.394 35.6888C160.779 37.9569 162.758 38.7031 164.186 39.9754C163.325 37.7135 162.677 33.8362 159.533 33.2154C159.649 32.8306 160.105 32.7729 160.222 32.3905C157.883 29.9012 156.01 26.9655 154.535 23.6513C150.419 20.7722 146.72 17.4961 144.71 12.6034C141.718 9.35186 137.598 6.34618 135.577 2.71108C134.161 2.19476 133.074 1.36744 131.785 0.731876C129.154 -4.28006 123.564 -6.46333 120.926 -11.4703C120.501 -11.9412 119.683 -12.0371 119.375 -12.6247C119.153 -17.151 115.036 -20.3313 111.965 -23.1771C112.361 -25.653 109.302 -25.9923 110.069 -27.7932C108.938 -28.1411 108.199 -28.8628 107.829 -29.9372C107.399 -30.0761 106.905 -30.1535 106.277 -30.1019C106.043 -29.829 106.418 -29.1406 106.277 -28.4534Z" fill="white"/>
<path fill-rule="evenodd" clip-rule="evenodd" d="M36.1914 -19.564C36.4042 -19.3277 36.7822 -19.2514 37.2231 -19.2342C40.7181 -21.7762 46.1855 -22.9242 51.6618 -22.2044C53.9342 -20.6775 57.5945 -20.2468 60.0846 -19.3991C66.9631 -19.5603 71.1373 -15.7078 75.3846 -12.7979C76.1113 -12.8348 76.4958 -12.5432 77.1045 -12.4669C78.3977 -8.97747 83.7292 -9.36505 85.0121 -5.86575C85.644 -5.81284 85.9631 -5.45971 86.5591 -5.37112C86.4578 -4.77929 86.7577 -4.57135 86.9012 -4.21576C95.1164 2.09135 102.331 9.35695 107.531 18.558C108.186 18.4177 108.564 18.0105 109.25 17.8985C108.999 16.9671 108.951 16.31 108.563 15.258C106.206 13.6708 105.105 10.8741 104.093 7.99611C101.8 6.73125 100.635 4.38484 98.9356 2.55153C98.5858 1.97692 98.0372 3.03016 97.7322 2.55153C96.5365 -2.13267 91.228 -2.86722 89.8259 -7.35209C87.8753 -7.14538 87.1576 -8.62557 85.1826 -8.8372C82.1631 -11.8776 78.0055 -13.8278 75.7294 -17.5842C75.0719 -17.9201 74.4144 -17.6174 73.6672 -17.5842C72.9867 -18.3606 72.2869 -19.1198 71.6038 -19.8949H70.2287C68.8484 -22.1466 64.4511 -21.4994 64.728 -25.3395C63.6706 -25.7566 62.2096 -25.7837 62.1493 -27.1556C59.9039 -27.8607 57.7252 -28.6297 55.7887 -29.6312C52.7666 -28.6949 51.2838 -30.0766 47.8798 -29.3002C49.5574 -28.8991 50.8275 -26.6388 52.8666 -27.6503C52.609 -27.6785 52.2322 -27.5912 52.1796 -27.8151C52.8922 -27.9542 53.4548 -28.2421 54.4135 -28.1461C56.7037 -25.5044 61.6508 -25.4121 63.6962 -22.5342C57.5868 -21.5535 52.6525 -26.0052 46.1611 -24.68C45.5396 -24.8523 45.3652 -25.4552 44.4425 -25.3395C43.7671 -24.6677 43.4749 -23.628 41.6921 -24.0205C41.1474 -21.6557 37.8383 -22.8295 36.5336 -21.3788C36.8643 -21.3099 37.2757 -21.3198 37.2231 -20.8842C36.9565 -20.5311 35.4878 -19.7719 36.1914 -19.564Z" fill="white"/>
<path fill-rule="evenodd" clip-rule="evenodd" d="M115.354 -27.5958C114.899 -27.6659 114.256 -28.542 113.828 -27.9886C114.233 -27.8688 115.041 -27.1635 115.354 -27.5958Z" fill="white"/>
<path fill-rule="evenodd" clip-rule="evenodd" d="M123.849 -16.9755C124.411 -17.6388 123.256 -18.071 122.983 -18.4832C123.752 -19.9884 122.04 -20.4493 121.248 -20.9964V-22.5041C120.013 -23.5971 118.296 -24.554 117.088 -25.1848C116.958 -25.7019 117.685 -25.3897 117.434 -26.023C116.986 -26.1566 115.754 -26.399 115.354 -26.023C117.563 -22.6266 119.889 -17.5626 123.849 -16.9755Z" fill="white"/>
<path fill-rule="evenodd" clip-rule="evenodd" d="M129.079 -18.9225C129.23 -19.8489 127.386 -20.3012 126.545 -20.8695C127.251 -20.0968 127.768 -19.1547 129.079 -18.9225Z" fill="white"/>
<path fill-rule="evenodd" clip-rule="evenodd" d="M159.715 86.8309C159.28 84.8291 157.729 83.8957 156.267 82.8776C156.356 82.1887 156.171 81.7613 155.922 81.3953C155.581 81.006 154.668 81.1669 154.199 80.9004C153.885 79.224 152.266 78.7942 151.959 77.1117C147.638 76.0813 147.757 70.8041 144.03 69.2051C143.886 68.7937 143.805 68.3221 143.858 67.7228C140.087 66.6593 139.994 62.0809 136.619 60.6379C136.734 58.1682 135.449 57.0371 133.517 56.5213C133.283 56.197 133.353 55.5818 133.174 55.2035C132.447 54.8547 131.675 54.5489 131.104 54.0503C128.555 48.0854 123.375 44.6369 119.904 39.555C118.12 38.4583 116.455 37.2474 115.94 34.9422C113.788 33.2646 111.952 31.2861 111.114 28.3534C109.153 28.1938 109.734 25.6098 109.045 24.2344C108.536 24.1177 107.979 24.0465 107.666 23.7407C106.777 20.8571 104.89 18.9277 104.048 15.9987C103.845 15.8083 103.439 15.812 103.014 15.8329C103.055 14.3985 100.638 11.9938 99.2221 11.3871C97.7612 8.4446 95.848 5.93558 93.0187 4.30343C92.9416 2.8383 91.4563 2.7204 91.2944 1.33878C86.2281 -1.39743 82.5045 -5.4158 77.8519 -8.54501C77.1234 -8.50817 76.7392 -8.79923 76.1276 -8.87415C75.4839 -11.3881 72.3128 -11.4863 70.9572 -13.3223H69.4063C63.6539 -16.3914 56.3429 -18.4681 47.6918 -18.2642C47.4592 -18.4251 47.4682 -18.8193 47.1752 -18.9225C40.3975 -18.4288 33.8651 -15.587 28.3902 -12.8274C28.2656 -11.9039 27.3263 -11.759 27.3559 -10.6868C30.9536 -11.4519 33.7238 -12.3706 36.1445 -13.9806C39.2629 -14.1096 41.2776 -15.7552 44.4179 -14.6401C44.9511 -14.9533 45.5486 -15.205 46.1409 -15.4642C52.3752 -15.5293 58.5169 -14.0285 64.5803 -12.9932C65.341 -12.2355 65.9474 -11.3353 66.9946 -10.8514C69.1853 -10.2545 71.1756 -9.46609 72.1637 -7.72218H73.7146C82.1229 -1.53621 91.4524 3.76797 96.8091 12.8695C101.642 16.6508 104.692 22.1355 108.355 27.0357C108.448 27.6731 108.049 27.8389 108.186 28.518C111.314 35.2456 116.95 39.5759 120.765 45.6501C127.374 49.8183 130.169 57.6364 135.241 63.2746C135.645 63.6578 136.357 63.745 136.792 64.0987C137.18 65.8684 138.42 66.8251 139.032 68.3811C143.345 70.9036 144.811 76.1452 149.373 78.4294C151.287 82.0352 153.877 84.9974 157.3 87.16C157.338 87.6894 156.996 87.8564 157.128 88.4778C158.322 89.0047 158.764 90.5938 160.403 89.7956C160.101 90.9623 161.746 90.2696 162.471 90.4538C162.493 91.1145 163.051 91.8821 163.677 91.4424C163.31 89.7808 162.354 87.2288 159.715 86.8309Z" fill="white"/>
<path fill-rule="evenodd" clip-rule="evenodd" d="M133.581 -10.22C133.896 -8.4193 134.989 -6.41353 135.832 -4.61779H137.047C137.761 -1.94998 139.589 -0.337254 139.992 2.63026C142.077 4.3265 143.975 6.20208 145.536 8.39701C145.272 8.92025 145.476 9.12046 145.536 9.71372C149.297 14.8147 154.119 18.9061 158.012 23.8831C157.974 25.1802 158.809 25.6506 159.917 25.8594C160.461 24.0723 159.759 23.6657 159.398 22.0702C159.168 21.7963 158.416 22.0149 158.186 21.741C157.288 17.6533 154.197 15.6475 151.427 13.3384C148.111 7.97203 143.808 3.72342 140.686 -2.14773C140.94 -2.33812 141.121 -2.33812 141.378 -2.14773C137.032 -6.58303 134.404 -12.6507 129.942 -16.9755H129.597C130.478 -14.2978 130.947 -11.2308 133.581 -10.22Z" fill="white"/>
<path fill-rule="evenodd" clip-rule="evenodd" d="M128.731 -10.5427C126.878 -10.8333 126.436 -12.4943 125.672 -13.8463C125.72 -14.6811 126.964 -14.3511 127.202 -15.0025C125.429 -15.2599 124.578 -16.4136 122.614 -16.4887C122.22 -16.0233 122.809 -15.4569 122.614 -14.6725C124.11 -14.1344 124.991 -12.2111 124.652 -10.8727C125.191 -10.4589 126.297 -10.5981 126.523 -9.88268C126.665 -9.19314 126.191 -9.10202 126.183 -8.56148C130.786 -6.04343 133.029 -0.353504 137.227 2.00816C135.403 -2.98976 131.503 -5.96955 128.222 -9.55269C128.466 -9.8088 128.906 -9.87652 128.731 -10.5427Z" fill="white"/>
<path fill-rule="evenodd" clip-rule="evenodd" d="M144.348 -3.83295C142.797 -7.27205 140.773 -10.2193 137.735 -12.5946C139.821 -9.42179 140.841 -5.86313 144.348 -3.83295Z" fill="white"/>
<path fill-rule="evenodd" clip-rule="evenodd" d="M25.1908 -3.00582C25.5127 -3.30042 25.396 -4.01606 25.8794 -4.15723C30.2122 -5.44121 34.9451 -6.34466 39.4663 -7.45065C40.9845 -6.48091 41.8924 -7.93919 43.9376 -7.77962C44.5557 -7.64336 43.7324 -7.15849 44.4531 -7.12167C46.4829 -8.19329 50.0758 -7.04188 52.0223 -7.94411C54.1047 -7.9527 55.2972 -6.44777 57.3527 -6.95596C57.9143 -6.39621 58.8517 -6.1949 60.1057 -6.29924C64.2192 -3.04756 72.068 -3.37285 74.7249 1.27574C76.152 1.44514 76.4098 2.73403 78.1626 2.59286C83.6097 8.57454 90.5186 13.1593 95.7066 19.3865C95.8566 20.042 95.8566 20.2138 95.7066 20.8693C97.8801 20.8177 98.5597 22.1999 99.1469 23.6668C102.115 24.941 102.949 28.2589 106.198 29.2667C104.602 23.8227 99.1431 20.6533 95.5335 16.5877C94.7436 14.4899 93.873 12.4694 91.2353 12.1429C91.2879 11.755 91.8316 11.836 91.7508 11.318C88.1502 9.55408 87.6758 4.79256 83.1506 3.90876C74.639 -5.4989 59.1581 -12.2048 41.3577 -9.59142C40.8896 -9.96582 40.2677 -10.1929 39.2945 -10.0849C38.2443 -9.55337 37.18 -9.03659 36.1978 -8.43879C35.6657 -8.53208 35.7452 -9.21335 35.1656 -9.26245C32.4908 -8.84264 29.9737 -7.44942 27.4271 -7.45065C26.9065 -6.02796 24.4497 -6.45881 24.5035 -4.4862C23.5688 -4.88882 22.7238 -3.92277 22.2686 -3.33357C23.4559 -3.03528 23.8393 -2.45835 25.1908 -3.00582Z" fill="white"/>
<path fill-rule="evenodd" clip-rule="evenodd" d="M143.655 -6.55297C143.745 -7.29041 143.225 -7.4452 142.837 -7.72703C142.755 -6.99689 143.001 -6.57779 143.655 -6.55297Z" fill="white"/>
<path fill-rule="evenodd" clip-rule="evenodd" d="M19.9299 3.8882C21.1865 3.28 22.7662 2.9796 23.8843 2.23843C24.2766 2.52406 24.8472 2.6361 25.605 2.56838C27.3808 1.96141 29.2349 1.42955 31.1095 0.916153C34.769 0.978943 38.5874 0.604668 41.5993 -0.239914C45.7088 -0.441826 48.8181 1.00972 53.1238 0.0912704C53.5841 0.309185 53.4649 1.08236 54.1534 1.08236C55.7741 0.87429 57.3615 0.637909 58.9694 0.421223C62.2378 2.78753 67.2679 3.46221 70.3208 6.03659H72.0403C72.03 6.65217 72.2134 7.08062 72.3839 7.52261C75.9972 7.52138 75.9728 11.0117 79.4361 11.1546C81.6428 13.0555 83.4109 15.3762 85.9715 16.9349V17.926C90.2272 20.6653 92.8647 24.9584 97.3216 27.5033C97.1768 28.1927 97.655 28.2838 97.6666 28.8243C100.548 29.9668 101.571 32.8909 104.889 33.6148C107.195 40.2631 113.197 43.362 116.239 49.3011C122.913 52.4702 124.587 60.442 129.312 65.4848C133.77 73.4222 139.59 80.0545 145.992 86.1266C145.85 87.6952 147.36 87.6767 147.196 89.2649C150.764 92.296 155.803 93.1911 157.343 98.346C159.155 98.2327 159.883 100.943 161.643 99.3371C161.03 98.5676 159.868 98.149 160.44 96.6962C159.841 95.8024 159.105 95.7014 158.375 95.209C158.205 94.6032 157.802 94.2191 157.688 93.558C155.017 91.332 152.298 89.1541 149.26 87.2827C147.983 84.5471 146.333 82.1684 143.757 80.6775C143.489 78.6768 141.985 77.8655 140.66 76.8793C140.1 74.4478 138.749 72.7709 136.534 71.9251C135.332 66.034 130.13 63.9828 128.279 58.7147C127.86 58.237 126.978 58.2 126.56 57.7236C120.626 48.1167 112.79 40.3394 105.578 31.9626C105.702 31.4578 105.401 31.3605 105.405 30.9715C103.981 29.4214 101.33 29.0484 100.762 26.6784C100.259 26.4075 100.114 26.9862 99.386 26.6784C96.8306 23.7371 93.1173 21.9076 91.8171 17.7598C91.4119 17.5443 90.6311 17.6908 90.2708 17.4298C90.0336 17.2181 90.1002 16.7133 90.0989 16.275C86.1241 14.5858 83.8507 11.2654 81.1555 8.34872C78.0295 8.32903 76.9512 5.35083 75.1368 4.38436C74.2534 3.91405 72.9827 4.00023 72.0403 3.39326C71.0632 2.76537 71.0312 2.4231 69.8041 1.90724C66.4319 0.490166 63.7828 -1.67669 58.9694 -1.22978C57.4269 -2.22579 54.5009 -1.89214 53.2943 -3.21196C53.0071 -2.99281 52.7186 -2.77489 52.0904 -2.88078C44.3714 -3.90142 35.2754 -3.31538 28.3566 -0.404892C23.0277 -1.17314 22.0174 2.20396 18.5541 3.22829C18.4977 4.05441 18.131 4.58381 18.2105 5.54043C19.1542 5.3459 20.1825 5.2314 20.7903 4.71431C20.4749 4.46685 19.6376 4.72047 19.9299 3.8882Z" fill="white"/>
<path fill-rule="evenodd" clip-rule="evenodd" d="M149.435 4.44196V2.33356C147.436 0.915859 146.213 -1.24819 144.415 -2.85944C143.92 -0.689339 146.316 0.0461235 146.255 2.33356C147.53 2.8283 148.359 3.75368 149.435 4.44196Z" fill="white"/>
<path fill-rule="evenodd" clip-rule="evenodd" d="M20.8114 11.4213C21.2271 11.3281 20.7306 10.3586 21.3259 10.4358C22.8321 10.6969 24.0085 10.4529 25.2838 10.1061V8.62781C28.3872 8.89747 30.6491 7.19981 34.4056 7.14711C35.0765 6.8468 34.1374 6.02432 35.0932 5.99613C35.9669 5.71053 35.4922 6.70951 36.126 6.65313C43.5453 2.74913 49.4661 8.99553 57.4627 7.8041C60.198 9.30197 62.7664 10.9592 66.4113 11.5855C70.0908 13.7698 73.2251 16.4763 77.4254 18.1629C79.6154 20.7823 83.2154 22.0571 84.8255 25.2318C85.5914 25.3605 85.857 25.0136 86.5446 25.0675C94.3475 32.9564 102.27 40.7326 109.776 48.9071C109.644 49.5261 109.987 49.694 109.949 50.2223C115.144 55.3422 119.918 60.8642 123.716 67.3202C126.745 68.8646 127.921 72.1791 131.631 73.0751C129.987 67.7958 124.528 66.1594 123.2 60.5798C115.801 53.94 111.335 43.6842 102.721 37.7282C103.149 37.5321 103.735 37.4905 104.27 37.3985C102.828 35.4263 100.114 35.6788 99.4511 32.9589C97.7191 33.0251 97.3419 31.7956 96.8685 30.6569C93.7933 29.5439 93.1326 26.1192 90.16 24.9033C89.9675 24.5932 89.9406 24.1274 89.8149 23.7523C87.8584 23.1014 85.7697 22.5743 85.3412 20.4636C83.6234 20.3533 83.2077 18.9952 82.4161 17.9986C81.9902 17.7486 81.0818 17.9582 80.6944 17.6689C80.4583 17.4569 80.5238 16.9555 80.5212 16.5192H79.1459C77.5524 15.0274 76.5274 12.9927 73.4675 12.902C71.6162 11.7118 70.4988 9.81801 67.7879 9.44906C67.3337 9.00779 67.0348 8.41576 66.5845 7.96958C65.9802 7.88868 65.4632 7.72443 64.6909 7.8041C63.2334 5.58183 58.9753 6.03045 56.947 4.35241C54.8288 5.25088 52.6388 3.59122 50.0627 4.35241C48.731 2.99918 45.0168 2.50275 43.1822 3.52993C37.7015 2.32257 32.1014 4.90154 26.8323 5.50216C26.586 6.25354 26.2486 6.91789 25.4557 7.14711C22.9847 6.5514 19.7517 7.74772 19.0884 9.94181C18.8395 10.2507 17.962 9.96142 17.7131 10.2715C17.6259 11.5573 16.4289 11.7853 16.1646 12.902C16.9831 12.7512 17.7259 12.5294 18.574 12.408C18.42 10.953 19.4926 10.8354 20.8114 11.4213Z" fill="white"/>
<path fill-rule="evenodd" clip-rule="evenodd" d="M151.162 4.92872C151.009 5.0986 150.92 5.31966 150.979 5.65832C151.568 5.96867 152.369 6.11023 152.995 6.389C152.861 5.5222 152.375 4.93744 151.162 4.92872Z" fill="white"/>
<path fill-rule="evenodd" clip-rule="evenodd" d="M151.469 6.55232C151.817 6.93784 152.096 7.38906 152.698 7.53217C152.811 6.8254 151.948 6.04269 151.469 6.55232Z" fill="white"/>
<path fill-rule="evenodd" clip-rule="evenodd" d="M21.8932 16.7782C24.3126 14.3569 29.2901 14.3424 32.223 12.4042C34.1675 13.0962 35.2354 11.2437 36.8719 12.4042C39.6802 10.6471 43.9403 9.92976 46.6844 7.70773C43.6104 5.37339 38.2709 8.67504 35.1494 8.84169C34.1521 10.4394 30.9086 9.92614 29.4673 11.1084C28.7818 11.269 28.9513 10.6241 28.2633 10.7848C23.9353 12.7592 19.552 14.683 15.3511 16.7782C15.1624 17.498 15.7682 17.9581 15.3511 18.3976C14.1779 18.3747 13.1858 18.5196 13.1126 19.5316C13.4322 20.0412 14.3281 20.0062 15.1791 20.0183C17.2314 18.7623 18.9693 17.2118 21.8932 16.7782Z" fill="white"/>
<path fill-rule="evenodd" clip-rule="evenodd" d="M153.183 98.6992C153.077 95.9428 149.823 96.1961 149.216 93.9155C147.665 93.6954 146.577 93.0315 145.766 92.1021C143.273 86.8487 137.729 84.5079 135.592 78.9103C135.105 78.7738 135.148 79.1427 134.73 79.0763V78.0854C132.89 77.8112 132.153 76.4834 131.455 75.1175C127.696 73.325 124.767 70.7383 121.624 68.3569C120.47 65.0645 117.389 63.6113 116.105 60.4418C112.68 57.6707 109.774 54.4029 107.138 50.8769C107.014 50.3728 107.435 50.3925 107.311 49.8872C103.64 46.912 101.3 42.6643 97.3092 39.9928C93.3042 33.6538 87.381 29.1492 81.2713 24.8216H80.064C74.6833 20.617 68.8475 15.9894 61.9561 13.774C61.834 13.1617 62.2506 13.0658 62.1297 12.4548C55.9725 11.0717 46.0082 7.14737 41.0891 12.6195C43.8624 14.1735 48.4704 12.6232 51.9546 13.2785C55.903 13.9006 58.4423 15.8689 62.3007 16.5771C62.6877 16.9766 62.9654 17.4807 63.3357 17.8963C68.1687 19.6531 70.7336 23.575 76.0976 24.8216C76.3033 25.5347 75.5332 25.7461 75.9253 26.1408C76.6955 26.4309 77.2419 26.501 78.1663 26.3068C79.6693 27.7268 81.351 28.9783 82.8231 30.4278C87.8245 32.3519 90.0527 36.9266 94.0306 39.828C94.0718 40.7255 94.3842 41.3623 94.8946 41.8074C95.4333 41.8406 96.1598 41.6955 96.4465 41.9721C97.8145 46.162 101.672 47.9693 104.552 50.7122C104.787 51.5863 105.382 52.1174 105.414 53.1858C112.472 61.4991 119.43 69.906 127.66 77.0969C133.463 80.0672 135.937 86.2229 140.938 89.9592V90.7829C143.706 92.7905 144.428 96.5047 148.699 97.38C148.84 98.3427 149.928 98.4017 149.906 99.5229C150.534 99.6926 151.065 99.9556 151.632 100.183C151.494 100.755 151.887 100.816 151.804 101.336C155.291 103.773 157.19 107.731 161.288 109.582C161.709 109.214 162.056 108.778 162.151 108.099C158.763 105.345 157.264 100.788 153.183 98.6992Z" fill="white"/>
<path fill-rule="evenodd" clip-rule="evenodd" d="M155.957 13.1146C155.919 12.3669 155.666 11.8251 154.932 11.7434C154.891 11.9639 154.706 12.0486 154.521 12.1347C154.66 12.786 155.049 13.1978 155.957 13.1146Z" fill="white"/>
<path fill-rule="evenodd" clip-rule="evenodd" d="M15.867 12.7169C15.0582 12.7271 14.6493 13.1185 14.6386 13.8924C15.1864 13.6325 15.3726 13.0294 15.867 12.7169Z" fill="white"/>
<path fill-rule="evenodd" clip-rule="evenodd" d="M149.577 114.886C148.127 112.536 145.958 110.878 143.552 109.444C143.068 103.795 136.692 102.389 134.947 97.4026C134.048 97.1641 133.533 96.5579 133.227 95.7536C132.287 95.3343 131.335 94.9261 130.643 94.2682C129.741 92.5515 128.466 91.1891 127.03 89.9803C126.859 88.0546 125.458 87.3082 124.792 85.8571C124.189 85.776 123.673 85.6124 122.9 85.6924C122.488 84.1085 120.582 83.9536 120.662 81.8988C115.279 78.9217 112.537 73.4127 108.27 69.3646C105.128 64.677 100.802 61.1269 98.1151 56.0041C97.7596 55.6856 97.1565 55.6032 96.7369 55.345C96.5367 54.4916 95.6039 54.3428 95.7052 53.2004C94.7365 52.8647 94.0897 52.2191 93.4674 51.5514C93.3635 51.1554 93.2197 50.7988 93.2967 50.2307C90.0118 46.4494 86.3663 43.0174 81.9368 40.3354C79.9941 36.5332 76.5488 34.1747 74.0183 30.9333V29.449C70.0277 25.2976 65.4313 20.8646 59.2182 19.3877C58.8281 17.6158 55.8589 18.3179 53.8828 18.0695C53.8995 17.558 53.6736 17.2801 53.5389 16.9148C45.6846 15.2166 37.6648 13.6574 31.5068 17.7375C31.1052 17.6871 30.8627 17.478 30.3045 17.574C29.6821 18.0781 29.1291 18.6475 28.2373 18.8934C21.3518 19.8808 17.3906 23.672 11.3713 25.4907C11.3841 27.8664 8.50336 27.4717 9.1334 30.4389C12.9521 28.544 15.8547 25.7735 19.6323 23.8417C24.1568 22.3992 30.0363 20.84 34.6057 18.8934C37.4543 18.6389 40.0271 17.2739 43.2119 17.4092C46.7548 17.5592 49.7779 19.6693 53.0231 19.8833C55.1275 21.7143 59.4171 21.4511 60.9402 23.8417C61.5433 23.9228 62.0592 24.0876 62.8316 24.0064C63.7029 26.6343 68.3377 25.6579 68.339 29.1195C69.1282 30.0134 70.5627 30.2864 71.2659 31.264C71.4494 31.692 71.6842 32.0732 71.6098 32.747C76.1484 35.8754 77.9192 41.6549 83.1417 44.1278C84.9522 47.3409 87.6495 49.7056 90.543 51.8809C90.9845 53.766 92.4306 54.6883 93.6406 55.8381C95.4691 58.8139 98.0586 61.0618 100.18 63.756C103.728 69.704 109.898 73.136 113.088 79.4259C114.27 80.1612 115.127 81.2102 116.187 82.0648C116.183 82.4521 116.484 82.5505 116.358 83.0547C121.985 87.8874 126.16 94.1133 131.333 99.3824C132.042 99.3615 132.412 99.669 133.227 99.5472C134.312 104.83 140.197 105.511 140.797 111.258C142.935 112.069 144.336 113.585 145.273 115.545C150.113 116.683 150.442 122.139 154.911 123.628C155.404 124.917 156.31 125.807 156.805 127.091C157.715 127.138 158.517 127.082 159.043 126.761C159.43 124.467 157.712 124.188 157.321 122.638C153.698 121.052 153.271 116.404 149.577 114.886Z" fill="white"/>
<path fill-rule="evenodd" clip-rule="evenodd" d="M159.029 77.1699C159.608 76.2505 160.5 77.505 160.916 76.3463C159.376 75.5963 158.938 75.2538 157.313 75.5239C157.422 74.4314 157.068 73.7845 156.972 72.8897C156.853 72.5644 156.016 72.929 155.943 72.5595C156.013 71.7788 155.295 71.7543 155.256 71.0779C150.42 69.5755 149.875 63.9524 145.481 62.0228C141.798 57.1079 136.724 53.5261 134.336 47.3702C130.027 45.3584 128.9 40.2926 124.216 38.6428C124.507 37.2656 123.389 37.2422 123.529 36.0086C123.04 35.714 122.381 35.5753 121.986 35.1862C118.613 29.4256 113.778 25.0668 110.67 19.0521C110.19 18.8766 109.55 18.2702 108.954 18.7219C108.313 20.2182 109.24 21.6286 110.154 22.1798C114.274 29.6392 118.228 37.2582 125.246 41.9362C130.212 48.254 135.728 54.0441 139.65 61.3636C144.386 63.4049 147.221 67.2678 150.283 70.9134C150.908 71.0804 151.458 71.3222 151.997 71.5714C152.236 73.8889 155.085 74.1295 154.912 76.3463C155.874 77.3442 157.764 77.4523 158.343 78.8172C158.035 79.4052 158.226 80.154 158.514 80.6265C159.265 80.7554 159.573 79.9146 160.058 80.2976C160.451 80.8536 160.028 82.1916 160.401 82.7673C161.933 82.113 162.411 83.2509 163.659 82.6028C163.889 80.1871 161.883 79.9183 161.43 78.1581C160.95 77.5198 159.344 77.9653 159.029 77.1699Z" fill="white"/>
<path fill-rule="evenodd" clip-rule="evenodd" d="M46.6844 21.013C45.4042 19.084 38.4635 17.7739 37.5285 21.013C39.5866 22.7913 43.9939 21.6521 46.6844 21.013Z" fill="white"/>
<path fill-rule="evenodd" clip-rule="evenodd" d="M30.4072 22.9389C28.6812 22.9353 27.145 23.1014 26.8465 24.3809C28.0299 24.5111 29.8871 23.9341 30.4072 22.9389Z" fill="white"/>
<path fill-rule="evenodd" clip-rule="evenodd" d="M151.401 126.14C148.929 120.597 141.784 119.539 139.888 113.445C137.151 112.281 137.071 108.563 133.701 108.005C131.858 104.058 129.062 101.026 126.141 98.1129C124.606 94.3666 121.954 91.6897 118.752 89.54C118.567 89.1147 118.333 88.7337 118.409 88.0564C113.711 83.8259 109.884 78.7595 106.036 73.7141C103.858 72.7824 101.95 71.5877 101.397 69.0988C100.222 68.4671 99.4445 67.4543 98.6463 66.4599V65.4718C95.2757 62.7149 93.9882 57.962 89.7118 56.0753C86.6178 51.9554 82.3773 48.9342 79.0566 45.0282C78.9131 44.6189 78.8324 44.1469 78.8849 43.5459C77.1618 42.5073 75.4169 41.4871 74.2447 39.9188C74.032 39.4223 74.2357 39.1826 74.0743 38.4353C71.5607 34.8906 68.5193 32.3611 64.6234 29.8623C60.1292 26.9789 56.8764 23.9627 50.8756 22.9388C47.3256 22.9929 44.5213 23.766 41.4248 24.2577C40.3717 23.7758 39.5184 24.0696 38.3321 24.2577C36.9075 23.358 34.5887 24.1298 32.8335 23.7623C29.5538 25.4511 25.9116 26.7933 23.2097 29.0388C19.3099 30.1303 14.9515 30.7854 12.0421 32.8294C11.4348 33.6775 10.4625 34.1728 9.63614 34.8082C9.23131 36.5204 6.62293 36.9579 7.05723 38.9294C7.88228 39.2268 8.65224 38.1895 9.63614 38.1047C10.9993 35.7878 12.0075 33.1268 16.5094 33.8188C17.1551 33.5582 17.5292 33.0383 18.2274 32.8294C18.2517 33.4107 18.9973 33.2989 19.4291 33.4882C22.5089 32.2111 24.232 29.635 28.8812 29.8623C29.6371 29.2699 30.156 28.4489 31.6305 28.5435C33.4446 24.9533 41.2057 27.0698 45.2054 25.5752C45.8126 25.5986 45.9741 26.0485 46.5813 26.0706C52.6718 24.9115 58.4176 28.1809 61.1874 31.8412C67.5867 35.4265 72.7983 40.1536 75.964 46.8423C76.6276 46.8669 76.7583 47.4003 77.5103 47.3364C81.7265 52.2504 87.48 55.6881 90.5701 61.68C91.5745 62.2024 92.1561 63.1266 93.3207 63.4941C97.0372 68.5003 100.285 73.9587 105.52 77.5059C110.148 85.5392 117.727 90.7432 122.36 98.7729C125.65 101.277 126.622 106.005 130.438 108.005C130.391 108.598 130.755 108.8 130.78 109.324C131.834 109.852 132.66 110.598 133.53 111.302C133.508 112.037 133.954 112.325 134.045 112.952C134.465 113.394 134.877 112.991 135.42 113.445C136.114 115.141 138.185 115.518 138.342 117.731C142.552 122.266 148.432 125.196 151.229 131.085C151.374 131.44 152.326 131.023 152.432 131.414C151.782 132.109 151.197 133.163 152.087 134.053C154.83 133.347 155.186 135.806 156.556 135.867C155.99 132.596 154.744 129.199 152.948 126.634C152.501 126.402 151.811 126.406 151.401 126.14Z" fill="white"/>
<path fill-rule="evenodd" clip-rule="evenodd" d="M23.7945 25.7259C21.1064 24.4655 18.7854 26.8858 17.1819 28.162C20.1723 28.7238 22.6243 27.4004 23.7945 25.7259Z" fill="white"/>
<path fill-rule="evenodd" clip-rule="evenodd" d="M161.04 27.8064C161.104 27.0817 160.714 26.678 160.224 26.3462C160.17 26.5518 159.774 26.5126 159.609 26.6389C159.583 27.3875 160.117 27.7368 161.04 27.8064Z" fill="white"/>
<path fill-rule="evenodd" clip-rule="evenodd" d="M41.4472 29.9957C49.367 31.2093 57.0903 32.6371 63.4703 36.0813C60.9545 31.1513 53.0386 30.0234 46.4776 28.4746C43.5131 28.5868 33.0168 27.4324 32.9508 29.8268C32.8939 31.9289 40.3108 30.7418 41.4472 29.9957Z" fill="white"/>
<path fill-rule="evenodd" clip-rule="evenodd" d="M151.169 106.745C150.458 104.95 149.6 103.295 147.557 102.781C146.391 100.597 144.931 98.6963 142.226 97.9907C141.659 96.4427 140.207 95.7481 139.819 94.0264C133.775 88.5462 130.019 80.8666 122.626 76.6819C122.572 74.1992 119.949 74.1893 119.703 71.8926C113.527 67.8606 108.922 62.3164 105.26 55.8694C103.633 54.963 101.431 54.0763 101.822 51.7414C100.025 50.1084 98.4095 48.3006 96.3187 46.9496C94.865 42.8401 90.0002 42.0076 88.9247 37.5347C87.321 36.653 85.8263 35.6678 84.97 34.0656C80.8526 33.4486 79.8271 28.9905 75.857 28.78C75.848 28.9905 75.6378 29.009 75.6852 29.2763C76.8979 33.1222 81.5269 33.685 82.7357 37.5347C87.9992 40.35 91.3231 45.0334 94.9445 49.4286C95.3368 49.5998 95.9803 49.5333 96.3187 49.7574C96.1969 50.3707 96.6123 50.4668 96.4918 51.0788C103.4 58.7573 109.243 67.4616 117.296 74.0391C117.25 74.6339 117.614 74.8346 117.641 75.3605C119.617 76.491 120.963 78.225 122.109 80.151C125.264 81.5279 126.115 85.1128 129.16 86.5931C132.245 91.8873 136.697 95.8712 140.68 100.303C143.123 100.984 144.742 102.457 145.494 104.763C148.555 106.228 149.319 109.899 152.543 111.205C152.741 111.399 152.739 111.79 152.715 112.196C156.174 113.774 156.938 117.941 159.593 120.291C159.944 120.132 160.274 119.952 160.625 119.793C159.521 118.079 159.632 116.58 159.423 114.675C156.967 111.745 154.646 108.689 151.169 106.745Z" fill="white"/>
<path fill-rule="evenodd" clip-rule="evenodd" d="M32.244 29.7535H31.4245V30.5362C32.0654 30.6282 32.337 30.3668 32.244 29.7535Z" fill="white"/>
<path fill-rule="evenodd" clip-rule="evenodd" d="M143.715 128.837C143.695 125.659 140.51 125.526 139.072 123.712C138.168 121.883 136.922 120.383 135.464 119.086C135.411 117.154 133.514 116.995 133.229 115.285C129.954 113.642 128.361 110.38 126.527 107.353C122.975 103.496 119.295 99.7624 116.558 95.1249C114.218 94.0135 114.113 90.7535 112.26 89.1752C111.705 88.9387 111.089 88.7588 110.371 88.6799C108.615 84.9665 105.395 82.665 103.668 78.9294C100.391 77.2858 99.6761 73.1805 96.4481 71.4926C95.5755 69.026 94.3466 66.9019 91.4634 66.3697C90.1332 64.3984 88.7659 62.4616 86.4786 61.4118C86.3248 59.6882 84.6141 59.4578 84.4168 57.776C84.0144 57.3916 83.0495 57.5469 82.6984 57.1156C82.0013 53.8815 76.6666 53.6942 77.3702 50.1742C76.0823 48.5405 72.7057 48.6279 72.9005 46.0431C68.6897 44.8591 67.7671 40.5111 63.6191 39.2679C62.1224 35.9882 57.4797 34.3754 53.4791 34.9705C46.6234 32.0443 36.1605 32.6025 28.7282 32.9869C26.4806 33.6904 24.6212 34.7684 21.8521 34.9705C19.1918 37.8264 11.7736 38.9217 9.82196 41.7469C8.14713 41.9538 7.57817 43.2253 6.04045 43.5642C5.4228 46.1564 3.78897 47.6965 2.43065 50.0091C5.4433 49.2699 6.46717 46.6209 8.27527 44.7211C13.729 42.199 20.2528 40.7033 24.6033 37.1192C26.3883 37.1648 28.0478 35.8588 30.6183 36.1274C33.7771 34.5085 38.5248 35.111 42.3063 35.6321C44.0708 34.6612 47.9484 35.037 49.1825 36.1274C55.5473 37.6638 60.8179 40.2548 65.3388 43.5642C69.7315 48.4283 73.6514 53.7484 79.6037 57.1156C80.8851 59.5736 83.6159 60.6381 84.5872 63.3955C93.4278 70.1004 99.0353 79.9113 106.76 87.6881C106.864 88.0836 107.008 88.4409 106.933 89.0101C108.396 89.8615 109.57 90.9913 110.886 91.9831C112.95 97.711 118.147 100.428 119.996 106.363C124.136 110.311 127.337 115.168 131.512 119.086C134.166 122.426 135.874 126.679 140.447 128.176C140.46 129.541 141.739 129.69 141.48 131.314C146.714 133.114 147.67 139.026 152.995 140.735C152.366 136.218 147.914 135.373 147.322 130.819C145.86 130.053 144.725 129.992 143.715 128.837Z" fill="white"/>
<path fill-rule="evenodd" clip-rule="evenodd" d="M15.6559 36.3589C14.8405 34.6773 12.6039 36.062 12.6039 37.7084C13.7761 38.5285 15.5027 37.6619 15.6559 36.3589Z" fill="white"/>
<path fill-rule="evenodd" clip-rule="evenodd" d="M63.979 36.1231C64.0902 36.8155 65.0712 38.0632 66.5223 38.0276C66.3428 36.851 65.1344 35.8638 63.979 36.1231Z" fill="white"/>
<path fill-rule="evenodd" clip-rule="evenodd" d="M64.6023 44.8618C63.3981 45.0803 63.2196 44.3191 62.3646 44.2024C59.5325 40.4885 53.6898 39.6524 48.4171 38.2748C47.8535 38.0993 47.8637 37.3749 47.3836 37.122C39.0477 36.7328 32.201 38.114 26.3763 39.2632C21.1331 43.0324 13.1156 44.1472 8.1215 48.1558C7.11241 50.8728 2.63826 51.1405 2.95537 54.5782C7.99569 51.2743 13.2414 48.1656 18.7965 45.3553C20.7069 45.6991 20.757 44.2638 22.7584 44.696C24.3632 43.1429 27.3366 42.0686 30.1623 42.227C33.8199 40.2785 39.7243 39.6376 45.1459 39.9213C45.8815 40.1496 45.9829 40.9857 46.6955 41.2399C50.0193 41.4019 55.6463 42.0833 57.3705 44.8618C61.6585 45.4805 63.4636 48.4738 68.0481 48.8139C68.0764 46.3694 65.085 46.8151 64.6023 44.8618Z" fill="white"/>
<path fill-rule="evenodd" clip-rule="evenodd" d="M67.596 39.0019C67.2971 39.6027 68.2458 40.3256 69.0656 40.4622C68.9587 39.6378 68.5337 39.0938 67.596 39.0019Z" fill="white"/>
<path fill-rule="evenodd" clip-rule="evenodd" d="M96.317 78.8134C95.315 76.922 94.2054 75.1312 92.1926 74.2076C91.1125 72.1138 88.942 71.0651 87.3801 69.4361C86.3859 65.8827 81.6208 65.0879 81.7092 61.0438C79.5285 60.774 78.9301 58.9893 76.5534 58.9059C74.6981 55.6382 71.1285 54.0081 68.648 51.339C64.1417 49.7862 60.057 47.8261 56.4477 45.4158C51.7621 44.9485 47.0381 42.315 42.355 43.4423C38.3216 40.4727 34.7289 44.935 29.2925 44.0997C23.9765 47.8948 14.4605 47.6679 11.0779 53.3126C16.089 51.42 21.5318 49.9407 26.5429 48.0481C31.5578 46.7442 37.0249 46.0169 42.355 45.4158C55.7699 46.1984 65.0489 54.2583 74.6635 60.222C75.1004 62.2704 76.3471 63.5461 78.615 63.8417C83.3595 70.6529 91.0356 74.6565 94.5988 82.5975C96.1184 83.6646 97.8596 84.5208 98.3785 86.5459C98.8667 86.7924 99.5099 86.8893 100.097 87.0402C102.426 92.631 107.218 96.5524 110.581 101.189C112.137 103.334 112.79 105.982 115.222 107.44C117.558 113.32 122.953 116.27 125.361 122.083C126.281 122.793 127.024 123.671 128.11 124.222C128.492 125.474 128.14 126.038 128.282 127.017C128.905 127.386 129.079 127.546 130.002 127.347C132.084 131.661 137.086 133.177 139.108 137.547C139.757 138.134 140.454 138.671 141.515 138.864C140.864 140.458 143.045 141.181 143.92 141.332C144.386 144.251 148.044 145.043 150.452 145.116C150.451 143.526 148.999 143.325 148.732 141.99C148.142 142.061 147.769 141.924 147.358 141.826C142.408 136.639 138.455 130.496 132.579 126.195C130.923 121.845 126.996 118.836 125.189 115.173C124.477 115.195 123.86 115.128 123.47 114.843C122.948 114.224 123.667 113.693 123.643 113.034C120.851 111.812 121.003 107.773 117.799 106.947C117.499 105.163 115.453 102.312 113.503 101.025C114.106 98.9688 110.752 98.142 110.753 95.5944C110.384 95.2363 109.695 95.1823 109.205 94.937C108.106 93.1927 106.59 91.8459 105.254 90.3299C104.827 87.4204 100.896 87.077 101.301 83.9136C98.3939 83.4058 99.7533 78.8159 96.317 78.8134Z" fill="white"/>
<path fill-rule="evenodd" clip-rule="evenodd" d="M142.057 145.625C139.299 139.903 132.287 138.266 130.528 131.583C126.355 130.138 126.038 124.991 122.441 122.993C119.895 117.563 115.945 113.479 112.287 109.116C110.386 102.956 104.457 100.663 102.651 94.4124C101.908 94.3545 101.401 94.0725 101.102 93.5872C97.7217 86.6443 91.5892 82.3446 86.9897 76.5718C86.9064 76.0533 87.585 76.1358 87.1642 75.7454C85.2847 73.9139 82.756 72.7056 81.3126 70.4591C80.6853 70.5096 80.1926 70.432 79.7628 70.2928C78.2528 65.3058 72.4102 63.1824 69.6108 58.895C66.2404 59.1389 66.438 54.5743 62.2119 55.0953C61.4691 54.6519 61.0573 53.8895 60.4902 53.2774C54.4166 52.0359 48.3919 46.4836 41.9039 48.8163C40.5709 47.443 37.8292 49.2634 35.8817 48.3212C34.0868 49.1329 31.7159 49.3878 28.9986 49.3127C27.0306 51.4422 22.281 50.9028 19.3623 52.1209C18.1704 53.8969 14.8591 53.6358 12.6511 54.4339C12.0841 54.4278 11.7941 54.1544 11.1039 54.2689C6.66356 55.6237 3.53185 58.2348 1.465 61.8682C2.24376 62.6171 1.17377 62.9447 1.465 63.5211C4.54667 61.8498 7.22421 58.3679 10.5856 56.4169C11.1501 56.4255 11.2437 56.8862 11.9635 56.747C16.8528 54.1901 23.2766 54.7936 28.311 52.7823C28.7934 52.9806 29.499 52.9633 30.202 52.9473C30.5792 52.2625 31.2541 51.8635 32.097 51.6257C32.4472 51.7846 32.7782 51.9632 33.1285 52.1209C38.4361 49.6231 45.7592 51.5765 50.8539 52.4522C53.611 54.4857 57.4034 55.5252 61.0072 56.747C63.7168 59.3754 66.5663 61.8719 70.2984 63.5211C72.2254 66.5165 74.9735 68.7237 77.8717 70.7891C77.8884 73.3461 80.5146 74.1417 80.7956 75.9104C81.4961 76.2836 82.3249 76.5349 82.8612 77.0669C83.2781 77.769 83.5052 78.6521 84.0659 79.2149C84.9396 79.5315 85.6811 79.9773 86.3034 80.5365C97.1867 92.9393 106.903 106.467 117.106 119.523C118.92 124.956 125.085 127.042 125.881 132.905C128.05 134.184 129.054 136.577 131.044 138.027C132.005 141.175 135.178 143.343 138.099 145.13C139.454 147.959 142.443 149.221 144.81 151.077C144.794 151.59 145.022 151.866 145.155 152.234C146.064 152.627 146.708 153.276 147.909 153.39C146.05 150.714 145.309 146.964 142.057 145.625Z" fill="white"/>
<path fill-rule="evenodd" clip-rule="evenodd" d="M132.649 145.703C131.091 142.296 128.489 139.892 125.762 137.607C123.14 130.266 117.14 126.167 113.024 120.26C111.678 117.366 110.428 114.383 107.515 112.991C107.228 110.843 105.153 110.411 105.277 107.869C101.019 103.804 97.8139 98.7298 94.604 93.66C92.8547 92.5859 91.7715 90.8713 90.8166 89.0348C87.1588 86.2129 84.5675 82.3675 80.8327 79.6182C80.9585 78.4062 79.1488 77.7473 79.4556 76.3135C78.7741 75.9748 77.9565 75.7703 77.5612 75.1582C77.5638 74.8835 78.0387 75.0645 78.0772 74.8268C73.7995 69.4072 67.5478 65.8783 63.1007 60.6188C59.9165 58.3327 55.3102 57.4114 51.7397 55.4985C51.0261 55.3088 51.0685 55.8446 50.5346 55.8274C49.8685 54.6289 48.2719 53.6977 46.4032 54.1756C45.1762 52.7431 40.6932 52.9008 39.0003 53.8455C33.7459 53.4822 27.9076 56.1378 22.3028 57.3153C21.7111 57.1663 21.5545 56.6009 20.7537 56.6539C14.0734 58.5606 8.60849 61.2248 4.05485 65.4102C3.07045 68.7322 -1.4588 70.3236 -1.11099 73.8353C5.60909 69.874 9.88551 62.14 19.2033 60.1224C19.7475 59.8182 20.1094 59.3415 20.4084 58.8008C23.5811 59.2393 27.1144 59.626 29.1884 57.9755C32.8257 58.3216 35.5928 56.4161 39.1723 56.1575C40.2196 57.0172 41.5877 56.4272 42.9597 56.4888C47.9087 56.7056 55.798 59.8785 58.4534 62.2706C60.1719 63.8188 62.8132 64.6367 64.8231 66.0704C66.6173 67.3514 67.5337 69.6819 69.1265 70.8619C73.0307 73.7564 76.3086 77.2767 78.7664 81.6001C79.4877 81.5126 79.7289 81.8883 80.3155 81.9302C80.9097 83.1213 81.9005 83.9355 83.0697 84.5747C83.6755 86.9125 85.679 87.9078 87.2024 89.3649C89.3586 92.3051 91.3299 95.4275 94.432 97.4599C97.8614 105.239 104.055 110.363 107.515 118.112C108.483 118.34 109.462 118.556 109.926 119.269C110.651 123.693 113.644 125.942 115.262 129.511C117.166 129.445 117.871 130.532 118.016 132.155C119.765 132.528 119.858 134.858 121.803 135.459C121.26 138.447 123.806 139.783 125.59 141.077C126.186 143.369 127.656 144.822 130.067 145.372C130.267 147.4 131.408 147.941 131.788 149.503C132.468 149.716 132.139 148.958 132.82 149.172C133.682 149.888 134.71 150.441 136.091 150.658C136.901 153.018 139.033 154.115 140.223 156.111C141.847 156.204 141.976 157.733 143.15 158.258C143.325 157.531 143.441 156.378 143.839 155.781C139.624 152.885 138.237 147.276 132.649 145.703Z" fill="white"/>
<path fill-rule="evenodd" clip-rule="evenodd" d="M141.805 163.11C141.02 161.057 138.623 160.548 138.358 157.999C136.692 155.803 132.792 155.74 132.155 152.558C129.637 150.516 128.369 147.279 125.609 145.47C125.714 145.075 125.856 144.719 125.78 144.151C119.715 140.503 118.293 132.41 112.17 128.819C112.048 128.208 112.464 128.11 112.342 127.499C109.104 124.662 107.255 120.499 105.277 116.455C101.649 114.704 101.368 109.753 98.212 107.552C98.2891 106.985 98.1465 106.628 98.0411 106.234C97.5055 106.142 96.9184 106.099 96.4907 105.905C95.3449 102.023 92.1283 99.3463 90.804 96.1777C87.4898 91.9299 83.5051 88.3238 79.6052 84.6364C79.3676 84.425 79.4344 83.9199 79.4331 83.4823C74.2294 78.8461 70.1265 73.1542 64.9613 68.4811H63.2374C60.5399 66.0045 58.4486 62.9501 54.1055 62.0504C51.8858 60.2732 49.2229 58.9187 44.9736 59.0834C42.4418 57.5101 38.9247 59.457 36.0151 59.5787C30.5802 59.8811 25.0206 61.474 19.8182 62.5458C19.0976 63.0645 18.585 63.7847 17.7514 64.194C17.0654 64.3575 17.2324 63.7011 16.5439 63.8646C14.03 66.0205 11.1719 67.8444 8.2752 69.634C5.35797 73.0546 2.15429 76.1986 -1.37438 79.0317V80.1859C-1.72506 80.0937 -1.71221 79.6893 -2.0629 80.0199C-1.94086 81.1396 -2.42386 81.8132 -1.89077 82.4941C-0.367286 82.6883 0.309674 80.7918 1.89995 80.5153C2.28917 79.0182 3.65851 78.4614 4.82874 77.7129C7.7922 72.6896 13.6549 70.4403 18.0956 66.8329C21.3571 64.9524 25.1966 63.6249 30.5018 63.6999C34.1127 61.753 40.0268 61.9533 44.9736 61.721C49.6867 62.5962 53.4016 64.4288 57.0343 66.3376C60.7068 70.4624 65.8977 73.1333 69.9569 76.8882C75.7079 85.3432 83.5 91.8451 89.5978 99.9683C93.8432 108.38 99.6404 115.309 104.933 122.719V123.873C109.62 128.949 113.042 135.236 118.373 139.699C118.6 143.658 122.717 143.895 123.024 147.778C123.97 148.687 124.598 149.899 126.297 150.086C126.613 152.2 128.42 152.892 129.743 154.041C129.535 155.507 130.384 155.955 130.949 156.68C134.67 156.836 135.095 160.91 138.358 160.966C138.722 162.091 140.403 163.263 141.632 164.099C141.73 163.808 141.424 163.131 141.805 163.11Z" fill="white"/>
<path fill-rule="evenodd" clip-rule="evenodd" d="M39.6967 64.574C39.1662 64.5898 38.8772 64.3738 38.4962 64.2456C34.8562 65.5101 29.9453 65.2879 26.3219 66.8661C25.0242 66.1313 23.8978 67.4763 22.3776 67.5215C21.4085 69.9808 18.4832 70.5703 15.8596 71.449C12.0036 74.0426 7.90073 76.4006 5.39862 80.2891C4.78364 80.1927 4.56885 80.4795 4.19807 80.6174C2.21378 83.8713 -1.60139 85.9986 -2.14732 90.1117C2.5104 88.1064 4.10346 82.3432 9.00027 81.1081C9.35315 80.0243 9.63826 78.8794 10.7161 78.4889C11.317 78.5694 11.831 78.7318 12.6019 78.6536C17.9577 74.3209 23.2905 69.1069 31.8082 68.3392C36.5285 66.9344 41.3895 67.1675 47.0714 66.7013C51.1269 67.0137 53.9486 71.0011 57.875 69.8123C54.2491 66.3217 46.5945 62.0854 39.6967 64.574Z" fill="white"/>
<path fill-rule="evenodd" clip-rule="evenodd" d="M0.464919 64.3044C0.772307 64.3056 0.66137 64.7371 1.08316 64.6221C1.08547 64.3056 1.50726 64.4206 1.39402 63.9855C0.716838 63.7342 0.30198 63.9725 -0.620184 63.8267C-0.64214 64.4941 -0.338219 64.7158 -0.620184 65.2576C0.519232 65.4674 0.00383639 64.4905 0.464919 64.3044Z" fill="white"/>
<path fill-rule="evenodd" clip-rule="evenodd" d="M28.9137 75.0899C31.5961 72.3197 38.3338 73.9838 42.2024 72.1153C43.9508 72.1288 45.375 72.64 47.0334 72.2816C49.6026 72.906 51.2365 74.4247 53.7633 75.0899C57.9947 75.0591 60.9293 76.2698 62.7382 78.5596C68.5676 80.0869 69.2095 87.4414 75.6783 87.8109C74.9231 83.2462 70.2131 82.4703 68.776 78.5596C65.0759 75.824 61.6254 72.8506 55.4886 72.4466C48.9851 67.755 39.4106 70.317 30.4678 70.7937C29.674 71.5746 28.6744 72.1621 27.5345 72.6117C26.935 72.7447 26.8707 72.3653 26.3265 72.4466C23.5475 73.3667 21.5868 75.0677 18.9057 76.0814C17.4609 78.1667 15.2815 79.5511 12.693 80.5414C11.5621 81.496 11.1375 83.1255 9.06877 83.1859C8.42163 84.1072 8.56701 85.7885 7 85.8279C6.31556 85.8205 7.02702 84.4779 6.13673 84.6725C4.89393 85.3266 5.62597 85.919 5.96433 86.9857C5.17697 89.2594 2.33371 89.5661 1.64927 91.9408C1.0536 92.0751 0.921083 91.6317 0.614886 91.9408C0.315121 94.5792 -1.94534 96.2013 -2.14732 98.3839C-0.460665 98.4566 -0.333297 97.0364 0.441202 96.2358C5.15896 94.5299 6.11743 89.2262 10.7953 87.4796C11.216 86.7837 10.4415 86.5903 10.6229 85.6628C18.1067 83.4667 21.5084 77.3611 28.9137 75.0899Z" fill="white"/>
<path fill-rule="evenodd" clip-rule="evenodd" d="M137.55 169.76C136.113 169.268 134.28 169.156 133.764 167.783C129.066 167.282 127.727 163.565 123.952 162.182C123.781 161.796 123.65 161.371 123.609 160.863C116.817 159.841 112.876 156.088 109.665 151.638C109.62 150.991 110.29 151.024 110.182 150.319C109.779 149.881 108.982 149.819 108.288 149.662C107.053 147.163 104.871 145.572 103.813 142.905C102.564 142.452 101.92 141.423 101.576 140.105C99.7895 138.354 98.4869 136.142 97.2703 133.845C96.7852 129.587 93.1291 128.365 93.4858 123.299C93.7117 122.529 94.3238 122.126 94.3444 121.159C93.849 120.041 93.011 119.251 91.4197 119.181C91.1117 118.761 90.932 118.22 90.5598 117.864V116.546C89.4921 114.656 88.4424 112.75 85.9116 112.262C81.121 105.863 76.5049 99.3 71.6244 92.9866C67.9618 90.5067 65.0153 87.3414 60.951 85.2448C59.1839 82.599 55.7009 81.5943 54.4112 78.488C50.9219 77.2695 47.9125 75.5929 44.255 74.5354C42.0939 75.3767 38.9857 75.3116 36.1649 75.5241C35.5566 75.8189 34.9907 76.1555 34.272 76.3471C28.7422 77.2597 25.0821 79.9632 21.1911 82.4431C17.0088 82.9995 16.5083 87.0786 12.5839 87.8794C9.75542 91.3235 6.37515 94.2383 3.97662 98.0938C3.36062 97.9968 3.14502 98.2854 2.77286 98.4242C2.74719 100.487 1.03267 100.934 0.190813 102.214C1.33169 103.208 -0.618963 103.423 0.0188482 104.684C2.58549 104.34 2.82291 101.769 4.14858 100.236H5.35362C7.63537 97.5313 10.8501 95.7233 12.068 91.9979C14.0879 90.5264 16.0129 88.9665 17.9199 87.3857C18.8118 87.3611 19.3059 86.9545 19.9861 86.7273C21.6351 83.142 26.9686 83.0867 29.2799 80.1363C33.8306 78.3418 39.1653 79.3257 43.3952 77.3359C45.5614 77.6786 46.6587 79.0444 49.0764 79.1488C49.5487 79.6843 50.3995 79.8587 50.7961 80.4655C52.0217 80.5576 52.816 81.06 53.7233 81.4543C58.7514 87.9003 67.3779 90.901 71.4512 98.2597C72.0941 98.7977 72.8372 99.2386 73.5173 99.7422C77.2441 106.06 82.4441 110.969 85.9116 117.534C86.339 118.003 87.2039 118.056 87.4619 118.687C90.4585 127.13 95.0515 134.048 98.8206 141.753C101.808 145.483 103.476 150.476 107.428 153.286C108.597 155.186 109.914 156.946 112.075 157.898C113.32 160.88 116.647 161.871 119.993 162.84C123.161 165.31 126.585 166.829 130.148 169.101C130.703 169.136 130.878 168.81 131.526 168.936C132.486 169.116 132.536 170.166 133.246 170.583C134.202 170.02 136.595 170.838 137.723 170.914C137.808 170.394 137.414 170.332 137.55 169.76Z" fill="white"/>
<path fill-rule="evenodd" clip-rule="evenodd" d="M134.093 163.388C133.26 162.259 132.264 161.288 131.509 160.087C128.917 159.817 127.885 158.055 126.166 156.951C125.922 156.73 125.922 156.015 126.166 155.795C124.324 154.448 121.915 152.863 121.859 150.346C121.332 149.861 120.209 149.945 119.964 149.19C119.374 144.803 114.948 144.092 114.622 139.451C110.329 136.356 108.179 131.205 104.455 127.565C102.728 121.845 97.2839 119.689 95.6665 113.863C90.2798 110.054 90.0627 101.294 84.6388 97.5192C84.7711 96.8964 84.4294 96.7302 84.4667 96.1985C81.4361 94.3142 79.1121 91.7529 76.368 89.5941C66.9912 88.783 65.8491 80.0825 57.7569 78.0394C57.2687 77.216 56.1497 76.203 55.0025 76.5538C54.8676 76.5907 54.7995 76.6917 54.8304 76.8837C57.9226 81.3478 62.5115 84.3804 67.4087 87.1202C67.9226 89.487 70.524 89.855 71.8871 91.4107C79.3382 91.4267 80.8207 97.161 84.1236 101.151C85.4096 104.596 88.5738 106.241 88.7755 110.727C90.3877 113.857 92.7477 116.274 94.8058 118.981V120.466C98.3605 124.103 101.909 127.75 104.111 132.683C109.695 138.227 113.634 145.35 119.274 150.841C119.004 150.858 118.676 150.82 118.756 151.172C120.317 154.025 123.179 155.631 124.27 158.931C129.904 160.579 132.316 166.19 138.229 167.02C138.484 164.873 135.379 164.602 134.093 163.388Z" fill="white"/>
<path fill-rule="evenodd" clip-rule="evenodd" d="M116.968 164.721C114.219 164.557 113.291 162.641 110.783 162.245C111.137 161.389 110.722 160.922 110.268 160.429C109.332 160.167 108.927 161.003 108.378 160.593C108.799 159.703 108.999 159.063 108.378 158.284C107.767 158.522 107.568 159.157 106.658 159.108C105.823 155.399 102.853 153.739 102.192 149.865C99.6759 149.256 99.5747 146.327 97.8953 144.911C98.0145 144.542 98.4128 144.084 98.0695 143.757C94.3662 140.05 92.332 134.742 89.1334 130.551C88.8849 130.018 88.972 129.165 88.9631 128.405C86.1039 123.337 83.0962 118.414 80.5419 113.052C74.6404 108.599 72.8829 100.164 66.797 95.8843C66.9417 95.6923 67.025 95.4413 66.9699 95.0597C66.1398 94.976 65.4532 94.7545 64.7359 94.565C59.9642 90.0692 55.5026 85.278 48.0704 83.3383C47.3812 82.7907 46.6587 82.275 46.008 81.688C35.0684 80.2136 24.7591 83.662 19.5481 90.1073C10.0855 95.7625 4.52987 105.173 -2.10048 113.548V114.868C-3.08042 115.06 -3.42501 116.632 -2.96001 117.674C-0.994991 117.087 -1.16664 114.445 0.820157 113.879C1.0866 112.428 1.95382 111.555 2.3663 110.247C5.0602 109.092 6.41035 106.649 7.86426 104.304C11.7943 102.305 13.9335 98.5784 16.4545 95.2247C23.2078 89.9904 29.6563 84.4669 40.8533 83.5045C41.9908 83.7617 43.0323 83.9205 44.2902 83.6694C44.9089 83.8996 45.2535 84.3955 45.6647 84.8251C47.581 84.9075 48.3189 86.1247 50.1315 86.3105C58.1299 92.7669 68.5532 96.8947 71.9517 107.769C75.1323 111.758 78.4167 115.645 80.5419 120.646C80.9966 121.035 81.4937 121.385 82.088 121.636C85.0881 127.613 87.5963 134.064 91.7108 138.969C95.277 145.172 98.4397 151.763 102.535 157.458C102.233 160.013 105.084 160.944 105.799 163.069C109.366 162.946 109.328 166.284 113.016 166.041C114.011 168.168 116.243 169.106 119.202 169.344C121.122 173.605 127.286 173.793 131.572 175.781C131.688 175.059 132.323 174.851 132.089 174.13C126.684 171.342 120.9 168.923 116.968 164.721Z" fill="white"/>
<path fill-rule="evenodd" clip-rule="evenodd" d="M2.46094 129.448C3.47673 125.975 5.22231 123.198 6.07394 119.565C7.52196 118.517 8.59804 116.481 8.48133 114.458C9.6972 113.15 11.0849 112.008 11.4069 109.845C17.199 105.478 18.7009 97.3862 26.5438 95.0195C27.9585 92.6982 31.0507 91.276 34.6304 91.5597C36.0361 91.147 36.7556 90.0797 38.0715 89.5823C42.236 89.3354 44.133 91.9146 48.5655 91.5597C51.2564 93.5948 54.2678 95.3241 57.8526 96.5019C60.4806 99.1462 63.1381 101.765 65.9392 104.244C66.6075 105.419 67.0769 106.779 67.8323 107.869C68.7891 108.332 69.9191 109.012 71.1003 108.364C69.8023 102.412 64.3553 100.435 61.1232 96.3361C59.6085 96.1949 58.7928 95.3843 57.5102 95.0195C53.8972 91.4909 50.3624 90.4924 44.7807 88.7594C42.2142 87.9623 40.3776 86.8766 37.8984 87.277C32.409 88.1601 27.1376 89.3293 24.6533 92.8775C20.6734 94.9974 17.5081 97.8971 14.8467 101.278C14.5992 101.7 14.6838 102.44 14.3311 102.762C13.9053 103.231 12.9844 103.23 12.4381 103.585C6.99354 110.771 3.20611 120.776 0.395997 129.448C0.942372 129.621 1.95945 129.505 2.46094 129.448Z" fill="white"/>
<path fill-rule="evenodd" clip-rule="evenodd" d="M117.925 175.742C118.024 173.434 116.51 171.708 114.661 172.274C113.381 171.248 112.489 169.848 111.052 168.972H109.677C107.599 166.787 105.3 164.814 102.116 163.69C101.187 162.601 101.222 160.586 100.053 159.726C100.331 155.389 96.6339 154.867 96.2739 151.142C95.2438 150.151 94.6968 148.693 93.8666 147.509C92.4202 144.058 91.4196 140.176 88.3692 138.264C87.5492 139.583 88.5473 141.471 88.7125 142.888C90.214 145.241 91.3517 147.947 92.4932 150.646C94.1664 152.872 97.6306 155.898 96.9606 158.736C94.1613 155.811 90.1385 154.064 89.7439 148.831C89.3172 148.579 88.7215 148.491 88.5396 148.005C88.0463 145.206 87.0842 142.744 86.4782 140.08C88.6997 135.863 84.094 132.909 82.1825 130.505C81.9993 125.728 79.6253 123.054 77.1988 120.432C74.985 114.965 71.4785 110.739 66.5461 107.886C65.2534 105.494 63.8134 103.248 60.7028 102.603C58.7093 100.5 56.4352 98.6676 53.1427 97.8145C52.4124 97.4687 52.2843 96.5467 51.0788 96.6587C51.1018 96.2513 51.1057 95.8636 50.9071 95.6678C48.7996 95.162 46.7728 94.5773 45.4084 93.3574C39.0334 91.2292 31.7129 93.5802 28.0527 96.9886C21.1831 99.4689 18.7951 106.255 14.3059 111.022C14.3969 111.661 13.9997 111.828 14.1342 112.508C8.32807 117.527 5.59282 125.973 3.82227 133.972C2.00816 137.216 1.36374 140.926 1.41627 145.694C1.84802 145.912 1.95435 145.041 2.10553 145.528C2.9639 145.455 1.72631 145.18 1.93385 144.703C2.37073 144.573 2.7666 144.404 2.96518 144.044C3.85558 133.891 9.34915 127.285 11.5566 118.947C14.0779 116.253 16.3404 113.308 17.9149 109.701C22.3144 105.124 27.5902 101.388 32.1767 96.9886C34.8914 95.3786 38.5171 93.8474 42.4886 94.8432C60.1442 102.423 73.3029 114.326 80.2915 132.156C83.9185 141.108 87.138 150.454 89.9155 160.223C91.4696 161.963 92.2908 164.989 94.3829 166.661C96.6531 171.634 102.972 174.15 106.583 178.383C107.331 178.381 108.13 178.329 108.646 178.548C108.499 179.066 107.995 179.245 107.958 179.869C108.474 180.199 109.331 180.201 109.161 181.19C110.477 180.972 110.776 181.729 111.567 182.016C112.051 181.709 112.639 181.505 113.285 181.356C113.003 185.321 120.101 187.461 122.909 187.464C123.327 187.152 123.694 186.787 123.597 185.978C120.827 185.583 119.745 184.878 117.066 184.162C115.444 182.831 117.036 180.329 115.518 179.043C114.245 179.575 113.211 178.106 111.74 178.713C111.621 178.048 111.904 177.772 111.912 177.229C109.044 176.239 107.269 174.203 104.349 173.265C101.856 169.634 96.8504 167.634 95.9292 163.028C95.4322 162.406 94.7737 161.938 94.3829 161.212C92.5073 161.818 89.7554 157.531 91.1185 156.095C94.8556 159.437 98.7388 162.64 101.256 167.156C103.523 168.941 106.372 170.166 108.301 172.274C109.194 172.493 109.367 171.437 110.021 171.946C109.945 172.541 109.58 172.742 109.849 173.265C110.541 173.879 111.927 173.893 112.6 173.265C114.956 175.476 118.449 177.727 121.878 177.063C121.701 177.443 120.727 177.058 120.846 177.723C124.658 177.865 125.407 181.069 128.579 181.024C127.808 180.225 127.599 178.885 127.205 177.723C123.921 177.264 121.42 173.484 117.925 175.742Z" fill="white"/>
<path fill-rule="evenodd" clip-rule="evenodd" d="M88.2026 112.016C89.3075 108.838 85.345 106.55 84.0906 104.03C83.2283 102.149 82.4849 100.152 81.3492 98.5391C80.8702 98.2265 80.2328 98.0715 79.6362 97.873C78.7203 95.7666 77.296 94.1552 75.3518 93.0475C74.6569 92.983 74.1587 93.1083 74.1523 93.7136C74.9226 96.8471 77.8542 97.8829 78.7791 100.869C82.4849 104.035 83.7789 109.544 88.2026 112.016Z" fill="white"/>
<path fill-rule="evenodd" clip-rule="evenodd" d="M22.8895 112.724C26.415 109.953 27.8946 105.236 32.3642 103.364C34.4089 99.5115 40.5943 99.6058 45.629 98.6044C45.873 97.9801 44.8892 97.275 44.2509 96.9604C40.6765 96.7841 37.8484 97.3179 35.1191 97.9458C31.9557 100.84 27.7187 102.714 25.3002 106.32C23.6999 106.722 22.6223 108.273 22.5453 109.605C20.4659 111.235 18.8604 113.32 18.2388 116.336C17.8253 116.436 17.4515 116.572 16.8594 116.5C11.7361 122.304 8.7654 130.801 6.0066 138.338C6.0066 141.422 5.04076 144.658 4.97397 148.189C5.44919 148.229 5.49928 148.674 5.66239 149.01C7.87791 148.696 8.07955 145.435 7.21389 143.593C8.95677 139.175 10.7921 133.983 11.8646 129.471C14.7518 125.711 15.2964 119.716 20.1332 117.814C20.2052 117.227 20.5918 116.937 20.4787 116.173C21.1273 115.806 21.4882 115.166 22.3732 115.023C22.5003 114.213 22.7328 113.505 22.8895 112.724Z" fill="white"/>
<path fill-rule="evenodd" clip-rule="evenodd" d="M-2.36563 100.333C-1.74913 99.9671 -1.87884 98.7395 -2.97908 98.8853C-3.28886 99.4607 -3.28886 100.357 -2.36563 100.333Z" fill="white"/>
<path fill-rule="evenodd" clip-rule="evenodd" d="M161.643 100.144C162.018 101.476 163.536 100.524 163.086 99.3601C162.396 99.3645 161.852 99.55 161.643 100.144Z" fill="white"/>
<path fill-rule="evenodd" clip-rule="evenodd" d="M16.0378 153.91C15.6872 153.146 15.4342 152.289 15.5202 151.107C16.7224 148.518 16.6761 144.738 18.9662 143.19C21.5953 133.64 24.3824 122.49 28.6131 113.506C31.8702 111.403 33.4886 107.729 36.3655 105.261C40.0915 103.701 44.949 102.962 49.6305 102.789C51.9282 103.224 53.2961 104.554 56.349 104.273C56.0716 103.218 55.0056 102.919 54.2812 102.292C50.5553 100.736 45.2765 99.1361 41.3617 101.632C38.8469 100.943 37.4162 102.686 36.0213 103.611C35.7914 103.887 35.0452 103.668 34.8153 103.941C29.7921 107.324 26.3346 112.206 23.9624 118.124C22.6652 119.246 21.5812 120.573 21.8945 123.235C20.7784 125.961 20.3931 129.385 18.7928 131.646C18.857 132.697 18.4871 133.333 18.622 134.451C16.0635 138.544 15.4598 144.507 13.6258 149.292C13.4742 163.624 17.1501 174.119 23.9624 182.109C19.259 174.739 17.2593 164.777 15.3481 154.735C15.2068 154.105 16.1791 154.539 16.0378 153.91Z" fill="white"/>
<path fill-rule="evenodd" clip-rule="evenodd" d="M-0.805903 105.368C-2.33511 104.635 -2.52814 106.487 -2.65599 107.628C-1.92398 107.631 -1.14308 107.681 -0.636688 107.467C-0.705627 106.779 -0.47374 105.804 -0.805903 105.368Z" fill="white"/>
<path fill-rule="evenodd" clip-rule="evenodd" d="M111.167 184.094C110.722 183.482 110.337 184.695 110.132 184.261C109.145 181.625 105.384 181.646 104.094 179.302C103.678 178.743 103.176 179.949 102.712 179.302C102.585 178.739 103.347 179.03 103.401 178.641H102.021C101.728 177.986 101.257 177.5 101.331 176.493C100.791 176.458 100.064 176.604 99.7772 176.327C98.6823 174.436 97.491 172.011 95.1185 171.865C92.0358 167.16 88.2842 163.095 87.179 156.494C86.8471 155.878 86.1394 155.619 85.9722 154.84C86.8741 152.41 85.4202 150.184 84.7654 148.231C82.3093 147.111 81.9658 143.97 80.4502 141.95C79.4299 135.769 76.4734 129.462 73.3753 124.264C72.9842 123.733 73.5271 123.17 73.2029 122.777C72.8967 121.968 71.7195 121.994 71.4763 121.124C71.2653 120.501 71.1289 119.806 71.1328 118.975C66.8549 113.487 63.5111 107.102 54.9103 105.754C53.2635 106.553 50.8601 105.825 49.5607 105.258C42.4086 104.946 35.8522 105.798 33.6843 110.712C33.0757 110.79 32.7399 111.13 32.3038 111.374C26.7483 119.371 24.089 130.872 20.7426 141.455C21.0848 157.299 23.4907 172.215 30.9246 181.782C31.434 184.654 33.1413 186.38 35.5833 187.4C30.4344 180.49 27.5203 172.117 24.7117 162.773C24.722 159.698 24.2318 156.991 23.3312 154.51C22.8706 146.724 23.3363 138.606 26.4383 132.694C27.1999 129.017 28.1211 125.491 30.7509 123.604C29.9571 120.438 31.636 118.606 32.3038 116.331C32.5907 116.055 33.3176 116.199 33.8567 116.167C35.4109 110.823 38.7161 107.158 45.9377 107.241C46.5887 107.498 47.2281 107.768 48.0065 107.904C56.9714 106.593 60.5211 111.894 65.0923 115.339C68.4361 120.676 71.8044 125.989 74.2373 132.198C79.2485 146.793 85.6222 161.512 93.3945 174.014C95.3514 175.168 97.0767 176.545 97.8808 178.806C101.029 181.133 104.761 182.903 107.026 186.078C111.077 186.223 113.052 191.387 117.897 190.21C116.216 187.635 112.278 187.219 111.167 184.094Z" fill="white"/>
<path fill-rule="evenodd" clip-rule="evenodd" d="M35.7744 171.048C35.56 168.398 34.4981 166.554 33.8677 164.298C33.8819 162.887 33.7851 161.367 34.0421 160.184C32.222 155.967 33.3846 149.867 31.9623 145.207C33.7114 140.018 32.0308 134.337 34.0421 130.069C33.7063 128.472 33.2554 127.699 33.5215 125.789C35.7744 121.509 37.8969 117.107 40.6264 113.281C42.5009 112.211 45.2911 112.006 46.6902 110.483C44.0885 106.732 39.8501 111.647 37.508 112.788C35.3404 116.653 31.8797 119.292 32.1367 125.459C30.2016 127.078 28.6579 129.069 27.9771 131.878C27.702 135.716 25.4736 140.242 28.1515 143.233C30.2287 139.428 28.2458 131.838 31.4417 129.574C31.5528 136.167 30.4328 141.854 29.1901 147.841C29.1591 148.584 30.2636 148.249 30.0556 149.158C28.9989 151.987 30.0983 156.412 31.0968 158.867C30.761 161.905 32.1781 165.601 32.3085 169.236C32.6044 169.998 33.4091 170.277 33.6959 171.048C34.0008 179.116 39.3476 183.617 42.36 189.644C41.9467 190.193 41.3615 189.071 40.9727 189.644C42.4531 190.76 44.2228 191.603 45.8234 192.607C45.3415 190.69 42.8354 190.634 43.5718 187.997C43.2333 187.222 42.0552 187.244 41.6664 186.516C40.4831 182.209 37.2381 178.981 35.9475 175.326C39.9457 178.441 41.5901 183.792 45.3054 187.175C46.4551 188.771 47.4691 190.494 48.7713 191.948C49.4611 192.111 49.2919 191.456 49.983 191.619C49.8861 192.02 49.3112 191.969 49.4637 192.607C51.3342 193.571 51.9116 195.765 54.3144 196.225C49.9881 191.777 46.9925 186.066 42.8781 181.416C41.3331 177.179 37.4861 175.126 35.7744 171.048Z" fill="white"/>
<path fill-rule="evenodd" clip-rule="evenodd" d="M37.5811 160.538C39.5295 164.827 41.1667 170.28 42.755 174.36C38.8672 172.009 37.2969 165.784 37.5811 160.538Z" fill="white"/>
<path fill-rule="evenodd" clip-rule="evenodd" d="M107.272 188.675C104.714 187.936 102.336 187.022 101.581 184.561C98.8426 183.936 97.5822 181.4 96.7488 179.461C95.2055 179.399 94.641 178.4 93.2996 178.144C93.513 177.064 92.4482 177.201 92.6102 176.171C89.0207 174.658 88.9577 169.782 85.7091 167.943C85.313 163.44 83.6976 160.099 81.2245 157.578C79.1037 152.251 77.0884 146.824 74.3246 142.111C70.5397 132.339 68.815 120.6 60.6972 114.962C58.7745 111.332 54.4893 109.571 48.6222 110.191C44.2147 114.433 37.4679 116.444 37.0641 124.505C33.6264 132.202 34.9446 144.14 34.4765 151.49C35.1247 152.792 35.3227 154.521 35.8565 155.932C35.8307 156.236 35.2726 156.034 35.1658 156.261C35.3613 156.842 35.3562 157.615 35.5118 158.236C34.2193 169.728 40.8028 175.124 44.9993 181.929C46.8101 183.273 48.1232 185.091 49.4838 186.865C52.128 191.307 58.0852 192.591 61.9036 195.915C58.6819 191.969 54.3015 189.127 49.8285 186.371C49.9931 185.871 50.5166 185.711 50.3468 184.891C50.159 184.356 49.5019 184.269 49.1392 183.903C48.9617 183.141 48.3508 182.791 48.4498 181.764C46.5811 180.256 45.5137 177.985 44.3086 175.842C43.8122 168.93 41.114 162.311 38.7887 157.084C39.5643 154.269 36.7439 151.85 37.9258 149.681C37.5078 149.037 37.0847 148.399 36.5458 147.87C37.5451 147.561 37.3959 146.158 38.0981 145.566C37.4281 145.383 36.7323 145.225 36.7194 144.414C37.612 142.767 37.6235 141.999 37.0641 140.137C37.4371 139.395 38.2704 139.093 38.4441 138.162C37.347 127.966 40.1854 118.794 47.0699 115.126C47.6653 115.271 48.2016 115.472 48.4498 115.95C49.4903 120.847 47.4608 125.36 47.4132 129.935C47.3515 136.292 49.4041 143.242 51.0362 149.021C52.9691 155.866 55.5014 162.648 58.9726 167.614C58.817 167.905 58.5559 168.094 58.4543 168.437C62.6868 175.479 66.0024 183.395 72.771 188.017C73.4115 188.114 73.7729 187.51 74.151 187.853C76.1033 191.202 80.7435 191.985 82.4321 195.585C85.8454 196.934 88.2208 199.278 91.4026 200.851C92.1009 201.12 92.1961 199.98 92.6102 200.523C92.7607 201.05 92.1614 200.863 92.0932 201.18C93.0218 201.58 95.1168 201.659 96.0595 201.509C95.1348 199.643 90.7981 199.622 90.1949 196.902C86.909 196.362 85.8325 193.714 82.2585 193.446C82.0064 192.821 83.0302 193.413 82.7781 192.789C79.9847 190.021 76.5907 187.829 75.1863 183.739C73.4295 182.655 72.9356 179.549 70.3558 179.789C69.4015 182.845 73.4874 183.781 73.9787 186.536C71.1145 185.534 68.4601 182.919 68.4601 178.637C66.6917 177.364 66.1901 174.879 63.8019 174.196C64.4822 173.136 63.2784 172.965 62.7666 172.551C62.7949 169.781 61.2413 168.519 59.4883 167.45C59.8291 167.006 59.5912 166.012 59.6619 165.31C56.0969 153.902 49.8504 144.175 49.4838 130.264C51.0735 135.22 52.546 140.288 53.625 145.731C55.6686 147.674 56.3528 150.916 57.936 153.3C58.0582 157.68 60.395 159.951 61.2155 163.665C63.7787 168.257 66.7573 173.241 70.0124 177.651C74.1317 178.766 74.8468 183.13 78.4645 184.727C78.1597 185.073 78.0749 185.213 78.2909 185.713C81.6849 188.73 83.8957 192.875 89.5043 193.775C86.383 190.006 81.6669 187.761 79.1539 183.411C77.19 182.595 75.6866 181.344 75.1863 179.132C69.9108 175.334 67.6743 168.636 63.9729 163.337C64.1838 161.633 62.8669 161.22 62.4206 160.21C61.8033 158.809 61.5383 157.468 61.0419 156.425C58.8826 151.904 59.0369 146.166 55.3484 143.427C53.8025 136.4 50.7867 130.777 50.1745 122.86C51.3127 121.751 51.2857 119.532 51.2098 117.266C54.6385 117.42 56.4622 120.463 58.2807 122.695C59.8317 129.342 64.0527 135.721 64.4912 143.427C65.5561 144.06 65.9329 145.253 65.5252 146.883C67.4659 148.269 67.6035 151.372 68.1141 154.121C69.6137 157.902 71.3795 161.428 73.2893 164.816C73.9028 168.291 76.3001 170.061 77.9475 172.551C78.6755 172.898 79.4715 173.18 79.8445 173.867C79.703 174.211 79.1346 174.508 79.4998 174.854C84.2133 181.328 89.6381 187.119 97.0935 190.978C97.0408 191.364 96.7566 191.659 97.0935 191.966C99.132 192.766 100.436 194.263 103.303 194.268C103.529 194.823 103.541 195.58 103.995 195.915C105.247 196.166 106.536 197.19 108.133 196.573C108.293 195.386 105.715 195.42 106.238 193.775C105.372 193.304 103.754 193.877 103.303 193.775C103.694 193.478 103.71 192.945 103.476 192.46C99.5667 190.65 95.3753 189.108 93.8166 185.056C89.8143 184.264 89.0966 180.344 85.7091 178.967C86.1373 177.571 84.4384 177.402 85.0197 176.171C84.324 175.738 83.524 175.404 83.4674 174.36C83.3157 173.615 84.3291 173.976 84.3304 173.372C82.6546 173.1 82.1903 171.186 80.3615 171.564C76.3374 165.256 70.5397 158.255 71.2187 149.515C68.869 148.19 69.651 143.88 67.5984 142.276V138.492C62.8759 130.763 62.7267 118.675 53.9684 114.796C51.8194 115.285 49.588 114.646 49.3115 112.824C56.0789 111.868 61.0265 116.883 62.7666 122.367C67.255 128.396 69.5224 136.544 71.5647 144.908C72.7029 145.963 73.5568 147.286 73.8063 149.186C74.2423 149.592 74.8532 149.833 75.1863 150.337C75.4487 150.856 75.7612 151.325 75.8769 151.983C77.9913 153.806 78.8002 156.874 80.0168 159.552C81.2849 161.614 84.432 165.087 83.1215 167.45C81.1679 166.571 80.3268 164.631 79.8445 162.349C76.1457 160.172 77.4833 152.318 72.9446 151.49C72.4662 152.642 73.4064 153.763 73.117 155.275C76.8402 160.773 78.9172 167.841 85.1908 170.905C85.2615 171.684 84.8834 172.038 85.0197 172.88C91.5016 181.616 100.054 188.375 110.722 193.119C111.594 193.129 111.71 192.909 112.447 193.119C112.542 193.411 112.534 193.801 112.793 193.941C112.543 192.644 113.621 193.437 113.828 192.789C110.797 192.717 110.609 189.936 107.618 189.826C107.387 189.552 107.16 189.276 107.272 188.675Z" fill="white"/>
<path fill-rule="evenodd" clip-rule="evenodd" d="M5.31209 114.18C5.29682 113.228 5.27518 112.267 5.48264 111.529C2.58844 112.255 2.82644 116.018 0.531693 117.325C0.0238709 120.488 -2.71251 124.605 -1.17505 127.592C-1.12796 124.548 0.342055 122.882 1.89734 121.3C2.15316 118.07 4.06736 116.449 5.31209 114.18Z" fill="white"/>
<path fill-rule="evenodd" clip-rule="evenodd" d="M82.2944 197.427C81.0481 197.024 80.4966 195.959 79.1833 195.617C78.1639 193.516 75.7925 192.703 74.5154 190.848C69.7327 189.149 67.1242 185.381 64.6614 181.471C64.2219 181.126 63.477 181.064 62.9344 180.813C63.0685 179.757 61.9446 177.188 60.1687 176.865C57.4004 170.55 54.2404 164.391 52.7351 157.621C51.6937 156.201 51.1061 154.348 49.7967 153.18C50.9102 152.333 49.4087 150.751 49.624 149.231C49.3005 148.607 48.4692 148.467 48.2398 147.753C48.4654 144.587 47.955 142.508 47.2049 139.528C46.3569 136.167 46.6649 132.092 45.6481 129.822C46.4987 128.07 46.4136 125.319 45.8208 123.409C46.1881 121.827 47.5374 120.344 47.0322 118.474C45.4986 117.868 44.938 119.53 44.264 120.283C43.7562 126.4 45.0127 132.638 44.6106 139.033C45.6855 145.034 47.7282 150.006 47.3763 156.305C48.5504 156.12 48.9641 156.658 49.624 156.963C53.3898 166.867 56.671 177.233 63.7979 183.939C64.035 184.264 63.9629 184.879 64.1446 185.256C70.7006 191.955 78.4796 197.492 86.6169 202.691C87.8954 202.954 89.304 203.094 90.9382 203.02C87.8709 201.935 86.0396 199.675 82.6411 198.907C82.4362 198.498 82.3898 197.939 82.2944 197.427Z" fill="white"/>
<path fill-rule="evenodd" clip-rule="evenodd" d="M-2.73995 119.14C-2.6957 118.987 -2.56904 118.911 -2.33099 118.943C-2.26842 118.427 -2.61329 118.3 -3.15044 118.356C-3.20691 118.801 -3.10009 119.092 -2.73995 119.14Z" fill="white"/>
<path fill-rule="evenodd" clip-rule="evenodd" d="M11.4399 146.678C11.7576 144.608 13.2061 142.715 13.6642 140.741C14.3201 137.928 14.9454 135.589 15.8898 133.155C16.2637 132.238 15.0437 132.003 15.3768 131.671H16.4041C16.9286 129.683 17.2693 128.123 18.7994 126.89C18.026 124.71 21.3568 123.154 19.8267 120.292C16.8647 120.206 16.6414 124.134 15.8898 126.724C14.5269 127.719 14.0381 129.558 14.1798 132.001C11.3008 133.968 12.1954 139.112 9.89958 141.895C10.0884 145.156 9.44655 147.615 9.04329 150.306C9.62776 156.725 10.0578 164.258 12.9802 168.446C12.9279 169.047 13.0083 169.519 13.1512 169.931C13.6336 170.07 13.8543 170.464 14.5218 170.424C11.4016 163.322 10.2531 154.397 11.4399 146.678Z" fill="white"/>
<path fill-rule="evenodd" clip-rule="evenodd" d="M57.2518 132.709C58.8571 134.679 59.4425 137.627 59.8234 140.769C57.7183 139.334 57.2326 135.656 57.2518 132.709Z" fill="white"/>
<path fill-rule="evenodd" clip-rule="evenodd" d="M63.2514 153.929C67.4962 168.446 76.488 178.407 85.7112 188.145C86.9702 188.803 88.279 189.408 88.7967 190.778C89.1916 191.159 89.3488 190.473 89.9968 190.612C90.9107 194.123 93.8735 195.666 96.3403 197.686C97.1136 197.498 97.621 197.05 98.5682 197.029C95.6195 194.595 93.0798 191.767 89.483 189.955C88.0131 187.361 85.6741 185.604 83.3108 183.869C82.9376 182.966 82.3982 182.222 82.2819 181.074C76.874 176.667 73.4358 170.368 70.1113 163.964C68.8651 157.151 63.4802 152.891 62.9114 144.882C60.589 142.56 61.7994 137.229 60.5098 133.531C59.84 131.61 58.475 130.795 58.452 128.926C57.855 128.183 57.0115 127.676 56.5654 126.787C56.8696 125.179 55.617 125.066 55.3665 123.991C55.5173 122.31 55.231 121.048 54.3376 120.371C52.6274 119.992 52.373 121.009 52.2797 122.182C54.9626 129.587 54.4705 140.038 59.9947 144.717V146.692C61.0594 149.126 61.7803 151.888 63.2514 153.929Z" fill="white"/>
<path fill-rule="evenodd" clip-rule="evenodd" d="M118.185 157.334C119.103 157.851 120.708 158.511 121.967 158.159C121.372 154.994 117.53 154.939 116.81 151.895C116.299 151.835 115.937 151.632 115.606 151.4C113.643 146.689 110.393 143.211 107.182 139.696C106.858 139.457 107.161 138.617 106.837 138.379C105.601 136.983 103.824 136.104 103.743 133.598C102.177 133.232 102.327 131.22 100.821 130.795C99.494 127.782 97.7559 125.16 95.3191 123.211C94.9897 123.281 94.5782 123.273 94.6308 123.708C93.9604 125.396 96.0472 125.865 96.351 127.169C98.9838 133.876 104.061 138.236 106.837 144.806C111.424 148.213 114.599 152.973 118.185 157.334Z" fill="white"/>
<path fill-rule="evenodd" clip-rule="evenodd" d="M65.9376 195.318C62.9271 194.645 62.6361 191.358 60.287 190.049C58.2519 186.849 55.1675 184.653 52.9256 181.652C52.5847 181.329 52.8158 180.711 52.9256 180.335C50.3888 178.556 48.6487 174.408 48.6436 171.279C45.7213 167.906 46.726 161.633 44.1905 157.778C45.6945 156.092 44.0795 153.916 43.8471 152.016C43.4258 148.546 41.9448 144.881 42.1363 140.984C42.1798 140.108 42.7415 139.262 42.8207 138.351C43.1373 134.729 41.7533 130.986 42.8207 126.989C42.4606 126.238 42.5104 125.093 41.7929 124.684C41.1546 124.618 40.7882 124.816 40.7665 125.343C40.566 128.686 40.0477 133.03 40.7665 136.21C38.9766 144.819 41.0895 152.502 42.1363 160.249C42.8564 165.575 47.0861 170.373 46.9303 176.219C49.7416 180.484 52.9984 184.324 55.8352 188.566C57.7081 189.511 59.1814 190.838 60.6304 192.189C61.284 192.664 61.5509 191.68 62.1713 192.189C62.3871 195.418 66.4674 197.694 68.5075 200.256C70.2464 200.736 72.0835 201.962 73.6436 202.066C72.1027 200.581 69.0195 199.163 66.7942 197.786C66.8938 196.594 66.2172 196.149 65.9376 195.318Z" fill="white"/>
<path fill-rule="evenodd" clip-rule="evenodd" d="M-3.16465 129.004C-2.7761 129.184 -2.62067 129.607 -1.9877 129.53C-1.55152 129.226 -1.64552 128.369 -1.65054 127.606C-2.7222 127.482 -2.97789 128.209 -3.16465 129.004Z" fill="white"/>
<path fill-rule="evenodd" clip-rule="evenodd" d="M-1.08494 137.814C0.531207 136.223 0.853689 133.214 1.92199 130.45C-1.10486 128.287 -1.25054 134.969 -1.08494 137.814Z" fill="white"/>
<path fill-rule="evenodd" clip-rule="evenodd" d="M-3.13352 129.834C-3.35479 130.455 -2.34458 130.932 -1.9051 130.487C-2.46056 130.386 -2.41325 129.805 -3.13352 129.834Z" fill="white"/>
<path fill-rule="evenodd" clip-rule="evenodd" d="M37.8432 186.116C34.5375 180.276 32.1287 173.569 29.4453 167.128C29.8899 166.841 29.7915 166.031 29.789 165.311C27.6064 158.125 28.4013 149.34 25.5031 142.195H24.9881C24.5115 143.717 24.8476 146.02 24.3032 147.479C24.7594 148.2 24.6712 149.343 24.4757 150.286C25.3881 153.922 26.0296 157.365 26.3618 161.018C27.0506 168.645 30.8458 176.28 34.2448 181.823C35.8204 184.394 36.9002 187.715 40.0718 188.924C39.9542 187.385 38.9013 186.749 37.8432 186.116Z" fill="white"/>
<path fill-rule="evenodd" clip-rule="evenodd" d="M149.943 145.615C150.163 146.219 150.352 146.852 151.004 147.063C151.584 146.665 152.216 145.869 151.888 145.131C150.976 145.053 150.407 145.284 149.943 145.615Z" fill="white"/>
<path fill-rule="evenodd" clip-rule="evenodd" d="M21.2511 165.555C21.7353 161.511 20.0237 159.602 19.7253 156.321C19.3524 152.894 20.542 148.525 19.0465 145.602C16.0707 147.658 18.4915 153.463 17.1819 156.978C17.9884 159.852 17.8102 163.846 20.5723 165.555C20.2525 165.794 19.8214 165.923 19.8947 166.545C21.93 174.24 25.0663 182.622 30.4072 186.003C29.6095 183.645 27.927 182.149 26.6755 180.232C24.6289 175.573 23.5202 170 21.2511 165.555Z" fill="white"/>
<path fill-rule="evenodd" clip-rule="evenodd" d="M1.62317 146.089C1.13333 147.675 1.62775 148.845 1.82918 150.47C2.75241 149.932 3.72447 146.58 1.62317 146.089Z" fill="white"/>
<path fill-rule="evenodd" clip-rule="evenodd" d="M6.22304 153.814C7.29518 152.56 6.74847 150.954 6.04479 149.685C5.4994 149.803 5.51936 149.399 4.97397 149.519C5.24267 151.716 4.45253 155.697 6.57953 157.285C7.34839 155.984 6.99455 154.811 6.22304 153.814Z" fill="white"/>
<path fill-rule="evenodd" clip-rule="evenodd" d="M62.0865 185.19C61.742 184.913 60.8169 185.204 60.5464 184.86C60.5656 184.548 61.1117 184.745 61.0594 184.364C56.3715 179.042 52.6495 173.05 51.1337 165.044C49.0743 163.29 50.2022 158.458 47.5406 157.285C46.7278 157.436 46.8529 158.492 46.6844 159.267C47.9119 161.122 48.0791 163.026 48.5665 165.044C50.6169 173.564 54.8123 180.581 59.1773 186.015C64.6053 190.355 68.4446 196.228 74.9227 199.555C74.9239 200.159 75.4088 200.297 75.6066 200.712C78.1623 201.493 79.5773 203.375 82.2811 204.013C82.6154 203.675 83.2317 203.611 83.3083 203.024C74.0946 199.143 68.1384 192.12 62.0865 185.19Z" fill="white"/>
<path fill-rule="evenodd" clip-rule="evenodd" d="M6.59415 158.745C6.34461 159.772 6.51675 162.438 8.02596 163.126C7.92721 161.48 7.58561 160.059 7.13058 158.745H6.59415Z" fill="white"/>
<path fill-rule="evenodd" clip-rule="evenodd" d="M16.0674 173.011C15.5537 172.384 15.1135 171.689 14.2108 171.401C13.6404 172.979 16.3028 172.977 15.5108 175.269C16.0148 175.169 16.9839 175.475 17.1819 175.109C16.6876 174.569 16.0826 174.128 15.695 173.496C15.713 173.241 16.1698 173.37 16.0674 173.011Z" fill="white"/>
<path fill-rule="evenodd" clip-rule="evenodd" d="M114.352 177.673C114.687 177.973 115.382 178.488 115.863 178.039C115.731 177.222 115.121 176.986 114.504 176.755C114.376 176.969 114.304 177.247 114.352 177.673Z" fill="white"/>
<path fill-rule="evenodd" clip-rule="evenodd" d="M118.406 179.759V180.984C119.788 181.831 121.052 182.802 122.984 183.083C123.308 182.425 124.427 182.589 124.51 181.683C121.963 181.471 121.065 177.809 118.406 179.759Z" fill="white"/>
<path fill-rule="evenodd" clip-rule="evenodd" d="M127.63 184.543C128.117 184.202 128.716 183.959 128.551 183.013C127.007 181.542 125.43 184.428 127.63 184.543Z" fill="white"/>
<path fill-rule="evenodd" clip-rule="evenodd" d="M36.0028 187.963C35.9784 188.535 37.1992 188.77 37.2313 188.158C36.9886 187.932 36.5079 187.936 36.0028 187.963Z" fill="white"/>
<path fill-rule="evenodd" clip-rule="evenodd" d="M117.407 191.315C118.053 191.281 118.628 191.176 118.634 190.531C118.195 190.167 117.244 190.5 117.407 191.315Z" fill="white"/>
<path fill-rule="evenodd" clip-rule="evenodd" d="M53.2971 191.844C54.2166 194.831 57.6295 195.486 59.9097 197.199C57.9 195.231 56.5061 192.688 53.2971 191.844Z" fill="white"/>
<path fill-rule="evenodd" clip-rule="evenodd" d="M99.7897 198.034C99.718 197.649 100.109 197.686 99.9643 197.235C98.5175 197.072 97.6963 197.443 98.2164 198.674C99.6306 199.192 101.13 199.633 103.112 199.633C103.428 197.798 101.488 198.027 99.7897 198.034Z" fill="white"/>
<path fill-rule="evenodd" clip-rule="evenodd" d="M59.9097 197.805C60.6208 198.16 61.5215 199.759 62.453 198.891C61.5203 198.712 61.0474 197.266 59.9097 197.805Z" fill="white"/>
</g>
</svg>
