<svg width="480" height="297" viewBox="0 0 480 297" fill="none" xmlns="http://www.w3.org/2000/svg">
<mask id="mask0" mask-type="alpha" maskUnits="userSpaceOnUse" x="0" y="0" width="480" height="297">
<path d="M21.6964 55.1334C105.26 -68.9169 222.196 55.1337 404.696 55.1334C505.452 55.1332 503.543 227.983 404.696 247.5C337 260.867 232.5 351.5 107 247.5C29.4207 183.211 -34.5948 138.697 21.6964 55.1334Z" fill="#C4C4C4"/>
</mask>
<g mask="url(#mask0)">
<g opacity="0.6">
<path fill-rule="evenodd" clip-rule="evenodd" d="M-12.8912 167.675C-12.4472 169.234 -13.8392 172.477 -12.0872 172.837C-10.8242 172.015 -10.7012 167.593 -12.8912 167.675Z" fill="#D7DBDB"/>
<path fill-rule="evenodd" clip-rule="evenodd" d="M-8.13271 185.863C-7.05917 183.713 -5.87571 178.44 -9.07294 178C-9.13842 181.027 -7.61816 186.236 -10.9557 185.146C-10.7756 185.775 -11.3346 187.248 -10.6423 187.293C-10.2096 186.353 -9.49159 185.745 -8.13271 185.863Z" fill="#D7DBDB"/>
<path fill-rule="evenodd" clip-rule="evenodd" d="M-4.89302 146.596C5.88905 137.923 14.9686 127.505 26.6639 119.77C32.2953 113.938 40.1124 110.349 44.9899 103.741C45.7893 103.852 45.6198 104.956 46.6849 104.787C47.3097 102.06 49.3538 100.795 51.7748 99.9118C52.1391 99.0079 51.9899 97.5767 52.7918 97.1221C69.2584 88.4829 80.7337 74.7136 97.2432 66.1159C98.2425 63.173 99.0116 57.5364 103.011 59.843C103.927 58.4612 104.013 56.2299 104.709 54.6195C116.614 40.9437 137.705 36.6994 146.107 19.4287C151.71 15.6624 156.443 10.9999 160.357 5.49582C160.893 5.5244 160.623 6.38157 161.377 6.18935C168.372 3.50355 168.951 -5.77206 176.647 -7.74615C177.158 -8.61111 177.12 -10.0475 178 -10.5333C173.297 -14.5671 170.866 -9.15139 166.806 -7.74615C165.895 -1.48101 161.594 1.30349 155.948 2.70873C151.705 7.41277 147.726 12.3818 141.695 15.2494C141.905 17.9014 140.217 18.6079 139.661 20.4755C133.222 22.3457 131.191 28.7355 125.747 31.6239C125.188 31.6161 125.554 30.6551 125.069 30.5771C122.901 35.7877 117.249 37.4163 112.513 39.9878C112.02 41.2216 112.361 43.3152 111.496 44.1672C110.52 44.1256 110.907 42.6814 109.799 42.7749C108.428 44.1542 107.615 46.1049 105.387 46.6062C105.625 49.1725 104.527 50.3674 102.672 50.7856C101.402 50.8141 102.586 48.318 101.316 48.3491C99.6719 50.6089 99.4846 54.3623 97.5822 56.3624C95.7835 55.7078 94.5819 55.5546 93.1702 56.7104C92.2595 57.6144 93.5851 57.7598 93.5117 58.7988C84.5233 65.3653 78.4796 74.9552 67.0448 79.0072C63.2906 81.306 62.9465 87.1114 57.5428 87.7192C54.7246 93.8804 47.7423 95.7714 43.9678 100.956C36.773 102.276 33.2212 107.338 29.3784 112.104C27.0661 112.398 26.1276 114.107 23.9494 114.543C23.0463 117.419 20.3545 120.027 17.1619 119.419C16.7926 120.432 16.8583 121.892 16.4864 122.902C15.1887 123.315 14.3993 124.248 12.4134 123.949C8.0141 130.697 0.432238 134.178 -3.53451 141.368C-3.93675 140.968 -4.73618 140.975 -5.57102 141.022C-8.30828 144.705 -9.76292 148.672 -11 153.217C-7.81243 152.189 -6.80051 148.934 -4.89302 146.596Z" fill="#D7DBDB"/>
<path fill-rule="evenodd" clip-rule="evenodd" d="M-10.1426 167.624C-9.34456 167.302 -9.92356 164.947 -10.9496 165.13C-10.7036 165.988 -11.5976 168.017 -10.1426 167.624Z" fill="#D7DBDB"/>
<path fill-rule="evenodd" clip-rule="evenodd" d="M176.312 2.30686C168.062 5.6917 164.744 14.1447 157.304 18.3595C155.621 25.3529 147.364 25.587 146.101 33.0176H144.064C140.46 38.4994 132.258 39.2565 127.432 43.4843C123.398 42.761 121.08 46.3722 119.286 49.0702C113.678 52.1402 109.376 56.5605 106.048 61.9799C119.451 60.9834 124.332 46.3488 136.598 44.1841C135.305 47.5091 130.74 47.4649 130.826 52.2104C129.758 52.9701 128.69 53.735 126.754 53.605C123.727 61.777 112.383 61.3997 107.407 67.5632C103.427 68.1564 100.099 70.6618 96.2042 72.7978C95.202 73.1022 96.9912 73.3208 96.5458 74.195C93.9013 74.9677 93.2104 77.7463 90.0952 78.0299C89.4803 78.6777 90.037 80.5302 89.0754 80.8241C88.4731 80.5145 88.215 79.8537 87.0407 80.1269C85.7881 81.2821 85.5806 83.5117 83.9863 84.313C82.9411 84.5758 83.3333 83.353 82.2882 83.6158C81.3164 85.9131 78.4973 86.4595 75.1594 87.1073C75.2758 88.2833 76.0173 90.6222 75.1594 91.6421C74.3977 91.4964 75.1518 89.7923 74.4812 89.5477C70.0323 91.1426 66.5729 93.7443 64.6395 97.9226C59.062 99.5175 56.1492 103.852 51.4017 106.3C52.6999 106.381 52.9024 107.336 52.419 108.392C50.7336 108.845 50.7514 107.546 49.362 107.695C44.2932 112.388 38.8219 118.476 32.3916 120.607C27.1379 129.05 17.772 133.259 11.3467 140.497C10.2434 140.294 9.76763 140.734 8.97048 140.846C6.60433 146.208 2.57555 149.858 -0.873715 154.107C-5.73761 154.82 -7.90384 160.119 -8 164.576C-5.06952 163.051 -3.28289 160.354 -1.55193 157.596C-0.909145 157.518 -0.802858 157.991 -0.195504 157.944C6.52335 148.568 16.9116 142.961 24.9236 134.914C26.0219 134.485 25.1843 136.04 26.2826 135.611C29.9343 132.273 33.872 129.224 38.1614 126.539C48.3574 112.94 63.5868 104.521 76.1792 93.3852C84.1204 90.8538 90.118 86.3138 97.224 82.9185C105.13 72.5507 119.552 68.8822 128.791 59.8855C129.295 59.0087 129.636 57.9628 130.487 57.4425C135.804 53.4879 141.032 49.4396 142.707 41.7385C146.584 39.7976 149.725 37.0892 151.534 33.0176C156.846 29.9865 160.331 25.0771 164.43 20.8025C164.876 20.355 165.683 20.355 166.128 20.8025C168.006 18.5442 169.517 15.9112 171.559 13.8247C173.153 13.2523 174.533 12.4588 175.973 11.7277C177.643 5.65267 184.645 5.05947 185.814 -1.53068C191.285 -2.88877 193.115 -7.98554 196 -12C186.09 -10.6705 182.208 -3.14634 176.312 2.30686Z" fill="#D7DBDB"/>
<path fill-rule="evenodd" clip-rule="evenodd" d="M-6.98997 113.117C-8.78997 112.919 -9.00297 114.362 -8.99997 116.026C-7.21497 116.208 -6.80997 114.966 -6.98997 113.117Z" fill="#D7DBDB"/>
<path fill-rule="evenodd" clip-rule="evenodd" d="M12.4872 111.241C15.9817 113.319 21.671 109.234 22.3234 104.942C23.3651 104.681 22.9732 105.9 24.0175 105.639C24.4145 105.117 24.4398 104.209 25.034 103.89C42.9641 94.5063 56.8181 80.917 70.8213 67.4764H72.1766C75.8152 62.5977 81.8155 60.1545 86.4225 56.2756C86.415 55.4507 87.0066 55.2445 86.7614 54.1742C91.333 51.0732 94.5772 46.6043 99.6495 44.0201C100.722 43.1456 101.058 41.5064 102.024 40.5196C104.588 40.4831 105.435 38.6715 106.092 36.6668C111.39 36.0638 114.437 33.1455 116.945 29.6633C117.256 30.2794 117.577 30.8824 118.642 30.7153C121.38 24.4401 126.46 20.5846 132.549 17.7629C132.832 16.8884 132.991 15.8861 132.887 14.6096C144.324 8.5615 149.793 -3.64697 159 -12C155.738 -10.9324 152.153 -10.1963 150.863 -7.09782H148.828C145.882 -4.76418 143.593 -1.76232 140.349 0.255453C137.353 7.5513 128.713 9.01831 125.087 15.6616C123.507 16.014 122.404 16.8597 121.357 17.7629C121.352 18.6922 121.484 19.7624 121.016 20.214C116.234 20.3106 114.381 26.4239 109.824 27.9144C108.95 27.8805 109.468 26.4187 108.128 26.8651C105.283 31.1616 102.17 35.1842 96.2587 36.3196C93.8919 39.2458 92.6858 43.3649 89.1357 45.0694C89.2267 46.4503 89.0042 47.5049 88.1192 47.8729C81.5879 47.9617 80.4425 56.4765 72.8568 56.6253C71.6709 57.7582 74.4877 57.7191 74.2121 59.0738C73.9289 61.1229 71.3472 62.6473 69.4634 61.8747C69.7365 60.8697 71.7392 61.6554 71.4989 60.1258C71.7796 59.1365 71.021 59.2174 71.1601 58.3769C69.5722 58.0166 69.2308 58.9511 68.447 59.4236C68.7706 65.4769 64.1206 66.3958 62.6818 70.6271C53.9077 78.2832 42.6986 86.3934 32.8346 94.0886H30.4628C22.3916 101.862 13.3925 108.678 4.00644 115.097C3.46532 116.751 4.09746 119.623 1.97347 119.649C1.24777 118.166 3.73841 117.375 3.32878 115.097C1.82175 114.94 1.5335 116.044 0.615627 116.496C3.17454 123.812 -11.6479 125.055 -5.48833 130.5C-0.132829 123.423 9.78168 121.056 12.4872 111.241Z" fill="#D7DBDB"/>
<path fill-rule="evenodd" clip-rule="evenodd" d="M-5.42521 196.587H-6.48611C-7.79508 197.875 -6.33832 201.233 -5.06893 202.201C-4.9317 202.996 -6.68404 202.019 -6.13247 203.193C-5.97413 204.146 -5.38562 204.7 -4.36166 204.848C-3.27173 202.004 -4.94754 199.047 -5.42521 196.587Z" fill="#D7DBDB"/>
<path fill-rule="evenodd" clip-rule="evenodd" d="M205.522 -10.2471C204.95 -9.43884 205.411 -7.57276 204.509 -7.10755C199.978 -5.27528 196.43 -2.4268 194.369 1.95247C193.26 1.38849 193.079 2.03563 191.665 1.95247C179.066 16.6159 165.324 30.0967 151.445 43.4373C150.27 43.718 150.144 42.9201 149.079 43.0864C148.66 44.5185 147.829 45.5191 147.725 47.2734C135.269 56.848 126.273 70.0014 111.224 76.9043C106.832 81.9515 101.417 86.6686 93.6479 89.1038C92.4081 90.3877 91.9293 92.4461 90.6038 93.6364C86.2292 93.9249 81.8925 98.5667 76.4091 98.863C75.2424 99.9857 75.0963 102.158 73.7053 103.05C72.7578 102.647 71.9464 102.647 71.0014 103.05C71.2685 107.627 65.7625 106.241 65.256 110.02C64.0011 110.265 63.8045 109.425 62.5521 109.672C62.2144 110.722 62.3026 112.201 61.1989 112.463C60.0246 112.178 59.8986 112.981 58.8327 112.812C51.7114 122.55 41.1152 128.699 33.82 138.256C25.9679 140.28 21.3993 147.503 14.5552 149.413C13.2927 151.014 12.4763 153.078 10.8383 154.291C2.8628 158.268 0.189165 167.712 -5.38741 174.163C-6.17111 175.158 -6.23663 177.076 -5.38741 177.997C-1.32783 178.116 -0.259379 175.151 0.36052 171.725C1.42393 171.548 1.68096 172.484 2.38653 171.725C6.79891 158.143 20.6509 154.304 28.7524 144.532C29.5916 144.478 29.7982 145.081 30.4408 145.226C31.9124 142.448 35.3219 141.66 38.5524 140.696C40.4171 138.903 41.2815 136.075 42.9446 134.071C49.7383 136.176 49.1285 124.98 56.469 125.362C55.5341 122.68 58.2027 119.483 61.8742 119.431C62.3026 118.594 62.3102 117.326 62.8873 116.643C72.7049 111.66 78.6922 102.733 88.9155 98.1691C89.7067 98.2782 90.183 98.7174 91.2817 98.5173C104.849 89.9719 118.462 81.4629 130.151 70.976C140.153 60.9596 152.039 52.8871 160.232 40.9994C163.099 40.2405 165.07 38.5512 166.315 36.1186C172.71 32.6022 176.982 26.9026 182.2 22.1751C184.516 21.6553 185.635 19.9062 185.92 17.2942C191.075 12.3874 195.896 7.13222 199.777 0.910284C204.58 0.400885 206.311 -3.27406 208.566 -6.41102C212.311 -6.84765 214.09 -9.30888 216 -11.6402C212.497 -13.054 210.267 -9.81568 205.522 -10.2471Z" fill="#D7DBDB"/>
<path fill-rule="evenodd" clip-rule="evenodd" d="M-1.61652 105.717C-3.35244 106.408 -4.3392 107.887 -3.8931 110.88C-1.84684 110.708 0.00060463 107.592 -1.61652 105.717Z" fill="#D7DBDB"/>
<path fill-rule="evenodd" clip-rule="evenodd" d="M11.7072 182.985C11.8503 176.505 15.6776 170.447 19.9316 170.431C24.1805 165.106 28.1381 159.486 32.2694 154.036C35.8821 152.351 40.0058 149.379 38.7794 143.924C29.671 148.259 25.9178 158.041 17.5325 163.106C17.3332 165.925 15.394 166.975 13.0793 167.641C12.6321 168.933 12.5044 170.545 11.7072 171.476C4.66839 174.545 4.17529 184.275 -1.66019 188.565C-1.58866 191.428 -1.65253 194.153 -2 196.587C4.2826 196.174 4.13186 184.288 11.7072 182.985Z" fill="#D7DBDB"/>
<path fill-rule="evenodd" clip-rule="evenodd" d="M4.41975 106.59C5.28347 105.964 4.86929 104.021 6.11437 103.791C9.81425 103.765 12.7464 100.546 14.5824 97.4918C18.8253 96.0415 22.5075 94.0148 24.7451 90.4934C25.1618 90.9994 25.9094 91.1559 26.7756 91.195C31.4124 85.3521 37.9662 83.6384 43.0349 78.2493C44.237 78.0589 43.8683 79.4883 45.0704 79.2979C47.9647 73.0741 56.7257 72.9124 57.2661 64.2576C59.8902 63.5846 60.5695 60.9057 63.7012 60.7571C64.7619 58.9338 66.1661 57.4704 66.7495 55.1567C78.9098 46.961 87.7163 35.296 100.286 27.5202C101.122 27.562 101.917 27.5698 102.319 27.1681C102.475 25.7908 101.607 25.35 102.655 24.7188C103.635 24.8779 103.715 25.9578 105.026 25.77C110.938 12.9808 125.033 8.64553 134.496 -0.470995C135.547 -0.0379963 136.365 0.642813 137.209 -0.470995C137.734 -2.26821 135.032 -1.89782 136.194 -3.26986C140.853 -4.05239 142.386 -8.0694 145 -10.9674C140.353 -9.21973 132.388 -7.90507 131.112 -1.5222C130.322 -1.75696 130.203 -2.68296 129.418 -2.92033C124.303 1.82705 118.272 5.63016 111.464 8.62465C105.549 16.9795 98.8184 24.4892 88.7669 28.5688C82.0869 34.6439 75.912 43.0066 68.4441 47.1097C67.3834 49.9842 65.6837 52.1909 64.378 54.8072C54.0815 60.1493 49.5962 71.496 39.3097 76.8512C38.3425 77.7146 38.1455 79.3762 36.9383 79.9996C27.6393 80.4508 21.1058 88.8083 15.2593 95.0425C10.1729 94.2391 9.47583 100.45 5.77595 98.8925C5.06123 101.188 3.57875 102.688 1.37145 103.439C1.08607 104.313 0.926959 105.315 1.03303 106.59C1.59369 107.065 3.00798 106.303 4.41975 106.59Z" fill="#D7DBDB"/>
<path fill-rule="evenodd" clip-rule="evenodd" d="M22.6822 248.866C23.1675 248.435 23.3242 247.667 23.3596 246.772C18.1373 239.677 15.7789 228.578 17.2576 217.461C20.3946 212.848 21.2793 205.417 23.0209 200.362C22.6898 186.399 30.6042 177.925 36.5824 169.303C36.5065 167.827 37.1056 167.047 37.2624 165.811C44.4311 163.186 43.6349 152.363 50.8238 149.758C50.9325 148.476 51.658 147.828 51.84 146.618C53.0558 146.824 53.483 146.215 54.2136 145.923C67.1709 129.246 82.0974 114.601 101 104.043C100.712 102.714 99.8751 101.946 99.6451 100.554C97.7316 101.064 96.3818 101.161 94.2205 101.949C90.9597 106.733 85.2141 108.968 79.3016 111.024C76.7031 115.678 71.8827 118.043 68.1163 121.493C66.9358 122.203 69.0996 123.317 68.1163 123.936C58.4931 126.364 56.984 137.14 47.7703 139.986C48.1949 143.946 45.154 145.403 44.7193 149.412C38.4732 155.542 34.4666 163.982 26.7494 168.603C26.0593 169.938 26.6811 171.272 26.7494 172.789C25.1544 174.171 23.5947 175.591 22.0022 176.978V179.769C17.3764 182.572 18.706 191.498 10.8169 190.936C9.95994 193.083 9.90433 196.049 7.08587 196.171C5.63746 200.729 4.0576 205.152 2 209.083C3.92363 215.218 1.08495 218.228 2.67997 225.139C3.50402 221.733 8.14753 219.155 6.06971 215.015C6.01157 215.538 6.19104 216.303 5.73098 216.41C5.44535 214.963 4.85385 213.821 5.05102 211.875C10.4781 207.226 10.6677 197.183 16.5802 193.031C18.5948 205.433 9.44933 215.45 12.1717 228.628C11.8178 229.889 10.5792 230.243 10.8169 232.116C12.197 233.488 14.333 234.081 13.5266 237.7C18.385 238.806 15.9735 245.523 18.9537 248.172C19.0953 247.501 19.0751 246.665 19.9699 246.772C20.6954 247.313 22.255 250.295 22.6822 248.866Z" fill="#D7DBDB"/>
<path fill-rule="evenodd" clip-rule="evenodd" d="M6.18165 88.163C6.03765 89.0869 4.23765 90.3919 5.37465 91.2609C5.62065 90.4381 7.06965 88.7982 6.18165 88.163Z" fill="#D7DBDB"/>
<path fill-rule="evenodd" clip-rule="evenodd" d="M28 70.9179C26.6373 69.7763 25.7494 72.1225 24.9026 72.6763C21.8103 71.1147 20.8633 74.5895 19.7393 76.1983H16.6419C14.3964 78.7046 12.4307 82.1898 11.1347 84.6437C10.0723 84.9061 10.7139 83.4312 9.4128 83.9403C9.13821 84.851 8.64036 87.3521 9.4128 88.163C16.3904 83.6779 26.7939 78.9566 28 70.9179Z" fill="#D7DBDB"/>
<path fill-rule="evenodd" clip-rule="evenodd" d="M24 60.3004C22.0969 59.9934 21.1677 63.7379 20 65.4456C21.5876 64.012 23.523 62.9621 24 60.3004Z" fill="#D7DBDB"/>
<path fill-rule="evenodd" clip-rule="evenodd" d="M241.26 -1.89057C237.147 -1.00895 235.23 2.13937 233.138 5.10769C231.723 4.9277 230.845 5.30334 230.093 5.80935C229.293 6.50057 229.624 8.35513 229.076 9.30718C225.632 9.94363 224.749 13.2302 221.293 13.8536C219.176 22.6255 208.335 22.3829 205.05 29.9498C204.204 30.242 203.236 30.4063 202.004 30.2993C199.819 37.9549 190.414 38.1427 187.449 44.9949C182.375 44.7601 180.051 47.3685 178.992 51.2915C178.326 51.7662 177.062 51.6254 176.285 51.9879C175.568 53.4643 174.94 55.0319 173.915 56.19C161.661 61.365 154.577 71.8794 144.136 78.9272C141.883 82.5476 139.395 85.9281 134.66 86.974C131.213 91.343 127.149 95.0704 121.124 96.7711C120.796 100.751 115.487 99.5725 112.662 100.971C112.422 102.003 112.276 103.135 111.647 103.769C105.723 105.574 101.76 109.406 95.7421 111.114C95.3511 111.527 95.3586 112.351 95.4015 113.214C92.4546 113.131 87.5146 118.037 86.2682 120.912C80.223 123.877 75.0685 127.761 71.7154 133.505C68.7054 133.661 68.4632 136.677 65.6248 137.005C60.0035 147.29 51.7482 154.849 45.3195 164.294C45.3952 165.773 44.7973 166.553 44.6434 167.794C39.4787 169.101 39.2769 175.539 35.505 178.29V181.439C29.1999 193.116 24.9335 207.958 25.3523 225.52C25.0218 225.992 24.2119 225.974 24 226.569C25.0143 240.328 30.8525 253.589 36.5218 264.703C38.4191 264.956 38.7168 266.863 40.9194 266.803C39.3475 259.5 37.4603 253.876 34.1526 248.962C33.8877 242.631 30.5069 238.541 32.7978 232.166C32.1544 231.084 31.6372 229.871 31.1048 228.669C30.9711 216.013 34.0542 203.545 36.1812 191.236C37.7379 189.692 39.5872 188.461 40.5813 186.335C41.8075 181.887 43.4273 177.847 47.01 175.841V172.693C59.7184 155.624 70.6154 136.684 89.3135 125.81C97.0819 116 108.35 109.808 118.417 102.371C119.726 102.183 120.067 102.992 121.462 102.716C135.283 96.3642 144.179 84.9238 156.658 77.1796C165.221 63.7621 181.283 58.0889 192.866 47.7911C193.653 46.972 193.832 45.527 194.559 44.6428C198.195 43.855 200.16 41.338 203.357 40.0964C208.539 31.3401 219.307 28.3639 224 19.1042C231.408 15.2177 237.493 9.95925 241.936 3.01055C243.024 2.9349 243.367 3.62875 244.643 3.36007C245.726 0.936884 248.991 0.0396366 247.351 -3.28864C249.747 -2.67566 248.324 -6.01438 248.703 -7.48551C250.06 -7.52985 251.637 -8.66453 250.734 -9.93479C247.32 -9.18879 242.077 -7.24817 241.26 -1.89057Z" fill="#D7DBDB"/>
<path fill-rule="evenodd" clip-rule="evenodd" d="M41.8785 51.1624C45.5778 50.5225 49.6985 48.3039 53.3876 46.5915V44.1264C58.8684 42.6762 62.1816 38.9654 68.278 38.1472C71.7628 33.9146 75.616 30.0622 80.1253 26.8916C81.2002 27.4292 81.6115 27.0149 82.8303 26.8916C93.3099 19.2577 101.715 9.4681 111.94 1.56666C114.605 1.64271 115.571 -0.0513897 116 -2.30145C112.328 -3.4055 111.493 -1.98152 108.215 -1.24723C107.653 -0.780432 108.102 0.745832 107.539 1.21263C99.1414 3.03523 95.0207 9.31075 90.2768 14.9333C79.2522 21.6651 70.5238 30.4005 58.4621 36.7389C58.071 36.2223 58.071 35.8552 58.4621 35.3333C49.3502 44.1552 36.8848 49.4919 28 58.5498V59.25C33.5009 57.4615 39.8018 56.5096 41.8785 51.1624Z" fill="#D7DBDB"/>
<path fill-rule="evenodd" clip-rule="evenodd" d="M41.2155 61.0071C40.6186 64.7691 37.2061 65.6665 34.4286 67.217C32.7135 67.1193 33.3914 64.5942 32.0533 64.1108C31.5246 67.7107 29.1543 69.4387 29 73.4243C29.9562 74.224 31.1198 73.0283 32.7312 73.4243C33.8366 70.3875 37.7879 68.6004 40.5376 69.287C41.3876 68.1941 41.1017 65.9493 42.5714 65.4891C43.988 65.2011 44.1752 66.1628 45.2857 66.1807C50.4588 56.8363 62.1482 52.2824 67 43.7608C56.7323 47.4636 50.6106 55.3809 43.2494 62.0408C42.7232 61.5445 42.5841 60.6523 41.2155 61.0071Z" fill="#D7DBDB"/>
<path fill-rule="evenodd" clip-rule="evenodd" d="M55 29.3044C47.9347 32.4537 41.8799 36.5614 37 42.7283C43.5183 38.4941 50.8292 36.4245 55 29.3044Z" fill="#D7DBDB"/>
<path fill-rule="evenodd" clip-rule="evenodd" d="M56.6993 271.198C56.094 270.545 54.6238 270.782 54.3338 269.8C51.696 261.005 49.84 251.397 47.5678 242.218C49.56 239.136 46.5641 237.293 46.892 233.141C47.1719 231.887 48.168 233.558 48.2437 232.095C46.0421 227.974 48.4076 220.681 46.554 216.729C46.5364 212.502 49.6281 210.081 48.5841 205.908C49.734 204.768 50.1476 202.865 49.9333 200.319C56.6135 191.969 55.9452 176.036 65.4953 170.642C65.8433 167.745 68.4912 167.222 68.2012 163.663C80.49 152.605 89.9089 138.58 102.702 128.048C104.049 127.744 104.402 127.744 105.748 128.048C105.642 123.636 108.482 122.256 111.496 121.064C114.113 115.038 120.93 113.346 123 106.75C111.816 109.991 105.305 121.072 96.9523 128.4C92.6425 130.003 88.4916 131.771 87.8208 137.125C87.0239 137.018 87.1904 135.915 86.1262 136.079C82.5024 143.388 72.7203 144.351 70.9046 153.537C51.5775 170.816 37.8009 202.243 43.1698 238.379C42.4006 239.329 41.9341 240.591 42.156 242.567C43.248 244.699 44.3096 246.859 45.5378 248.853C45.3461 249.934 43.9465 249.772 43.8456 250.949C44.7081 256.379 47.5703 261.489 47.5678 266.658C50.4906 267.715 49.6054 272.703 53.658 272.593C52.8308 274.491 54.8155 276.206 56.0259 277.13C56.6387 274.72 57.824 273.942 56.6993 271.198Z" fill="#D7DBDB"/>
<path fill-rule="evenodd" clip-rule="evenodd" d="M49.412 30.7106C47.897 30.5278 47.579 31.5841 47 32.371C48.5 32.5383 49.361 32.0395 49.412 30.7106Z" fill="#D7DBDB"/>
<path fill-rule="evenodd" clip-rule="evenodd" d="M70.8623 281.878C69.6129 279.327 68.9957 276.12 67.4731 273.85C68.0599 273.054 68.29 271.896 68.1509 270.357C66.904 266.752 65.8113 262.988 64.7566 259.183C64.8856 251.754 64.1167 244.003 62.3815 237.888C61.9667 229.546 64.9488 223.234 63.0619 214.493C63.5096 213.559 65.098 213.801 65.098 212.403C64.6706 209.113 64.1849 205.89 63.7398 202.626C68.6011 195.991 69.9872 185.78 75.276 179.582V176.092C76.5407 176.113 77.4209 175.74 78.3289 175.394C78.3264 168.059 85.497 168.109 85.7904 161.078C89.6956 156.598 94.4634 153.009 97.6655 147.811H99.7016C105.329 139.172 114.149 133.817 119.377 124.77C120.794 125.064 120.981 124.093 122.091 124.069C124.438 118.221 130.445 116.143 131.933 109.407C145.591 104.727 151.957 92.5426 164.159 86.3658C170.669 72.8175 187.047 69.4207 197.407 59.8288C213.713 50.7784 227.339 38.9637 239.813 25.9672C243.035 26.2561 242.998 23.1898 246.26 23.523C252.488 16.279 254.326 6.04944 264.917 2.92332C264.684 -0.754633 270.251 -2.23312 266.953 -5.80435C265.372 -4.56014 264.512 -2.20187 261.527 -3.36279C259.691 -2.14721 259.484 -0.653131 258.472 0.827948C257.227 1.17414 256.438 1.99146 255.08 2.22312C250.507 7.64506 246.033 13.1659 242.188 19.3323C236.568 21.9248 231.681 25.2748 228.618 30.5041C224.508 31.0481 222.841 34.1013 220.815 36.7902C215.82 37.9277 212.375 40.6712 210.637 45.1664C198.535 47.608 194.321 58.1681 183.498 61.9242C182.517 62.7754 182.441 64.5662 181.462 65.4147C161.726 77.4612 145.748 93.3677 128.538 108.009C127.501 107.757 127.302 108.368 126.502 108.361C123.318 111.25 122.551 116.633 117.683 117.786C117.126 118.806 118.315 119.1 117.683 120.579C111.64 125.767 107.881 133.305 99.3602 135.944C98.9175 136.767 99.2185 138.352 98.6823 139.083C98.2473 139.565 97.2102 139.429 96.3098 139.432C92.8396 147.501 86.018 152.116 80.0261 157.587C79.9856 163.933 73.8672 166.123 71.8817 169.806C70.9155 171.599 71.0925 174.179 69.8456 176.092C68.5556 178.075 67.8525 178.14 66.7927 180.631C63.8814 187.477 59.4298 192.855 60.348 202.626C58.3018 205.758 58.9872 211.697 56.2758 214.147C56.726 214.73 57.1737 215.316 56.9562 216.591C54.8594 232.261 56.0633 250.726 62.0426 264.771C60.4643 275.589 67.4022 277.64 69.5066 284.671C71.2038 284.785 72.2914 285.53 74.2567 285.368C73.8571 283.453 73.6218 281.365 72.5595 280.131C72.0511 280.772 72.5722 282.471 70.8623 281.878Z" fill="#D7DBDB"/>
<path fill-rule="evenodd" clip-rule="evenodd" d="M72 18.9783H67.6685C64.756 23.0347 60.3101 25.5187 57 29.1674C61.4583 30.1727 62.9692 25.3085 67.6685 25.4326C68.6849 22.8448 70.586 21.1609 72 18.9783Z" fill="#D7DBDB"/>
<path fill-rule="evenodd" clip-rule="evenodd" d="M86.3383 280.088C86.1469 279.245 84.1551 280.253 84.3137 279.044C84.8501 275.986 84.349 273.598 83.6363 271.009H80.5994C81.1534 264.709 77.6657 260.118 77.5574 252.492C76.9405 251.13 75.2508 253.036 75.1929 251.096C74.6061 249.322 76.6585 250.286 76.5426 248.999C68.5222 233.938 81.3549 221.918 78.9072 205.685C81.9844 200.132 85.389 194.918 86.6758 187.519C91.1631 180.049 96.7233 173.687 100.188 165.16C105.57 160.714 108.189 153.406 114.711 150.137C114.975 148.582 114.262 148.043 114.373 146.647C130.58 130.807 146.555 114.725 163.349 99.4862C164.621 99.7545 164.966 99.0591 166.051 99.1346C176.57 88.5892 187.914 78.8981 201.177 71.189C204.35 65.0399 211.159 62.6516 213 55.1196C202.154 58.4585 198.792 69.5403 187.33 72.2359C173.689 87.2557 152.619 96.3218 140.383 113.808C139.98 112.941 139.895 111.75 139.706 110.664C135.654 113.592 136.173 119.1 130.585 120.447C130.721 123.963 128.195 124.728 125.856 125.689C123.57 131.932 116.534 133.274 114.036 139.308C113.399 139.699 112.442 139.753 111.671 140.009C110.334 143.98 109.251 148.22 104.915 149.09C104.688 152.578 101.898 153.422 99.8509 155.028C99.3371 155.893 99.7678 157.737 99.1735 158.524C98.7378 159.003 97.7079 158.87 96.8114 158.875V161.667C93.7468 164.902 89.5666 166.983 89.3803 173.194C86.9351 176.953 83.0446 179.221 82.2866 184.724C81.38 185.646 80.1638 186.253 79.2471 187.167C79.0809 188.394 78.7435 189.444 78.9072 191.011C74.3417 193.97 75.2634 202.614 71.816 206.732C73.6618 211.032 70.2522 215.478 71.816 220.707C69.0359 223.411 68.0161 230.951 70.1263 234.675C67.6459 245.801 72.9442 257.169 74.1781 267.866C75.7217 268.366 77.0865 269.051 77.5574 270.66C76.3336 275.677 78.7914 282.24 83.2989 283.586C83.9335 284.091 83.3392 285.873 83.9763 286.378C86.6178 286.555 87.0862 288.985 89.3803 289.522C89.0705 287.86 88.6148 286.352 88.3655 284.631C85.3764 284.943 85.1346 282.766 86.3383 280.088Z" fill="#D7DBDB"/>
<path fill-rule="evenodd" clip-rule="evenodd" d="M73 15.4715C73.349 15.7823 73.8031 15.9627 74.4989 15.8434C75.1365 14.6473 75.4273 13.021 76 11.75C74.2192 12.022 73.0179 13.0099 73 15.4715Z" fill="#D7DBDB"/>
<path fill-rule="evenodd" clip-rule="evenodd" d="M76.3355 14.8479C77.1275 14.1416 78.0545 13.5747 78.3485 12.3541C76.8965 12.1249 75.2885 13.8751 76.3355 14.8479Z" fill="#D7DBDB"/>
<path fill-rule="evenodd" clip-rule="evenodd" d="M97.3436 277.892C92.3693 272.981 92.3395 262.876 88.3576 256.923C89.7792 252.975 85.9734 250.807 88.3576 247.485C84.7478 241.784 83.2741 233.136 78.7092 227.565C73.9135 233.806 80.6964 244.645 81.0388 250.982C84.3211 253.006 83.2667 259.591 85.6956 262.517C86.0255 263.908 84.7007 263.564 85.0307 264.961C89.087 273.747 93.0392 282.645 97.3436 291.173C98.8223 291.556 99.7675 290.326 100.671 291.173C100.623 293.555 100.921 295.569 103 295.717C104.047 295.069 103.975 293.25 104 291.522C101.42 287.356 98.2343 283.828 97.3436 277.892Z" fill="#D7DBDB"/>
<path fill-rule="evenodd" clip-rule="evenodd" d="M265.642 11.368C259.979 11.5847 260.5 18.1907 255.815 19.4226C255.362 22.5703 253.999 24.7784 252.089 26.4253C241.297 31.4862 236.488 42.7407 224.988 47.0785C224.708 48.0677 225.465 47.9816 225.329 48.8299H223.293C222.73 52.5648 220.002 54.0604 217.196 55.4776C213.513 63.1094 208.199 69.055 203.307 75.434C196.543 77.7778 193.558 84.0314 187.046 86.6388C181.353 93.592 174.64 99.4906 167.396 104.841C166.36 105.094 166.401 104.238 165.363 104.491C159.25 111.943 150.524 116.693 145.036 124.795C132.013 132.925 122.759 144.95 113.868 157.352V159.803C105.23 170.726 95.7231 182.573 91.1717 196.563C89.9139 196.811 89.7169 195.965 88.4616 196.211C85.6201 208.71 77.558 228.938 88.8 238.924C91.9926 233.294 88.8076 223.94 90.1538 216.867C91.4319 208.851 95.4756 203.696 96.9304 195.864C97.7513 195.078 98.7868 194.514 99.6405 193.762C103.25 183.951 111.307 178.744 113.868 167.855C115.333 167.438 115.767 169.001 116.578 168.205C117.174 166.642 117.318 165.532 116.919 163.656C119.836 160.605 122.408 157.191 125.385 154.202C129.338 144.049 138.736 139.526 144.697 131.451C146.541 131.367 147.849 130.733 148.764 129.697C148.832 128.603 148.534 127.128 149.102 126.546C157.71 123.769 161.423 115.939 167.058 110.093C168.853 109.615 169.944 108.407 172.139 108.341C189.218 94.0148 206.489 79.8893 221.262 63.1824C227.365 51.4007 240.011 46.379 247.687 36.226H249.379C253.503 30.6066 261.134 29.1424 262.932 20.4718C264.91 20.1847 265.031 17.9766 267.334 18.021C267.683 16.7473 268.223 15.6694 268.691 14.5183C269.865 14.7976 269.991 13.999 271.06 14.1686C276.066 7.09019 284.196 3.23516 288 -5.08563C287.245 -5.93911 286.348 -6.64381 284.954 -6.83695C279.296 0.0404873 269.933 3.08378 265.642 11.368Z" fill="#D7DBDB"/>
<path fill-rule="evenodd" clip-rule="evenodd" d="M89.817 5.73713C88.281 5.81457 87.168 6.32881 87 7.81887C87.453 7.90251 87.627 8.27734 87.804 8.65218C89.142 8.37028 89.988 7.58033 89.817 5.73713Z" fill="#D7DBDB"/>
<path fill-rule="evenodd" clip-rule="evenodd" d="M89 290.126C89.021 291.768 89.825 292.598 91.415 292.62C90.881 291.507 89.642 291.13 89 290.126Z" fill="#D7DBDB"/>
<path fill-rule="evenodd" clip-rule="evenodd" d="M298.897 18.6897C294.069 21.6333 290.661 26.0355 287.716 30.9197C276.11 31.9018 273.223 44.8455 262.979 48.3881C262.488 50.2142 261.243 51.2587 259.591 51.8813C258.729 53.7881 257.891 55.7209 256.539 57.1249C253.012 58.9562 250.213 61.5454 247.73 64.4603C243.774 64.8068 242.24 67.6513 239.259 69.0033C239.093 70.2276 238.757 71.2747 238.921 72.8455C235.667 73.6816 235.349 77.5499 231.127 77.3884C225.011 88.3159 213.694 93.8826 205.377 102.544C195.747 108.923 188.454 117.704 177.929 123.159C177.275 123.881 177.106 125.105 176.575 125.957C174.822 126.363 174.516 128.257 172.169 128.051C171.48 130.018 170.153 131.331 168.782 132.594C167.968 132.805 167.236 133.097 166.068 132.94C158.3 139.609 151.249 147.009 145.74 156.001C137.928 159.945 133.083 166.939 126.424 172.076H123.375C114.846 180.177 105.739 189.508 102.705 202.121C99.0643 202.913 100.507 208.941 99.9965 212.952C98.9455 212.918 98.3746 213.377 97.6243 213.65C94.1355 229.595 90.9322 245.876 99.3144 258.376C99.2108 259.192 98.7813 259.684 98.9784 260.817C100.014 262.081 101.184 263.203 101.689 265.014C103.718 278.992 111.506 287.033 115.242 299.252C120.123 299.226 119.312 305.074 125.408 303.795C121.515 296.043 115.824 290.151 111.855 282.482C108.891 273.297 105.688 261.362 101.689 252.086C101.166 246.303 98.362 241.08 98.6399 234.615C98.9481 227.422 103.283 221.285 103.723 214.698C107.484 210.426 106.944 201.717 111.855 198.625C112.021 197.401 112.36 196.354 112.193 194.786C117.592 193.017 115.586 183.608 122.697 183.606C124.534 182.004 125.095 179.091 127.103 177.664C127.982 177.291 128.766 176.815 130.15 176.966C136.577 167.752 148.45 164.157 153.531 153.555C160.132 149.88 164.99 144.404 169.459 138.53C173.331 137.634 175.226 134.699 177.588 132.242C183.702 128.53 188.32 123.274 193.855 118.968C206.074 111.765 213.125 99.2383 226.047 92.7625C227.558 90.3634 229.713 88.6233 231.468 86.4717C232.264 86.4795 232.466 85.8699 233.502 86.1252C243.43 74.7028 256.221 66.2264 267.046 55.7261C267.003 54.2856 267.635 53.5354 267.384 51.8813C278.237 49.6775 279.637 37.7315 291.442 36.5124C293.109 32.1727 296.224 29.3281 300.251 27.4265C302.588 17.6009 313.797 16.934 316.856 7.86119C319.504 6.86092 321.333 5.02187 323.97 4.01638C324.066 2.16951 323.953 0.541431 323.293 -0.526562C318.579 -1.31324 318.006 2.1747 314.823 2.9692C311.564 10.3228 302.014 11.1902 298.897 18.6897Z" fill="#D7DBDB"/>
<path fill-rule="evenodd" clip-rule="evenodd" d="M221.412 -0.499331C219.524 -1.67509 222.101 -3.48415 219.72 -4.33028C218.18 -1.20271 217.476 -0.31505 218.031 2.98382C215.786 2.7632 214.457 3.48215 212.619 3.67681C211.951 3.91819 212.7 5.61824 211.941 5.76618C210.337 5.62343 210.286 7.0821 208.897 7.15996C205.81 16.9787 194.258 18.0844 190.294 27.0051C180.197 34.4801 172.839 44.7816 160.192 49.63C156.059 58.3768 145.652 60.6634 142.262 70.1733C139.433 69.5815 139.385 71.8526 136.851 71.5671C136.245 72.5611 135.96 73.8978 135.161 74.6998C123.326 81.5467 114.372 91.3629 102.015 97.6725C101.655 98.6458 100.409 99.9462 101.337 101.156C104.411 102.456 107.308 100.574 108.441 98.7185C123.765 90.3558 139.418 82.328 149.028 68.0813C162.008 58.0004 173.903 46.8035 188.94 38.8405C193.134 29.2268 201.069 23.4726 208.559 17.2564C208.902 15.9872 209.399 14.8712 209.911 13.7759C214.672 13.2905 215.166 7.50776 219.72 7.85815C221.771 5.90634 221.992 2.0702 224.797 0.894445C226.005 1.51996 227.543 1.13064 228.514 0.546652C228.779 -0.9769 227.051 -1.60241 227.838 -2.5887C228.98 -3.38552 231.729 -2.52641 232.912 -3.2843C231.568 -6.39369 233.905 -7.36441 232.574 -9.89761C227.611 -10.3648 227.059 -6.29247 223.442 -5.37367C222.131 -4.39776 223.047 -1.13782 221.412 -0.499331Z" fill="#D7DBDB"/>
<path fill-rule="evenodd" clip-rule="evenodd" d="M106.043 227.565C102.081 230.164 99.3891 244.254 106.043 246.152C109.697 241.974 107.357 233.027 106.043 227.565Z" fill="#D7DBDB"/>
<path fill-rule="evenodd" clip-rule="evenodd" d="M110 260.609C109.993 264.112 110.334 267.231 112.963 267.837C113.23 265.435 112.045 261.664 110 260.609Z" fill="#D7DBDB"/>
<path fill-rule="evenodd" clip-rule="evenodd" d="M322.017 14.9871C310.629 20.0039 308.455 34.5083 295.935 38.3574C293.544 43.9152 285.906 44.0764 284.759 50.919C276.651 54.6588 270.422 60.3363 264.438 66.2659C256.741 69.3816 251.242 74.7652 246.825 81.2644C245.952 81.6415 245.169 82.1148 243.778 81.9614C235.086 91.4983 224.678 99.2667 214.313 107.079C212.399 111.501 209.944 115.373 204.831 116.497C203.533 118.882 201.453 120.46 199.41 122.08H197.38C191.716 128.923 181.952 131.537 178.076 140.218C169.612 146.499 163.405 155.107 155.38 161.848C154.54 162.14 153.57 162.303 152.335 162.197C150.201 165.695 148.106 169.237 144.884 171.617C143.864 172.048 143.371 171.635 141.836 171.963C134.554 177.065 129.357 183.239 124.224 191.148C118.3 200.272 112.103 206.875 110 219.057C110.111 226.264 111.699 231.957 112.709 238.243C111.72 240.38 112.323 242.112 112.709 244.521C110.861 247.413 112.447 252.12 111.692 255.683C115.161 262.341 117.919 269.735 122.532 275.22C124.774 283.137 126.12 291.984 130.319 297.891C132.061 299.123 133.079 301.097 134.385 302.775C137.902 303.597 138.801 308.892 142.851 308.01C143.462 306.335 141.331 304.772 141.157 302.775C136.397 300.008 130.93 297.961 132.352 288.822C131.817 287.511 130.748 286.752 130.319 285.334C131.514 285.285 131.284 283.771 131.673 282.895C129.049 276.643 123.757 273.144 124.224 263.706C123.007 262.172 121.32 261.119 121.514 258.125C114.139 254.443 118.487 238.687 115.416 230.568C115.464 229.335 116.388 229.007 116.434 227.775C114.053 215.411 120.769 203.746 128.289 198.124C135.655 185.133 145.366 174.553 159.107 168.127C159.158 166.779 160.254 166.514 160.122 164.987C170.218 156.428 177.28 144.749 189.59 138.476C190.663 136.437 192.562 135.256 193.317 132.892C203.601 125.347 214.815 118.754 222.103 108.127C238.606 98.731 249.297 83.345 265.794 73.9407C270.937 67.262 280.651 65.2881 284.759 57.5431C285.979 57.6367 286.393 56.8981 287.469 56.8487C288.555 54.7082 290.087 53.0308 291.534 51.2649C293.044 51.3091 293.635 50.404 294.923 50.2194C295.832 49.3663 295.004 48.5315 295.935 47.4288C299.42 46.0192 300.195 41.8164 304.74 41.4965C314.058 32.9504 320.077 21.0131 332.175 15.3356C332.905 15.0417 332.049 13.1094 332.852 12.8935C334.278 14.2121 336.445 15.4007 338.273 13.5931C336.824 8.02496 341.874 7.30193 342 4.52175C335.281 5.67129 328.302 8.19918 323.032 11.8454C322.555 12.7531 322.562 14.1549 322.017 14.9871Z" fill="#D7DBDB"/>
<path fill-rule="evenodd" clip-rule="evenodd" d="M115.726 274.033C113.136 279.49 118.109 284.201 120.731 287.457C121.885 281.386 119.166 276.408 115.726 274.033Z" fill="#D7DBDB"/>
<path fill-rule="evenodd" clip-rule="evenodd" d="M120 -4.58146C118.511 -4.71157 117.682 -3.91853 117 -2.92413C117.423 -2.8157 117.342 -2.01027 117.601 -1.6757C119.139 -1.62304 119.857 -2.70728 120 -4.58146Z" fill="#D7DBDB"/>
<path fill-rule="evenodd" clip-rule="evenodd" d="M124.498 238.197C126.991 222.119 129.924 206.441 137 193.489C126.872 198.596 124.555 214.666 121.373 227.985C121.603 234.003 119.232 255.311 124.151 255.445C128.469 255.56 126.03 240.504 124.498 238.197Z" fill="#D7DBDB"/>
<path fill-rule="evenodd" clip-rule="evenodd" d="M282.172 15.4581C278.484 16.8998 275.083 18.6433 274.028 22.7888C269.54 25.1569 265.636 28.1209 264.187 33.6118C261.006 34.762 259.579 37.7104 256.042 38.4989C244.784 50.7688 229.007 58.3936 220.41 73.4011C215.309 73.5104 215.289 78.8347 210.571 79.3343C202.287 91.8723 190.897 101.22 177.653 108.655C175.791 111.957 173.969 116.428 169.172 115.634C165.817 119.282 162.103 122.561 159.328 126.806C150.885 129.757 149.175 139.632 139.986 141.816C138.174 145.071 136.15 148.106 132.859 149.844C131.591 158.202 122.433 160.284 122 168.344C122.433 168.362 122.471 168.789 123.02 168.692C130.921 166.231 132.077 156.834 139.986 154.38C145.769 143.695 155.391 136.947 164.421 129.595C164.772 128.799 164.636 127.493 165.096 126.806C166.356 127.053 166.553 126.21 167.811 126.454C183.586 112.43 201.468 100.569 214.98 84.2215C216.202 84.3152 216.615 83.5761 217.695 83.5215C220.018 79.5087 223.58 76.7763 227.537 74.4498C230.365 68.0455 237.73 66.3176 240.771 60.1371C251.648 53.8734 259.832 44.8355 268.938 36.7502C270.337 31.7902 273.363 28.5035 278.099 26.9785C281.11 20.7642 288.652 19.2132 291.334 12.6684C291.733 12.2651 292.535 12.2703 293.37 12.3197C296.611 5.29607 305.173 3.74509 310 -1.64428C309.674 -2.35731 309.304 -3.0261 308.978 -3.73913C305.456 -1.49854 302.377 -1.72235 298.463 -1.29817C292.444 3.68786 286.165 8.39803 282.172 15.4581Z" fill="#D7DBDB"/>
<path fill-rule="evenodd" clip-rule="evenodd" d="M124 256.88V258.543H125.608C125.797 257.242 125.26 256.691 124 256.88Z" fill="#D7DBDB"/>
<path fill-rule="evenodd" clip-rule="evenodd" d="M327.557 30.5891C321.029 30.6307 320.755 37.0951 317.03 40.0138C313.271 41.8504 310.19 44.3789 307.525 47.3392C303.556 47.4459 303.23 51.2985 299.716 51.876C296.34 58.5251 289.64 61.7586 283.421 65.4811C275.496 72.6921 267.826 80.1632 258.299 85.7197C256.016 90.4698 249.319 90.6831 246.076 94.4447C245.59 95.5711 245.221 96.8223 245.059 98.2791C237.43 101.843 232.701 108.38 225.027 111.887C221.65 118.538 213.217 119.99 209.749 126.543C204.682 128.314 200.318 130.809 199.224 136.662C195.175 139.362 191.196 142.138 189.039 146.781C185.498 147.094 185.025 150.566 181.57 150.967C180.78 151.784 181.099 153.743 180.213 154.455C173.569 155.871 173.184 166.7 165.952 165.272C162.596 167.886 162.776 174.741 157.465 174.346C155.033 182.894 146.1 184.767 143.547 193.187C136.809 196.226 133.495 205.65 134.718 213.772C128.706 227.689 129.853 248.929 130.643 264.017C132.088 268.58 134.303 272.354 134.718 277.976C140.585 283.376 142.835 298.436 148.639 302.398C149.064 305.798 151.677 306.952 152.373 310.074C157.698 311.328 160.862 314.645 165.613 317.402C164.094 311.286 158.652 309.208 154.749 305.537C149.568 294.466 146.495 281.222 139.132 272.391C139.226 268.767 136.543 265.398 137.095 260.18C133.769 253.768 135.006 244.13 136.077 236.453C134.083 232.871 134.855 224.999 137.095 222.494C140.251 209.573 145.574 198.874 152.373 189.696C162.366 180.779 173.295 172.821 180.213 160.738C185.263 158.136 187.449 152.593 193.114 150.621C206.889 132.674 227.044 121.291 243.021 105.61C243.834 105.399 244.568 105.105 245.737 105.259C247.486 102.288 249.807 99.9049 251.845 97.2333C263.612 93.0425 269.193 82.494 281.386 78.7403C289.498 70.3353 299.476 63.8371 307.525 55.3618C314.387 49.9744 323.125 46.5068 326.2 37.2225C329.004 37.1965 329.311 34.6004 332.647 35.1258C336.345 24.5019 348.489 22.5613 352 11.75C342.721 13.0273 340.984 22.0644 331.629 23.2662C330.055 26.2344 329.931 28.5392 327.557 30.5891Z" fill="#D7DBDB"/>
<path fill-rule="evenodd" clip-rule="evenodd" d="M137.57 290.554C134.115 292.21 136.96 296.75 140.343 296.75C142.027 294.37 140.247 290.865 137.57 290.554Z" fill="#D7DBDB"/>
<path fill-rule="evenodd" clip-rule="evenodd" d="M137.086 192.457C138.508 192.231 141.071 190.239 140.998 187.293C138.581 187.658 136.553 190.111 137.086 192.457Z" fill="#D7DBDB"/>
<path fill-rule="evenodd" clip-rule="evenodd" d="M155.038 191.191C155.487 193.636 153.924 193.998 153.684 195.734C146.054 201.483 144.336 213.344 141.506 224.048C141.146 225.192 139.657 225.171 139.138 226.146C138.338 243.068 141.176 256.967 143.537 268.792C151.28 279.435 153.571 295.711 161.806 305.85C167.388 307.898 167.938 316.981 175 316.337C168.212 306.105 161.826 295.456 156.052 284.179C156.759 280.301 153.81 280.199 154.698 276.136C151.507 272.878 149.3 266.842 149.626 261.106C145.623 253.681 144.306 241.695 144.889 230.689C145.358 229.195 147.076 228.989 147.598 227.543C147.931 220.795 149.331 209.372 155.038 205.872C156.31 197.167 162.459 193.503 163.158 184.196C158.136 184.139 159.051 190.211 155.038 191.191Z" fill="#D7DBDB"/>
<path fill-rule="evenodd" clip-rule="evenodd" d="M143 185.114C144.234 185.721 145.719 183.795 146 182.13C144.306 182.348 143.189 183.21 143 185.114Z" fill="#D7DBDB"/>
<path fill-rule="evenodd" clip-rule="evenodd" d="M224.789 126.809C220.903 128.843 217.224 131.096 215.327 135.182C211.025 137.375 208.871 141.781 205.524 144.951C198.224 146.97 196.591 156.643 188.283 156.463C187.729 160.89 184.062 162.105 183.891 166.93C177.178 170.696 173.829 177.943 168.345 182.978C165.155 192.126 161.128 200.418 156.177 207.745C155.217 217.257 149.806 226.847 152.122 236.354C146.022 244.542 155.189 251.835 153.473 262.872C161.27 273.663 160.803 292.981 172.4 299.848C168.512 289.675 165.473 278.626 161.585 268.453C158.906 258.273 157.412 247.174 156.177 236.354C157.784 209.121 174.343 190.285 186.595 170.767C190.803 169.88 193.424 167.349 194.031 162.745C208.024 153.113 216.249 137.531 232.563 130.297C234.755 127.212 236.514 123.678 240.674 122.624C241.181 121.633 241.38 120.327 241.69 119.136C253.176 114.407 261.232 104.68 270.757 97.8519C275.164 94.6942 280.605 93.3677 283.598 88.431C295.679 83.6893 301.739 72.7363 313.681 67.849C315.14 65.9815 316.944 64.4729 318.076 62.2672C320.649 61.4921 321.808 62.2074 323.819 61.9187C324.577 60.6546 324.905 60.3008 324.497 58.4281C333.359 54.2014 336.474 44.047 345.452 39.9426C346.657 38.6238 347.76 37.2089 348.156 35.0552C351.432 36.3765 352.916 31.9496 353.226 30.1731C359.223 29.2263 360.851 21.8004 361 16.913C357.734 16.9156 357.321 19.8626 354.579 20.4036C354.725 21.6027 354.443 22.3596 354.242 23.1945C343.585 33.2423 330.965 41.2665 322.13 53.1948C313.192 56.5579 307.011 64.5301 299.487 68.1975C299.532 69.6437 299.393 70.8948 298.809 71.6881C297.536 72.7467 296.445 71.2876 295.092 71.337C292.582 77.0046 284.284 76.6951 282.585 83.2003C278.922 83.8089 273.065 87.9628 270.419 91.9215C266.196 90.6964 264.498 97.5059 259.264 97.5033C258.528 98.2524 258.417 99.6518 257.913 100.645C254.33 102.877 251.563 105.954 248.448 108.667C242.471 109.533 241.766 117.513 235.267 116.691C234.223 122.593 224.794 119.833 224.789 126.809Z" fill="#D7DBDB"/>
<path fill-rule="evenodd" clip-rule="evenodd" d="M362.046 33.955C350.29 39.5546 346.928 53.788 333.198 57.3587C330.23 65.8311 319.656 66.4744 315.552 73.7773C304.395 78.9445 296.005 86.9637 287.042 94.389C274.388 98.2488 269.677 110.284 256.835 113.951C256.716 115.459 256.137 116.488 255.14 117.095C240.877 123.957 232.043 136.407 220.184 145.744C219.118 145.913 219.288 144.535 218.486 145.39C214.723 149.205 212.241 154.339 207.626 157.269C207.729 158.542 207.57 159.542 207.284 160.415C197.039 163.48 192.676 175.341 183.868 181.024C184.369 187.866 174.992 187.465 176.062 196.044C175.151 197.552 173.585 198.388 172.328 199.539C169.777 211.868 158.37 224.099 163.163 237.27C160.341 239.976 164.081 245.542 162.146 249.495C163.813 253.139 164.337 257.952 164.182 263.468C168.557 267.463 167.449 277.105 169.952 283.03C173.6 285.45 173.064 292.172 174.704 296.654C174.691 297.805 174.129 298.394 174.365 299.795C177.148 308.809 182.512 315.167 189.977 319.362C191.515 317.782 192.188 319.954 193.372 319.362C189.939 313.107 182.785 307.671 178.777 300.847C178.795 299.701 179.741 299.511 179.456 298.05C174.203 288.125 175.442 275.084 171.31 264.864C171.718 263.885 171.682 262.452 171.649 261.025C170.243 260.259 169.423 258.889 168.934 257.178C169.261 256.467 169.628 255.795 169.952 255.084C164.82 244.31 168.833 229.443 170.632 219.101C174.81 213.504 176.945 205.805 179.456 198.489C184.855 192.989 189.984 187.204 193.372 179.628C199.526 175.716 204.06 170.137 208.304 164.254C213.557 164.22 215.191 158.889 218.825 158.318C219.592 156.896 220.108 155.214 221.201 154.125C222.643 153.279 224.457 152.818 225.614 151.679C226.264 149.906 227.18 148.4 228.329 147.137C253.809 125.044 281.6 105.32 308.424 84.6066C319.585 80.9239 323.869 68.4095 335.916 66.7921C338.542 62.3906 343.459 60.3513 346.437 56.3118C352.904 54.361 357.358 47.9202 361.029 41.9898C366.841 39.2395 369.435 33.1711 373.248 28.3659C374.301 28.3997 374.867 27.9361 375.624 27.6653C376.431 25.8213 377.765 24.5139 378 22.0761C372.502 25.85 364.797 27.3527 362.046 33.955Z" fill="#D7DBDB"/>
<path fill-rule="evenodd" clip-rule="evenodd" d="M362.207 53.0537C355.208 56.2167 350.268 61.4979 345.574 67.0345C330.493 72.3573 322.071 84.5378 309.938 92.8934C303.991 95.6265 297.862 98.1642 295.003 104.076C290.59 104.66 289.704 108.872 284.481 108.62C276.131 117.265 265.705 123.77 255.29 130.287C253.083 133.838 249.561 136.037 245.788 137.975C239.99 145.401 232.09 150.661 226.442 158.243C223.952 157.988 222.598 161.661 219.653 161.038C218.957 162.422 218.537 164.082 217.279 164.884C216.715 164.879 217.087 163.915 216.599 163.837C205.465 172.521 198.215 185.212 187.41 194.239C182.713 200.704 180.82 210.054 176.891 217.303C176.501 218.751 177.602 218.665 177.566 219.749C175.104 221.101 173.191 224.343 174.173 228.136C171.23 230.627 171.554 239.728 173.495 243.164C172.748 253.831 178.204 265.683 180.623 277.061C180.317 278.262 179.155 278.58 179.264 280.206C183.181 293.767 188.655 304.861 197.253 314.105C204.078 316.103 207.347 325.298 214.562 324.592C206.424 310.95 190.535 302.269 186.39 283.353C185.765 282.248 184.786 281.514 183.675 280.907C184.576 274.466 185.37 267.293 181.979 263.083C182.69 255.699 178.776 250.082 178.244 242.815C180.011 240.689 178.799 237.912 178.925 235.127C179.37 225.08 185.889 209.064 190.803 203.674C193.984 200.185 195.664 194.823 198.61 190.743C201.241 187.101 206.029 185.24 208.453 182.007C214.4 174.081 221.632 167.427 230.514 162.438C230.334 160.973 231.106 160.484 231.192 159.293C233.639 158.087 235.312 156.075 236.625 153.702C241.428 152.472 243.472 148.405 246.466 145.312C252.506 140.935 258.921 136.933 263.096 130.636C279.079 123.674 289.605 111.1 305.524 104.076C305.993 102.111 306.435 100.123 307.901 99.1829C316.99 97.7108 321.611 91.6349 328.941 88.3495C328.807 84.4856 331.039 83.0527 334.374 82.7583C335.141 79.2097 339.926 79.0195 341.161 75.0722C347.3 76.1743 350.046 71.0052 352.703 67.3836C357.412 66.1747 360.398 63.1888 361.526 58.2958C365.694 57.8894 366.805 55.5732 370.013 54.802C370.451 53.4211 368.895 54.0881 369.333 52.7072C370.805 50.9563 371.942 48.8694 372.387 46.066C377.235 44.4219 379.488 40.0943 383.589 37.6791C383.779 34.3806 386.922 34.1201 388 31.7361C386.507 31.3817 384.138 31.1446 382.911 30.3369C376.962 38.8932 365.438 41.7097 362.207 53.0537Z" fill="#D7DBDB"/>
<path fill-rule="evenodd" clip-rule="evenodd" d="M397.967 34.4674C393.75 36.0607 392.705 40.9267 387.468 41.4638C382.956 44.846 382.827 52.763 376.29 54.0564C372.095 59.1675 365.444 61.7413 361.728 67.3453C360.917 67.1314 360.185 66.8446 359.018 66.9984C351.524 79.3094 334.899 82.1961 327.52 94.627C326.265 94.8747 326.063 94.0298 324.808 94.2775C318.981 100.852 310.428 104.604 302.121 108.62C298.522 115.984 288.351 116.555 283.829 122.962C282.665 122.806 281.93 123.095 281.122 123.309C280.933 124.396 280.844 125.588 280.445 126.457C272.471 128.783 266.972 135.312 260.462 138.001C251.735 144.729 244.327 152.818 236.752 160.735C236.317 161.217 235.28 161.082 234.381 161.084C224.856 171.648 213.162 179.977 203.562 190.462V193.962C198.474 199.438 192.199 203.683 190.351 212.5C186.7 217.006 183.917 222.412 184.255 231.038C181.023 236.178 185.023 243.318 185.273 249.224C185.894 260.257 189.167 271.544 191.369 282.105C192.434 283.568 193.914 284.608 194.755 286.301C195.091 287.693 193.742 287.354 194.078 288.752C198.507 293.855 202.254 299.657 205.931 305.538C212.958 311.46 219.417 317.963 225.237 325.127H227.608C227.419 325.838 226.588 325.812 227.268 326.524C229.568 326.277 230.952 327.257 232.35 326.175C232.749 323.082 228.853 321.708 228.285 318.48C225.21 317.689 224.066 314.91 222.528 312.534C212.208 306.518 207.587 294.616 200.176 285.602C196.313 278.981 193.586 271.186 193.74 260.417C189.74 253.086 190.151 241.08 189.674 231.038C191.472 221.471 195.237 213.929 199.158 206.555C207.633 199.099 213.12 188.561 220.834 180.321C238.204 168.646 251.561 152.828 268.249 140.449C285.531 131.831 299.765 120.062 314.988 109.319H317.359C327.788 99.8032 340.704 92.8563 349.872 82.0344C358.006 81.5728 358.493 73.2152 366.47 72.5919C368.338 70.6727 370.828 69.3975 371.212 65.9475C375.555 65.306 376.976 61.6396 379.337 58.9537C382.347 59.3761 383.269 57.6524 384.759 56.505C385.079 48.9505 393.447 48.0874 393.564 41.4638C395.874 40.7259 398.283 37.3124 400 34.8168C399.402 34.6187 398.01 35.2393 397.967 34.4674Z" fill="#D7DBDB"/>
<path fill-rule="evenodd" clip-rule="evenodd" d="M195.535 241.75C195.568 242.828 195.124 243.414 194.861 244.188C197.458 251.577 197.002 261.546 200.244 268.902C198.735 271.536 201.498 273.823 201.591 276.909C206.643 278.876 207.854 284.815 209.659 290.141C214.988 297.969 219.832 306.298 227.82 311.377C227.622 312.626 228.212 313.062 228.495 313.814C235.18 317.842 239.55 325.587 248 326.696C243.88 317.24 232.04 314.006 229.503 304.066C227.276 303.349 224.924 302.77 224.122 300.582C224.288 299.363 224.621 298.319 224.461 296.754C215.559 285.882 204.848 275.056 203.271 257.765C200.385 248.182 200.863 238.314 199.906 226.78C200.548 218.547 208.739 212.819 206.297 204.848C199.126 212.209 190.423 227.748 195.535 241.75Z" fill="#D7DBDB"/>
<path fill-rule="evenodd" clip-rule="evenodd" d="M194.982 321.393C194.984 320.769 195.87 320.994 195.634 320.138C194.984 320.133 195.22 319.277 194.326 319.507C193.81 320.881 194.3 321.723 194 323.595C195.371 323.64 195.827 323.023 196.94 323.595C197.371 321.282 195.364 322.329 194.982 321.393Z" fill="#D7DBDB"/>
<path fill-rule="evenodd" clip-rule="evenodd" d="M217.139 263.641C211.448 258.195 214.867 244.517 211.028 236.664C211.056 233.115 212.106 230.223 211.37 226.857C212.653 221.641 215.773 218.324 217.139 213.195C217.076 204.605 219.563 198.647 224.267 194.975C227.405 183.142 242.514 181.838 243.273 168.707C233.896 170.24 232.301 179.801 224.267 182.718C218.647 190.23 212.539 197.235 211.709 209.692C202.07 222.895 207.334 242.331 208.313 260.486C209.917 262.097 211.124 264.126 212.048 266.44C212.321 267.657 211.542 267.788 211.709 268.893C213.599 274.534 217.094 278.514 219.176 283.957C223.46 286.89 226.304 291.314 228.339 296.569C230.3 298.865 233.648 299.727 233.772 303.927C235.664 305.24 239.118 304.945 239.199 308.126C239.184 309.516 236.426 308.071 236.826 309.879C238.169 312.402 239.387 310.916 241.578 310.229C246.249 311.827 246.879 317.599 251.758 318.988C252.034 320.198 251.123 320.467 251.758 321.088C257.178 321.697 260.511 326.286 264.994 326.696C265.144 323.272 262.226 323.013 260.581 321.441C257.077 311.864 246.181 309.918 242.593 300.422C241.163 299.568 240.766 301.14 238.86 300.772C234.349 285.579 221.805 278.674 217.139 263.641Z" fill="#D7DBDB"/>
<path fill-rule="evenodd" clip-rule="evenodd" d="M411.631 43.1044C410.619 46.0222 410.389 49.7425 407.568 50.7898C406.538 60.3274 398.903 63.0446 396.061 70.7091C395.269 71.0556 394.396 71.3214 393.351 71.4047C391.252 85.194 383.543 93.1946 374.401 99.7128C373.071 99.804 373.139 98.444 371.69 98.6629C370.79 99.4809 370.663 101.099 370.34 102.508C365.205 105.014 361.938 109.443 356.459 111.592C355.528 114.127 353.414 115.435 350.706 116.133C347.11 119.76 342.565 122.404 337.847 124.874C329.098 125.859 326.587 133.281 316.181 132.557C314.599 132.098 313.771 130.855 311.783 130.814C309.486 131.819 307.864 133.52 307.72 136.751C306.857 137.376 305.747 137.741 305.015 138.496H302.307C298.424 140.664 294.508 142.795 293.506 147.932C280.359 157.658 266.877 167.028 253.906 176.936C248.812 184.371 242.309 190.353 238.001 198.603C232.566 202.191 230.502 209.261 224.12 211.88C221.617 218.963 218.173 225.072 216 232.497C217.729 236.884 217.595 243.194 218.031 248.92C218.637 250.155 219.328 251.304 219.722 252.763C221.597 263.989 227.151 271.419 232.246 279.318C233.389 287.808 241.769 288.824 243.414 296.791C250.49 302.533 256.478 309.395 264.399 314.264C264.199 315.514 264.792 315.952 265.077 316.707C269.314 316.76 270.233 320.24 272.862 321.949C274.906 319.633 275.348 323.593 277.937 322.298C277.23 317.088 271.948 316.606 268.799 313.915V311.468C263.243 306.836 259.528 300.31 251.875 297.838C248.852 293.737 245.647 289.83 242.4 285.958C242.349 284.148 241.514 283.145 241.047 281.764C233.681 278.416 233.568 267.589 227.507 262.897C223.82 253.659 225.841 242.829 221.753 234.243C222.457 229.845 225.263 227.618 225.478 222.709C226.578 221.751 226.936 220.023 228.183 219.218C228.372 216.73 229.404 215.118 230.214 213.276C243.457 203.069 249.622 185.557 264.739 177.288C265.844 175.983 266.75 174.474 267.785 173.093C280.765 165.528 290.849 154.972 304.336 147.932C305.3 147.065 305.409 145.309 306.706 144.785C324.051 138.702 338.263 129.378 354.092 121.727C361.756 115.662 372.013 112.275 377.784 104.254C381.688 101.88 385.304 99.2074 387.26 94.8202C393.386 92.2932 395.423 85.5379 397.414 78.7462C402.488 72.3139 405.607 65.3633 410.275 58.1312C410.349 57.0032 409.677 56.6489 409.937 55.3333C410.306 53.3846 412.463 53.283 413.321 51.8423C412.163 49.9014 413.844 45.0427 414 42.7527C412.933 42.5808 412.804 43.3806 411.631 43.1044Z" fill="#D7DBDB"/>
<path fill-rule="evenodd" clip-rule="evenodd" d="M398.538 50.1232C396.22 51.8131 394.225 53.8343 391.757 55.3678C391.203 60.6306 387.582 62.7248 385.314 66.2142C384.861 66.7098 383.392 66.7098 382.94 66.2142C380.173 69.954 376.917 74.844 371.746 74.9587C370.75 76.028 370.921 78.3073 369.371 78.8054C360.357 80.0025 358.898 88.9869 349.363 89.6493C343.004 98.3651 332.422 102.728 324.945 110.289C313.192 113.794 308.765 124.846 296.795 128.13C288.969 139.065 270.973 139.506 263.218 150.516C261.939 150.248 261.597 150.941 260.505 150.866C256.634 157.018 251.372 161.736 246.937 167.306C245.27 186.342 227.396 188.66 223.199 205.088C221.507 206.079 219.426 208.35 220.147 210.679C220.223 210.953 220.43 211.091 220.824 211.029C229.995 204.751 236.226 195.436 241.854 185.494C246.717 184.451 247.473 179.17 250.669 176.403C250.702 161.277 262.482 158.267 270.68 151.562C277.757 148.952 281.135 142.528 290.352 142.119C296.782 138.846 301.748 134.055 307.308 129.877H310.36C317.832 122.661 325.324 115.458 335.459 110.988C346.847 99.6508 361.482 91.6548 372.762 80.2059C372.798 80.7536 372.719 81.4186 373.442 81.2569C379.304 78.0882 382.603 72.2777 389.382 70.0636C392.768 58.6251 404.296 53.73 406 41.7256C401.59 41.2092 401.034 47.5126 398.538 50.1232Z" fill="#D7DBDB"/>
<path fill-rule="evenodd" clip-rule="evenodd" d="M401.277 84.8871C400.941 90.4676 397.004 92.3503 396.19 97.442C394.433 96.7243 393.472 97.5668 392.461 98.4874C391.922 100.388 393.639 101.21 392.797 102.326C390.969 101.47 389.654 101.064 388.054 102.326C388.542 103.566 389.846 103.969 389.745 105.815C382.127 107.511 378.716 113.541 370.757 114.883C369.506 119.99 363.488 120.196 360.58 123.605C359.822 123.363 358.881 122.554 358.209 123.251C350.593 130.769 339.688 134.899 331.079 141.392C329.984 141.897 328.232 141.72 326.67 141.738C316.258 147.542 306.144 153.648 295.128 158.833C285.98 170.813 268.651 174.381 259.859 186.736C259.465 186.442 258.949 186.273 258.165 186.385C257.993 188.07 257.538 189.464 257.149 190.92C247.913 200.607 238.07 209.664 234.085 224.752C232.96 226.151 231.9 227.617 230.694 228.938C227.665 251.146 234.75 272.075 247.991 282.653C259.609 301.863 278.941 313.141 296.147 326.601H298.86C299.254 328.59 302.483 329.289 304.624 328.345C303.418 324.356 297.99 324.705 296.827 320.672C293.846 320.131 292.053 318.37 289.366 317.533C286.994 312.064 281.975 309.323 277.156 306.372C273.05 298.394 265.394 294.051 258.504 288.933C247.751 275.224 236.403 262.133 234.426 239.403C234.955 237.093 235.281 234.979 234.765 232.426C235.238 231.17 236.257 230.47 237.139 229.635C237.309 225.745 239.809 224.247 240.191 220.568C253.455 204.33 261.935 183.171 284.276 176.272C292.471 169.815 300.455 163.147 310.731 158.833C311.53 157.91 312.248 156.901 312.763 155.694C325.044 149.604 338.295 144.513 348.373 136.16C361.116 128.92 374.656 122.5 386.357 114.186C391.606 114.8 393.518 109.011 397.884 107.56C397.631 100.318 404.488 100.396 403.99 92.9094C408.359 90.8889 410.286 86.3589 410.774 80.3519C419.53 76.4539 419.914 63.9406 424 55.2395C422.516 55.0054 422.089 53.7156 420.607 54.1915C414.88 65.1628 409.909 76.9037 401.277 84.8871Z" fill="#D7DBDB"/>
<path fill-rule="evenodd" clip-rule="evenodd" d="M328.813 317.341C321.677 315.279 315.972 311.735 308.509 310.006C306.356 307.067 302.173 304.882 298.017 305.119C295.33 302.651 292.983 299.834 288.54 299.18C279.568 287.422 262.945 284.373 258.083 268.452C253.314 265.58 250.392 259.302 250.975 252.035C250.127 249.182 247.934 247.721 246.912 245.05C246.405 236.596 251.704 232.745 250.975 223.747C255.156 218.284 258.708 212.171 261.128 204.893C266.561 199.558 271.94 194.164 277.034 188.477C279.447 187.121 282.242 186.168 284.48 184.634C285.432 182.692 286.829 180.398 285.497 178C273.27 180.635 269.207 191.693 260.788 198.254C260.497 201.329 258.832 202.985 258.083 205.589C250.833 212.923 248.782 220.099 245.222 231.43C243.584 236.64 241.354 240.368 242.176 245.401C243.991 256.545 246.393 267.246 253.682 272.289C258.037 280.369 263.994 286.794 270.941 292.197C271.806 292.7 273.328 292.528 273.989 293.244C274.953 294.108 274.95 295.978 275.679 297.087C290.443 308.139 310.997 315.828 328.813 321.533C329.169 320.423 328.929 318.359 328.813 317.341Z" fill="#D7DBDB"/>
<path fill-rule="evenodd" clip-rule="evenodd" d="M423.919 82.9434C419.177 82.7431 415.632 85.8172 416.795 89.5702C414.686 92.1684 411.811 93.9785 410.01 96.8966V99.6872C405.522 103.906 401.468 108.574 399.159 115.037C396.921 116.923 392.782 116.852 391.017 119.224C382.105 118.66 381.033 126.166 373.381 126.897C371.345 128.988 368.349 130.098 365.916 131.784C358.828 134.72 350.852 136.751 346.925 142.943C349.633 144.608 353.513 142.582 356.423 142.246C361.258 139.198 366.816 136.889 372.362 134.572C376.934 131.175 383.152 124.142 388.981 125.503C382.973 131.185 379.384 139.352 368.632 140.153C368.116 141.019 367.934 142.228 366.935 142.598C361.185 143.599 356.127 145.552 350.655 146.782C341.992 142.272 335.922 151.622 330.984 155.503C321.17 155.875 315.677 160.694 310.291 165.62C299.058 170.114 290.377 177.232 284.515 187.245C279.602 189.869 274.987 192.793 273.662 199.107C269.343 203.154 265.577 207.771 263.825 214.455C263.114 215.937 261.22 216.197 261.45 218.645C260.613 218.598 259.817 218.59 259.415 218.993C258.375 223.271 257.174 227.386 254.668 230.156C250.296 243.097 255.126 257.958 262.128 265.388C267.223 279.334 281.165 284.182 290.958 293.295C292.271 293.11 292.615 293.916 294.011 293.643C304.323 305.43 321.673 310.983 338.107 314.577C344.771 318.26 352.392 319.568 362.189 319.461C362.636 318.585 360.846 318.369 361.847 318.062C361.698 316.32 361.132 318.832 360.153 318.411C359.885 317.524 359.539 316.72 358.798 316.317C337.94 314.51 324.369 303.357 307.239 298.876C301.706 293.758 295.654 289.165 288.245 285.969C278.841 277.037 271.166 266.327 262.128 257.017C258.82 251.505 255.675 244.145 257.72 236.083C273.292 200.241 297.746 173.529 334.375 159.341C352.767 151.979 371.968 145.443 392.036 139.804C395.612 136.65 401.827 134.982 405.264 130.735C415.48 126.127 420.649 113.3 429.345 105.968C429.34 104.449 429.234 102.829 429.684 101.781C430.749 102.08 431.115 103.102 432.398 103.177C433.075 102.129 433.08 100.389 435.111 100.735C434.663 98.0643 436.218 97.4557 436.808 95.8511C436.178 94.868 435.758 93.6742 435.452 92.3634C443.597 92.9356 447.995 78.5272 448 72.8263C447.36 71.9784 446.609 71.232 444.948 71.4297C444.136 77.0526 442.687 79.2502 441.218 84.6885C438.482 87.9811 433.343 84.7483 430.701 87.8302C431.793 90.4154 428.776 92.5143 430.023 95.5C428.657 95.7418 428.089 95.1671 426.973 95.1514C424.94 100.972 420.758 104.577 418.831 110.504C411.371 115.565 407.262 125.726 397.799 127.596C396.522 128.605 395.561 129.942 394.069 130.735C395.313 134.543 386.505 140.129 383.557 137.362C390.422 129.776 397.002 121.893 406.28 116.782C409.947 112.181 412.463 106.397 416.795 102.48C417.245 100.668 415.075 100.317 416.12 98.9902C417.344 99.1436 417.756 99.8849 418.831 99.3387C420.093 97.9343 420.12 95.1202 418.831 93.7548C423.372 88.972 427.997 81.8796 426.632 74.9199C427.413 75.2788 426.622 77.2554 427.99 77.0136C428.281 69.2762 434.863 67.7548 434.77 61.3152C433.128 62.8809 430.377 63.3048 427.99 64.1059C427.047 70.7717 419.281 75.8484 423.919 82.9434Z" fill="#D7DBDB"/>
<path fill-rule="evenodd" clip-rule="evenodd" d="M293 143.282C286.471 141.039 281.771 149.083 276.593 151.629C272.729 153.38 268.626 154.889 265.313 157.194C264.671 158.167 264.353 159.461 263.945 160.672C259.618 162.531 256.307 165.422 254.031 169.369C253.899 170.78 254.156 171.791 255.4 171.804C261.837 170.241 263.965 164.289 270.099 162.412C276.603 154.889 287.921 152.262 293 143.282Z" fill="#D7DBDB"/>
<path fill-rule="evenodd" clip-rule="evenodd" d="M294.454 275.87C288.763 268.713 279.071 265.709 275.225 256.636C267.311 252.485 267.505 239.928 265.448 229.708C264.165 229.212 262.716 231.21 262.07 232.505C261.708 239.761 262.804 245.503 264.095 251.043C270.04 257.465 273.89 266.066 281.299 270.976C282.124 274.225 285.31 276.412 288.046 276.569C291.396 280.79 295.679 284.049 301.875 285.311C302.082 286.151 302.361 286.909 302.212 288.111C314.135 298.512 331.591 304.542 347.075 310.143C353.413 310.143 360.06 312.104 367.315 312.239C367.396 311.274 368.311 311.173 369 310.842C368.356 306.344 361.657 305.935 357.872 307.692C348.796 304.154 338.13 300.428 328.86 298.251C321.134 292.39 308.819 291.284 304.911 281.465C303.706 281.319 303.11 280.534 301.541 280.764C300.787 279.447 299.471 278.715 299.177 276.918C297.515 276.66 296.059 276.188 294.454 275.87Z" fill="#D7DBDB"/>
<path fill-rule="evenodd" clip-rule="evenodd" d="M268.999 327.139C268.247 325.887 265.725 326.151 266.025 328.384C267.207 329.013 269.049 329.013 268.999 327.139Z" fill="#D7DBDB"/>
<path fill-rule="evenodd" clip-rule="evenodd" d="M268.611 -5.80436C271.347 -6.56669 269.391 -9.64756 267 -8.73471C267.009 -7.33387 267.39 -6.22922 268.611 -5.80436Z" fill="#D7DBDB"/>
<path fill-rule="evenodd" clip-rule="evenodd" d="M379.067 289.779C377.498 290.491 375.738 291.005 373.308 290.83C367.991 288.389 360.224 288.483 357.044 283.834C337.426 278.497 314.519 272.839 296.062 264.251C291.74 257.639 284.193 254.353 279.124 248.513C275.918 240.949 274.4 231.088 274.044 221.585C274.938 216.92 277.671 214.143 277.093 207.946C274.926 208.509 274.312 210.673 273.024 212.143C269.826 219.707 266.54 230.423 271.667 238.37C270.253 243.476 273.832 246.38 275.734 249.212C276.3 249.678 275.85 251.193 276.411 251.66C283.362 261.857 293.39 268.876 305.549 273.692C307.853 276.325 310.581 278.526 316.049 277.89C321.649 280.155 328.684 280.938 333.329 284.186C335.488 284.056 336.794 284.807 339.09 284.533C347.499 289.727 359.749 290.952 369.58 294.676C399.024 294.983 420.584 287.521 437 273.692C421.857 283.24 401.393 287.299 380.762 291.179C379.468 291.466 380.36 289.492 379.067 289.779Z" fill="#D7DBDB"/>
<path fill-rule="evenodd" clip-rule="evenodd" d="M279.343 323.973C277.837 327.077 281.642 327.469 283.986 327.728C283.991 326.242 284.095 324.657 283.655 323.629C282.24 323.769 280.238 323.298 279.343 323.973Z" fill="#D7DBDB"/>
<path fill-rule="evenodd" clip-rule="evenodd" d="M441.078 96.6624C439.82 97.5661 442.311 98.347 441.42 98.7649C436.005 100.768 436.048 108.402 431.233 111.022C430.084 111.866 432.562 112.884 431.233 113.827C430.077 114.086 430.674 112.537 429.874 112.427V115.23C428.53 115.825 427.53 116.781 425.462 116.63C425.391 117.727 425.69 119.202 425.12 119.785C421.237 122.007 416.255 124.426 415.953 129.242C406.288 135.5 397.937 143.116 384.376 145.36C383.11 146.033 382.578 147.47 380.979 147.809C375.987 145.979 371.412 148.93 367.4 150.259C365.099 155.245 358.646 155.943 354.497 159.019C341.799 161.091 328.84 167.092 318.163 173.382C317.072 174.176 315.915 173.074 315.107 173.732C313.446 174.353 313.5 176.743 311.712 177.237C310.431 177.665 309.004 177.942 307.298 177.934C296.022 186.618 282.904 193.406 280.135 210.866C281.778 214.21 280.282 219.088 279.117 221.726C278.477 236.245 280.226 249.555 290.321 253.956C290.481 255.191 291.18 255.873 291.681 256.759C308.11 268.036 331.739 273.435 353.479 280.228C386.029 279.534 416.672 274.649 436.327 259.558C442.228 258.524 445.774 255.058 447.87 250.101C433.674 260.553 416.472 266.469 397.276 272.171C390.958 272.15 385.396 273.145 380.3 274.973C364.304 275.908 347.626 274.963 335.48 268.666C327.926 267.12 320.684 265.25 316.806 259.911C310.302 261.522 306.538 258.114 301.865 256.759C301.298 256.176 301.594 254.7 301.528 253.606C290.549 250.451 283.021 243.741 283.19 229.081C283.719 227.76 284.274 226.462 284.552 224.881C281.859 206.682 292.749 199.476 299.827 190.197C310.791 183.408 321.707 176.571 334.463 171.632C364.446 161.459 394.684 148.52 420.368 132.742C422.74 128.769 425.568 125.267 430.213 123.635C434.995 117.243 438.63 109.667 445.154 105.07C445.45 96.8452 456.06 92.8361 453.642 83C448.351 86.4136 447.498 94.4084 441.078 96.6624Z" fill="#D7DBDB"/>
<path fill-rule="evenodd" clip-rule="evenodd" d="M414.275 249.713C408.832 250.148 405.044 252.304 400.408 253.584C397.509 253.555 394.386 253.751 391.956 253.23C383.292 256.925 370.762 254.564 361.188 257.452C350.528 253.901 338.857 257.313 330.087 253.23C326.808 253.911 325.22 254.827 321.295 254.286C312.503 249.713 303.459 245.404 295.599 239.863C293.401 236.058 292.98 230.394 289.852 227.554C282.146 232.835 292.241 241.439 294.586 246.194C302.526 250.594 307.948 257.62 320.617 257.098C323.944 261.026 328.033 264.16 333.806 265.542C341.69 266.1 350.987 270.624 357.132 265.188C349.316 260.971 333.722 264.996 329.072 258.509C342.616 258.283 354.299 260.557 366.6 263.079C368.125 263.142 367.437 260.9 369.305 261.322C375.118 263.467 384.207 261.236 389.251 259.209C395.493 259.891 403.085 257.014 410.554 256.749C412.119 256.148 412.692 254.515 414.275 253.932C430.851 253.314 440.097 242.459 452.479 236.344C453.608 237.183 451.302 238.371 452.479 239.16C454.773 236.155 456.504 232.562 458.566 229.313C454.629 230.291 454.513 235.379 449.096 233.884C447.503 234.571 447.548 236.963 446.053 237.752C437.206 240.154 430.574 246.742 423.064 249.362C429.465 241.245 440.457 237.907 447.407 230.365C450.687 228.031 454.226 225.972 457.213 223.329C457.548 221.928 456.202 222.272 456.537 220.869C457.361 221.066 457.256 222.233 458.566 221.923C460.548 218.126 465.055 216.954 466 212.076C456.862 220.859 445.128 226.94 435.575 235.292C426.871 238.429 422.654 246.238 414.275 249.713Z" fill="#D7DBDB"/>
<path fill-rule="evenodd" clip-rule="evenodd" d="M392.685 246.045C401.495 242.09 412.698 238.766 421.08 235.542C416.251 243.435 403.461 246.622 392.685 246.045Z" fill="#D7DBDB"/>
<path fill-rule="evenodd" clip-rule="evenodd" d="M450.488 104.571C448.971 109.764 447.093 114.591 442.038 116.124C440.752 121.682 435.543 124.241 431.559 125.932C431.433 129.065 429.379 130.212 428.854 132.935C426.634 132.501 426.916 134.663 424.799 134.334C421.692 141.621 411.674 141.749 407.897 148.344C398.645 149.148 391.783 152.427 386.604 157.447C375.659 161.753 364.509 165.844 354.827 171.454C334.751 179.138 310.635 182.639 299.053 199.119C291.595 203.022 287.976 211.721 289.252 223.632C297.966 232.579 302.097 246.275 318.657 247.095C334.471 254.074 358.995 251.397 374.096 252.348C376.77 251.032 380.323 250.63 383.222 249.546C383.847 249.599 383.431 250.732 383.897 250.948C385.091 250.552 386.679 250.562 387.954 250.246C411.563 252.87 422.65 239.505 436.629 230.986C439.391 227.31 443.126 224.645 446.77 221.882C455.896 216.514 458.535 204.421 465.362 196.67C457.257 203.21 451.418 212.102 445.755 221.183C444.729 220.848 444.399 219.786 442.715 220.13C441.617 220.512 441.438 221.846 440.684 222.582C439.119 222.942 438.401 224.182 436.292 223.981C433.192 227.775 428.527 229.942 424.124 232.388C409.925 233.396 396.326 238.873 385.588 243.594C379.804 242.019 374.834 247.745 370.379 245.346C369.056 246.194 367.745 247.053 366.659 248.147C366.024 246.118 363.141 246.421 361.926 244.996C361.551 246.356 361.225 247.768 359.56 247.795C356.175 245.983 354.597 245.959 350.772 247.095C349.247 246.338 348.627 244.646 346.714 244.293C325.769 246.521 306.926 240.758 299.39 226.783C299.688 225.574 300.101 224.485 301.081 223.981C311.142 221.869 320.414 225.989 329.814 226.086C342.873 226.211 357.15 222.044 369.023 218.731C383.085 214.807 397.02 209.666 407.221 202.62C407.819 202.936 408.207 203.466 408.912 203.672C423.378 195.08 439.641 188.349 449.137 174.608C449.336 173.308 448.096 172.575 448.799 171.807C455.679 167.844 457.29 158.424 464.684 154.996C467.456 148.067 472.272 143.245 475.503 136.786C476.055 135.368 473.714 135.175 474.83 134.334C475.911 134.029 475.528 135.245 476.178 135.384C477 133.499 477.164 129.246 476.854 127.332C473.021 129.209 472.978 138.013 467.391 139.237C466.282 145.908 460.841 148.093 460.291 155.348C459.006 155.86 460.223 153.782 458.94 154.294C453.255 159.964 448.751 166.854 440.349 169.705C438.121 173.272 431.74 174.274 432.234 179.511C438.512 181.449 440.435 173.154 446.095 172.157C444.036 177.971 438.663 183.36 429.868 183.36C427.252 186.95 422.146 187.968 420.742 192.816C418.565 191.435 418.214 193.879 417.362 194.918C411.672 194.86 409.081 198.014 406.884 201.573C405.971 200.881 403.93 201.364 402.488 201.22C379.051 208.458 359.068 221.138 330.489 221.882C340.671 218.655 351.082 215.666 362.264 213.475C366.256 209.327 372.917 207.938 377.813 204.724C386.813 204.476 391.478 199.732 399.109 198.066C408.542 192.863 418.781 186.816 427.841 180.209C430.132 171.846 439.096 170.395 442.378 163.05C443.088 163.669 443.376 163.841 444.404 163.403C450.601 156.513 459.117 152.025 460.967 140.639C453.222 146.976 448.61 156.549 439.674 161.651C437.998 165.638 435.427 168.69 430.883 169.705C423.081 180.415 409.321 184.955 398.433 192.469C394.933 192.041 394.086 194.714 392.009 195.62C389.131 196.873 386.377 197.411 384.235 198.419C374.945 202.802 363.158 202.489 357.531 209.977C343.095 213.115 331.543 219.238 315.277 220.48C312.999 218.17 308.44 218.225 303.785 218.379C304.103 211.418 310.353 207.716 314.94 204.024C328.594 200.876 341.699 192.307 357.531 191.417C358.831 189.255 361.283 188.49 364.63 189.318C367.478 185.378 373.854 185.099 379.502 184.062C387.269 181.018 394.512 177.433 401.473 173.556C408.612 172.311 412.249 167.444 417.362 164.1C418.076 162.622 418.655 161.006 420.067 160.249C420.775 160.536 421.385 161.69 422.095 160.949C435.394 151.38 447.292 140.368 455.221 125.233C456.012 125.34 456.619 125.917 457.249 125.233C458.892 121.095 461.97 118.447 461.98 112.628C463.119 112.168 464.674 112.145 465.362 111.223C465.878 108.68 467.983 106.064 466.715 102.822C464.276 102.498 464.346 107.73 460.967 106.67C459.999 108.427 461.176 111.711 460.967 112.628C460.357 111.834 459.26 111.8 458.265 112.275C454.545 120.212 451.377 128.721 443.053 131.885C441.428 140.01 433.373 141.467 430.546 148.344C427.678 147.474 427.33 150.923 424.799 149.743C423.91 151.155 423.224 152.779 421.08 152.894C419.55 153.202 420.291 151.145 419.051 151.142C418.491 154.544 414.56 155.487 415.336 159.199C402.377 167.369 387.995 179.138 370.038 177.76C367.317 182.53 358.461 180.942 355.167 185.109H347.392C331.515 194.696 306.681 194.999 298.712 212.778C299.715 217.141 298.402 221.671 294.66 222.232C292.697 208.494 302.999 198.45 314.264 194.918C326.651 185.806 343.39 181.203 360.573 177.057C362.74 174.747 365.459 173.013 369.363 172.507C370.197 171.622 370.691 170.381 371.727 169.705C372.793 169.173 373.756 168.538 375.109 168.303C378.854 164.011 385.157 162.369 390.659 159.899C394.895 157.325 402.03 150.936 406.884 153.597C405.079 157.562 401.092 159.27 396.405 160.249C391.931 167.758 375.797 165.042 374.096 174.256C376.462 175.227 378.766 173.319 381.871 173.906C393.166 166.348 407.687 162.131 413.983 149.396C415.583 149.252 416.309 150.02 418.04 149.743C435.987 136.585 449.873 119.223 459.618 97.566C459.638 95.7959 459.187 95.5609 459.618 94.0649C460.218 93.8717 461.019 93.8873 461.307 93.3626C458.643 93.8691 460.271 91.6812 458.94 91.2609C458.792 97.4145 453.078 97.7957 452.854 103.868C452.29 104.336 451.723 104.798 450.488 104.571Z" fill="#D7DBDB"/>
<path fill-rule="evenodd" clip-rule="evenodd" d="M297.445 311.553C295.49 311.584 293.517 311.628 292 311.207C293.491 317.082 301.222 316.599 303.908 321.257C310.406 322.288 318.862 327.843 325 324.722C318.745 324.626 315.324 321.642 312.072 318.485C305.437 317.966 302.107 314.08 297.445 311.553Z" fill="#D7DBDB"/>
<path fill-rule="evenodd" clip-rule="evenodd" d="M468.469 155.276C467.64 157.805 465.453 158.925 464.751 161.591C460.435 163.661 458.765 168.475 454.953 171.067C451.463 180.776 443.721 186.072 435.69 191.071C434.979 191.963 434.853 193.476 434.337 194.577C432.168 194.305 426.89 196.586 426.227 200.192C413.252 205.811 400.6 212.226 386.691 215.282C383.773 217.396 379.967 218.589 377.568 221.247C375.827 218.987 372.577 222.035 369.456 221.598C368.173 222.255 367.886 223.942 366.417 224.408C359.915 223.95 355.642 224.986 349.52 226.509C342.617 228.23 334.245 227.605 329.582 229.669C325.982 227.942 320.331 228.115 316.406 229.318C313.156 228.573 310.11 225.834 306.268 226.859C305.023 229.973 308.437 231.111 309.984 232.479C322.55 233.51 335.366 230.959 348.505 231.775C360.832 229.593 371.048 225.446 383.987 226.161C383.607 223.777 384.713 222.937 385.34 221.598C405.687 213.953 426.983 207.292 440.759 192.824C441.426 192.343 442.691 192.489 443.464 192.12C457.228 178.811 468.603 163.02 479.282 146.501C479.824 143.905 480.111 141.046 479.96 137.728C477.73 143.955 473.087 147.673 471.51 154.572C470.669 154.988 469.52 155.082 468.469 155.276Z" fill="#D7DBDB"/>
<path fill-rule="evenodd" clip-rule="evenodd" d="M307.636 327.899C307.321 327.809 307.165 327.552 307.231 327.068C306.172 326.941 305.911 327.642 306.025 328.732C306.94 328.847 307.537 328.63 307.636 327.899Z" fill="#D7DBDB"/>
<path fill-rule="evenodd" clip-rule="evenodd" d="M364.21 299.113C359.957 298.468 356.069 295.528 352.013 294.598C346.234 293.266 341.429 291.997 336.428 290.08C334.544 289.321 334.062 291.797 333.38 291.121V289.036C329.295 287.971 326.09 287.279 323.557 284.173C319.078 285.743 315.883 278.981 310.003 282.088C309.826 288.1 317.896 288.554 323.216 290.08C325.262 292.846 329.038 293.839 334.057 293.551C338.098 299.395 348.666 297.579 354.385 302.24C361.083 301.857 366.135 303.16 371.664 303.978C384.851 302.792 400.327 301.919 408.93 295.986C410.165 296.092 411.135 295.929 411.981 295.639C412.267 294.66 413.075 294.212 412.994 292.857C398.403 299.191 380.067 301.522 364.21 299.113Z" fill="#D7DBDB"/>
<path fill-rule="evenodd" clip-rule="evenodd" d="M335.513 206.113C339.559 202.854 345.616 201.666 352.071 200.893C349.123 205.166 341.567 206.152 335.513 206.113Z" fill="#D7DBDB"/>
<path fill-rule="evenodd" clip-rule="evenodd" d="M379.106 193.934C408.931 185.316 429.395 167.063 449.4 148.339C450.751 145.784 451.995 143.127 454.81 142.076C455.591 141.274 454.182 140.955 454.467 139.639C461.681 137.784 464.85 131.77 469 126.762C468.615 125.192 467.695 124.162 467.652 122.239C462.651 128.225 456.841 133.381 453.119 140.682C447.79 143.666 444.18 148.415 440.614 153.212C438.76 153.97 437.231 155.065 434.872 155.301C425.819 166.279 412.879 173.259 399.722 180.008C385.725 182.538 376.975 193.469 360.519 194.624C355.75 199.338 344.797 196.881 337.201 199.499C333.255 200.859 331.579 203.63 327.74 203.677C326.213 204.888 325.172 206.601 323.346 207.506C320.042 206.889 319.811 209.432 317.601 209.94C314.149 209.634 311.556 210.215 310.166 212.029C309.387 215.501 311.476 216.017 313.884 216.207C329.098 210.76 350.57 211.759 360.182 200.545H364.238C369.24 198.383 374.914 196.92 379.106 193.934Z" fill="#D7DBDB"/>
<path fill-rule="evenodd" clip-rule="evenodd" d="M386.102 82.4154C387.165 80.5523 388.52 77.2944 387.796 74.7391C381.295 75.9465 381.181 83.7451 374.927 85.2075C374.804 86.2457 374.387 86.9796 373.91 87.6509C364.232 91.6374 357.087 98.2338 349.867 104.752C349.374 105.41 347.65 104.796 347.16 105.452C344.292 107.963 342.487 111.57 337.339 111.734C336.587 114.913 332.454 114.609 331.58 117.666C325.389 120.36 320.004 123.888 316 128.835C316.144 129.504 316.126 130.339 317.02 130.232C320.489 131.593 321.451 127.357 324.13 126.74C337.91 121.395 346.867 111.088 360.365 105.452C367.363 96.1416 377.141 89.6962 386.102 82.4154Z" fill="#D7DBDB"/>
<path fill-rule="evenodd" clip-rule="evenodd" d="M464.135 188.481C462.753 194.592 456 195.183 453.312 199.952C446.737 204.083 442.226 210.344 436.06 214.895C435.397 215.587 434.128 215.118 433.354 214.895C429.7 220.045 421.179 223.578 414.751 223.588C407.821 229.52 394.934 227.481 387.013 232.628C383.551 229.575 379.08 232.853 375.176 233.325C368.047 234.18 360.519 237.187 352.512 236.798C350.712 236.71 348.974 235.57 347.103 235.409C339.661 234.766 331.972 237.576 323.761 235.409C322.218 236.14 319.865 236.039 319.025 237.495C318.889 238.791 319.298 239.535 320.379 239.579C327.246 239.986 336.171 241.038 342.705 239.579C360.39 243.213 376.174 238.923 392.09 236.798C403.032 235.336 412.889 226.75 424.898 227.066C433.662 221.359 441.55 214.748 450.265 208.989C452.207 205.187 454.933 202.196 457.707 199.254C458.683 197.927 456.663 197.386 457.707 196.126C464.342 195.688 469.017 187.405 474.28 183.263C475.266 179.734 477.786 176.004 478 172.837C474.949 175.965 472.036 182.224 469.206 186.742C466.758 186.539 465.842 187.913 464.135 188.481Z" fill="#D7DBDB"/>
<path fill-rule="evenodd" clip-rule="evenodd" d="M327.901 328.761C328.271 327.972 329.139 327.657 328.981 326.372C328.357 325.486 326.596 325.677 325.028 325.687C324.774 327.863 326.266 328.382 327.901 328.761Z" fill="#D7DBDB"/>
<path fill-rule="evenodd" clip-rule="evenodd" d="M346 324.539C342.731 321.258 336.549 320.603 330.87 318.435C326.427 324.579 340.154 324.875 346 324.539Z" fill="#D7DBDB"/>
<path fill-rule="evenodd" clip-rule="evenodd" d="M329.607 328.698C330.882 329.147 331.862 327.096 330.947 326.204C330.739 327.332 329.547 327.235 329.607 328.698Z" fill="#D7DBDB"/>
<path fill-rule="evenodd" clip-rule="evenodd" d="M445.231 245.513C433.233 252.224 419.454 257.114 406.222 262.561C405.633 261.659 403.969 261.858 402.489 261.864C387.727 266.294 369.679 264.681 355 270.564V271.61C358.126 272.577 362.858 271.895 365.855 273C367.337 272.074 369.684 272.253 371.621 272.65C379.092 270.798 386.166 269.495 393.67 268.821C409.338 267.423 425.023 259.718 436.412 252.818C441.693 249.62 448.516 247.428 451 240.989C447.839 241.228 446.531 243.365 445.231 245.513Z" fill="#D7DBDB"/>
<path fill-rule="evenodd" clip-rule="evenodd" d="M362.025 17.9456C363.266 17.499 364.568 17.1165 365 15.7925C364.184 14.6156 362.548 13.3318 361.031 13.9978C360.871 15.8487 361.347 17.0041 362.025 17.9456Z" fill="#D7DBDB"/>
<path fill-rule="evenodd" clip-rule="evenodd" d="M402.991 279.196C394.684 278.213 390.761 281.688 384.02 282.293C376.98 283.05 368.004 280.636 362 283.671C366.223 289.712 378.15 284.798 385.371 287.457C391.274 285.819 399.48 286.181 402.991 280.574C403.481 281.223 403.746 282.098 405.024 281.949C420.833 277.818 438.054 271.451 445 260.609C440.156 262.228 437.082 265.644 433.144 268.184C423.571 272.339 412.122 274.589 402.991 279.196Z" fill="#D7DBDB"/>
<path fill-rule="evenodd" clip-rule="evenodd" d="M363 319.041C366.257 320.036 368.663 319.032 372 318.623C370.895 316.749 364.009 314.776 363 319.041Z" fill="#D7DBDB"/>
<path fill-rule="evenodd" clip-rule="evenodd" d="M378.871 309.703C376.294 307.527 372.994 308.637 370.388 310.065C370.631 311.172 369.8 311.132 370.046 312.239C374.561 311.694 382.738 313.298 386 308.98C383.327 307.419 380.918 308.137 378.871 309.703Z" fill="#D7DBDB"/>
<path fill-rule="evenodd" clip-rule="evenodd" d="M443.33 196.298C442.761 196.998 443.358 198.876 442.652 199.425C442.01 199.386 442.414 198.277 441.633 198.383C430.7 207.9 418.388 215.456 401.941 218.533C398.337 222.714 388.41 220.424 386 225.827C386.311 227.477 388.481 227.223 390.072 227.565C393.883 225.073 397.796 224.734 401.941 223.745C419.445 219.582 433.861 211.065 445.024 202.204C453.94 191.185 466.006 183.391 472.84 170.24C474.081 170.238 474.365 169.254 475.217 168.852C476.823 163.664 480.687 160.791 482 155.303C481.305 154.624 481.173 153.373 479.967 153.217C471.995 171.922 457.566 184.013 443.33 196.298Z" fill="#D7DBDB"/>
<path fill-rule="evenodd" clip-rule="evenodd" d="M389 308.95C391.111 309.457 396.588 309.107 398 306.043C394.619 306.244 391.7 306.937 389 307.861V308.95Z" fill="#D7DBDB"/>
<path fill-rule="evenodd" clip-rule="evenodd" d="M418.309 289.719C417.02 290.762 415.593 291.656 415 293.488C418.243 294.646 418.238 289.241 422.948 290.849C422.743 289.826 423.37 287.858 422.619 287.457C421.51 288.46 420.604 289.688 419.305 290.475C418.781 290.439 419.045 289.511 418.309 289.719Z" fill="#D7DBDB"/>
<path fill-rule="evenodd" clip-rule="evenodd" d="M427.885 90.1975C428.503 89.5164 429.56 88.1063 428.637 87.1304C426.96 87.3978 426.474 88.6365 426 89.889C426.44 90.1495 427.01 90.2958 427.885 90.1975Z" fill="#D7DBDB"/>
<path fill-rule="evenodd" clip-rule="evenodd" d="M432.171 81.9674H434.689C436.428 79.1622 438.424 76.5956 439 72.6739C437.65 72.0169 437.985 69.7455 436.125 69.5761C435.688 74.7477 428.165 76.5699 432.171 81.9674Z" fill="#D7DBDB"/>
<path fill-rule="evenodd" clip-rule="evenodd" d="M442 63.2431C441.299 62.2531 440.799 61.0372 438.856 61.3718C435.835 64.5064 441.763 67.7079 442 63.2431Z" fill="#D7DBDB"/>
<path fill-rule="evenodd" clip-rule="evenodd" d="M449.025 249.249C450.201 249.299 450.684 246.821 449.427 246.756C448.962 247.248 448.971 248.224 449.025 249.249Z" fill="#D7DBDB"/>
<path fill-rule="evenodd" clip-rule="evenodd" d="M455.912 83.9948C455.843 82.6844 455.627 81.5165 454.301 81.5041C453.554 82.3963 454.238 84.3262 455.912 83.9948Z" fill="#D7DBDB"/>
<path fill-rule="evenodd" clip-rule="evenodd" d="M457 214.141C463.136 212.275 464.481 205.346 468 200.717C463.958 204.797 458.733 207.627 457 214.141Z" fill="#D7DBDB"/>
<path fill-rule="evenodd" clip-rule="evenodd" d="M469.716 119.759C468.925 119.905 469 119.111 468.075 119.405C467.739 122.342 468.501 124.009 471.031 122.953C472.094 120.082 473 117.039 473 113.015C469.231 112.374 469.701 116.312 469.716 119.759Z" fill="#D7DBDB"/>
<path fill-rule="evenodd" clip-rule="evenodd" d="M469.246 200.717C469.975 199.274 473.26 197.445 471.476 195.554C471.108 197.448 468.139 198.408 469.246 200.717Z" fill="#D7DBDB"/>
</g>
</g>
</svg>
