<svg width="108" height="30" viewBox="0 0 108 30" fill="none" xmlns="http://www.w3.org/2000/svg">
<path opacity="0.3" d="M0.0660818 12.6357C0.697864 20.217 5.06769 22.3756 7.17364 22.5073H9.93754C15.4656 22.5073 16.2554 14.61 16.2554 12.6357C16.2554 11.0562 15.4656 9.08188 15.0708 8.29215L14.6759 5.5281L13.8862 3.15891L12.7016 2.36919L11.1221 0.394864L10.7273 1.57946L9.93754 0H8.35809L5.59418 1.57946C3.48824 2.10594 -0.565701 5.05426 0.0660818 12.6357Z" fill="white"/>
<path fill-rule="evenodd" clip-rule="evenodd" d="M4.78184 29.2102H7.15103L8.33562 30L9.12535 28.8154L11.4945 29.2102C11.0997 29.0786 10.231 28.4995 9.91507 27.2359C9.69073 26.3386 9.85142 22.8655 10.0577 19.4191C10.6553 18.6527 12.362 17.6954 13.4014 17.1124C13.9732 16.7917 14.3429 16.5843 14.215 16.5843C13.5616 16.5843 12.7249 17.0295 11.9958 17.4174C10.9083 17.996 10.0604 18.4471 10.4185 17.1026C10.8381 15.527 12.469 14.3444 13.0108 13.9516C13.138 13.8593 13.2052 13.8106 13.1825 13.8106C12.2495 13.8106 10.965 15.0956 10.2974 15.7635C10.2935 15.7674 10.2896 15.7713 10.2857 15.7751C10.294 15.6449 10.302 15.5165 10.3099 15.39V9.46707L9.91507 6.70302C9.78345 10.9149 9.39521 21.0763 9.0819 20.9278C8.77062 20.7803 8.75311 19.1984 8.72977 17.0892C8.69062 13.5529 8.63507 8.53419 7.15103 6.30812C5.25568 3.4651 6.09805 5.12353 6.75616 6.30812C7.3462 6.72959 7.83398 8.71652 7.7937 14.2394L7.78734 14.2266C7.22795 13.0975 6.11726 10.8555 4.32104 10.2568C2.42569 9.62502 3.26807 9.99356 3.92617 10.2568C4.84756 10.9149 6.69035 12.547 6.69035 13.8106C6.03216 13.8106 4.34353 12.6356 4.34353 12.6356C4.34353 12.6356 4.71603 13.8106 6.69035 14.6003C7.28951 14.84 7.61204 15.3334 7.76722 15.9255C7.74567 16.8476 7.71161 17.8515 7.66365 18.9438C7.41587 18.9025 7.10336 18.8172 6.78138 18.7292C6.07717 18.5369 5.32767 18.3322 5.11089 18.5489C4.91346 18.7464 5.11089 18.7464 5.40704 18.7464C5.70319 18.7464 6.09805 18.7464 6.29548 18.9438C6.48329 19.1316 6.14539 19.2357 5.70219 19.3722C5.39993 19.4653 5.04869 19.5734 4.78184 19.7335H7.62729C7.52331 21.8938 7.36775 24.3798 7.15103 27.2359C7.06532 28.3655 6.7026 28.4879 5.93301 28.7475C5.61966 28.8533 5.23886 28.9817 4.78184 29.2102Z" fill="white"/>
<path fill-rule="evenodd" clip-rule="evenodd" d="M24.7774 25.2713H26.9827V20.2113C26.9827 19.2951 26.7369 18.5918 26.2452 18.1013C25.7535 17.6108 25.0329 17.3655 24.0833 17.3655C23.0131 17.3655 22.2322 17.745 21.7405 18.5038H21.6249L21.6755 17.8791C21.7092 17.2452 21.7261 16.8426 21.7261 16.6714V14.4711H19.5208V25.2713H21.7261V21.6203C21.7261 20.718 21.8635 20.0656 22.1382 19.663C22.413 19.2604 22.8589 19.0591 23.4759 19.0591C24.3436 19.0591 24.7774 19.619 24.7774 20.7388V25.2713ZM32.9319 24.2163L33.3585 25.2713H34.8986V20.1003C34.8986 19.1748 34.6094 18.4853 34.031 18.0318C33.4525 17.5784 32.621 17.3516 31.5364 17.3516C30.4036 17.3516 29.3721 17.5853 28.4417 18.0527L29.172 19.4825C30.0445 19.1077 30.8037 18.9203 31.4496 18.9203C32.2884 18.9203 32.7078 19.3136 32.7078 20.1003V20.4404L31.305 20.482C30.0951 20.5237 29.1889 20.7411 28.5863 21.1345C27.9886 21.5232 27.6897 22.1293 27.6897 22.953C27.6897 23.7396 27.9115 24.3458 28.3549 24.7715C28.8032 25.1972 29.4154 25.4101 30.1915 25.4101C30.823 25.4101 31.334 25.3245 31.7244 25.1533C32.1197 24.9774 32.5029 24.6651 32.8741 24.2163H32.9319ZM31.8546 21.7036L32.7078 21.6759V22.3144C32.7078 22.7818 32.5535 23.1566 32.245 23.4389C31.9413 23.7211 31.534 23.8623 31.023 23.8623C30.3096 23.8623 29.9529 23.5638 29.9529 22.9669C29.9529 22.5504 30.1096 22.2404 30.4229 22.0368C30.7362 21.8332 31.2134 21.7221 31.8546 21.7036ZM43.6099 25.2713H41.4046V20.7388C41.4046 20.1789 41.3009 19.7602 41.0937 19.4825C40.8864 19.2002 40.5562 19.0591 40.1031 19.0591C39.4861 19.0591 39.0402 19.2581 38.7654 19.656C38.4907 20.0494 38.3533 20.7041 38.3533 21.6203V25.2713H36.1479V17.5113H37.8327L38.1291 18.5038H38.252C38.4979 18.129 38.8353 17.8468 39.2643 17.657C39.6982 17.4627 40.1898 17.3655 40.7394 17.3655C41.6793 17.3655 42.3928 17.6108 42.8796 18.1013C43.3665 18.5871 43.6099 19.2905 43.6099 20.2113V25.2713ZM45.1701 24.3481C45.7148 25.0561 46.462 25.4101 47.4116 25.4101C48.4384 25.4101 49.2024 25.0283 49.7037 24.2648H49.7977L50.2243 25.2713H51.9163V14.4711H49.7037V16.956C49.7037 17.4095 49.7592 17.9254 49.87 18.5038H49.7977C49.2626 17.745 48.4866 17.3655 47.4695 17.3655C46.5006 17.3655 45.7389 17.7218 45.1846 18.4344C44.6351 19.1424 44.3603 20.1326 44.3603 21.4052C44.3603 22.6592 44.6302 23.6402 45.1701 24.3481ZM49.4217 23.2515C49.1614 23.5661 48.7493 23.7234 48.1853 23.7234C47.6743 23.7234 47.2815 23.5337 47.0067 23.1543C46.7319 22.7702 46.5946 22.1964 46.5946 21.4329C46.5946 20.6694 46.7295 20.0887 46.9995 19.6907C47.2742 19.2882 47.6575 19.0869 48.1491 19.0869C48.7517 19.0869 49.1855 19.2673 49.4506 19.6283C49.7206 19.9892 49.8556 20.5861 49.8556 21.419V21.6481C49.8315 22.4023 49.6868 22.9368 49.4217 23.2515ZM56.9978 25.4101C56.482 25.4101 56.0096 25.3199 55.5806 25.1394C55.1564 24.9543 54.7997 24.672 54.5105 24.2926H54.4237C54.4815 24.7368 54.5105 25.1579 54.5105 25.5559V28.6862H53.3102V17.664H54.2863L54.4526 18.7051H54.5105C54.819 18.2887 55.1781 17.9879 55.5878 17.8028C55.9976 17.6177 56.4675 17.5252 56.9978 17.5252C58.0486 17.5252 58.8585 17.8699 59.4273 18.5594C60.0009 19.2488 60.2877 20.2159 60.2877 21.4607C60.2877 22.7101 59.9961 23.6818 59.4128 24.3759C58.8344 25.0654 58.0294 25.4101 56.9978 25.4101ZM56.8243 18.5038C56.0144 18.5038 55.4288 18.719 55.0672 19.1493C54.7057 19.5797 54.5201 20.2645 54.5105 21.2039V21.4607C54.5105 22.5296 54.696 23.2954 55.0672 23.7582C55.4384 24.2163 56.0337 24.4453 56.8532 24.4453C57.5377 24.4453 58.0727 24.1792 58.4584 23.6471C58.8488 23.115 59.0441 22.3815 59.0441 21.4468C59.0441 20.4982 58.8488 19.7717 58.4584 19.2673C58.0727 18.7583 57.528 18.5038 56.8243 18.5038ZM65.926 17.6084C65.6464 17.5529 65.3307 17.5252 64.9788 17.5252C64.4823 17.5252 64.0267 17.6594 63.6122 17.9277C63.1976 18.1961 62.8433 18.5779 62.5493 19.073H62.4914L62.3541 17.664H61.3635V25.2713H62.5638V21.19C62.5638 20.445 62.7903 19.8226 63.2434 19.3229C63.7014 18.8231 64.2509 18.5732 64.892 18.5732C65.1427 18.5732 65.4319 18.6079 65.7597 18.6774L65.926 17.6084ZM67.5802 25.2713H66.3799V17.664H67.5802V25.2713ZM66.2787 15.6025C66.2787 15.3388 66.3462 15.1467 66.4811 15.0264C66.6161 14.9015 66.7848 14.839 66.9873 14.839C67.1801 14.839 67.3464 14.9015 67.4862 15.0264C67.626 15.1513 67.6959 15.3434 67.6959 15.6025C67.6959 15.8616 67.626 16.056 67.4862 16.1856C67.3464 16.3105 67.1801 16.373 66.9873 16.373C66.7848 16.373 66.6161 16.3105 66.4811 16.1856C66.3462 16.056 66.2787 15.8616 66.2787 15.6025ZM74.52 20.3501V25.2713H75.7202V20.3085C75.7202 19.3368 75.4792 18.6311 74.9972 18.1915C74.5151 17.7473 73.7969 17.5252 72.8425 17.5252C72.2978 17.5252 71.8037 17.6293 71.3602 17.8375C70.9167 18.0411 70.5721 18.3303 70.3262 18.7051H70.2684L70.0731 17.664H69.097V25.2713H70.2973V21.2802C70.2973 20.29 70.4901 19.5797 70.8757 19.1493C71.2614 18.719 71.8687 18.5038 72.6978 18.5038C73.3245 18.5038 73.7849 18.6565 74.0789 18.9619C74.3729 19.2673 74.52 19.7301 74.52 20.3501ZM79.7244 24.4592C79.9365 24.4592 80.1414 24.4453 80.339 24.4175C80.5366 24.3852 80.6933 24.3528 80.809 24.3204V25.2019C80.6788 25.262 80.486 25.3106 80.2305 25.3476C79.9799 25.3893 79.7533 25.4101 79.5509 25.4101C78.018 25.4101 77.2515 24.635 77.2515 23.0849V18.5594H76.1163V18.0041L77.2515 17.5252L77.7577 15.901H78.4518V17.664H80.7511V18.5594H78.4518V23.0363C78.4518 23.4944 78.5651 23.8461 78.7916 24.0913C79.0182 24.3366 79.3291 24.4592 79.7244 24.4592ZM81.9426 24.3828C82.6223 25.0677 83.5478 25.4101 84.7191 25.4101C85.2542 25.4101 85.7097 25.3708 86.0857 25.2921C86.4665 25.2181 86.869 25.0931 87.2932 24.9173V23.89C86.4593 24.2325 85.6157 24.4037 84.7625 24.4037C83.9527 24.4037 83.3236 24.1723 82.8753 23.7096C82.4319 23.2468 82.1981 22.5689 82.174 21.6759H87.6331V20.9471C87.6331 19.9198 87.3438 19.0938 86.7654 18.4691C86.187 17.8398 85.4012 17.5252 84.4082 17.5252C83.3477 17.5252 82.5018 17.8861 81.8703 18.6079C81.2436 19.3298 80.9303 20.3039 80.9303 21.5301C80.9303 22.7471 81.2677 23.698 81.9426 24.3828ZM82.8681 19.0869C83.2489 18.6889 83.7575 18.49 84.3938 18.49C85.0204 18.49 85.5025 18.6843 85.8399 19.073C86.1773 19.4571 86.346 20.0123 86.346 20.7388H82.2029C82.2704 20.0355 82.4921 19.4848 82.8681 19.0869ZM92.2735 17.5252C92.6254 17.5252 92.9411 17.5529 93.2207 17.6084L93.0544 18.6774C92.7266 18.6079 92.4374 18.5732 92.1868 18.5732C91.5456 18.5732 90.9961 18.8231 90.5382 19.3229C90.0851 19.8226 89.8585 20.445 89.8585 21.19V25.2713H88.6582V17.664H89.6488L89.7862 19.073H89.844C90.1381 18.5779 90.4924 18.1961 90.9069 17.9277C91.3215 17.6594 91.777 17.5252 92.2735 17.5252ZM92.0727 23.8345C91.9281 23.9918 91.8557 24.2255 91.8557 24.5355C91.8557 24.8687 91.9353 25.1093 92.0944 25.2574C92.2583 25.4008 92.4631 25.4726 92.709 25.4726C92.9837 25.4726 93.2006 25.3916 93.3597 25.2296C93.5188 25.0677 93.5983 24.8363 93.5983 24.5355C93.5983 24.2255 93.5188 23.9918 93.3597 23.8345C93.2055 23.6725 92.9885 23.5916 92.709 23.5916C92.4342 23.5916 92.2221 23.6725 92.0727 23.8345ZM94.8393 22.3153C94.8393 21.4841 95.0307 20.8493 95.4135 20.4108C95.8031 19.9658 96.3601 19.7432 97.0846 19.7432C97.4674 19.7432 97.7989 19.8054 98.0791 19.9298C98.3662 20.0476 98.602 20.221 98.7865 20.4501C98.9711 20.6726 99.1078 20.9442 99.1966 21.2649C99.2855 21.579 99.3299 21.9292 99.3299 22.3153C99.3299 23.1465 99.1351 23.7846 98.7455 24.2296C98.3627 24.6681 97.8091 24.8874 97.0846 24.8874C96.7019 24.8874 96.367 24.8285 96.0799 24.7107C95.7997 24.5863 95.5673 24.4129 95.3827 24.1904C95.1982 23.9613 95.0615 23.6897 94.9726 23.3755C94.8838 23.0549 94.8393 22.7014 94.8393 22.3153ZM95.6903 22.3153C95.6903 22.564 95.7142 22.8029 95.7621 23.0319C95.8167 23.261 95.8988 23.4606 96.0081 23.6308C96.1175 23.801 96.261 23.9384 96.4387 24.0431C96.6164 24.1478 96.8317 24.2002 97.0846 24.2002C98.0142 24.2067 98.4789 23.5784 98.4789 22.3153C98.4789 22.0601 98.4516 21.8179 98.3969 21.5888C98.3491 21.3598 98.2705 21.1602 98.1611 20.99C98.0518 20.8198 97.9082 20.6857 97.7305 20.5875C97.5528 20.4828 97.3375 20.4304 97.0846 20.4304C96.1551 20.4239 95.6903 21.0522 95.6903 22.3153ZM102.615 20.617C102.41 20.5515 102.216 20.5188 102.031 20.5188C101.737 20.5188 101.505 20.5973 101.334 20.7544C101.163 20.9049 101.057 21.098 101.016 21.3336V24.7696H100.196V19.861H100.77L100.924 20.4599H100.965C101.095 20.2374 101.248 20.0672 101.426 19.9494C101.611 19.825 101.843 19.7629 102.123 19.7629C102.322 19.7629 102.544 19.7956 102.79 19.861L102.615 20.617ZM106.646 26.3992C107.002 26.0981 107.18 25.6302 107.18 24.9954V20.0672C106.961 19.9887 106.711 19.9199 106.431 19.861C106.158 19.8021 105.826 19.7727 105.437 19.7727C104.623 19.7727 104.008 19.9919 103.591 20.4304C103.174 20.8624 102.966 21.4972 102.966 22.3349C102.966 23.2054 103.126 23.8468 103.448 24.2591C103.776 24.6714 104.285 24.8776 104.975 24.8776C105.317 24.8776 105.594 24.8285 105.806 24.7303C106.018 24.6256 106.192 24.4783 106.329 24.2885H106.37V24.7598C106.37 25.0085 106.349 25.2212 106.308 25.3979C106.267 25.5811 106.192 25.7284 106.083 25.8396C105.973 25.9574 105.826 26.0392 105.642 26.0851C105.464 26.1374 105.232 26.1636 104.945 26.1636C104.637 26.1636 104.388 26.1374 104.196 26.0851C104.005 26.0327 103.83 25.9771 103.673 25.9182L103.458 26.5857C103.636 26.6643 103.848 26.7264 104.094 26.7723C104.346 26.8246 104.678 26.8508 105.088 26.8508C105.778 26.8508 106.298 26.7003 106.646 26.3992ZM105.939 23.9449C105.741 24.1086 105.467 24.1904 105.119 24.1904C104.88 24.1904 104.678 24.1445 104.514 24.0529C104.35 23.9613 104.217 23.8337 104.114 23.6701C104.012 23.5064 103.936 23.3101 103.889 23.081C103.841 22.852 103.817 22.6 103.817 22.3251C103.817 21.6837 103.95 21.2125 104.217 20.9115C104.483 20.6104 104.849 20.4599 105.314 20.4599C105.737 20.4599 106.086 20.5221 106.359 20.6464V23.1596C106.277 23.513 106.137 23.7748 105.939 23.9449Z" fill="white"/>
</svg>
