<svg width="31" height="24" viewBox="0 0 31 24" fill="none" xmlns="http://www.w3.org/2000/svg">
<path fill-rule="evenodd" clip-rule="evenodd" d="M16.0201 0.654669C16.7631 -0.162647 18.028 -0.22288 18.8454 0.520134L29.8261 10.5026C29.8562 10.5294 29.8857 10.5572 29.9146 10.5861C30.0787 10.7501 30.2087 10.9363 30.3041 11.1355C30.3138 11.1559 30.3232 11.1763 30.3322 11.1969C30.4332 11.427 30.4922 11.6798 30.4993 11.9455C30.5014 12.0244 30.499 12.1035 30.4918 12.1822C30.476 12.3572 30.4377 12.5257 30.3797 12.6848C30.3576 12.7456 30.3324 12.8056 30.3041 12.8645C30.2087 13.0637 30.0787 13.25 29.9146 13.414C29.8857 13.4428 29.8562 13.4706 29.8261 13.4974L18.8454 23.4799C18.028 24.2229 16.7631 24.1627 16.0201 23.3454C15.2771 22.528 15.3374 21.2631 16.1547 20.5201L23.3268 14H2C0.89543 14 0 13.1046 0 12C0 10.8954 0.89543 10 2 10H23.3268L16.1547 3.47989C15.3374 2.73688 15.2771 1.47198 16.0201 0.654669Z" fill="white"/>
</svg>
