<svg width="135" height="148" viewBox="0 0 135 148" fill="none" xmlns="http://www.w3.org/2000/svg">
<path d="M25.7037 86.7281C24.5779 88.3043 24.0149 90.2184 24.0149 92.4701C24.0149 95.8478 23.7897 99.2255 23.5645 102.603C23.3394 105.756 22.889 108.908 22.6638 111.948C22.5512 113.299 22.7764 114.65 22.7764 116.001C22.889 117.69 23.0016 119.379 23.0016 120.955C23.0016 121.743 22.6638 122.532 22.5512 123.432C22.3261 125.571 22.7764 127.711 23.452 129.737C24.0149 131.539 23.2268 132.777 21.8757 132.327C20.8624 131.989 19.5113 131.876 19.2861 130.075C18.8358 126.923 18.8358 123.883 19.1736 120.843C19.2861 119.829 19.2861 118.703 19.1736 117.69C18.498 112.398 19.1736 107.219 19.7365 101.928C19.8491 100.239 19.7365 98.55 19.8491 96.7485C19.8491 95.7352 19.9617 94.7219 20.0743 93.7086C20.1869 92.1324 20.2995 90.4435 20.412 88.8673C20.412 88.6421 20.412 88.5295 20.5246 88.3043C21.6505 85.1518 21.6505 85.0392 19.1736 82.9C17.4847 81.4364 16.584 79.8601 16.584 77.4957C16.6966 75.0188 16.1336 72.5418 16.021 70.0648C16.021 68.9389 16.3588 67.813 16.2462 66.6871C16.1336 64.8857 17.1469 63.422 17.4847 61.6206C17.2595 61.3954 16.8092 61.1703 16.584 60.8325C15.5707 59.9318 15.5707 58.6933 16.4714 57.68C16.6966 57.4548 16.8092 57.0044 17.0344 56.7793C18.1603 56.1037 17.5973 55.4282 16.9218 54.9778C14.3322 53.289 13.3189 50.4742 11.6301 48.2225C9.94122 45.9707 8.36496 43.6063 6.56353 41.3545C4.64951 39.1027 2.51031 36.9635 0.596287 34.5991C-0.417019 33.3606 -0.07925 31.1089 1.15923 30.2081C2.96067 28.8571 4.7621 27.7312 6.78871 26.7179C10.3916 24.9164 14.3322 24.0157 18.0477 22.552C19.1736 22.1017 20.412 22.1017 21.5379 21.7639C23.452 21.3136 25.1408 20.638 26.7171 19.3995C28.1807 18.2736 29.8696 17.5981 31.671 17.2603C34.5983 16.81 37.5256 16.0219 40.453 15.5715C41.2411 15.4589 42.1418 15.9093 42.9299 16.247C43.2677 16.3596 43.4929 16.5848 43.8307 16.81C45.0691 14.5582 45.9699 12.3064 47.4335 10.3924C48.4468 9.0413 50.1357 8.14059 51.5993 7.12728C52.8378 6.22656 54.1889 5.43844 55.4274 4.65031C56.4407 4.19995 57.454 3.29924 58.5799 3.07406C61.845 2.17334 65.2227 1.27263 68.6004 0.934857C72.3158 0.597088 75.8061 1.61039 78.9586 3.63701C80.4222 4.53772 81.8859 5.55103 83.1244 6.78951C84.9258 8.36577 86.0517 10.3924 86.7273 12.6442C87.1776 14.1078 87.7406 15.6841 88.1909 17.1477C88.5287 18.0485 88.8665 18.6114 90.1049 18.3862C94.1582 17.7107 98.324 17.1477 102.49 16.4722C103.278 16.3596 104.066 16.3596 104.742 16.1344C105.079 16.0219 105.642 15.3463 105.642 15.1211C105.305 13.8827 106.318 13.5449 106.881 13.5449C107.782 13.5449 108.907 13.7701 109.47 14.333C110.371 15.2337 111.047 16.5848 111.722 17.7107C111.947 18.0485 111.722 18.6114 111.61 19.0618C111.497 19.287 111.159 19.5121 110.821 19.6247C109.02 19.8499 108.795 20.0751 108.57 21.8765C108.457 22.552 108.119 23.115 108.119 23.7905C108.232 25.2542 108.457 26.6053 108.795 28.0689C108.795 28.1815 109.921 28.0689 110.484 28.0689C111.159 30.0955 110.934 30.4333 109.133 31.2214C108.344 31.5592 107.556 32.1222 106.543 32.7977C107.444 33.0229 108.007 33.2481 108.57 33.3606C110.709 33.811 112.848 34.0362 114.987 34.5991C119.153 35.6124 123.094 36.9635 127.259 37.639C129.286 37.9768 131.313 39.3279 132.889 40.679C134.69 42.1426 134.127 44.2818 133.79 46.3084C133.564 47.3217 133.339 48.4476 132.889 49.3484C132.551 50.0239 131.876 50.5868 131.2 51.1498C128.16 53.7393 125.12 56.3289 122.08 58.9185C120.392 60.3821 118.478 61.7332 116.676 63.0843C115.325 64.2102 113.974 65.3361 112.623 66.3494C110.596 68.0382 108.457 69.6145 106.43 71.3033C104.742 72.6544 102.94 74.118 101.364 75.5817C98.8869 77.8335 96.5226 80.3105 94.0456 82.5623C93.37 83.1252 92.6945 83.6882 92.019 84.1385C90.3301 85.2644 89.7672 87.1784 88.6413 88.7547C87.7406 90.1058 86.9524 91.3442 85.714 92.4701C85.151 92.9205 85.0384 94.159 84.9258 94.9471C84.7007 96.5234 85.0384 98.3248 84.4755 99.7885C83.7999 101.365 84.1377 102.828 84.0251 104.405C83.9125 105.756 83.6874 107.107 83.5748 108.458C83.237 112.173 83.0118 115.776 82.5615 119.492C82.4489 121.068 81.9985 122.532 81.6607 123.995C81.6607 124.22 81.4356 124.446 81.4356 124.671C82.4489 126.697 80.9852 128.161 80.4222 129.85C79.9719 130.976 79.8593 132.327 79.7467 133.565C79.5215 135.029 79.4089 136.38 79.2964 137.844C79.2964 138.519 79.4089 139.195 79.5215 140.096C78.3956 140.771 78.6208 142.01 78.846 143.361C78.9586 144.149 78.6208 145.049 78.7334 145.838C78.846 146.963 79.1838 148.089 79.5215 149.103C80.3097 151.017 80.1971 151.58 78.5082 152.818C77.8327 152.48 77.2697 152.143 76.4816 151.692C76.7068 154.507 77.7201 157.322 74.5676 159.348C73.6669 156.646 71.5277 157.659 69.8388 157.772C65.7856 157.997 61.7324 158.448 57.6792 158.898C54.3015 159.236 50.9238 159.686 47.5461 160.362C45.6321 160.699 43.7181 161.375 41.8041 161.938C41.4663 162.05 41.1285 162.276 40.6782 162.613C40.0026 161.938 39.3271 162.05 38.4264 162.501C37.4131 162.951 36.062 162.839 34.9361 162.951C34.0354 163.064 33.1347 162.951 32.3465 162.951C29.0814 163.064 25.7037 163.064 22.5512 161.938C19.5113 160.812 18.6106 157.772 20.412 154.957C20.5246 154.845 20.6372 154.62 20.7498 154.507C19.2861 152.931 19.2861 150.904 19.3987 148.99C19.6239 145.275 18.7232 141.784 17.7099 138.181C17.3721 136.943 16.6966 135.817 16.4714 134.579C16.3588 134.016 16.9218 133.115 17.4847 132.89C18.1603 132.665 19.1736 132.89 19.7365 133.228C20.412 133.79 20.975 134.804 21.2002 135.705C21.7631 137.619 21.9883 139.533 22.4387 141.447C23.0016 143.698 23.452 145.95 23.2268 148.202C23.1142 149.44 23.7897 149.891 24.6904 149.891C28.0681 150.003 31.5584 150.003 34.9361 150.003C38.6515 150.003 42.2544 150.341 45.9699 150.229C50.4734 150.116 54.977 149.778 59.368 149.44C62.2953 149.215 65.1101 148.99 68.0374 148.652C69.5011 148.427 70.9647 148.089 72.4284 147.864C73.3291 147.752 74.1172 147.752 75.2431 147.639C75.1305 146.175 75.2431 144.374 74.9054 142.798C74.2298 139.42 74.7928 136.267 75.6935 133.115C75.6935 133.002 75.6935 132.777 75.5809 132.439C74.6802 132.665 73.7795 132.89 72.9913 133.115C69.8388 134.016 66.5737 135.029 63.4212 135.817C62.5205 136.042 61.5072 135.817 60.6065 136.042C59.931 136.267 59.0302 136.83 58.8051 137.506C58.1295 139.307 56.5533 139.758 55.0896 140.208C52.8378 140.884 50.586 141.221 48.2217 141.672C46.758 141.897 45.4069 142.01 43.9432 142.01C42.4796 142.01 40.9033 142.01 39.4397 141.672C37.7508 141.334 36.062 140.658 34.3731 140.096C32.5717 139.533 30.7703 138.744 28.8563 138.181C26.7171 137.393 24.4653 136.83 22.3261 135.93C21.7631 135.705 21.5379 134.579 21.2002 133.903C22.2135 133.678 23.2268 132.89 24.0149 133.115C26.6045 133.79 29.194 134.804 31.7836 135.817C32.9095 136.267 34.148 136.718 35.2739 137.168C38.7641 138.632 42.2544 139.307 45.9699 138.407C48.2217 137.844 50.586 137.393 52.8378 136.718C54.5267 136.155 55.7651 135.142 55.7651 133.115C55.7651 132.552 56.3281 131.989 56.6659 131.426C57.1162 130.638 57.6792 129.85 57.7918 128.949C58.4673 124.783 59.0302 120.73 59.4806 116.564C59.931 112.286 60.4939 107.895 60.7191 103.504C60.9443 99.1129 60.6065 94.8345 60.6065 90.4435C60.6065 90.1058 60.3813 89.6554 60.2687 89.3176C58.4673 89.3176 56.6659 89.3176 54.977 89.3176C52.2749 89.3176 49.5727 89.5428 46.8706 89.5428C44.9566 89.5428 43.0425 89.205 41.0159 88.9799C39.6648 88.8673 38.3138 88.8673 37.0753 88.7547C35.499 88.6421 33.9228 88.5295 32.2339 88.1917C30.5451 87.6288 28.1807 87.1784 25.7037 86.7281ZM40.1152 28.7445C41.4663 25.592 43.1551 22.552 43.2677 19.0618C41.4663 19.287 39.7774 19.5121 38.0886 19.8499C37.0753 19.9625 36.2872 20.4128 35.6116 21.4261C35.0487 22.2143 33.9228 22.7772 32.9095 23.115C30.8829 23.6779 28.8563 23.7905 26.8296 24.3535C23.5645 25.1416 20.412 26.1549 17.1469 27.0556C16.9218 27.1682 16.584 27.0556 16.3588 27.1682C16.1336 27.1682 16.0211 27.1682 15.7959 27.2808C14.4448 27.9563 12.9811 28.6319 11.6301 29.3074C9.49086 30.4333 7.35166 31.6718 5.21246 32.9103C4.87469 33.1355 4.64951 33.9236 4.87469 34.2614C5.43764 35.3873 6.22576 36.4006 7.01389 37.3013C8.92791 39.6657 11.0671 41.9174 12.9811 44.3944C15.2329 47.2092 17.2595 50.1365 19.3987 52.9512C19.8491 53.6268 20.412 53.7393 21.0876 53.0638C21.7631 52.2757 22.5512 51.6001 23.3394 50.9246C24.3527 50.0239 25.366 49.1232 26.4919 48.4476C27.3926 47.8847 28.4059 47.2092 29.4192 46.8714C30.4325 46.5336 31.5584 46.5336 32.6843 46.3084C32.7969 46.0833 32.7969 45.9707 32.9095 45.7455C31.3332 44.3944 29.757 43.0433 28.1807 41.5797C26.3793 39.8908 24.4653 38.3146 22.7764 36.5131C21.8757 35.4998 21.5379 34.0362 20.7498 32.9103C19.5113 31.2214 19.9617 29.6452 21.9883 29.1948C23.3394 28.8571 24.5779 28.7445 25.9289 28.6319C28.8563 28.5193 31.5584 28.1815 34.148 26.2675C37.1879 24.0157 38.2012 24.2409 39.89 26.7179C40.0026 27.3934 40.0026 28.0689 40.1152 28.7445C38.7641 28.4067 37.6382 28.7445 36.5123 29.42C34.2606 30.9963 31.7836 31.6718 29.194 31.897C27.9555 32.0096 26.7171 32.2347 25.4786 32.3473C26.7171 35.9502 28.2933 37.8642 30.7703 39.4405C33.3598 41.1293 35.6116 43.1559 36.1746 46.5336C36.2872 47.0966 37.0753 47.5469 37.6382 47.8847C38.2012 48.1099 38.7641 48.335 39.3271 47.5469C40.0026 46.7588 40.7907 45.9707 41.6915 45.2951C43.2677 44.0566 43.4929 43.1559 42.1418 41.5797C40.2278 39.3279 39.3271 36.7383 39.4397 33.811C39.3271 32.1222 39.7774 30.4333 40.1152 28.7445ZM52.0497 71.0781H52.1623C52.1623 71.5285 52.1623 71.9789 52.1623 72.4292C52.1623 73.5551 51.9371 74.3432 50.586 74.3432C47.8839 74.4558 45.2943 75.0188 43.2677 77.158C42.9299 77.6083 41.9166 78.0587 41.2411 77.2706C40.3404 76.2572 39.3271 75.2439 40.0026 73.6677C40.1152 73.3299 40.0026 72.8796 40.1152 72.4292C40.2278 70.5152 40.1152 68.6012 40.3404 66.6871C40.5656 65.1109 41.1285 63.5346 41.5789 61.9584C41.6915 61.3954 42.0292 60.6073 40.9033 60.6073C38.0886 60.8325 35.3864 61.1703 32.5717 61.2828C29.6444 61.3954 26.7171 61.1703 23.7897 61.0577C22.6638 61.0577 21.5379 60.8325 21.2002 62.4087C20.8624 63.7598 20.2994 65.1109 19.9617 66.462C19.6239 67.9256 19.5113 69.3893 19.5113 70.853C19.5113 72.8796 19.8491 74.9062 19.9617 76.9328C20.0743 78.7342 20.2994 80.3105 22.2135 81.3238C25.2534 82.9 28.4059 84.1385 31.8962 84.4763C35.3864 84.7015 38.7641 85.1518 42.2544 85.4896C43.2677 85.6022 44.281 85.7148 45.4069 85.7148C47.9965 85.7148 50.4734 85.8274 53.063 85.7148C55.0896 85.7148 57.1162 85.4896 59.1428 85.4896C61.1694 85.377 63.3086 85.2644 65.3353 85.1518C65.673 85.1518 66.1234 85.0392 66.236 84.7015C67.4745 83.0126 68.8255 81.3238 69.9514 79.5223C70.5144 78.6216 70.8521 77.4957 71.4151 76.595C72.6536 74.9062 73.6669 73.2173 73.7795 70.9655C73.8921 68.0382 73.5543 66.9123 70.9647 65.5612C70.7396 65.4487 70.5144 65.2235 70.2892 65.1109C68.7129 63.985 66.9115 63.1969 64.9975 63.3095C62.2953 63.422 59.7058 62.9717 57.3414 61.508C56.6659 61.0577 55.7652 60.9451 54.977 60.9451C54.7518 60.9451 54.5267 61.9584 54.1889 62.5213C53.7385 63.5346 52.9504 64.3228 52.7252 65.4487C52.3875 67.1375 52.2749 69.0515 52.0497 71.0781ZM87.9657 32.6851C86.9524 34.2614 86.1643 35.725 85.2636 37.1887C84.3629 38.5398 84.4755 38.7649 85.9391 39.1027C86.2769 39.2153 86.7273 39.1027 87.1776 39.2153C88.4161 39.3279 89.7672 39.2153 90.8931 39.6657C94.8337 41.1293 99.1121 41.2419 102.94 43.1559C104.629 44.0566 106.543 44.6196 108.232 45.6329C109.583 46.3084 109.696 47.2092 109.245 48.6728C108.907 49.6861 108.57 50.6994 108.232 51.8253C106.205 52.6134 104.066 53.4016 102.039 54.3023C98.4366 55.9911 95.2841 58.2429 92.3567 60.9451C90.3301 62.8591 88.3035 64.8857 86.2769 66.7997C85.8265 67.2501 85.2636 67.7004 84.7007 68.1508C86.9524 69.7271 88.9791 71.1907 89.542 73.8929C89.9924 76.1447 90.6679 78.3965 91.2308 80.6482C92.2441 79.7475 93.1449 78.9594 94.1582 78.0587C96.41 75.9195 98.6618 73.7803 101.026 71.6411C103.278 69.6145 105.642 67.5879 108.007 65.6738C109.696 64.3228 111.384 63.0843 113.073 61.7332C114.649 60.4947 116.226 59.3688 117.689 58.1303C119.153 56.8919 120.504 55.6534 121.968 54.4149C123.657 52.8386 125.571 51.4876 127.147 49.6861C128.498 48.2225 129.399 46.3084 130.299 44.6196C130.525 44.1692 130.187 43.1559 129.849 42.9308C128.498 42.1426 127.147 41.3545 125.683 40.9041C123.544 40.2286 121.405 39.8908 119.266 39.3279C114.762 38.202 110.258 36.9635 105.642 36.0628C103.391 35.6124 101.026 35.4998 98.7743 35.1621C94.9463 34.2614 91.3434 33.3606 87.9657 32.6851ZM64.4345 88.7547C64.7723 89.5428 65.1101 89.9932 65.1101 90.3309C65.2227 92.8079 65.4478 95.2849 65.3353 97.8744C65.3353 99.6759 64.9975 101.365 64.8849 103.166C64.7723 105.193 64.8849 107.332 64.7723 109.359C64.5471 113.187 64.2094 117.127 63.9842 120.955C63.9842 121.293 63.8716 121.631 63.8716 121.969C63.4212 124.671 62.8583 127.373 62.4079 130.075C62.2953 130.751 62.0702 131.876 63.4212 131.426C67.3619 130.188 71.3025 128.949 75.2431 127.598C76.1439 127.26 77.1572 126.585 77.3823 125.797C78.0579 124.22 78.2831 122.532 78.6208 120.843C78.9586 118.703 79.1838 116.564 79.4089 114.425C79.5215 113.75 79.8593 113.074 79.8593 112.398C80.0845 109.584 80.3097 106.769 80.4222 103.954C80.4222 103.279 80.4222 102.716 80.4222 102.265C80.76 99.7885 81.0978 97.4241 81.4356 94.9471C79.6341 95.0597 77.9453 95.0597 76.2564 95.2849C74.6802 95.5101 73.4417 94.7219 72.4284 93.8212C71.5277 93.1457 70.2892 92.245 70.2892 90.7813C70.2892 89.768 69.9514 88.6421 69.8388 87.5162C68.9381 87.7414 68.15 88.0791 67.3619 88.1917C66.4612 88.5295 65.5604 88.6421 64.4345 88.7547ZM81.6607 41.8049C79.7467 44.2818 77.4949 46.1958 74.3424 47.0966C73.7795 47.2092 73.1039 47.9973 73.1039 48.5602C72.9913 50.3617 72.9913 52.2757 73.1039 54.1897C73.2165 55.5408 73.6669 57.0044 74.0047 58.3555C74.455 60.1569 74.9054 61.9584 76.7068 62.9717C77.1572 63.1969 77.7201 63.5346 77.8327 63.8724C78.0579 65.1109 79.1838 65.3361 79.8593 66.0116C80.6474 66.6871 81.323 66.462 81.9985 65.5612C83.1244 64.2102 84.1377 62.8591 85.4888 61.7332C87.7406 59.7066 89.8798 57.5674 92.3567 55.766C94.3833 54.1897 96.7477 53.0638 98.8869 51.6001C100.688 50.3617 103.165 49.7987 104.066 47.2092C96.9729 43.9441 89.3168 43.1559 81.6607 41.8049ZM68.3752 47.5469C66.1234 47.2092 63.6464 46.984 61.282 46.3084C58.4673 45.5203 55.6526 45.07 52.7252 45.5203C51.8245 45.6329 50.8112 45.6329 49.9105 45.2951C47.9965 44.7322 47.4335 44.9574 46.0825 46.5336C45.0691 47.7721 43.7181 48.7854 42.5922 49.9113C41.9166 50.6994 40.2278 50.812 40.6782 52.2757C37.5257 54.1897 34.3731 55.9911 31.671 57.68C32.7969 57.68 34.3731 57.9052 35.8368 57.68C40.3404 56.6667 44.844 56.6667 49.4601 56.5541C52.0497 56.4415 54.5267 56.5541 57.0036 57.3422C59.5932 58.2429 62.0702 59.3688 64.8849 59.594C67.0241 59.7066 69.0507 60.7199 70.8521 61.1703C70.4018 59.1436 69.7262 56.8919 69.2759 54.6401C68.8255 52.3883 68.6003 50.0239 68.3752 47.5469ZM77.8327 92.3576C78.6208 92.0198 79.9719 91.682 81.2104 91.0065C81.8859 90.6687 82.5615 89.9932 82.674 89.4302C83.1244 87.291 83.3496 85.1518 83.7999 83.0126C83.9125 82.5623 84.3629 81.6615 84.5881 81.7741C85.4888 81.8867 85.3762 81.4364 85.4888 80.8734C85.6014 79.5223 85.8266 78.2839 85.9391 76.9328C86.0517 75.9195 85.2636 75.0188 84.2503 75.3565C83.3496 75.5817 82.5615 76.1447 81.6607 76.1447C77.9453 76.2572 76.8194 79.4098 75.2431 81.7741C74.0047 83.6882 74.0046 86.0525 73.6669 88.3043C73.2165 90.6687 74.7928 92.3576 77.8327 92.3576ZM88.9791 22.7772C88.8665 24.2409 88.7539 26.0423 88.7539 27.7312C88.7539 28.0689 89.0916 28.4067 89.3168 28.7445C90.4427 30.3207 92.2442 30.2081 93.7078 30.5459C94.9463 30.8837 96.41 30.7711 97.6485 30.9963C100.238 31.4466 102.602 30.7711 105.192 29.983C102.49 26.943 104.404 23.5654 104.066 20.1877C99.2247 20.9758 94.2708 21.8765 88.9791 22.7772ZM72.8788 151.692C71.4151 151.917 70.064 152.255 68.6004 152.368C65.8982 152.706 63.1961 153.043 60.3813 153.156C56.6659 153.381 52.9504 153.606 49.235 153.719C45.5195 153.831 41.9166 153.944 38.2012 154.057C37.1879 154.057 36.062 153.831 35.0487 153.831C32.7969 153.831 30.5451 153.831 28.2933 153.831C27.843 153.831 27.28 153.606 26.8296 153.719C26.4919 153.831 26.2667 154.282 26.0415 154.62C26.3793 154.845 27.0548 155.295 27.0548 155.295C27.8429 154.282 28.7437 155.745 29.6444 155.183C29.757 155.183 30.0947 155.633 30.4325 155.971C28.5185 156.871 26.1541 156.308 24.6904 157.885C27.28 158.222 29.757 158.335 32.3465 158.222C34.4857 158.222 36.6249 158.11 38.6515 157.772C43.0425 157.097 47.3209 156.196 51.5993 155.633C55.6526 155.07 59.7058 154.845 63.759 154.394C66.3486 154.169 68.9381 153.944 71.6403 153.719C73.1039 153.719 73.2165 152.931 72.8788 151.692ZM63.6464 43.0433C63.6464 43.2685 63.6464 43.4937 63.759 43.7189C65.3353 43.9441 66.7989 44.1692 68.3752 44.2818C69.1633 44.3944 69.6137 44.1692 69.6137 43.1559C69.6137 42.03 71.1899 41.3545 72.2032 41.9174C72.7662 42.2552 73.3291 42.7056 74.0047 43.0433C74.2298 43.1559 74.6802 43.1559 74.9054 43.0433C76.1439 42.03 77.6075 41.2419 78.5082 40.0034C80.5348 37.3013 82.3363 34.4865 84.1377 31.6718C84.8132 30.6585 84.9258 29.1948 85.2636 28.0689C84.4755 28.4067 83.9125 28.8571 83.4622 29.3074C81.323 30.7711 80.3097 32.7977 79.9719 35.2747C79.8593 36.4006 78.6208 37.1887 77.3823 36.9635C76.932 36.8509 76.2564 36.6257 75.8061 36.8509C74.7928 37.5265 73.8921 38.3146 72.8788 39.1027C71.8655 39.7782 70.9647 40.5664 69.9514 41.0167C69.0507 41.4671 68.0374 41.3545 67.1367 41.6923C65.7856 42.03 64.6597 42.593 63.6464 43.0433ZM34.5983 51.1498C33.0221 50.4743 31.2206 50.3617 29.8696 51.1498C27.8429 52.3883 26.1541 53.9645 24.3527 55.5408C24.1275 55.6534 24.1275 56.4415 24.2401 56.5541C25.7037 57.0044 26.6045 59.0311 28.5185 57.68C28.2933 57.5674 28.0681 57.3422 27.8429 57.117C27.28 56.5541 27.28 55.0904 27.8429 54.7527C28.5185 54.4149 29.3066 54.3023 29.8696 53.9645C31.4458 53.1764 32.9095 52.2757 34.4857 51.4876C34.5983 51.4876 34.5983 51.2624 34.5983 51.1498ZM49.7979 60.157C47.7713 60.2695 46.195 60.3821 44.281 60.4947C45.7447 61.8458 45.1817 63.0843 44.844 64.3228C44.3936 65.5612 43.9433 66.7997 43.7181 68.0382C43.4929 69.2767 43.4929 70.6278 43.4929 71.8663C45.5195 71.7537 45.7447 71.4159 45.4069 69.8396C45.2943 69.5019 45.1817 69.0515 45.2943 68.7138C45.7447 66.462 46.6454 64.4354 48.1091 62.6339C48.5594 61.9584 49.0098 61.1703 49.7979 60.157ZM67.587 27.8438C67.6996 27.8438 67.8122 27.9563 67.9248 27.9563C68.15 27.506 68.3752 26.943 68.6004 26.4927C68.8255 26.0423 68.8255 25.592 69.0507 25.2542C69.3885 24.6912 70.064 24.2409 70.1766 23.6779C70.8521 21.201 71.4151 18.6114 72.0906 16.1344C72.7662 13.6575 73.7795 11.1805 74.5676 8.70353C74.6802 8.47835 74.455 8.14059 74.455 7.91541C74.1172 8.028 73.6669 8.14059 73.5543 8.36577C72.541 10.9553 71.6403 13.5449 70.7396 16.1344C70.2892 17.4855 70.064 18.9492 69.6137 20.3003C69.0507 22.1017 68.3752 23.9031 67.8122 25.7046C67.6996 26.3801 67.6996 27.1682 67.587 27.8438ZM77.2697 11.6309C76.1438 16.0219 75.018 20.0751 73.7795 24.4661C74.3424 24.1283 74.6802 24.0157 74.7928 23.7905C75.5809 22.2143 76.2564 20.5254 76.932 18.8366C77.3823 17.8233 77.8327 16.81 78.2831 15.9093C79.1838 14.1078 79.0712 13.2071 77.2697 11.6309ZM85.151 18.8366C84.7007 13.7701 81.5481 7.35246 76.5942 5.66362C77.4949 6.78951 78.1705 7.91541 79.0712 8.81612C80.3097 10.0546 80.8726 11.9686 82.674 12.7568C83.0118 12.8693 83.1244 13.7701 83.1244 14.333C83.3496 15.5715 83.4622 16.81 83.6873 18.0485C83.7999 18.3862 84.4755 18.4988 85.151 18.8366ZM59.4806 34.8243C59.7058 34.8243 59.8184 34.8243 60.0436 34.8243C60.1561 33.811 60.1561 32.9103 60.3813 31.897C60.9443 29.7578 61.5072 27.7312 62.0702 25.7046C62.6331 23.6779 63.1961 21.6513 63.759 19.5121C63.8716 19.2869 63.6464 18.9492 63.5338 18.6114C63.3086 18.8366 63.0835 18.9492 63.0835 19.1744C61.9576 23.6779 60.7191 28.2941 59.5932 32.9103C59.368 33.4732 59.4806 34.1488 59.4806 34.8243ZM68.9381 5.43844C68.9381 5.32585 68.8255 5.21326 68.8255 5.10067C67.3619 5.10067 65.8982 5.21326 64.0968 5.32585C64.4345 6.11398 64.6597 6.45174 64.6597 6.45174C64.2094 7.57764 63.8716 8.47835 63.4212 9.49166C64.8849 8.81612 65.2227 6.78951 67.0241 7.35246C67.0241 7.35246 67.1367 7.23987 67.1367 7.12728C67.8122 6.56433 68.3752 6.00139 68.9381 5.43844ZM81.7733 70.9655C80.6474 70.1774 79.6341 69.5019 78.6208 68.8263C78.3956 68.7138 78.1705 68.7138 77.8327 68.7138C77.8327 69.0515 77.8327 69.2767 77.7201 69.6145C77.7201 70.6278 77.6075 71.6411 77.6075 72.6544C77.6075 72.767 77.7201 72.9921 77.8327 73.3299C79.1838 72.4292 80.4222 71.7537 81.7733 70.9655ZM55.9903 34.7117C55.7651 34.7117 55.54 34.5991 55.3148 34.5991C54.977 36.6257 54.6393 38.7649 54.4141 40.7915C54.4141 41.0167 55.0896 41.4671 55.54 41.5797C56.1029 41.5797 56.7785 41.3545 57.1162 41.2419C56.5533 40.116 55.8777 39.1027 55.7651 38.0894C55.54 36.9635 55.8777 35.8376 55.9903 34.7117ZM55.0896 21.9891C56.2155 21.8765 58.3547 15.0085 58.3547 12.419C58.0169 12.6442 57.7918 12.8693 57.6792 13.0945C57.0036 15.4589 56.4407 17.8233 55.7651 20.1877C55.54 20.8632 55.3148 21.4261 55.0896 21.9891ZM66.236 37.8642C66.3486 37.9768 66.4612 38.0894 66.5737 38.202C67.0241 37.9768 67.8122 37.7516 67.8122 37.4139C68.0374 35.6124 68.15 33.6984 68.2626 31.897C68.15 31.897 68.0374 31.7844 68.0374 31.7844C67.3619 33.9236 66.7989 35.8376 66.236 37.8642ZM73.4417 33.5858C73.4417 33.5858 73.5543 33.6984 73.6669 33.6984C73.7795 33.6984 74.0047 33.5858 74.0047 33.3606C74.455 32.1222 74.9054 30.8837 75.3557 29.5326C75.5809 28.8571 75.5809 28.0689 75.6935 27.2808C75.4683 27.2808 75.3557 27.1682 75.1305 27.1682C74.5676 29.3074 74.1172 31.334 73.4417 33.5858ZM43.2677 34.2614C43.1551 34.2614 43.0425 34.2614 42.9299 34.2614C43.0425 35.6124 43.2677 36.8509 43.3803 38.4272C44.7314 36.7383 44.281 35.4998 43.2677 34.2614ZM46.8706 24.2409C45.7447 25.1416 45.4069 26.1549 46.0825 27.7312C46.4202 26.2675 46.6454 25.2542 46.8706 24.2409ZM56.4407 30.2081C56.1029 31.334 55.8777 32.1222 55.6526 32.9103C55.7651 33.0229 55.8777 33.0229 56.1029 33.1355C56.4407 32.4599 56.891 31.7844 57.1162 31.1088C57.1162 30.8837 56.7785 30.6585 56.4407 30.2081Z" fill="white"/>
<path d="M28.5185 127.148C29.4192 127.598 30.3199 128.161 31.108 128.611C30.3199 129.962 29.4192 129.174 28.7437 128.724C28.4059 128.499 28.2933 127.823 28.0681 127.373C28.1807 127.26 28.4059 127.148 28.5185 127.148Z" fill="white"/>
</svg>
