<svg width="338" height="134" viewBox="0 0 338 134" fill="none" xmlns="http://www.w3.org/2000/svg">
<g opacity="0.05">
<path fill-rule="evenodd" clip-rule="evenodd" d="M140.882 80.9165C140.693 80.7299 140.504 80.5431 140.263 80.4059C140.743 78.8139 141.349 77.372 143.438 77.7712C143.424 77.9942 143.413 78.2214 143.402 78.4487C143.337 79.8029 143.273 81.1586 142.501 81.6363C141.657 81.683 141.27 81.3 140.882 80.9165ZM143.087 98.6413C145.388 96.6043 146.618 93.1679 147.945 89.464C148.58 87.6902 149.237 85.855 150.044 84.0827C144.402 79.2698 143.166 92.8336 143.087 98.6413ZM142.525 83.6298C141.598 84.4749 139.68 83.3661 140.204 82.1348C140.999 82.157 141.294 82.5348 141.588 82.9124C141.82 83.2091 142.051 83.5058 142.525 83.6298ZM212.611 202.38C208.272 192.944 205.039 182.548 201.806 172.152C200.815 168.967 199.825 165.781 198.802 162.624C199.58 162.18 199.64 160.914 199.7 159.645C199.711 159.421 199.722 159.197 199.736 158.977C198.27 152.287 198.027 145.026 197.783 137.704C197.482 128.708 197.179 119.622 194.598 111.394L193.586 111.323C193.032 112.777 192.821 114.622 192.61 116.468C192.381 118.467 192.152 120.468 191.488 121.971C192.282 123.5 191.947 125.81 191.428 127.701C192.705 135.219 193.476 142.307 193.61 149.779C193.88 165.378 200.254 181.421 206.148 193.158C206.743 194.344 207.287 195.6 207.836 196.867L207.836 196.868C209.808 201.418 211.851 206.132 216.592 208.395C216.58 205.25 214.6 203.812 212.611 202.38ZM438.215 135.702C438.193 135.621 438.171 135.54 438.148 135.459C439.107 134.851 440.259 134.459 442.04 134.743C442.58 136.289 441.223 137.82 440.027 138.548C438.856 138.065 438.535 136.883 438.215 135.702ZM182.947 158.358C183.876 153.397 183.095 149.93 182.313 146.464C181.81 144.233 181.308 142.003 181.261 139.375C181.171 136.8 181.512 133.995 181.856 131.172C182.449 126.304 183.048 121.382 181.45 117.492C177.825 119.717 177.71 124.857 177.592 130.128C177.51 133.787 177.427 137.509 176.168 140.363C176.475 141.917 176.64 143.617 176.807 145.35C177.281 150.254 177.781 155.417 181.613 158.265C181.493 158.345 181.366 158.417 181.239 158.489L181.239 158.489C180.667 158.815 180.095 159.14 180.14 160.184C183.047 176.108 188.02 193.58 198.038 201.187C197.209 197.891 195.539 195.331 193.869 192.771L193.868 192.771C193.054 191.523 192.24 190.275 191.523 188.942C190.021 184.581 188.913 179.875 187.805 175.169C186.435 169.348 185.064 163.527 182.947 158.358ZM146.771 122.568C146.535 120.372 146.327 118.428 147.203 116.099C151.264 117.387 148.877 124.067 146.986 125.034C146.942 124.161 146.855 123.349 146.771 122.568ZM155.127 132.492C157.413 130.09 156.567 126.749 155.364 124.073C154.82 124.155 154.572 123.992 154.324 123.829C154.076 123.666 153.827 123.503 153.283 123.587C153.34 124.783 153.233 126.225 153.118 127.763C152.801 132.017 152.43 137.01 155.335 139.596C157.031 137.057 156.502 134.624 155.127 132.492ZM258.83 203.686C259.403 203.734 259.977 203.783 260.278 204.071L260.561 204.459L261.217 205.357C271.809 219.853 282.402 234.351 299.457 243.243C299.304 244.019 298.725 244.306 298.147 244.593C297.843 244.743 297.54 244.893 297.298 245.114C294.526 244.228 292.518 242.681 290.509 241.134C288.732 239.765 286.954 238.395 284.647 237.484C284.524 237.16 284.318 236.908 284.111 236.657C283.763 236.233 283.415 235.809 283.467 235.038C275.815 230.261 270.324 223.608 264.833 216.956C261.526 212.95 258.22 208.944 254.442 205.348C246.635 193.701 239.385 178.859 236.566 161.256C236.421 160.352 236.304 159.461 236.189 158.58L236.189 158.58L236.189 158.58L236.189 158.58L236.188 158.579L236.188 158.579L236.188 158.579L236.188 158.579C235.771 155.395 235.371 152.338 233.688 149.252C233.793 148.882 233.868 148.478 233.942 148.074L233.942 148.074C234.181 146.781 234.419 145.489 235.653 145.34C238.404 146.834 238.804 150.369 239.204 153.904C239.541 156.877 239.877 159.85 241.612 161.609C243.454 178.092 249.918 190.787 258.376 202.251C258.402 202.666 258.119 202.726 257.836 202.786C257.586 202.839 257.336 202.892 257.298 203.189C257.552 203.577 258.191 203.631 258.83 203.686ZM155.138 142.717C154.502 144.772 154.461 150.216 157.33 151.82C157.37 148.461 156.9 145.525 156.193 142.791L155.138 142.717ZM171.304 172.662L171.305 172.663L171.305 172.663L171.305 172.663C171.43 172.852 171.554 173.042 171.682 173.229C171.766 173.644 171.528 173.726 171.289 173.807C171.101 173.871 170.913 173.935 170.881 174.162C171.326 175.047 171.969 175.776 172.612 176.504L172.612 176.505C172.942 176.878 173.272 177.252 173.575 177.646C173.3 178.093 172.473 177.968 171.645 177.843C171.146 177.767 170.646 177.692 170.267 177.742C171.294 175.261 170.205 174.025 169.221 172.907C168.399 171.974 167.65 171.123 168.262 169.699C169.754 170.31 170.53 171.487 171.304 172.662ZM363.755 196.271C364.372 196.928 365.664 198.07 366.673 197.222C366.53 195.544 365.364 194.98 364.184 194.426C363.901 194.844 363.72 195.398 363.755 196.271ZM371.232 203.599L371.406 201.107C374.676 198.969 376.442 200.773 378.381 202.754C379.706 204.107 381.111 205.542 383.131 205.859C382.965 206.894 382.197 207.188 381.429 207.482C380.839 207.708 380.249 207.933 379.932 208.495C376.746 207.786 374.574 206.133 372.404 204.482L372.404 204.481L372.403 204.481L372.403 204.48C372.014 204.185 371.626 203.889 371.232 203.599ZM388.999 212.044C389.065 212.005 389.131 211.967 389.198 211.929C390.103 211.403 391.012 210.875 390.846 209.171C388.02 205.969 384.51 211.618 388.816 212.155C388.848 212.135 388.881 212.115 388.913 212.096C388.942 212.078 388.971 212.061 388.999 212.044ZM208.626 206.63C208.496 207.79 210.862 208.436 211.012 207.196C210.568 206.703 209.622 206.646 208.626 206.63ZM367.792 224.648C369.065 224.668 370.211 224.533 370.315 223.222C369.503 222.422 367.587 222.969 367.792 224.648ZM249.789 225.585C246.363 223.402 242.936 221.22 241.985 216.957C246.606 218.566 249.103 221.965 251.599 225.363C252.446 226.516 253.293 227.668 254.222 228.751C252.899 227.566 251.344 226.575 249.789 225.585ZM332.286 236.004C332.246 235.636 332.389 235.467 332.531 235.298C332.696 235.102 332.861 234.906 332.743 234.404C329.922 233.873 328.255 234.514 329.102 237.089C331.809 238.335 334.693 239.438 338.59 239.711C339.385 236.382 336.327 236.221 333.268 236.06C332.939 236.042 332.61 236.025 332.286 236.004ZM255.366 231.295C254.923 230.796 254.503 230.322 254.1 230.077C255.501 229.509 256.319 230.387 257.148 231.277C257.688 231.856 258.232 232.44 258.945 232.634C257.574 233.782 256.406 232.466 255.366 231.295Z" fill="white"/>
</g>
</svg>
