<svg width="391" height="203" viewBox="0 0 391 203" fill="none" xmlns="http://www.w3.org/2000/svg">
<g opacity="0.05">
<path fill-rule="evenodd" clip-rule="evenodd" d="M131.209 -56.0207C131.246 -56.2829 131.283 -56.5451 131.249 -56.8193C132.812 -57.3995 134.331 -57.7897 135.26 -55.8946C135.072 -55.7714 134.884 -55.643 134.695 -55.5145L134.695 -55.5143C133.57 -54.7483 132.444 -53.9816 131.6 -54.304C131.058 -54.9444 131.133 -55.4823 131.209 -56.0207ZM118.343 -43.5639C121.352 -42.9707 124.844 -44.0698 128.608 -45.2545C130.41 -45.8218 132.275 -46.4087 134.179 -46.8389C134.667 -54.2115 123.048 -47.0058 118.343 -43.5639ZM130.03 -53.092C128.798 -53.3164 128.541 -55.5041 129.841 -55.8327C130.298 -55.1897 130.172 -54.7282 130.045 -54.267C129.945 -53.9046 129.846 -53.5422 130.03 -53.092ZM94.7737 47.5732L94.7739 47.5729C96.7368 44.8662 98.6997 42.1595 100.621 39.4444C101.442 39.7925 102.493 39.0762 103.547 38.3582C103.734 38.2314 103.92 38.1046 104.105 37.9835C108.594 32.7855 114.273 28.2117 120 23.6L120 23.6C127.036 17.9338 134.143 12.2104 139.199 5.20204L138.651 4.35768C137.154 4.79631 135.548 5.7427 133.941 6.68934C132.201 7.71475 130.46 8.74048 128.857 9.1215C128.105 10.6732 126.051 11.8015 124.225 12.5316C118.957 18.0792 113.733 22.9673 107.82 27.5815C95.4695 37.2078 86.4115 51.937 80.5202 63.6865C79.9248 64.8736 79.243 66.0618 78.5544 67.2621C76.0832 71.5694 73.5233 76.0315 74.5423 81.1518C77.0572 79.2446 77.028 76.809 76.987 74.3692C81.9621 65.2398 88.368 56.4064 94.7737 47.5732ZM266.404 214.409C266.456 214.343 266.508 214.276 266.559 214.21C267.619 214.602 268.623 215.278 269.46 216.86C268.542 218.22 266.503 218.07 265.204 217.562C264.892 216.343 265.648 215.376 266.404 214.409ZM94.5273 24.208C99.0622 21.9497 101.376 19.2389 103.689 16.5285C105.177 14.7845 106.666 13.0407 108.746 11.4178C110.757 9.79217 113.211 8.37014 115.681 6.93902C119.94 4.47099 124.246 1.97589 126.411 -1.63707C122.459 -3.16521 118.268 -0.154608 113.969 2.93274C110.986 5.07568 107.951 7.2556 104.909 7.98035C103.846 9.16158 102.58 10.3179 101.29 11.4963C97.6409 14.8307 93.7977 18.3419 93.8045 23.095C93.6686 23.0481 93.535 22.9912 93.4014 22.9343C92.7979 22.6774 92.195 22.4208 91.3851 23.0867C80.3501 34.9972 69.3085 49.4788 69.1949 62.0028C71.3437 59.3573 72.3984 56.49 73.4531 53.6224C73.9673 52.2246 74.4815 50.8267 75.1224 49.4544C77.7221 45.6333 80.8347 41.9161 83.9474 38.1987C87.7971 33.6011 91.6471 29.0032 94.5273 24.208ZM101.48 -26.2428C103.101 -27.7554 104.535 -29.0935 106.927 -29.8043C108.322 -25.8116 101.536 -23.6708 99.6306 -24.5855C100.305 -25.1464 100.904 -25.7056 101.48 -26.2428ZM98.5675 -13.6064C101.861 -13.2457 104.034 -15.9319 105.462 -18.4993C105.07 -18.8803 105.053 -19.1751 105.035 -19.4697C105.018 -19.7647 105 -20.0595 104.607 -20.4404C103.682 -19.6733 102.462 -18.8885 101.16 -18.0512C97.5581 -15.735 93.3309 -13.0164 92.9934 -9.15548C96.0439 -9.3442 97.6792 -11.231 98.5675 -13.6064ZM103.855 111.985C104.158 112.468 104.462 112.952 104.411 113.365C104.254 113.871 104.098 114.378 103.941 114.884C98.6455 132.02 93.3492 149.157 96.4121 168.029C95.6974 168.376 95.1219 168.091 94.5459 167.805C94.2442 167.656 93.9423 167.506 93.6203 167.448C92.6745 164.718 92.7147 162.194 92.7548 159.67C92.7903 157.436 92.8259 155.202 92.1779 152.825C92.3646 152.532 92.4429 152.217 92.5212 151.901C92.6532 151.37 92.7851 150.839 93.435 150.415C92.6916 141.472 94.7453 133.109 96.799 124.746L96.799 124.746L96.799 124.746L96.799 124.746L96.7991 124.746L96.7991 124.746L96.7991 124.746L96.7991 124.745L96.7991 124.745L96.7992 124.745L96.7992 124.745C98.0357 119.71 99.2722 114.675 99.898 109.514C104.573 96.3023 112.144 81.6055 124.579 68.7508C125.214 68.0929 125.856 67.4654 126.491 66.8447L126.493 66.8428L126.496 66.8405L126.499 66.8372L126.5 66.8365L126.5 66.8362C128.804 64.5851 131.018 62.4229 132.487 59.2281C132.846 59.0883 133.215 58.9034 133.584 58.7185C134.763 58.1275 135.942 57.537 136.799 58.4236C137.245 61.504 134.649 63.9538 132.052 66.4036C129.869 68.4641 127.685 70.5245 127.312 72.96C115.192 84.3649 108.873 97.1444 104.734 110.76C104.417 111.031 104.2 110.843 103.982 110.655C103.79 110.489 103.598 110.323 103.337 110.472C103.178 110.908 103.516 111.446 103.855 111.985ZM90.4448 -7.44685C88.416 -6.71099 84.0255 -3.45842 84.4535 -0.218136C87.1719 -2.21375 89.246 -4.35702 91.016 -6.56729L90.4448 -7.44685ZM76.2365 23.4696L76.2359 23.4714C76.1586 23.6844 76.0814 23.8973 76.008 24.1111C75.725 24.4285 75.5172 24.2887 75.309 24.1486C75.1452 24.0385 74.9812 23.9282 74.7802 24.0402C74.3359 24.9262 74.1361 25.8749 73.9361 26.8241L73.936 26.8245L73.9359 26.8249L73.9359 26.8253L73.9358 26.8257L73.9357 26.8261L73.9356 26.8265L73.9355 26.8269L73.9354 26.8273C73.8332 27.3127 73.7309 27.7983 73.5957 28.2756C73.0734 28.327 72.6793 27.5966 72.285 26.866L72.2849 26.8659C72.0468 26.4245 71.8086 25.9831 71.5421 25.7138C74.1457 25.0293 74.4864 23.4217 74.7947 21.9673C75.052 20.7537 75.2866 19.6468 76.7948 19.2723C77.1961 20.8232 76.7158 22.1477 76.2365 23.4696ZM173.219 191.396C173.06 192.281 172.917 193.994 174.199 194.281C175.46 193.155 175.216 191.892 174.955 190.623C174.45 190.651 173.898 190.842 173.219 191.396ZM171.86 201.782L173.963 200.416C177.633 201.715 177.242 204.203 176.812 206.933C176.519 208.799 176.207 210.777 177.16 212.569C176.232 213.062 175.537 212.631 174.842 212.2C174.308 211.869 173.774 211.538 173.135 211.626C171.798 208.675 171.826 205.957 171.853 203.242C171.858 202.756 171.863 202.269 171.86 201.782ZM175.599 220.961C175.736 221.013 175.873 221.069 176.009 221.126C176.972 221.525 177.939 221.927 179.206 220.767C180.085 216.597 173.455 217.226 175.599 220.961ZM71.5924 73.7347C70.5844 74.3324 71.4809 76.596 72.5648 75.9668C72.6947 75.3168 72.1754 74.5336 71.5924 73.7347ZM152.986 211.698C153.731 212.719 154.524 213.545 155.637 212.836C155.793 211.71 154.21 210.522 152.986 211.698ZM81.166 117.978C80.8685 113.948 80.571 109.917 83.4217 106.592C84.8929 111.223 83.6595 115.25 82.426 119.278C82.0077 120.644 81.5894 122.01 81.2766 123.4C81.436 121.637 81.301 119.808 81.166 117.978L81.166 117.978ZM122.534 190.153C122.805 189.9 123.026 189.91 123.247 189.921C123.503 189.934 123.758 189.946 124.09 189.55C122.83 186.995 121.32 186.062 119.761 188.287C120.379 191.182 121.218 194.131 123.329 197.382C126.475 196.003 124.776 193.484 123.076 190.964L123.075 190.963C122.893 190.692 122.71 190.422 122.534 190.153ZM80.0134 125.902C80.1489 125.249 80.2773 124.631 80.233 124.164C81.527 124.93 81.3117 126.108 81.0935 127.302C80.9515 128.079 80.8083 128.862 81.0785 129.543C79.3388 129.151 79.6957 127.432 80.0134 125.902Z" fill="white"/>
</g>
</svg>
