<svg width="365" height="116" viewBox="0 0 365 116" fill="none" xmlns="http://www.w3.org/2000/svg">
<path d="M87.8954 14.0006L94.4368 37.3449H80.8801L87.8954 14.0006ZM75.9866 53.6993L70.0243 73.0698H104.864L99.2541 53.6993H75.9866ZM166.898 -0.000275405H100.033V20.8001H121.129V73.0698H155.081C152.981 71.7887 138.576 60.4597 138.576 39.3018C138.576 21.7159 149.338 4.511 166.898 -0.000275405ZM178.496 54.3568C186.385 54.3568 192.716 47.8651 192.716 39.6645C192.716 31.5134 186.78 24.132 178.781 24.132C170.752 24.132 164.434 31.5134 164.434 39.6645C164.434 47.8651 170.368 54.3568 178.496 54.3568ZM248.625 45.9291L235.047 -0.000275405H200.3V73.0698H222.004V27.2683H222.157L235.611 73.0698H270.658V-0.000275405H248.762V45.9291H248.625ZM42.4897 73.0698L48.7547 52.5825H25.5056V46.391H50.6632L56.6334 26.749H25.5056V20.8001H58.3708L64.7069 -0.000275405H0.429688V73.0698H42.4897Z" fill="#1478C7"/>
<path d="M63.9917 90.3973H69.5709C71.2605 90.3973 74.0001 90.6164 73.0001 95.2801C72.1342 99.3308 70.4131 101.175 66.9208 101.175H63.4864L61.4731 110.554H59.6704L63.9917 90.3973ZM63.8075 99.6647H67.1603C69.0472 99.6647 70.4499 98.7726 71.1263 95.6166C71.8632 92.184 70.4315 91.9049 68.7946 91.9049H65.4734L63.8075 99.6647Z" fill="#231F20"/>
<path d="M72.7154 105.024L73.4339 101.675C73.8155 99.8906 74.6419 96.1763 79.5158 96.1763C84.3897 96.1763 83.6213 99.8906 83.2371 101.675L82.5186 105.024C81.7343 108.683 80.0053 110.833 76.3709 110.833C72.7391 110.833 71.9312 108.683 72.7154 105.024ZM79.9342 107.622C80.3658 106.923 80.9659 104.385 81.158 103.49C82.0501 99.3324 82.0159 97.5144 79.2263 97.5144C76.4393 97.5144 75.6287 99.3324 74.7366 103.49C74.5445 104.385 74.055 106.923 74.1866 107.622C74.255 107.958 74.3208 109.494 76.6604 109.494C78.9974 109.494 79.7211 107.958 79.9342 107.622Z" fill="#231F20"/>
<path d="M85.8286 96.4546H87.6313L88.1682 108.795H88.2235L93.8843 96.4546H95.9712L96.4792 108.795H96.5344L102.364 96.4546H104.056L97.116 110.555H95.0028L94.4633 98.4917H94.4054L88.834 110.555H86.7208L85.8286 96.4546Z" fill="#231F20"/>
<path d="M105.685 103.853L105.45 104.943C105.032 106.897 105.008 109.492 107.687 109.492C109.798 109.492 111.13 108.154 111.509 106.253H113.282C112.356 109.662 110.245 110.833 107.398 110.833C104.948 110.833 102.708 109.857 103.624 105.582L104.363 102.124C105.24 98.0468 107.361 96.174 110.543 96.174C115.443 96.174 114.696 99.6665 113.796 103.853H105.685ZM112.395 102.512C113.067 99.3875 112.959 97.5147 110.253 97.5147C107.55 97.5147 106.643 99.3875 105.971 102.512H112.395Z" fill="#231F20"/>
<path d="M119.907 98.3527H119.965C120.954 97.0146 122.628 96.1747 124.347 96.1747L123.981 97.878C121.628 97.6824 119.747 99.1065 119.236 101.477L117.291 110.554H115.602L118.625 96.4538H120.315L119.907 98.3527Z" fill="#231F20"/>
<path d="M123.193 110.554L126.217 96.4536H127.906L124.882 110.554H123.193ZM126.864 92.5202L127.319 90.3971H129.404L128.948 92.5202H126.864Z" fill="#231F20"/>
<path d="M130.426 110.554H128.737L131.761 96.4536H133.453L133.079 98.1855H133.137C134.206 97.0144 135.482 96.1745 137.003 96.1745C140.527 96.1745 140.335 98.7724 139.94 100.614L137.808 110.554H136.116L138.232 100.7C138.585 99.0515 138.266 97.5126 136.292 97.5126C134.771 97.5126 133 98.5481 132.326 101.704L130.426 110.554Z" fill="#231F20"/>
<path d="M152.18 96.4248H153.844C153.502 97.7681 153.323 98.4645 153.165 99.1922L150.62 111.055C149.957 114.156 148.604 116 144.548 116C140.998 116 140.827 113.512 141.246 112.09H142.935C142.475 113.708 143.483 114.657 145.062 114.657C148.357 114.657 148.536 112.899 149.438 108.684H149.383C148.393 109.881 146.935 110.387 145.583 110.387C141.496 110.387 141.964 106.897 142.635 103.77C143.335 100.504 143.369 100.476 144.085 98.9653C144.354 98.381 145.812 96.1744 148.686 96.1744C150.122 96.1744 151.404 96.8995 151.754 98.1567L151.796 98.2115L152.18 96.4248ZM144.451 103.18C143.822 106.115 143.193 109.046 146.262 109.046C147.672 109.046 148.772 108.126 149.167 107.455C149.825 106.368 150.075 105.723 150.962 101.592C151.596 98.6314 150.23 97.5125 148.651 97.5125C145.722 97.5125 144.901 101.088 144.451 103.18Z" fill="#231F20"/>
<path d="M160.455 110.554L164.779 90.3971H170.44C173.624 90.3971 174.982 91.6804 174.222 95.2277C173.701 97.6534 172.948 99.3306 170.235 100.03L170.221 100.084C172.777 100.645 173.106 102.403 172.561 104.944C171.782 108.572 169.611 110.554 166.203 110.554H160.455ZM162.582 109.047H165.455C168.44 109.047 170.092 108.04 170.727 105.082C171.111 103.295 171.095 100.864 167.998 100.864H164.337L162.582 109.047ZM168.124 99.3593C170.714 99.3593 171.908 97.5986 172.4 95.3111C173.119 91.9594 171.271 91.9047 169.835 91.9047H166.258L164.658 99.3593H168.124Z" fill="#231F20"/>
<path d="M186.301 96.4542L183.275 110.555H181.811L182.148 108.987H182.093C180.848 110.192 179.696 110.831 178.119 110.831C175.19 110.831 174.827 108.711 175.316 106.421L177.456 96.4542H179.143L177.069 106.142C176.985 106.53 176.264 109.493 178.717 109.493C180.998 109.493 182.267 107.37 182.48 106.392L184.612 96.4542H186.301Z" fill="#231F20"/>
<path d="M190.344 110.831C187.273 110.831 186.378 109.352 187.049 106.365H188.768C188.355 108.293 188.531 109.579 190.7 109.579C192.331 109.579 193.318 108.653 193.655 107.09C194.445 103.405 187.844 104.354 188.844 99.693C189.402 97.0951 191.402 96.1744 193.881 96.1744C196.7 96.1744 197.187 98.1019 196.726 100.249H195.066C195.363 98.4645 195.089 97.5125 193.173 97.5125C191.963 97.5125 190.836 98.2976 190.565 99.5522C189.813 103.071 196.41 102.121 195.397 106.84C194.829 109.492 192.992 110.831 190.344 110.831Z" fill="#231F20"/>
<path d="M197.699 110.554L200.723 96.4536H202.413L199.389 110.554H197.699ZM201.37 92.5202L201.826 90.3971H203.91L203.455 92.5202H201.37Z" fill="#231F20"/>
<path d="M204.967 110.567H203.278L206.299 96.4668H207.991L207.62 98.1987H207.675C208.744 97.0276 210.023 96.1877 211.544 96.1877C215.065 96.1877 214.876 98.7856 214.481 100.627L212.349 110.567H210.657L212.773 100.713C213.126 99.0647 212.805 97.5258 210.833 97.5258C209.312 97.5258 207.541 98.5613 206.865 101.717L204.967 110.567Z" fill="#231F20"/>
<path d="M218.861 103.853L218.627 104.943C218.209 106.897 218.185 109.492 220.864 109.492C222.975 109.492 224.306 108.154 224.683 106.253H226.459C225.533 109.662 223.422 110.833 220.575 110.833C218.124 110.833 215.885 109.857 216.801 105.582L217.54 102.124C218.417 98.0468 220.538 96.174 223.719 96.174C228.62 96.174 227.872 99.6665 226.972 103.853H218.861ZM225.572 102.512C226.243 99.3874 226.138 97.5147 223.43 97.5147C220.727 97.5147 219.819 99.3874 219.148 102.512H225.572Z" fill="#231F20"/>
<path d="M232.208 110.83C229.139 110.83 228.244 109.351 228.913 106.365H230.631C230.218 108.292 230.395 109.578 232.563 109.578C234.197 109.578 235.182 108.652 235.518 107.09C236.308 103.404 229.71 104.354 230.71 99.6928C231.268 97.0949 233.268 96.1741 235.747 96.1741C238.563 96.1741 239.053 98.1017 238.592 100.248H236.929C237.229 98.4643 236.953 97.5122 235.037 97.5122C233.826 97.5122 232.7 98.2973 232.429 99.5519C231.676 103.071 238.274 102.121 237.261 106.84C236.695 109.492 234.858 110.83 232.208 110.83Z" fill="#231F20"/>
<path d="M242.978 110.83C239.907 110.83 239.012 109.351 239.68 106.365H241.399C240.986 108.292 241.162 109.578 243.331 109.578C244.965 109.578 245.952 108.652 246.286 107.09C247.076 103.404 240.478 104.354 241.478 99.6928C242.036 97.0949 244.036 96.1741 246.515 96.1741C249.331 96.1741 249.82 98.1017 249.36 100.248H247.697C247.997 98.4643 247.72 97.5122 245.804 97.5122C244.594 97.5122 243.467 98.2973 243.199 99.5519C242.444 103.071 249.041 102.121 248.031 106.84C247.462 109.492 245.625 110.83 242.978 110.83Z" fill="#231F20"/>
<path d="M267.879 90.3971H270.302L270.597 108.068H270.652L278.782 90.3971H280.556L271.192 110.554H268.823L268.584 92.6298H268.529L260.486 110.554H258.233L257.654 90.3971H259.57L259.862 108.209H259.918L267.879 90.3971Z" fill="#231F20"/>
<path d="M278.352 105.024L279.073 101.675C279.454 99.8906 280.278 96.1764 285.152 96.1764C290.026 96.1764 289.258 99.8906 288.873 101.675L288.155 105.024C287.371 108.683 285.642 110.833 282.01 110.833C278.375 110.833 277.567 108.683 278.352 105.024ZM285.57 107.622C286.002 106.923 286.602 104.385 286.797 103.49C287.689 99.3324 287.652 97.5144 284.863 97.5144C282.076 97.5144 281.265 99.3324 280.373 103.49C280.181 104.385 279.691 106.923 279.823 107.622C279.894 107.958 279.96 109.494 282.297 109.494C284.634 109.494 285.357 107.958 285.57 107.622Z" fill="#231F20"/>
<path d="M294.758 98.3525H294.814C295.806 97.0144 297.477 96.1745 299.198 96.1745L298.832 97.8777C296.479 97.6821 294.595 99.1063 294.085 101.477L292.14 110.554H290.45L293.474 96.4536H295.164L294.758 98.3525Z" fill="#231F20"/>
<path d="M298.185 110.554L302.509 90.3971H304.199L299.875 110.554H298.185Z" fill="#231F20"/>
<path d="M311.699 108.768L311.636 108.792C310.475 110.135 309.254 110.832 307.594 110.832C303.48 110.832 304.123 106.786 304.83 103.489C305.412 100.782 306.399 96.1754 310.765 96.1754C312.06 96.1754 313.202 96.7622 313.844 97.8499L313.894 97.876L315.497 90.3979H317.189L313.462 107.759C313.162 109.157 313.052 110.078 313.033 110.552H311.399L311.699 108.768ZM312.47 104.772L313.01 102.261C313.189 101.423 314.026 97.5134 310.841 97.5134C307.802 97.5134 307.215 100.25 306.507 103.544C305.383 108.792 306.499 109.493 308.331 109.493C309.939 109.493 311.733 108.208 312.47 104.772Z" fill="#231F20"/>
<path d="M317.919 96.4546H319.722L320.259 108.795H320.314L325.975 96.4546H328.062L328.57 108.795H328.625L334.455 96.4546H336.147L329.204 110.555H327.094L326.554 98.4917H326.496L320.925 110.555H318.812L317.919 96.4546Z" fill="#231F20"/>
<path d="M335.236 110.554L338.26 96.4536H339.949L336.923 110.554H335.236ZM338.907 92.5202L339.36 90.3971H341.447L340.989 92.5202H338.907Z" fill="#231F20"/>
<path d="M348.662 108.768L348.599 108.792C347.438 110.135 346.217 110.832 344.557 110.832C340.443 110.832 341.085 106.786 341.793 103.489C342.375 100.782 343.362 96.1754 347.728 96.1754C349.025 96.1754 350.165 96.7622 350.807 97.8499L350.857 97.876L352.46 90.3979H354.152L350.425 107.759C350.128 109.157 350.015 110.078 349.996 110.552H348.362L348.662 108.768ZM349.433 104.772L349.973 102.261C350.152 101.423 350.989 97.5134 347.804 97.5134C344.765 97.5134 344.178 100.25 343.47 103.544C342.346 108.792 343.462 109.493 345.294 109.493C346.901 109.493 348.696 108.208 349.433 104.772Z" fill="#231F20"/>
<path d="M356.228 103.853L355.996 104.943C355.575 106.897 355.554 109.492 358.231 109.492C360.344 109.492 361.673 108.154 362.052 106.253H363.826C362.899 109.662 360.789 110.833 357.944 110.833C355.494 110.833 353.251 109.857 354.167 105.582L354.909 102.124C355.783 98.0468 357.904 96.174 361.089 96.174C365.986 96.174 365.239 99.6665 364.342 103.853H356.228ZM362.939 102.512C363.61 99.3875 363.502 97.5147 360.799 97.5147C358.094 97.5147 357.188 99.3875 356.515 102.512H362.939Z" fill="#231F20"/>
</svg>
