<svg width="20" height="22" viewBox="0 0 20 22" fill="none" xmlns="http://www.w3.org/2000/svg">
<path opacity="0.4" d="M17.1125 11C17.4995 10.5876 17.8505 10.1745 18.1598 9.76495C19.5922 7.86842 19.9903 6.2099 19.2808 5.09484C18.5713 3.97982 16.9004 3.63786 14.5756 4.1319C14.2719 4.19644 13.9604 4.27456 13.6429 4.36482C13.5485 4.04845 13.4472 3.74367 13.3386 3.45281C12.5075 1.22622 11.3219 0 10.0003 0C8.67865 0 7.49306 1.22622 6.66192 3.45281C6.55335 3.74367 6.45202 4.04845 6.35766 4.36482C6.04009 4.27456 5.72855 4.19644 5.42489 4.1319C3.10015 3.63781 1.42917 3.97982 0.719706 5.09484C0.0102388 6.2099 0.408294 7.86842 1.84067 9.76495C2.14997 10.1745 2.50107 10.5876 2.88805 11C2.50107 11.4124 2.14997 11.8255 1.84067 12.2351C0.408337 14.1316 0.0102388 15.7901 0.719706 16.9052C1.21716 17.687 2.18728 18.0887 3.5241 18.0887C4.09385 18.0887 4.73024 18.0157 5.42493 17.8681C5.72863 17.8036 6.04013 17.7254 6.3577 17.6352C6.45206 17.9515 6.55339 18.2563 6.66196 18.5472C7.4931 20.7738 8.67869 22 10.0003 22C11.3219 22 12.5075 20.7738 13.3386 18.5472C13.4472 18.2563 13.5485 17.9515 13.6429 17.6352C13.9605 17.7254 14.272 17.8036 14.5757 17.8681C15.2705 18.0158 15.9067 18.0888 16.4765 18.0887C17.8131 18.0887 18.7834 17.6869 19.2809 16.9052C19.9904 15.7901 19.5923 14.1316 18.1599 12.2351C17.8506 11.8255 17.4995 11.4124 17.1125 11ZM14.8443 5.39621C15.463 5.26472 16.0214 5.20013 16.5008 5.20013C17.3449 5.20013 17.9433 5.40048 18.1903 5.78875C18.5777 6.39749 18.1807 7.59273 17.1285 8.98598C16.853 9.35078 16.5407 9.71941 16.1965 10.0882C15.6482 9.57637 15.0487 9.0709 14.4079 8.58035C14.3173 7.53793 14.1682 6.54074 13.965 5.61667C14.2648 5.53085 14.5585 5.45692 14.8443 5.39621ZM12.422 14.806C12.6163 14.6823 12.808 14.5568 12.9974 14.4298C12.9256 14.9646 12.8368 15.4814 12.7318 15.9756C12.2968 15.8132 11.853 15.6289 11.4038 15.4243C11.744 15.2272 12.0839 15.0211 12.422 14.806ZM11.7281 13.7155C11.1539 14.0809 10.5756 14.4193 10.0003 14.728C9.42483 14.4193 8.84659 14.0809 8.27241 13.7155C7.77574 13.3995 7.29586 13.0721 6.83659 12.7368C6.80022 12.1693 6.78165 11.5887 6.78165 11C6.78165 10.4113 6.80022 9.83074 6.83659 9.26319C7.29586 8.92787 7.77574 8.60051 8.27241 8.28449C8.84659 7.91913 9.42483 7.58071 10.0003 7.27197C10.5757 7.58071 11.154 7.91913 11.7281 8.28449C12.2248 8.60051 12.7047 8.92787 13.1639 9.26319C13.2003 9.83069 13.2189 10.4113 13.2189 11C13.2189 11.5887 13.2003 12.1693 13.1639 12.7368C12.7047 13.0721 12.2248 13.3994 11.7281 13.7155ZM8.59679 15.4243C8.14759 15.6289 7.70374 15.8132 7.26881 15.9756C7.16377 15.4814 7.07497 14.9646 7.00315 14.4298C7.19255 14.5568 7.38427 14.6823 7.57858 14.806C7.91662 15.0211 8.25647 15.2272 8.59679 15.4243ZM5.49757 11.6875C5.22765 11.46 4.96824 11.2306 4.72007 11C4.9682 10.7695 5.22765 10.54 5.49757 10.3125C5.49214 10.5405 5.48913 10.7696 5.48913 11C5.48913 11.2304 5.49214 11.4595 5.49757 11.6875ZM7.00311 7.5702C7.07493 7.03539 7.16372 6.51855 7.26876 6.02442C7.70374 6.18676 8.14755 6.37108 8.59679 6.57568C8.25647 6.77284 7.91662 6.97891 7.57854 7.19403C7.38419 7.31768 7.1925 7.44323 7.00311 7.5702ZM11.4037 6.57568C11.8529 6.37108 12.2968 6.18676 12.7317 6.02442C12.8368 6.51855 12.9255 7.03539 12.9974 7.5702C12.808 7.44323 12.6162 7.31768 12.4219 7.19403C12.0839 6.97891 11.744 6.77284 11.4037 6.57568ZM14.5029 10.3125C14.7729 10.54 15.0323 10.7694 15.2804 11C15.0323 11.2305 14.7729 11.46 14.5029 11.6875C14.5084 11.4595 14.5114 11.2304 14.5114 11C14.5114 10.7696 14.5084 10.5405 14.5029 10.3125ZM7.87285 3.90481C8.48339 2.26907 9.27873 1.29253 10.0003 1.29253C10.7218 1.29253 11.5171 2.26907 12.1277 3.90481C12.2299 4.17852 12.3251 4.46602 12.4137 4.76511C11.6288 5.05184 10.8183 5.40478 10.0002 5.81624C9.18209 5.40478 8.37168 5.05184 7.58668 4.76511C7.67535 4.46602 7.77065 4.17852 7.87285 3.90481ZM1.81017 5.78871C2.05721 5.40043 2.65552 5.20009 3.49967 5.20009C3.97898 5.20009 4.53766 5.26472 5.15617 5.39617C5.44195 5.45692 5.7357 5.53085 6.03556 5.61663C5.83234 6.5407 5.68322 7.53788 5.59262 8.5803C4.95182 9.07086 4.35231 9.57633 3.80397 10.0882C3.45982 9.71936 3.14754 9.35074 2.87202 8.98594C1.81977 7.59269 1.42284 6.39749 1.81017 5.78871ZM5.15617 16.6038C3.44836 16.9667 2.19754 16.82 1.81017 16.2113C1.42284 15.6025 1.81977 14.4073 2.87202 13.014C3.14754 12.6492 3.45982 12.2806 3.80397 11.9118C4.35231 12.4236 4.95182 12.9291 5.59262 13.4197C5.68322 14.4621 5.83234 15.4593 6.03556 16.3833C5.7357 16.4692 5.44199 16.5431 5.15617 16.6038ZM12.1277 18.0952C11.5171 19.7309 10.7218 20.7075 10.0003 20.7075C9.27873 20.7075 8.48339 19.7309 7.87285 18.0952C7.77065 17.8215 7.67539 17.534 7.58677 17.2349C8.37176 16.9482 9.18218 16.5952 10.0003 16.1838C10.8184 16.5952 11.6288 16.9482 12.4138 17.2349C12.3252 17.534 12.2299 17.8215 12.1277 18.0952ZM18.1903 16.2113C17.803 16.8201 16.5522 16.9668 14.8443 16.6038C14.5586 16.5431 14.2648 16.4692 13.965 16.3834C14.1682 15.4593 14.3173 14.4621 14.4079 13.4197C15.0487 12.9291 15.6482 12.4237 16.1965 11.9118C16.5407 12.2806 16.853 12.6493 17.1285 13.0141C18.1807 14.4073 18.5777 15.6025 18.1903 16.2113Z" fill="#D7DBDB"/>
</svg>

