<?xml version="1.0" encoding="UTF-8"?>
<svg width="23px" height="16px" viewBox="0 0 23 16" version="1.1" xmlns="http://www.w3.org/2000/svg" xmlns:xlink="http://www.w3.org/1999/xlink">
    <!-- Generator: Sketch 49.3 (51167) - http://www.bohemiancoding.com/sketch -->
    <title>l_chinese</title>
    <desc>Created with Sketch.</desc>
    <defs></defs>
    <g id="UI-Kit" stroke="none" stroke-width="1" fill="none" fill-rule="evenodd">
        <g id="Handprinter---UI-Kit---Inputs" transform="translate(-1140.000000, -647.000000)">
            <g id="footer-language-ghange" transform="translate(800.000000, 358.000000)">
                <g id="dropdown" transform="translate(330.000000, 77.000000)">
                    <g id="6" transform="translate(0.000000, 200.000000)">
                        <g id="Simplified-Chinese" transform="translate(10.000000, 12.000000)">
                            <g>
                                <rect id="Rectangle-path" fill="#D80027" fill-rule="nonzero" x="0" y="0" width="23" height="15.9689825"></rect>
                                <polygon id="Shape" fill="#FFDA44" fill-rule="nonzero" points="7.78901953 5 8.44739453 7.11026901 10.5779941 7.11026901 8.85429687 8.41450292 9.5127168 10.5248655 7.78901953 9.2205848 6.06532227 10.5248655 6.72369727 8.41450292 5 7.11026901 7.13059961 7.11026901"></polygon>
                                <polygon id="Shape" fill="#FFDA44" fill-rule="nonzero" points="11.6922969 12.0718596 11.0458711 11.5827368 10.3995352 12.0718129 10.6463809 11.2805146 10 10.7913918 10.7989805 10.7913918 11.0458711 10 11.2928516 10.7913918 12.0917871 10.7913918 11.4454062 11.2804678"></polygon>
                                <polygon id="Shape" fill="#FFDA44" fill-rule="nonzero" points="14.0917422 9.28046784 13.2928066 9.28046784 13.045916 10.0717661 12.7990254 9.28051462 12 9.28046784 12.6464707 8.79134503 12.3994902 8 13.045916 8.48902924 13.6922969 8 13.4454063 8.79134503"></polygon>
                                <polygon id="Shape" fill="#FFDA44" fill-rule="nonzero" points="14.0917422 6.79139181 13.4454063 7.28051462 13.692252 8.07181287 13.045916 7.58278363 12.3994902 8.07190643 12.6464707 7.28046784 12 6.79148538 12.7990703 6.79139181 13.045916 6 13.2928066 6.79139181"></polygon>
                                <polygon id="Shape" fill="#FFDA44" fill-rule="nonzero" points="11.692252 4.00004678 11.4454063 4.7914386 12.0917422 5.28046784 11.2928066 5.28051462 11.0458262 6.07195322 10.7989355 5.28046784 10 5.2805614 10.6463809 4.79139181 10.3994902 4 11.0458262 4.48912281"></polygon>
                            </g>
                        </g>
                    </g>
                </g>
            </g>
        </g>
    </g>
</svg>