<?xml version="1.0" encoding="UTF-8"?>
<svg width="23px" height="16px" viewBox="0 0 23 16" version="1.1" xmlns="http://www.w3.org/2000/svg" xmlns:xlink="http://www.w3.org/1999/xlink">
    <!-- Generator: Sketch 49.3 (51167) - http://www.bohemiancoding.com/sketch -->
    <title>l_English</title>
    <desc>Created with Sketch.</desc>
    <defs></defs>
    <g id="UI-Kit" stroke="none" stroke-width="1" fill="none" fill-rule="evenodd">
        <g id="Handprinter---UI-Kit---Inputs" transform="translate(-1140.000000, -448.000000)">
            <g id="footer-language-ghange" transform="translate(800.000000, 358.000000)">
                <g id="dropdown" transform="translate(330.000000, 77.000000)">
                    <g id="1" transform="translate(0.000000, 1.000000)">
                        <g id="Group" transform="translate(10.000000, 12.000000)">
                            <g>
                                <rect id="Rectangle-path" fill="#F0F0F0" fill-rule="nonzero" x="0" y="0" width="23" height="16"></rect>
                                <rect id="Rectangle-path" fill="#D80027" fill-rule="nonzero" x="0" y="2" width="23" height="1.99094"></rect>
                                <rect id="Rectangle-path" fill="#D80027" fill-rule="nonzero" x="0" y="6" width="23" height="1.99094"></rect>
                                <rect id="Rectangle-path" fill="#D80027" fill-rule="nonzero" x="0" y="10" width="23" height="1.99094"></rect>
                                <rect id="Rectangle-path" fill="#D80027" fill-rule="nonzero" x="0" y="14" width="23" height="1.99094"></rect>
                                <rect id="Rectangle-path" fill="#2E52B2" fill-rule="nonzero" x="0" y="0" width="12" height="9"></rect>
                                <polygon id="Shape" fill="#F0F0F0" fill-rule="nonzero" points="3.77025 3 3.58835294 3.604 3 3.604 3.47607353 3.97709524 3.29417647 4.58104762 3.77025 4.20795238 4.24601471 4.58104762 4.06416176 3.97709524 4.54023529 3.604 3.95183824 3.604"></polygon>
                                <polygon id="Shape" fill="#F0F0F0" fill-rule="nonzero" points="3.95183824 6.60395238 3.77025 6 3.58835294 6.60395238 3 6.60395238 3.47607353 6.97709524 3.29417647 7.58104762 3.77025 7.20790476 4.24601471 7.58104762 4.06416176 6.97709524 4.54023529 6.60395238"></polygon>
                                <polygon id="Shape" fill="#F0F0F0" fill-rule="nonzero" points="1.95188235 6.60395238 1.77025 6 1.58835294 6.60395238 1 6.60395238 1.47607353 6.97709524 1.29417647 7.58104762 1.77025 7.20790476 2.24605882 7.58104762 2.06420588 6.97709524 2.54019118 6.60395238"></polygon>
                                <polygon id="Shape" fill="#F0F0F0" fill-rule="nonzero" points="1.77025 3 1.58835294 3.604 1 3.604 1.47607353 3.97709524 1.29417647 4.58104762 1.77025 4.20795238 2.24605882 4.58104762 2.06420588 3.97709524 2.54019118 3.604 1.95188235 3.604"></polygon>
                                <polygon id="Shape" fill="#F0F0F0" fill-rule="nonzero" points="3.77025 1 3.58835294 1.60404762 3 1.60404762 3.47607353 1.97719048 3.29417647 2.58114286 3.77025 2.208 4.24601471 2.58114286 4.06416176 1.97719048 4.54023529 1.60404762 3.95183824 1.60404762"></polygon>
                                <polygon id="Shape" fill="#F0F0F0" fill-rule="nonzero" points="1.77025 1 1.58835294 1.60404762 1 1.60404762 1.47607353 1.97719048 1.29417647 2.58114286 1.77025 2.208 2.24605882 2.58114286 2.06420588 1.97719048 2.54019118 1.60404762 1.95188235 1.60404762"></polygon>
                                <polygon id="Shape" fill="#F0F0F0" fill-rule="nonzero" points="6.77020588 3 6.58835294 3.604 6 3.604 6.47602941 3.97709524 6.29422059 4.58104762 6.77020588 4.20795238 7.24605882 4.58104762 7.06416176 3.97709524 7.54023529 3.604 6.95188235 3.604"></polygon>
                                <polygon id="Shape" fill="#F0F0F0" fill-rule="nonzero" points="6.95188235 6.60395238 6.77020588 6 6.58835294 6.60395238 6 6.60395238 6.47602941 6.97709524 6.29422059 7.58104762 6.77020588 7.20790476 7.24605882 7.58104762 7.06416176 6.97709524 7.54023529 6.60395238"></polygon>
                                <polygon id="Shape" fill="#F0F0F0" fill-rule="nonzero" points="8.95183824 6.60395238 8.77020588 6 8.58830882 6.60395238 8 6.60395238 8.47598529 6.97709524 8.29413235 7.58104762 8.77020588 7.20790476 9.24601471 7.58104762 9.06411765 6.97709524 9.54019118 6.60395238"></polygon>
                                <polygon id="Shape" fill="#F0F0F0" fill-rule="nonzero" points="8.77020588 3 8.58830882 3.604 8 3.604 8.47598529 3.97709524 8.29413235 4.58104762 8.77020588 4.20795238 9.24601471 4.58104762 9.06411765 3.97709524 9.54019118 3.604 8.95183824 3.604"></polygon>
                                <polygon id="Shape" fill="#F0F0F0" fill-rule="nonzero" points="6.77020588 1 6.58835294 1.60404762 6 1.60404762 6.47602941 1.97719048 6.29422059 2.58114286 6.77020588 2.208 7.24605882 2.58114286 7.06416176 1.97719048 7.54023529 1.60404762 6.95188235 1.60404762"></polygon>
                                <polygon id="Shape" fill="#F0F0F0" fill-rule="nonzero" points="8.77020588 1 8.58830882 1.60404762 8 1.60404762 8.47598529 1.97719048 8.29413235 2.58114286 8.77020588 2.208 9.24601471 2.58114286 9.06411765 1.97719048 9.54019118 1.60404762 8.95183824 1.60404762"></polygon>
                            </g>
                        </g>
                    </g>
                </g>
            </g>
        </g>
    </g>
</svg>