<?xml version="1.0" encoding="UTF-8"?>
<svg width="23px" height="16px" viewBox="0 0 23 16" version="1.1" xmlns="http://www.w3.org/2000/svg" xmlns:xlink="http://www.w3.org/1999/xlink">
    <!-- Generator: Sketch 49.3 (51167) - http://www.bohemiancoding.com/sketch -->
    <title>l_Español</title>
    <desc>Created with Sketch.</desc>
    <defs></defs>
    <g id="UI-Kit" stroke="none" stroke-width="1" fill="none" fill-rule="evenodd">
        <g id="Handprinter---UI-Kit---Inputs" transform="translate(-1140.000000, -487.000000)">
            <g id="footer-language-ghange" transform="translate(800.000000, 358.000000)">
                <g id="dropdown" transform="translate(330.000000, 77.000000)">
                    <g id="2" transform="translate(0.000000, 40.000000)">
                        <g id="Español" transform="translate(10.000000, 12.000000)">
                            <g>
                                <path d="M0.395797271,15.9737619 L22.5594133,15.9737619 C22.7779805,15.9737619 22.9552105,15.7855238 22.9552105,15.553381 L22.9552105,0.420380952 C22.9552105,0.188238095 22.7779805,0 22.5594133,0 L0.395797271,0 C0.177230019,4.76190476e-05 0,0.188238095 0,0.420380952 L0,15.553381 C0,15.7855714 0.177230019,15.9737619 0.395797271,15.9737619 Z" id="Shape" fill="#C8414B" fill-rule="nonzero"></path>
                                <rect id="Rectangle-path" fill="#FFD250" fill-rule="nonzero" x="0" y="4" width="22.9551657" height="9.24809524"></rect>
                                <path d="M9.34096027,7.89166667 L9.67654507,6.28780952 C9.70748074,6.14009524 9.60162694,6 9.45914351,6 L9.22277704,6 C9.08033844,6 8.97452948,6.14009524 9.00537548,6.28780952 L9.34096027,7.89166667 Z" id="Shape" fill="#C8414B" fill-rule="nonzero"></path>
                                <rect id="Rectangle-path" fill="#F5F5F5" fill-rule="nonzero" x="9" y="7" width="1" height="3.57285714"></rect>
                                <polygon id="Shape" fill="#C8414B" fill-rule="nonzero" points="10.187347 9.84071429 9 9.42038095 9 9 10.187347 9.42038095"></polygon>
                                <path d="M3.34096027,7.89166667 L3.67654507,6.28780952 C3.70748074,6.14009524 3.60162694,6 3.45914351,6 L3.22277704,6 C3.08033844,6 2.97452948,6.14009524 3.00537548,6.28780952 L3.34096027,7.89166667 Z" id="Shape" fill="#C8414B" fill-rule="nonzero"></path>
                                <path d="M5.39579727,7 C5.17723002,7 5,7.1882381 5,7.42038095 L5,10.1527143 C5,10.6634286 5.44879142,11.624 6.97889669,11.624 C8.50900195,11.624 8.95779337,10.6634762 8.95779337,10.1527143 L8.95779337,7.42038095 C8.95779337,7.1882381 8.78056335,7 8.5619961,7 L5.39579727,7 Z" id="Shape" fill="#F5F5F5" fill-rule="nonzero"></path>
                                <path d="M6.97889669,9.10180952 L5,9.10180952 L5,7.42038095 C5,7.1882381 5.17723002,7 5.39579727,7 L6.97889669,7 L6.97889669,9.10180952 Z" id="Shape" fill="#C8414B" fill-rule="nonzero"></path>
                                <path d="M7,9 L8.97889669,9 L8.97889669,10.0509048 C8.97889669,10.6313333 8.53593372,11.1018095 7.98944834,11.1018095 C7.44296296,11.1018095 7,10.6313333 7,10.0509048 L7,9 Z" id="Shape" fill="#C8414B" fill-rule="nonzero"></path>
                                <path d="M5,9 L6.97889669,9 L6.97889669,10.0509048 C6.97889669,10.6313333 6.53593372,11.1018095 5.98944834,11.1018095 C5.44296296,11.1018095 5,10.6313333 5,10.0509048 L5,9 Z" id="Shape" fill="#FAB446" fill-rule="nonzero"></path>
                                <rect id="Rectangle-path" fill="#FAB446" fill-rule="nonzero" x="5" y="8" width="1" height="1"></rect>
                                <rect id="Rectangle-path" fill="#F5F5F5" fill-rule="nonzero" x="3" y="7" width="1" height="3.57285714"></rect>
                                <path d="M6.59365107,6.26104762 C6.26627096,6.26104762 6,5.97819048 6,5.63052381 C6,5.28280952 6.26631579,5 6.59365107,5 C6.92103119,5 7.18730214,5.28285714 7.18730214,5.63052381 C7.18734698,5.97819048 6.92103119,6.26104762 6.59365107,6.26104762 Z M6.59365107,5.42033333 C6.48447953,5.42033333 6.39575244,5.51452381 6.39575244,5.63052381 C6.39575244,5.74647619 6.4844347,5.84071429 6.59365107,5.84071429 C6.70286745,5.84071429 6.79154971,5.74652381 6.79154971,5.63052381 C6.79154971,5.51457143 6.70286745,5.42033333 6.59365107,5.42033333 Z" id="Shape" fill="#F5F5F5" fill-rule="nonzero"></path>
                                <path d="M7.59365107,6.26104762 C7.26627096,6.26104762 7,5.97819048 7,5.63052381 C7,5.28280952 7.26631579,5 7.59365107,5 C7.92103119,5 8.18730214,5.28285714 8.18730214,5.63052381 C8.18730214,5.97819048 7.92098635,6.26104762 7.59365107,6.26104762 Z M7.59365107,5.42033333 C7.48447953,5.42033333 7.39575244,5.51452381 7.39575244,5.63052381 C7.39575244,5.74647619 7.4844347,5.84071429 7.59365107,5.84071429 C7.70282261,5.84071429 7.79154971,5.74652381 7.79154971,5.63052381 C7.79150487,5.51457143 7.70282261,5.42033333 7.59365107,5.42033333 Z" id="Shape" fill="#F5F5F5" fill-rule="nonzero"></path>
                                <path d="M7.59365107,6.26104762 C7.26627096,6.26104762 7,5.97819048 7,5.63052381 C7,5.28280952 7.26631579,5 7.59365107,5 C7.92103119,5 8.18730214,5.28285714 8.18730214,5.63052381 C8.18730214,5.97819048 7.92098635,6.26104762 7.59365107,6.26104762 Z M7.59365107,5.42033333 C7.48447953,5.42033333 7.39575244,5.51452381 7.39575244,5.63052381 C7.39575244,5.74647619 7.4844347,5.84071429 7.59365107,5.84071429 C7.70282261,5.84071429 7.79154971,5.74652381 7.79154971,5.63052381 C7.79154971,5.51452381 7.70282261,5.42033333 7.59365107,5.42033333 Z" id="Shape" fill="#F5F5F5" fill-rule="nonzero"></path>
                                <path d="M5.59365107,6.26104762 C5.26627096,6.26104762 5,5.97819048 5,5.63052381 C5,5.28280952 5.26631579,5 5.59365107,5 C5.92103119,5 6.18730214,5.28285714 6.18730214,5.63052381 C6.18734698,5.97819048 5.92103119,6.26104762 5.59365107,6.26104762 Z M5.59365107,5.42033333 C5.48447953,5.42033333 5.39575244,5.51452381 5.39575244,5.63052381 C5.39575244,5.74647619 5.4844347,5.84071429 5.59365107,5.84071429 C5.70286745,5.84071429 5.79154971,5.74647619 5.79154971,5.63047619 C5.79154971,5.51452381 5.70286745,5.42033333 5.59365107,5.42033333 Z" id="Shape" fill="#F5F5F5" fill-rule="nonzero"></path>
                                <path d="M7.79159454,9.42033333 L7.79159454,9.63052381 C7.79159454,9.74642857 7.70282261,9.84071429 7.59369591,9.84071429 C7.4845692,9.84071429 7.39579727,9.74642857 7.39579727,9.63052381 L7.39579727,9.42033333 L7.79159454,9.42033333 Z M8.18734698,9 L7,9 L7,9.63052381 C7,9.9782381 7.26631579,10.2610476 7.59365107,10.2610476 C7.92103119,10.2610476 8.18730214,9.97819048 8.18730214,9.63052381 L8.18730214,9 L8.18734698,9 Z" id="Shape" fill="#FAB446" fill-rule="nonzero"></path>
                                <path d="M7.39579727,8.26114286 C7.17723002,8.26114286 7,8.07290476 7,7.8407619 L7,7.42038095 C7,7.1882381 7.17723002,7 7.39579727,7 C7.61436452,7 7.79159454,7.1882381 7.79159454,7.42038095 L7.79159454,7.8407619 C7.79159454,8.07290476 7.61436452,8.26114286 7.39579727,8.26114286 Z" id="Shape" fill="#FFA0D2" fill-rule="nonzero"></path>
                                <ellipse id="Oval" fill="#5064AA" fill-rule="nonzero" cx="6.59365107" cy="8.63052381" rx="1" ry="1"></ellipse>
                                <path d="M5.39579727,6.26109524 L5,5.84071429 L5.23183821,5.59447619 C5.59019883,5.21385714 6.0762924,5 6.58314425,5 C7.0899961,5 7.57604483,5.21385714 7.93445029,5.59447619 L8.1662885,5.84071429 L7.77049123,6.26109524 L5.39579727,6.26109524 Z" id="Shape" fill="#C8414B" fill-rule="nonzero"></path>
                                <polygon id="Shape" fill="#C8414B" fill-rule="nonzero" points="3 9.84071429 4.18730214 9.42038095 4.18730214 9 3 9.42038095"></polygon>
                            </g>
                        </g>
                    </g>
                </g>
            </g>
        </g>
    </g>
</svg>