<?xml version="1.0" encoding="UTF-8"?>
<svg width="23px" height="16px" viewBox="0 0 23 16" version="1.1" xmlns="http://www.w3.org/2000/svg" xmlns:xlink="http://www.w3.org/1999/xlink">
    <!-- Generator: Sketch 49.3 (51167) - http://www.bohemiancoding.com/sketch -->
    <title>l_Português</title>
    <desc>Created with Sketch.</desc>
    <defs></defs>
    <g id="UI-Kit" stroke="none" stroke-width="1" fill="none" fill-rule="evenodd">
        <g id="Handprinter---UI-Kit---Inputs" transform="translate(-1140.000000, -527.000000)">
            <g id="footer-language-ghange" transform="translate(800.000000, 358.000000)">
                <g id="dropdown" transform="translate(330.000000, 77.000000)">
                    <g id="3" transform="translate(0.000000, 80.000000)">
                        <g id="Português" transform="translate(10.000000, 12.000000)">
                            <g>
                                <path d="M22.5593684,15.9737619 L0.395797271,15.9737619 C0.177230019,15.9737619 0,15.7855238 0,15.553381 L0,0.420380952 C0,0.188238095 0.177230019,0 0.395797271,0 L22.5594133,0 C22.7779805,0 22.9552105,0.188238095 22.9552105,0.420380952 L22.9552105,15.553381 C22.9551657,15.7855714 22.7779357,15.9737619 22.5593684,15.9737619 Z" id="Shape" fill="#FF4B55" fill-rule="nonzero"></path>
                                <path d="M8.31138402,0 L0.395797271,0 C0.177230019,0 0,0.188190476 0,0.420333333 L0,15.5533333 C0,15.7854762 0.177230019,15.9737143 0.395797271,15.9737143 L8.31138402,15.9737143 L8.31138402,0 Z" id="Shape" fill="#73AF00" fill-rule="nonzero"></path>
                                <ellipse id="Oval" fill="#FFE15A" fill-rule="nonzero" cx="8.55894737" cy="7.78" rx="3.55894737" ry="3.78"></ellipse>
                                <path d="M9.1662885,6.84071429 L9.1662885,8.52214286 C9.1662885,9.21752381 8.63365692,9.7832381 7.97894152,9.7832381 C7.32422612,9.7832381 6.79159454,9.21752381 6.79159454,8.52214286 L6.79159454,6.84071429 L9.1662885,6.84071429 Z M9.56204094,6 L6.39579727,6 C6.17723002,6 6,6.1882381 6,6.42038095 L6,8.52219048 C6,9.68295238 6.88601559,10.624 7.97889669,10.624 C9.07177778,10.624 9.95779337,9.68295238 9.95779337,8.52219048 L9.95779337,6.42038095 C9.95783821,6.1882381 9.78060819,6 9.56204094,6 Z" id="Shape" fill="#FF4B55" fill-rule="nonzero"></path>
                                <path d="M9.37469396,7 L9.37469396,8.68142857 C9.37469396,9.37680952 8.84206238,9.94252381 8.18734698,9.94252381 C7.53263158,9.94252381 7,9.37680952 7,8.68142857 L7,7 L9.37469396,7" id="Shape" fill="#F5F5F5" fill-rule="nonzero"></path>
                                <path d="M8.51129045,8 L8.51129045,8.362 C8.51129045,8.51171429 8.39660429,8.63352381 8.25564522,8.63352381 C8.11468616,8.63352381 8,8.51171429 8,8.362 L8,8 L8.51129045,8" id="Shape" fill="#41479B" fill-rule="nonzero"></path>
                                <path d="M8.51129045,7 L8.51129045,7.362 C8.51129045,7.51171429 8.39660429,7.63352381 8.25564522,7.63352381 C8.11468616,7.63352381 8,7.51171429 8,7.362 L8,7 L8.51129045,7" id="Shape" fill="#41479B" fill-rule="nonzero"></path>
                                <path d="M8.51129045,9 L8.51129045,9.362 C8.51129045,9.51171429 8.39660429,9.63352381 8.25564522,9.63352381 C8.11468616,9.63352381 8,9.51171429 8,9.362 L8,9 L8.51129045,9" id="Shape" fill="#41479B" fill-rule="nonzero"></path>
                                <path d="M9.51129045,8 L9.51129045,8.362 C9.51129045,8.51171429 9.39660429,8.63352381 9.25564522,8.63352381 C9.11468616,8.63352381 9,8.51171429 9,8.362 L9,8 L9.51129045,8" id="Shape" fill="#41479B" fill-rule="nonzero"></path>
                                <path d="M7.51129045,8 L7.51129045,8.362 C7.51129045,8.51171429 7.39660429,8.63352381 7.25564522,8.63352381 C7.11468616,8.63352381 7,8.51171429 7,8.362 L7,8 L7.51129045,8" id="Shape" fill="#41479B" fill-rule="nonzero"></path>
                            </g>
                        </g>
                    </g>
                </g>
            </g>
        </g>
    </g>
</svg>